<svg width="153" height="151" viewBox="0 0 153 151" fill="none" xmlns="http://www.w3.org/2000/svg">
<path d="M75.3 149.5C116.335 149.5 149.6 116.235 149.6 75.2C149.6 34.1653 116.335 0.900024 75.3 0.900024C34.2652 0.900024 1 34.1653 1 75.2C1 116.235 34.2652 149.5 75.3 149.5Z" fill="#004C98"/>
<path d="M54.9748 86.2682C51.7558 84.4288 51.1136 81.8217 52.9834 78.3632C50.6613 76.5732 50.019 74.3195 51.258 71.5376C48.7269 70.9485 47.1155 69.4511 46.9216 66.7946C46.7696 64.7005 47.7653 63.1309 49.6276 62.0174C49.2589 60.6226 48.8941 59.2165 48.5178 57.8141C48.0314 55.9975 47.5335 54.1808 47.0508 52.3642C46.3706 49.8179 47.4955 47.9405 50.0456 47.2602C59.467 44.7405 68.8884 42.2056 78.3097 39.6782C80.8066 39.0094 82.6309 40.0355 83.3644 42.5172C84.3487 45.8502 85.3292 49.1832 86.3135 52.5162C86.3629 52.6873 86.4313 52.8507 86.4237 52.8279C87.3092 52.2806 88.1263 51.5243 89.0879 51.2279C91.7368 50.4108 94.1805 52.5428 93.8005 55.2982C93.2418 59.3609 93.3748 63.3818 94.2603 67.3875C94.4617 68.292 93.9753 68.9761 93.0556 69.0217C91.8584 69.0787 90.6537 69.0597 89.4527 69.0217C88.723 68.9989 88.3848 68.5086 88.1872 67.8359C86.8494 63.245 85.4926 58.6616 84.1435 54.0744C83.0907 50.4906 82.0418 46.9029 80.9891 43.3191C80.6128 42.0345 80.1492 41.7723 78.8532 42.1181C69.485 44.6341 60.1131 47.15 50.7449 49.6697C49.3995 50.0307 49.1411 50.4754 49.5022 51.8359C50.2927 54.8155 51.1022 57.7913 51.8812 60.7747C52.0143 61.2877 52.2043 61.5195 52.801 61.5842C54.7164 61.7856 56.4266 62.5533 57.886 63.8112C59.8888 65.5366 59.8698 67.1746 57.8138 69.4093C59.467 70.0782 60.8884 71.0093 61.5724 72.7309C62.3211 74.6198 61.5953 76.0868 60.1169 77.3941C61.5002 78.2036 62.6366 79.1993 62.9976 80.8221C63.3777 82.5362 62.6556 83.8169 61.4014 84.9038C61.7587 85.3447 62.1463 85.7323 62.4352 86.1884C63.7311 88.2483 63.1078 90.9542 61.0176 92.2198C60.5083 92.5276 60.4437 92.7898 60.5919 93.3295C61.6029 97.0084 62.5758 100.699 63.5639 104.381C63.8755 105.544 64.3658 105.837 65.5097 105.533C69.8651 104.37 74.2204 103.199 78.8038 101.972C76.1663 101.436 74.7905 100.056 75.0527 97.4568C75.2047 95.9594 76.5273 94.6521 78.0171 94.3898C79.7045 94.0896 81.3349 94.8839 82.0912 96.3737C82.9425 98.0535 82.5245 99.5737 80.628 101.478C83.9344 100.592 87.1534 99.7257 90.3724 98.863C91.5582 98.5437 92.7515 98.2663 93.9145 97.8863C94.3477 97.7456 94.7734 97.4188 95.066 97.0654C95.5905 96.4307 96.2061 96.1989 96.8218 96.5599C97.4223 96.9133 97.6465 97.5632 97.2589 98.2587C96.9586 98.7908 96.5292 99.2772 96.0693 99.6801C95.7539 99.9537 95.6931 100.151 95.8109 100.531C96.6242 103.169 97.9278 105.529 99.7254 107.615C99.8964 107.813 100.075 108.003 100.246 108.201C101.071 109.166 100.873 110.128 99.6646 110.523C96.7648 111.465 93.8803 112.484 90.9197 113.187C86.0969 114.335 81.1791 114.726 76.2195 114.331C74.9463 114.228 74.7183 114.065 74.3002 112.883C73.5439 110.743 72.7724 108.611 71.9857 106.415C70.1577 106.905 68.4247 107.372 66.6917 107.828C66.1862 107.961 65.6808 108.113 65.1677 108.174C63.4005 108.376 61.7359 107.213 61.2342 105.381C60.1663 101.474 59.1249 97.5594 58.0988 93.6411C57.9544 93.0863 57.7188 92.786 57.1487 92.5694C54.9102 91.7181 53.8347 89.1908 54.6746 86.9447C54.7544 86.7281 54.8532 86.519 54.9596 86.272M97.3539 108.729C95.4423 106.285 94.1273 103.64 93.2608 100.699C86.952 102.39 80.6964 104.07 74.4142 105.753C75.0869 107.612 75.7634 109.39 76.3715 111.196C76.5501 111.724 76.8085 111.876 77.3216 111.857C79.7197 111.781 82.1254 111.834 84.5121 111.644C88.8712 111.298 93.1012 110.283 97.3539 108.729ZM91.4594 66.4374C90.8323 62.5989 90.7829 58.7832 91.2769 54.9447C91.3263 54.5533 90.9425 53.968 90.589 53.6906C90.114 53.3181 89.5173 53.5044 89.1297 53.9794C88.6356 54.5837 88.1453 55.2032 87.7577 55.8758C87.5791 56.1875 87.5259 56.6777 87.6247 57.0274C88.4456 59.9386 89.3425 62.8307 90.1558 65.7419C90.3572 66.4602 90.6727 66.6996 91.4556 66.4374M52.2499 64.0355C50.5131 63.9861 49.3387 65.0844 49.3349 66.5096C49.3311 67.9271 50.5359 69.1129 51.9725 69.0179C53.5991 68.9077 55.0622 68.292 56.343 67.2887C57.0309 66.749 57.0347 66.3043 56.3544 65.7609C55.085 64.7385 53.6143 64.1799 52.2499 64.0355ZM55.7273 76.5694C56.8979 76.463 57.9886 76.0107 58.8589 75.1062C59.5354 74.4069 59.543 73.7267 58.8741 73.0312C57.9658 72.0925 56.8447 71.5604 55.5221 71.5718C54.1425 71.5832 53.0594 72.7499 53.0974 74.1219C53.1354 75.4787 54.2945 76.5884 55.7273 76.5656M56.9853 84.1057C58.1672 83.9917 59.2846 83.5395 60.1587 82.5932C60.7896 81.9091 60.7858 81.2554 60.1359 80.5789C59.2504 79.6516 58.152 79.1309 56.8675 79.1119C55.5031 79.0929 54.3706 80.2597 54.382 81.6164C54.3934 82.9694 55.5449 84.1095 56.9853 84.1095M58.7639 90.3309C59.7862 90.3195 60.6147 89.5024 60.6109 88.5029C60.6109 87.5072 59.771 86.6901 58.7525 86.6825C57.7112 86.6749 56.8295 87.5452 56.8599 88.5523C56.8903 89.5442 57.7416 90.3423 58.7601 90.3309M78.7012 96.8639C78.0095 96.8677 77.4964 97.4226 77.5192 98.1295C77.542 98.825 78.1007 99.3456 78.7886 99.3228C79.4461 99.3 79.9363 98.7718 79.9363 98.0915C79.9363 97.3922 79.3967 96.8601 78.7012 96.8639Z" fill="white"/>
<path d="M101.603 87.929C103.872 88.9628 104.849 90.5856 104.442 92.3794C104.031 94.1808 102.545 95.3666 100.721 95.3513C98.916 95.3361 97.4452 94.101 97.0728 92.2882C96.7117 90.5247 97.7036 88.9247 99.8737 87.9556H89.563C90.1407 88.5295 90.9426 89.1452 91.5089 89.9319C92.1359 90.7984 92.1245 91.8511 91.7673 92.8696C91.201 94.481 89.6808 95.4502 87.9098 95.3399C86.2718 95.2373 84.9074 94.0174 84.5464 92.3262C84.1663 90.559 85.0671 89.0806 87.3815 87.8872C86.7887 87.8872 86.3858 87.8986 85.983 87.8872C84.9644 87.853 84.573 87.492 84.4476 86.4886C83.7103 80.5751 82.9768 74.6578 82.2357 68.7442C82.2015 68.4592 82.1407 68.178 82.0761 67.7903C81.3312 67.7903 80.5787 67.8131 79.8338 67.7789C79.4804 67.7637 79.0015 67.7447 78.8115 67.5243C78.5227 67.1937 78.2794 66.6768 78.2946 66.2511C78.3174 65.6507 78.8077 65.2972 79.4348 65.2858C80.6889 65.2706 81.9431 65.263 83.1934 65.2858C83.9687 65.2972 84.3678 65.7495 84.4666 66.5058C84.6756 68.1628 84.8922 69.8198 85.1127 71.5566H86.0704C92.4438 71.5566 98.8134 71.5566 105.187 71.5566C106.836 71.5566 107.273 72.1191 106.848 73.6849C105.696 77.9186 104.533 82.1485 103.401 86.3898C103.169 87.2525 102.804 87.8948 101.603 87.929ZM86.8191 85.3029C86.9673 85.3333 87.0661 85.3713 87.1687 85.3713C91.6343 85.3751 96.0998 85.3713 100.562 85.3865C101.078 85.3865 101.135 85.0863 101.234 84.7214C102.135 81.3922 103.039 78.0668 103.944 74.7414C103.997 74.5514 104.016 74.3537 104.054 74.1295H85.4205C85.8918 77.8958 86.3554 81.5974 86.8153 85.3067M88.2291 92.8886C88.8941 92.881 89.468 92.2882 89.449 91.6193C89.4338 90.939 88.8523 90.3955 88.172 90.4183C87.526 90.4411 86.9939 90.9884 86.9863 91.6383C86.9787 92.3072 87.564 92.8962 88.2291 92.8886ZM101.987 91.6725C102.002 90.9922 101.443 90.4221 100.763 90.4183C100.113 90.4183 99.5659 90.9314 99.5279 91.5851C99.4898 92.2502 100.049 92.8658 100.714 92.8886C101.382 92.9114 101.972 92.349 101.987 91.6725Z" fill="white"/>
<path d="M73.2018 81.6088C71.2978 81.6088 69.3899 81.6088 67.4859 81.6088C67.2275 81.6088 66.9614 81.605 66.7068 81.5518C66.0189 81.4112 65.6541 80.9438 65.6959 80.2673C65.7377 79.5946 66.1481 79.1385 66.855 79.1195C68.1054 79.0853 69.3595 79.1005 70.6137 79.1005C73.5096 79.1005 76.4056 79.0929 79.3053 79.1081C80.1301 79.1119 80.6545 79.5984 80.6811 80.3015C80.7039 80.9894 80.1795 81.5252 79.389 81.6012C79.1837 81.6202 78.9709 81.6126 78.7619 81.6126C76.9073 81.6126 75.0564 81.6126 73.2018 81.6126" fill="white"/>
<path d="M76.953 84.1209C78.154 84.1209 79.3549 84.1095 80.5559 84.1247C81.3996 84.1361 81.9088 84.5846 81.9468 85.2953C81.9848 86.0288 81.4604 86.6026 80.6091 86.614C78.1806 86.6444 75.7559 86.6406 73.3274 86.6178C72.4723 86.6102 71.9212 86.063 71.9288 85.3485C71.9364 84.6264 72.4837 84.1361 73.354 84.1247C74.5549 84.1095 75.7559 84.1247 76.9568 84.1247" fill="white"/>
<path d="M74.4295 74.0687C75.6305 74.0687 76.8276 74.0573 78.0286 74.0725C78.8609 74.0839 79.3853 74.5476 79.4195 75.2469C79.4575 75.9614 78.9103 76.5543 78.0742 76.5657C75.6495 76.5923 73.221 76.5923 70.7963 76.5657C69.9564 76.5581 69.4053 75.969 69.4395 75.2545C69.4737 74.5552 70.002 74.0839 70.8267 74.0725C72.0276 74.0535 73.2248 74.0687 74.4257 74.0687" fill="white"/>
</svg>
