<svg width="153" height="151" viewBox="0 0 153 151" fill="none" xmlns="http://www.w3.org/2000/svg">
<path d="M109.817 69.4963C109.557 69.3165 109.429 69.1294 109.374 68.8983H49.2184C49.1634 68.8983 49.1193 68.8873 49.0753 68.8726H46.6503C45.9496 68.9643 45.2526 69.0597 44.5518 69.1588C44.5262 69.2101 44.4931 69.2542 44.4565 69.2762C43.6934 69.7091 43.3265 70.4208 43 71.1765V91.7614C43.6017 93.46 44.8197 94.0434 46.588 94.0397C61.0205 94.003 84.6504 94.0397 99.0829 94.0397C99.2297 94.0397 99.3361 94.0324 99.4131 94.0213C102.293 94.0213 105.177 94.0213 108.057 94.0177C109.77 94.014 110.977 92.796 110.995 91.0864C111.006 90.0445 110.995 89.0063 110.995 87.9644C110.995 82.6521 110.991 77.3399 110.999 72.0277C110.999 70.9858 110.687 70.0906 109.817 69.4963ZM109.003 90.7416C109.003 91.7761 108.754 92.0256 107.715 92.0256C103.918 92.0256 100.125 92.0256 96.3278 92.0256C96.3168 92.0256 96.3058 92.0256 96.2984 92.0256C81.7998 92.0256 60.8591 92.0256 46.3605 92.0256C45.2159 92.0256 44.9921 91.8055 44.9921 90.6902C44.9921 84.5378 44.9921 78.3818 44.9921 72.2294C44.9921 71.1399 45.2232 70.9087 46.3128 70.9087C66.7656 70.9087 87.2185 70.9087 107.671 70.9087C108.768 70.9087 109.007 71.1399 109.007 72.2111C109.007 78.3855 109.007 84.5635 109.007 90.7379L109.003 90.7416Z" fill="#424242"/>
<path d="M76.9829 74.2325C79.4849 74.2325 81.9833 74.2325 84.4853 74.2325C86.2059 74.2325 87.2551 75.2634 87.2882 76.9877C87.3065 77.9379 87.3065 78.8917 87.2882 79.8419C87.2551 81.5625 86.2022 82.5934 84.4816 82.5934C79.4812 82.5971 74.4808 82.5971 69.4768 82.5934C67.8002 82.5934 66.7436 81.5515 66.7106 79.8713C66.6886 78.8991 66.6886 77.9232 66.7106 76.951C66.7473 75.2671 67.8039 74.2362 69.4804 74.2325C71.9825 74.2252 74.4808 74.2325 76.9829 74.2325ZM76.9939 80.6087C79.4702 80.6087 81.9466 80.5977 84.4229 80.616C85.0466 80.6197 85.3107 80.3629 85.3034 79.7502C85.2887 78.8441 85.2961 77.9379 85.3034 77.0317C85.3034 76.4888 85.0723 76.2246 84.5036 76.2246C79.5069 76.232 74.5102 76.232 69.5135 76.2246C68.9522 76.2246 68.7027 76.4741 68.7027 77.0207C68.7064 77.9049 68.6954 78.789 68.7027 79.6732C68.71 80.4619 68.8531 80.6087 69.6345 80.6087C72.0889 80.6087 74.5432 80.6087 76.9975 80.6087H76.9939Z" fill="#424242"/>
<path d="M50.6014 90.0372C49.7833 90.0372 48.9652 90.0445 48.1471 90.0372C47.4354 90.0298 46.9878 89.6336 46.9841 89.043C46.9841 88.4523 47.4317 88.0524 48.1471 88.0487C49.8053 88.0414 51.4636 88.0414 53.1218 88.0487C53.8372 88.0487 54.2848 88.4486 54.2848 89.043C54.2848 89.6336 53.8372 90.0298 53.1218 90.0372C52.2817 90.0482 51.4416 90.0372 50.6014 90.0372Z" fill="#424242"/>
<path d="M49.3652 84.0646C49.7834 84.0646 50.2053 84.0463 50.6235 84.0683C51.2289 84.1013 51.6398 84.5342 51.6251 85.0845C51.6104 85.6091 51.2142 86.0273 50.6382 86.0457C49.7541 86.0714 48.8699 86.0714 47.9858 86.0457C47.3804 86.0273 46.9696 85.5834 46.9879 85.0331C47.0026 84.5085 47.3988 84.105 47.9748 84.0719C48.437 84.0463 48.9029 84.0683 49.3652 84.0683V84.0646Z" fill="#424242"/>
<path d="M68.8017 70.0099C68.633 68.6011 68.5413 67.1887 68.6256 65.7543C68.6366 65.5415 68.6256 65.325 68.6256 65.0425H78.0321C78.1458 65.0425 83.0765 65.0499 85.7253 65.0499C85.6263 66.4513 85.5602 67.8161 85.4538 69.1625C86.1215 69.1661 86.7892 69.1771 87.4569 69.1845C87.5046 68.6342 87.545 68.0839 87.5523 67.5336C87.6844 60.7649 87.5963 53.9888 87.5963 47.2165C87.5963 44.9602 87.0644 42.8398 85.9491 40.8697C85.4061 39.9085 84.8999 38.9216 84.3349 37.9714C82.2731 34.4899 81.6898 30.7038 81.9759 26.7086C82.684 26.5325 82.9261 26.0336 82.8894 25.3219C82.8601 24.7716 82.8968 24.2139 82.8784 23.6636C82.8234 22.1998 81.8402 21.235 80.369 21.224C78.2009 21.2093 76.0327 21.2093 73.8608 21.224C72.397 21.2313 71.3992 22.1925 71.3258 23.6489C71.2964 24.269 71.3184 24.889 71.3184 25.509C71.3184 26.0152 71.5019 26.3968 71.9898 26.6279C72.1255 26.6903 72.276 26.9141 72.2686 27.0535C72.1953 28.7961 72.1916 30.5497 71.9751 32.2777C71.6596 34.7797 70.438 36.9515 69.2493 39.1344C68.4495 40.6019 67.7598 42.1354 67.1105 43.6799C66.8353 44.3366 66.784 45.0886 66.6299 45.7967V69.3055C66.6739 69.566 66.7143 69.8265 66.7583 70.0906C67.437 70.0723 68.1157 70.0429 68.7944 70.0099H68.8017ZM73.3399 23.7663C73.4279 23.5389 73.7141 23.2381 73.9159 23.2344C76.0327 23.194 78.1495 23.216 80.2663 23.205C80.7286 23.205 80.901 23.4252 80.89 23.8544C80.8827 24.0965 80.89 24.3387 80.89 24.6542H73.3142C73.3142 24.3533 73.2372 24.0232 73.3362 23.7663H73.3399ZM79.9031 26.7123V28.2238H74.3268V26.7123H79.9031ZM69.906 42.0326C70.7388 40.4991 71.6193 38.9877 72.4007 37.4285C73.5086 35.2089 74.0809 32.8353 74.2424 30.3149H79.9288C80.0425 31.089 80.1416 31.8924 80.2737 32.6885C80.6332 34.8017 81.3926 36.7718 82.4345 38.6391C83.0912 39.8168 83.7552 40.9907 84.3899 42.1794C85.0062 43.335 85.4061 44.564 85.5199 45.9288H68.7137C68.8017 44.5127 69.253 43.2433 69.9097 42.0326H69.906ZM68.6623 48.0089H85.5676V59.3378H68.6623V48.0089ZM68.6587 61.4032H85.5639V63.0431C83.7259 63.0358 74.844 63.0431 73.006 63.0431C71.5716 63.0431 70.1371 63.0431 68.6587 63.0431V61.4032Z" fill="#424242"/>
<path d="M77.0746 57.0999C76.3666 57.0999 75.6585 57.1219 74.9541 57.0962C73.1418 57.0265 71.7037 55.5443 71.6817 53.743C71.6596 51.916 73.0134 50.3715 74.8294 50.2871C76.3519 50.2138 77.8817 50.2138 79.4042 50.2871C81.2092 50.3752 82.5996 51.9601 82.5556 53.754C82.5116 55.559 81.0735 57.0302 79.2648 57.0962C78.5347 57.1219 77.8047 57.0999 77.0746 57.0999ZM77.0966 55.1114C77.0966 55.1114 77.0966 55.1114 77.0966 55.1151C77.7166 55.1151 78.333 55.1151 78.953 55.1151C78.997 55.1151 79.041 55.1151 79.085 55.1114C79.9325 55.0674 80.5378 54.4914 80.5598 53.7137C80.5819 52.9176 79.9618 52.2756 79.085 52.2572C77.7606 52.2315 76.4363 52.2279 75.1119 52.2572C74.2571 52.2756 73.6774 52.8882 73.6811 53.6807C73.6811 54.4658 74.2754 55.0748 75.1155 55.1041C75.7759 55.1298 76.4399 55.1078 77.104 55.1078L77.0966 55.1114Z" fill="#424242"/>
<path d="M46.5256 70.0099C46.3569 68.6011 46.2651 67.1887 46.3495 65.7543C46.3605 65.5415 46.3495 65.325 46.3495 65.0425H55.756C55.8697 65.0425 60.8004 65.0499 63.4492 65.0499C63.3501 66.4513 63.2841 67.8161 63.1777 69.1625C63.8454 69.1661 64.5131 69.1771 65.1808 69.1845C65.2285 68.6342 65.2688 68.0839 65.2762 67.5336C65.4083 60.7649 65.3202 53.9888 65.3202 47.2165C65.3202 44.9602 64.7882 42.8398 63.673 40.8697C63.13 39.9085 62.6237 38.9216 62.0588 37.9714C59.997 34.4899 59.4136 30.7038 59.6998 26.7086C60.4079 26.5325 60.65 26.0336 60.6133 25.3219C60.584 24.7716 60.6206 24.2139 60.6023 23.6636C60.5473 22.1998 59.5641 21.235 58.0929 21.224C55.9247 21.2093 53.7566 21.2093 51.5847 21.224C50.1209 21.2313 49.123 22.1925 49.0497 23.6489C49.0203 24.269 49.0423 24.889 49.0423 25.509C49.0423 26.0152 49.2258 26.3968 49.7137 26.6279C49.8494 26.6903 49.9998 26.9141 49.9925 27.0535C49.9191 28.7961 49.9155 30.5497 49.699 32.2777C49.3835 34.7797 48.1618 36.9515 46.9732 39.1344C46.1734 40.6019 45.4837 42.1354 44.8344 43.6799C44.5592 44.3366 44.5078 45.0886 44.3538 45.7967V69.3055C44.3978 69.566 44.4381 69.8265 44.4822 70.0906C45.1609 70.0723 45.8396 70.0429 46.5183 70.0099H46.5256ZM51.0674 23.7663C51.1555 23.5389 51.4416 23.2381 51.6434 23.2344C53.7602 23.194 55.877 23.216 57.9939 23.205C58.4561 23.205 58.6286 23.4252 58.6175 23.8544C58.6102 24.0965 58.6175 24.3387 58.6175 24.6542H51.0417C51.0417 24.3533 50.9647 24.0232 51.0638 23.7663H51.0674ZM57.6307 26.7123V28.2238H52.0543V26.7123H57.6307ZM47.6335 42.0363C48.4663 40.5028 49.3468 38.9913 50.1282 37.4321C51.2362 35.2126 51.8085 32.839 51.9699 30.3186H57.6564C57.7701 31.0927 57.8691 31.8961 58.0012 32.6922C58.3607 34.8054 59.1202 36.7754 60.1621 38.6428C60.8187 39.8204 61.4828 40.9944 62.1175 42.1831C62.7338 43.3387 63.1337 44.5677 63.2474 45.9324H46.4412C46.5293 44.5163 46.9805 43.247 47.6372 42.0363H47.6335ZM46.3899 48.0126H63.2951V59.3414H46.3899V48.0126ZM46.3862 61.4069H63.2914V63.0468C61.4534 63.0394 52.5716 63.0468 50.7336 63.0468C49.2991 63.0468 47.8647 63.0468 46.3862 63.0468V61.4069Z" fill="#424242"/>
<path d="M54.7985 57.0999C54.0904 57.0999 53.3824 57.1219 52.678 57.0962C50.8657 57.0265 49.4276 55.5443 49.4055 53.743C49.3835 51.916 50.7373 50.3715 52.5533 50.2871C54.0758 50.2138 55.6056 50.2138 57.1281 50.2871C58.9331 50.3752 60.3235 51.9601 60.2795 53.754C60.2354 55.559 58.7973 57.0302 56.9887 57.0962C56.2586 57.1219 55.5285 57.0999 54.7985 57.0999ZM54.8205 55.1114C54.8205 55.1114 54.8205 55.1114 54.8205 55.1151C55.4405 55.1151 56.0568 55.1151 56.6768 55.1151C56.7209 55.1151 56.7649 55.1151 56.8089 55.1114C57.6564 55.0674 58.2617 54.4914 58.2837 53.7137C58.3057 52.9176 57.6857 52.2756 56.8089 52.2572C55.4845 52.2315 54.1601 52.2279 52.8357 52.2572C51.9809 52.2756 51.4013 52.8882 51.405 53.6807C51.405 54.4658 51.9993 55.0748 52.8394 55.1041C53.4998 55.1298 54.1638 55.1078 54.8278 55.1078L54.8205 55.1114Z" fill="#424242"/>
<path d="M90.4431 70.0099C90.2743 68.6011 90.1826 67.1887 90.267 65.7543C90.278 65.5415 90.267 65.325 90.267 65.0425H99.6735C99.7872 65.0425 104.718 65.0499 107.367 65.0499C107.268 66.4513 107.202 67.8161 107.095 69.1625C107.763 69.1661 108.431 69.1771 109.098 69.1845C109.146 68.6342 109.186 68.0839 109.194 67.5336C109.326 60.7649 109.238 53.9888 109.238 47.2165C109.238 44.9602 108.706 42.8398 107.59 40.8697C107.047 39.9085 106.541 38.9216 105.976 37.9714C103.914 34.4899 103.331 30.7038 103.617 26.7086C104.325 26.5325 104.567 26.0336 104.531 25.3219C104.501 24.7716 104.538 24.2139 104.52 23.6636C104.465 22.1998 103.482 21.235 102.01 21.224C99.8422 21.2093 97.674 21.2093 95.5022 21.224C94.0384 21.2313 93.0405 22.1925 92.9671 23.6489C92.9378 24.269 92.9598 24.889 92.9598 25.509C92.9598 26.0152 93.1432 26.3968 93.6312 26.6279C93.7669 26.6903 93.9173 26.9141 93.91 27.0535C93.8366 28.7961 93.8329 30.5497 93.6165 32.2777C93.301 34.7797 92.0793 36.9515 90.8907 39.1344C90.0909 40.6019 89.4012 42.1354 88.7518 43.6799C88.4767 44.3366 88.4253 45.0886 88.2712 45.7967V69.3055C88.3153 69.566 88.3556 69.8265 88.3996 70.0906C89.0783 70.0723 89.757 70.0429 90.4358 70.0099H90.4431ZM94.9849 23.7663C95.073 23.5389 95.3591 23.2381 95.5609 23.2344C97.6777 23.194 99.7945 23.216 101.911 23.205C102.374 23.205 102.546 23.4252 102.535 23.8544C102.528 24.0965 102.535 24.3387 102.535 24.6542H94.9592C94.9592 24.3533 94.8822 24.0232 94.9812 23.7663H94.9849ZM101.548 26.7123V28.2238H95.9718V26.7123H101.548ZM91.551 42.0326C92.3838 40.4991 93.2643 38.9877 94.0457 37.4285C95.1537 35.2089 95.726 32.8353 95.8874 30.3149H101.574C101.688 31.089 101.787 31.8924 101.919 32.6885C102.278 34.8017 103.038 36.7718 104.08 38.6391C104.736 39.8168 105.4 40.9907 106.035 42.1794C106.651 43.335 107.051 44.564 107.165 45.9288H90.3587C90.4468 44.5127 90.898 43.2433 91.5547 42.0326H91.551ZM90.3074 48.0089H107.213V59.3378H90.3074V48.0089ZM90.3037 61.4032H107.209V63.0431C105.371 63.0358 96.4891 63.0431 94.6511 63.0431C93.2166 63.0431 91.7822 63.0431 90.3037 63.0431V61.4032Z" fill="#424242"/>
<path d="M98.7196 57.0999C98.0116 57.0999 97.3035 57.1219 96.5991 57.0962C94.7868 57.0265 93.3487 55.5443 93.3267 53.743C93.3047 51.916 94.6584 50.3715 96.4744 50.2871C97.9969 50.2138 99.5267 50.2138 101.049 50.2871C102.854 50.3752 104.245 51.9601 104.201 53.754C104.157 55.559 102.718 57.0302 100.91 57.0962C100.18 57.1219 99.4497 57.0999 98.7196 57.0999ZM98.7416 55.1114C98.7416 55.1114 98.7416 55.1114 98.7416 55.1151C99.3616 55.1151 99.978 55.1151 100.598 55.1151C100.642 55.1151 100.686 55.1151 100.73 55.1114C101.578 55.0674 102.183 54.4914 102.205 53.7137C102.227 52.9176 101.607 52.2756 100.73 52.2572C99.4057 52.2315 98.0813 52.2279 96.7569 52.2572C95.9021 52.2756 95.3224 52.8882 95.3261 53.6807C95.3261 54.4658 95.9204 55.0748 96.7606 55.1041C97.4209 55.1298 98.0849 55.1078 98.749 55.1078L98.7416 55.1114Z" fill="#424242"/>
<path d="M42.7214 117.04H41.6135L44.818 108.312H45.9089L49.1135 117.04H48.0055L45.3975 109.693H45.3294L42.7214 117.04ZM43.1305 113.631H47.5964V114.568H43.1305V113.631ZM51.3422 108.312V117.04H50.3365V108.312H51.3422ZM53.1841 117.04V110.494H54.1898V117.04H53.1841ZM53.6955 109.403C53.4995 109.403 53.3304 109.337 53.1884 109.203C53.0492 109.07 52.9796 108.909 52.9796 108.722C52.9796 108.534 53.0492 108.374 53.1884 108.24C53.3304 108.106 53.4995 108.04 53.6955 108.04C53.8915 108.04 54.0591 108.106 54.1983 108.24C54.3404 108.374 54.4114 108.534 54.4114 108.722C54.4114 108.909 54.3404 109.07 54.1983 109.203C54.0591 109.337 53.8915 109.403 53.6955 109.403ZM56.0318 117.04V110.494H57.0034V111.517H57.0886C57.225 111.168 57.4451 110.896 57.7491 110.703C58.0531 110.507 58.4181 110.409 58.8443 110.409C59.2761 110.409 59.6355 110.507 59.9224 110.703C60.2122 110.896 60.438 111.168 60.6 111.517H60.6681C60.8358 111.179 61.0872 110.91 61.4224 110.712C61.7576 110.51 62.1596 110.409 62.6284 110.409C63.2136 110.409 63.6923 110.592 64.0645 110.959C64.4366 111.322 64.6227 111.889 64.6227 112.659V117.04H63.617V112.659C63.617 112.176 63.4849 111.831 63.2207 111.624C62.9565 111.416 62.6454 111.312 62.2875 111.312C61.8272 111.312 61.4707 111.452 61.2179 111.73C60.965 112.006 60.8386 112.355 60.8386 112.778V117.04H59.8159V112.557C59.8159 112.185 59.6951 111.885 59.4537 111.658C59.2122 111.427 58.9011 111.312 58.5204 111.312C58.2591 111.312 58.0147 111.382 57.7875 111.521C57.563 111.66 57.3812 111.854 57.242 112.101C57.1056 112.345 57.0375 112.628 57.0375 112.949V117.04H56.0318ZM69.2058 117.176C68.5751 117.176 68.0311 117.037 67.5737 116.758C67.1191 116.477 66.7683 116.085 66.5211 115.582C66.2768 115.077 66.1547 114.489 66.1547 113.818C66.1547 113.148 66.2768 112.557 66.5211 112.045C66.7683 111.531 67.112 111.131 67.5524 110.844C67.9956 110.554 68.5126 110.409 69.1035 110.409C69.4444 110.409 69.7811 110.466 70.1135 110.579C70.4458 110.693 70.7484 110.878 71.0211 111.133C71.2939 111.386 71.5112 111.722 71.6731 112.139C71.835 112.557 71.916 113.071 71.916 113.682V114.108H66.8706V113.239H70.8933C70.8933 112.869 70.8194 112.54 70.6717 112.25C70.5268 111.96 70.3194 111.731 70.0495 111.564C69.7825 111.396 69.4672 111.312 69.1035 111.312C68.7029 111.312 68.3564 111.412 68.0637 111.611C67.774 111.807 67.551 112.062 67.3947 112.378C67.2385 112.693 67.1603 113.031 67.1603 113.392V113.972C67.1603 114.466 67.2456 114.885 67.416 115.229C67.5893 115.57 67.8294 115.829 68.1362 116.008C68.443 116.185 68.7995 116.273 69.2058 116.273C69.47 116.273 69.7086 116.236 69.9217 116.162C70.1376 116.085 70.3237 115.972 70.4799 115.821C70.6362 115.668 70.7569 115.477 70.8422 115.25L71.8137 115.523C71.7115 115.852 71.5396 116.142 71.2981 116.392C71.0566 116.639 70.7583 116.832 70.4032 116.972C70.0481 117.108 69.649 117.176 69.2058 117.176ZM74.4515 113.102V117.04H73.4458V110.494H74.4174V111.517H74.5027C74.6561 111.185 74.889 110.918 75.2015 110.716C75.514 110.511 75.9174 110.409 76.4118 110.409C76.8549 110.409 77.2427 110.5 77.5751 110.682C77.9075 110.861 78.166 111.133 78.3507 111.5C78.5353 111.864 78.6277 112.324 78.6277 112.881V117.04H77.622V112.949C77.622 112.435 77.4885 112.034 77.2214 111.747C76.9544 111.457 76.5879 111.312 76.122 111.312C75.801 111.312 75.514 111.382 75.2612 111.521C75.0112 111.66 74.8137 111.864 74.6689 112.131C74.524 112.398 74.4515 112.722 74.4515 113.102ZM83.312 110.494V111.347H79.9199V110.494H83.312ZM80.9086 108.926H81.9142V115.165C81.9142 115.449 81.9554 115.662 82.0378 115.804C82.123 115.943 82.231 116.037 82.3617 116.085C82.4952 116.131 82.6358 116.153 82.7836 116.153C82.8944 116.153 82.9853 116.148 83.0563 116.136C83.1273 116.122 83.1841 116.111 83.2267 116.102L83.4313 117.006C83.3631 117.031 83.2679 117.057 83.1458 117.082C83.0236 117.111 82.8688 117.125 82.6813 117.125C82.3972 117.125 82.1188 117.064 81.8461 116.942C81.5762 116.82 81.3517 116.633 81.1728 116.383C80.9966 116.133 80.9086 115.818 80.9086 115.437V108.926ZM87.4135 117.176C86.8226 117.176 86.3042 117.035 85.8581 116.754C85.415 116.473 85.0684 116.079 84.8184 115.574C84.5712 115.068 84.4476 114.477 84.4476 113.801C84.4476 113.119 84.5712 112.524 84.8184 112.016C85.0684 111.507 85.415 111.112 85.8581 110.831C86.3042 110.55 86.8226 110.409 87.4135 110.409C88.0044 110.409 88.5215 110.55 88.9647 110.831C89.4107 111.112 89.7573 111.507 90.0044 112.016C90.2544 112.524 90.3794 113.119 90.3794 113.801C90.3794 114.477 90.2544 115.068 90.0044 115.574C89.7573 116.079 89.4107 116.473 88.9647 116.754C88.5215 117.035 88.0044 117.176 87.4135 117.176ZM87.4135 116.273C87.8624 116.273 88.2317 116.158 88.5215 115.927C88.8113 115.697 89.0257 115.395 89.165 115.02C89.3042 114.645 89.3738 114.239 89.3738 113.801C89.3738 113.364 89.3042 112.956 89.165 112.578C89.0257 112.2 88.8113 111.895 88.5215 111.662C88.2317 111.429 87.8624 111.312 87.4135 111.312C86.9647 111.312 86.5953 111.429 86.3056 111.662C86.0158 111.895 85.8013 112.2 85.6621 112.578C85.5229 112.956 85.4533 113.364 85.4533 113.801C85.4533 114.239 85.5229 114.645 85.6621 115.02C85.8013 115.395 86.0158 115.697 86.3056 115.927C86.5953 116.158 86.9647 116.273 87.4135 116.273ZM96.551 111.96L95.6475 112.216C95.5907 112.065 95.5069 111.919 95.3961 111.777C95.2882 111.632 95.1404 111.513 94.9529 111.419C94.7654 111.325 94.5254 111.278 94.2328 111.278C93.8322 111.278 93.4984 111.371 93.2314 111.555C92.9672 111.737 92.835 111.969 92.835 112.25C92.835 112.5 92.926 112.697 93.1078 112.842C93.2896 112.987 93.5737 113.108 93.96 113.204L94.9316 113.443C95.5169 113.585 95.9529 113.802 96.2399 114.095C96.5268 114.385 96.6703 114.758 96.6703 115.216C96.6703 115.591 96.5623 115.926 96.3464 116.222C96.1333 116.517 95.835 116.75 95.4515 116.92C95.068 117.091 94.622 117.176 94.1135 117.176C93.4458 117.176 92.8933 117.031 92.4558 116.741C92.0183 116.452 91.7413 116.028 91.6248 115.472L92.5794 115.233C92.6703 115.585 92.8422 115.849 93.095 116.025C93.3507 116.202 93.6845 116.29 94.0964 116.29C94.5652 116.29 94.9373 116.19 95.2129 115.991C95.4913 115.79 95.6305 115.548 95.6305 115.267C95.6305 115.04 95.551 114.849 95.3919 114.696C95.2328 114.54 94.9885 114.423 94.6589 114.347L93.568 114.091C92.9686 113.949 92.5282 113.729 92.247 113.43C91.9686 113.129 91.8294 112.753 91.8294 112.301C91.8294 111.932 91.9331 111.605 92.1404 111.321C92.3507 111.037 92.6362 110.814 92.997 110.652C93.3606 110.49 93.7725 110.409 94.2328 110.409C94.8805 110.409 95.389 110.551 95.7583 110.835C96.1305 111.119 96.3947 111.494 96.551 111.96ZM102.207 119.494C102.036 119.494 101.884 119.48 101.751 119.452C101.617 119.426 101.525 119.4 101.474 119.375L101.73 118.489C101.974 118.551 102.19 118.574 102.377 118.557C102.565 118.54 102.731 118.456 102.876 118.305C103.024 118.158 103.159 117.918 103.281 117.585L103.468 117.074L101.048 110.494H102.139L103.945 115.71H104.014L105.82 110.494H106.911L104.133 117.994C104.008 118.332 103.853 118.612 103.669 118.834C103.484 119.058 103.269 119.224 103.025 119.332C102.784 119.44 102.511 119.494 102.207 119.494ZM54.4455 132.04V123.312H55.4512V126.534H55.5364C55.6103 126.42 55.7125 126.275 55.8432 126.099C55.9767 125.92 56.1671 125.761 56.4142 125.622C56.6642 125.48 57.0023 125.409 57.4284 125.409C57.9796 125.409 58.4654 125.547 58.8858 125.822C59.3063 126.098 59.6344 126.489 59.8702 126.994C60.106 127.5 60.2239 128.097 60.2239 128.784C60.2239 129.477 60.106 130.078 59.8702 130.587C59.6344 131.092 59.3077 131.484 58.8901 131.763C58.4725 132.038 57.9909 132.176 57.4455 132.176C57.025 132.176 56.6884 132.106 56.4355 131.967C56.1827 131.825 55.9881 131.665 55.8517 131.486C55.7154 131.304 55.6103 131.153 55.5364 131.034H55.4171V132.04H54.4455ZM55.4341 128.767C55.4341 129.261 55.5066 129.697 55.6515 130.075C55.7963 130.45 56.008 130.744 56.2864 130.957C56.5648 131.168 56.9057 131.273 57.3091 131.273C57.7296 131.273 58.0804 131.162 58.3617 130.94C58.6458 130.716 58.8588 130.415 59.0009 130.037C59.1458 129.656 59.2182 129.233 59.2182 128.767C59.2182 128.307 59.1472 127.892 59.0051 127.523C58.8659 127.15 58.6543 126.856 58.3702 126.641C58.089 126.422 57.7353 126.312 57.3091 126.312C56.9 126.312 56.5563 126.416 56.2779 126.624C55.9995 126.828 55.7892 127.115 55.6472 127.484C55.5051 127.851 55.4341 128.278 55.4341 128.767ZM64.5066 132.176C63.8759 132.176 63.3319 132.037 62.8745 131.758C62.4199 131.477 62.0691 131.085 61.8219 130.582C61.5776 130.077 61.4554 129.489 61.4554 128.818C61.4554 128.148 61.5776 127.557 61.8219 127.045C62.0691 126.531 62.4128 126.131 62.8532 125.844C63.2963 125.554 63.8134 125.409 64.4043 125.409C64.7452 125.409 65.0819 125.466 65.4142 125.579C65.7466 125.693 66.0492 125.878 66.3219 126.133C66.5946 126.386 66.812 126.722 66.9739 127.139C67.1358 127.557 67.2168 128.071 67.2168 128.682V129.108H62.1713V128.239H66.1941C66.1941 127.869 66.1202 127.54 65.9725 127.25C65.8276 126.96 65.6202 126.731 65.3503 126.564C65.0833 126.396 64.7679 126.312 64.4043 126.312C64.0037 126.312 63.6571 126.412 63.3645 126.611C63.0748 126.807 62.8517 127.062 62.6955 127.378C62.5392 127.693 62.4611 128.031 62.4611 128.392V128.972C62.4611 129.466 62.5463 129.885 62.7168 130.229C62.8901 130.57 63.1301 130.829 63.437 131.008C63.7438 131.185 64.1003 131.273 64.5066 131.273C64.7708 131.273 65.0094 131.236 65.2225 131.162C65.4384 131.085 65.6245 130.972 65.7807 130.821C65.937 130.668 66.0577 130.477 66.1429 130.25L67.1145 130.523C67.0123 130.852 66.8404 131.142 66.5989 131.392C66.3574 131.639 66.0591 131.832 65.704 131.972C65.3489 132.108 64.9498 132.176 64.5066 132.176ZM68.883 132.04V123.312H69.8887V126.534H69.9739C70.0478 126.42 70.15 126.275 70.2807 126.099C70.4142 125.92 70.6046 125.761 70.8517 125.622C71.1017 125.48 71.4398 125.409 71.8659 125.409C72.4171 125.409 72.9029 125.547 73.3233 125.822C73.7438 126.098 74.0719 126.489 74.3077 126.994C74.5435 127.5 74.6614 128.097 74.6614 128.784C74.6614 129.477 74.5435 130.078 74.3077 130.587C74.0719 131.092 73.7452 131.484 73.3276 131.763C72.91 132.038 72.4284 132.176 71.883 132.176C71.4625 132.176 71.1259 132.106 70.873 131.967C70.6202 131.825 70.4256 131.665 70.2892 131.486C70.1529 131.304 70.0478 131.153 69.9739 131.034H69.8546V132.04H68.883ZM69.8716 128.767C69.8716 129.261 69.9441 129.697 70.089 130.075C70.2338 130.45 70.4455 130.744 70.7239 130.957C71.0023 131.168 71.3432 131.273 71.7466 131.273C72.1671 131.273 72.5179 131.162 72.7992 130.94C73.0833 130.716 73.2963 130.415 73.4384 130.037C73.5833 129.656 73.6557 129.233 73.6557 128.767C73.6557 128.307 73.5847 127.892 73.4426 127.523C73.3034 127.15 73.0918 126.856 72.8077 126.641C72.5265 126.422 72.1728 126.312 71.7466 126.312C71.3375 126.312 70.9938 126.416 70.7154 126.624C70.437 126.828 70.2267 127.115 70.0847 127.484C69.9426 127.851 69.8716 128.278 69.8716 128.767ZM76.1998 132.04V125.494H77.2054V132.04H76.1998ZM76.7111 124.403C76.5151 124.403 76.3461 124.337 76.204 124.203C76.0648 124.07 75.9952 123.909 75.9952 123.722C75.9952 123.534 76.0648 123.374 76.204 123.24C76.3461 123.106 76.5151 123.04 76.7111 123.04C76.9071 123.04 77.0748 123.106 77.214 123.24C77.356 123.374 77.427 123.534 77.427 123.722C77.427 123.909 77.356 124.07 77.214 124.203C77.0748 124.337 76.9071 124.403 76.7111 124.403ZM81.519 132.176C80.9735 132.176 80.492 132.038 80.0744 131.763C79.6568 131.484 79.3301 131.092 79.0943 130.587C78.8585 130.078 78.7406 129.477 78.7406 128.784C78.7406 128.097 78.8585 127.5 79.0943 126.994C79.3301 126.489 79.6582 126.098 80.0787 125.822C80.4991 125.547 80.9849 125.409 81.536 125.409C81.9622 125.409 82.2988 125.48 82.546 125.622C82.796 125.761 82.9863 125.92 83.117 126.099C83.2505 126.275 83.3542 126.42 83.4281 126.534H83.5133V123.312H84.519V132.04H83.5474V131.034H83.4281C83.3542 131.153 83.2491 131.304 83.1127 131.486C82.9764 131.665 82.7818 131.825 82.5289 131.967C82.2761 132.106 81.9395 132.176 81.519 132.176ZM81.6554 131.273C82.0588 131.273 82.3997 131.168 82.6781 130.957C82.9565 130.744 83.1681 130.45 83.313 130.075C83.4579 129.697 83.5304 129.261 83.5304 128.767C83.5304 128.278 83.4593 127.851 83.3173 127.484C83.1752 127.115 82.965 126.828 82.6866 126.624C82.4082 126.416 82.0645 126.312 81.6554 126.312C81.2292 126.312 80.8741 126.422 80.59 126.641C80.3088 126.856 80.0971 127.15 79.9551 127.523C79.8159 127.892 79.7463 128.307 79.7463 128.767C79.7463 129.233 79.8173 129.656 79.9593 130.037C80.1042 130.415 80.3173 130.716 80.5985 130.94C80.8826 131.162 81.2349 131.273 81.6554 131.273ZM88.4267 132.193C88.0119 132.193 87.6355 132.115 87.2974 131.959C86.9593 131.8 86.6909 131.571 86.492 131.273C86.2931 130.972 86.1937 130.608 86.1937 130.182C86.1937 129.807 86.2676 129.503 86.4153 129.27C86.563 129.034 86.7605 128.849 87.0076 128.716C87.2548 128.582 87.5275 128.483 87.8258 128.418C88.127 128.349 88.4295 128.295 88.7335 128.256C89.1312 128.204 89.4537 128.166 89.7008 128.141C89.9508 128.112 90.1326 128.065 90.2463 128C90.3627 127.935 90.421 127.821 90.421 127.659V127.625C90.421 127.204 90.3059 126.878 90.0758 126.645C89.8485 126.412 89.5034 126.295 89.0403 126.295C88.5602 126.295 88.1838 126.4 87.911 126.611C87.6383 126.821 87.4466 127.045 87.3358 127.284L86.3812 126.943C86.5517 126.545 86.7789 126.236 87.063 126.014C87.35 125.79 87.6625 125.633 88.0005 125.545C88.3414 125.454 88.6767 125.409 89.0062 125.409C89.2164 125.409 89.4579 125.435 89.7306 125.486C90.0062 125.534 90.2718 125.635 90.5275 125.788C90.786 125.942 91.0005 126.173 91.171 126.483C91.3414 126.793 91.4267 127.207 91.4267 127.727V132.04H90.421V131.153H90.3699C90.3017 131.295 90.188 131.447 90.0289 131.609C89.8699 131.771 89.6582 131.909 89.394 132.023C89.1298 132.136 88.8074 132.193 88.4267 132.193ZM88.5801 131.29C88.9778 131.29 89.313 131.212 89.5858 131.055C89.8613 130.899 90.0687 130.697 90.2079 130.45C90.35 130.203 90.421 129.943 90.421 129.67V128.75C90.3784 128.801 90.2846 128.848 90.1397 128.891C89.9977 128.93 89.8329 128.966 89.6454 128.997C89.4608 129.025 89.2804 129.051 89.1042 129.074C88.9309 129.094 88.7903 129.111 88.6824 129.125C88.421 129.159 88.1767 129.214 87.9494 129.291C87.725 129.365 87.5431 129.477 87.4039 129.628C87.2676 129.775 87.1994 129.977 87.1994 130.233C87.1994 130.582 87.3287 130.847 87.5872 131.025C87.8485 131.202 88.1795 131.29 88.5801 131.29ZM97.8986 126.96L96.9952 127.216C96.9384 127.065 96.8546 126.919 96.7438 126.777C96.6358 126.632 96.4881 126.513 96.3006 126.419C96.1131 126.325 95.873 126.278 95.5804 126.278C95.1799 126.278 94.8461 126.371 94.579 126.555C94.3148 126.737 94.1827 126.969 94.1827 127.25C94.1827 127.5 94.2736 127.697 94.4554 127.842C94.6373 127.987 94.9213 128.108 95.3077 128.204L96.2793 128.443C96.8645 128.585 97.3006 128.802 97.5875 129.095C97.8745 129.385 98.0179 129.758 98.0179 130.216C98.0179 130.591 97.91 130.926 97.6941 131.222C97.481 131.517 97.1827 131.75 96.7992 131.92C96.4157 132.091 95.9696 132.176 95.4611 132.176C94.7935 132.176 94.2409 132.031 93.8034 131.741C93.3659 131.452 93.089 131.028 92.9725 130.472L93.927 130.233C94.0179 130.585 94.1898 130.849 94.4426 131.025C94.6983 131.202 95.0321 131.29 95.4441 131.29C95.9128 131.29 96.285 131.19 96.5605 130.991C96.839 130.79 96.9782 130.548 96.9782 130.267C96.9782 130.04 96.8986 129.849 96.7395 129.696C96.5804 129.54 96.3361 129.423 96.0066 129.347L94.9157 129.091C94.3162 128.949 93.8759 128.729 93.5946 128.43C93.3162 128.129 93.177 127.753 93.177 127.301C93.177 126.932 93.2807 126.605 93.4881 126.321C93.6983 126.037 93.9838 125.814 94.3446 125.652C94.7083 125.49 95.1202 125.409 95.5804 125.409C96.2282 125.409 96.7367 125.551 97.106 125.835C97.4782 126.119 97.7424 126.494 97.8986 126.96Z" fill="black"/>
</svg>
