<svg width="153" height="151" viewBox="0 0 153 151" fill="none" xmlns="http://www.w3.org/2000/svg">
<path d="M63.3631 40.2927C63.3549 39.1778 63.9903 38.4153 65.1093 38.1161C68.7617 37.1364 72.4181 36.1649 76.0704 35.1852C83.662 33.1521 91.2576 31.1189 98.8492 29.0816C100.919 28.5282 101.686 28.9464 102.235 31C105.24 42.1947 108.24 53.3894 111.241 64.5841C111.692 66.2607 111.179 67.183 109.519 67.6298C98.1688 70.6754 86.8183 73.7129 75.4678 76.7462C74.0167 77.1356 73.0452 76.5659 72.6517 75.1025C69.602 63.7233 66.5563 52.3441 63.5148 40.965C63.4451 40.7067 63.4 40.4403 63.3672 40.2927H63.3631ZM76.1278 72.3766C86.4535 69.6056 96.6644 66.8714 106.908 64.1209C104.145 53.8075 101.411 43.613 98.6607 33.3406C95.8569 34.0949 93.1064 34.8327 90.323 35.5787C90.4132 35.9354 90.4788 36.2182 90.5526 36.501C91.2863 39.2393 92.0324 41.9775 92.7456 44.7239C93.1924 46.4537 92.0283 47.6957 90.2903 47.3719C89.04 47.1383 87.7939 46.9005 86.56 46.6054C85.9534 46.4619 85.5066 46.5193 85.0352 46.9866C84.1703 47.8392 83.2275 48.618 82.3175 49.4215C80.8008 50.7578 79.1652 50.2577 78.6364 48.2901C78.2921 47.0112 77.9601 45.7323 77.6158 44.4533C77.1608 42.7686 76.7017 41.0839 76.2303 39.3458C73.4142 40.1042 70.6841 40.8379 67.8844 41.5881C70.635 51.8564 73.3732 62.0755 76.1319 72.3725L76.1278 72.3766ZM87.9947 42.6374C87.4578 40.6371 86.9208 38.6449 86.3797 36.6363C84.2563 37.2061 82.2355 37.7472 80.1654 38.3047C80.7188 40.3665 81.2435 42.3341 81.7805 44.3263C82.7397 43.6212 83.5595 42.662 84.5638 42.3874C85.5763 42.1127 86.7732 42.5186 87.9988 42.6374H87.9947Z" fill="#424242"/>
<path d="M65.3185 75.0984C66.5934 75.3689 67.7862 75.5083 68.8971 75.8772C70.8851 76.5413 72.4469 77.8284 73.5332 79.6238C73.8324 80.1198 74.0988 80.1813 74.6317 80.0378C86.8635 76.7462 99.1035 73.4833 111.335 70.1876C111.721 70.0851 112.122 69.7367 112.348 69.3924C112.983 68.4209 113.516 67.3838 114.114 66.3877C114.811 65.2236 115.971 64.8793 117.004 65.5023C118 66.1049 118.263 67.2608 117.619 68.4086C116.865 69.7531 116.066 71.073 115.324 72.4216C114.902 73.1841 114.299 73.6145 113.459 73.8399C105.601 75.9305 97.7508 78.0415 89.8969 80.1485C85.1747 81.4151 80.4525 82.6817 75.7262 83.9279C75.181 84.0713 74.9556 84.2722 74.9228 84.8912C74.644 89.888 70.8359 93.5977 65.8924 93.7453C61.2399 93.8846 57.1285 90.3389 56.6038 85.5142C56.198 81.7758 57.7024 78.8122 60.8423 76.7298C61.3014 76.4265 61.4244 76.201 61.2727 75.6435C57.5015 61.6368 53.759 47.6178 50.0042 33.607C49.2664 30.8606 46.9545 29.5325 44.2121 30.254C42.4085 30.7295 40.6131 31.2255 38.8095 31.6928C37.2887 32.0863 36.0549 31.2746 36.0016 29.8809C35.9688 29.0037 36.4402 28.1675 37.301 27.9298C39.7195 27.2616 42.1298 26.4623 44.5975 26.0934C48.8114 25.4703 52.5785 28.0199 53.7713 32.1314C54.8617 35.8903 55.8291 39.6901 56.8456 43.4736C59.6781 54.0412 62.5065 64.6087 65.3185 75.0984ZM70.8851 84.6288C70.9589 81.7922 68.688 79.4106 65.8514 79.3533C63.0435 79.2959 60.6578 81.5463 60.584 84.3173C60.5103 87.2195 62.7156 89.5642 65.6219 89.6789C68.4175 89.7855 70.8114 87.49 70.881 84.6288H70.8851Z" fill="#424242"/>
<path d="M67.7903 84.555C67.7698 85.711 66.868 86.5513 65.6752 86.5226C64.5438 86.498 63.6707 85.6208 63.6748 84.5141C63.6748 83.3827 64.6135 82.4727 65.7572 82.485C66.9131 82.4973 67.8108 83.4114 67.7903 84.5591V84.555Z" fill="#424242"/>
<path d="M49.0966 116.749V108.022H52.0455C52.7301 108.022 53.2898 108.146 53.7245 108.393C54.162 108.637 54.4858 108.968 54.696 109.386C54.9063 109.803 55.0114 110.269 55.0114 110.783C55.0114 111.298 54.9063 111.765 54.696 112.185C54.4887 112.606 54.1676 112.941 53.733 113.191C53.2983 113.438 52.7415 113.562 52.0625 113.562H49.9489V112.624H52.0284C52.4972 112.624 52.8736 112.543 53.1577 112.381C53.4418 112.219 53.6477 112.001 53.7756 111.725C53.9063 111.447 53.9716 111.133 53.9716 110.783C53.9716 110.434 53.9063 110.121 53.7756 109.846C53.6477 109.57 53.4404 109.354 53.1534 109.198C52.8665 109.039 52.4858 108.959 52.0114 108.959H50.1534V116.749H49.0966ZM56.5774 116.749V110.204H57.549V111.192H57.6172C57.7365 110.869 57.9524 110.606 58.2649 110.404C58.5774 110.202 58.9297 110.102 59.3218 110.102C59.3956 110.102 59.4879 110.103 59.5987 110.106C59.7095 110.109 59.7933 110.113 59.8502 110.119V111.141C59.8161 111.133 59.7379 111.12 59.6158 111.103C59.4965 111.083 59.3701 111.073 59.2365 111.073C58.9183 111.073 58.6343 111.14 58.3843 111.273C58.1371 111.404 57.9411 111.586 57.7962 111.819C57.6541 112.049 57.5831 112.312 57.5831 112.607V116.749H56.5774ZM63.5022 116.886C62.9112 116.886 62.3928 116.745 61.9468 116.464C61.5036 116.182 61.157 115.789 60.907 115.283C60.6598 114.778 60.5362 114.187 60.5362 113.511C60.5362 112.829 60.6598 112.234 60.907 111.725C61.157 111.217 61.5036 110.822 61.9468 110.54C62.3928 110.259 62.9112 110.119 63.5022 110.119C64.0931 110.119 64.6101 110.259 65.0533 110.54C65.4993 110.822 65.8459 111.217 66.0931 111.725C66.3431 112.234 66.4681 112.829 66.4681 113.511C66.4681 114.187 66.3431 114.778 66.0931 115.283C65.8459 115.789 65.4993 116.182 65.0533 116.464C64.6101 116.745 64.0931 116.886 63.5022 116.886ZM63.5022 115.982C63.951 115.982 64.3203 115.867 64.6101 115.637C64.8999 115.407 65.1144 115.104 65.2536 114.729C65.3928 114.354 65.4624 113.948 65.4624 113.511C65.4624 113.073 65.3928 112.665 65.2536 112.288C65.1144 111.91 64.8999 111.604 64.6101 111.371C64.3203 111.138 63.951 111.022 63.5022 111.022C63.0533 111.022 62.684 111.138 62.3942 111.371C62.1044 111.604 61.8899 111.91 61.7507 112.288C61.6115 112.665 61.5419 113.073 61.5419 113.511C61.5419 113.948 61.6115 114.354 61.7507 114.729C61.8899 115.104 62.1044 115.407 62.3942 115.637C62.684 115.867 63.0533 115.982 63.5022 115.982ZM70.4748 116.886C69.9294 116.886 69.4478 116.748 69.0302 116.472C68.6126 116.194 68.2859 115.802 68.0501 115.296C67.8143 114.788 67.6964 114.187 67.6964 113.494C67.6964 112.806 67.8143 112.209 68.0501 111.704C68.2859 111.198 68.614 110.807 69.0345 110.532C69.4549 110.256 69.9407 110.119 70.4919 110.119C70.918 110.119 71.2546 110.19 71.5018 110.332C71.7518 110.471 71.9421 110.63 72.0728 110.809C72.2063 110.985 72.31 111.13 72.3839 111.244H72.4691V108.022H73.4748V116.749H72.5032V115.744H72.3839C72.31 115.863 72.2049 116.013 72.0686 116.195C71.9322 116.374 71.7376 116.535 71.4848 116.677C71.2319 116.816 70.8953 116.886 70.4748 116.886ZM70.6112 115.982C71.0146 115.982 71.3555 115.877 71.6339 115.667C71.9123 115.454 72.124 115.16 72.2688 114.785C72.4137 114.407 72.4862 113.971 72.4862 113.477C72.4862 112.988 72.4152 112.56 72.2731 112.194C72.1311 111.825 71.9208 111.538 71.6424 111.333C71.364 111.126 71.0203 111.022 70.6112 111.022C70.185 111.022 69.8299 111.131 69.5458 111.35C69.2646 111.566 69.0529 111.86 68.9109 112.232C68.7717 112.602 68.7021 113.016 68.7021 113.477C68.7021 113.942 68.7731 114.366 68.9152 114.746C69.06 115.124 69.2731 115.425 69.5544 115.65C69.8384 115.871 70.1907 115.982 70.6112 115.982ZM79.5813 114.073V110.204H80.587V116.749H79.5813V115.641H79.5132C79.3598 115.974 79.1211 116.256 78.7973 116.489C78.4734 116.719 78.0643 116.834 77.57 116.834C77.1609 116.834 76.7973 116.745 76.4791 116.566C76.1609 116.384 75.9109 116.111 75.7291 115.748C75.5473 115.381 75.4563 114.92 75.4563 114.363V110.204H76.462V114.295C76.462 114.772 76.5955 115.153 76.8626 115.437C77.1325 115.721 77.4762 115.863 77.8938 115.863C78.1438 115.863 78.3981 115.799 78.6566 115.671C78.918 115.543 79.1367 115.347 79.3129 115.083C79.4919 114.819 79.5813 114.482 79.5813 114.073ZM85.0881 116.886C84.4745 116.886 83.946 116.741 83.5029 116.451C83.0597 116.161 82.7188 115.762 82.4801 115.253C82.2415 114.745 82.1222 114.164 82.1222 113.511C82.1222 112.846 82.2443 112.259 82.4887 111.751C82.7358 111.239 83.0796 110.84 83.5199 110.553C83.9631 110.263 84.4801 110.119 85.071 110.119C85.5313 110.119 85.946 110.204 86.3154 110.374C86.6847 110.545 86.9872 110.783 87.223 111.09C87.4588 111.397 87.6051 111.755 87.662 112.164H86.6563C86.5796 111.866 86.4091 111.602 86.1449 111.371C85.8835 111.138 85.5313 111.022 85.0881 111.022C84.696 111.022 84.3523 111.124 84.0568 111.329C83.7642 111.53 83.5355 111.816 83.3708 112.185C83.2088 112.552 83.1279 112.982 83.1279 113.477C83.1279 113.982 83.2074 114.423 83.3665 114.798C83.5284 115.173 83.7557 115.464 84.0483 115.671C84.3438 115.878 84.6904 115.982 85.0881 115.982C85.3495 115.982 85.5867 115.937 85.7997 115.846C86.0128 115.755 86.1932 115.624 86.3409 115.454C86.4887 115.283 86.5938 115.079 86.6563 114.84H87.662C87.6051 115.227 87.4645 115.575 87.2401 115.884C87.0185 116.191 86.7245 116.435 86.358 116.617C85.9943 116.796 85.571 116.886 85.0881 116.886ZM91.9787 110.204V111.056H88.5867V110.204H91.9787ZM89.5753 108.636H90.581V114.874C90.581 115.158 90.6222 115.371 90.7046 115.513C90.7898 115.653 90.8977 115.746 91.0284 115.795C91.162 115.84 91.3026 115.863 91.4503 115.863C91.5611 115.863 91.652 115.857 91.723 115.846C91.7941 115.832 91.8509 115.82 91.8935 115.812L92.098 116.715C92.0299 116.741 91.9347 116.766 91.8125 116.792C91.6904 116.82 91.5355 116.834 91.348 116.834C91.0639 116.834 90.7855 116.773 90.5128 116.651C90.2429 116.529 90.0185 116.343 89.8395 116.093C89.6634 115.843 89.5753 115.528 89.5753 115.147V108.636ZM96.0803 116.886C95.4894 116.886 94.9709 116.745 94.5249 116.464C94.0817 116.182 93.7351 115.789 93.4851 115.283C93.2379 114.778 93.1144 114.187 93.1144 113.511C93.1144 112.829 93.2379 112.234 93.4851 111.725C93.7351 111.217 94.0817 110.822 94.5249 110.54C94.9709 110.259 95.4894 110.119 96.0803 110.119C96.6712 110.119 97.1882 110.259 97.6314 110.54C98.0774 110.822 98.424 111.217 98.6712 111.725C98.9212 112.234 99.0462 112.829 99.0462 113.511C99.0462 114.187 98.9212 114.778 98.6712 115.283C98.424 115.789 98.0774 116.182 97.6314 116.464C97.1882 116.745 96.6712 116.886 96.0803 116.886ZM96.0803 115.982C96.5291 115.982 96.8985 115.867 97.1882 115.637C97.478 115.407 97.6925 115.104 97.8317 114.729C97.9709 114.354 98.0405 113.948 98.0405 113.511C98.0405 113.073 97.9709 112.665 97.8317 112.288C97.6925 111.91 97.478 111.604 97.1882 111.371C96.8985 111.138 96.5291 111.022 96.0803 111.022C95.6314 111.022 95.2621 111.138 94.9723 111.371C94.6826 111.604 94.4681 111.91 94.3289 112.288C94.1897 112.665 94.1201 113.073 94.1201 113.511C94.1201 113.948 94.1897 114.354 94.3289 114.729C94.4681 115.104 94.6826 115.407 94.9723 115.637C95.2621 115.867 95.6314 115.982 96.0803 115.982ZM105.218 111.67L104.314 111.925C104.257 111.775 104.174 111.628 104.063 111.486C103.955 111.342 103.807 111.222 103.62 111.128C103.432 111.035 103.192 110.988 102.9 110.988C102.499 110.988 102.165 111.08 101.898 111.265C101.634 111.447 101.502 111.678 101.502 111.959C101.502 112.209 101.593 112.407 101.775 112.552C101.956 112.697 102.24 112.817 102.627 112.914L103.598 113.153C104.184 113.295 104.62 113.512 104.907 113.805C105.194 114.094 105.337 114.468 105.337 114.925C105.337 115.3 105.229 115.636 105.013 115.931C104.8 116.227 104.502 116.459 104.118 116.63C103.735 116.8 103.289 116.886 102.78 116.886C102.113 116.886 101.56 116.741 101.123 116.451C100.685 116.161 100.408 115.738 100.292 115.181L101.246 114.942C101.337 115.295 101.509 115.559 101.762 115.735C102.017 115.911 102.351 115.999 102.763 115.999C103.232 115.999 103.604 115.9 103.88 115.701C104.158 115.499 104.297 115.258 104.297 114.977C104.297 114.749 104.218 114.559 104.059 114.405C103.9 114.249 103.655 114.133 103.326 114.056L102.235 113.8C101.635 113.658 101.195 113.438 100.914 113.14C100.635 112.839 100.496 112.462 100.496 112.011C100.496 111.641 100.6 111.315 100.807 111.03C101.017 110.746 101.303 110.523 101.664 110.361C102.027 110.2 102.439 110.119 102.9 110.119C103.547 110.119 104.056 110.261 104.425 110.545C104.797 110.829 105.061 111.204 105.218 111.67ZM66.2656 125.204L63.8452 131.749H62.8225L60.402 125.204H61.4929L63.2997 130.42H63.3679L65.1747 125.204H66.2656ZM69.32 131.903C68.9052 131.903 68.5288 131.825 68.1907 131.668C67.8527 131.509 67.5842 131.28 67.3853 130.982C67.1865 130.681 67.087 130.317 67.087 129.891C67.087 129.516 67.1609 129.212 67.3086 128.979C67.4563 128.744 67.6538 128.559 67.9009 128.425C68.1481 128.292 68.4208 128.192 68.7191 128.127C69.0203 128.059 69.3228 128.005 69.6268 127.965C70.0245 127.914 70.347 127.876 70.5941 127.85C70.8441 127.822 71.0259 127.775 71.1396 127.709C71.2561 127.644 71.3143 127.53 71.3143 127.369V127.334C71.3143 126.914 71.1992 126.587 70.9691 126.354C70.7419 126.121 70.3967 126.005 69.9336 126.005C69.4535 126.005 69.0771 126.11 68.8044 126.32C68.5316 126.53 68.3399 126.755 68.2291 126.994L67.2745 126.653C67.445 126.255 67.6723 125.945 67.9563 125.724C68.2433 125.499 68.5558 125.343 68.8938 125.255C69.2348 125.164 69.57 125.119 69.8995 125.119C70.1098 125.119 70.3512 125.144 70.624 125.195C70.8995 125.244 71.1652 125.344 71.4208 125.498C71.6794 125.651 71.8938 125.883 72.0643 126.192C72.2348 126.502 72.32 126.917 72.32 127.437V131.749H71.3143V130.863H71.2632C71.195 131.005 71.0813 131.157 70.9223 131.319C70.7632 131.481 70.5515 131.619 70.2873 131.732C70.0231 131.846 69.7007 131.903 69.32 131.903ZM69.4734 130.999C69.8711 130.999 70.2063 130.921 70.4791 130.765C70.7546 130.609 70.962 130.407 71.1012 130.16C71.2433 129.913 71.3143 129.653 71.3143 129.38V128.459C71.2717 128.511 71.1779 128.557 71.033 128.6C70.891 128.64 70.7262 128.675 70.5387 128.707C70.3541 128.735 70.1737 128.761 69.9975 128.783C69.8242 128.803 69.6836 128.82 69.5757 128.834C69.3143 128.869 69.07 128.924 68.8427 129.001C68.6183 129.075 68.4365 129.187 68.2973 129.337C68.1609 129.485 68.0927 129.687 68.0927 129.942C68.0927 130.292 68.222 130.556 68.4805 130.735C68.7419 130.911 69.0728 130.999 69.4734 130.999ZM74.1556 131.749V125.204H75.1272V126.192H75.1953C75.3147 125.869 75.5306 125.606 75.8431 125.404C76.1556 125.202 76.5078 125.102 76.8999 125.102C76.9737 125.102 77.0661 125.103 77.1769 125.106C77.2877 125.109 77.3715 125.113 77.4283 125.119V126.141C77.3942 126.133 77.3161 126.12 77.1939 126.103C77.0746 126.083 76.9482 126.073 76.8147 126.073C76.4965 126.073 76.2124 126.14 75.9624 126.273C75.7152 126.404 75.5192 126.586 75.3743 126.819C75.2323 127.049 75.1612 127.312 75.1612 127.607V131.749H74.1556ZM78.6204 131.749V125.204H79.6261V131.749H78.6204ZM79.1318 124.113C78.9357 124.113 78.7667 124.046 78.6247 123.913C78.4855 123.779 78.4159 123.619 78.4159 123.431C78.4159 123.244 78.4855 123.083 78.6247 122.95C78.7667 122.816 78.9357 122.749 79.1318 122.749C79.3278 122.749 79.4954 122.816 79.6346 122.95C79.7767 123.083 79.8477 123.244 79.8477 123.431C79.8477 123.619 79.7767 123.779 79.6346 123.913C79.4954 124.046 79.3278 124.113 79.1318 124.113ZM84.1272 131.886C83.5362 131.886 83.0178 131.745 82.5718 131.464C82.1286 131.182 81.782 130.789 81.532 130.283C81.2848 129.778 81.1612 129.187 81.1612 128.511C81.1612 127.829 81.2848 127.234 81.532 126.725C81.782 126.217 82.1286 125.822 82.5718 125.54C83.0178 125.259 83.5362 125.119 84.1272 125.119C84.7181 125.119 85.2351 125.259 85.6783 125.54C86.1243 125.822 86.4709 126.217 86.7181 126.725C86.9681 127.234 87.0931 127.829 87.0931 128.511C87.0931 129.187 86.9681 129.778 86.7181 130.283C86.4709 130.789 86.1243 131.182 85.6783 131.464C85.2351 131.745 84.7181 131.886 84.1272 131.886ZM84.1272 130.982C84.576 130.982 84.9453 130.867 85.2351 130.637C85.5249 130.407 85.7394 130.104 85.8786 129.729C86.0178 129.354 86.0874 128.948 86.0874 128.511C86.0874 128.073 86.0178 127.665 85.8786 127.288C85.7394 126.91 85.5249 126.604 85.2351 126.371C84.9453 126.138 84.576 126.022 84.1272 126.022C83.6783 126.022 83.309 126.138 83.0192 126.371C82.7294 126.604 82.5149 126.91 82.3757 127.288C82.2365 127.665 82.1669 128.073 82.1669 128.511C82.1669 128.948 82.2365 129.354 82.3757 129.729C82.5149 130.104 82.7294 130.407 83.0192 130.637C83.309 130.867 83.6783 130.982 84.1272 130.982ZM93.2646 126.67L92.3612 126.925C92.3044 126.775 92.2205 126.628 92.1098 126.486C92.0018 126.342 91.8541 126.222 91.6666 126.128C91.4791 126.035 91.239 125.988 90.9464 125.988C90.5458 125.988 90.212 126.08 89.945 126.265C89.6808 126.447 89.5487 126.678 89.5487 126.959C89.5487 127.209 89.6396 127.407 89.8214 127.552C90.0032 127.697 90.2873 127.817 90.6737 127.914L91.6453 128.153C92.2305 128.295 92.6666 128.512 92.9535 128.805C93.2404 129.094 93.3839 129.468 93.3839 129.925C93.3839 130.3 93.2759 130.636 93.06 130.931C92.847 131.227 92.5487 131.459 92.1652 131.63C91.7816 131.8 91.3356 131.886 90.8271 131.886C90.1595 131.886 89.6069 131.741 89.1694 131.451C88.7319 131.161 88.4549 130.738 88.3384 130.181L89.293 129.942C89.3839 130.295 89.5558 130.559 89.8086 130.735C90.0643 130.911 90.3981 130.999 90.81 130.999C91.2788 130.999 91.6509 130.9 91.9265 130.701C92.2049 130.499 92.3441 130.258 92.3441 129.977C92.3441 129.749 92.2646 129.559 92.1055 129.405C91.9464 129.249 91.7021 129.133 91.3725 129.056L90.2816 128.8C89.6822 128.658 89.2419 128.438 88.9606 128.14C88.6822 127.839 88.543 127.462 88.543 127.011C88.543 126.641 88.6467 126.315 88.8541 126.03C89.0643 125.746 89.3498 125.523 89.7106 125.361C90.0742 125.2 90.4862 125.119 90.9464 125.119C91.5941 125.119 92.1027 125.261 92.472 125.545C92.8441 125.829 93.1083 126.204 93.2646 126.67Z" fill="black"/>
</svg>
