<svg width="153" height="151" viewBox="0 0 153 151" fill="none" xmlns="http://www.w3.org/2000/svg">
<path d="M112.722 75.6907C112.685 74.1722 112.685 72.65 112.722 71.1278C112.751 69.8642 112.618 68.6672 111.687 67.6474C112.637 66.6166 112.751 65.39 112.722 64.1006C112.681 62.475 112.718 60.8493 112.711 59.2237C112.703 56.7815 111.211 55.2113 108.783 55.1559C107.86 55.1337 106.932 55.13 106.008 55.1337C105.595 55.0894 97.2116 55.1485 96.7904 55.1485C95.3569 55.1485 93.927 55.1485 92.4751 55.1485C92.4381 54.731 92.4049 54.3209 92.3753 53.9071C92.1795 54.1325 91.9504 54.3431 91.677 54.5315C91.3039 54.7864 90.9861 55.1226 90.709 55.5069C90.8272 56.715 90.8383 57.9121 90.8014 59.1092C91.0452 59.1424 91.2632 59.3419 91.1671 59.6412C91.012 60.1215 90.8568 60.6018 90.709 61.0858C90.9529 61.0414 91.2152 61.1708 91.1856 61.4996C91.1302 62.1203 91.108 62.7447 90.9898 63.358C90.9048 64.725 90.9307 66.1031 90.9713 67.4738C91.1671 67.5071 91.3334 67.6511 91.3075 67.895C91.145 69.5465 91.5957 71.1684 91.6142 72.8162C91.6142 72.9788 91.5403 73.0859 91.4369 73.1525C91.5957 73.2153 91.7287 73.352 91.7361 73.5552C91.7952 75.1328 91.7509 76.7584 91.2891 78.2806C91.2189 78.506 91.0009 78.602 90.7977 78.5762C90.7977 78.5799 90.7977 78.5836 90.7977 78.5873C90.7644 78.772 90.6388 78.857 90.4947 78.8791C90.3802 79.2043 90.3322 79.5442 90.3248 79.8915C90.3211 80.0836 90.2139 80.2018 90.0772 80.2572C90.2398 82.2634 90.5686 84.2474 91.0674 86.2241C91.2928 87.1219 91.3704 88.0529 91.5255 89.0394C91.5107 89.0394 91.5034 89.0394 91.4886 89.0394C91.4886 89.2315 91.3593 89.4421 91.1635 89.4643C90.3802 89.5566 89.5932 89.6047 88.8063 89.6305C88.7472 89.7192 88.6917 89.8116 88.6252 89.8928C88.6622 89.9926 88.6991 90.096 88.7398 90.1958C88.8986 90.5985 89.0169 91.0123 89.1129 91.4335C95.682 91.4335 102.251 91.4335 108.82 91.4335C111.122 91.4335 112.703 89.8153 112.714 87.5024C112.725 85.8768 112.692 84.2511 112.725 82.6255C112.755 81.2917 112.692 79.9986 111.683 78.9604C112.555 77.9813 112.755 76.8766 112.725 75.6833L112.722 75.6907ZM92.7189 57.5426C92.8741 57.5352 93.0551 57.5131 93.2325 57.5131C94.7768 57.5131 104.279 57.5315 106.101 57.5094C106.947 57.5094 107.797 57.5094 108.643 57.5168C109.851 57.5278 110.346 58.0525 110.35 59.2643C110.357 61.0193 110.35 62.7779 110.35 64.5329C110.35 66.0255 109.925 66.4615 108.443 66.4615C103.489 66.4615 98.5343 66.4615 93.5834 66.4615C93.3322 66.4615 93.081 66.4282 92.7189 66.4061V57.5426ZM92.7928 68.826H93.528C98.5047 68.826 103.485 68.826 108.462 68.826C109.884 68.826 110.35 69.2879 110.35 70.7066C110.35 72.5133 110.357 74.3237 110.35 76.1303C110.342 77.2202 109.84 77.7634 108.787 77.7671C103.415 77.7781 98.0429 77.7707 92.6709 77.7671C92.5711 77.7671 92.4714 77.7412 92.2534 77.7116C92.4344 74.7448 92.6081 71.8483 92.7928 68.8223V68.826ZM110.35 87.4581C110.342 88.5369 109.825 89.08 108.772 89.0837C103.928 89.0948 99.0811 89.0874 94.2374 89.0837C94.1118 89.0837 93.9862 89.0542 93.9566 89.0542C93.4024 86.08 92.8556 83.1649 92.2903 80.1353H93.2435C98.2978 80.1353 103.352 80.1353 108.41 80.1353C109.929 80.1353 110.353 80.5713 110.353 82.1156C110.353 83.8965 110.361 85.6773 110.353 87.4581H110.35Z" fill="#424242"/>
<path d="M94.1265 89.0357C94.0821 89.0283 94.0415 89.0061 94.0045 88.9803C93.9048 89.0135 93.7976 88.9987 93.7053 88.9544C93.4762 89.2167 92.9922 89.1133 92.9516 88.6699C92.9257 88.4002 92.9035 88.1305 92.8814 87.8571C92.7225 88.3891 92.2976 88.8436 91.6474 89.0911C91.2816 89.2278 90.8937 89.3239 90.5057 89.3719C83.7039 90.266 76.8688 90.7832 70.0116 90.9015C62.7997 91.0234 55.6099 90.6798 48.4386 89.9224C46.6911 89.7377 44.9361 89.5566 43.207 89.2352C41.2858 88.8805 40.787 87.2364 42.0765 85.7696C42.457 85.3337 42.8671 84.9235 43.2587 84.4987C44.1048 83.5861 44.4521 82.5368 44.3967 81.2659C44.127 74.8335 43.824 68.3975 43.6984 61.9614C43.5137 52.5327 43.8056 43.1077 44.3893 33.6938C44.478 32.2898 44.0605 31.1592 43.111 30.1691C42.6307 29.6703 42.1319 29.1715 41.7366 28.6062C40.9865 27.5311 41.356 26.3008 42.5605 25.8057C43.0223 25.6173 43.5358 25.5249 44.0346 25.4473C45.0396 25.2922 52.4916 24.6604 53.4929 24.4941C54.084 24.3944 52.1628 24.3907 52.1037 23.8032C52.0409 23.1973 52.7946 22.3882 52.233 22.451C50.7182 22.6209 43.7538 23.2897 42.2981 23.6924C39.2648 24.5495 38.3338 27.7417 40.3141 30.2023C40.7205 30.7048 41.1713 31.174 41.6294 31.6358C42.1504 32.1642 42.3425 32.759 42.3166 33.5127C42.0543 40.9648 41.6368 48.4206 41.6368 55.8726C41.6368 63.9528 41.9841 72.033 42.2944 80.1094C42.3573 81.7462 42.0839 83.0282 40.8092 84.1033C40.0407 84.7499 39.5161 85.6144 39.3535 86.6452C38.9804 89.0098 40.3991 90.9938 43.0075 91.3079C47.7625 91.8805 52.5397 92.2796 57.3094 92.7118C59.0127 92.867 60.7233 92.9077 62.4339 93H71.8848C72.0658 92.9705 72.2432 92.9224 72.4279 92.9113C76.4476 92.6564 80.4748 92.4532 84.4909 92.1392C86.7963 91.9581 89.0981 91.6663 91.3814 91.3042C92.8001 91.0788 93.9861 90.4101 94.6105 89.1059L94.1302 89.0246L94.1265 89.0357Z" fill="#424242"/>
<path d="M94.2816 29.8033C95.8001 27.6013 95.002 24.9116 92.534 23.8845C91.9244 23.6296 91.252 23.4523 90.5943 23.3895C85.71 22.9239 80.8257 22.403 75.9303 22.0853C68.7332 21.616 61.5287 21.7934 54.3352 22.2958C53.3192 22.366 52.3032 22.451 51.2908 22.5434C50.5778 22.6099 50.1713 23.0237 50.1972 23.6407C50.2194 24.254 50.6701 24.6309 51.3795 24.6235C51.5864 24.6235 51.797 24.6013 52.0039 24.5902C55.9128 24.3759 59.818 24.0693 63.727 23.9695C71.5854 23.7626 79.4255 24.1949 87.2359 25.0668C88.4995 25.2072 89.7704 25.3439 91.0192 25.5878C93.0624 25.9831 93.5648 27.6013 92.1646 29.1605C91.7951 29.5743 91.4035 29.9696 91.0266 30.3797C90.2064 31.2775 89.8628 32.3083 89.9145 33.5534C90.1842 40.0338 90.4872 46.5142 90.6128 52.9946C90.7975 62.4011 90.4946 71.8039 89.9182 81.192C89.9182 81.2105 89.9182 81.2253 89.9182 81.2437C89.9219 81.2548 89.933 81.2659 89.9367 81.277C90.236 82.1785 90.4281 83.1132 90.6793 84.0258C90.8271 84.2401 90.9934 84.4507 91.1855 84.6502C91.6658 85.1527 92.1646 85.644 92.5636 86.2093C92.667 86.3571 92.7483 86.5086 92.8111 86.6601C92.7853 86.0468 92.7816 85.4297 92.8222 84.8164C92.8074 84.7869 92.7889 84.761 92.7816 84.7278C92.6744 84.2142 92.6227 83.697 92.6633 83.1797C92.1572 82.6735 91.9724 82.0935 92.002 81.3657C92.2606 74.8631 92.571 68.3605 92.7003 61.8543C92.885 52.3997 92.5747 42.9562 92.0057 33.5164C91.9613 32.759 92.1756 32.1753 92.6892 31.6359C93.2471 31.0521 93.8271 30.4684 94.2853 29.807L94.2816 29.8033Z" fill="#424242"/>
<path d="M68.9882 53.2568C68.3934 53.944 68.1865 54.6904 68.1791 55.4958C68.1643 57.2101 68.1569 58.9244 68.1939 60.6387C68.2013 60.9084 68.3897 61.2483 68.6077 61.422C69.6865 62.2976 70.7949 63.1363 71.9033 63.975C73.0449 64.8395 73.5511 65.9701 73.2666 67.3777C72.9932 68.7337 72.0954 69.5391 70.7838 69.9122C66.136 71.2386 61.4881 72.5613 56.8403 73.8914C55.4622 74.2867 54.254 73.9948 53.323 72.8938C52.3698 71.7706 52.2922 70.5071 52.9461 69.1992C54.7196 65.6376 56.4856 62.0722 58.2849 58.5254C59.3157 56.4896 61.7357 56.0204 63.4463 57.4761C63.9894 57.9416 64.0891 58.5106 63.7086 58.9983C63.3576 59.4527 62.7739 59.5155 62.2197 59.1572C61.1113 58.4478 60.5682 58.5956 59.977 59.7816C58.2886 63.1548 56.6112 66.528 54.9191 69.8975C54.6457 70.4406 54.4535 70.9689 54.8858 71.5157C55.344 72.0921 55.9203 71.9923 56.5299 71.8187C61.0411 70.5256 65.5559 69.2435 70.0671 67.9578C70.625 67.7989 71.1163 67.5772 71.2346 66.9196C71.3491 66.2693 70.9833 65.8888 70.5141 65.5378C69.6237 64.8728 68.7407 64.1966 67.8761 63.4984C67.551 63.236 67.3293 63.2065 66.982 63.4799C65.8515 64.3666 64.6951 65.2127 63.5423 66.0698C62.8441 66.5908 62.2381 66.5575 61.8465 65.9996C61.4733 65.4676 61.6248 64.9097 62.2936 64.4072C63.3835 63.587 64.4734 62.7594 65.5781 61.9614C65.9512 61.6917 66.1138 61.4035 66.1064 60.9306C66.0769 59.2163 66.1064 57.502 66.0916 55.7877C66.0806 54.3246 66.4722 53.0056 67.4069 51.8566C67.5399 51.6903 67.6027 51.3984 67.5732 51.1805C67.3626 49.7026 67.8688 48.5647 69.0806 47.6927C71.471 45.9784 73.8282 44.2235 76.2223 42.5165C78.4465 40.9278 81.2951 42.1545 81.5315 44.7887C81.635 45.9304 81.2359 46.9132 80.316 47.5967C77.7704 49.4883 75.21 51.3578 72.6238 53.194C71.4784 54.0068 70.237 53.9477 68.9919 53.2605L68.9882 53.2568ZM79.6251 45.04C79.3406 44.6631 79.1559 44.1606 78.8566 44.0794C78.4243 43.9611 77.7999 43.987 77.4526 44.2308C75.0068 45.9341 72.609 47.7038 70.2038 49.4661C69.5609 49.9391 69.4316 50.6632 69.8417 51.2137C70.2481 51.7568 70.9316 51.8529 71.5634 51.3947C74.0166 49.625 76.4699 47.8479 78.8972 46.0412C79.1854 45.8269 79.3406 45.439 79.6214 45.04H79.6251Z" fill="#424242"/>
<path d="M67.1335 27.2356C73.4033 27.4166 79.6324 27.8415 85.8394 28.6691C85.9318 28.6802 86.0241 28.6949 86.1128 28.7134C86.8259 28.8538 87.2212 29.2935 87.1547 29.8698C87.0845 30.4905 86.5783 30.8489 85.832 30.7676C84.4281 30.6125 83.0278 30.4314 81.6275 30.2799C75.5868 29.6223 69.5276 29.2676 63.461 29.578C58.4954 29.8292 53.5446 30.3575 48.5864 30.7529C48.3167 30.775 47.9435 30.8267 47.7884 30.6827C47.5113 30.4277 47.2194 30.0398 47.1935 29.6925C47.1566 29.1568 47.5556 28.8132 48.1098 28.7393C49.7613 28.5287 51.4091 28.2553 53.0717 28.1371C57.7565 27.8008 62.4487 27.5311 67.1372 27.2356H67.1335Z" fill="#424242"/>
<path d="M67.185 87.3029C60.9041 87.4359 54.6491 86.9852 48.4237 86.165C47.6108 86.0578 47.1897 85.6994 47.1601 85.1231C47.1269 84.4469 47.6847 83.9888 48.4754 84.0738C50.936 84.3361 53.3929 84.6502 55.861 84.8644C62.0975 85.4039 68.3488 85.5553 74.5965 85.1157C78.3133 84.8571 82.0153 84.4359 85.7247 84.0849C86.556 84.0073 87.0548 84.2992 87.1545 84.9273C87.2543 85.5627 86.8072 86.0689 85.9538 86.1502C81.6902 86.5492 77.4302 86.9741 73.1629 87.277C71.1826 87.4174 69.1838 87.2992 67.1924 87.2992L67.185 87.3029Z" fill="#424242"/>
<path d="M16.342 108.273H17.6033L20.5692 115.517H20.6715L23.6374 108.273H24.8988V117H23.9102V110.369H23.8249L21.0977 117H20.1431L17.4158 110.369H17.3306V117H16.342V108.273ZM28.8075 117.153C28.3928 117.153 28.0163 117.075 27.6783 116.919C27.3402 116.76 27.0717 116.531 26.8729 116.233C26.674 115.932 26.5746 115.568 26.5746 115.142C26.5746 114.767 26.6484 114.463 26.7962 114.23C26.9439 113.994 27.1413 113.81 27.3885 113.676C27.6357 113.543 27.9084 113.443 28.2067 113.378C28.5078 113.31 28.8104 113.256 29.1143 113.216C29.5121 113.165 29.8345 113.126 30.0817 113.101C30.3317 113.072 30.5135 113.026 30.6271 112.96C30.7436 112.895 30.8018 112.781 30.8018 112.619V112.585C30.8018 112.165 30.6868 111.838 30.4567 111.605C30.2294 111.372 29.8842 111.256 29.4212 111.256C28.9411 111.256 28.5646 111.361 28.2919 111.571C28.0192 111.781 27.8274 112.006 27.7166 112.244L26.7621 111.903C26.9325 111.506 27.1598 111.196 27.4439 110.974C27.7308 110.75 28.0433 110.594 28.3814 110.506C28.7223 110.415 29.0575 110.369 29.3871 110.369C29.5973 110.369 29.8388 110.395 30.1115 110.446C30.3871 110.494 30.6527 110.595 30.9084 110.749C31.1669 110.902 31.3814 111.134 31.5518 111.443C31.7223 111.753 31.8075 112.168 31.8075 112.688V117H30.8018V116.114H30.7507C30.6825 116.256 30.5689 116.408 30.4098 116.57C30.2507 116.732 30.0391 116.869 29.7749 116.983C29.5107 117.097 29.1882 117.153 28.8075 117.153ZM28.9609 116.25C29.3587 116.25 29.6939 116.172 29.9666 116.016C30.2422 115.859 30.4496 115.658 30.5888 115.411C30.7308 115.163 30.8018 114.903 30.8018 114.631V113.71C30.7592 113.761 30.6655 113.808 30.5206 113.851C30.3786 113.891 30.2138 113.926 30.0263 113.957C29.8416 113.986 29.6612 114.011 29.4851 114.034C29.3118 114.054 29.1712 114.071 29.0632 114.085C28.8018 114.119 28.5575 114.175 28.3303 114.251C28.1058 114.325 27.924 114.437 27.7848 114.588C27.6484 114.736 27.5803 114.937 27.5803 115.193C27.5803 115.543 27.7095 115.807 27.968 115.986C28.2294 116.162 28.5604 116.25 28.9609 116.25ZM36.4897 110.455V111.307H33.0977V110.455H36.4897ZM34.0863 108.886H35.092V115.125C35.092 115.409 35.1332 115.622 35.2156 115.764C35.3008 115.903 35.4087 115.997 35.5394 116.045C35.6729 116.091 35.8136 116.114 35.9613 116.114C36.0721 116.114 36.163 116.108 36.234 116.097C36.305 116.082 36.3619 116.071 36.4045 116.062L36.609 116.966C36.5408 116.991 36.4457 117.017 36.3235 117.043C36.2013 117.071 36.0465 117.085 35.859 117.085C35.5749 117.085 35.2965 117.024 35.0238 116.902C34.7539 116.78 34.5295 116.594 34.3505 116.344C34.1744 116.094 34.0863 115.778 34.0863 115.398V108.886ZM40.6765 117.136C40.0458 117.136 39.5018 116.997 39.0444 116.719C38.5898 116.438 38.239 116.045 37.9918 115.543C37.7475 115.037 37.6254 114.449 37.6254 113.778C37.6254 113.108 37.7475 112.517 37.9918 112.006C38.239 111.491 38.5827 111.091 39.0231 110.804C39.4663 110.514 39.9833 110.369 40.5742 110.369C40.9151 110.369 41.2518 110.426 41.5842 110.54C41.9165 110.653 42.2191 110.838 42.4918 111.094C42.7646 111.347 42.9819 111.682 43.1438 112.099C43.3058 112.517 43.3867 113.031 43.3867 113.642V114.068H38.3413V113.199H42.364C42.364 112.83 42.2901 112.5 42.1424 112.21C41.9975 111.92 41.7901 111.692 41.5202 111.524C41.2532 111.357 40.9379 111.273 40.5742 111.273C40.1737 111.273 39.8271 111.372 39.5344 111.571C39.2447 111.767 39.0217 112.023 38.8654 112.338C38.7092 112.653 38.631 112.991 38.631 113.352V113.932C38.631 114.426 38.7163 114.845 38.8867 115.189C39.06 115.53 39.3001 115.79 39.6069 115.969C39.9137 116.145 40.2702 116.233 40.6765 116.233C40.9407 116.233 41.1793 116.196 41.3924 116.122C41.6083 116.045 41.7944 115.932 41.9506 115.781C42.1069 115.628 42.2276 115.437 42.3129 115.21L43.2844 115.483C43.1822 115.812 43.0103 116.102 42.7688 116.352C42.5273 116.599 42.229 116.793 41.8739 116.932C41.5188 117.068 41.1197 117.136 40.6765 117.136ZM44.9165 117V110.455H45.8881V111.443H45.9563C46.0756 111.119 46.2915 110.857 46.604 110.655C46.9165 110.453 47.2688 110.352 47.6609 110.352C47.7347 110.352 47.8271 110.354 47.9379 110.357C48.0487 110.359 48.1325 110.364 48.1893 110.369V111.392C48.1552 111.384 48.0771 111.371 47.9549 111.354C47.8356 111.334 47.7092 111.324 47.5756 111.324C47.2575 111.324 46.9734 111.391 46.7234 111.524C46.4762 111.655 46.2802 111.837 46.1353 112.07C45.9933 112.3 45.9222 112.562 45.9222 112.858V117H44.9165ZM49.3814 117V110.455H50.3871V117H49.3814ZM49.8928 109.364C49.6967 109.364 49.5277 109.297 49.3857 109.163C49.2464 109.03 49.1768 108.869 49.1768 108.682C49.1768 108.494 49.2464 108.334 49.3857 108.2C49.5277 108.067 49.6967 108 49.8928 108C50.0888 108 50.2564 108.067 50.3956 108.2C50.5376 108.334 50.6087 108.494 50.6087 108.682C50.6087 108.869 50.5376 109.03 50.3956 109.163C50.2564 109.297 50.0888 109.364 49.8928 109.364ZM54.1552 117.153C53.7404 117.153 53.364 117.075 53.0259 116.919C52.6879 116.76 52.4194 116.531 52.2205 116.233C52.0217 115.932 51.9222 115.568 51.9222 115.142C51.9222 114.767 51.9961 114.463 52.1438 114.23C52.2915 113.994 52.489 113.81 52.7362 113.676C52.9833 113.543 53.256 113.443 53.5543 113.378C53.8555 113.31 54.158 113.256 54.462 113.216C54.8597 113.165 55.1822 113.126 55.4293 113.101C55.6793 113.072 55.8612 113.026 55.9748 112.96C56.0913 112.895 56.1495 112.781 56.1495 112.619V112.585C56.1495 112.165 56.0344 111.838 55.8043 111.605C55.5771 111.372 55.2319 111.256 54.7688 111.256C54.2887 111.256 53.9123 111.361 53.6396 111.571C53.3668 111.781 53.1751 112.006 53.0643 112.244L52.1097 111.903C52.2802 111.506 52.5075 111.196 52.7915 110.974C53.0785 110.75 53.391 110.594 53.729 110.506C54.07 110.415 54.4052 110.369 54.7347 110.369C54.945 110.369 55.1864 110.395 55.4592 110.446C55.7347 110.494 56.0004 110.595 56.256 110.749C56.5146 110.902 56.729 111.134 56.8995 111.443C57.07 111.753 57.1552 112.168 57.1552 112.688V117H56.1495V116.114H56.0984C56.0302 116.256 55.9165 116.408 55.7575 116.57C55.5984 116.732 55.3867 116.869 55.1225 116.983C54.8583 117.097 54.5359 117.153 54.1552 117.153ZM54.3086 116.25C54.7063 116.25 55.0415 116.172 55.3143 116.016C55.5898 115.859 55.7972 115.658 55.9364 115.411C56.0785 115.163 56.1495 114.903 56.1495 114.631V113.71C56.1069 113.761 56.0131 113.808 55.8683 113.851C55.7262 113.891 55.5614 113.926 55.3739 113.957C55.1893 113.986 55.0089 114.011 54.8327 114.034C54.6594 114.054 54.5188 114.071 54.4109 114.085C54.1495 114.119 53.9052 114.175 53.6779 114.251C53.4535 114.325 53.2717 114.437 53.1325 114.588C52.9961 114.736 52.9279 114.937 52.9279 115.193C52.9279 115.543 53.0572 115.807 53.3157 115.986C53.5771 116.162 53.908 116.25 54.3086 116.25ZM59.9964 108.273V117H58.9908V108.273H59.9964ZM67.685 117.136C67.1396 117.136 66.658 116.999 66.2404 116.723C65.8228 116.445 65.4961 116.053 65.2603 115.547C65.0245 115.038 64.9066 114.438 64.9066 113.744C64.9066 113.057 65.0245 112.46 65.2603 111.955C65.4961 111.449 65.8242 111.058 66.2447 110.783C66.6651 110.507 67.1509 110.369 67.7021 110.369C68.1282 110.369 68.4648 110.44 68.712 110.582C68.962 110.722 69.1523 110.881 69.283 111.06C69.4165 111.236 69.5202 111.381 69.5941 111.494H69.6793V108.273H70.685V117H69.7134V115.994H69.5941C69.5202 116.114 69.4151 116.264 69.2788 116.446C69.1424 116.625 68.9478 116.786 68.695 116.928C68.4421 117.067 68.1055 117.136 67.685 117.136ZM67.8214 116.233C68.2248 116.233 68.5657 116.128 68.8441 115.918C69.1225 115.705 69.3342 115.411 69.479 115.036C69.6239 114.658 69.6964 114.222 69.6964 113.727C69.6964 113.239 69.6254 112.811 69.4833 112.445C69.3413 112.075 69.131 111.788 68.8526 111.584C68.5742 111.376 68.2305 111.273 67.8214 111.273C67.3952 111.273 67.0401 111.382 66.756 111.601C66.4748 111.817 66.2631 112.111 66.1211 112.483C65.9819 112.852 65.9123 113.267 65.9123 113.727C65.9123 114.193 65.9833 114.616 66.1254 114.997C66.2702 115.375 66.4833 115.676 66.7646 115.901C67.0487 116.122 67.4009 116.233 67.8214 116.233ZM75.4109 117.136C74.7802 117.136 74.2362 116.997 73.7788 116.719C73.3242 116.438 72.9734 116.045 72.7262 115.543C72.4819 115.037 72.3597 114.449 72.3597 113.778C72.3597 113.108 72.4819 112.517 72.7262 112.006C72.9734 111.491 73.3171 111.091 73.7575 110.804C74.2006 110.514 74.7177 110.369 75.3086 110.369C75.6495 110.369 75.9862 110.426 76.3185 110.54C76.6509 110.653 76.9535 110.838 77.2262 111.094C77.4989 111.347 77.7163 111.682 77.8782 112.099C78.0401 112.517 78.1211 113.031 78.1211 113.642V114.068H73.0756V113.199H77.0984C77.0984 112.83 77.0245 112.5 76.8768 112.21C76.7319 111.92 76.5245 111.692 76.2546 111.524C75.9876 111.357 75.6722 111.273 75.3086 111.273C74.908 111.273 74.5614 111.372 74.2688 111.571C73.979 111.767 73.756 112.023 73.5998 112.338C73.4435 112.653 73.3654 112.991 73.3654 113.352V113.932C73.3654 114.426 73.4506 114.845 73.6211 115.189C73.7944 115.53 74.0344 115.79 74.3413 115.969C74.6481 116.145 75.0046 116.233 75.4109 116.233C75.6751 116.233 75.9137 116.196 76.1268 116.122C76.3427 116.045 76.5288 115.932 76.685 115.781C76.8413 115.628 76.962 115.437 77.0472 115.21L78.0188 115.483C77.9165 115.812 77.7447 116.102 77.5032 116.352C77.2617 116.599 76.9634 116.793 76.6083 116.932C76.2532 117.068 75.854 117.136 75.4109 117.136ZM83.1623 117V108.273H88.3952V109.21H84.2191V112.159H88.0032V113.097H84.2191V117H83.1623ZM92.3327 117.136C91.7021 117.136 91.158 116.997 90.7006 116.719C90.2461 116.438 89.8952 116.045 89.6481 115.543C89.4038 115.037 89.2816 114.449 89.2816 113.778C89.2816 113.108 89.4038 112.517 89.6481 112.006C89.8952 111.491 90.239 111.091 90.6793 110.804C91.1225 110.514 91.6396 110.369 92.2305 110.369C92.5714 110.369 92.908 110.426 93.2404 110.54C93.5728 110.653 93.8754 110.838 94.1481 111.094C94.4208 111.347 94.6381 111.682 94.8001 112.099C94.962 112.517 95.043 113.031 95.043 113.642V114.068H89.9975V113.199H94.0202C94.0202 112.83 93.9464 112.5 93.7987 112.21C93.6538 111.92 93.4464 111.692 93.1765 111.524C92.9094 111.357 92.5941 111.273 92.2305 111.273C91.8299 111.273 91.4833 111.372 91.1907 111.571C90.9009 111.767 90.6779 112.023 90.5217 112.338C90.3654 112.653 90.2873 112.991 90.2873 113.352V113.932C90.2873 114.426 90.3725 114.845 90.543 115.189C90.7163 115.53 90.9563 115.79 91.2631 115.969C91.57 116.145 91.9265 116.233 92.3327 116.233C92.5969 116.233 92.8356 116.196 93.0487 116.122C93.2646 116.045 93.4506 115.932 93.6069 115.781C93.7631 115.628 93.8839 115.437 93.9691 115.21L94.9407 115.483C94.8384 115.812 94.6665 116.102 94.4251 116.352C94.1836 116.599 93.8853 116.793 93.5302 116.932C93.1751 117.068 92.7759 117.136 92.3327 117.136ZM96.5728 117V110.455H97.5444V111.443H97.6126C97.7319 111.119 97.9478 110.857 98.2603 110.655C98.5728 110.453 98.9251 110.352 99.3171 110.352C99.391 110.352 99.4833 110.354 99.5941 110.357C99.7049 110.359 99.7887 110.364 99.8455 110.369V111.392C99.8114 111.384 99.7333 111.371 99.6112 111.354C99.4918 111.334 99.3654 111.324 99.2319 111.324C98.9137 111.324 98.6296 111.391 98.3796 111.524C98.1325 111.655 97.9364 111.837 97.7915 112.07C97.6495 112.3 97.5785 112.562 97.5785 112.858V117H96.5728ZM101.038 117V110.455H102.009V111.443H102.077C102.197 111.119 102.413 110.857 102.725 110.655C103.038 110.453 103.39 110.352 103.782 110.352C103.856 110.352 103.948 110.354 104.059 110.357C104.17 110.359 104.254 110.364 104.31 110.369V111.392C104.276 111.384 104.198 111.371 104.076 111.354C103.957 111.334 103.83 111.324 103.697 111.324C103.379 111.324 103.094 111.391 102.844 111.524C102.597 111.655 102.401 111.837 102.256 112.07C102.114 112.3 102.043 112.562 102.043 112.858V117H101.038ZM108.048 117.136C107.417 117.136 106.873 116.997 106.415 116.719C105.961 116.438 105.61 116.045 105.363 115.543C105.119 115.037 104.996 114.449 104.996 113.778C104.996 113.108 105.119 112.517 105.363 112.006C105.61 111.491 105.954 111.091 106.394 110.804C106.837 110.514 107.354 110.369 107.945 110.369C108.286 110.369 108.623 110.426 108.955 110.54C109.288 110.653 109.59 110.838 109.863 111.094C110.136 111.347 110.353 111.682 110.515 112.099C110.677 112.517 110.758 113.031 110.758 113.642V114.068H105.712V113.199H109.735C109.735 112.83 109.661 112.5 109.513 112.21C109.369 111.92 109.161 111.692 108.891 111.524C108.624 111.357 108.309 111.273 107.945 111.273C107.545 111.273 107.198 111.372 106.906 111.571C106.616 111.767 106.393 112.023 106.237 112.338C106.08 112.653 106.002 112.991 106.002 113.352V113.932C106.002 114.426 106.087 114.845 106.258 115.189C106.431 115.53 106.671 115.79 106.978 115.969C107.285 116.145 107.641 116.233 108.048 116.233C108.312 116.233 108.55 116.196 108.763 116.122C108.979 116.045 109.165 115.932 109.322 115.781C109.478 115.628 109.599 115.437 109.684 115.21L110.656 115.483C110.553 115.812 110.381 116.102 110.14 116.352C109.898 116.599 109.6 116.793 109.245 116.932C108.89 117.068 108.491 117.136 108.048 117.136ZM115.134 110.455V111.307H111.742V110.455H115.134ZM112.731 108.886H113.737V115.125C113.737 115.409 113.778 115.622 113.86 115.764C113.945 115.903 114.053 115.997 114.184 116.045C114.317 116.091 114.458 116.114 114.606 116.114C114.717 116.114 114.808 116.108 114.879 116.097C114.95 116.082 115.006 116.071 115.049 116.062L115.254 116.966C115.185 116.991 115.09 117.017 114.968 117.043C114.846 117.071 114.691 117.085 114.504 117.085C114.219 117.085 113.941 117.024 113.668 116.902C113.398 116.78 113.174 116.594 112.995 116.344C112.819 116.094 112.731 115.778 112.731 115.398V108.886ZM119.321 117.136C118.69 117.136 118.146 116.997 117.689 116.719C117.234 116.438 116.884 116.045 116.636 115.543C116.392 115.037 116.27 114.449 116.27 113.778C116.27 113.108 116.392 112.517 116.636 112.006C116.884 111.491 117.227 111.091 117.668 110.804C118.111 110.514 118.628 110.369 119.219 110.369C119.56 110.369 119.896 110.426 120.229 110.54C120.561 110.653 120.864 110.838 121.136 111.094C121.409 111.347 121.626 111.682 121.788 112.099C121.95 112.517 122.031 113.031 122.031 113.642V114.068H116.986V113.199H121.009C121.009 112.83 120.935 112.5 120.787 112.21C120.642 111.92 120.435 111.692 120.165 111.524C119.898 111.357 119.582 111.273 119.219 111.273C118.818 111.273 118.472 111.372 118.179 111.571C117.889 111.767 117.666 112.023 117.51 112.338C117.354 112.653 117.276 112.991 117.276 113.352V113.932C117.276 114.426 117.361 114.845 117.531 115.189C117.705 115.53 117.945 115.79 118.251 115.969C118.558 116.145 118.915 116.233 119.321 116.233C119.585 116.233 119.824 116.196 120.037 116.122C120.253 116.045 120.439 115.932 120.595 115.781C120.751 115.628 120.872 115.437 120.957 115.21L121.929 115.483C121.827 115.812 121.655 116.102 121.413 116.352C121.172 116.599 120.874 116.793 120.518 116.932C120.163 117.068 119.764 117.136 119.321 117.136ZM123.561 117V110.455H124.533V111.443H124.601C124.72 111.119 124.936 110.857 125.249 110.655C125.561 110.453 125.913 110.352 126.305 110.352C126.379 110.352 126.472 110.354 126.582 110.357C126.693 110.359 126.777 110.364 126.834 110.369V111.392C126.8 111.384 126.722 111.371 126.599 111.354C126.48 111.334 126.354 111.324 126.22 111.324C125.902 111.324 125.618 111.391 125.368 111.524C125.121 111.655 124.925 111.837 124.78 112.07C124.638 112.3 124.567 112.562 124.567 112.858V117H123.561ZM128.026 117V110.455H129.032V117H128.026ZM128.077 109.568L129.117 107.591H130.293L128.963 109.568H128.077ZM132.8 117.153C132.385 117.153 132.009 117.075 131.67 116.919C131.332 116.76 131.064 116.531 130.865 116.233C130.666 115.932 130.567 115.568 130.567 115.142C130.567 114.767 130.641 114.463 130.788 114.23C130.936 113.994 131.134 113.81 131.381 113.676C131.628 113.543 131.901 113.443 132.199 113.378C132.5 113.31 132.803 113.256 133.107 113.216C133.504 113.165 133.827 113.126 134.074 113.101C134.324 113.072 134.506 113.026 134.619 112.96C134.736 112.895 134.794 112.781 134.794 112.619V112.585C134.794 112.165 134.679 111.838 134.449 111.605C134.222 111.372 133.876 111.256 133.413 111.256C132.933 111.256 132.557 111.361 132.284 111.571C132.011 111.781 131.82 112.006 131.709 112.244L130.754 111.903C130.925 111.506 131.152 111.196 131.436 110.974C131.723 110.75 132.036 110.594 132.374 110.506C132.714 110.415 133.05 110.369 133.379 110.369C133.589 110.369 133.831 110.395 134.104 110.446C134.379 110.494 134.645 110.595 134.901 110.749C135.159 110.902 135.374 111.134 135.544 111.443C135.714 111.753 135.8 112.168 135.8 112.688V117H134.794V116.114H134.743C134.675 116.256 134.561 116.408 134.402 116.57C134.243 116.732 134.031 116.869 133.767 116.983C133.503 117.097 133.18 117.153 132.8 117.153ZM132.953 116.25C133.351 116.25 133.686 116.172 133.959 116.016C134.234 115.859 134.442 115.658 134.581 115.411C134.723 115.163 134.794 114.903 134.794 114.631V113.71C134.751 113.761 134.658 113.808 134.513 113.851C134.371 113.891 134.206 113.926 134.018 113.957C133.834 113.986 133.653 114.011 133.477 114.034C133.304 114.054 133.163 114.071 133.055 114.085C132.794 114.119 132.55 114.175 132.322 114.251C132.098 114.325 131.916 114.437 131.777 114.588C131.641 114.736 131.572 114.937 131.572 115.193C131.572 115.543 131.702 115.807 131.96 115.986C132.222 116.162 132.553 116.25 132.953 116.25ZM35.8494 134.455C35.679 134.455 35.527 134.44 35.3935 134.412C35.2599 134.386 35.1676 134.361 35.1165 134.335L35.3722 133.449C35.6165 133.511 35.8324 133.534 36.0199 133.517C36.2074 133.5 36.3736 133.416 36.5185 133.266C36.6662 133.118 36.8011 132.878 36.9233 132.545L37.1108 132.034L34.6903 125.455H35.7812L37.5881 130.67H37.6562L39.4631 125.455H40.554L37.7756 132.955C37.6506 133.293 37.4957 133.572 37.3111 133.794C37.1264 134.018 36.9119 134.185 36.6676 134.293C36.4261 134.401 36.1534 134.455 35.8494 134.455ZM47.9155 132.136C47.3018 132.136 46.7734 131.991 46.3303 131.702C45.8871 131.412 45.5462 131.013 45.3075 130.504C45.0689 129.996 44.9496 129.415 44.9496 128.761C44.9496 128.097 45.0717 127.51 45.3161 127.001C45.5632 126.49 45.907 126.091 46.3473 125.804C46.7905 125.514 47.3075 125.369 47.8984 125.369C48.3587 125.369 48.7734 125.455 49.1428 125.625C49.5121 125.795 49.8146 126.034 50.0504 126.341C50.2862 126.648 50.4325 127.006 50.4893 127.415H49.4837C49.407 127.116 49.2365 126.852 48.9723 126.622C48.7109 126.389 48.3587 126.273 47.9155 126.273C47.5234 126.273 47.1797 126.375 46.8842 126.58C46.5916 126.781 46.3629 127.067 46.1982 127.436C46.0362 127.803 45.9553 128.233 45.9553 128.727C45.9553 129.233 46.0348 129.673 46.1939 130.048C46.3558 130.423 46.5831 130.714 46.8757 130.922C47.1712 131.129 47.5178 131.233 47.9155 131.233C48.1768 131.233 48.4141 131.188 48.6271 131.097C48.8402 131.006 49.0206 130.875 49.1683 130.705C49.3161 130.534 49.4212 130.33 49.4837 130.091H50.4893C50.4325 130.477 50.2919 130.825 50.0675 131.135C49.8459 131.442 49.5518 131.686 49.1854 131.868C48.8217 132.047 48.3984 132.136 47.9155 132.136ZM54.6186 132.136C54.0277 132.136 53.5092 131.996 53.0632 131.714C52.62 131.433 52.2734 131.04 52.0234 130.534C51.7763 130.028 51.6527 129.437 51.6527 128.761C51.6527 128.08 51.7763 127.484 52.0234 126.976C52.2734 126.467 52.62 126.072 53.0632 125.791C53.5092 125.51 54.0277 125.369 54.6186 125.369C55.2095 125.369 55.7266 125.51 56.1697 125.791C56.6158 126.072 56.9624 126.467 57.2095 126.976C57.4595 127.484 57.5845 128.08 57.5845 128.761C57.5845 129.437 57.4595 130.028 57.2095 130.534C56.9624 131.04 56.6158 131.433 56.1697 131.714C55.7266 131.996 55.2095 132.136 54.6186 132.136ZM54.6186 131.233C55.0675 131.233 55.4368 131.118 55.7266 130.888C56.0163 130.658 56.2308 130.355 56.37 129.98C56.5092 129.605 56.5788 129.199 56.5788 128.761C56.5788 128.324 56.5092 127.916 56.37 127.538C56.2308 127.161 56.0163 126.855 55.7266 126.622C55.4368 126.389 55.0675 126.273 54.6186 126.273C54.1697 126.273 53.8004 126.389 53.5107 126.622C53.2209 126.855 53.0064 127.161 52.8672 127.538C52.728 127.916 52.6584 128.324 52.6584 128.761C52.6584 129.199 52.728 129.605 52.8672 129.98C53.0064 130.355 53.2209 130.658 53.5107 130.888C53.8004 131.118 54.1697 131.233 54.6186 131.233ZM60.1254 128.062V132H59.1197V125.455H60.0913V126.477H60.1765C60.3299 126.145 60.5629 125.878 60.8754 125.676C61.1879 125.472 61.5913 125.369 62.0856 125.369C62.5288 125.369 62.9165 125.46 63.2489 125.642C63.5813 125.821 63.8398 126.094 64.0245 126.46C64.2092 126.824 64.3015 127.284 64.3015 127.841V132H63.2958V127.909C63.2958 127.395 63.1623 126.994 62.8952 126.707C62.6282 126.418 62.2617 126.273 61.7958 126.273C61.4748 126.273 61.1879 126.342 60.935 126.482C60.685 126.621 60.4876 126.824 60.3427 127.091C60.1978 127.358 60.1254 127.682 60.1254 128.062ZM70.7756 126.92L69.8722 127.176C69.8153 127.026 69.7315 126.879 69.6207 126.737C69.5128 126.592 69.3651 126.473 69.1776 126.379C68.9901 126.286 68.75 126.239 68.4574 126.239C68.0568 126.239 67.723 126.331 67.456 126.516C67.1918 126.697 67.0597 126.929 67.0597 127.21C67.0597 127.46 67.1506 127.658 67.3324 127.803C67.5142 127.947 67.7983 128.068 68.1847 128.165L69.1562 128.403C69.7415 128.545 70.1776 128.763 70.4645 129.055C70.7514 129.345 70.8949 129.719 70.8949 130.176C70.8949 130.551 70.7869 130.886 70.571 131.182C70.358 131.477 70.0597 131.71 69.6761 131.881C69.2926 132.051 68.8466 132.136 68.3381 132.136C67.6705 132.136 67.1179 131.991 66.6804 131.702C66.2429 131.412 65.9659 130.989 65.8494 130.432L66.804 130.193C66.8949 130.545 67.0668 130.81 67.3196 130.986C67.5753 131.162 67.9091 131.25 68.321 131.25C68.7898 131.25 69.1619 131.151 69.4375 130.952C69.7159 130.75 69.8551 130.509 69.8551 130.227C69.8551 130 69.7756 129.81 69.6165 129.656C69.4574 129.5 69.2131 129.384 68.8835 129.307L67.7926 129.051C67.1932 128.909 66.7528 128.689 66.4716 128.391C66.1932 128.089 66.054 127.713 66.054 127.261C66.054 126.892 66.1577 126.565 66.3651 126.281C66.5753 125.997 66.8608 125.774 67.2216 125.612C67.5852 125.45 67.9972 125.369 68.4574 125.369C69.1051 125.369 69.6136 125.511 69.983 125.795C70.3551 126.08 70.6193 126.455 70.7756 126.92ZM75.2553 125.455V126.307H71.8633V125.455H75.2553ZM72.8519 123.886H73.8576V130.125C73.8576 130.409 73.8988 130.622 73.9812 130.764C74.0664 130.903 74.1744 130.997 74.305 131.045C74.4386 131.091 74.5792 131.114 74.7269 131.114C74.8377 131.114 74.9286 131.108 74.9996 131.097C75.0707 131.082 75.1275 131.071 75.1701 131.062L75.3746 131.966C75.3065 131.991 75.2113 132.017 75.0891 132.043C74.967 132.071 74.8121 132.085 74.6246 132.085C74.3406 132.085 74.0621 132.024 73.7894 131.902C73.5195 131.78 73.2951 131.594 73.1161 131.344C72.94 131.094 72.8519 130.778 72.8519 130.398V123.886ZM76.7681 132V125.455H77.7397V126.443H77.8079C77.9272 126.119 78.1431 125.857 78.4556 125.655C78.7681 125.453 79.1204 125.352 79.5124 125.352C79.5863 125.352 79.6786 125.354 79.7894 125.357C79.9002 125.359 79.984 125.364 80.0408 125.369V126.392C80.0067 126.384 79.9286 126.371 79.8065 126.354C79.6871 126.334 79.5607 126.324 79.4272 126.324C79.109 126.324 78.8249 126.391 78.5749 126.524C78.3278 126.655 78.1317 126.837 77.9869 127.07C77.8448 127.3 77.7738 127.562 77.7738 127.858V132H76.7681ZM85.358 129.324V125.455H86.3636V132H85.358V130.892H85.2898C85.1364 131.224 84.8977 131.507 84.5739 131.74C84.25 131.97 83.8409 132.085 83.3466 132.085C82.9375 132.085 82.5739 131.996 82.2557 131.817C81.9375 131.635 81.6875 131.362 81.5057 130.999C81.3239 130.632 81.233 130.17 81.233 129.614V125.455H82.2386V129.545C82.2386 130.023 82.3722 130.403 82.6392 130.688C82.9091 130.972 83.2528 131.114 83.6705 131.114C83.9205 131.114 84.1747 131.05 84.4332 130.922C84.6946 130.794 84.9134 130.598 85.0895 130.334C85.2685 130.07 85.358 129.733 85.358 129.324ZM90.8647 132.136C90.2511 132.136 89.7227 131.991 89.2795 131.702C88.8363 131.412 88.4954 131.013 88.2567 130.504C88.0181 129.996 87.8988 129.415 87.8988 128.761C87.8988 128.097 88.021 127.51 88.2653 127.001C88.5124 126.49 88.8562 126.091 89.2965 125.804C89.7397 125.514 90.2567 125.369 90.8477 125.369C91.3079 125.369 91.7227 125.455 92.092 125.625C92.4613 125.795 92.7638 126.034 92.9996 126.341C93.2354 126.648 93.3817 127.006 93.4386 127.415H92.4329C92.3562 127.116 92.1857 126.852 91.9215 126.622C91.6602 126.389 91.3079 126.273 90.8647 126.273C90.4727 126.273 90.1289 126.375 89.8335 126.58C89.5408 126.781 89.3121 127.067 89.1474 127.436C88.9854 127.803 88.9045 128.233 88.9045 128.727C88.9045 129.233 88.984 129.673 89.1431 130.048C89.305 130.423 89.5323 130.714 89.8249 130.922C90.1204 131.129 90.467 131.233 90.8647 131.233C91.1261 131.233 91.3633 131.188 91.5763 131.097C91.7894 131.006 91.9698 130.875 92.1175 130.705C92.2653 130.534 92.3704 130.33 92.4329 130.091H93.4386C93.3817 130.477 93.2411 130.825 93.0167 131.135C92.7951 131.442 92.5011 131.686 92.1346 131.868C91.771 132.047 91.3477 132.136 90.8647 132.136ZM97.5678 132.136C96.9542 132.136 96.4258 131.991 95.9826 131.702C95.5394 131.412 95.1985 131.013 94.9599 130.504C94.7212 129.996 94.6019 129.415 94.6019 128.761C94.6019 128.097 94.7241 127.51 94.9684 127.001C95.2156 126.49 95.5593 126.091 95.9996 125.804C96.4428 125.514 96.9599 125.369 97.5508 125.369C98.011 125.369 98.4258 125.455 98.7951 125.625C99.1644 125.795 99.467 126.034 99.7028 126.341C99.9386 126.648 100.085 127.006 100.142 127.415H99.136C99.0593 127.116 98.8888 126.852 98.6246 126.622C98.3633 126.389 98.011 126.273 97.5678 126.273C97.1758 126.273 96.832 126.375 96.5366 126.58C96.244 126.781 96.0153 127.067 95.8505 127.436C95.6886 127.803 95.6076 128.233 95.6076 128.727C95.6076 129.233 95.6871 129.673 95.8462 130.048C96.0082 130.423 96.2354 130.714 96.5281 130.922C96.8235 131.129 97.1701 131.233 97.5678 131.233C97.8292 131.233 98.0664 131.188 98.2795 131.097C98.4925 131.006 98.6729 130.875 98.8207 130.705C98.9684 130.534 99.0735 130.33 99.136 130.091H100.142C100.085 130.477 99.9442 130.825 99.7198 131.135C99.4982 131.442 99.2042 131.686 98.8377 131.868C98.4741 132.047 98.0508 132.136 97.5678 132.136ZM101.612 132V125.455H102.618V132H101.612ZM102.123 124.364C101.927 124.364 101.758 124.297 101.616 124.163C101.477 124.03 101.407 123.869 101.407 123.682C101.407 123.494 101.477 123.334 101.616 123.2C101.758 123.067 101.927 123 102.123 123C102.319 123 102.487 123.067 102.626 123.2C102.768 123.334 102.839 123.494 102.839 123.682C102.839 123.869 102.768 124.03 102.626 124.163C102.487 124.297 102.319 124.364 102.123 124.364ZM107.119 132.136C106.528 132.136 106.009 131.996 105.563 131.714C105.12 131.433 104.773 131.04 104.523 130.534C104.276 130.028 104.153 129.437 104.153 128.761C104.153 128.08 104.276 127.484 104.523 126.976C104.773 126.467 105.12 126.072 105.563 125.791C106.009 125.51 106.528 125.369 107.119 125.369C107.71 125.369 108.227 125.51 108.67 125.791C109.116 126.072 109.462 126.467 109.71 126.976C109.96 127.484 110.085 128.08 110.085 128.761C110.085 129.437 109.96 130.028 109.71 130.534C109.462 131.04 109.116 131.433 108.67 131.714C108.227 131.996 107.71 132.136 107.119 132.136ZM107.119 131.233C107.567 131.233 107.937 131.118 108.227 130.888C108.516 130.658 108.731 130.355 108.87 129.98C109.009 129.605 109.079 129.199 109.079 128.761C109.079 128.324 109.009 127.916 108.87 127.538C108.731 127.161 108.516 126.855 108.227 126.622C107.937 126.389 107.567 126.273 107.119 126.273C106.67 126.273 106.3 126.389 106.011 126.622C105.721 126.855 105.506 127.161 105.367 127.538C105.228 127.916 105.158 128.324 105.158 128.761C105.158 129.199 105.228 129.605 105.367 129.98C105.506 130.355 105.721 130.658 106.011 130.888C106.3 131.118 106.67 131.233 107.119 131.233ZM106.658 124.568L107.698 122.591H108.874L107.545 124.568H106.658ZM112.625 128.062V132H111.62V125.455H112.591V126.477H112.676C112.83 126.145 113.063 125.878 113.375 125.676C113.688 125.472 114.091 125.369 114.586 125.369C115.029 125.369 115.417 125.46 115.749 125.642C116.081 125.821 116.34 126.094 116.525 126.46C116.709 126.824 116.801 127.284 116.801 127.841V132H115.796V127.909C115.796 127.395 115.662 126.994 115.395 126.707C115.128 126.418 114.762 126.273 114.296 126.273C113.975 126.273 113.688 126.342 113.435 126.482C113.185 126.621 112.988 126.824 112.843 127.091C112.698 127.358 112.625 127.682 112.625 128.062Z" fill="black"/>
</svg>
