<?xml version="1.0" encoding="utf-8"?>
<!-- Generator: Adobe Illustrator 25.4.1, SVG Export Plug-In . SVG Version: 6.00 Build 0)  -->
<svg version="1.1" id="Capa_1" xmlns="http://www.w3.org/2000/svg" xmlns:xlink="http://www.w3.org/1999/xlink" x="0px" y="0px"
	 viewBox="0 0 153 151" style="enable-background:new 0 0 153 151;" xml:space="preserve">
<style type="text/css">
	.st0{fill:#004C98;}
	.st1{fill:#FFFFFF;}
</style>
<circle class="st0" cx="75.3" cy="75.2" r="74.3"/>
<g>
	<path class="st1" d="M23.6,114.3c0.6-1.3,1.4-2.4,3-2.6c0.2,0,0.4-0.3,0.4-0.6c0.1-0.3,0-0.6,0-0.8c0-10.7,0-21.5,0-32.2
		c0-0.5,0-0.9,0-1.4c0.2-1.8,1.5-3.1,3.3-3.2c1.2,0,2.4,0,3.6,0c0.4-7.7,2.5-14.7,6.4-21c-0.9-1.9-2-3.6-2.5-5.4
		c-1.5-5.2,0.8-10.7,5.5-13.5c4.6-2.8,10.5-2.1,14.4,1.6c0.8,0.7,1.3,0.7,2.1,0.3c5.5-2.4,11.3-3.6,17.3-3.6c0.8,0,1.2-0.3,1.7-0.9
		c4.6-7.3,13.4-10.9,21.8-9.1c8.4,1.8,14.9,8.8,16.2,17.2c0.7,4.6,0,9-2.1,13.1c-0.2,0.3-0.2,0.9,0,1.2c4.1,7.2,6.1,14.9,5.8,23.2
		c0,0.1,0,0.2,0,0.3c1.2,0.4,2.5,0.8,3.6,1.3c6.6,3.2,8.8,11.4,4.8,17.5c-0.3,0.5-0.7,1-1,1.4c-3,4-6,8-9.1,12.1
		c-2.2-2.9-4.3-5.7-6.5-8.7c-0.3,0.4-0.5,0.7-0.7,1c-1.8,2-3.6,4-5.5,5.9c-0.5,0.5-0.6,0.9-0.4,1.5c1.1,3,1.1,6.2,1,9.3
		c-0.1,2.4-1.4,3.7-3.8,3.8c-0.1,0-0.2,0-0.3,0c-1.2,0-2.5-0.3-3.5,0.1c-0.9,0.4-1.4,1.7-2.1,2.5c-1.8,2.2-4.2,3.5-7,4.1
		c-0.2,0-0.5,0.1-0.7,0.2h-3.2c-0.1-0.1-0.2-0.1-0.3-0.2c-3.9-0.7-6.9-2.8-8.8-6.2c-0.2-0.3-0.7-0.5-1.1-0.5c-6,0-12,0-18,0
		c-0.7,0-1,0.2-1.3,0.8c-1.6,2.8-3.9,4.7-7,5.6c-0.6,0.2-1.3,0.4-1.9,0.5h-3.2c-0.1,0-0.1-0.1-0.2-0.1c-4-0.7-7-2.8-9-6.3
		c-0.2-0.3-0.7-0.5-1-0.5c-2.1,0-4.3-0.1-6.4,0c-2.1,0.1-3.7-0.7-4.4-2.8L23.6,114.3L23.6,114.3z M60.7,39c2.1,5.2,0.9,9.6-2.5,13.8
		c-2.7,3.4-5.3,7-7.9,10.5c-0.2,0.3-0.5,0.6-0.8,0.9c-2.3-3-4.5-6-6.7-9c-3.3,5.8-5,11.7-5.3,18.3h1.3c4.2,0,8.4,0,12.6,0
		c7.8,0,15.7,0,23.5,0c2.9,0,4.1,1.2,4.1,4.2c0,1.8,0,3.5,0,5.3c0,0.3,0,0.6,0.1,1h1.2c4.9,0,9.7,0,14.6,0c3,0,4.9,1.5,5.6,4.4
		c0.8,3.2,1.6,6.4,2.4,9.6c0.5,2.1,1.1,4.2,1.7,6.6c1.6-1.9,3.1-3.6,4.5-5.3c1.1-1.4,1.1-1.4,0-2.9c-5.1-7.2-1.5-17,7-19
		c0.8-0.2,1-0.5,1-1.3c0.1-4.3-0.5-8.6-1.8-12.7c-0.8-2.5-1.9-4.8-2.9-7.5c-5.5,7-10.7,13.7-16.1,20.4C90.7,69,85,61.9,79.6,54.6
		c-3.4-4.5-4.4-9.7-3.7-15.2c0.2-1.4,0.5-2.7,0.8-4.1C71.1,35.5,65.9,36.6,60.7,39L60.7,39z M75.6,77H61.8v13.1
		c-2.7-1.4-5.3-2.6-7.8-3.9c-0.6-0.3-1.1-0.3-1.7,0c-1.6,0.8-3.2,1.6-4.8,2.4c-1,0.5-2,1-3.1,1.5V77H30.6v34.6c1.2,0,2.4,0,3.6,0
		c0.7,0,1.1-0.2,1.5-0.8c4.7-8.1,16.2-8.1,20.9,0c0.4,0.6,0.7,0.9,1.5,0.9c5.5,0,11,0,16.5,0c0.3,0,0.7,0,1-0.1L75.6,77L75.6,77z
		 M96.4,70.6c0.2-0.3,0.4-0.4,0.6-0.7c4.4-5.6,8.7-11.1,13.1-16.7c2.4-3.1,3.6-6.7,3.7-10.6c0.3-11.9-11.4-20.6-22.7-16.9
		c-11.5,3.8-15.7,17.7-8.2,27.5c1.6,2.1,3.2,4.1,4.8,6.1C90.6,63.1,93.5,66.9,96.4,70.6L96.4,70.6z M79.2,108.1c0.2,0,0.2,0,0.3-0.1
		c5.9-5.6,15.4-3.9,19.1,3.1c0.1,0.2,0.4,0.4,0.6,0.4c1.2,0,2.4,0,3.7,0c-0.1-0.4-0.1-0.6-0.1-0.8c-0.7-2.8-1.5-5.7-2.1-8.5
		c-0.2-0.8-0.5-1-1.2-1c-3.2,0-6.4,0-9.7,0c-2.1,0-3.6-1.4-3.6-3.5c0-1.1,0-2.2,0-3.4c0.1-2,1.4-3.4,3.5-3.5c0.6,0,1.2,0,1.8,0
		c2.1,0,4.2,0,6.3,0c-0.1-0.4-0.1-0.7-0.1-0.9c-0.6-2.4-0.8-2.5-3.2-2.5c-4.7,0-9.3,0-14,0c-0.4,0-0.7,0-1.2,0L79.2,108.1
		L79.2,108.1z M49.7,58.4c2.3-3.1,4.5-6,6.7-9c0.3-0.4,0.6-0.9,0.9-1.3c2.1-3.7,1.1-8.4-2.3-11c-3.3-2.6-8-2.4-11.2,0.5
		c-3.1,2.9-3.8,7.7-1.3,11.2C44.8,52,47.2,55.1,49.7,58.4L49.7,58.4z M119,103.6c2.5-3.4,5.1-6.6,7.3-10c2.4-3.5,1.6-8.2-1.6-11
		c-3.2-2.8-7.9-2.9-11.2-0.2c-3.3,2.7-4.3,7.5-2,11.1C113.9,96.9,116.5,100.1,119,103.6L119,103.6z M87.7,125.5
		c4.8,0.1,8.7-3.8,8.8-8.6c0.1-4.7-3.8-8.7-8.4-8.7c-4.9-0.1-8.8,3.7-9,8.5C79,121.4,82.9,125.4,87.7,125.5z M46.1,125.5
		c4.8,0.1,8.7-3.7,8.8-8.6c0.1-4.6-3.8-8.7-8.4-8.7c-4.9-0.1-8.9,3.7-8.9,8.5C37.5,121.5,41.3,125.4,46.1,125.5z M58.3,84.5V77H48
		v7.5c1.6-0.8,3-1.5,4.5-2.2c0.3-0.2,0.9-0.2,1.2,0C55.2,83,56.7,83.7,58.3,84.5z M75.7,115.2H58.3v3.3h17.4V115.2z M89.7,94.4v3.3
		h9.8c-0.3-1.2-0.6-2.2-0.8-3.3H89.7L89.7,94.4z M27.2,115.1v3.3h6.9v-3.3H27.2z M99.9,115.1v3.3h3.4v-3.3H99.9z"/>
	<path class="st1" d="M93,116.9c0,2.9-2.4,5.2-5.2,5.2c-2.9,0-5.1-2.4-5.1-5.3c0-2.9,2.4-5.2,5.2-5.2C90.7,111.7,93,114,93,116.9
		L93,116.9z M87.8,118.5c1,0,1.8-0.7,1.8-1.7c0-0.9-0.8-1.7-1.7-1.8s-1.7,0.8-1.8,1.7C86.1,117.7,86.8,118.5,87.8,118.5L87.8,118.5z
		"/>
	<path class="st1" d="M51.4,116.9c0,2.9-2.3,5.2-5.2,5.2c-2.9,0-5.2-2.4-5.2-5.2c0-2.9,2.3-5.2,5.2-5.2
		C49.1,111.6,51.4,114,51.4,116.9z M46.1,115.1c-0.9,0-1.7,0.9-1.7,1.8c0,1,0.9,1.7,1.8,1.6c0.9,0,1.6-0.8,1.6-1.7
		C47.9,115.8,47.1,115.1,46.1,115.1L46.1,115.1z"/>
</g>
<path class="st1" d="M98.2,40.6c3.8,0.4,6.3,2.9,6.4,6.3c0.1,3.5-2.2,6-6.4,6.8c-0.2,1.2,0.5,3-1.7,3.1c-1.2,0.1-1.4-0.5-1.7-3.2
	c-1,0-2,0-3,0c-1.2,0-1.9-0.6-1.8-1.7c0-1,0.6-1.6,1.8-1.6c1,0,1.9,0,3,0V44c-4.4-1-6.5-3.2-6.4-6.9c0.1-3.3,2.4-5.6,6.4-6.3
	c0.3-1.2-0.4-3.2,1.8-3.1c1.9,0.1,1.4,1.8,1.6,3.2c1,0,2,0,2.9,0c1.1,0,1.8,0.6,1.8,1.6c0,1-0.7,1.6-1.9,1.7c-0.9,0-1.9,0-2.9,0
	L98.2,40.6L98.2,40.6z M94.8,40.6v-6.3c-1.5-0.3-3.1,1.3-3.2,2.8C91.5,39,92.7,40.4,94.8,40.6z M98.2,50.3c2-0.2,3.2-1.5,3.2-3.3
	c0-1.8-1.6-3.3-3.2-3.1V50.3z"/>
<path class="st1" d="M119.8,89.3c1.8,0.2,3,1.4,3,3c0.1,1.7-1.1,2.9-3.1,3.2c-0.1,0.6,0.2,1.4-0.8,1.5c-0.6,0-0.7-0.2-0.8-1.5
	c-0.5,0-0.9,0-1.4,0c-0.6,0-0.9-0.3-0.9-0.8c0-0.5,0.3-0.7,0.9-0.7c0.5,0,0.9,0,1.4,0v-3c-2.1-0.5-3.1-1.5-3-3.3c0-1.6,1.2-2.7,3-3
	c0.1-0.6-0.2-1.5,0.9-1.5c0.9,0,0.7,0.9,0.7,1.5c0.5,0,0.9,0,1.4,0c0.5,0,0.9,0.3,0.9,0.7c0,0.5-0.3,0.8-0.9,0.8c-0.4,0-0.9,0-1.4,0
	L119.8,89.3L119.8,89.3z M118.2,89.3v-3c-0.7-0.1-1.5,0.6-1.5,1.4C116.7,88.6,117.2,89.2,118.2,89.3z M119.8,93.9
	c0.9-0.1,1.5-0.7,1.5-1.6c0-0.8-0.7-1.5-1.5-1.5V93.9z"/>
<path class="st1" d="M50.5,43.8c1.8,0.2,3,1.4,3,3c0.1,1.7-1.1,2.9-3.1,3.2c-0.1,0.6,0.2,1.4-0.8,1.5c-0.6,0-0.7-0.2-0.8-1.5
	c-0.5,0-0.9,0-1.4,0c-0.6,0-0.9-0.3-0.9-0.8c0-0.5,0.3-0.7,0.9-0.7c0.5,0,0.9,0,1.4,0v-3c-2.1-0.5-3.1-1.5-3-3.3c0-1.6,1.2-2.7,3-3
	c0.1-0.6-0.2-1.5,0.9-1.5c0.9,0,0.7,0.9,0.7,1.5c0.5,0,0.9,0,1.4,0c0.5,0,0.9,0.3,0.9,0.7c0,0.5-0.3,0.8-0.9,0.8c-0.4,0-0.9,0-1.4,0
	L50.5,43.8L50.5,43.8z M48.8,43.8v-3c-0.7-0.1-1.5,0.6-1.5,1.4C47.3,43,47.8,43.7,48.8,43.8z M50.4,48.4c0.9-0.1,1.5-0.7,1.5-1.6
	c0-0.8-0.7-1.5-1.5-1.5V48.4z"/>
</svg>
