<svg width="153" height="151" viewBox="0 0 153 151" fill="none" xmlns="http://www.w3.org/2000/svg">
<path d="M45.3439 117V108.273H46.4007V116.062H50.4576V117H45.3439ZM51.9576 117V110.455H52.9632V117H51.9576ZM52.0087 109.568L53.0485 107.591H54.2246L52.8951 109.568H52.0087ZM59.2711 119.455V115.994H59.1859C59.112 116.114 59.0069 116.264 58.8706 116.446C58.7342 116.625 58.5396 116.786 58.2868 116.928C58.0339 117.067 57.6973 117.136 57.2768 117.136C56.7314 117.136 56.2498 116.999 55.8322 116.723C55.4146 116.445 55.0879 116.053 54.8521 115.547C54.6163 115.038 54.4984 114.438 54.4984 113.744C54.4984 113.057 54.6163 112.46 54.8521 111.955C55.0879 111.449 55.416 111.058 55.8365 110.783C56.2569 110.507 56.7427 110.369 57.2939 110.369C57.72 110.369 58.0566 110.44 58.3038 110.582C58.5538 110.722 58.7441 110.881 58.8748 111.06C59.0083 111.236 59.112 111.381 59.1859 111.494H59.3052V110.455H60.2768V119.455H59.2711ZM57.4132 116.233C57.8166 116.233 58.1575 116.128 58.4359 115.918C58.7143 115.705 58.926 115.411 59.0708 115.036C59.2157 114.658 59.2882 114.222 59.2882 113.727C59.2882 113.239 59.2172 112.811 59.0751 112.445C58.9331 112.075 58.7228 111.788 58.4444 111.584C58.166 111.376 57.8223 111.273 57.4132 111.273C56.987 111.273 56.6319 111.382 56.3478 111.601C56.0666 111.817 55.8549 112.111 55.7129 112.483C55.5737 112.852 55.5041 113.267 55.5041 113.727C55.5041 114.193 55.5751 114.616 55.7172 114.997C55.862 115.375 56.0751 115.676 56.3564 115.901C56.6404 116.122 56.9927 116.233 57.4132 116.233ZM66.2427 114.324V110.455H67.2484V117H66.2427V115.892H66.1745C66.0211 116.224 65.7825 116.507 65.4586 116.74C65.1348 116.97 64.7257 117.085 64.2314 117.085C63.8223 117.085 63.4586 116.996 63.1404 116.817C62.8223 116.635 62.5723 116.362 62.3904 115.999C62.2086 115.632 62.1177 115.17 62.1177 114.614V110.455H63.1234V114.545C63.1234 115.023 63.2569 115.403 63.524 115.688C63.7939 115.972 64.1376 116.114 64.5552 116.114C64.8052 116.114 65.0595 116.05 65.318 115.922C65.5794 115.794 65.7981 115.598 65.9743 115.334C66.1532 115.07 66.2427 114.733 66.2427 114.324ZM69.0904 117V110.455H70.0961V117H69.0904ZM69.6017 109.364C69.4057 109.364 69.2367 109.297 69.0946 109.163C68.9554 109.03 68.8858 108.869 68.8858 108.682C68.8858 108.494 68.9554 108.334 69.0946 108.2C69.2367 108.067 69.4057 108 69.6017 108C69.7978 108 69.9654 108.067 70.1046 108.2C70.2466 108.334 70.3176 108.494 70.3176 108.682C70.3176 108.869 70.2466 109.03 70.1046 109.163C69.9654 109.297 69.7978 109.364 69.6017 109.364ZM74.4096 117.136C73.8642 117.136 73.3826 116.999 72.965 116.723C72.5474 116.445 72.2207 116.053 71.9849 115.547C71.7491 115.038 71.6312 114.438 71.6312 113.744C71.6312 113.057 71.7491 112.46 71.9849 111.955C72.2207 111.449 72.5488 111.058 72.9693 110.783C73.3897 110.507 73.8755 110.369 74.4267 110.369C74.8528 110.369 75.1895 110.44 75.4366 110.582C75.6866 110.722 75.877 110.881 76.0076 111.06C76.1412 111.236 76.2449 111.381 76.3187 111.494H76.4039V108.273H77.4096V117H76.438V115.994H76.3187C76.2449 116.114 76.1397 116.264 76.0034 116.446C75.867 116.625 75.6724 116.786 75.4196 116.928C75.1667 117.067 74.8301 117.136 74.4096 117.136ZM74.546 116.233C74.9494 116.233 75.2903 116.128 75.5687 115.918C75.8471 115.705 76.0588 115.411 76.2037 115.036C76.3485 114.658 76.421 114.222 76.421 113.727C76.421 113.239 76.35 112.811 76.2079 112.445C76.0659 112.075 75.8556 111.788 75.5772 111.584C75.2988 111.376 74.9551 111.273 74.546 111.273C74.1199 111.273 73.7647 111.382 73.4806 111.601C73.1994 111.817 72.9877 112.111 72.8457 112.483C72.7065 112.852 72.6369 113.267 72.6369 113.727C72.6369 114.193 72.7079 114.616 72.85 114.997C72.9949 115.375 73.2079 115.676 73.4892 115.901C73.7733 116.122 74.1255 116.233 74.546 116.233ZM82.0502 117.136C81.4593 117.136 80.9409 116.996 80.4949 116.714C80.0517 116.433 79.7051 116.04 79.4551 115.534C79.2079 115.028 79.0843 114.437 79.0843 113.761C79.0843 113.08 79.2079 112.484 79.4551 111.976C79.7051 111.467 80.0517 111.072 80.4949 110.791C80.9409 110.51 81.4593 110.369 82.0502 110.369C82.6412 110.369 83.1582 110.51 83.6014 110.791C84.0474 111.072 84.394 111.467 84.6412 111.976C84.8912 112.484 85.0162 113.08 85.0162 113.761C85.0162 114.437 84.8912 115.028 84.6412 115.534C84.394 116.04 84.0474 116.433 83.6014 116.714C83.1582 116.996 82.6412 117.136 82.0502 117.136ZM82.0502 116.233C82.4991 116.233 82.8684 116.118 83.1582 115.888C83.448 115.658 83.6625 115.355 83.8017 114.98C83.9409 114.605 84.0105 114.199 84.0105 113.761C84.0105 113.324 83.9409 112.916 83.8017 112.538C83.6625 112.161 83.448 111.855 83.1582 111.622C82.8684 111.389 82.4991 111.273 82.0502 111.273C81.6014 111.273 81.2321 111.389 80.9423 111.622C80.6525 111.855 80.438 112.161 80.2988 112.538C80.1596 112.916 80.09 113.324 80.09 113.761C80.09 114.199 80.1596 114.605 80.2988 114.98C80.438 115.355 80.6525 115.658 80.9423 115.888C81.2321 116.118 81.6014 116.233 82.0502 116.233ZM91.1877 111.92L90.2843 112.176C90.2275 112.026 90.1436 111.879 90.0328 111.737C89.9249 111.592 89.7772 111.473 89.5897 111.379C89.4022 111.286 89.1621 111.239 88.8695 111.239C88.4689 111.239 88.1351 111.331 87.8681 111.516C87.6039 111.697 87.4718 111.929 87.4718 112.21C87.4718 112.46 87.5627 112.658 87.7445 112.803C87.9263 112.947 88.2104 113.068 88.5968 113.165L89.5684 113.403C90.1536 113.545 90.5897 113.763 90.8766 114.055C91.1635 114.345 91.307 114.719 91.307 115.176C91.307 115.551 91.199 115.886 90.9831 116.182C90.7701 116.477 90.4718 116.71 90.0882 116.881C89.7047 117.051 89.2587 117.136 88.7502 117.136C88.0826 117.136 87.53 116.991 87.0925 116.702C86.655 116.412 86.378 115.989 86.2615 115.432L87.2161 115.193C87.307 115.545 87.4789 115.81 87.7317 115.986C87.9874 116.162 88.3212 116.25 88.7331 116.25C89.2019 116.25 89.574 116.151 89.8496 115.952C90.128 115.75 90.2672 115.509 90.2672 115.227C90.2672 115 90.1877 114.81 90.0286 114.656C89.8695 114.5 89.6252 114.384 89.2956 114.307L88.2047 114.051C87.6053 113.909 87.165 113.689 86.8837 113.391C86.6053 113.089 86.4661 112.713 86.4661 112.261C86.4661 111.892 86.5698 111.565 86.7772 111.281C86.9874 110.997 87.2729 110.774 87.6337 110.612C87.9973 110.45 88.4093 110.369 88.8695 110.369C89.5172 110.369 90.0257 110.511 90.3951 110.795C90.7672 111.08 91.0314 111.455 91.1877 111.92ZM98.6674 117.136C98.122 117.136 97.6404 116.999 97.2228 116.723C96.8052 116.445 96.4785 116.053 96.2427 115.547C96.0069 115.038 95.889 114.438 95.889 113.744C95.889 113.057 96.0069 112.46 96.2427 111.955C96.4785 111.449 96.8066 111.058 97.2271 110.783C97.6475 110.507 98.1333 110.369 98.6845 110.369C99.1106 110.369 99.4473 110.44 99.6944 110.582C99.9444 110.722 100.135 110.881 100.265 111.06C100.399 111.236 100.503 111.381 100.577 111.494H100.662V108.273H101.667V117H100.696V115.994H100.577C100.503 116.114 100.398 116.264 100.261 116.446C100.125 116.625 99.9302 116.786 99.6774 116.928C99.4245 117.067 99.0879 117.136 98.6674 117.136ZM98.8038 116.233C99.2072 116.233 99.5481 116.128 99.8265 115.918C100.105 115.705 100.317 115.411 100.461 115.036C100.606 114.658 100.679 114.222 100.679 113.727C100.679 113.239 100.608 112.811 100.466 112.445C100.324 112.075 100.113 111.788 99.835 111.584C99.5566 111.376 99.2129 111.273 98.8038 111.273C98.3777 111.273 98.0225 111.382 97.7385 111.601C97.4572 111.817 97.2456 112.111 97.1035 112.483C96.9643 112.852 96.8947 113.267 96.8947 113.727C96.8947 114.193 96.9657 114.616 97.1078 114.997C97.2527 115.375 97.4657 115.676 97.747 115.901C98.0311 116.122 98.3833 116.233 98.8038 116.233ZM106.393 117.136C105.763 117.136 105.219 116.997 104.761 116.719C104.307 116.438 103.956 116.045 103.709 115.543C103.464 115.037 103.342 114.449 103.342 113.778C103.342 113.108 103.464 112.517 103.709 112.006C103.956 111.491 104.3 111.091 104.74 110.804C105.183 110.514 105.7 110.369 106.291 110.369C106.632 110.369 106.969 110.426 107.301 110.54C107.633 110.653 107.936 110.838 108.209 111.094C108.481 111.347 108.699 111.682 108.861 112.099C109.023 112.517 109.104 113.031 109.104 113.642V114.068H104.058V113.199H108.081C108.081 112.83 108.007 112.5 107.859 112.21C107.714 111.92 107.507 111.692 107.237 111.524C106.97 111.357 106.655 111.273 106.291 111.273C105.89 111.273 105.544 111.372 105.251 111.571C104.961 111.767 104.738 112.023 104.582 112.338C104.426 112.653 104.348 112.991 104.348 113.352V113.932C104.348 114.426 104.433 114.845 104.604 115.189C104.777 115.53 105.017 115.79 105.324 115.969C105.631 116.145 105.987 116.233 106.393 116.233C106.657 116.233 106.896 116.196 107.109 116.122C107.325 116.045 107.511 115.932 107.667 115.781C107.824 115.628 107.944 115.437 108.03 115.21L109.001 115.483C108.899 115.812 108.727 116.102 108.486 116.352C108.244 116.599 107.946 116.793 107.591 116.932C107.236 117.068 106.836 117.136 106.393 117.136ZM55.2085 125.455V126.307H51.8164V125.455H55.2085ZM52.805 123.886H53.8107V130.125C53.8107 130.409 53.8519 130.622 53.9343 130.764C54.0195 130.903 54.1275 130.997 54.2582 131.045C54.3917 131.091 54.5323 131.114 54.68 131.114C54.7908 131.114 54.8817 131.108 54.9528 131.097C55.0238 131.082 55.0806 131.071 55.1232 131.062L55.3278 131.966C55.2596 131.991 55.1644 132.017 55.0423 132.043C54.9201 132.071 54.7653 132.085 54.5778 132.085C54.2937 132.085 54.0153 132.024 53.7425 131.902C53.4727 131.78 53.2482 131.594 53.0692 131.344C52.8931 131.094 52.805 130.778 52.805 130.398V123.886ZM59.31 132.136C58.7191 132.136 58.2006 131.996 57.7546 131.714C57.3114 131.433 56.9648 131.04 56.7148 130.534C56.4677 130.028 56.3441 129.437 56.3441 128.761C56.3441 128.08 56.4677 127.484 56.7148 126.976C56.9648 126.467 57.3114 126.072 57.7546 125.791C58.2006 125.51 58.7191 125.369 59.31 125.369C59.9009 125.369 60.418 125.51 60.8612 125.791C61.3072 126.072 61.6538 126.467 61.9009 126.976C62.1509 127.484 62.2759 128.08 62.2759 128.761C62.2759 129.437 62.1509 130.028 61.9009 130.534C61.6538 131.04 61.3072 131.433 60.8612 131.714C60.418 131.996 59.9009 132.136 59.31 132.136ZM59.31 131.233C59.7589 131.233 60.1282 131.118 60.418 130.888C60.7077 130.658 60.9222 130.355 61.0614 129.98C61.2006 129.605 61.2702 129.199 61.2702 128.761C61.2702 128.324 61.2006 127.916 61.0614 127.538C60.9222 127.161 60.7077 126.855 60.418 126.622C60.1282 126.389 59.7589 126.273 59.31 126.273C58.8612 126.273 58.4918 126.389 58.2021 126.622C57.9123 126.855 57.6978 127.161 57.5586 127.538C57.4194 127.916 57.3498 128.324 57.3498 128.761C57.3498 129.199 57.4194 129.605 57.5586 129.98C57.6978 130.355 57.9123 130.658 58.2021 130.888C58.4918 131.118 58.8612 131.233 59.31 131.233ZM66.2827 132.136C65.7372 132.136 65.2557 131.999 64.8381 131.723C64.4205 131.445 64.0938 131.053 63.858 130.547C63.6222 130.038 63.5043 129.438 63.5043 128.744C63.5043 128.057 63.6222 127.46 63.858 126.955C64.0938 126.449 64.4219 126.058 64.8423 125.783C65.2628 125.507 65.7486 125.369 66.2997 125.369C66.7259 125.369 67.0625 125.44 67.3097 125.582C67.5597 125.722 67.75 125.881 67.8807 126.06C68.0142 126.236 68.1179 126.381 68.1918 126.494H68.277V123.273H69.2827V132H68.3111V130.994H68.1918C68.1179 131.114 68.0128 131.264 67.8764 131.446C67.7401 131.625 67.5455 131.786 67.2926 131.928C67.0398 132.067 66.7031 132.136 66.2827 132.136ZM66.419 131.233C66.8224 131.233 67.1634 131.128 67.4418 130.918C67.7202 130.705 67.9318 130.411 68.0767 130.036C68.2216 129.658 68.294 129.222 68.294 128.727C68.294 128.239 68.223 127.811 68.081 127.445C67.9389 127.075 67.7287 126.788 67.4503 126.584C67.1719 126.376 66.8281 126.273 66.419 126.273C65.9929 126.273 65.6378 126.382 65.3537 126.601C65.0724 126.817 64.8608 127.111 64.7188 127.483C64.5795 127.852 64.5099 128.267 64.5099 128.727C64.5099 129.193 64.581 129.616 64.723 129.997C64.8679 130.375 65.081 130.676 65.3622 130.901C65.6463 131.122 65.9986 131.233 66.419 131.233ZM73.9233 132.136C73.3324 132.136 72.8139 131.996 72.3679 131.714C71.9247 131.433 71.5781 131.04 71.3281 130.534C71.081 130.028 70.9574 129.437 70.9574 128.761C70.9574 128.08 71.081 127.484 71.3281 126.976C71.5781 126.467 71.9247 126.072 72.3679 125.791C72.8139 125.51 73.3324 125.369 73.9233 125.369C74.5142 125.369 75.0313 125.51 75.4744 125.791C75.9205 126.072 76.267 126.467 76.5142 126.976C76.7642 127.484 76.8892 128.08 76.8892 128.761C76.8892 129.437 76.7642 130.028 76.5142 130.534C76.267 131.04 75.9205 131.433 75.4744 131.714C75.0313 131.996 74.5142 132.136 73.9233 132.136ZM73.9233 131.233C74.3722 131.233 74.7415 131.118 75.0312 130.888C75.321 130.658 75.5355 130.355 75.6747 129.98C75.8139 129.605 75.8835 129.199 75.8835 128.761C75.8835 128.324 75.8139 127.916 75.6747 127.538C75.5355 127.161 75.321 126.855 75.0312 126.622C74.7415 126.389 74.3722 126.273 73.9233 126.273C73.4744 126.273 73.1051 126.389 72.8153 126.622C72.5256 126.855 72.3111 127.161 72.1719 127.538C72.0327 127.916 71.9631 128.324 71.9631 128.761C71.9631 129.199 72.0327 129.605 72.1719 129.98C72.3111 130.355 72.5256 130.658 72.8153 130.888C73.1051 131.118 73.4744 131.233 73.9233 131.233ZM84.646 125.455V126.307H81.2539V125.455H84.646ZM82.2425 123.886H83.2482V130.125C83.2482 130.409 83.2894 130.622 83.3718 130.764C83.457 130.903 83.565 130.997 83.6957 131.045C83.8292 131.091 83.9698 131.114 84.1175 131.114C84.2283 131.114 84.3192 131.108 84.3903 131.097C84.4613 131.082 84.5181 131.071 84.5607 131.062L84.7653 131.966C84.6971 131.991 84.6019 132.017 84.4798 132.043C84.3576 132.071 84.2028 132.085 84.0153 132.085C83.7312 132.085 83.4528 132.024 83.18 131.902C82.9102 131.78 82.6857 131.594 82.5067 131.344C82.3306 131.094 82.2425 130.778 82.2425 130.398V123.886ZM86.1587 132V125.455H87.1644V132H86.1587ZM86.6701 124.364C86.4741 124.364 86.305 124.297 86.163 124.163C86.0238 124.03 85.9542 123.869 85.9542 123.682C85.9542 123.494 86.0238 123.334 86.163 123.2C86.305 123.067 86.4741 123 86.6701 123C86.8661 123 87.0337 123.067 87.1729 123.2C87.315 123.334 87.386 123.494 87.386 123.682C87.386 123.869 87.315 124.03 87.1729 124.163C87.0337 124.297 86.8661 124.364 86.6701 124.364ZM89.0064 134.455V125.455H89.978V126.494H90.0973C90.1712 126.381 90.2734 126.236 90.4041 126.06C90.5376 125.881 90.728 125.722 90.9751 125.582C91.2251 125.44 91.5632 125.369 91.9893 125.369C92.5405 125.369 93.0263 125.507 93.4467 125.783C93.8672 126.058 94.1953 126.449 94.4311 126.955C94.6669 127.46 94.7848 128.057 94.7848 128.744C94.7848 129.438 94.6669 130.038 94.4311 130.547C94.1953 131.053 93.8686 131.445 93.451 131.723C93.0334 131.999 92.5518 132.136 92.0064 132.136C91.5859 132.136 91.2493 132.067 90.9964 131.928C90.7436 131.786 90.549 131.625 90.4126 131.446C90.2763 131.264 90.1712 131.114 90.0973 130.994H90.0121V134.455H89.0064ZM89.995 128.727C89.995 129.222 90.0675 129.658 90.2124 130.036C90.3572 130.411 90.5689 130.705 90.8473 130.918C91.1257 131.128 91.4666 131.233 91.87 131.233C92.2905 131.233 92.6413 131.122 92.9226 130.901C93.2067 130.676 93.4197 130.375 93.5618 129.997C93.7067 129.616 93.7791 129.193 93.7791 128.727C93.7791 128.267 93.7081 127.852 93.5661 127.483C93.4268 127.111 93.2152 126.817 92.9311 126.601C92.6499 126.382 92.2962 126.273 91.87 126.273C91.4609 126.273 91.1172 126.376 90.8388 126.584C90.5604 126.788 90.3501 127.075 90.2081 127.445C90.0661 127.811 89.995 128.239 89.995 128.727ZM98.978 132.136C98.3871 132.136 97.8686 131.996 97.4226 131.714C96.9794 131.433 96.6328 131.04 96.3828 130.534C96.1357 130.028 96.0121 129.437 96.0121 128.761C96.0121 128.08 96.1357 127.484 96.3828 126.976C96.6328 126.467 96.9794 126.072 97.4226 125.791C97.8686 125.51 98.3871 125.369 98.978 125.369C99.5689 125.369 100.086 125.51 100.529 125.791C100.975 126.072 101.322 126.467 101.569 126.976C101.819 127.484 101.944 128.08 101.944 128.761C101.944 129.437 101.819 130.028 101.569 130.534C101.322 131.04 100.975 131.433 100.529 131.714C100.086 131.996 99.5689 132.136 98.978 132.136ZM98.978 131.233C99.4268 131.233 99.7962 131.118 100.086 130.888C100.376 130.658 100.59 130.355 100.729 129.98C100.869 129.605 100.938 129.199 100.938 128.761C100.938 128.324 100.869 127.916 100.729 127.538C100.59 127.161 100.376 126.855 100.086 126.622C99.7962 126.389 99.4268 126.273 98.978 126.273C98.5291 126.273 98.1598 126.389 97.87 126.622C97.5803 126.855 97.3658 127.161 97.2266 127.538C97.0874 127.916 97.0178 128.324 97.0178 128.761C97.0178 129.199 97.0874 129.605 97.2266 129.98C97.3658 130.355 97.5803 130.658 97.87 130.888C98.1598 131.118 98.5291 131.233 98.978 131.233Z" fill="black"/>
<path d="M125.731 75.4991C124.461 78.297 122.232 79.571 119.223 79.5269C118.439 79.5171 118.405 80.0022 118.278 80.5412C116.685 87.2395 108.762 89.959 103.426 85.647C101.858 84.3779 100.995 82.9716 100.084 80.159H79.8323C78.6661 84.3877 76.0691 87.166 71.6052 87.656C67.7979 88.0725 64.7207 86.5192 62.7656 83.2117C60.4724 79.3456 60.9918 75.5677 63.6721 71.9417H53.5536C56.2976 75.6804 56.768 79.5759 54.2739 83.5057C52.26 86.676 49.1779 88.1215 45.4637 87.6413C41.1125 87.0778 38.5351 84.3583 37.3738 80.0953C36.0998 80.0953 34.8062 80.1051 33.5126 80.0953C30.847 80.0708 29.0585 78.2676 29.034 75.5873C29.0291 75.0483 29.0781 74.5044 29.0242 73.9654C28.7596 71.2998 30.2786 69.0605 33.5224 68.7322C31.6947 66.2234 30.4501 63.4696 29.3525 60.6178C25.8392 51.4891 30.5187 43.507 36.1978 39.9545C38.8536 38.2934 41.7495 37.4947 44.8561 37.382C45.3314 37.3673 45.8018 37.382 46.3212 37.382C46.4045 36.7107 46.429 36.0835 46.5662 35.4759C47.0807 33.1974 48.9378 31.6784 51.2604 31.6147C52.2453 31.5853 53.2302 31.5951 54.2151 31.6049C57.2482 31.6392 59.2866 33.6482 59.3797 36.6666C59.3846 36.8528 59.3797 37.0439 59.3797 37.3673C59.7913 37.3673 60.1588 37.3673 60.5263 37.3673C66.5337 37.3673 72.5362 37.3624 78.5436 37.3673C87.2852 37.382 94.3461 43.1885 95.8847 51.7929C96.8451 57.1633 95.2379 61.9016 91.7932 66.0519C91.0533 66.9486 90.2448 67.7865 89.3383 68.7959C92.048 68.7959 94.5764 68.8302 97.0999 68.7763C97.928 68.7616 98.4229 68.056 98.4425 67.0907C98.467 65.8216 98.4474 64.5476 98.4474 63.2785C98.4474 58.795 98.4425 54.3164 98.4474 49.8329C98.4523 45.8884 100.99 43.3355 104.945 43.3208C109.712 43.3012 114.48 43.3208 119.243 43.311C122.261 43.3012 124.412 44.5948 125.559 47.4417C125.588 47.5201 125.677 47.574 125.74 47.6377V75.4844L125.731 75.4991ZM61.5161 68.8253C69.1062 68.8253 76.7012 68.8351 84.2913 68.8008C84.7568 68.8008 85.335 68.5411 85.6584 68.2079C86.8736 66.9535 88.0349 65.6452 89.1668 64.3173C92.9937 59.8142 94.1011 54.728 91.7932 49.24C89.4657 43.6981 85.0704 40.5866 79.0679 40.4886C67.6362 40.3073 56.1947 40.3661 44.763 40.469C40.0688 40.5131 36.2027 42.5172 33.6008 46.5205C31.2096 50.1906 30.4795 54.1645 31.8221 58.4324C32.7629 61.4165 33.9879 64.2585 35.8205 66.8163C36.7956 68.1834 37.9471 68.9037 39.7993 68.8743C47.0415 68.7518 54.2837 68.8253 61.5259 68.8253H61.5161ZM99.986 77.0524C100.064 76.7143 100.123 76.435 100.187 76.1606C101.191 71.7065 105.155 68.6587 109.712 68.84C113.696 68.9968 117.151 71.8388 118.258 75.847C118.336 76.141 118.528 76.5722 118.743 76.631C120.953 77.2043 122.996 75.5922 122.996 73.3186C122.996 70.5207 122.996 67.7228 122.996 64.9249C122.996 64.5868 122.996 64.2438 122.996 63.8028C122.531 63.8028 122.188 63.8028 121.845 63.8028C119.557 63.8028 117.268 63.8273 114.98 63.793C112.094 63.7538 110.217 61.8722 110.163 59.0008C110.134 57.3789 110.139 55.757 110.163 54.14C110.207 51.1902 112.069 49.338 115.024 49.3135C117.312 49.2939 119.601 49.3135 121.889 49.3086C122.217 49.3086 122.546 49.2743 122.884 49.2547C122.658 47.5397 121.458 46.545 119.664 46.545C114.897 46.5352 110.129 46.545 105.361 46.545C102.764 46.545 101.642 47.6622 101.637 50.2494C101.637 55.7815 101.647 61.3136 101.637 66.8408C101.632 70.016 99.7557 71.8878 96.6001 71.8878C90.627 71.8878 84.649 71.8878 78.6759 71.8878C78.3476 71.8878 78.0193 71.9172 77.8821 71.9221C78.4946 73.3235 79.2051 74.6661 79.6608 76.092C79.896 76.8319 80.1067 77.0818 80.8956 77.0769C86.9324 77.0426 92.9741 77.0573 99.0109 77.0573C99.3245 77.0573 99.6381 77.0573 99.9909 77.0573L99.986 77.0524ZM46.4829 84.6768C49.9913 84.7013 52.7892 81.8838 52.8088 78.3019C52.8284 74.7935 50.0403 71.9074 46.6152 71.878C43.1313 71.8486 40.304 74.7053 40.2942 78.2627C40.2844 81.7907 43.0431 84.6474 46.478 84.6719L46.4829 84.6768ZM70.6497 84.6768C73.4721 84.7356 77.103 82.609 76.8531 77.6796C76.6865 74.3574 73.9033 71.8927 70.6644 71.8829C67.1903 71.8731 64.3679 74.7788 64.3973 78.3264C64.4267 81.8642 67.1952 84.6768 70.6497 84.6768ZM109.159 84.6768C112.682 84.716 115.46 81.9279 115.49 78.3362C115.514 74.7935 112.785 71.9221 109.355 71.8829C105.935 71.8437 103.063 74.6416 103.034 78.0471C103.004 81.776 105.65 84.6376 109.164 84.6768H109.159ZM122.996 52.3858C120.096 52.3858 117.342 52.3564 114.588 52.4005C113.672 52.4152 113.245 53.0914 113.226 53.944C113.187 55.6884 113.182 57.4328 113.226 59.1772C113.25 60.1523 113.814 60.7158 114.799 60.7354C117.337 60.7746 119.87 60.7648 122.408 60.7354C122.604 60.7354 122.962 60.3973 122.962 60.2111C123.001 57.6484 122.987 55.0857 122.987 52.3956L122.996 52.3858ZM39.2652 71.878C37.4032 71.878 35.3501 71.8633 33.3019 71.8878C32.5081 71.8976 32.0867 72.3631 32.0769 73.1618C32.0671 74.0487 32.0622 74.9356 32.0769 75.8225C32.0916 76.5771 32.5032 77.0132 33.2529 77.0328C34.424 77.0622 35.5951 77.072 36.7662 77.023C36.9867 77.0132 37.3003 76.7584 37.3934 76.5428C38.0353 75.0189 38.6282 73.4754 39.2603 71.878H39.2652ZM49.4915 37.3085H56.2731C56.3858 35.3779 55.7292 34.6674 53.8819 34.6576C53.2155 34.6576 52.5491 34.6576 51.8827 34.6576C50.0403 34.6674 49.3837 35.3779 49.4915 37.3085Z" fill="#424242"/>
<path d="M62.1236 62.3965C65.7006 62.3867 68.2094 59.2703 67.0383 55.8452C66.0926 53.0767 64.6569 50.465 63.329 47.8337C62.7949 46.7704 61.2857 46.7655 60.7467 47.8239C59.4188 50.416 57.9929 52.9934 57.0521 55.7325C55.8761 59.1527 58.5123 62.4014 62.1236 62.3916V62.3965Z" fill="#424242" stroke="#424242" stroke-miterlimit="10"/>
<path d="M62.1238 62.3965C58.5125 62.4063 55.8714 59.1576 57.0523 55.7374C57.9931 52.9983 59.4239 50.4209 60.7469 47.8288C61.2908 46.7704 62.7951 46.7753 63.3292 47.8386C64.6571 50.465 66.0928 53.0767 67.0385 55.8501C68.2096 59.2752 65.7008 62.3916 62.1238 62.4014V62.3965Z" fill="#424242"/>
<path d="M70.3654 81.8985C68.0624 81.8446 66.3915 79.7327 66.8717 77.4836C66.9893 76.9201 67.3372 76.6457 67.8566 76.6996C68.3662 76.7486 68.6504 77.1014 68.6602 77.6747C68.67 78.0569 68.6308 78.4636 68.7386 78.8213C68.9934 79.6935 69.8264 80.1688 70.7525 80.0414C71.5953 79.9238 72.2568 79.1741 72.2911 78.3068C72.3254 77.4444 71.7374 76.6702 70.8848 76.4644C70.7084 76.4203 70.5222 76.4056 70.3409 76.3664C69.7921 76.2488 69.5177 75.8862 69.5716 75.3668C69.6255 74.8768 70.0126 74.5387 70.5565 74.5681C71.8011 74.6269 72.8203 75.1512 73.4965 76.1949C74.2805 77.4003 74.3638 78.6841 73.6778 79.9728C73.0163 81.2223 71.7717 81.9328 70.3605 81.9034L70.3654 81.8985Z" fill="#424242"/>
<path d="M109.124 81.8985C106.821 81.8446 105.15 79.7327 105.63 77.4836C105.748 76.9201 106.096 76.6457 106.615 76.6996C107.125 76.7486 107.409 77.1014 107.419 77.6747C107.429 78.0569 107.39 78.4636 107.497 78.8213C107.752 79.6935 108.585 80.1688 109.511 80.0414C110.354 79.9238 111.016 79.1741 111.05 78.3068C111.084 77.4444 110.496 76.6702 109.644 76.4644C109.467 76.4203 109.281 76.4056 109.1 76.3664C108.551 76.2488 108.277 75.8862 108.33 75.3668C108.384 74.8768 108.771 74.5387 109.315 74.5681C110.56 74.6269 111.579 75.1512 112.255 76.1949C113.039 77.4003 113.123 78.6841 112.437 79.9728C111.775 81.2223 110.531 81.9328 109.119 81.9034L109.124 81.8985Z" fill="#424242"/>
<path d="M46.2721 81.8985C43.9691 81.8446 42.2982 79.7327 42.7784 77.4836C42.896 76.9201 43.2439 76.6457 43.7633 76.6996C44.2729 76.7486 44.5571 77.1014 44.5669 77.6747C44.5767 78.0569 44.5375 78.4636 44.6453 78.8213C44.9001 79.6935 45.7331 80.1688 46.6592 80.0414C47.502 79.9238 48.1635 79.1741 48.1978 78.3068C48.2321 77.4444 47.6441 76.6702 46.7915 76.4644C46.6151 76.4203 46.4289 76.4056 46.2476 76.3664C45.6988 76.2488 45.4244 75.8862 45.4783 75.3668C45.5322 74.8768 45.9193 74.5387 46.4632 74.5681C47.7078 74.6269 48.727 75.1512 49.4032 76.1949C50.1872 77.4003 50.2705 78.6841 49.5845 79.9728C48.923 81.2223 47.6784 81.9328 46.2672 81.9034L46.2721 81.8985Z" fill="#424242"/>
</svg>
