<svg width="153" height="151" viewBox="0 0 153 151" fill="none" xmlns="http://www.w3.org/2000/svg">
<path d="M75.3 149.5C116.335 149.5 149.6 116.235 149.6 75.2C149.6 34.1653 116.335 0.900024 75.3 0.900024C34.2652 0.900024 1 34.1653 1 75.2C1 116.235 34.2652 149.5 75.3 149.5Z" fill="#004C98"/>
<path d="M76.3742 75.4232C77.8416 75.0506 79.1664 74.7562 80.459 74.3606C80.7258 74.2778 81.0386 73.827 81.0478 73.5372C81.0984 71.6328 81.0708 69.7238 81.0754 67.8194C81.08 66.5222 81.6826 65.7954 82.7176 65.8C83.748 65.8046 84.3368 66.5314 84.3414 67.8378C84.3506 70.2896 84.3276 72.7414 84.3506 75.1932C84.3598 76.2834 83.8584 76.9136 82.8234 77.1712C81.0248 77.622 79.2262 78.082 77.3034 78.5696C78.2556 80.1198 79.0698 81.6102 80.0496 82.9856C81.0662 84.4162 81.4802 85.9158 81.3606 87.6592C81.2502 89.2462 81.3376 90.847 81.3376 92.388C81.4848 92.4754 81.54 92.5306 81.5952 92.5352C84.208 92.7054 84.3414 92.848 84.3414 95.539C84.3414 97.9908 84.3414 100.443 84.3414 102.894C84.3414 104.955 84.0378 105.296 81.8896 105.516C81.8896 106.961 81.8942 108.414 81.8896 109.873C81.885 111.414 81.333 111.975 79.8104 111.979C76.204 111.984 72.593 111.989 68.9866 111.979C67.5284 111.979 66.9764 111.409 66.9718 109.923C66.9626 108.47 66.9718 107.011 66.9718 105.503H49.4274C49.4274 106.961 49.4274 108.41 49.4274 109.863C49.4228 111.455 48.8892 111.984 47.2654 111.984C43.7234 111.984 40.186 111.984 36.644 111.984C35.0432 111.984 34.5096 111.441 34.5004 109.836C34.4958 108.414 34.5004 106.988 34.5004 105.443C33.9254 105.443 33.4286 105.466 32.9318 105.443C31.9014 105.388 31.2528 104.799 31.2436 103.778C31.216 100.613 31.2114 97.4434 31.2436 94.2786C31.2528 93.0872 31.8094 92.71 33.7092 92.4892C33.7092 90.709 33.7782 88.9104 33.6862 87.121C33.6172 85.7594 33.976 84.614 34.7258 83.4916C35.7838 81.9138 36.736 80.267 37.794 78.5558C36.138 78.105 34.5832 77.668 33.0192 77.254C31.5794 76.8722 31.2344 76.4536 31.2344 74.977C31.2344 72.5942 31.2298 70.2114 31.2344 67.8286C31.2344 66.536 31.8462 65.8046 32.8812 65.8184C33.9116 65.8276 34.4912 66.5544 34.5004 67.8608C34.5096 69.664 34.528 71.4718 34.4912 73.275C34.4774 73.9742 34.5878 74.3882 35.402 74.5308C36.4646 74.7102 37.495 75.069 38.7232 75.4002V74.126C38.7232 65.8874 38.7232 57.6488 38.7232 49.4102C38.7232 49.102 38.714 48.7984 38.7232 48.4902C38.76 47.3402 39.358 46.6364 40.3056 46.618C41.2762 46.595 41.9662 47.3402 41.98 48.5224C42.0076 50.804 41.9892 53.0856 41.9892 55.3672C41.9892 55.7306 41.9892 56.094 41.9892 56.6C42.302 56.4252 42.4814 56.347 42.6378 56.2366C44.1604 55.151 45.867 54.6956 47.7254 54.7002C53.9216 54.7094 60.1132 54.7094 66.3094 54.7002C67.947 54.7002 69.4696 55.082 70.8864 55.9054C71.558 56.2964 72.2526 56.6414 73.099 57.1014C73.099 55.4868 73.099 54.0148 73.099 52.5382C73.099 51.2088 73.0898 49.884 73.099 48.5546C73.1082 47.354 73.7384 46.6226 74.732 46.6272C75.721 46.6272 76.3604 47.3632 76.3604 48.5638C76.3696 57.0738 76.3604 65.5838 76.3604 74.0984C76.3604 74.5032 76.3604 74.9126 76.3604 75.4462L76.3742 75.4232ZM81.0524 95.8748C80.7994 95.8564 80.6338 95.8426 80.4728 95.838C78.4948 95.792 78.0762 95.3734 78.0716 93.4184C78.0716 91.238 78.0992 89.0576 78.0532 86.8818C78.044 86.3712 77.883 85.8054 77.6208 85.3684C76.319 83.1742 74.9344 81.0306 73.6418 78.8318C73.3336 78.3074 73.1358 77.6312 73.1312 77.024C73.0898 72.4976 72.9748 67.962 73.168 63.4402C73.2554 61.4024 72.6298 60.326 70.8036 59.5072C69.0556 58.7252 67.441 57.8834 65.417 57.9202C60.1408 58.0214 54.86 58.049 49.5884 57.911C46.9986 57.842 44.7722 58.3894 42.7988 60.0822C42.2652 60.5422 41.9708 60.9332 41.9754 61.6738C42.0076 66.7476 42.0122 71.8214 41.9662 76.8952C41.9616 77.5668 41.7362 78.312 41.3958 78.8962C40.1308 81.072 38.7508 83.1788 37.472 85.35C37.1822 85.8422 37.012 86.4816 36.9982 87.0566C36.9476 89.3704 36.966 91.6888 36.9798 94.0026C36.9844 94.9456 36.5796 95.5758 35.6596 95.8012C35.31 95.8886 34.9374 95.861 34.574 95.8886V102.094H81.0524V95.884V95.8748ZM46.1154 105.512H37.8216V108.654H46.1154V105.512ZM78.5822 105.493H70.3068V108.64H78.5822V105.493Z" fill="white"/>
<path d="M117.848 101.763C117.848 102.338 117.839 102.779 117.848 103.216C117.94 107.053 117.783 107.154 113.938 107.08C112.236 107.048 110.534 107.053 108.832 107.08C104.71 107.149 104.692 107.103 104.77 102.963C104.779 102.595 104.77 102.232 104.77 101.763H103.583C98.6474 101.763 93.7116 101.763 88.7758 101.763C88.4354 101.763 88.0904 101.786 87.7592 101.731C86.9358 101.588 86.347 100.87 86.4022 100.065C86.4666 99.2144 86.9496 98.69 87.7822 98.529C88.1134 98.4646 88.4584 98.4968 88.7988 98.4968C98.5692 98.4968 108.34 98.4968 118.11 98.4968H119.476V97.3744C119.476 87.5994 119.467 77.829 119.495 68.054C119.495 67.3088 119.246 66.9086 118.644 66.5084C107.811 59.268 96.9914 52.0046 86.1676 44.7458C85.9698 44.6124 85.7674 44.4882 85.5742 44.3456C84.714 43.7062 84.507 42.8276 85.0176 42.041C85.5282 41.2544 86.4528 41.0612 87.3452 41.6178C88.3848 42.2664 89.3876 42.9702 90.4042 43.651C100.492 50.4176 110.566 57.2026 120.677 63.9324C122.13 64.8984 122.765 66.0852 122.761 67.8286C122.719 78.3488 122.738 88.8736 122.738 99.3938C122.738 101.28 122.264 101.758 120.401 101.758C119.587 101.758 118.777 101.758 117.834 101.758L117.848 101.763ZM114.536 101.832H108.128V103.75H114.536V101.832Z" fill="white"/>
<path d="M81.0805 42.5608H34.5055V43.7016C34.5055 49.6264 34.5055 55.5512 34.5055 61.4714C34.5055 61.7428 34.5239 71.9456 34.5055 72.217C34.4457 73.2658 33.4935 69.2914 32.5459 69.2776C31.6397 69.2638 31.2993 71.8352 31.2303 70.8508C31.2165 70.6484 31.2303 61.9222 31.2303 61.7198C31.2303 54.9808 31.2303 48.2372 31.2303 41.4982C31.2303 39.7502 31.7317 39.2396 33.4659 39.2396C49.6671 39.2396 65.8683 39.2396 82.0741 39.2396C83.8267 39.2396 84.3419 39.7456 84.3419 41.466C84.3419 48.2418 84.3419 55.0176 84.3419 61.7888C84.3419 61.959 84.3511 73.4866 84.3419 73.6568C84.2729 74.701 83.6013 72.1802 82.6491 72.1618C81.7475 72.1388 81.0805 74.5308 81.0483 73.5372C81.0115 72.3826 81.0759 60.0086 81.0759 58.8494C81.0759 53.8124 81.0759 48.7708 81.0759 43.7338V42.5608H81.0805Z" fill="white"/>
<path d="M114.536 101.832V103.75H108.128V101.832H114.536Z" fill="white"/>
<path d="M57.2797 79.2872C53.9447 79.2872 50.6051 79.2872 47.2701 79.2872C45.6693 79.2872 45.1265 78.7444 45.1265 77.1436C45.1219 74.1812 45.1219 71.2188 45.1265 68.2564C45.1265 66.789 45.6969 66.2186 47.1643 66.214C53.9723 66.2094 60.7803 66.2094 67.5883 66.214C69.0557 66.214 69.6261 66.789 69.6307 68.2518C69.6399 71.2464 69.6399 74.2456 69.6307 77.2402C69.6307 78.7076 69.0511 79.278 67.5883 79.2826C64.1521 79.2918 60.7113 79.2826 57.2751 79.2826L57.2797 79.2872ZM66.3233 69.5536H48.4799V75.966H66.3279V69.5536H66.3233Z" fill="white"/>
<path d="M57.8456 84.292C61.8522 84.292 65.8542 84.292 69.8608 84.292C70.192 84.292 70.537 84.3058 70.859 84.3656C71.6318 84.5082 72.1194 85.0234 72.0964 85.626C72.0734 86.2102 71.5904 86.6794 70.8406 86.8082C70.5416 86.8588 70.2288 86.8818 69.9206 86.8818C61.8568 86.8818 53.7976 86.8818 45.7338 86.8818C45.6832 86.8818 45.6326 86.8818 45.5774 86.8818C44.2756 86.868 43.5304 86.3896 43.5396 85.5754C43.5488 84.7658 44.2986 84.292 45.6004 84.2874C49.6852 84.2874 53.7654 84.2874 57.8502 84.2874L57.8456 84.292Z" fill="white"/>
<path d="M57.8178 92.0016C53.7882 92.0016 49.7586 92.0016 45.7244 92.0016C44.2616 92.0016 43.5256 91.5646 43.5348 90.709C43.5486 89.8672 44.2938 89.444 45.7612 89.444C53.7974 89.444 61.8336 89.444 69.8698 89.444C70.2286 89.444 70.6012 89.444 70.9462 89.513C71.6546 89.651 72.1238 90.1938 72.0962 90.7688C72.0686 91.376 71.5304 91.8728 70.7622 91.9602C70.4586 91.997 70.1458 91.997 69.833 91.997C65.8264 91.997 61.8244 91.997 57.8178 91.997V92.0016Z" fill="white"/>
<path d="M41.2168 100.029C40.5222 100.029 39.8276 100.042 39.133 100.024C38.6592 100.01 38.259 99.771 38.0474 99.1776C37.868 98.6716 37.8772 98.115 38.19 97.7562C38.4476 97.4572 38.8294 97.1996 39.1652 97.1858C40.536 97.1214 41.9114 97.1352 43.2822 97.1674C44.0366 97.1858 44.4828 97.7516 44.492 98.5796C44.4966 99.4306 44.0228 100.001 43.2546 100.029C42.5784 100.052 41.9022 100.029 41.2214 100.029H41.2168Z" fill="white"/>
<path d="M74.3551 100.024C73.6605 100.024 72.9659 100.038 72.2713 100.019C71.7745 100.006 71.3559 99.7434 71.1719 99.104C71.0201 98.575 71.0523 97.9862 71.4065 97.632C71.6687 97.3698 72.0413 97.1858 72.3725 97.172C73.7065 97.1214 75.0451 97.1352 76.3837 97.1582C77.1565 97.172 77.6487 97.7562 77.6487 98.5842C77.6487 99.4352 77.1335 100.01 76.3377 100.024C75.6799 100.038 75.0175 100.024 74.3597 100.024H74.3551Z" fill="white"/>
</svg>
