<svg width="153" height="151" viewBox="0 0 153 151" fill="none" xmlns="http://www.w3.org/2000/svg">
<path d="M43.2104 111H42.1536C42.0911 110.696 41.9817 110.429 41.8255 110.199C41.6721 109.969 41.4846 109.776 41.263 109.619C41.0442 109.46 40.8013 109.341 40.5343 109.261C40.2672 109.182 39.9888 109.142 39.699 109.142C39.1706 109.142 38.6919 109.276 38.263 109.543C37.8368 109.81 37.4973 110.203 37.2445 110.723C36.9945 111.243 36.8695 111.881 36.8695 112.636C36.8695 113.392 36.9945 114.03 37.2445 114.55C37.4973 115.07 37.8368 115.463 38.263 115.73C38.6919 115.997 39.1706 116.131 39.699 116.131C39.9888 116.131 40.2672 116.091 40.5343 116.011C40.8013 115.932 41.0442 115.814 41.263 115.658C41.4846 115.499 41.6721 115.304 41.8255 115.074C41.9817 114.841 42.0911 114.574 42.1536 114.273H43.2104C43.1309 114.719 42.986 115.118 42.7757 115.47C42.5655 115.822 42.3042 116.122 41.9917 116.369C41.6792 116.614 41.3283 116.8 40.9391 116.928C40.5527 117.055 40.1394 117.119 39.699 117.119C38.9547 117.119 38.2928 116.938 37.7132 116.574C37.1337 116.21 36.6777 115.693 36.3453 115.023C36.013 114.352 35.8468 113.557 35.8468 112.636C35.8468 111.716 36.013 110.92 36.3453 110.25C36.6777 109.58 37.1337 109.062 37.7132 108.699C38.2928 108.335 38.9547 108.153 39.699 108.153C40.1394 108.153 40.5527 108.217 40.9391 108.345C41.3283 108.473 41.6792 108.661 41.9917 108.908C42.3042 109.152 42.5655 109.45 42.7757 109.803C42.986 110.152 43.1309 110.551 43.2104 111ZM46.7079 117.153C46.2931 117.153 45.9167 117.075 45.5787 116.919C45.2406 116.76 44.9721 116.531 44.7733 116.233C44.5744 115.932 44.475 115.568 44.475 115.142C44.475 114.767 44.5488 114.463 44.6966 114.23C44.8443 113.994 45.0417 113.81 45.2889 113.676C45.536 113.543 45.8088 113.443 46.1071 113.378C46.4082 113.31 46.7108 113.256 47.0147 113.216C47.4125 113.165 47.7349 113.126 47.9821 113.101C48.2321 113.072 48.4139 113.026 48.5275 112.96C48.644 112.895 48.7022 112.781 48.7022 112.619V112.585C48.7022 112.165 48.5872 111.838 48.3571 111.605C48.1298 111.372 47.7846 111.256 47.3216 111.256C46.8414 111.256 46.465 111.361 46.1923 111.571C45.9196 111.781 45.7278 112.006 45.617 112.244L44.6625 111.903C44.8329 111.506 45.0602 111.196 45.3443 110.974C45.6312 110.75 45.9437 110.594 46.2818 110.506C46.6227 110.415 46.9579 110.369 47.2875 110.369C47.4977 110.369 47.7392 110.395 48.0119 110.446C48.2875 110.494 48.5531 110.595 48.8088 110.749C49.0673 110.902 49.2818 111.134 49.4522 111.443C49.6227 111.753 49.7079 112.168 49.7079 112.688V117H48.7022V116.114H48.6511C48.5829 116.256 48.4693 116.408 48.3102 116.57C48.1511 116.732 47.9395 116.869 47.6752 116.983C47.411 117.097 47.0886 117.153 46.7079 117.153ZM46.8613 116.25C47.2591 116.25 47.5943 116.172 47.867 116.016C48.1426 115.859 48.35 115.658 48.4892 115.411C48.6312 115.163 48.7022 114.903 48.7022 114.631V113.71C48.6596 113.761 48.5659 113.808 48.421 113.851C48.2789 113.891 48.1142 113.926 47.9267 113.957C47.742 113.986 47.5616 114.011 47.3855 114.034C47.2122 114.054 47.0716 114.071 46.9636 114.085C46.7022 114.119 46.4579 114.175 46.2306 114.251C46.0062 114.325 45.8244 114.437 45.6852 114.588C45.5488 114.736 45.4806 114.937 45.4806 115.193C45.4806 115.543 45.6099 115.807 45.8684 115.986C46.1298 116.162 46.4608 116.25 46.8613 116.25ZM51.5435 117V110.455H52.5151V111.443H52.5833C52.7026 111.119 52.9185 110.857 53.231 110.655C53.5435 110.453 53.8958 110.352 54.2878 110.352C54.3617 110.352 54.454 110.354 54.5648 110.357C54.6756 110.359 54.7594 110.364 54.8162 110.369V111.392C54.7821 111.384 54.704 111.371 54.5819 111.354C54.4625 111.334 54.3361 111.324 54.2026 111.324C53.8844 111.324 53.6003 111.391 53.3503 111.524C53.1032 111.655 52.9071 111.837 52.7623 112.07C52.6202 112.3 52.5492 112.562 52.5492 112.858V117H51.5435ZM58.4512 119.591C57.9654 119.591 57.5478 119.528 57.1983 119.403C56.8489 119.281 56.5577 119.119 56.3248 118.918C56.0946 118.719 55.9114 118.506 55.775 118.278L56.5762 117.716C56.6671 117.835 56.7821 117.972 56.9213 118.125C57.0605 118.281 57.2509 118.416 57.4924 118.53C57.7367 118.646 58.0563 118.705 58.4512 118.705C58.9796 118.705 59.4157 118.577 59.7594 118.321C60.1032 118.065 60.275 117.665 60.275 117.119V115.79H60.1898C60.1159 115.909 60.0108 116.057 59.8745 116.233C59.7409 116.406 59.5478 116.561 59.2949 116.697C59.0449 116.831 58.7069 116.898 58.2807 116.898C57.7523 116.898 57.2779 116.773 56.8574 116.523C56.4398 116.273 56.1088 115.909 55.8645 115.432C55.623 114.955 55.5023 114.375 55.5023 113.693C55.5023 113.023 55.6202 112.439 55.856 111.942C56.0918 111.442 56.4199 111.055 56.8404 110.783C57.2608 110.507 57.7466 110.369 58.2978 110.369C58.7239 110.369 59.062 110.44 59.312 110.582C59.5648 110.722 59.758 110.881 59.8915 111.06C60.0279 111.236 60.133 111.381 60.2069 111.494H60.3091V110.455H61.2807V117.188C61.2807 117.75 61.1529 118.207 60.8972 118.56C60.6444 118.915 60.3034 119.175 59.8745 119.339C59.4483 119.507 58.9739 119.591 58.4512 119.591ZM58.4171 115.994C58.8205 115.994 59.1614 115.902 59.4398 115.717C59.7182 115.533 59.9299 115.267 60.0748 114.92C60.2196 114.574 60.2921 114.159 60.2921 113.676C60.2921 113.205 60.2211 112.788 60.079 112.428C59.937 112.067 59.7267 111.784 59.4483 111.58C59.1699 111.375 58.8262 111.273 58.4171 111.273C57.9909 111.273 57.6358 111.381 57.3517 111.597C57.0705 111.812 56.8588 112.102 56.7168 112.466C56.5776 112.83 56.508 113.233 56.508 113.676C56.508 114.131 56.579 114.533 56.7211 114.882C56.8659 115.229 57.079 115.501 57.3603 115.7C57.6444 115.896 57.9966 115.994 58.4171 115.994ZM65.0478 117.153C64.633 117.153 64.2566 117.075 63.9185 116.919C63.5804 116.76 63.312 116.531 63.1131 116.233C62.9142 115.932 62.8148 115.568 62.8148 115.142C62.8148 114.767 62.8887 114.463 63.0364 114.23C63.1841 113.994 63.3816 113.81 63.6287 113.676C63.8759 113.543 64.1486 113.443 64.4469 113.378C64.748 113.31 65.0506 113.256 65.3546 113.216C65.7523 113.165 66.0748 113.126 66.3219 113.101C66.5719 113.072 66.7537 113.026 66.8674 112.96C66.9838 112.895 67.0421 112.781 67.0421 112.619V112.585C67.0421 112.165 66.927 111.838 66.6969 111.605C66.4696 111.372 66.1245 111.256 65.6614 111.256C65.1813 111.256 64.8049 111.361 64.5321 111.571C64.2594 111.781 64.0676 112.006 63.9569 112.244L63.0023 111.903C63.1728 111.506 63.4 111.196 63.6841 110.974C63.9711 110.75 64.2836 110.594 64.6216 110.506C64.9625 110.415 65.2978 110.369 65.6273 110.369C65.8375 110.369 66.079 110.395 66.3517 110.446C66.6273 110.494 66.8929 110.595 67.1486 110.749C67.4071 110.902 67.6216 111.134 67.7921 111.443C67.9625 111.753 68.0478 112.168 68.0478 112.688V117H67.0421V116.114H66.9909C66.9228 116.256 66.8091 116.408 66.65 116.57C66.4909 116.732 66.2793 116.869 66.0151 116.983C65.7509 117.097 65.4284 117.153 65.0478 117.153ZM65.2012 116.25C65.5989 116.25 65.9341 116.172 66.2069 116.016C66.4824 115.859 66.6898 115.658 66.829 115.411C66.9711 115.163 67.0421 114.903 67.0421 114.631V113.71C66.9995 113.761 66.9057 113.808 66.7608 113.851C66.6188 113.891 66.454 113.926 66.2665 113.957C66.0819 113.986 65.9015 114.011 65.7253 114.034C65.552 114.054 65.4114 114.071 65.3034 114.085C65.0421 114.119 64.7978 114.175 64.5705 114.251C64.3461 114.325 64.1642 114.437 64.025 114.588C63.8887 114.736 63.8205 114.937 63.8205 115.193C63.8205 115.543 63.9498 115.807 64.2083 115.986C64.4696 116.162 64.8006 116.25 65.2012 116.25ZM77.8947 111.92L76.9913 112.176C76.9345 112.026 76.8507 111.879 76.7399 111.737C76.6319 111.592 76.4842 111.473 76.2967 111.379C76.1092 111.286 75.8691 111.239 75.5765 111.239C75.176 111.239 74.8422 111.331 74.5751 111.516C74.3109 111.697 74.1788 111.929 74.1788 112.21C74.1788 112.46 74.2697 112.658 74.4515 112.803C74.6333 112.947 74.9174 113.068 75.3038 113.165L76.2754 113.403C76.8606 113.545 77.2967 113.763 77.5836 114.055C77.8706 114.345 78.014 114.719 78.014 115.176C78.014 115.551 77.9061 115.886 77.6902 116.182C77.4771 116.477 77.1788 116.71 76.7953 116.881C76.4118 117.051 75.9657 117.136 75.4572 117.136C74.7896 117.136 74.237 116.991 73.7995 116.702C73.362 116.412 73.085 115.989 72.9686 115.432L73.9231 115.193C74.014 115.545 74.1859 115.81 74.4387 115.986C74.6944 116.162 75.0282 116.25 75.4402 116.25C75.9089 116.25 76.2811 116.151 76.5566 115.952C76.835 115.75 76.9743 115.509 76.9743 115.227C76.9743 115 76.8947 114.81 76.7356 114.656C76.5765 114.5 76.3322 114.384 76.0027 114.307L74.9118 114.051C74.3123 113.909 73.872 113.689 73.5907 113.391C73.3123 113.089 73.1731 112.713 73.1731 112.261C73.1731 111.892 73.2768 111.565 73.4842 111.281C73.6944 110.997 73.9799 110.774 74.3407 110.612C74.7044 110.45 75.1163 110.369 75.5765 110.369C76.2243 110.369 76.7328 110.511 77.1021 110.795C77.4743 111.08 77.7385 111.455 77.8947 111.92ZM82.2722 117.136C81.6415 117.136 81.0975 116.997 80.6401 116.719C80.1855 116.438 79.8347 116.045 79.5875 115.543C79.3432 115.037 79.2211 114.449 79.2211 113.778C79.2211 113.108 79.3432 112.517 79.5875 112.006C79.8347 111.491 80.1784 111.091 80.6188 110.804C81.062 110.514 81.579 110.369 82.1699 110.369C82.5108 110.369 82.8475 110.426 83.1799 110.54C83.5123 110.653 83.8148 110.838 84.0875 111.094C84.3603 111.347 84.5776 111.682 84.7395 112.099C84.9015 112.517 84.9824 113.031 84.9824 113.642V114.068H79.937V113.199H83.9597C83.9597 112.83 83.8858 112.5 83.7381 112.21C83.5932 111.92 83.3858 111.692 83.1159 111.524C82.8489 111.357 82.5336 111.273 82.1699 111.273C81.7694 111.273 81.4228 111.372 81.1301 111.571C80.8404 111.767 80.6174 112.023 80.4611 112.338C80.3049 112.653 80.2267 112.991 80.2267 113.352V113.932C80.2267 114.426 80.312 114.845 80.4824 115.189C80.6557 115.53 80.8958 115.79 81.2026 115.969C81.5094 116.145 81.8659 116.233 82.2722 116.233C82.5364 116.233 82.775 116.196 82.9881 116.122C83.204 116.045 83.3901 115.932 83.5463 115.781C83.7026 115.628 83.8233 115.437 83.9086 115.21L84.8801 115.483C84.7779 115.812 84.606 116.102 84.3645 116.352C84.123 116.599 83.8248 116.793 83.4696 116.932C83.1145 117.068 82.7154 117.136 82.2722 117.136ZM89.1713 117.136C88.5577 117.136 88.0293 116.991 87.5861 116.702C87.1429 116.412 86.802 116.013 86.5634 115.504C86.3248 114.996 86.2054 114.415 86.2054 113.761C86.2054 113.097 86.3276 112.51 86.5719 112.001C86.8191 111.49 87.1628 111.091 87.6032 110.804C88.0463 110.514 88.5634 110.369 89.1543 110.369C89.6145 110.369 90.0293 110.455 90.3986 110.625C90.7679 110.795 91.0705 111.034 91.3063 111.341C91.5421 111.648 91.6884 112.006 91.7452 112.415H90.7395C90.6628 112.116 90.4924 111.852 90.2282 111.622C89.9668 111.389 89.6145 111.273 89.1713 111.273C88.7793 111.273 88.4355 111.375 88.1401 111.58C87.8475 111.781 87.6188 112.067 87.454 112.436C87.2921 112.803 87.2111 113.233 87.2111 113.727C87.2111 114.233 87.2907 114.673 87.4498 115.048C87.6117 115.423 87.839 115.714 88.1316 115.922C88.427 116.129 88.7736 116.233 89.1713 116.233C89.4327 116.233 89.6699 116.188 89.883 116.097C90.0961 116.006 90.2765 115.875 90.4242 115.705C90.5719 115.534 90.677 115.33 90.7395 115.091H91.7452C91.6884 115.477 91.5478 115.825 91.3233 116.135C91.1017 116.442 90.8077 116.686 90.4412 116.868C90.0776 117.047 89.6543 117.136 89.1713 117.136ZM95.1415 117.153C94.7267 117.153 94.3503 117.075 94.0123 116.919C93.6742 116.76 93.4057 116.531 93.2069 116.233C93.008 115.932 92.9086 115.568 92.9086 115.142C92.9086 114.767 92.9824 114.463 93.1301 114.23C93.2779 113.994 93.4753 113.81 93.7225 113.676C93.9696 113.543 94.2424 113.443 94.5407 113.378C94.8418 113.31 95.1444 113.256 95.4483 113.216C95.8461 113.165 96.1685 113.126 96.4157 113.101C96.6657 113.072 96.8475 113.026 96.9611 112.96C97.0776 112.895 97.1358 112.781 97.1358 112.619V112.585C97.1358 112.165 97.0208 111.838 96.7907 111.605C96.5634 111.372 96.2182 111.256 95.7551 111.256C95.275 111.256 94.8986 111.361 94.6259 111.571C94.3532 111.781 94.1614 112.006 94.0506 112.244L93.0961 111.903C93.2665 111.506 93.4938 111.196 93.7779 110.974C94.0648 110.75 94.3773 110.594 94.7154 110.506C95.0563 110.415 95.3915 110.369 95.7211 110.369C95.9313 110.369 96.1728 110.395 96.4455 110.446C96.7211 110.494 96.9867 110.595 97.2424 110.749C97.5009 110.902 97.7154 111.134 97.8858 111.443C98.0563 111.753 98.1415 112.168 98.1415 112.688V117H97.1358V116.114H97.0847C97.0165 116.256 96.9029 116.408 96.7438 116.57C96.5847 116.732 96.373 116.869 96.1088 116.983C95.8446 117.097 95.5222 117.153 95.1415 117.153ZM95.2949 116.25C95.6926 116.25 96.0279 116.172 96.3006 116.016C96.5762 115.859 96.7836 115.658 96.9228 115.411C97.0648 115.163 97.1358 114.903 97.1358 114.631V113.71C97.0932 113.761 96.9995 113.808 96.8546 113.851C96.7125 113.891 96.5478 113.926 96.3603 113.957C96.1756 113.986 95.9952 114.011 95.8191 114.034C95.6458 114.054 95.5051 114.071 95.3972 114.085C95.1358 114.119 94.8915 114.175 94.6642 114.251C94.4398 114.325 94.258 114.437 94.1188 114.588C93.9824 114.736 93.9142 114.937 93.9142 115.193C93.9142 115.543 94.0435 115.807 94.302 115.986C94.5634 116.162 94.8944 116.25 95.2949 116.25ZM104 119.455C103.829 119.455 103.677 119.44 103.544 119.412C103.41 119.386 103.318 119.361 103.267 119.335L103.523 118.449C103.767 118.511 103.983 118.534 104.17 118.517C104.358 118.5 104.524 118.416 104.669 118.266C104.817 118.118 104.952 117.878 105.074 117.545L105.261 117.034L102.841 110.455H103.932L105.738 115.67H105.807L107.613 110.455H108.704L105.926 117.955C105.801 118.293 105.646 118.572 105.461 118.794C105.277 119.018 105.062 119.185 104.818 119.293C104.577 119.401 104.304 119.455 104 119.455ZM112.437 107.864L109.625 118.312H108.704L111.517 107.864H112.437ZM116.289 117.136C115.698 117.136 115.179 116.996 114.733 116.714C114.29 116.433 113.943 116.04 113.693 115.534C113.446 115.028 113.323 114.437 113.323 113.761C113.323 113.08 113.446 112.484 113.693 111.976C113.943 111.467 114.29 111.072 114.733 110.791C115.179 110.51 115.698 110.369 116.289 110.369C116.879 110.369 117.396 110.51 117.84 110.791C118.286 111.072 118.632 111.467 118.879 111.976C119.129 112.484 119.254 113.08 119.254 113.761C119.254 114.437 119.129 115.028 118.879 115.534C118.632 116.04 118.286 116.433 117.84 116.714C117.396 116.996 116.879 117.136 116.289 117.136ZM116.289 116.233C116.737 116.233 117.107 116.118 117.396 115.888C117.686 115.658 117.901 115.355 118.04 114.98C118.179 114.605 118.249 114.199 118.249 113.761C118.249 113.324 118.179 112.916 118.04 112.538C117.901 112.161 117.686 111.855 117.396 111.622C117.107 111.389 116.737 111.273 116.289 111.273C115.84 111.273 115.47 111.389 115.181 111.622C114.891 111.855 114.676 112.161 114.537 112.538C114.398 112.916 114.328 113.324 114.328 113.761C114.328 114.199 114.398 114.605 114.537 114.98C114.676 115.355 114.891 115.658 115.181 115.888C115.47 116.118 115.84 116.233 116.289 116.233ZM47.108 132V125.455H48.0795V126.443H48.1477C48.267 126.119 48.483 125.857 48.7955 125.655C49.108 125.453 49.4602 125.352 49.8523 125.352C49.9261 125.352 50.0185 125.354 50.1293 125.357C50.2401 125.359 50.3239 125.364 50.3807 125.369V126.392C50.3466 126.384 50.2685 126.371 50.1463 126.354C50.027 126.334 49.9006 126.324 49.767 126.324C49.4489 126.324 49.1648 126.391 48.9148 126.524C48.6676 126.655 48.4716 126.837 48.3267 127.07C48.1847 127.3 48.1136 127.562 48.1136 127.858V132H47.108ZM54.1179 132.136C53.4872 132.136 52.9432 131.997 52.4858 131.719C52.0312 131.438 51.6804 131.045 51.4332 130.543C51.1889 130.037 51.0668 129.449 51.0668 128.778C51.0668 128.108 51.1889 127.517 51.4332 127.006C51.6804 126.491 52.0241 126.091 52.4645 125.804C52.9077 125.514 53.4247 125.369 54.0156 125.369C54.3565 125.369 54.6932 125.426 55.0256 125.54C55.358 125.653 55.6605 125.838 55.9332 126.094C56.206 126.347 56.4233 126.682 56.5852 127.099C56.7472 127.517 56.8281 128.031 56.8281 128.642V129.068H51.7827V128.199H55.8054C55.8054 127.83 55.7315 127.5 55.5838 127.21C55.4389 126.92 55.2315 126.692 54.9616 126.524C54.6946 126.357 54.3793 126.273 54.0156 126.273C53.6151 126.273 53.2685 126.372 52.9759 126.571C52.6861 126.767 52.4631 127.023 52.3068 127.338C52.1506 127.653 52.0724 127.991 52.0724 128.352V128.932C52.0724 129.426 52.1577 129.845 52.3281 130.189C52.5014 130.53 52.7415 130.79 53.0483 130.969C53.3551 131.145 53.7116 131.233 54.1179 131.233C54.3821 131.233 54.6207 131.196 54.8338 131.122C55.0497 131.045 55.2358 130.932 55.392 130.781C55.5483 130.628 55.669 130.437 55.7543 130.21L56.7259 130.483C56.6236 130.812 56.4517 131.102 56.2102 131.352C55.9688 131.599 55.6705 131.793 55.3153 131.932C54.9602 132.068 54.5611 132.136 54.1179 132.136ZM61.2727 125.455V126.307H57.7443V125.455H61.2727ZM58.8011 132V124.551C58.8011 124.176 58.8892 123.864 59.0653 123.614C59.2415 123.364 59.4702 123.176 59.7514 123.051C60.0327 122.926 60.3295 122.864 60.642 122.864C60.8892 122.864 61.0909 122.884 61.2472 122.923C61.4034 122.963 61.5199 123 61.5966 123.034L61.3068 123.903C61.2557 123.886 61.1847 123.865 61.0938 123.839C61.0057 123.814 60.8892 123.801 60.7443 123.801C60.4119 123.801 60.1719 123.885 60.0241 124.053C59.8793 124.22 59.8068 124.466 59.8068 124.79V132H58.8011ZM62.6822 132V125.455H63.6538V126.443H63.7219C63.8413 126.119 64.0572 125.857 64.3697 125.655C64.6822 125.453 65.0344 125.352 65.4265 125.352C65.5004 125.352 65.5927 125.354 65.7035 125.357C65.8143 125.359 65.8981 125.364 65.9549 125.369V126.392C65.9208 126.384 65.8427 126.371 65.7205 126.354C65.6012 126.334 65.4748 126.324 65.3413 126.324C65.0231 126.324 64.739 126.391 64.489 126.524C64.2418 126.655 64.0458 126.837 63.9009 127.07C63.7589 127.3 63.6879 127.562 63.6879 127.858V132H62.6822ZM67.147 132V125.455H68.1527V132H67.147ZM67.6584 124.364C67.4624 124.364 67.2933 124.297 67.1513 124.163C67.0121 124.03 66.9425 123.869 66.9425 123.682C66.9425 123.494 67.0121 123.334 67.1513 123.2C67.2933 123.067 67.4624 123 67.6584 123C67.8544 123 68.022 123.067 68.1612 123.2C68.3033 123.334 68.3743 123.494 68.3743 123.682C68.3743 123.869 68.3033 124.03 68.1612 124.163C68.022 124.297 67.8544 124.364 67.6584 124.364ZM72.6367 134.591C72.1509 134.591 71.7333 134.528 71.3839 134.403C71.0344 134.281 70.7433 134.119 70.5103 133.918C70.2802 133.719 70.0969 133.506 69.9606 133.278L70.7617 132.716C70.8526 132.835 70.9677 132.972 71.1069 133.125C71.2461 133.281 71.4364 133.416 71.6779 133.53C71.9222 133.646 72.2418 133.705 72.6367 133.705C73.1651 133.705 73.6012 133.577 73.945 133.321C74.2887 133.065 74.4606 132.665 74.4606 132.119V130.79H74.3754C74.3015 130.909 74.1964 131.057 74.06 131.233C73.9265 131.406 73.7333 131.561 73.4805 131.697C73.2305 131.831 72.8924 131.898 72.4663 131.898C71.9379 131.898 71.4634 131.773 71.043 131.523C70.6254 131.273 70.2944 130.909 70.0501 130.432C69.8086 129.955 69.6879 129.375 69.6879 128.693C69.6879 128.023 69.8058 127.439 70.0415 126.942C70.2773 126.442 70.6055 126.055 71.0259 125.783C71.4464 125.507 71.9322 125.369 72.4833 125.369C72.9094 125.369 73.2475 125.44 73.4975 125.582C73.7504 125.722 73.9435 125.881 74.0771 126.06C74.2134 126.236 74.3185 126.381 74.3924 126.494H74.4947V125.455H75.4663V132.188C75.4663 132.75 75.3384 133.207 75.0827 133.56C74.8299 133.915 74.489 134.175 74.06 134.339C73.6339 134.507 73.1594 134.591 72.6367 134.591ZM72.6026 130.994C73.006 130.994 73.3469 130.902 73.6254 130.717C73.9038 130.533 74.1154 130.267 74.2603 129.92C74.4052 129.574 74.4776 129.159 74.4776 128.676C74.4776 128.205 74.4066 127.788 74.2646 127.428C74.1225 127.067 73.9123 126.784 73.6339 126.58C73.3555 126.375 73.0117 126.273 72.6026 126.273C72.1765 126.273 71.8214 126.381 71.5373 126.597C71.256 126.812 71.0444 127.102 70.9023 127.466C70.7631 127.83 70.6935 128.233 70.6935 128.676C70.6935 129.131 70.7646 129.533 70.9066 129.882C71.0515 130.229 71.2646 130.501 71.5458 130.7C71.8299 130.896 72.1822 130.994 72.6026 130.994ZM80.0515 132.136C79.4208 132.136 78.8768 131.997 78.4194 131.719C77.9648 131.438 77.614 131.045 77.3668 130.543C77.1225 130.037 77.0004 129.449 77.0004 128.778C77.0004 128.108 77.1225 127.517 77.3668 127.006C77.614 126.491 77.9577 126.091 78.3981 125.804C78.8413 125.514 79.3583 125.369 79.9492 125.369C80.2901 125.369 80.6268 125.426 80.9592 125.54C81.2915 125.653 81.5941 125.838 81.8668 126.094C82.1396 126.347 82.3569 126.682 82.5188 127.099C82.6808 127.517 82.7617 128.031 82.7617 128.642V129.068H77.7163V128.199H81.739C81.739 127.83 81.6651 127.5 81.5174 127.21C81.3725 126.92 81.1651 126.692 80.8952 126.524C80.6282 126.357 80.3129 126.273 79.9492 126.273C79.5487 126.273 79.2021 126.372 78.9094 126.571C78.6197 126.767 78.3967 127.023 78.2404 127.338C78.0842 127.653 78.006 127.991 78.006 128.352V128.932C78.006 129.426 78.0913 129.845 78.2617 130.189C78.435 130.53 78.6751 130.79 78.9819 130.969C79.2887 131.145 79.6452 131.233 80.0515 131.233C80.3157 131.233 80.5543 131.196 80.7674 131.122C80.9833 131.045 81.1694 130.932 81.3256 130.781C81.4819 130.628 81.6026 130.437 81.6879 130.21L82.6594 130.483C82.5572 130.812 82.3853 131.102 82.1438 131.352C81.9023 131.599 81.604 131.793 81.2489 131.932C80.8938 132.068 80.4947 132.136 80.0515 132.136ZM84.2915 132V125.455H85.2631V126.443H85.3313C85.4506 126.119 85.6665 125.857 85.979 125.655C86.2915 125.453 86.6438 125.352 87.0359 125.352C87.1097 125.352 87.2021 125.354 87.3129 125.357C87.4237 125.359 87.5075 125.364 87.5643 125.369V126.392C87.5302 126.384 87.4521 126.371 87.3299 126.354C87.2106 126.334 87.0842 126.324 86.9506 126.324C86.6325 126.324 86.3484 126.391 86.0984 126.524C85.8512 126.655 85.6552 126.837 85.5103 127.07C85.3683 127.3 85.2972 127.562 85.2972 127.858V132H84.2915ZM90.6825 132.153C90.2678 132.153 89.8913 132.075 89.5533 131.919C89.2152 131.76 88.9467 131.531 88.7479 131.233C88.549 130.932 88.4496 130.568 88.4496 130.142C88.4496 129.767 88.5234 129.463 88.6712 129.23C88.8189 128.994 89.0163 128.81 89.2635 128.676C89.5107 128.543 89.7834 128.443 90.0817 128.378C90.3828 128.31 90.6854 128.256 90.9893 128.216C91.3871 128.165 91.7095 128.126 91.9567 128.101C92.2067 128.072 92.3885 128.026 92.5021 127.96C92.6186 127.895 92.6768 127.781 92.6768 127.619V127.585C92.6768 127.165 92.5618 126.838 92.3317 126.605C92.1044 126.372 91.7592 126.256 91.2962 126.256C90.8161 126.256 90.4396 126.361 90.1669 126.571C89.8942 126.781 89.7024 127.006 89.5916 127.244L88.6371 126.903C88.8075 126.506 89.0348 126.196 89.3189 125.974C89.6058 125.75 89.9183 125.594 90.2564 125.506C90.5973 125.415 90.9325 125.369 91.2621 125.369C91.4723 125.369 91.7138 125.395 91.9865 125.446C92.2621 125.494 92.5277 125.595 92.7834 125.749C93.0419 125.902 93.2564 126.134 93.4268 126.443C93.5973 126.753 93.6825 127.168 93.6825 127.688V132H92.6768V131.114H92.6257C92.5575 131.256 92.4439 131.408 92.2848 131.57C92.1257 131.732 91.9141 131.869 91.6499 131.983C91.3857 132.097 91.0632 132.153 90.6825 132.153ZM90.8359 131.25C91.2337 131.25 91.5689 131.172 91.8416 131.016C92.1172 130.859 92.3246 130.658 92.4638 130.411C92.6058 130.163 92.6768 129.903 92.6768 129.631V128.71C92.6342 128.761 92.5405 128.808 92.3956 128.851C92.2536 128.891 92.0888 128.926 91.9013 128.957C91.7166 128.986 91.5362 129.011 91.3601 129.034C91.1868 129.054 91.0462 129.071 90.9382 129.085C90.6768 129.119 90.4325 129.175 90.2053 129.251C89.9808 129.325 89.799 129.437 89.6598 129.588C89.5234 129.736 89.4553 129.937 89.4553 130.193C89.4553 130.543 89.5845 130.807 89.843 130.986C90.1044 131.162 90.4354 131.25 90.8359 131.25ZM97.9897 132.136C97.4442 132.136 96.9627 131.999 96.5451 131.723C96.1275 131.445 95.8008 131.053 95.565 130.547C95.3292 130.038 95.2113 129.438 95.2113 128.744C95.2113 128.057 95.3292 127.46 95.565 126.955C95.8008 126.449 96.1289 126.058 96.5494 125.783C96.9698 125.507 97.4556 125.369 98.0067 125.369C98.4329 125.369 98.7695 125.44 99.0167 125.582C99.2667 125.722 99.457 125.881 99.5877 126.06C99.7212 126.236 99.8249 126.381 99.8988 126.494H99.984V123.273H100.99V132H100.018V130.994H99.8988C99.8249 131.114 99.7198 131.264 99.5835 131.446C99.4471 131.625 99.2525 131.786 98.9996 131.928C98.7468 132.067 98.4102 132.136 97.9897 132.136ZM98.1261 131.233C98.5295 131.233 98.8704 131.128 99.1488 130.918C99.4272 130.705 99.6388 130.411 99.7837 130.036C99.9286 129.658 100.001 129.222 100.001 128.727C100.001 128.239 99.93 127.811 99.788 127.445C99.646 127.075 99.4357 126.788 99.1573 126.584C98.8789 126.376 98.5352 126.273 98.1261 126.273C97.6999 126.273 97.3448 126.382 97.0607 126.601C96.7795 126.817 96.5678 127.111 96.4258 127.483C96.2866 127.852 96.217 128.267 96.217 128.727C96.217 129.193 96.288 129.616 96.43 129.997C96.5749 130.375 96.788 130.676 97.0692 130.901C97.3533 131.122 97.7056 131.233 98.1261 131.233ZM104.897 132.153C104.483 132.153 104.106 132.075 103.768 131.919C103.43 131.76 103.162 131.531 102.963 131.233C102.764 130.932 102.664 130.568 102.664 130.142C102.664 129.767 102.738 129.463 102.886 129.23C103.034 128.994 103.231 128.81 103.478 128.676C103.725 128.543 103.998 128.443 104.297 128.378C104.598 128.31 104.9 128.256 105.204 128.216C105.602 128.165 105.924 128.126 106.172 128.101C106.422 128.072 106.603 128.026 106.717 127.96C106.833 127.895 106.892 127.781 106.892 127.619V127.585C106.892 127.165 106.777 126.838 106.547 126.605C106.319 126.372 105.974 126.256 105.511 126.256C105.031 126.256 104.654 126.361 104.382 126.571C104.109 126.781 103.917 127.006 103.806 127.244L102.852 126.903C103.022 126.506 103.25 126.196 103.534 125.974C103.821 125.75 104.133 125.594 104.471 125.506C104.812 125.415 105.147 125.369 105.477 125.369C105.687 125.369 105.929 125.395 106.201 125.446C106.477 125.494 106.743 125.595 106.998 125.749C107.257 125.902 107.471 126.134 107.642 126.443C107.812 126.753 107.897 127.168 107.897 127.688V132H106.892V131.114H106.841C106.772 131.256 106.659 131.408 106.5 131.57C106.341 131.732 106.129 131.869 105.865 131.983C105.6 132.097 105.278 132.153 104.897 132.153ZM105.051 131.25C105.449 131.25 105.784 131.172 106.056 131.016C106.332 130.859 106.539 130.658 106.679 130.411C106.821 130.163 106.892 129.903 106.892 129.631V128.71C106.849 128.761 106.755 128.808 106.61 128.851C106.468 128.891 106.304 128.926 106.116 128.957C105.931 128.986 105.751 129.011 105.575 129.034C105.402 129.054 105.261 129.071 105.153 129.085C104.892 129.119 104.647 129.175 104.42 129.251C104.196 129.325 104.014 129.437 103.875 129.588C103.738 129.736 103.67 129.937 103.67 130.193C103.67 130.543 103.799 130.807 104.058 130.986C104.319 131.162 104.65 131.25 105.051 131.25Z" fill="black"/>
<g clip-path="url(#clip0_29_657)">
<path d="M74.373 39.0809C74.5611 38.8136 74.6733 38.642 74.7987 38.4803C75.4389 37.6388 76.089 36.8039 76.7259 35.9591C77.1615 35.3849 77.1351 34.715 76.6797 34.3784C76.2243 34.0385 75.6039 34.2002 75.1452 34.781C75.1188 34.814 75.0957 34.8503 75.0693 34.8833C73.944 36.365 72.8319 37.8599 71.6835 39.3218C71.2776 39.8399 71.2611 40.2887 71.6571 40.8035C72.8418 42.3479 74.01 43.9055 75.1914 45.4466C75.6039 45.9845 76.2507 46.1165 76.6863 45.7865C77.1219 45.4532 77.1648 44.8031 76.7556 44.2553C76.0692 43.3412 75.3696 42.4403 74.6799 41.5295C74.5875 41.4107 74.5215 41.2721 74.406 41.0807C75.8943 41.0807 77.2902 41.0675 78.6861 41.0939C78.8841 41.0972 79.1151 41.2457 79.2669 41.3909C79.9104 42.0047 80.5209 42.6515 81.1611 43.2686C81.6528 43.7438 82.2006 43.7471 82.6131 43.3148C82.9959 42.9122 82.9926 42.3578 82.5372 41.9024C81.9432 41.3117 81.3096 40.7573 80.6166 40.1171C81.3129 39.4538 81.8871 38.9258 82.4415 38.378C82.986 37.8368 83.0289 37.2527 82.5834 36.827C82.1379 36.398 81.6297 36.4442 81.0819 36.9788C80.478 37.5695 79.8906 38.18 79.2834 38.7707C79.1547 38.8961 78.9831 39.0677 78.828 39.0677C77.3793 39.0908 75.9306 39.0809 74.3763 39.0809H74.373ZM58.2492 41.0807C57.3978 42.1961 56.6388 43.1828 55.8897 44.1761C55.4145 44.8031 55.431 45.4532 55.9128 45.7997C56.3715 46.1264 56.9952 45.9647 57.444 45.3773C58.5858 43.8824 59.7177 42.3776 60.8694 40.886C61.2786 40.358 61.3017 39.8597 60.8991 39.3284C59.7177 37.7807 58.5495 36.2264 57.3615 34.6853C56.9688 34.1738 56.3385 34.0583 55.9128 34.3718C55.4607 34.7051 55.4079 35.3486 55.8204 35.8964C56.4804 36.7775 57.1569 37.6421 57.8235 38.5199C57.9423 38.675 58.0446 38.8433 58.2129 39.0875C57.5595 39.0875 57.0348 39.0875 56.5068 39.0875C55.5564 39.0809 54.5004 39.3251 53.682 38.9885C52.8669 38.6552 52.2894 37.7378 51.6096 37.0778C51.5799 37.0481 51.5502 37.0184 51.5205 36.9887C50.9463 36.4376 50.4183 36.3914 49.9761 36.86C49.5636 37.2956 49.6098 37.8335 50.1411 38.3615C50.7054 38.9258 51.2928 39.4703 51.9495 40.0973C51.2664 40.7474 50.6559 41.3018 50.0784 41.8859C49.5966 42.3743 49.5834 42.9287 50.0025 43.3379C50.4249 43.7537 50.9562 43.7306 51.4578 43.2455C52.0815 42.6416 52.6788 42.0113 53.3058 41.414C53.4609 41.2655 53.6853 41.1005 53.88 41.0972C55.2924 41.0708 56.7048 41.084 58.2624 41.084L58.2492 41.0807ZM67.2285 32.0024C67.2285 31.4711 67.2285 31.0751 67.2285 30.6824C67.2351 29.6264 66.9678 28.4615 67.3275 27.5408C67.6641 26.6729 68.664 26.0591 69.3636 25.3298C69.8751 24.7985 69.9114 24.2573 69.4791 23.8283C69.0501 23.4059 68.5023 23.4422 67.9809 23.9669C67.4166 24.5345 66.8787 25.1252 66.2352 25.805C65.6049 25.1318 65.067 24.5378 64.506 23.9669C63.9912 23.4455 63.4302 23.4059 63.0045 23.8217C62.559 24.2573 62.5953 24.782 63.1101 25.3265C63.8196 26.0756 64.8129 26.7125 65.1594 27.6002C65.5191 28.5209 65.2485 29.6858 65.2551 30.7418C65.2551 30.9959 65.2617 31.25 65.2551 31.5041C65.2485 31.6559 65.2155 31.8077 65.1825 32.0387C64.1034 31.2137 63.1002 30.4415 62.0904 29.6792C61.5426 29.2667 60.9024 29.2931 60.5559 29.7221C60.1929 30.1742 60.3381 30.821 60.9189 31.2533C62.427 32.3786 63.9417 33.494 65.4597 34.6094C66.1032 35.0813 66.4134 35.0813 67.0503 34.5995C68.5518 33.4643 70.05 32.3258 71.5449 31.184C72.129 30.7385 72.2907 30.1115 71.9574 29.6528C71.6043 29.1644 70.9707 29.1545 70.3371 29.6363C69.3438 30.3887 68.3538 31.1477 67.2351 32.0024H67.2285ZM67.2285 48.0734C68.3769 48.9512 69.3933 49.7366 70.4229 50.5121C70.9641 50.918 71.6241 50.8652 71.9508 50.423C72.2643 49.9973 72.1455 49.3637 71.6373 48.971C69.9972 47.7071 68.3538 46.4432 66.6807 45.2189C66.4926 45.0836 66.0306 45.0902 65.8425 45.2288C64.1925 46.4465 62.5722 47.7038 60.9519 48.9611C60.447 49.3538 60.3183 49.9808 60.6219 50.4098C60.942 50.8619 61.6086 50.9213 62.1465 50.5187C63.0606 49.8356 63.9648 49.136 64.8723 48.4463C64.9944 48.3539 65.133 48.2813 65.3409 48.1526C65.3409 49.5188 65.3244 50.786 65.3508 52.0532C65.3607 52.5119 65.2518 52.8485 64.8954 53.1554C64.2882 53.6801 63.7206 54.2543 63.1464 54.8153C62.6019 55.3499 62.5458 55.8614 62.9649 56.3135C63.3873 56.7656 63.9747 56.7293 64.5126 56.1914C65.0769 55.6271 65.6247 55.0463 66.2418 54.4061C66.8457 55.0397 67.3605 55.5974 67.8951 56.1353C68.4792 56.726 69.0468 56.7821 69.489 56.3234C69.9213 55.8779 69.8553 55.3466 69.2943 54.779C68.7003 54.1784 68.0898 53.5877 67.5057 52.9772C67.3737 52.8386 67.2351 52.6274 67.2318 52.4492C67.2087 51.0368 67.2186 49.6244 67.2186 48.0701L67.2285 48.0734Z" fill="#424242"/>
<path d="M109.406 79.5785C109.096 80.0834 108.63 80.2187 108.06 80.2121C106.535 80.189 105.01 80.2055 103.486 80.2055C103.281 80.2055 103.073 80.2055 102.803 80.2055C102.921 82.862 102.08 85.0763 100.083 86.7956C98.4268 88.2212 96.4699 88.6502 94.3414 88.4753C92.2558 88.3037 90.6124 87.3071 89.3122 85.7297C88.0153 84.1556 87.5368 82.301 87.6391 80.2517H70.8982C70.9741 83.0138 70.0534 85.3304 67.8259 87.0629C66.1231 88.3862 64.1695 88.6106 62.1169 88.472C58.5727 88.2377 55.9987 84.9773 55.6522 80.2088H54.9922C51.9001 80.2088 48.8113 80.2088 45.7192 80.2088C44.65 80.2088 44.3662 79.9217 44.3662 78.8558C44.3662 63.953 44.3662 49.0502 44.3662 34.1441C44.3662 33.065 44.6269 32.8043 45.7192 32.8043C48.1744 32.8043 50.6296 32.7977 53.0848 32.8076C53.8603 32.8076 54.253 33.197 54.2101 33.8537C54.1705 34.4378 53.8108 34.748 53.1277 34.7513C51.118 34.7579 49.105 34.7513 47.0953 34.7546C46.8676 34.7546 46.6432 34.7546 46.3759 34.7546V60.4451H85.801V34.781C85.5766 34.7711 85.3522 34.7513 85.1278 34.7513C83.2633 34.7513 81.4021 34.7513 79.5376 34.7513C78.7489 34.7513 78.3958 34.451 78.3793 33.8075C78.3628 33.1343 78.7258 32.8043 79.5409 32.801C81.9103 32.7944 84.283 32.7911 86.6524 32.801C87.5236 32.801 87.8107 33.1112 87.814 34.0055C87.8173 36.5894 87.814 39.17 87.814 41.7539C87.814 41.9816 87.814 42.2126 87.814 42.503C88.1077 42.5162 88.3552 42.536 88.5994 42.536C91.4374 42.536 94.2721 42.5624 97.1101 42.5294C99.4168 42.503 101.113 43.4468 102.291 45.4466C104.192 48.6707 106.172 51.8486 108.076 55.0727C108.597 55.9538 108.967 56.924 109.406 57.8513V79.5752V79.5785ZM46.366 78.1595C46.5046 78.1859 46.564 78.209 46.6234 78.209C49.6495 78.209 52.6789 78.2057 55.705 78.2255C56.1076 78.2255 56.1769 77.9813 56.3122 77.714C57.7345 74.8991 60.0577 73.4174 63.1795 73.4141C66.3013 73.4141 68.6344 74.8859 70.0435 77.7074C70.2316 78.0803 70.4197 78.2255 70.8487 78.2222C76.3729 78.2057 81.9004 78.2057 87.4246 78.2222C87.8701 78.2222 88.0714 78.077 88.2694 77.6777C89.629 74.9552 91.8829 73.4999 94.8958 73.4108C97.8559 73.325 100.225 74.5757 101.671 77.1926C102.143 78.0473 102.621 78.2816 103.512 78.2288C104.793 78.1562 106.08 78.209 107.393 78.209V69.7016H46.366V78.1529V78.1595ZM87.8569 44.5292V67.6292H107.386C107.403 67.4906 107.429 67.3916 107.429 67.2893C107.429 64.4315 107.456 61.5737 107.409 58.7159C107.4 58.1483 107.251 57.5114 106.964 57.0263C104.766 53.3402 102.522 49.6772 100.278 46.0175C99.7237 45.1133 98.8657 44.5589 97.8163 44.5424C94.5163 44.4962 91.2163 44.5259 87.8602 44.5259L87.8569 44.5292ZM85.8208 62.4845H46.3858V67.6358H85.8241V62.4845H85.8208ZM95.0443 86.4887C98.1298 86.5415 100.671 84.0764 100.737 80.9645C100.803 77.9087 98.2816 75.3116 95.206 75.2654C92.0479 75.2225 89.5366 77.6612 89.4904 80.8193C89.4442 83.8982 91.9291 86.4359 95.041 86.4887H95.0443ZM57.6817 80.882C57.685 84.0005 60.1732 86.4887 63.2851 86.492C66.3541 86.492 68.8852 83.951 68.8918 80.8589C68.8984 77.7602 66.3739 75.2522 63.2653 75.2687C60.1204 75.2852 57.6817 77.7404 57.685 80.8853L57.6817 80.882Z" fill="#424242"/>
<path d="M74.3731 39.0809C75.9274 39.0809 77.3761 39.0908 78.8248 39.0677C78.9799 39.0677 79.1515 38.8961 79.2802 38.7707C79.8841 38.18 80.4748 37.5728 81.0787 36.9788C81.6265 36.4442 82.1347 36.398 82.5802 36.827C83.0257 37.2527 82.9828 37.8368 82.4383 38.378C81.8872 38.9291 81.3097 39.4571 80.6134 40.1171C81.3064 40.7573 81.94 41.3084 82.534 41.9024C82.9894 42.3578 82.9927 42.9122 82.6099 43.3148C82.1974 43.7471 81.6496 43.7438 81.1579 43.2686C80.5177 42.6515 79.9072 42.0047 79.2637 41.3909C79.1119 41.2457 78.8809 41.0972 78.6829 41.0939C77.287 41.0675 75.8944 41.0807 74.4028 41.0807C74.5183 41.2721 74.5843 41.4107 74.6767 41.5295C75.3664 42.4403 76.0693 43.3412 76.7524 44.2553C77.1616 44.8031 77.122 45.4532 76.6831 45.7865C76.2508 46.1198 75.604 45.9878 75.1882 45.4466C74.0035 43.9022 72.8386 42.3446 71.6539 40.8035C71.2579 40.2887 71.2744 39.8399 71.6803 39.3218C72.8287 37.8566 73.9408 36.365 75.0661 34.8833C75.0925 34.8503 75.1156 34.814 75.142 34.781C75.5974 34.2035 76.2178 34.0418 76.6765 34.3784C77.1319 34.7183 77.1583 35.3849 76.7227 35.9591C76.0858 36.8039 75.4357 37.6388 74.7955 38.4803C74.6734 38.642 74.5579 38.8136 74.3698 39.0809H74.3731Z" fill="#424242"/>
<path d="M58.2496 41.0807C56.692 41.0807 55.2796 41.0675 53.8672 41.0939C53.6725 41.0972 53.4481 41.2622 53.293 41.4107C52.666 42.0113 52.0687 42.6383 51.445 43.2422C50.9467 43.7273 50.4121 43.7504 49.9897 43.3346C49.5739 42.9221 49.5838 42.3677 50.0656 41.8826C50.6431 41.2985 51.2536 40.7474 51.9367 40.094C51.28 39.467 50.6959 38.9225 50.1283 38.3582C49.6003 37.8302 49.5508 37.2923 49.9633 36.8567C50.4055 36.3914 50.9368 36.4343 51.5077 36.9854C51.5374 37.0151 51.5671 37.0448 51.5968 37.0745C52.2766 37.7345 52.8541 38.6519 53.6692 38.9852C54.4876 39.3218 55.5436 39.0776 56.494 39.0842C57.022 39.0875 57.5467 39.0842 58.2001 39.0842C58.0318 38.8367 57.9295 38.6717 57.8107 38.5166C57.1441 37.6421 56.4676 36.7742 55.8076 35.8931C55.3984 35.3453 55.4479 34.7018 55.9 34.3685C56.3257 34.055 56.956 34.1738 57.3487 34.682C58.5367 36.2231 59.7049 37.7774 60.8863 39.3251C61.2922 39.8564 61.2658 40.3547 60.8566 40.8827C59.7049 42.371 58.5763 43.8791 57.4312 45.374C56.9857 45.9581 56.362 46.1231 55.9 45.7964C55.4149 45.4499 55.4017 44.7998 55.8769 44.1728C56.6293 43.1795 57.385 42.1928 58.2364 41.0774L58.2496 41.0807Z" fill="#424242"/>
<path d="M67.2287 31.9991C68.3474 31.1444 69.3374 30.3854 70.3307 29.633C70.9676 29.1512 71.5979 29.1644 71.951 29.6495C72.2843 30.1082 72.1226 30.7352 71.5385 31.1807C70.0436 32.3225 68.5454 33.461 67.0439 34.5962C66.407 35.078 66.0968 35.078 65.4533 34.6061C63.9353 33.4907 62.4239 32.3753 60.9125 31.25C60.3317 30.8177 60.1865 30.1676 60.5495 29.7188C60.896 29.2898 61.5362 29.2601 62.084 29.6759C63.0938 30.4382 64.097 31.2104 65.1761 32.0354C65.2091 31.8044 65.2421 31.6526 65.2487 31.5008C65.2586 31.2467 65.252 30.9926 65.2487 30.7385C65.2421 29.6825 65.5127 28.5176 65.153 27.5969C64.8065 26.7092 63.8132 26.0723 63.1037 25.3232C62.5889 24.7787 62.5559 24.254 62.9981 23.8184C63.4238 23.4026 63.9881 23.4422 64.4996 23.9636C65.0606 24.5345 65.5985 25.1285 66.2288 25.8017C66.8723 25.1219 67.4135 24.5279 67.9745 23.9636C68.4959 23.4389 69.047 23.4026 69.4727 23.825C69.905 24.2507 69.8687 24.7952 69.3572 25.3265C68.6543 26.0558 67.6577 26.6663 67.3211 27.5375C66.9614 28.4582 67.2287 29.6198 67.2221 30.6791C67.2221 31.0751 67.2221 31.4678 67.2221 31.9991H67.2287Z" fill="#424242"/>
<path d="M67.2287 48.0701C67.2287 49.6244 67.2188 51.0368 67.2419 52.4492C67.2419 52.6274 67.3805 52.8386 67.5158 52.9772C68.0999 53.5877 68.7104 54.1751 69.3044 54.779C69.8687 55.3499 69.9314 55.8779 69.4991 56.3234C69.0569 56.7821 68.4893 56.726 67.9052 56.1353C67.3706 55.5974 66.8525 55.0397 66.2519 54.4061C65.6348 55.0463 65.087 55.6271 64.5227 56.1914C63.9848 56.7293 63.3941 56.7656 62.975 56.3135C62.5559 55.8614 62.6087 55.3499 63.1565 54.8153C63.7307 54.2543 64.2983 53.6801 64.9055 53.1554C65.2619 52.8452 65.3708 52.5086 65.3609 52.0532C65.3345 50.7893 65.351 49.5221 65.351 48.1526C65.1431 48.2813 65.0045 48.3539 64.8824 48.4463C63.9716 49.136 63.0707 49.8356 62.1566 50.5187C61.6187 50.9213 60.9521 50.8619 60.632 50.4098C60.3251 49.9808 60.4538 49.3538 60.962 48.9611C62.5823 47.7071 64.2026 46.4465 65.8526 45.2288C66.0407 45.0902 66.506 45.0803 66.6908 45.2189C68.3639 46.4432 70.0073 47.7038 71.6474 48.971C72.1556 49.3637 72.2744 49.9973 71.9609 50.423C71.6342 50.8685 70.9742 50.918 70.433 50.5121C69.4034 49.7399 68.3837 48.9512 67.2386 48.0734L67.2287 48.0701Z" fill="#424242"/>
<path d="M66.3937 44.5193C63.8659 44.5028 61.8958 42.5525 61.9024 40.0676C61.909 37.6223 63.922 35.6291 66.364 35.6456C68.8159 35.6621 70.7926 37.6652 70.7761 40.1171C70.7596 42.5822 68.8159 44.5325 66.3904 44.5193H66.3937ZM63.79 40.0808C63.79 41.4734 64.813 42.5558 66.1363 42.5525C67.6048 42.5525 68.7169 41.4767 68.707 40.0709C68.7004 38.6981 67.618 37.6355 66.2386 37.6355C64.8493 37.6355 63.7933 38.6915 63.79 40.0808Z" fill="#424242"/>
<path d="M97.3842 58.7225C95.8827 58.7225 94.3812 58.7225 92.883 58.7225C91.7973 58.7225 91.3716 58.31 91.3716 57.2441C91.3683 54.5579 91.3683 51.875 91.3716 49.1888C91.3716 48.2846 91.6884 47.9678 92.5893 47.9579C93.6453 47.948 94.7046 47.9513 95.7606 47.9579C96.8133 47.9645 97.6416 48.4067 98.2026 49.301C99.8526 51.9311 101.496 54.5645 103.13 57.2045C103.598 57.9602 103.116 58.706 102.14 58.7159C100.556 58.7324 98.9682 58.7192 97.3842 58.7225ZM100.384 56.6006C100.4 56.5115 100.414 56.4851 100.407 56.4719C99.153 54.4193 97.9023 52.3634 96.6351 50.3174C96.5361 50.159 96.3117 49.9907 96.1401 49.9841C95.2623 49.9511 94.3812 49.9676 93.4869 49.9676V56.6006H100.387H100.384Z" fill="#424242"/>
<path d="M63.3149 77.2883C61.1699 77.2883 59.5034 79.0142 59.5034 81.0998C59.5034 83.1854 61.2293 84.9113 63.3149 84.9113C65.4005 84.9113 67.067 83.1854 67.067 81.0998C67.067 79.0142 65.4005 77.2883 63.3149 77.2883ZM63.3215 83.0501C62.2787 83.0501 61.4108 82.1855 61.4108 81.1394C61.4108 80.0933 62.2457 79.2287 63.3215 79.2287C64.3973 79.2287 65.2025 80.0636 65.2025 81.1394C65.2025 82.2152 64.3676 83.0501 63.3215 83.0501Z" fill="#424242"/>
<path d="M95.147 77.0672C93.002 77.0672 91.3354 78.7931 91.3354 80.8787C91.3354 82.9643 93.0614 84.6902 95.147 84.6902C97.2326 84.6902 98.899 82.9643 98.899 80.8787C98.899 78.7931 97.2326 77.0672 95.147 77.0672ZM95.1535 82.829C94.1107 82.829 93.2428 81.9644 93.2428 80.9183C93.2428 79.8722 94.0777 79.0076 95.1535 79.0076C96.2293 79.0076 97.0346 79.8425 97.0346 80.9183C97.0346 81.9941 96.1996 82.829 95.1535 82.829Z" fill="#424242"/>
</g>
<defs>
<clipPath id="clip0_29_657">
<rect width="66" height="66" fill="white" transform="translate(44 23)"/>
</clipPath>
</defs>
</svg>
