<svg width="153" height="151" viewBox="0 0 153 151" fill="none" xmlns="http://www.w3.org/2000/svg">
<path d="M46.2045 111H45.1477C45.0852 110.696 44.9759 110.429 44.8196 110.199C44.6662 109.969 44.4787 109.776 44.2571 109.619C44.0384 109.46 43.7955 109.341 43.5284 109.261C43.2614 109.182 42.983 109.142 42.6932 109.142C42.1648 109.142 41.6861 109.276 41.2571 109.543C40.831 109.81 40.4915 110.203 40.2386 110.723C39.9886 111.243 39.8636 111.881 39.8636 112.636C39.8636 113.392 39.9886 114.03 40.2386 114.55C40.4915 115.07 40.831 115.463 41.2571 115.73C41.6861 115.997 42.1648 116.131 42.6932 116.131C42.983 116.131 43.2614 116.091 43.5284 116.011C43.7955 115.932 44.0384 115.814 44.2571 115.658C44.4787 115.499 44.6662 115.304 44.8196 115.074C44.9759 114.841 45.0852 114.574 45.1477 114.273H46.2045C46.125 114.719 45.9801 115.118 45.7699 115.47C45.5597 115.822 45.2983 116.122 44.9858 116.369C44.6733 116.614 44.3224 116.8 43.9332 116.928C43.5469 117.055 43.1335 117.119 42.6932 117.119C41.9489 117.119 41.2869 116.938 40.7074 116.574C40.1278 116.21 39.6719 115.693 39.3395 115.023C39.0071 114.352 38.8409 113.557 38.8409 112.636C38.8409 111.716 39.0071 110.92 39.3395 110.25C39.6719 109.58 40.1278 109.062 40.7074 108.699C41.2869 108.335 41.9489 108.153 42.6932 108.153C43.1335 108.153 43.5469 108.217 43.9332 108.345C44.3224 108.473 44.6733 108.661 44.9858 108.908C45.2983 109.152 45.5597 109.45 45.7699 109.803C45.9801 110.152 46.125 110.551 46.2045 111ZM49.7021 117.153C49.2873 117.153 48.9109 117.075 48.5728 116.919C48.2347 116.76 47.9663 116.531 47.7674 116.233C47.5685 115.932 47.4691 115.568 47.4691 115.142C47.4691 114.767 47.543 114.463 47.6907 114.23C47.8384 113.994 48.0359 113.81 48.283 113.676C48.5302 113.543 48.8029 113.443 49.1012 113.378C49.4023 113.31 49.7049 113.256 50.0089 113.216C50.4066 113.165 50.729 113.126 50.9762 113.101C51.2262 113.072 51.408 113.026 51.5217 112.96C51.6381 112.895 51.6964 112.781 51.6964 112.619V112.585C51.6964 112.165 51.5813 111.838 51.3512 111.605C51.1239 111.372 50.7788 111.256 50.3157 111.256C49.8356 111.256 49.4592 111.361 49.1864 111.571C48.9137 111.781 48.7219 112.006 48.6112 112.244L47.6566 111.903C47.8271 111.506 48.0543 111.196 48.3384 110.974C48.6254 110.75 48.9379 110.594 49.2759 110.506C49.6168 110.415 49.9521 110.369 50.2816 110.369C50.4918 110.369 50.7333 110.395 51.006 110.446C51.2816 110.494 51.5472 110.595 51.8029 110.749C52.0614 110.902 52.2759 111.134 52.4464 111.443C52.6168 111.753 52.7021 112.168 52.7021 112.688V117H51.6964V116.114H51.6452C51.5771 116.256 51.4634 116.408 51.3043 116.57C51.1452 116.732 50.9336 116.869 50.6694 116.983C50.4052 117.097 50.0827 117.153 49.7021 117.153ZM49.8555 116.25C50.2532 116.25 50.5884 116.172 50.8612 116.016C51.1367 115.859 51.3441 115.658 51.4833 115.411C51.6254 115.163 51.6964 114.903 51.6964 114.631V113.71C51.6538 113.761 51.56 113.808 51.4151 113.851C51.2731 113.891 51.1083 113.926 50.9208 113.957C50.7362 113.986 50.5558 114.011 50.3796 114.034C50.2063 114.054 50.0657 114.071 49.9577 114.085C49.6964 114.119 49.4521 114.175 49.2248 114.251C49.0004 114.325 48.8185 114.437 48.6793 114.588C48.543 114.736 48.4748 114.937 48.4748 115.193C48.4748 115.543 48.604 115.807 48.8626 115.986C49.1239 116.162 49.4549 116.25 49.8555 116.25ZM54.5376 117V110.455H55.5092V111.443H55.5774C55.6967 111.119 55.9126 110.857 56.2251 110.655C56.5376 110.453 56.8899 110.352 57.282 110.352C57.3558 110.352 57.4482 110.354 57.5589 110.357C57.6697 110.359 57.7536 110.364 57.8104 110.369V111.392C57.7763 111.384 57.6982 111.371 57.576 111.354C57.4567 111.334 57.3303 111.324 57.1967 111.324C56.8786 111.324 56.5945 111.391 56.3445 111.524C56.0973 111.655 55.9013 111.837 55.7564 112.07C55.6143 112.3 55.5433 112.562 55.5433 112.858V117H54.5376ZM61.4453 119.591C60.9595 119.591 60.5419 119.528 60.1925 119.403C59.843 119.281 59.5518 119.119 59.3189 118.918C59.0888 118.719 58.9055 118.506 58.7692 118.278L59.5703 117.716C59.6612 117.835 59.7763 117.972 59.9155 118.125C60.0547 118.281 60.245 118.416 60.4865 118.53C60.7308 118.646 61.0504 118.705 61.4453 118.705C61.9737 118.705 62.4098 118.577 62.7536 118.321C63.0973 118.065 63.2692 117.665 63.2692 117.119V115.79H63.1839C63.1101 115.909 63.005 116.057 62.8686 116.233C62.7351 116.406 62.5419 116.561 62.2891 116.697C62.0391 116.831 61.701 116.898 61.2749 116.898C60.7464 116.898 60.272 116.773 59.8516 116.523C59.4339 116.273 59.103 115.909 58.8587 115.432C58.6172 114.955 58.4964 114.375 58.4964 113.693C58.4964 113.023 58.6143 112.439 58.8501 111.942C59.0859 111.442 59.4141 111.055 59.8345 110.783C60.255 110.507 60.7408 110.369 61.2919 110.369C61.718 110.369 62.0561 110.44 62.3061 110.582C62.5589 110.722 62.7521 110.881 62.8857 111.06C63.022 111.236 63.1271 111.381 63.201 111.494H63.3033V110.455H64.2749V117.188C64.2749 117.75 64.147 118.207 63.8913 118.56C63.6385 118.915 63.2976 119.175 62.8686 119.339C62.4425 119.507 61.968 119.591 61.4453 119.591ZM61.4112 115.994C61.8146 115.994 62.1555 115.902 62.4339 115.717C62.7124 115.533 62.924 115.267 63.0689 114.92C63.2138 114.574 63.2862 114.159 63.2862 113.676C63.2862 113.205 63.2152 112.788 63.0732 112.428C62.9311 112.067 62.7209 111.784 62.4425 111.58C62.1641 111.375 61.8203 111.273 61.4112 111.273C60.9851 111.273 60.63 111.381 60.3459 111.597C60.0646 111.812 59.853 112.102 59.7109 112.466C59.5717 112.83 59.5021 113.233 59.5021 113.676C59.5021 114.131 59.5732 114.533 59.7152 114.882C59.8601 115.229 60.0732 115.501 60.3544 115.7C60.6385 115.896 60.9908 115.994 61.4112 115.994ZM68.0419 117.153C67.6271 117.153 67.2507 117.075 66.9126 116.919C66.5746 116.76 66.3061 116.531 66.1072 116.233C65.9084 115.932 65.8089 115.568 65.8089 115.142C65.8089 114.767 65.8828 114.463 66.0305 114.23C66.1783 113.994 66.3757 113.81 66.6229 113.676C66.87 113.543 67.1428 113.443 67.4411 113.378C67.7422 113.31 68.0447 113.256 68.3487 113.216C68.7464 113.165 69.0689 113.126 69.3161 113.101C69.5661 113.072 69.7479 113.026 69.8615 112.96C69.978 112.895 70.0362 112.781 70.0362 112.619V112.585C70.0362 112.165 69.9212 111.838 69.6911 111.605C69.4638 111.372 69.1186 111.256 68.6555 111.256C68.1754 111.256 67.799 111.361 67.5263 111.571C67.2536 111.781 67.0618 112.006 66.951 112.244L65.9964 111.903C66.1669 111.506 66.3942 111.196 66.6783 110.974C66.9652 110.75 67.2777 110.594 67.6158 110.506C67.9567 110.415 68.2919 110.369 68.6214 110.369C68.8317 110.369 69.0732 110.395 69.3459 110.446C69.6214 110.494 69.8871 110.595 70.1428 110.749C70.4013 110.902 70.6158 111.134 70.7862 111.443C70.9567 111.753 71.0419 112.168 71.0419 112.688V117H70.0362V116.114H69.9851C69.9169 116.256 69.8033 116.408 69.6442 116.57C69.4851 116.732 69.2734 116.869 69.0092 116.983C68.745 117.097 68.4226 117.153 68.0419 117.153ZM68.1953 116.25C68.593 116.25 68.9283 116.172 69.201 116.016C69.4766 115.859 69.6839 115.658 69.8232 115.411C69.9652 115.163 70.0362 114.903 70.0362 114.631V113.71C69.9936 113.761 69.8999 113.808 69.755 113.851C69.6129 113.891 69.4482 113.926 69.2607 113.957C69.076 113.986 68.8956 114.011 68.7195 114.034C68.5462 114.054 68.4055 114.071 68.2976 114.085C68.0362 114.119 67.7919 114.175 67.5646 114.251C67.3402 114.325 67.1584 114.437 67.0192 114.588C66.8828 114.736 66.8146 114.937 66.8146 115.193C66.8146 115.543 66.9439 115.807 67.2024 115.986C67.4638 116.162 67.7947 116.25 68.1953 116.25ZM76.2525 119.455V110.455H77.2241V111.494H77.3434C77.4173 111.381 77.5195 111.236 77.6502 111.06C77.7837 110.881 77.9741 110.722 78.2212 110.582C78.4712 110.44 78.8093 110.369 79.2354 110.369C79.7866 110.369 80.2724 110.507 80.6928 110.783C81.1133 111.058 81.4414 111.449 81.6772 111.955C81.913 112.46 82.0309 113.057 82.0309 113.744C82.0309 114.438 81.913 115.038 81.6772 115.547C81.4414 116.053 81.1147 116.445 80.6971 116.723C80.2795 116.999 79.7979 117.136 79.2525 117.136C78.832 117.136 78.4954 117.067 78.2425 116.928C77.9897 116.786 77.7951 116.625 77.6587 116.446C77.5224 116.264 77.4173 116.114 77.3434 115.994H77.2582V119.455H76.2525ZM77.2411 113.727C77.2411 114.222 77.3136 114.658 77.4585 115.036C77.6033 115.411 77.815 115.705 78.0934 115.918C78.3718 116.128 78.7127 116.233 79.1161 116.233C79.5366 116.233 79.8874 116.122 80.1687 115.901C80.4528 115.676 80.6658 115.375 80.8079 114.997C80.9528 114.616 81.0252 114.193 81.0252 113.727C81.0252 113.267 80.9542 112.852 80.8121 112.483C80.6729 112.111 80.4613 111.817 80.1772 111.601C79.896 111.382 79.5423 111.273 79.1161 111.273C78.707 111.273 78.3633 111.376 78.0849 111.584C77.8065 111.788 77.5962 112.075 77.4542 112.445C77.3121 112.811 77.2411 113.239 77.2411 113.727ZM86.3093 117.136C85.6786 117.136 85.1346 116.997 84.6772 116.719C84.2227 116.438 83.8718 116.045 83.6246 115.543C83.3803 115.037 83.2582 114.449 83.2582 113.778C83.2582 113.108 83.3803 112.517 83.6246 112.006C83.8718 111.491 84.2156 111.091 84.6559 110.804C85.0991 110.514 85.6161 110.369 86.207 110.369C86.5479 110.369 86.8846 110.426 87.217 110.54C87.5494 110.653 87.8519 110.838 88.1246 111.094C88.3974 111.347 88.6147 111.682 88.7766 112.099C88.9386 112.517 89.0195 113.031 89.0195 113.642V114.068H83.9741V113.199H87.9968C87.9968 112.83 87.9229 112.5 87.7752 112.21C87.6303 111.92 87.4229 111.692 87.1531 111.524C86.886 111.357 86.5707 111.273 86.207 111.273C85.8065 111.273 85.4599 111.372 85.1673 111.571C84.8775 111.767 84.6545 112.023 84.4982 112.338C84.342 112.653 84.2638 112.991 84.2638 113.352V113.932C84.2638 114.426 84.3491 114.845 84.5195 115.189C84.6928 115.53 84.9329 115.79 85.2397 115.969C85.5465 116.145 85.9031 116.233 86.3093 116.233C86.5735 116.233 86.8121 116.196 87.0252 116.122C87.2411 116.045 87.4272 115.932 87.5835 115.781C87.7397 115.628 87.8604 115.437 87.9457 115.21L88.9173 115.483C88.815 115.812 88.6431 116.102 88.4016 116.352C88.1602 116.599 87.8619 116.793 87.5067 116.932C87.1516 117.068 86.7525 117.136 86.3093 117.136ZM95.1857 111.92L94.2823 112.176C94.2255 112.026 94.1417 111.879 94.0309 111.737C93.9229 111.592 93.7752 111.473 93.5877 111.379C93.4002 111.286 93.1602 111.239 92.8675 111.239C92.467 111.239 92.1332 111.331 91.8661 111.516C91.6019 111.697 91.4698 111.929 91.4698 112.21C91.4698 112.46 91.5607 112.658 91.7425 112.803C91.9244 112.947 92.2085 113.068 92.5948 113.165L93.5664 113.403C94.1516 113.545 94.5877 113.763 94.8746 114.055C95.1616 114.345 95.305 114.719 95.305 115.176C95.305 115.551 95.1971 115.886 94.9812 116.182C94.7681 116.477 94.4698 116.71 94.0863 116.881C93.7028 117.051 93.2567 117.136 92.7482 117.136C92.0806 117.136 91.5281 116.991 91.0906 116.702C90.6531 116.412 90.3761 115.989 90.2596 115.432L91.2141 115.193C91.305 115.545 91.4769 115.81 91.7298 115.986C91.9854 116.162 92.3192 116.25 92.7312 116.25C93.1999 116.25 93.5721 116.151 93.8477 115.952C94.1261 115.75 94.2653 115.509 94.2653 115.227C94.2653 115 94.1857 114.81 94.0266 114.656C93.8675 114.5 93.6232 114.384 93.2937 114.307L92.2028 114.051C91.6033 113.909 91.163 113.689 90.8817 113.391C90.6033 113.089 90.4641 112.713 90.4641 112.261C90.4641 111.892 90.5678 111.565 90.7752 111.281C90.9854 110.997 91.271 110.774 91.6317 110.612C91.9954 110.45 92.4073 110.369 92.8675 110.369C93.5153 110.369 94.0238 110.511 94.3931 110.795C94.7653 111.08 95.0295 111.455 95.1857 111.92ZM98.745 117.153C98.3303 117.153 97.9538 117.075 97.6158 116.919C97.2777 116.76 97.0092 116.531 96.8104 116.233C96.6115 115.932 96.5121 115.568 96.5121 115.142C96.5121 114.767 96.5859 114.463 96.7337 114.23C96.8814 113.994 97.0788 113.81 97.326 113.676C97.5732 113.543 97.8459 113.443 98.1442 113.378C98.4453 113.31 98.7479 113.256 99.0518 113.216C99.4496 113.165 99.772 113.126 100.019 113.101C100.269 113.072 100.451 113.026 100.565 112.96C100.681 112.895 100.739 112.781 100.739 112.619V112.585C100.739 112.165 100.624 111.838 100.394 111.605C100.167 111.372 99.8217 111.256 99.3587 111.256C98.8786 111.256 98.5021 111.361 98.2294 111.571C97.9567 111.781 97.7649 112.006 97.6541 112.244L96.6996 111.903C96.87 111.506 97.0973 111.196 97.3814 110.974C97.6683 110.75 97.9808 110.594 98.3189 110.506C98.6598 110.415 98.995 110.369 99.3246 110.369C99.5348 110.369 99.7763 110.395 100.049 110.446C100.325 110.494 100.59 110.595 100.846 110.749C101.104 110.902 101.319 111.134 101.489 111.443C101.66 111.753 101.745 112.168 101.745 112.688V117H100.739V116.114H100.688C100.62 116.256 100.506 116.408 100.347 116.57C100.188 116.732 99.9766 116.869 99.7124 116.983C99.4482 117.097 99.1257 117.153 98.745 117.153ZM98.8984 116.25C99.2962 116.25 99.6314 116.172 99.9041 116.016C100.18 115.859 100.387 115.658 100.526 115.411C100.668 115.163 100.739 114.903 100.739 114.631V113.71C100.697 113.761 100.603 113.808 100.458 113.851C100.316 113.891 100.151 113.926 99.9638 113.957C99.7791 113.986 99.5987 114.011 99.4226 114.034C99.2493 114.054 99.1087 114.071 99.0007 114.085C98.7393 114.119 98.495 114.175 98.2678 114.251C98.0433 114.325 97.8615 114.437 97.7223 114.588C97.5859 114.736 97.5178 114.937 97.5178 115.193C97.5178 115.543 97.647 115.807 97.9055 115.986C98.1669 116.162 98.4979 116.25 98.8984 116.25ZM106.052 117.136C105.507 117.136 105.025 116.999 104.608 116.723C104.19 116.445 103.863 116.053 103.627 115.547C103.392 115.038 103.274 114.438 103.274 113.744C103.274 113.057 103.392 112.46 103.627 111.955C103.863 111.449 104.191 111.058 104.612 110.783C105.032 110.507 105.518 110.369 106.069 110.369C106.495 110.369 106.832 110.44 107.079 110.582C107.329 110.722 107.52 110.881 107.65 111.06C107.784 111.236 107.887 111.381 107.961 111.494H108.047V108.273H109.052V117H108.081V115.994H107.961C107.887 116.114 107.782 116.264 107.646 116.446C107.51 116.625 107.315 116.786 107.062 116.928C106.809 117.067 106.473 117.136 106.052 117.136ZM106.189 116.233C106.592 116.233 106.933 116.128 107.211 115.918C107.49 115.705 107.701 115.411 107.846 115.036C107.991 114.658 108.064 114.222 108.064 113.727C108.064 113.239 107.993 112.811 107.85 112.445C107.708 112.075 107.498 111.788 107.22 111.584C106.941 111.376 106.598 111.273 106.189 111.273C105.762 111.273 105.407 111.382 105.123 111.601C104.842 111.817 104.63 112.111 104.488 112.483C104.349 112.852 104.279 113.267 104.279 113.727C104.279 114.193 104.35 114.616 104.493 114.997C104.637 115.375 104.85 115.676 105.132 115.901C105.416 116.122 105.768 116.233 106.189 116.233ZM112.96 117.153C112.545 117.153 112.169 117.075 111.831 116.919C111.493 116.76 111.224 116.531 111.025 116.233C110.826 115.932 110.727 115.568 110.727 115.142C110.727 114.767 110.801 114.463 110.949 114.23C111.096 113.994 111.294 113.81 111.541 113.676C111.788 113.543 112.061 113.443 112.359 113.378C112.66 113.31 112.963 113.256 113.267 113.216C113.664 113.165 113.987 113.126 114.234 113.101C114.484 113.072 114.666 113.026 114.779 112.96C114.896 112.895 114.954 112.781 114.954 112.619V112.585C114.954 112.165 114.839 111.838 114.609 111.605C114.382 111.372 114.037 111.256 113.574 111.256C113.093 111.256 112.717 111.361 112.444 111.571C112.172 111.781 111.98 112.006 111.869 112.244L110.914 111.903C111.085 111.506 111.312 111.196 111.596 110.974C111.883 110.75 112.196 110.594 112.534 110.506C112.875 110.415 113.21 110.369 113.539 110.369C113.75 110.369 113.991 110.395 114.264 110.446C114.539 110.494 114.805 110.595 115.061 110.749C115.319 110.902 115.534 111.134 115.704 111.443C115.875 111.753 115.96 112.168 115.96 112.688V117H114.954V116.114H114.903C114.835 116.256 114.721 116.408 114.562 116.57C114.403 116.732 114.191 116.869 113.927 116.983C113.663 117.097 113.341 117.153 112.96 117.153ZM113.113 116.25C113.511 116.25 113.846 116.172 114.119 116.016C114.395 115.859 114.602 115.658 114.741 115.411C114.883 115.163 114.954 114.903 114.954 114.631V113.71C114.912 113.761 114.818 113.808 114.673 113.851C114.531 113.891 114.366 113.926 114.179 113.957C113.994 113.986 113.814 114.011 113.637 114.034C113.464 114.054 113.324 114.071 113.216 114.085C112.954 114.119 112.71 114.175 112.483 114.251C112.258 114.325 112.076 114.437 111.937 114.588C111.801 114.736 111.733 114.937 111.733 115.193C111.733 115.543 111.862 115.807 112.12 115.986C112.382 116.162 112.713 116.25 113.113 116.25Z" fill="black"/>
<path d="M134.687 76.7074C134.227 77.9759 133.301 78.4715 131.985 78.4066C130.994 78.3594 130.003 78.3948 128.958 78.3948C128.498 81.0144 127.218 83.0971 124.988 84.5249C123.383 85.5515 121.607 85.9645 119.707 85.7934C116.385 85.5043 112.851 83.0558 112.008 78.442H96.7384C95.9301 82.2239 93.7766 84.8671 89.8826 85.6341C85.9768 86.4011 82.9678 84.814 80.8969 81.6516C79.9942 82.5366 79.1859 83.5573 78.1652 84.283C73.1915 87.823 66.1587 84.9497 64.9905 78.9435C64.9079 78.5305 64.7722 78.3594 64.3592 78.2532C62.9609 77.8992 62.0346 76.7133 61.9933 75.2501C61.9638 74.2117 61.9697 73.1674 61.9874 72.129C62.0169 70.2941 63.132 69.0551 64.9433 68.8368C65.2678 68.7955 65.6041 68.7955 65.9345 68.7955C76.0412 68.7955 86.142 68.7955 96.2487 68.7955H97.2222C97.2399 68.4828 97.2635 68.235 97.2635 67.9813C97.2635 58.087 97.2635 48.1986 97.2635 38.3043C97.2635 36.6051 96.821 35.9561 95.2103 35.313C94.3017 34.9531 93.7766 34.3218 93.7412 33.3424C93.7117 32.4928 93.6881 31.6373 93.7766 30.7936C93.8887 29.6608 94.9861 28.8702 96.113 29.0177C99.9539 29.5133 103.293 33.0415 103.594 36.9119C103.618 37.1892 103.641 37.4665 103.671 37.791C104.538 37.791 105.335 37.791 106.137 37.791C110.598 37.8028 113.878 40.4342 114.869 44.8002C114.893 44.9123 114.928 45.0303 114.969 45.1719C115.713 45.2368 116.48 45.2191 117.206 45.3902C119.483 45.9212 120.822 47.4139 121.33 49.6736C121.949 52.4171 122.563 55.1606 123.182 57.9041C123.224 58.087 123.277 58.2699 123.347 58.5236C123.884 58.5236 124.415 58.5236 124.952 58.5236C126.539 58.5236 128.126 58.4941 129.708 58.5413C131.702 58.6003 133.33 60.0812 133.395 62.0518C133.495 65.1021 133.46 68.1524 133.46 71.2086C133.46 71.7927 133.472 72.2942 134.038 72.6777C134.321 72.8724 134.463 73.2736 134.675 73.5863V76.7074H134.687ZM131.265 72.0051C131.301 71.8458 131.342 71.7573 131.342 71.6688C131.342 68.5949 131.365 65.5151 131.33 62.4412C131.318 61.3379 130.569 60.6653 129.454 60.6535C127.277 60.6417 125.1 60.6535 122.923 60.6535C121.849 60.6535 121.572 60.4116 121.33 59.3496C120.628 56.2167 119.925 53.0779 119.206 49.9509C118.852 48.4346 117.825 47.5496 116.273 47.408C115.666 47.349 115.046 47.3785 114.432 47.3726C113.241 47.3608 112.91 47.0953 112.845 45.8917C112.68 42.8119 110.167 40.151 107.004 39.9917C104.526 39.8678 102.043 39.9622 99.5586 39.9622C99.5232 39.9622 99.4878 40.0153 99.4642 40.033V45.2427H100.361C103.27 45.2427 106.178 45.2427 109.093 45.2427C109.353 45.2427 109.612 45.2545 109.866 45.3017C110.438 45.402 110.739 45.7678 110.721 46.3401C110.71 46.9124 110.397 47.2664 109.819 47.3431C109.565 47.3785 109.3 47.3785 109.04 47.3785C106.131 47.3785 103.222 47.3785 100.308 47.3785C100.031 47.3785 99.7533 47.3785 99.3993 47.3785V48.3815C99.3993 55.2668 99.3993 62.1521 99.3993 69.0374C99.3993 69.2498 99.4052 69.4622 99.3993 69.6746C99.3521 70.5596 99.0099 70.9077 98.1249 70.9254C97.2517 70.9431 96.3726 70.9254 95.4994 70.9254C95.0215 70.9254 94.5436 70.9254 93.9831 70.9254C94.0952 71.1083 94.1188 71.1732 94.166 71.2204C95.4758 72.5243 96.3077 74.0819 96.6617 75.8991C96.6912 76.0525 97.0098 76.2472 97.1986 76.2531C101.978 76.2708 106.757 76.2649 111.536 76.2767C111.913 76.2767 112.031 76.1528 112.137 75.7811C112.379 74.9197 112.609 74.0288 113.04 73.2618C115.949 68.0639 122.716 67.2851 126.811 71.6393C126.946 71.7868 127.135 71.9874 127.306 71.9933C128.622 72.0228 129.944 72.011 131.265 72.011V72.0051ZM73.2387 83.693C76.7433 83.7756 79.6756 80.92 79.7287 77.38C79.7818 73.9226 76.9734 71.067 73.4157 70.9431C70.0173 70.8251 67.0496 73.722 66.9611 77.2384C66.8726 80.6899 69.7105 83.6163 73.2387 83.693ZM88.2483 83.693C91.747 83.693 94.6203 80.8433 94.638 77.3446C94.6557 73.8577 91.6821 70.8841 88.2188 70.9372C84.7142 70.9903 81.8527 73.8695 81.8645 77.3387C81.8763 80.8315 84.7496 83.693 88.2483 83.693ZM120.521 83.693C124.026 83.6635 126.893 80.7784 126.87 77.3092C126.846 73.8341 123.943 70.9372 120.486 70.9372C116.987 70.9372 114.055 73.899 114.102 77.3741C114.155 80.8846 117.034 83.7166 120.521 83.693ZM101.423 37.7615C101.736 34.8056 98.9863 31.5547 95.8593 31.2125C95.8593 31.6845 95.8888 32.1565 95.8534 32.6226C95.818 33.1182 95.9891 33.3542 96.4788 33.5371C98.0364 34.1271 98.945 35.3071 99.3049 36.9119C99.3639 37.1833 99.3816 37.4606 99.4229 37.7615H101.423ZM67.7222 70.9313C66.7605 70.9313 66.023 70.9077 65.2973 70.9372C64.5657 70.9726 64.1527 71.3384 64.1291 72.011C64.0937 73.073 64.0996 74.1409 64.1291 75.2029C64.1409 75.6572 64.3238 76.0584 64.9079 76.1233C65.2383 74.1173 66.1528 72.4535 67.7222 70.9313ZM132.51 76.2708V74.1881H128.457C128.604 74.8017 128.722 75.374 128.887 75.9345C128.929 76.0702 129.118 76.2531 129.247 76.2531C130.327 76.2767 131.407 76.2649 132.516 76.2649L132.51 76.2708ZM82.4722 70.9962H79.1092C79.7051 71.7455 80.2538 72.4358 80.7966 73.1143C81.3512 72.4122 81.894 71.7219 82.4722 70.9962Z" fill="#424242"/>
<path d="M105.069 72.011C105.069 71.5862 105.069 71.2794 105.069 70.9726C105.069 64.3941 105.069 57.8156 105.069 51.2371C105.069 49.7621 105.335 49.4907 106.804 49.4907C109.807 49.4907 112.816 49.4907 115.819 49.4907C116.969 49.4907 117.241 49.709 117.483 50.8005C118.084 53.4732 118.686 56.1459 119.288 58.8186C119.589 60.1402 119.194 60.6417 117.843 60.6417C114.58 60.6417 111.311 60.6417 108.049 60.6417H107.24V71.9992C107.7 71.9992 108.143 72.0405 108.574 71.9815C108.757 71.9579 108.981 71.7632 109.075 71.5862C110.721 68.4415 113.205 66.2821 116.586 65.1729C116.922 65.0608 117.105 64.9015 117.064 64.518C117.034 64.2643 117.046 63.9988 117.076 63.7392C117.14 63.1669 117.471 62.8306 118.043 62.7893C118.615 62.748 119.058 63.0489 119.105 63.6094C119.182 64.4295 119.182 65.2614 119.105 66.0756C119.046 66.7305 118.433 66.8721 117.902 67.0078C115.471 67.6214 113.5 68.943 112.002 70.9372C111.482 71.6275 111.075 72.4181 110.698 73.2028C110.379 73.8636 109.931 74.1468 109.199 74.1409C106.668 74.1173 104.137 74.135 101.606 74.1291C101.417 74.1291 101.222 74.1291 101.039 74.0937C100.455 73.9639 100.113 73.6158 100.148 72.9963C100.184 72.3827 100.556 72.0346 101.157 72.0169C102.172 71.9874 103.193 72.0051 104.208 71.9992C104.461 71.9992 104.715 71.9992 105.069 71.9992V72.011ZM107.24 58.4646H117.017C116.497 56.1459 115.99 53.9039 115.488 51.6737H107.24V58.4646Z" fill="#424242"/>
<path d="M73.6456 81.5572C70.7074 81.5808 68.7014 79.2031 69.1793 76.5894C69.315 75.8342 69.7162 75.4861 70.3534 75.5451C71.0024 75.61 71.321 76.0761 71.2561 76.8903C71.1381 78.4184 72.029 79.4627 73.4096 79.4332C74.4716 79.4096 75.3448 78.6013 75.4569 77.5393C75.569 76.5304 74.8905 75.5451 73.8993 75.2855C73.6928 75.2324 73.4804 75.2088 73.2739 75.1675C72.5836 75.0318 72.2473 74.6188 72.3181 73.9993C72.383 73.4093 72.855 73.0435 73.5335 73.0848C74.9495 73.1674 76.0882 73.7869 76.8611 74.961C77.7638 76.3298 77.8641 77.8048 77.0971 79.268C76.3183 80.7607 75.038 81.4923 73.6338 81.5572H73.6456Z" fill="#424242"/>
<path d="M88.5195 81.5631C85.599 81.5749 83.6048 79.1913 84.0945 76.5717C84.2302 75.8283 84.6432 75.4743 85.2804 75.551C85.9058 75.6218 86.2185 76.0879 86.1713 76.8431C86.0592 78.442 86.9324 79.4804 88.3425 79.4332C89.4045 79.3978 90.2718 78.5836 90.3721 77.5216C90.4724 76.5068 89.7939 75.5392 88.7968 75.2855C88.5903 75.2324 88.3779 75.2088 88.1714 75.1675C87.4929 75.0318 87.1566 74.607 87.2392 73.9816C87.31 73.4152 87.7643 73.0494 88.4015 73.0848C89.8706 73.1615 91.0447 73.8046 91.8294 75.0436C92.7026 76.436 92.7675 77.8992 91.9769 79.3506C91.1863 80.8079 89.9119 81.5041 88.5254 81.5631H88.5195Z" fill="#424242"/>
<path d="M120.386 81.5572C117.725 81.4982 115.79 79.0497 116.344 76.4537C116.486 75.8047 116.881 75.4861 117.483 75.5451C118.073 75.6041 118.397 76.0112 118.415 76.672C118.427 77.1145 118.386 77.5806 118.504 77.9995C118.799 79.0084 119.766 79.563 120.834 79.4096C121.808 79.2739 122.575 78.4066 122.616 77.4036C122.657 76.4065 121.973 75.5097 120.988 75.2737C120.781 75.2265 120.569 75.2029 120.362 75.1616C119.731 75.0259 119.406 74.607 119.471 74.0052C119.53 73.4388 119.985 73.0494 120.61 73.0789C122.05 73.1497 123.224 73.7515 124.014 74.961C124.923 76.3534 125.017 77.8402 124.227 79.3329C123.46 80.7784 122.026 81.5985 120.392 81.5631L120.386 81.5572Z" fill="#424242"/>
<path d="M27.5196 68.8014C22.8114 68.8014 19 72.6187 19 77.321C19 82.0233 22.8173 85.8406 27.5196 85.8406C32.2219 85.8406 36.0392 82.0233 36.0392 77.321C36.0392 72.6187 32.2219 68.8014 27.5196 68.8014ZM27.555 83.6989C24.0681 83.7284 21.1889 80.8905 21.1358 77.38C21.0827 73.9049 24.0209 70.9431 27.5196 70.9431C30.9829 70.9431 33.8798 73.84 33.9034 77.3151C33.927 80.7902 31.0596 83.6753 27.555 83.6989Z" fill="#424242"/>
<path d="M27.4014 81.5631C24.7405 81.5041 22.8053 79.0556 23.3599 76.4596C23.5015 75.8106 23.8968 75.492 24.4986 75.551C25.0886 75.61 25.4131 76.0171 25.4308 76.6779C25.4426 77.1204 25.4013 77.5865 25.5193 78.0054C25.8143 79.0143 26.7819 79.5689 27.8498 79.4155C28.8233 79.2798 29.5903 78.4125 29.6316 77.4095C29.6729 76.4124 28.9885 75.5156 28.0032 75.2796C27.7967 75.2324 27.5843 75.2088 27.3778 75.1675C26.7465 75.0318 26.422 74.6129 26.4869 74.0111C26.5459 73.4447 27.0002 73.0553 27.6256 73.0848C29.0652 73.1556 30.2393 73.7574 31.0299 74.9669C31.9385 76.3593 32.0329 77.8461 31.2423 79.3388C30.4753 80.7843 29.0416 81.6044 27.4073 81.569L27.4014 81.5631Z" fill="#424242"/>
<path d="M44.5645 68.8014C39.8563 68.8014 36.0449 72.6187 36.0449 77.321C36.0449 82.0233 39.8622 85.8406 44.5645 85.8406C49.2668 85.8406 53.0841 82.0233 53.0841 77.321C53.0841 72.6187 49.2668 68.8014 44.5645 68.8014ZM44.5999 83.6989C41.113 83.7284 38.2338 80.8905 38.1807 77.38C38.1276 73.9049 41.0658 70.9431 44.5645 70.9431C48.0278 70.9431 50.9247 73.84 50.9483 77.3151C50.9719 80.7902 48.1045 83.6753 44.5999 83.6989Z" fill="#424242"/>
<path d="M44.4463 81.5513C41.7854 81.4923 39.8502 79.0438 40.4048 76.4478C40.5464 75.7988 40.9417 75.4802 41.5435 75.5392C42.1335 75.5982 42.458 76.0053 42.4757 76.6661C42.4875 77.1086 42.4462 77.5747 42.5642 77.9936C42.8592 79.0025 43.8268 79.5571 44.8947 79.4037C45.8682 79.268 46.6352 78.4007 46.6765 77.3977C46.7178 76.4006 46.0334 75.5038 45.0481 75.2678C44.8416 75.2206 44.6292 75.197 44.4227 75.1557C43.7914 75.02 43.4669 74.6011 43.5318 73.9993C43.5908 73.4329 44.0451 73.0435 44.6705 73.073C46.1101 73.1438 47.2842 73.7456 48.0748 74.9551C48.9834 76.3475 49.0778 77.8343 48.2872 79.327C47.5202 80.7725 46.0865 81.5926 44.4522 81.5572L44.4463 81.5513Z" fill="#424242"/>
<path d="M93.9772 39.9209H19V69.356H93.9772V39.9209Z" stroke="#424242" stroke-width="4" stroke-miterlimit="10"/>
</svg>
