<svg width="153" height="151" viewBox="0 0 153 151" fill="none" xmlns="http://www.w3.org/2000/svg">
<path d="M76.4289 58.3864C77.7687 58.0462 78.9783 57.7774 80.1585 57.4162C80.4021 57.3406 80.6877 56.929 80.6961 56.6644C80.7423 54.9256 80.7171 53.1826 80.7213 51.4438C80.7255 50.2594 81.2757 49.5958 82.2207 49.6C83.1615 49.6042 83.6991 50.2678 83.7033 51.4606C83.7117 53.6992 83.6907 55.9378 83.7117 58.1764C83.7201 59.1718 83.2623 59.7472 82.3173 59.9824C80.6751 60.394 79.0329 60.814 77.2773 61.2592C78.1467 62.6746 78.8901 64.0354 79.7847 65.2912C80.7129 66.5974 81.0909 67.9666 80.9817 69.5584C80.8809 71.0074 80.9607 72.469 80.9607 73.876C81.0951 73.9558 81.1455 74.0062 81.1959 74.0104C83.5815 74.1658 83.7033 74.296 83.7033 76.753C83.7033 78.9916 83.7033 81.2302 83.7033 83.4688C83.7033 85.3504 83.4261 85.6612 81.4647 85.8628C81.4647 87.1816 81.4689 88.5088 81.4647 89.8402C81.4605 91.2472 80.9565 91.7596 79.5663 91.7638C76.2735 91.768 72.9765 91.7722 69.6837 91.7638C68.3523 91.7638 67.8483 91.243 67.8441 89.8864C67.8357 88.5592 67.8441 87.2278 67.8441 85.8502H51.8253C51.8253 87.1816 51.8253 88.5046 51.8253 89.8318C51.8211 91.285 51.3339 91.768 49.8513 91.768C46.6173 91.768 43.3875 91.768 40.1535 91.768C38.6919 91.768 38.2047 91.2724 38.1963 89.8066C38.1921 88.5088 38.1963 87.2068 38.1963 85.7956C37.6713 85.7956 37.2177 85.8166 36.7641 85.7956C35.8233 85.7452 35.2311 85.2076 35.2227 84.2752C35.1975 81.3856 35.1933 78.4918 35.2227 75.6022C35.2311 74.5144 35.7393 74.17 37.4739 73.9684C37.4739 72.343 37.5369 70.7008 37.4529 69.067C37.3899 67.8238 37.7175 66.778 38.4021 65.7532C39.3681 64.3126 40.2375 62.809 41.2035 61.2466C39.6915 60.835 38.2719 60.436 36.8439 60.058C35.5293 59.7094 35.2143 59.3272 35.2143 57.979C35.2143 55.8034 35.2101 53.6278 35.2143 51.4522C35.2143 50.272 35.7729 49.6042 36.7179 49.6168C37.6587 49.6252 38.1879 50.2888 38.1963 51.4816C38.2047 53.128 38.2215 54.7786 38.1879 56.425C38.1753 57.0634 38.2761 57.4414 39.0195 57.5716C39.9897 57.7354 40.9305 58.063 42.0519 58.3654V57.202C42.0519 49.6798 42.0519 42.1576 42.0519 34.6354C42.0519 34.354 42.0435 34.0768 42.0519 33.7954C42.0855 32.7454 42.6315 32.1028 43.4967 32.086C44.3829 32.065 45.0129 32.7454 45.0255 33.8248C45.0507 35.908 45.0339 37.9912 45.0339 40.0744C45.0339 40.4062 45.0339 40.738 45.0339 41.2C45.3195 41.0404 45.4833 40.969 45.6261 40.8682C47.0163 39.877 48.5745 39.4612 50.2713 39.4654C55.9287 39.4738 61.5819 39.4738 67.2393 39.4654C68.7345 39.4654 70.1247 39.814 71.4183 40.5658C72.0315 40.9228 72.6657 41.2378 73.4385 41.6578C73.4385 40.1836 73.4385 38.8396 73.4385 37.4914C73.4385 36.2776 73.4301 35.068 73.4385 33.8542C73.4469 32.758 74.0223 32.0902 74.9295 32.0944C75.8325 32.0944 76.4163 32.7664 76.4163 33.8626C76.4247 41.6326 76.4163 49.4026 76.4163 57.1768C76.4163 57.5464 76.4163 57.9202 76.4163 58.4074L76.4289 58.3864ZM80.7003 77.0596C80.4693 77.0428 80.3181 77.0302 80.1711 77.026C78.3651 76.984 77.9829 76.6018 77.9787 74.8168C77.9787 72.826 78.0039 70.8352 77.9619 68.8486C77.9535 68.3824 77.8065 67.8658 77.5671 67.4668C76.3785 65.4634 75.1143 63.5062 73.9341 61.4986C73.6527 61.0198 73.4721 60.4024 73.4679 59.848C73.4301 55.7152 73.3251 51.574 73.5015 47.4454C73.5813 45.5848 73.0101 44.602 71.3427 43.8544C69.7467 43.1404 68.2725 42.3718 66.4245 42.4054C61.6071 42.4978 56.7855 42.523 51.9723 42.397C49.6077 42.334 47.5749 42.8338 45.7731 44.3794C45.2859 44.7994 45.0171 45.1564 45.0213 45.8326C45.0507 50.4652 45.0549 55.0978 45.0129 59.7304C45.0087 60.3436 44.8029 61.024 44.4921 61.5574C43.3371 63.544 42.0771 65.4676 40.9095 67.45C40.6449 67.8994 40.4895 68.4832 40.4769 69.0082C40.4307 71.1208 40.4475 73.2376 40.4601 75.3502C40.4643 76.2112 40.0947 76.7866 39.2547 76.9924C38.9355 77.0722 38.5953 77.047 38.2635 77.0722V82.738H80.7003V77.068V77.0596ZM48.8013 85.8586H41.2287V88.7272H48.8013V85.8586ZM78.4449 85.8418H70.8891V88.7146H78.4449V85.8418Z" fill="#424242"/>
<path d="M114.296 82.4356C114.296 82.9606 114.288 83.3638 114.296 83.7628C114.38 87.2656 114.237 87.358 110.726 87.2908C109.172 87.2614 107.618 87.2656 106.064 87.2908C102.301 87.3538 102.284 87.3118 102.355 83.5318C102.364 83.1958 102.355 82.864 102.355 82.4356H101.272C96.7652 82.4356 92.2586 82.4356 87.752 82.4356C87.4412 82.4356 87.1262 82.4566 86.8238 82.4062C86.072 82.276 85.5344 81.6208 85.5848 80.8858C85.6436 80.1088 86.0846 79.63 86.8448 79.483C87.1472 79.4242 87.4622 79.4536 87.773 79.4536C96.6938 79.4536 105.615 79.4536 114.535 79.4536H115.783V78.4288C115.783 69.5038 115.774 60.583 115.8 51.658C115.8 50.9776 115.573 50.6122 115.023 50.2468C105.132 43.636 95.2532 37.0042 85.3706 30.3766C85.19 30.2548 85.0052 30.1414 84.8288 30.0112C84.0434 29.4274 83.8544 28.6252 84.3206 27.907C84.7868 27.1888 85.631 27.0124 86.4458 27.5206C87.395 28.1128 88.3106 28.7554 89.2388 29.377C98.4494 35.5552 107.647 41.7502 116.879 47.8948C118.206 48.7768 118.786 49.8604 118.782 51.4522C118.744 61.0576 118.761 70.6672 118.761 80.2726C118.761 81.9946 118.328 82.4314 116.627 82.4314C115.884 82.4314 115.144 82.4314 114.283 82.4314L114.296 82.4356ZM111.272 82.4986H105.421V84.25H111.272V82.4986Z" fill="#424242"/>
<path d="M80.7256 28.3816H38.2006V29.4232C38.2006 34.8328 38.2006 40.2424 38.2006 45.6478C38.2006 45.8956 38.2174 55.2112 38.2006 55.459C38.146 56.4166 37.2766 52.7878 36.4114 52.7752C35.584 52.7626 35.2732 55.1104 35.2102 54.2116C35.1976 54.0268 35.2102 46.0594 35.2102 45.8746C35.2102 39.7216 35.2102 33.5644 35.2102 27.4114C35.2102 25.8154 35.668 25.3492 37.2514 25.3492C52.0438 25.3492 66.8362 25.3492 81.6328 25.3492C83.233 25.3492 83.7034 25.8112 83.7034 27.382C83.7034 33.5686 83.7034 39.7552 83.7034 45.9376C83.7034 46.093 83.7118 56.6182 83.7034 56.7736C83.6404 57.727 83.0272 55.4254 82.1578 55.4086C81.3346 55.3876 80.7256 57.5716 80.6962 56.6644C80.6626 55.6102 80.7214 44.3122 80.7214 43.2538C80.7214 38.6548 80.7214 34.0516 80.7214 29.4526V28.3816H80.7256Z" fill="#424242"/>
<path d="M111.272 82.4986V84.25H105.421V82.4986H111.272Z" fill="#424242"/>
<path d="M58.9946 61.9144C55.9496 61.9144 52.9004 61.9144 49.8554 61.9144C48.3938 61.9144 47.8982 61.4188 47.8982 59.9572C47.894 57.2524 47.894 54.5476 47.8982 51.8428C47.8982 50.503 48.419 49.9822 49.7588 49.978C55.9748 49.9738 62.1908 49.9738 68.4068 49.978C69.7466 49.978 70.2674 50.503 70.2716 51.8386C70.28 54.5728 70.28 57.3112 70.2716 60.0454C70.2716 61.3852 69.7424 61.906 68.4068 61.9102C65.2694 61.9186 62.1278 61.9102 58.9904 61.9102L58.9946 61.9144ZM67.2518 53.0272H50.96V58.882H67.256V53.0272H67.2518Z" fill="#424242"/>
<path d="M59.5113 66.484C63.1695 66.484 66.8235 66.484 70.4817 66.484C70.7841 66.484 71.0991 66.4966 71.3931 66.5512C72.0987 66.6814 72.5439 67.1518 72.5229 67.702C72.5019 68.2354 72.0609 68.6638 71.3763 68.7814C71.1033 68.8276 70.8177 68.8486 70.5363 68.8486C63.1737 68.8486 55.8153 68.8486 48.4527 68.8486C48.4065 68.8486 48.3603 68.8486 48.3099 68.8486C47.1213 68.836 46.4409 68.3992 46.4493 67.6558C46.4577 66.9166 47.1423 66.484 48.3309 66.4798C52.0605 66.4798 55.7859 66.4798 59.5155 66.4798L59.5113 66.484Z" fill="#424242"/>
<path d="M59.4861 73.5232C55.8069 73.5232 52.1277 73.5232 48.4443 73.5232C47.1087 73.5232 46.4367 73.1242 46.4451 72.343C46.4577 71.5744 47.1381 71.188 48.4779 71.188C55.8153 71.188 63.1527 71.188 70.4901 71.188C70.8177 71.188 71.1579 71.188 71.4729 71.251C72.1197 71.377 72.5481 71.8726 72.5229 72.3976C72.4977 72.952 72.0063 73.4056 71.3049 73.4854C71.0277 73.519 70.7421 73.519 70.4565 73.519C66.7983 73.519 63.1443 73.519 59.4861 73.519V73.5232Z" fill="#424242"/>
<path d="M44.3282 80.8522C43.694 80.8522 43.0598 80.8648 42.4256 80.848C41.993 80.8354 41.6276 80.617 41.4344 80.0752C41.2706 79.6132 41.279 79.105 41.5646 78.7774C41.7998 78.5044 42.1484 78.2692 42.455 78.2566C43.7066 78.1978 44.9624 78.2104 46.214 78.2398C46.9028 78.2566 47.3102 78.7732 47.3186 79.5292C47.3228 80.3062 46.8902 80.827 46.1888 80.8522C45.5714 80.8732 44.954 80.8522 44.3324 80.8522H44.3282Z" fill="#424242"/>
<path d="M74.585 80.848C73.9508 80.848 73.3166 80.8606 72.6824 80.8438C72.2288 80.8312 71.8466 80.5918 71.6786 80.008C71.54 79.525 71.5694 78.9874 71.8928 78.664C72.1322 78.4246 72.4724 78.2566 72.7748 78.244C73.9928 78.1978 75.215 78.2104 76.4372 78.2314C77.1428 78.244 77.5922 78.7774 77.5922 79.5334C77.5922 80.3104 77.1218 80.8354 76.3952 80.848C75.7946 80.8606 75.1898 80.848 74.5892 80.848H74.585Z" fill="#424242"/>
<path d="M47.5588 117V108.273H50.5076C51.1923 108.273 51.752 108.396 52.1866 108.643C52.6241 108.888 52.948 109.219 53.1582 109.636C53.3684 110.054 53.4735 110.52 53.4735 111.034C53.4735 111.548 53.3684 112.016 53.1582 112.436C52.9508 112.857 52.6298 113.192 52.1951 113.442C51.7605 113.689 51.2037 113.812 50.5247 113.812H48.411V112.875H50.4906C50.9593 112.875 51.3358 112.794 51.6199 112.632C51.9039 112.47 52.1099 112.251 52.2377 111.976C52.3684 111.697 52.4338 111.384 52.4338 111.034C52.4338 110.685 52.3684 110.372 52.2377 110.097C52.1099 109.821 51.9025 109.605 51.6156 109.449C51.3287 109.29 50.948 109.21 50.4735 109.21H48.6156V117H47.5588ZM56.9657 117.153C56.551 117.153 56.1745 117.075 55.8365 116.919C55.4984 116.76 55.2299 116.531 55.0311 116.233C54.8322 115.932 54.7328 115.568 54.7328 115.142C54.7328 114.767 54.8066 114.463 54.9544 114.23C55.1021 113.994 55.2995 113.81 55.5467 113.676C55.7939 113.543 56.0666 113.443 56.3649 113.378C56.666 113.31 56.9686 113.256 57.2725 113.216C57.6703 113.165 57.9927 113.126 58.2399 113.101C58.4899 113.072 58.6717 113.026 58.7853 112.96C58.9018 112.895 58.96 112.781 58.96 112.619V112.585C58.96 112.165 58.845 111.838 58.6149 111.605C58.3876 111.372 58.0424 111.256 57.5794 111.256C57.0993 111.256 56.7228 111.361 56.4501 111.571C56.1774 111.781 55.9856 112.006 55.8748 112.244L54.9203 111.903C55.0907 111.506 55.318 111.196 55.6021 110.974C55.889 110.75 56.2015 110.594 56.5396 110.506C56.8805 110.415 57.2157 110.369 57.5453 110.369C57.7555 110.369 57.997 110.395 58.2697 110.446C58.5453 110.494 58.8109 110.595 59.0666 110.749C59.3251 110.902 59.5396 111.134 59.71 111.443C59.8805 111.753 59.9657 112.168 59.9657 112.688V117H58.96V116.114H58.9089C58.8407 116.256 58.7271 116.408 58.568 116.57C58.4089 116.732 58.1973 116.869 57.9331 116.983C57.6689 117.097 57.3464 117.153 56.9657 117.153ZM57.1191 116.25C57.5169 116.25 57.8521 116.172 58.1248 116.016C58.4004 115.859 58.6078 115.658 58.747 115.411C58.889 115.163 58.96 114.903 58.96 114.631V113.71C58.9174 113.761 58.8237 113.808 58.6788 113.851C58.5368 113.891 58.372 113.926 58.1845 113.957C57.9998 113.986 57.8194 114.011 57.6433 114.034C57.47 114.054 57.3294 114.071 57.2214 114.085C56.96 114.119 56.7157 114.175 56.4885 114.251C56.264 114.325 56.0822 114.437 55.943 114.588C55.8066 114.736 55.7385 114.937 55.7385 115.193C55.7385 115.543 55.8677 115.807 56.1262 115.986C56.3876 116.162 56.7186 116.25 57.1191 116.25ZM66.2672 119.455V115.994H66.182C66.1081 116.114 66.003 116.264 65.8667 116.446C65.7303 116.625 65.5357 116.786 65.2828 116.928C65.03 117.067 64.6934 117.136 64.2729 117.136C63.7275 117.136 63.2459 116.999 62.8283 116.723C62.4107 116.445 62.084 116.053 61.8482 115.547C61.6124 115.038 61.4945 114.438 61.4945 113.744C61.4945 113.057 61.6124 112.46 61.8482 111.955C62.084 111.449 62.4121 111.058 62.8326 110.783C63.253 110.507 63.7388 110.369 64.29 110.369C64.7161 110.369 65.0527 110.44 65.2999 110.582C65.5499 110.722 65.7402 110.881 65.8709 111.06C66.0044 111.236 66.1081 111.381 66.182 111.494H66.3013V110.455H67.2729V119.455H66.2672ZM64.4093 116.233C64.8127 116.233 65.1536 116.128 65.432 115.918C65.7104 115.705 65.9221 115.411 66.0669 115.036C66.2118 114.658 66.2843 114.222 66.2843 113.727C66.2843 113.239 66.2132 112.811 66.0712 112.445C65.9292 112.075 65.7189 111.788 65.4405 111.584C65.1621 111.376 64.8184 111.273 64.4093 111.273C63.9831 111.273 63.628 111.382 63.3439 111.601C63.0627 111.817 62.851 112.111 62.709 112.483C62.5698 112.852 62.5002 113.267 62.5002 113.727C62.5002 114.193 62.5712 114.616 62.7132 114.997C62.8581 115.375 63.0712 115.676 63.3525 115.901C63.6365 116.122 63.9888 116.233 64.4093 116.233ZM73.2388 114.324V110.455H74.2445V117H73.2388V115.892H73.1706C73.0172 116.224 72.7786 116.507 72.4547 116.74C72.1309 116.97 71.7218 117.085 71.2275 117.085C70.8184 117.085 70.4547 116.996 70.1365 116.817C69.8184 116.635 69.5684 116.362 69.3865 115.999C69.2047 115.632 69.1138 115.17 69.1138 114.614V110.455H70.1195V114.545C70.1195 115.023 70.253 115.403 70.5201 115.688C70.79 115.972 71.1337 116.114 71.5513 116.114C71.8013 116.114 72.0556 116.05 72.3141 115.922C72.5755 115.794 72.7942 115.598 72.9703 115.334C73.1493 115.07 73.2388 114.733 73.2388 114.324ZM78.8308 117.136C78.2001 117.136 77.6561 116.997 77.1987 116.719C76.7441 116.438 76.3933 116.045 76.1461 115.543C75.9018 115.037 75.7797 114.449 75.7797 113.778C75.7797 113.108 75.9018 112.517 76.1461 112.006C76.3933 111.491 76.737 111.091 77.1774 110.804C77.6206 110.514 78.1376 110.369 78.7285 110.369C79.0694 110.369 79.4061 110.426 79.7385 110.54C80.0708 110.653 80.3734 110.838 80.6461 111.094C80.9189 111.347 81.1362 111.682 81.2981 112.099C81.46 112.517 81.541 113.031 81.541 113.642V114.068H76.4956V113.199H80.5183C80.5183 112.83 80.4444 112.5 80.2967 112.21C80.1518 111.92 79.9444 111.692 79.6745 111.524C79.4075 111.357 79.0922 111.273 78.7285 111.273C78.3279 111.273 77.9814 111.372 77.6887 111.571C77.399 111.767 77.176 112.023 77.0197 112.338C76.8635 112.653 76.7853 112.991 76.7853 113.352V113.932C76.7853 114.426 76.8706 114.845 77.041 115.189C77.2143 115.53 77.4544 115.79 77.7612 115.969C78.068 116.145 78.4245 116.233 78.8308 116.233C79.095 116.233 79.3336 116.196 79.5467 116.122C79.7626 116.045 79.9487 115.932 80.1049 115.781C80.2612 115.628 80.3819 115.437 80.4672 115.21L81.4387 115.483C81.3365 115.812 81.1646 116.102 80.9231 116.352C80.6816 116.599 80.3833 116.793 80.0282 116.932C79.6731 117.068 79.274 117.136 78.8308 117.136ZM85.9174 110.455V111.307H82.5254V110.455H85.9174ZM83.514 108.886H84.5197V115.125C84.5197 115.409 84.5609 115.622 84.6433 115.764C84.7285 115.903 84.8365 115.997 84.9672 116.045C85.1007 116.091 85.2413 116.114 85.389 116.114C85.4998 116.114 85.5907 116.108 85.6618 116.097C85.7328 116.082 85.7896 116.071 85.8322 116.062L86.0368 116.966C85.9686 116.991 85.8734 117.017 85.7512 117.043C85.6291 117.071 85.4743 117.085 85.2868 117.085C85.0027 117.085 84.7243 117.024 84.4515 116.902C84.1816 116.78 83.9572 116.594 83.7782 116.344C83.6021 116.094 83.514 115.778 83.514 115.398V108.886ZM90.1042 117.136C89.4735 117.136 88.9295 116.997 88.4721 116.719C88.0176 116.438 87.6667 116.045 87.4196 115.543C87.1752 115.037 87.0531 114.449 87.0531 113.778C87.0531 113.108 87.1752 112.517 87.4196 112.006C87.6667 111.491 88.0105 111.091 88.4508 110.804C88.894 110.514 89.411 110.369 90.002 110.369C90.3429 110.369 90.6795 110.426 91.0119 110.54C91.3443 110.653 91.6468 110.838 91.9196 111.094C92.1923 111.347 92.4096 111.682 92.5716 112.099C92.7335 112.517 92.8145 113.031 92.8145 113.642V114.068H87.769V113.199H91.7917C91.7917 112.83 91.7179 112.5 91.5701 112.21C91.4252 111.92 91.2179 111.692 90.948 111.524C90.6809 111.357 90.3656 111.273 90.002 111.273C89.6014 111.273 89.2548 111.372 88.9622 111.571C88.6724 111.767 88.4494 112.023 88.2931 112.338C88.1369 112.653 88.0588 112.991 88.0588 113.352V113.932C88.0588 114.426 88.144 114.845 88.3145 115.189C88.4877 115.53 88.7278 115.79 89.0346 115.969C89.3414 116.145 89.698 116.233 90.1042 116.233C90.3684 116.233 90.6071 116.196 90.8201 116.122C91.036 116.045 91.2221 115.932 91.3784 115.781C91.5346 115.628 91.6554 115.437 91.7406 115.21L92.7122 115.483C92.6099 115.812 92.438 116.102 92.1966 116.352C91.9551 116.599 91.6568 116.793 91.3017 116.932C90.9466 117.068 90.5474 117.136 90.1042 117.136ZM94.3443 117V110.455H95.3159V111.443H95.3841C95.5034 111.119 95.7193 110.857 96.0318 110.655C96.3443 110.453 96.6966 110.352 97.0886 110.352C97.1625 110.352 97.2548 110.354 97.3656 110.357C97.4764 110.359 97.5602 110.364 97.617 110.369V111.392C97.5829 111.384 97.5048 111.371 97.3826 111.354C97.2633 111.334 97.1369 111.324 97.0034 111.324C96.6852 111.324 96.4011 111.391 96.1511 111.524C95.9039 111.655 95.7079 111.837 95.563 112.07C95.421 112.3 95.35 112.562 95.35 112.858V117H94.3443ZM98.8091 117V110.455H99.8148V117H98.8091ZM98.8603 109.568L99.9 107.591H101.076L99.7466 109.568H98.8603ZM103.583 117.153C103.168 117.153 102.792 117.075 102.454 116.919C102.116 116.76 101.847 116.531 101.648 116.233C101.449 115.932 101.35 115.568 101.35 115.142C101.35 114.767 101.424 114.463 101.572 114.23C101.719 113.994 101.917 113.81 102.164 113.676C102.411 113.543 102.684 113.443 102.982 113.378C103.283 113.31 103.586 113.256 103.89 113.216C104.287 113.165 104.61 113.126 104.857 113.101C105.107 113.072 105.289 113.026 105.403 112.96C105.519 112.895 105.577 112.781 105.577 112.619V112.585C105.577 112.165 105.462 111.838 105.232 111.605C105.005 111.372 104.66 111.256 104.197 111.256C103.716 111.256 103.34 111.361 103.067 111.571C102.795 111.781 102.603 112.006 102.492 112.244L101.537 111.903C101.708 111.506 101.935 111.196 102.219 110.974C102.506 110.75 102.819 110.594 103.157 110.506C103.498 110.415 103.833 110.369 104.162 110.369C104.373 110.369 104.614 110.395 104.887 110.446C105.162 110.494 105.428 110.595 105.684 110.749C105.942 110.902 106.157 111.134 106.327 111.443C106.498 111.753 106.583 112.168 106.583 112.688V117H105.577V116.114H105.526C105.458 116.256 105.344 116.408 105.185 116.57C105.026 116.732 104.814 116.869 104.55 116.983C104.286 117.097 103.964 117.153 103.583 117.153ZM103.736 116.25C104.134 116.25 104.469 116.172 104.742 116.016C105.018 115.859 105.225 115.658 105.364 115.411C105.506 115.163 105.577 114.903 105.577 114.631V113.71C105.535 113.761 105.441 113.808 105.296 113.851C105.154 113.891 104.989 113.926 104.802 113.957C104.617 113.986 104.437 114.011 104.26 114.034C104.087 114.054 103.947 114.071 103.839 114.085C103.577 114.119 103.333 114.175 103.106 114.251C102.881 114.325 102.699 114.437 102.56 114.588C102.424 114.736 102.356 114.937 102.356 115.193C102.356 115.543 102.485 115.807 102.743 115.986C103.005 116.162 103.336 116.25 103.736 116.25Z" fill="black"/>
</svg>
