<svg width="153" height="151" viewBox="0 0 153 151" fill="none" xmlns="http://www.w3.org/2000/svg">
<path d="M71.6849 31.0216C82.4913 31.0216 93.2933 31.0216 104.1 31.0216C108.104 31.0216 110.229 32.6716 111.21 36.5216C112.284 40.728 113.366 44.93 114.444 49.1364C114.783 50.4564 114.853 50.5092 116.257 50.5136C116.635 50.5136 117.014 50.5048 117.392 50.518C119.425 50.5972 120.503 51.7016 120.512 53.752C120.525 56.8408 120.521 59.9252 120.512 63.014C120.512 64.5276 119.68 65.4912 118.4 65.5132C117.093 65.5352 116.235 64.5452 116.226 62.9832C116.217 61.408 116.235 59.8328 116.222 58.2576C116.217 57.4392 116.512 56.81 117.181 56.3172C117.898 55.7892 118.312 53.9412 117.867 53.2196C117.753 53.0348 117.414 52.9028 117.172 52.8984C115.945 52.8676 114.717 52.872 113.485 52.8896C112.592 52.9028 112.323 53.2284 112.482 54.1524C113.129 57.9056 113.903 61.6368 114.413 65.4076C114.871 68.7692 115.073 72.1704 115.333 75.5584C115.395 76.3416 115.535 76.8344 116.402 77.0544C117.581 77.3536 118.14 78.1852 118.237 79.3996C118.391 81.3532 118.052 83.254 116.072 83.9976C114.07 84.75 111.875 85.2076 109.991 83.4212C109.793 83.232 109.419 83.1528 109.125 83.1484C107.708 83.122 106.291 83.1484 104.874 83.1264C104.241 83.1176 103.902 83.3948 103.669 83.9624C102.318 87.3196 99.8493 89.0884 96.5097 89.1148C93.1481 89.1456 90.4993 87.302 89.1485 83.9404C88.9109 83.3508 88.5721 83.122 87.9473 83.122C79.0945 83.1352 70.2461 83.1352 61.3933 83.122C60.7113 83.122 60.3857 83.408 60.1481 84.0196C58.8809 87.3284 56.0253 89.2512 52.6461 89.1104C49.1437 88.9652 46.5873 86.928 45.5401 83.3948C45.3509 82.7612 44.9945 82.484 44.3697 82.3564C42.0289 81.8812 39.6969 81.3576 37.3561 80.8604C34.7689 80.3104 33.4489 78.722 33.4489 76.082C33.4445 62.8512 33.4401 49.616 33.4489 36.3852C33.4489 33.0456 35.4641 31.026 38.8037 31.026C49.7641 31.0172 60.7289 31.026 71.6893 31.026L71.6849 31.0216ZM35.9965 71.2684C36.0317 72.0076 36.2913 72.3508 36.9117 72.3552C37.2285 72.3552 37.5453 72.3376 37.8577 72.3684C38.5441 72.4344 38.9797 72.7908 38.9973 73.508C39.0149 74.2252 38.6013 74.6124 37.9105 74.6872C37.5673 74.7268 37.2197 74.7048 36.8721 74.7092C36.1901 74.7224 35.8469 75.0656 35.7941 75.752C35.6797 77.2656 36.3001 78.194 37.7477 78.5196C39.8949 79.0036 42.0553 79.4304 44.1981 79.932C45.0649 80.1344 45.5093 79.866 45.8965 79.074C47.3573 76.0908 49.8257 74.5948 53.1169 74.7092C56.4609 74.8236 58.8237 76.5308 60.0073 79.6856C60.3637 80.6272 60.9621 80.7548 61.7629 80.658C62.6429 80.5524 62.5945 79.866 62.5945 79.2236C62.5945 74.1812 62.5945 69.1432 62.5945 64.1008C62.5945 62.4948 62.4625 62.3584 60.8961 62.3584C54.4369 62.3584 47.9821 62.3584 41.5229 62.3584C39.4681 62.3584 38.5045 61.3992 38.4913 59.362C38.4781 57.47 38.4869 55.5824 38.4913 53.6904C38.4957 51.3584 39.4373 50.4036 41.7429 50.4036C47.7269 50.4036 53.7109 50.4124 59.6993 50.4212C73.7177 50.4388 87.7317 50.4564 101.75 50.474C103.968 50.474 104.936 51.4376 104.94 53.62C104.94 55.4768 104.94 57.338 104.94 59.1948C104.94 61.3948 103.99 62.332 101.759 62.332C97.0949 62.332 92.4353 62.332 87.7713 62.332C86.4205 62.332 86.2753 62.4772 86.2753 63.8632C86.2753 68.9672 86.2753 74.0712 86.2753 79.1752C86.2753 79.7912 86.1345 80.4952 87.0409 80.6536C88.2905 80.8692 88.7129 80.5876 89.2233 79.734C89.9097 78.59 90.5917 77.3404 91.5861 76.5088C95.5945 73.156 101.565 74.7444 103.589 79.602C103.818 80.152 104.016 80.6624 104.733 80.658C106.027 80.6536 107.321 80.7108 108.605 80.614C108.927 80.5876 109.419 80.1036 109.472 79.7736C109.789 77.8156 110.123 77.3888 112.051 76.9664C112.64 76.8388 112.931 76.5352 112.9 75.928C112.856 75.1096 112.825 74.2912 112.785 73.4728C112.755 72.8788 112.46 72.584 111.835 72.5356C110.128 72.3992 109.556 71.8184 109.283 70.1024C108.887 67.6164 108.469 65.1348 108.06 62.6488C107.536 59.45 106.999 56.2512 106.493 53.0524C106.229 51.3716 106.92 50.5488 108.632 50.474C109.292 50.4432 109.956 50.474 110.616 50.4872C111.892 50.5092 112.152 50.1924 111.839 48.9648C110.783 44.8508 109.736 40.7368 108.667 36.6272C108.055 34.2688 106.859 33.3624 104.395 33.3624C82.6585 33.3624 60.9269 33.3624 39.1909 33.3624C36.8369 33.3624 35.9921 34.1984 35.9921 36.5304C35.9921 45.6692 35.9921 54.8036 35.9921 63.9424C35.9921 65.368 36.1461 65.5264 37.5453 65.5264C44.5369 65.5264 51.5329 65.5264 58.5245 65.5264C58.8413 65.5264 59.2329 65.4252 59.4485 65.5748C59.8181 65.8344 60.2977 66.2392 60.3197 66.6088C60.3417 66.9828 59.9237 67.4536 59.5893 67.7528C59.4045 67.9156 58.9865 67.832 58.6741 67.832C51.4933 67.832 44.3125 67.832 37.1273 67.832C36.7709 67.832 36.4101 67.832 36.0053 67.832C36.1329 69.2224 37.0789 68.8968 37.7961 68.932C38.5881 68.9716 39.0721 69.3456 39.0633 70.142C39.0501 70.8944 38.5661 71.2596 37.8225 71.264C37.2373 71.264 36.6521 71.264 36.0097 71.264L35.9965 71.2684ZM65.0585 66.7892C65.0585 71.0044 65.0717 75.224 65.0497 79.4392C65.0453 80.306 65.3313 80.7108 66.2509 80.6932C68.1693 80.6536 70.0877 80.6668 72.0061 80.6932C72.7453 80.702 73.1149 80.4556 73.1105 79.6636C73.0973 71.1056 73.0973 62.5432 73.1105 53.9852C73.1105 53.1932 72.7981 52.8544 71.9797 52.872C70.1229 52.9072 68.2661 52.8808 66.4093 52.8852C65.1905 52.8852 65.0585 53.0128 65.0585 54.2404C65.0585 58.4248 65.0585 62.6092 65.0585 66.798V66.7892ZM83.6925 66.8332C83.6925 62.6752 83.6925 58.5216 83.6925 54.3636C83.6925 52.9952 83.5649 52.8764 82.1701 52.8764C80.4057 52.8764 78.6457 52.9028 76.8813 52.8632C75.9705 52.8412 75.6537 53.2504 75.6537 54.1128C75.6625 62.5828 75.6625 71.0528 75.6537 79.5228C75.6537 80.3764 76.0233 80.702 76.8593 80.6888C78.6545 80.658 80.4497 80.68 82.2405 80.68C83.5429 80.68 83.6925 80.5304 83.6925 79.2104C83.6925 75.0876 83.6925 70.9604 83.6925 66.8376V66.8332ZM45.9977 60.0308C47.2561 60.0308 48.5101 60.0308 49.7685 60.0308C50.5429 60.0308 50.9125 59.6656 50.9037 58.8736C50.8861 57.2412 50.8861 55.6044 50.9037 53.972C50.9125 53.2328 50.6265 52.8676 49.8521 52.872C47.2781 52.8896 44.6997 52.8896 42.1257 52.872C41.3733 52.8676 41.0345 53.1756 41.0389 53.9368C41.0565 55.5692 41.0609 57.206 41.0389 58.8384C41.0257 59.6876 41.4129 60.044 42.2313 60.0352C43.4897 60.0264 44.7437 60.0352 46.0021 60.0352L45.9977 60.0308ZM57.9569 60.0308C59.1537 60.0308 60.3505 60.0308 61.5473 60.0308C62.2689 60.0308 62.6605 59.7008 62.6561 58.9396C62.6473 57.2676 62.6473 55.6 62.6561 53.928C62.6605 53.1712 62.3173 52.8588 61.5561 52.8676C59.2241 52.8896 56.8921 52.894 54.5645 52.8676C53.7989 52.8588 53.4733 53.1536 53.4865 53.9236C53.5085 55.5912 53.5129 57.2632 53.4865 58.9352C53.4733 59.7668 53.8825 60.0528 54.6525 60.0396C55.7569 60.022 56.8569 60.0352 57.9613 60.0352L57.9569 60.0308ZM93.0513 56.4492C93.0513 55.6 93.0425 54.7552 93.0513 53.906C93.0601 53.202 92.7521 52.8676 92.0349 52.872C90.4641 52.8852 88.8933 52.8896 87.3269 52.872C86.6185 52.8632 86.2665 53.18 86.2665 53.8796C86.2665 55.5736 86.2665 57.272 86.2665 58.966C86.2665 59.6568 86.5877 60.0308 87.2873 60.0308C88.8581 60.0352 90.4289 60.0396 91.9953 60.0308C92.7257 60.0264 93.0733 59.6436 93.0557 58.9044C93.0381 58.0904 93.0557 57.272 93.0513 56.4536V56.4492ZM102.309 56.4184C102.309 55.6 102.287 54.7816 102.313 53.9632C102.34 53.224 102.063 52.8544 101.275 52.8676C99.7349 52.894 98.1905 52.894 96.6505 52.8676C95.9113 52.8544 95.6385 53.1844 95.6473 53.8928C95.6649 55.5912 95.6649 57.2896 95.6473 58.988C95.6385 59.7096 95.9817 60.0264 96.6769 60.0264C98.2169 60.0264 99.7613 60.0264 101.301 60.0264C102.001 60.0264 102.327 59.6744 102.313 58.966C102.296 58.1168 102.309 57.2676 102.313 56.4184H102.309ZM101.407 81.9428C101.425 79.162 99.3081 77.1556 96.3425 77.1424C93.5397 77.1292 91.3749 79.1576 91.3397 81.824C91.3045 84.5212 93.4165 86.642 96.1753 86.6772C99.2157 86.7168 101.389 84.75 101.407 81.9428ZM57.9085 81.9516C57.9261 79.1708 55.8141 77.1644 52.8529 77.1424C50.0413 77.1248 47.8853 79.1356 47.8501 81.8152C47.8149 84.5696 49.9401 86.6728 52.7605 86.6772C55.7481 86.6772 57.8909 84.7148 57.9085 81.956V81.9516ZM109.34 52.7928C109.239 52.8588 109.133 52.9248 109.032 52.9908C109.305 54.5924 109.573 56.194 109.846 57.7956C110.484 61.5752 111.122 65.3504 111.756 69.13C111.839 69.6404 112.002 70.0628 112.631 70.0804C112.662 69.9308 112.693 69.8692 112.684 69.8164C111.734 64.3384 110.783 58.8648 109.807 53.3912C109.767 53.1712 109.499 52.9952 109.34 52.7972V52.7928ZM114.031 79.3248C113.657 79.3292 113.265 79.272 112.909 79.3512C112.64 79.4128 112.288 79.5976 112.187 79.822C111.628 81.0892 112.266 82.044 113.621 82.0396C113.872 82.0396 114.123 82.0484 114.374 82.0264C115.32 81.9296 115.698 81.3092 115.711 80.1212C115.725 79.03 114.963 79.382 114.409 79.3248C114.286 79.3116 114.158 79.3248 114.035 79.3248H114.031Z" fill="#424242"/>
<path d="M73.0049 45.6428C62.5153 45.6428 52.0257 45.6428 41.5405 45.6428C39.1733 45.6428 38.4561 44.9212 38.4561 42.5364C38.4561 41.0536 38.4473 39.5752 38.4561 38.0924C38.4693 36.3104 39.2877 35.4524 41.0389 35.4524C61.9521 35.448 82.8697 35.448 103.783 35.4524C105.424 35.4524 106.176 36.1256 106.476 37.758C106.779 39.43 107.114 41.0976 107.395 42.7696C107.716 44.7188 106.929 45.634 104.949 45.634C97.2621 45.6428 89.5797 45.634 81.8929 45.634C78.9317 45.634 75.9705 45.634 73.0093 45.634L73.0049 45.6428ZM59.6069 43.2008C61.2745 43.2008 62.9421 43.2096 64.6097 43.2008C65.6833 43.1964 65.9121 42.9808 65.9253 41.9556C65.9385 40.948 65.9253 39.9404 65.9253 38.9328C65.9253 38.1628 65.5645 37.7756 64.7725 37.78C61.3757 37.7888 57.9745 37.7888 54.5777 37.78C53.8385 37.78 53.4777 38.1056 53.4909 38.8624C53.5085 39.9316 53.5217 41.0052 53.4865 42.07C53.4601 42.8796 53.8033 43.214 54.6041 43.2052C56.2717 43.1832 57.9393 43.2008 59.6069 43.2008ZM87.3357 43.2008C88.8757 43.2008 90.4157 43.192 91.9557 43.2008C92.7257 43.2052 93.1305 42.8972 93.1129 42.0832C93.0909 41.014 93.1041 39.9448 93.1085 38.8756C93.1085 38.1364 92.7477 37.7756 92.0129 37.7756C88.9329 37.7756 85.8529 37.7756 82.7729 37.7756C82.0469 37.7756 81.6641 38.1232 81.6685 38.8712C81.6729 39.9404 81.6905 41.0096 81.6641 42.0788C81.6421 42.8972 82.0381 43.2052 82.8125 43.2008C84.3217 43.1876 85.8309 43.2008 87.3357 43.2008ZM73.7617 43.2008C75.1785 43.2008 76.5953 43.1788 78.0121 43.2096C78.9009 43.2272 79.2749 42.84 79.2441 41.96C79.2133 40.9524 79.2309 39.9448 79.2353 38.9372C79.2353 38.154 78.8569 37.7844 78.0737 37.7844C75.2401 37.7844 72.4021 37.7932 69.5685 37.7844C68.7237 37.7844 68.3805 38.198 68.3981 39.012C68.4157 40.0196 68.4245 41.0272 68.3981 42.0348C68.3717 42.8928 68.7765 43.2228 69.6037 43.2096C70.9897 43.1876 72.3757 43.2052 73.7617 43.2052V43.2008ZM45.8877 43.2008C47.1769 43.2008 48.4661 43.1964 49.7597 43.2008C50.5253 43.2052 50.9345 42.8972 50.9081 42.0744C50.8773 41.036 50.8861 39.9976 50.9081 38.9592C50.9213 38.1804 50.5825 37.78 49.7905 37.78C47.2429 37.78 44.6909 37.78 42.1433 37.78C41.4085 37.78 41.0433 38.132 41.0477 38.88C41.0565 39.8876 41.0477 40.8952 41.0477 41.9028C41.0521 42.9764 41.2501 43.1832 42.2973 43.1964C43.4941 43.2096 44.6909 43.1964 45.8833 43.1964L45.8877 43.2008ZM100.223 43.2008C101.385 43.2008 102.551 43.2096 103.712 43.2008C104.403 43.192 104.773 42.8664 104.658 42.1272C104.482 41.0096 104.302 39.8964 104.13 38.7788C104.02 38.066 103.607 37.7756 102.89 37.78C100.879 37.7976 98.8681 37.802 96.8573 37.78C96.0345 37.7712 95.6297 38.088 95.6561 38.946C95.6869 40.0152 95.6869 41.0844 95.6561 42.1492C95.6341 42.9324 96.0037 43.2184 96.7429 43.2096C97.9045 43.192 99.0661 43.2096 100.232 43.2052L100.223 43.2008Z" fill="#424242"/>
<path d="M97.6668 67.8144C95.15 67.8144 92.6332 67.8144 90.1208 67.8144C89.1176 67.8144 88.5236 67.348 88.5544 66.6C88.5852 65.8784 89.122 65.4912 90.1164 65.4912C95.084 65.4912 100.052 65.4912 105.024 65.4912C105.151 65.4912 105.274 65.4956 105.402 65.4912C106.181 65.4648 106.687 65.8036 106.775 66.5956C106.85 67.2864 106.26 67.8056 105.406 67.81C102.828 67.8232 100.25 67.8144 97.6712 67.8144H97.6668Z" fill="#424242"/>
<path d="M96.5406 85.8632C94.1646 85.872 92.365 84.1912 92.343 81.9384C92.321 79.7032 94.1338 77.9564 96.4834 77.9476C98.877 77.9388 100.641 79.5976 100.655 81.8812C100.668 84.1692 98.9298 85.8544 96.5406 85.8632ZM96.4834 83.5092C97.3546 83.518 98.1114 82.7964 98.1422 81.9252C98.1774 81.0012 97.4382 80.284 96.4702 80.2972C95.5682 80.3104 94.785 81.0188 94.7674 81.846C94.7498 82.6908 95.5858 83.5004 96.4834 83.5092Z" fill="#424242"/>
<path d="M52.9011 85.8808C50.4239 85.8104 48.6639 84.1296 48.6947 81.8724C48.7299 79.5316 50.5999 77.886 53.1695 77.9432C55.5103 77.996 57.2087 79.7428 57.1559 82.0484C57.1031 84.3012 55.2727 85.9512 52.9011 85.8808ZM52.9231 80.2972C51.9595 80.2928 51.2687 80.9264 51.2511 81.8328C51.2335 82.77 51.9639 83.5136 52.9099 83.5136C53.8383 83.5136 54.6259 82.7436 54.6127 81.8504C54.5995 80.9836 53.8603 80.3016 52.9275 80.2972H52.9231Z" fill="#424242"/>
<path d="M35.9077 109.21V108.273H42.4531V109.21H39.7088V117H38.652V109.21H35.9077ZM43.2681 117V110.455H44.2397V111.443H44.3079C44.4272 111.119 44.6431 110.857 44.9556 110.655C45.2681 110.453 45.6204 110.352 46.0124 110.352C46.0863 110.352 46.1786 110.354 46.2894 110.357C46.4002 110.359 46.484 110.364 46.5408 110.369V111.392C46.5067 111.384 46.4286 111.371 46.3065 111.354C46.1871 111.334 46.0607 111.324 45.9272 111.324C45.609 111.324 45.3249 111.391 45.0749 111.524C44.8278 111.655 44.6317 111.837 44.4869 112.07C44.3448 112.3 44.2738 112.562 44.2738 112.858V117H43.2681ZM49.6591 117.153C49.2443 117.153 48.8679 117.075 48.5298 116.919C48.1918 116.76 47.9233 116.531 47.7244 116.233C47.5256 115.932 47.4261 115.568 47.4261 115.142C47.4261 114.767 47.5 114.463 47.6477 114.23C47.7955 113.994 47.9929 113.81 48.2401 113.676C48.4872 113.543 48.7599 113.443 49.0582 113.378C49.3594 113.31 49.6619 113.256 49.9659 113.216C50.3636 113.165 50.6861 113.126 50.9332 113.101C51.1832 113.072 51.3651 113.026 51.4787 112.96C51.5952 112.895 51.6534 112.781 51.6534 112.619V112.585C51.6534 112.165 51.5384 111.838 51.3082 111.605C51.081 111.372 50.7358 111.256 50.2727 111.256C49.7926 111.256 49.4162 111.361 49.1435 111.571C48.8707 111.781 48.679 112.006 48.5682 112.244L47.6136 111.903C47.7841 111.506 48.0114 111.196 48.2955 110.974C48.5824 110.75 48.8949 110.594 49.233 110.506C49.5739 110.415 49.9091 110.369 50.2386 110.369C50.4489 110.369 50.6903 110.395 50.9631 110.446C51.2386 110.494 51.5043 110.595 51.7599 110.749C52.0185 110.902 52.233 111.134 52.4034 111.443C52.5739 111.753 52.6591 112.168 52.6591 112.688V117H51.6534V116.114H51.6023C51.5341 116.256 51.4205 116.408 51.2614 116.57C51.1023 116.732 50.8906 116.869 50.6264 116.983C50.3622 117.097 50.0398 117.153 49.6591 117.153ZM49.8125 116.25C50.2102 116.25 50.5455 116.172 50.8182 116.016C51.0938 115.859 51.3011 115.658 51.4403 115.411C51.5824 115.163 51.6534 114.903 51.6534 114.631V113.71C51.6108 113.761 51.517 113.808 51.3722 113.851C51.2301 113.891 51.0653 113.926 50.8778 113.957C50.6932 113.986 50.5128 114.011 50.3366 114.034C50.1634 114.054 50.0227 114.071 49.9148 114.085C49.6534 114.119 49.4091 114.175 49.1818 114.251C48.9574 114.325 48.7756 114.437 48.6364 114.588C48.5 114.736 48.4318 114.937 48.4318 115.193C48.4318 115.543 48.5611 115.807 48.8196 115.986C49.081 116.162 49.4119 116.25 49.8125 116.25ZM55.5004 113.062V117H54.4947V110.455H55.4663V111.477H55.5515C55.7049 111.145 55.9379 110.878 56.2504 110.676C56.5629 110.472 56.9663 110.369 57.4606 110.369C57.9038 110.369 58.2915 110.46 58.6239 110.642C58.9563 110.821 59.2148 111.094 59.3995 111.46C59.5842 111.824 59.6765 112.284 59.6765 112.841V117H58.6708V112.909C58.6708 112.395 58.5373 111.994 58.2702 111.707C58.0032 111.418 57.6367 111.273 57.1708 111.273C56.8498 111.273 56.5629 111.342 56.31 111.482C56.06 111.621 55.8626 111.824 55.7177 112.091C55.5728 112.358 55.5004 112.682 55.5004 113.062ZM66.1506 111.92L65.2472 112.176C65.1903 112.026 65.1065 111.879 64.9957 111.737C64.8878 111.592 64.7401 111.473 64.5526 111.379C64.3651 111.286 64.125 111.239 63.8324 111.239C63.4318 111.239 63.098 111.331 62.831 111.516C62.5668 111.697 62.4347 111.929 62.4347 112.21C62.4347 112.46 62.5256 112.658 62.7074 112.803C62.8892 112.947 63.1733 113.068 63.5597 113.165L64.5312 113.403C65.1165 113.545 65.5526 113.763 65.8395 114.055C66.1264 114.345 66.2699 114.719 66.2699 115.176C66.2699 115.551 66.1619 115.886 65.946 116.182C65.733 116.477 65.4347 116.71 65.0511 116.881C64.6676 117.051 64.2216 117.136 63.7131 117.136C63.0455 117.136 62.4929 116.991 62.0554 116.702C61.6179 116.412 61.3409 115.989 61.2244 115.432L62.179 115.193C62.2699 115.545 62.4418 115.81 62.6946 115.986C62.9503 116.162 63.2841 116.25 63.696 116.25C64.1648 116.25 64.5369 116.151 64.8125 115.952C65.0909 115.75 65.2301 115.509 65.2301 115.227C65.2301 115 65.1506 114.81 64.9915 114.656C64.8324 114.5 64.5881 114.384 64.2585 114.307L63.1676 114.051C62.5682 113.909 62.1278 113.689 61.8466 113.391C61.5682 113.089 61.429 112.713 61.429 112.261C61.429 111.892 61.5327 111.565 61.7401 111.281C61.9503 110.997 62.2358 110.774 62.5966 110.612C62.9602 110.45 63.3722 110.369 63.8324 110.369C64.4801 110.369 64.9886 110.511 65.358 110.795C65.7301 111.08 65.9943 111.455 66.1506 111.92ZM67.7837 119.455V110.455H68.7553V111.494H68.8746C68.9485 111.381 69.0508 111.236 69.1815 111.06C69.315 110.881 69.5053 110.722 69.7525 110.582C70.0025 110.44 70.3406 110.369 70.7667 110.369C71.3178 110.369 71.8036 110.507 72.2241 110.783C72.6445 111.058 72.9727 111.449 73.2085 111.955C73.4442 112.46 73.5621 113.057 73.5621 113.744C73.5621 114.438 73.4442 115.038 73.2085 115.547C72.9727 116.053 72.646 116.445 72.2283 116.723C71.8107 116.999 71.3292 117.136 70.7837 117.136C70.3633 117.136 70.0266 117.067 69.7738 116.928C69.521 116.786 69.3263 116.625 69.19 116.446C69.0536 116.264 68.9485 116.114 68.8746 115.994H68.7894V119.455H67.7837ZM68.7724 113.727C68.7724 114.222 68.8448 114.658 68.9897 115.036C69.1346 115.411 69.3462 115.705 69.6246 115.918C69.9031 116.128 70.244 116.233 70.6474 116.233C71.0678 116.233 71.4187 116.122 71.6999 115.901C71.984 115.676 72.1971 115.375 72.3391 114.997C72.484 114.616 72.5565 114.193 72.5565 113.727C72.5565 113.267 72.4854 112.852 72.3434 112.483C72.2042 112.111 71.9925 111.817 71.7085 111.601C71.4272 111.382 71.0735 111.273 70.6474 111.273C70.2383 111.273 69.8945 111.376 69.6161 111.584C69.3377 111.788 69.1275 112.075 68.9854 112.445C68.8434 112.811 68.7724 113.239 68.7724 113.727ZM77.7553 117.136C77.1644 117.136 76.646 116.996 76.1999 116.714C75.7567 116.433 75.4102 116.04 75.1602 115.534C74.913 115.028 74.7894 114.437 74.7894 113.761C74.7894 113.08 74.913 112.484 75.1602 111.976C75.4102 111.467 75.7567 111.072 76.1999 110.791C76.646 110.51 77.1644 110.369 77.7553 110.369C78.3462 110.369 78.8633 110.51 79.3065 110.791C79.7525 111.072 80.0991 111.467 80.3462 111.976C80.5962 112.484 80.7212 113.08 80.7212 113.761C80.7212 114.437 80.5962 115.028 80.3462 115.534C80.0991 116.04 79.7525 116.433 79.3065 116.714C78.8633 116.996 78.3462 117.136 77.7553 117.136ZM77.7553 116.233C78.2042 116.233 78.5735 116.118 78.8633 115.888C79.1531 115.658 79.3675 115.355 79.5067 114.98C79.646 114.605 79.7156 114.199 79.7156 113.761C79.7156 113.324 79.646 112.916 79.5067 112.538C79.3675 112.161 79.1531 111.855 78.8633 111.622C78.5735 111.389 78.2042 111.273 77.7553 111.273C77.3065 111.273 76.9371 111.389 76.6474 111.622C76.3576 111.855 76.1431 112.161 76.0039 112.538C75.8647 112.916 75.7951 113.324 75.7951 113.761C75.7951 114.199 75.8647 114.605 76.0039 114.98C76.1431 115.355 76.3576 115.658 76.6474 115.888C76.9371 116.118 77.3065 116.233 77.7553 116.233ZM82.2564 117V110.455H83.228V111.443H83.2962C83.4155 111.119 83.6314 110.857 83.9439 110.655C84.2564 110.453 84.6087 110.352 85.0007 110.352C85.0746 110.352 85.1669 110.354 85.2777 110.357C85.3885 110.359 85.4723 110.364 85.5291 110.369V111.392C85.495 111.384 85.4169 111.371 85.2947 111.354C85.1754 111.334 85.049 111.324 84.9155 111.324C84.5973 111.324 84.3132 111.391 84.0632 111.524C83.8161 111.655 83.62 111.837 83.4751 112.07C83.3331 112.3 83.2621 112.562 83.2621 112.858V117H82.2564ZM89.978 110.455V111.307H86.5859V110.455H89.978ZM87.5746 108.886H88.5803V115.125C88.5803 115.409 88.6214 115.622 88.7038 115.764C88.7891 115.903 88.897 115.997 89.0277 116.045C89.1612 116.091 89.3018 116.114 89.4496 116.114C89.5604 116.114 89.6513 116.108 89.7223 116.097C89.7933 116.082 89.8501 116.071 89.8928 116.062L90.0973 116.966C90.0291 116.991 89.9339 117.017 89.8118 117.043C89.6896 117.071 89.5348 117.085 89.3473 117.085C89.0632 117.085 88.7848 117.024 88.5121 116.902C88.2422 116.78 88.0178 116.594 87.8388 116.344C87.6626 116.094 87.5746 115.778 87.5746 115.398V108.886ZM94.1648 117.136C93.5341 117.136 92.9901 116.997 92.5327 116.719C92.0781 116.438 91.7273 116.045 91.4801 115.543C91.2358 115.037 91.1136 114.449 91.1136 113.778C91.1136 113.108 91.2358 112.517 91.4801 112.006C91.7273 111.491 92.071 111.091 92.5114 110.804C92.9545 110.514 93.4716 110.369 94.0625 110.369C94.4034 110.369 94.7401 110.426 95.0724 110.54C95.4048 110.653 95.7074 110.838 95.9801 111.094C96.2528 111.347 96.4702 111.682 96.6321 112.099C96.794 112.517 96.875 113.031 96.875 113.642V114.068H91.8295V113.199H95.8523C95.8523 112.83 95.7784 112.5 95.6307 112.21C95.4858 111.92 95.2784 111.692 95.0085 111.524C94.7415 111.357 94.4261 111.273 94.0625 111.273C93.6619 111.273 93.3153 111.372 93.0227 111.571C92.733 111.767 92.5099 112.023 92.3537 112.338C92.1974 112.653 92.1193 112.991 92.1193 113.352V113.932C92.1193 114.426 92.2045 114.845 92.375 115.189C92.5483 115.53 92.7884 115.79 93.0952 115.969C93.402 116.145 93.7585 116.233 94.1648 116.233C94.429 116.233 94.6676 116.196 94.8807 116.122C95.0966 116.045 95.2827 115.932 95.4389 115.781C95.5952 115.628 95.7159 115.437 95.8011 115.21L96.7727 115.483C96.6705 115.812 96.4986 116.102 96.2571 116.352C96.0156 116.599 95.7173 116.793 95.3622 116.932C95.0071 117.068 94.608 117.136 94.1648 117.136ZM104.251 117.136C103.706 117.136 103.224 116.999 102.807 116.723C102.389 116.445 102.063 116.053 101.827 115.547C101.591 115.038 101.473 114.438 101.473 113.744C101.473 113.057 101.591 112.46 101.827 111.955C102.063 111.449 102.391 111.058 102.811 110.783C103.232 110.507 103.717 110.369 104.268 110.369C104.695 110.369 105.031 110.44 105.278 110.582C105.528 110.722 105.719 110.881 105.849 111.06C105.983 111.236 106.087 111.381 106.161 111.494H106.246V108.273H107.251V117H106.28V115.994H106.161C106.087 116.114 105.982 116.264 105.845 116.446C105.709 116.625 105.514 116.786 105.261 116.928C105.009 117.067 104.672 117.136 104.251 117.136ZM104.388 116.233C104.791 116.233 105.132 116.128 105.411 115.918C105.689 115.705 105.901 115.411 106.045 115.036C106.19 114.658 106.263 114.222 106.263 113.727C106.263 113.239 106.192 112.811 106.05 112.445C105.908 112.075 105.697 111.788 105.419 111.584C105.141 111.376 104.797 111.273 104.388 111.273C103.962 111.273 103.607 111.382 103.322 111.601C103.041 111.817 102.83 112.111 102.688 112.483C102.548 112.852 102.479 113.267 102.479 113.727C102.479 114.193 102.55 114.616 102.692 114.997C102.837 115.375 103.05 115.676 103.331 115.901C103.615 116.122 103.967 116.233 104.388 116.233ZM111.977 117.136C111.347 117.136 110.803 116.997 110.345 116.719C109.891 116.438 109.54 116.045 109.293 115.543C109.048 115.037 108.926 114.449 108.926 113.778C108.926 113.108 109.048 112.517 109.293 112.006C109.54 111.491 109.884 111.091 110.324 110.804C110.767 110.514 111.284 110.369 111.875 110.369C112.216 110.369 112.553 110.426 112.885 110.54C113.217 110.653 113.52 110.838 113.793 111.094C114.065 111.347 114.283 111.682 114.445 112.099C114.607 112.517 114.688 113.031 114.688 113.642V114.068H109.642V113.199H113.665C113.665 112.83 113.591 112.5 113.443 112.21C113.298 111.92 113.091 111.692 112.821 111.524C112.554 111.357 112.239 111.273 111.875 111.273C111.474 111.273 111.128 111.372 110.835 111.571C110.545 111.767 110.322 112.023 110.166 112.338C110.01 112.653 109.932 112.991 109.932 113.352V113.932C109.932 114.426 110.017 114.845 110.188 115.189C110.361 115.53 110.601 115.79 110.908 115.969C111.214 116.145 111.571 116.233 111.977 116.233C112.241 116.233 112.48 116.196 112.693 116.122C112.909 116.045 113.095 115.932 113.251 115.781C113.408 115.628 113.528 115.437 113.614 115.21L114.585 115.483C114.483 115.812 114.311 116.102 114.07 116.352C113.828 116.599 113.53 116.793 113.175 116.932C112.82 117.068 112.42 117.136 111.977 117.136ZM53.5103 134.455V125.455H54.4819V126.494H54.6012C54.6751 126.381 54.7773 126.236 54.908 126.06C55.0415 125.881 55.2319 125.722 55.479 125.582C55.729 125.44 56.0671 125.369 56.4933 125.369C57.0444 125.369 57.5302 125.507 57.9506 125.783C58.3711 126.058 58.6992 126.449 58.935 126.955C59.1708 127.46 59.2887 128.057 59.2887 128.744C59.2887 129.438 59.1708 130.038 58.935 130.547C58.6992 131.053 58.3725 131.445 57.9549 131.723C57.5373 131.999 57.0558 132.136 56.5103 132.136C56.0898 132.136 55.7532 132.067 55.5004 131.928C55.2475 131.786 55.0529 131.625 54.9165 131.446C54.7802 131.264 54.6751 131.114 54.6012 130.994H54.516V134.455H53.5103ZM54.4989 128.727C54.4989 129.222 54.5714 129.658 54.7163 130.036C54.8612 130.411 55.0728 130.705 55.3512 130.918C55.6296 131.128 55.9705 131.233 56.3739 131.233C56.7944 131.233 57.1452 131.122 57.4265 130.901C57.7106 130.676 57.9237 130.375 58.0657 129.997C58.2106 129.616 58.283 129.193 58.283 128.727C58.283 128.267 58.212 127.852 58.07 127.483C57.9308 127.111 57.7191 126.817 57.435 126.601C57.1538 126.382 56.8001 126.273 56.3739 126.273C55.9648 126.273 55.6211 126.376 55.3427 126.584C55.0643 126.788 54.854 127.075 54.712 127.445C54.57 127.811 54.4989 128.239 54.4989 128.727ZM63.5671 132.136C62.9364 132.136 62.3924 131.997 61.935 131.719C61.4805 131.438 61.1296 131.045 60.8825 130.543C60.6381 130.037 60.516 129.449 60.516 128.778C60.516 128.108 60.6381 127.517 60.8825 127.006C61.1296 126.491 61.4734 126.091 61.9137 125.804C62.3569 125.514 62.8739 125.369 63.4648 125.369C63.8058 125.369 64.1424 125.426 64.4748 125.54C64.8072 125.653 65.1097 125.838 65.3825 126.094C65.6552 126.347 65.8725 126.682 66.0344 127.099C66.1964 127.517 66.2773 128.031 66.2773 128.642V129.068H61.2319V128.199H65.2546C65.2546 127.83 65.1808 127.5 65.033 127.21C64.8881 126.92 64.6808 126.692 64.4109 126.524C64.1438 126.357 63.8285 126.273 63.4648 126.273C63.0643 126.273 62.7177 126.372 62.4251 126.571C62.1353 126.767 61.9123 127.023 61.756 127.338C61.5998 127.653 61.5217 127.991 61.5217 128.352V128.932C61.5217 129.426 61.6069 129.845 61.7773 130.189C61.9506 130.53 62.1907 130.79 62.4975 130.969C62.8043 131.145 63.1609 131.233 63.5671 131.233C63.8313 131.233 64.07 131.196 64.283 131.122C64.4989 131.045 64.685 130.932 64.8413 130.781C64.9975 130.628 65.1183 130.437 65.2035 130.21L66.1751 130.483C66.0728 130.812 65.9009 131.102 65.6594 131.352C65.418 131.599 65.1197 131.793 64.7646 131.932C64.4094 132.068 64.0103 132.136 63.5671 132.136ZM67.8072 132V125.455H68.7788V126.443H68.8469C68.9663 126.119 69.1822 125.857 69.4947 125.655C69.8072 125.453 70.1594 125.352 70.5515 125.352C70.6254 125.352 70.7177 125.354 70.8285 125.357C70.9393 125.359 71.0231 125.364 71.0799 125.369V126.392C71.0458 126.384 70.9677 126.371 70.8455 126.354C70.7262 126.334 70.5998 126.324 70.4663 126.324C70.1481 126.324 69.864 126.391 69.614 126.524C69.3668 126.655 69.1708 126.837 69.0259 127.07C68.8839 127.3 68.8129 127.562 68.8129 127.858V132H67.8072ZM76.9084 126.92L76.005 127.176C75.9482 127.026 75.8643 126.879 75.7536 126.737C75.6456 126.592 75.4979 126.473 75.3104 126.379C75.1229 126.286 74.8828 126.239 74.5902 126.239C74.1896 126.239 73.8558 126.331 73.5888 126.516C73.3246 126.697 73.1925 126.929 73.1925 127.21C73.1925 127.46 73.2834 127.658 73.4652 127.803C73.647 127.947 73.9311 128.068 74.3175 128.165L75.2891 128.403C75.8743 128.545 76.3104 128.763 76.5973 129.055C76.8842 129.345 77.0277 129.719 77.0277 130.176C77.0277 130.551 76.9197 130.886 76.7038 131.182C76.4908 131.477 76.1925 131.71 75.8089 131.881C75.4254 132.051 74.9794 132.136 74.4709 132.136C73.8033 132.136 73.2507 131.991 72.8132 131.702C72.3757 131.412 72.0987 130.989 71.9822 130.432L72.9368 130.193C73.0277 130.545 73.1996 130.81 73.4524 130.986C73.7081 131.162 74.0419 131.25 74.4538 131.25C74.9226 131.25 75.2947 131.151 75.5703 130.952C75.8487 130.75 75.9879 130.509 75.9879 130.227C75.9879 130 75.9084 129.81 75.7493 129.656C75.5902 129.5 75.3459 129.384 75.0163 129.307L73.9254 129.051C73.326 128.909 72.8857 128.689 72.6044 128.391C72.326 128.089 72.1868 127.713 72.1868 127.261C72.1868 126.892 72.2905 126.565 72.4979 126.281C72.7081 125.997 72.9936 125.774 73.3544 125.612C73.718 125.45 74.13 125.369 74.5902 125.369C75.2379 125.369 75.7464 125.511 76.1158 125.795C76.4879 126.08 76.7521 126.455 76.9084 126.92ZM81.2006 132.136C80.6097 132.136 80.0913 131.996 79.6452 131.714C79.2021 131.433 78.8555 131.04 78.6055 130.534C78.3583 130.028 78.2347 129.437 78.2347 128.761C78.2347 128.08 78.3583 127.484 78.6055 126.976C78.8555 126.467 79.2021 126.072 79.6452 125.791C80.0913 125.51 80.6097 125.369 81.2006 125.369C81.7915 125.369 82.3086 125.51 82.7518 125.791C83.1978 126.072 83.5444 126.467 83.7915 126.976C84.0415 127.484 84.1665 128.08 84.1665 128.761C84.1665 129.437 84.0415 130.028 83.7915 130.534C83.5444 131.04 83.1978 131.433 82.7518 131.714C82.3086 131.996 81.7915 132.136 81.2006 132.136ZM81.2006 131.233C81.6495 131.233 82.0188 131.118 82.3086 130.888C82.5984 130.658 82.8129 130.355 82.9521 129.98C83.0913 129.605 83.1609 129.199 83.1609 128.761C83.1609 128.324 83.0913 127.916 82.9521 127.538C82.8129 127.161 82.5984 126.855 82.3086 126.622C82.0188 126.389 81.6495 126.273 81.2006 126.273C80.7518 126.273 80.3825 126.389 80.0927 126.622C79.8029 126.855 79.5884 127.161 79.4492 127.538C79.31 127.916 79.2404 128.324 79.2404 128.761C79.2404 129.199 79.31 129.605 79.4492 129.98C79.5884 130.355 79.8029 130.658 80.0927 130.888C80.3825 131.118 80.7518 131.233 81.2006 131.233ZM86.7074 128.062V132H85.7017V125.455H86.6733V126.477H86.7585C86.9119 126.145 87.1449 125.878 87.4574 125.676C87.7699 125.472 88.1733 125.369 88.6676 125.369C89.1108 125.369 89.4986 125.46 89.831 125.642C90.1634 125.821 90.4219 126.094 90.6065 126.46C90.7912 126.824 90.8835 127.284 90.8835 127.841V132H89.8778V127.909C89.8778 127.395 89.7443 126.994 89.4773 126.707C89.2102 126.418 88.8438 126.273 88.3778 126.273C88.0568 126.273 87.7699 126.342 87.517 126.482C87.267 126.621 87.0696 126.824 86.9247 127.091C86.7798 127.358 86.7074 127.682 86.7074 128.062ZM94.6474 132.153C94.2326 132.153 93.8562 132.075 93.5181 131.919C93.18 131.76 92.9116 131.531 92.7127 131.233C92.5138 130.932 92.4144 130.568 92.4144 130.142C92.4144 129.767 92.4883 129.463 92.636 129.23C92.7837 128.994 92.9812 128.81 93.2283 128.676C93.4755 128.543 93.7482 128.443 94.0465 128.378C94.3477 128.31 94.6502 128.256 94.9542 128.216C95.3519 128.165 95.6744 128.126 95.9215 128.101C96.1715 128.072 96.3533 128.026 96.467 127.96C96.5835 127.895 96.6417 127.781 96.6417 127.619V127.585C96.6417 127.165 96.5266 126.838 96.2965 126.605C96.0692 126.372 95.7241 126.256 95.261 126.256C94.7809 126.256 94.4045 126.361 94.1317 126.571C93.859 126.781 93.6673 127.006 93.5565 127.244L92.6019 126.903C92.7724 126.506 92.9996 126.196 93.2837 125.974C93.5707 125.75 93.8832 125.594 94.2212 125.506C94.5621 125.415 94.8974 125.369 95.2269 125.369C95.4371 125.369 95.6786 125.395 95.9513 125.446C96.2269 125.494 96.4925 125.595 96.7482 125.749C97.0067 125.902 97.2212 126.134 97.3917 126.443C97.5621 126.753 97.6474 127.168 97.6474 127.688V132H96.6417V131.114H96.5906C96.5224 131.256 96.4087 131.408 96.2496 131.57C96.0906 131.732 95.8789 131.869 95.6147 131.983C95.3505 132.097 95.0281 132.153 94.6474 132.153ZM94.8008 131.25C95.1985 131.25 95.5337 131.172 95.8065 131.016C96.082 130.859 96.2894 130.658 96.4286 130.411C96.5707 130.163 96.6417 129.903 96.6417 129.631V128.71C96.5991 128.761 96.5053 128.808 96.3604 128.851C96.2184 128.891 96.0536 128.926 95.8661 128.957C95.6815 128.986 95.5011 129.011 95.3249 129.034C95.1516 129.054 95.011 129.071 94.9031 129.085C94.6417 129.119 94.3974 129.175 94.1701 129.251C93.9457 129.325 93.7638 129.437 93.6246 129.588C93.4883 129.736 93.4201 129.937 93.4201 130.193C93.4201 130.543 93.5494 130.807 93.8079 130.986C94.0692 131.162 94.4002 131.25 94.8008 131.25ZM100.489 123.273V132H99.483V123.273H100.489Z" fill="black"/>
</svg>
