<svg width="153" height="151" viewBox="0 0 153 151" fill="none" xmlns="http://www.w3.org/2000/svg">
<path d="M98.4657 18.39C100.022 18.7254 101.414 19.3338 102.467 20.6052C103.504 21.8493 103.891 23.3001 103.941 24.8679C104.253 34.4073 104.561 43.9428 104.873 53.4822C104.94 55.5648 105.033 57.6435 105.088 59.7261C105.1 60.1395 105.24 60.3228 105.638 60.4476C109.553 61.6956 111.164 65.7828 109.163 69.4098C108.968 69.7647 109.019 69.9714 109.261 70.2483C110.209 71.3286 111.125 72.4362 112.077 73.5165C113.57 75.213 114.565 77.1396 114.857 79.4016C114.869 79.4952 114.931 79.5849 114.967 79.6746C114.967 80.4663 114.967 81.2619 114.967 82.0536C114.924 82.1394 114.861 82.2252 114.846 82.3149C114.518 84.768 113.395 86.8116 111.655 88.5432C110.567 89.6274 109.471 90.7077 108.395 91.8036C106.562 93.6717 104.347 94.5726 101.73 94.5531C97.8144 94.5297 93.8988 94.5453 89.9832 94.5453H89.25V92.0571C90.0651 92.0571 90.8178 92.0571 91.6251 92.0571C91.6251 89.9628 91.6017 87.9621 91.6485 85.9575C91.6563 85.626 91.8669 85.2087 92.1243 84.9903C93.2748 84.0075 94.4721 83.0871 95.6499 82.1394C96.933 81.1098 97.83 79.8267 98.0406 78.1692C98.3643 75.6147 98.649 73.0524 98.9142 70.494C98.9493 70.1586 98.8557 69.753 98.6841 69.4605C97.2294 67.0074 97.5375 64.1292 99.5538 62.0856C99.936 61.6956 100.002 61.329 99.9126 60.8298C98.0796 50.6196 96.2622 40.4055 94.4214 30.1992C94.3512 29.8131 94.0665 29.4699 93.8871 29.115C93.6726 29.2086 93.618 29.2203 93.5829 29.2515C89.5308 33.2958 85.4787 37.344 81.4461 41.4078C81.3057 41.5521 81.2784 41.9499 81.3642 42.1605C82.4835 44.8866 81.3486 47.6478 78.5991 48.7398C78.2013 48.8997 78.0999 49.1064 78.1038 49.5042C78.1194 51.7116 78.1116 53.9151 78.1116 56.1225C78.1116 56.6139 78.1116 57.1053 78.1116 57.6084C78.2676 57.6435 78.3612 57.6708 78.4548 57.6825C80.7714 57.9321 81.8127 58.8915 82.2846 61.212C82.9632 64.5621 83.6847 67.9005 84.297 71.2623C84.7806 73.9065 85.6308 76.5 85.5216 79.2456C85.506 79.6551 85.7322 80.1465 85.9935 80.4819C87.5769 82.506 88.2477 84.7836 87.8226 87.3069C87.0972 91.6398 83.5989 94.5414 79.1529 94.5492C70.0815 94.5609 61.0101 94.5531 51.9387 94.5492C50.3046 94.5492 48.6627 94.6194 47.0325 94.5219C43.7292 94.323 41.2293 92.7357 39.7512 89.7678C38.2575 86.7726 38.4798 83.7774 40.422 81.0591C41.0772 80.1426 41.319 79.2885 41.3034 78.2121C41.2566 75.1623 41.2956 72.1125 41.2839 69.0666C41.2761 67.6236 41.748 66.4029 43.035 65.6853C43.6434 65.346 43.7877 64.956 43.7409 64.3437C43.5576 61.9881 45.2697 60.0888 47.9178 60.1473C52.0791 60.237 56.2443 60.1668 60.4095 60.1785C60.9009 60.1785 61.2012 60.0888 61.4508 59.5935C61.9539 58.5873 62.8275 57.9984 63.9429 57.7761C64.1535 57.7332 64.3602 57.6747 64.6098 57.6162V56.6919C64.6098 52.1055 64.6215 47.5191 64.6059 42.9327C64.5903 39.1731 66.1893 36.4041 69.4848 34.5477C76.1928 30.7686 82.8735 26.9349 89.5581 23.1168C91.005 22.29 92.5143 21.5841 93.5634 20.1528C94.3278 19.1076 95.6226 18.7683 96.8277 18.39C97.3737 18.39 97.9197 18.39 98.4618 18.39H98.4657ZM87.0972 32.2467C88.6572 30.6867 90.2016 29.115 91.785 27.5784C92.1438 27.2274 92.2023 26.9427 92.0307 26.4864C91.8318 25.9638 91.7499 25.3983 91.6017 24.7938C91.1415 25.0512 90.7125 25.2891 90.2874 25.5309C83.7315 29.2671 77.1795 33.015 70.6119 36.7317C68.2329 38.0772 67.0551 40.0428 67.0746 42.7884C67.1058 47.4684 67.0824 52.1523 67.0824 56.8362V57.6279C69.9528 57.6279 72.7803 57.6279 75.6897 57.6279C75.6897 56.4852 75.6897 55.3776 75.6897 54.27C75.6897 52.6827 75.678 51.0993 75.6975 49.512C75.7014 49.122 75.6156 48.9036 75.2139 48.7398C72.5073 47.6595 71.2827 44.7852 72.4098 42.2385C73.5525 39.6567 76.4424 38.5998 79.071 39.8049C79.1607 39.8478 79.2504 39.8829 79.4025 39.9492C81.9921 37.3596 84.5466 34.8012 87.1011 32.2467H87.0972ZM100.849 75.5484C100.732 76.5585 100.661 77.5725 100.494 78.5709C100.127 80.79 99.0312 82.5918 97.2723 83.9958C96.3441 84.7368 95.4042 85.4661 94.4994 86.2344C94.2849 86.4177 94.1874 86.7414 93.9417 87.1665C94.9479 87.1665 95.7045 87.1665 96.5001 87.1665V89.6196H94.1445V92.0181C94.2888 92.0415 94.4019 92.0766 94.5189 92.0766C97.167 92.0649 99.819 92.0688 102.467 92.0337C104.058 92.0103 105.376 91.3044 106.496 90.2202C107.74 89.0112 108.98 87.7983 110.17 86.5386C113.176 83.3601 113.309 78.957 110.501 75.4665C109.522 74.2497 108.481 73.0875 107.447 71.9175C107.319 71.7693 106.987 71.6094 106.866 71.6718C105.057 72.6195 103.224 72.6546 101.278 71.8083C101.129 73.0992 100.989 74.3238 100.849 75.5484ZM60.897 67.53C60.0936 67.53 59.3331 67.53 58.5219 67.53V65.1081H60.8931C60.8931 64.2423 60.8931 63.4662 60.8931 62.5965C60.5967 62.5965 60.3315 62.5965 60.0663 62.5965C56.1507 62.5965 52.2351 62.5965 48.3234 62.5965C46.4202 62.5965 46.0146 63.0645 46.2798 65.0691C49.4934 65.0691 57.6249 65.1081 60.8931 65.1081C60.8931 65.9583 60.2925 66.6876 60.2925 67.5261C59.9805 67.5261 55.4136 67.5105 55.1484 67.5105C51.9504 67.5105 48.7563 67.5105 45.5583 67.5105C44.127 67.5105 43.737 67.8966 43.737 69.3084C43.737 72.2295 43.737 75.1545 43.737 78.177C46.4124 76.9563 49.1931 77.397 51.9192 77.3463C54.618 77.2956 57.3207 77.3346 60.0195 77.3346H60.897C60.897 74.0118 60.897 70.8021 60.897 67.5261V67.53ZM78.9462 92.0883C81.5436 92.0883 83.5443 91.0587 84.7923 88.7304C86.6916 85.197 84.4647 80.6379 80.4945 79.9437C80.0577 79.8657 79.6092 79.8228 79.1646 79.8228C68.658 79.815 58.1475 79.8111 47.6409 79.8228C44.5482 79.8228 42.2784 81.5856 41.4711 84.5184C40.5234 87.9621 43.1988 91.8699 46.7556 91.9947C50.64 92.1351 54.5361 92.0649 58.4244 92.0805C60.0858 92.0883 61.7433 92.0805 63.4047 92.0805C68.5839 92.0805 73.7631 92.0766 78.9423 92.0805L78.9462 92.0883ZM64.3563 77.3385C68.6658 77.3385 72.9792 77.3424 77.2887 77.3385C79.1958 77.3385 81.1068 77.2761 82.971 78.177C82.971 77.7558 83.0256 77.4165 82.9632 77.1006C81.9336 71.8824 80.8884 66.6642 79.8432 61.4499C79.6482 60.4866 79.2543 60.1746 78.2403 60.1707C73.806 60.1668 69.3717 60.1668 64.9374 60.1707C63.8727 60.1707 63.3852 60.6036 63.3852 61.6176C63.3735 66.7461 63.3813 71.8746 63.3852 77.0031C63.3852 77.0733 63.4086 77.1435 63.4437 77.3385H64.3563ZM96.9993 30.6087C98.7777 40.5732 100.544 50.4558 102.307 60.3423C102.42 60.3306 102.537 60.3189 102.65 60.3072C102.307 50.0229 101.968 39.7347 101.621 29.3022C100.182 30.3357 98.7075 30.7959 96.9993 30.6087ZM103.914 69.9831C105.93 69.9909 107.588 68.3178 107.58 66.282C107.572 64.2735 105.973 62.6472 103.965 62.6082C101.968 62.5692 100.264 64.2501 100.248 66.2703C100.236 68.2944 101.898 69.9792 103.91 69.9831H103.914ZM97.7325 20.8704C95.7045 20.8977 94.1211 22.4967 94.1172 24.5247C94.1133 26.5644 95.7552 28.2141 97.7871 28.2102C99.8151 28.2063 101.457 26.5449 101.445 24.5052C101.434 22.4655 99.7722 20.8431 97.7325 20.8704ZM74.4534 44.1885C74.4534 45.5379 75.5766 46.6533 76.9221 46.6377C78.2403 46.6221 79.3245 45.5418 79.344 44.2158C79.3635 42.8586 78.2715 41.7471 76.9143 41.7393C75.5571 41.7315 74.4534 42.8313 74.4534 44.1885Z" fill="#424242"/>
<path d="M53.6079 72.3933C55.2303 72.3933 56.802 72.3933 58.4244 72.3933V70.0455C56.841 70.0455 55.2498 70.0455 53.6079 70.0455V72.3933Z" fill="#424242"/>
<path d="M51.0884 72.3777V70.0455C49.4699 70.0455 47.8787 70.0455 46.2485 70.0455V72.3777C47.8631 72.3777 49.4387 72.3777 51.0884 72.3777Z" fill="#424242"/>
<path d="M81.6762 82.5762C83.3922 84.4131 83.4741 87.1704 81.879 89.0814C81.099 90.0135 80.1084 90.5985 78.9189 90.7818C77.16 91.0548 75.6702 90.4503 74.4339 89.1711C73.3926 90.2436 72.2031 90.8325 70.7601 90.8403C69.2937 90.8481 68.0964 90.2124 67.0902 89.1984C65.0622 91.2147 62.1567 91.554 59.6997 89.2335C57.231 91.4292 54.7545 91.4019 52.3092 89.214C49.9068 91.6086 46.9038 91.0548 45.2697 89.4948C43.4835 87.7905 43.2495 84.9552 44.7432 83.0052C45.4998 82.0185 46.4787 81.3906 47.6916 81.1527C49.5129 80.7978 51.0339 81.4257 52.3521 82.7205C53.37 81.6285 54.5907 81.0591 56.0103 81.0474C57.4572 81.0396 58.6818 81.6597 59.7075 82.7322C60.7293 81.6363 61.9461 81.0591 63.3696 81.0474C64.8165 81.0357 66.0411 81.6558 67.0395 82.6815C69.2547 80.6223 72.0198 80.4039 74.4456 82.6542C77.2419 80.595 79.7964 80.5677 81.6723 82.5762H81.6762ZM53.565 86.0043C53.6001 87.3108 54.7194 88.4106 56.0181 88.4106C57.3597 88.4106 58.4712 87.2835 58.4595 85.9341C58.4517 84.5691 57.3597 83.5044 55.983 83.5161C54.6219 83.5317 53.5299 84.6588 53.565 86.0043ZM70.7484 83.5161C69.3873 83.5161 68.2797 84.6354 68.2992 85.977C68.3187 87.2796 69.4263 88.3872 70.7289 88.4067C72.0666 88.4262 73.1898 87.3108 73.1937 85.9575C73.1937 84.5847 72.1212 83.5083 70.7484 83.5122V83.5161ZM78.135 88.4106C79.4649 88.4106 80.6076 87.2484 80.5881 85.9263C80.5686 84.6003 79.4922 83.5278 78.1623 83.5161C76.7817 83.5044 75.7014 84.5652 75.6975 85.938C75.6936 87.303 76.7895 88.4145 78.1389 88.4106H78.135ZM60.9594 85.9731C60.9672 87.3303 62.0904 88.4379 63.432 88.4106C64.7385 88.3833 65.8383 87.2718 65.85 85.9692C65.8617 84.6198 64.7541 83.5161 63.3891 83.52C62.0124 83.52 60.9516 84.5964 60.9594 85.977V85.9731ZM48.6744 88.4106C50.0199 88.395 51.1275 87.2523 51.1002 85.9146C51.0729 84.5808 50.0043 83.5278 48.6705 83.52C47.2938 83.5122 46.2174 84.5808 46.2213 85.9575C46.2213 87.3186 47.3328 88.4301 48.6744 88.4145V88.4106Z" fill="#424242"/>
<path d="M64.6682 62.6277C69.1025 62.6277 73.4783 62.6277 77.8385 62.6277C78.7706 65.3421 79.5545 70.6578 79.2659 72.3777C74.4104 72.3777 69.551 72.3777 64.6682 72.3777C64.6682 69.1056 64.6682 65.8764 64.6682 62.6277ZM67.1213 65.112V69.9324C70.3466 69.9324 73.5758 69.9324 76.8635 69.9324C76.5359 68.3061 76.2161 66.711 75.8963 65.112C72.9401 65.112 70.0502 65.112 67.1213 65.112Z" fill="#424242"/>
<path d="M47.3745 111H46.3176C46.2551 110.696 46.1458 110.429 45.9895 110.199C45.8361 109.969 45.6486 109.776 45.427 109.619C45.2083 109.46 44.9654 109.341 44.6983 109.261C44.4313 109.182 44.1529 109.142 43.8631 109.142C43.3347 109.142 42.856 109.276 42.427 109.543C42.0009 109.81 41.6614 110.203 41.4086 110.723C41.1586 111.243 41.0336 111.881 41.0336 112.636C41.0336 113.392 41.1586 114.03 41.4086 114.55C41.6614 115.07 42.0009 115.463 42.427 115.73C42.856 115.997 43.3347 116.131 43.8631 116.131C44.1529 116.131 44.4313 116.091 44.6983 116.011C44.9654 115.932 45.2083 115.814 45.427 115.658C45.6486 115.499 45.8361 115.304 45.9895 115.074C46.1458 114.841 46.2551 114.574 46.3176 114.273H47.3745C47.2949 114.719 47.15 115.118 46.9398 115.47C46.7296 115.822 46.4682 116.122 46.1557 116.369C45.8432 116.614 45.4924 116.8 45.1032 116.928C44.7168 117.055 44.3034 117.119 43.8631 117.119C43.1188 117.119 42.4569 116.938 41.8773 116.574C41.2978 116.21 40.8418 115.693 40.5094 115.023C40.177 114.352 40.0108 113.557 40.0108 112.636C40.0108 111.716 40.177 110.92 40.5094 110.25C40.8418 109.58 41.2978 109.062 41.8773 108.699C42.4569 108.335 43.1188 108.153 43.8631 108.153C44.3034 108.153 44.7168 108.217 45.1032 108.345C45.4924 108.473 45.8432 108.661 46.1557 108.908C46.4682 109.152 46.7296 109.45 46.9398 109.803C47.15 110.152 47.2949 110.551 47.3745 111ZM51.6049 117.136C51.014 117.136 50.4956 116.996 50.0495 116.714C49.6064 116.433 49.2598 116.04 49.0098 115.534C48.7626 115.028 48.639 114.437 48.639 113.761C48.639 113.08 48.7626 112.484 49.0098 111.976C49.2598 111.467 49.6064 111.072 50.0495 110.791C50.4956 110.51 51.014 110.369 51.6049 110.369C52.1958 110.369 52.7129 110.51 53.1561 110.791C53.6021 111.072 53.9487 111.467 54.1958 111.976C54.4458 112.484 54.5708 113.08 54.5708 113.761C54.5708 114.437 54.4458 115.028 54.1958 115.534C53.9487 116.04 53.6021 116.433 53.1561 116.714C52.7129 116.996 52.1958 117.136 51.6049 117.136ZM51.6049 116.233C52.0538 116.233 52.4231 116.118 52.7129 115.888C53.0027 115.658 53.2172 115.355 53.3564 114.98C53.4956 114.605 53.5652 114.199 53.5652 113.761C53.5652 113.324 53.4956 112.916 53.3564 112.538C53.2172 112.161 53.0027 111.855 52.7129 111.622C52.4231 111.389 52.0538 111.273 51.6049 111.273C51.1561 111.273 50.7868 111.389 50.497 111.622C50.2072 111.855 49.9927 112.161 49.8535 112.538C49.7143 112.916 49.6447 113.324 49.6447 113.761C49.6447 114.199 49.7143 114.605 49.8535 114.98C49.9927 115.355 50.2072 115.658 50.497 115.888C50.7868 116.118 51.1561 116.233 51.6049 116.233ZM57.1117 113.062V117H56.106V110.455H57.0776V111.477H57.1628C57.3162 111.145 57.5492 110.878 57.8617 110.676C58.1742 110.472 58.5776 110.369 59.0719 110.369C59.5151 110.369 59.9029 110.46 60.2353 110.642C60.5676 110.821 60.8262 111.094 61.0108 111.46C61.1955 111.824 61.2878 112.284 61.2878 112.841V117H60.2821V112.909C60.2821 112.395 60.1486 111.994 59.8816 111.707C59.6145 111.418 59.248 111.273 58.7821 111.273C58.4611 111.273 58.1742 111.342 57.9213 111.482C57.6713 111.621 57.4739 111.824 57.329 112.091C57.1841 112.358 57.1117 112.682 57.1117 113.062ZM67.7619 111.92L66.8585 112.176C66.8017 112.026 66.7179 111.879 66.6071 111.737C66.4991 111.592 66.3514 111.473 66.1639 111.379C65.9764 111.286 65.7363 111.239 65.4437 111.239C65.0431 111.239 64.7093 111.331 64.4423 111.516C64.1781 111.697 64.046 111.929 64.046 112.21C64.046 112.46 64.1369 112.658 64.3187 112.803C64.5005 112.947 64.7846 113.068 65.171 113.165L66.1426 113.403C66.7278 113.545 67.1639 113.763 67.4508 114.055C67.7377 114.345 67.8812 114.719 67.8812 115.176C67.8812 115.551 67.7733 115.886 67.5574 116.182C67.3443 116.477 67.046 116.71 66.6625 116.881C66.2789 117.051 65.8329 117.136 65.3244 117.136C64.6568 117.136 64.1042 116.991 63.6667 116.702C63.2292 116.412 62.9522 115.989 62.8358 115.432L63.7903 115.193C63.8812 115.545 64.0531 115.81 64.3059 115.986C64.5616 116.162 64.8954 116.25 65.3074 116.25C65.7761 116.25 66.1483 116.151 66.4238 115.952C66.7022 115.75 66.8414 115.509 66.8414 115.227C66.8414 115 66.7619 114.81 66.6028 114.656C66.4437 114.5 66.1994 114.384 65.8699 114.307L64.7789 114.051C64.1795 113.909 63.7392 113.689 63.4579 113.391C63.1795 113.089 63.0403 112.713 63.0403 112.261C63.0403 111.892 63.144 111.565 63.3514 111.281C63.5616 110.997 63.8471 110.774 64.2079 110.612C64.5716 110.45 64.9835 110.369 65.4437 110.369C66.0914 110.369 66.6 110.511 66.9693 110.795C67.3414 111.08 67.6056 111.455 67.7619 111.92ZM72.2417 110.455V111.307H68.8496V110.455H72.2417ZM69.8382 108.886H70.8439V115.125C70.8439 115.409 70.8851 115.622 70.9675 115.764C71.0527 115.903 71.1607 115.997 71.2914 116.045C71.4249 116.091 71.5655 116.114 71.7132 116.114C71.824 116.114 71.915 116.108 71.986 116.097C72.057 116.082 72.1138 116.071 72.1564 116.062L72.361 116.966C72.2928 116.991 72.1976 117.017 72.0755 117.043C71.9533 117.071 71.7985 117.085 71.611 117.085C71.3269 117.085 71.0485 117.024 70.7757 116.902C70.5059 116.78 70.2814 116.594 70.1025 116.344C69.9263 116.094 69.8382 115.778 69.8382 115.398V108.886ZM73.7544 117V110.455H74.726V111.443H74.7942C74.9135 111.119 75.1294 110.857 75.4419 110.655C75.7544 110.453 76.1067 110.352 76.4988 110.352C76.5726 110.352 76.665 110.354 76.7757 110.357C76.8865 110.359 76.9703 110.364 77.0272 110.369V111.392C76.9931 111.384 76.915 111.371 76.7928 111.354C76.6735 111.334 76.5471 111.324 76.4135 111.324C76.0953 111.324 75.8113 111.391 75.5613 111.524C75.3141 111.655 75.1181 111.837 74.9732 112.07C74.8311 112.3 74.7601 112.562 74.7601 112.858V117H73.7544ZM82.3443 114.324V110.455H83.35V117H82.3443V115.892H82.2761C82.1227 116.224 81.8841 116.507 81.5602 116.74C81.2363 116.97 80.8272 117.085 80.3329 117.085C79.9238 117.085 79.5602 116.996 79.242 116.817C78.9238 116.635 78.6738 116.362 78.492 115.999C78.3102 115.632 78.2193 115.17 78.2193 114.614V110.455H79.225V114.545C79.225 115.023 79.3585 115.403 79.6255 115.688C79.8954 115.972 80.2392 116.114 80.6568 116.114C80.9068 116.114 81.161 116.05 81.4196 115.922C81.6809 115.794 81.8997 115.598 82.0758 115.334C82.2548 115.07 82.3443 114.733 82.3443 114.324ZM87.851 117.136C87.2374 117.136 86.709 116.991 86.2658 116.702C85.8226 116.412 85.4817 116.013 85.2431 115.504C85.0044 114.996 84.8851 114.415 84.8851 113.761C84.8851 113.097 85.0073 112.51 85.2516 112.001C85.4988 111.49 85.8425 111.091 86.2828 110.804C86.726 110.514 87.2431 110.369 87.834 110.369C88.2942 110.369 88.709 110.455 89.0783 110.625C89.4476 110.795 89.7502 111.034 89.986 111.341C90.2218 111.648 90.3681 112.006 90.4249 112.415H89.4192C89.3425 112.116 89.1721 111.852 88.9078 111.622C88.6465 111.389 88.2942 111.273 87.851 111.273C87.459 111.273 87.1152 111.375 86.8198 111.58C86.5272 111.781 86.2985 112.067 86.1337 112.436C85.9718 112.803 85.8908 113.233 85.8908 113.727C85.8908 114.233 85.9703 114.673 86.1294 115.048C86.2914 115.423 86.5186 115.714 86.8113 115.922C87.1067 116.129 87.4533 116.233 87.851 116.233C88.1124 116.233 88.3496 116.188 88.5627 116.097C88.7757 116.006 88.9561 115.875 89.1039 115.705C89.2516 115.534 89.3567 115.33 89.4192 115.091H90.4249C90.3681 115.477 90.2275 115.825 90.003 116.135C89.7814 116.442 89.4874 116.686 89.1209 116.868C88.7573 117.047 88.334 117.136 87.851 117.136ZM94.5542 117.136C93.9405 117.136 93.4121 116.991 92.9689 116.702C92.5257 116.412 92.1848 116.013 91.9462 115.504C91.7076 114.996 91.5882 114.415 91.5882 113.761C91.5882 113.097 91.7104 112.51 91.9547 112.001C92.2019 111.49 92.5456 111.091 92.986 110.804C93.4292 110.514 93.9462 110.369 94.5371 110.369C94.9973 110.369 95.4121 110.455 95.7814 110.625C96.1507 110.795 96.4533 111.034 96.6891 111.341C96.9249 111.648 97.0712 112.006 97.128 112.415H96.1223C96.0456 112.116 95.8752 111.852 95.611 111.622C95.3496 111.389 94.9973 111.273 94.5542 111.273C94.1621 111.273 93.8184 111.375 93.5229 111.58C93.2303 111.781 93.0016 112.067 92.8368 112.436C92.6749 112.803 92.5939 113.233 92.5939 113.727C92.5939 114.233 92.6735 114.673 92.8326 115.048C92.9945 115.423 93.2218 115.714 93.5144 115.922C93.8098 116.129 94.1564 116.233 94.5542 116.233C94.8155 116.233 95.0527 116.188 95.2658 116.097C95.4789 116.006 95.6593 115.875 95.807 115.705C95.9547 115.534 96.0598 115.33 96.1223 115.091H97.128C97.0712 115.477 96.9306 115.825 96.7061 116.135C96.4846 116.442 96.1905 116.686 95.824 116.868C95.4604 117.047 95.0371 117.136 94.5542 117.136ZM98.5982 117V110.455H99.6039V117H98.5982ZM99.1096 109.364C98.9135 109.364 98.7445 109.297 98.6025 109.163C98.4632 109.03 98.3936 108.869 98.3936 108.682C98.3936 108.494 98.4632 108.334 98.6025 108.2C98.7445 108.067 98.9135 108 99.1096 108C99.3056 108 99.4732 108.067 99.6124 108.2C99.7544 108.334 99.8255 108.494 99.8255 108.682C99.8255 108.869 99.7544 109.03 99.6124 109.163C99.4732 109.297 99.3056 109.364 99.1096 109.364ZM104.105 117.136C103.514 117.136 102.996 116.996 102.55 116.714C102.106 116.433 101.76 116.04 101.51 115.534C101.263 115.028 101.139 114.437 101.139 113.761C101.139 113.08 101.263 112.484 101.51 111.976C101.76 111.467 102.106 111.072 102.55 110.791C102.996 110.51 103.514 110.369 104.105 110.369C104.696 110.369 105.213 110.51 105.656 110.791C106.102 111.072 106.449 111.467 106.696 111.976C106.946 112.484 107.071 113.08 107.071 113.761C107.071 114.437 106.946 115.028 106.696 115.534C106.449 116.04 106.102 116.433 105.656 116.714C105.213 116.996 104.696 117.136 104.105 117.136ZM104.105 116.233C104.554 116.233 104.923 116.118 105.213 115.888C105.503 115.658 105.717 115.355 105.856 114.98C105.996 114.605 106.065 114.199 106.065 113.761C106.065 113.324 105.996 112.916 105.856 112.538C105.717 112.161 105.503 111.855 105.213 111.622C104.923 111.389 104.554 111.273 104.105 111.273C103.656 111.273 103.287 111.389 102.997 111.622C102.707 111.855 102.493 112.161 102.354 112.538C102.214 112.916 102.145 113.324 102.145 113.761C102.145 114.199 102.214 114.605 102.354 114.98C102.493 115.355 102.707 115.658 102.997 115.888C103.287 116.118 103.656 116.233 104.105 116.233ZM103.645 109.568L104.684 107.591H105.861L104.531 109.568H103.645ZM109.612 113.062V117H108.606V110.455H109.578V111.477H109.663C109.816 111.145 110.049 110.878 110.362 110.676C110.674 110.472 111.078 110.369 111.572 110.369C112.015 110.369 112.403 110.46 112.735 110.642C113.068 110.821 113.326 111.094 113.511 111.46C113.695 111.824 113.788 112.284 113.788 112.841V117H112.782V112.909C112.782 112.395 112.649 111.994 112.382 111.707C112.115 111.418 111.748 111.273 111.282 111.273C110.961 111.273 110.674 111.342 110.421 111.482C110.171 111.621 109.974 111.824 109.829 112.091C109.684 112.358 109.612 112.682 109.612 113.062Z" fill="black"/>
</svg>
