<svg width="153" height="151" viewBox="0 0 153 151" fill="none" xmlns="http://www.w3.org/2000/svg">
<path d="M75.3 149.5C116.335 149.5 149.6 116.235 149.6 75.2C149.6 34.1653 116.335 0.900024 75.3 0.900024C34.2652 0.900024 1 34.1653 1 75.2C1 116.235 34.2652 149.5 75.3 149.5Z" fill="#004C98"/>
<path d="M29.3888 89.2992C29.8208 88.5312 30.3968 88.2432 31.2608 88.2432H45.1808C46.0448 88.3392 46.6208 88.9632 46.6208 89.7792C46.5728 90.5952 45.9968 91.1712 45.0848 91.1712C43.3088 91.2192 41.5808 91.1712 39.8048 91.1712H38.7488V94.5792H46.6208C47.1488 94.5792 47.3408 94.4352 47.5808 93.9552C49.3088 90.2592 52.1888 88.2432 56.2688 88.2432C60.3488 88.2432 63.1808 90.2592 64.8608 93.9072C65.0528 94.3392 65.2928 94.5792 65.8208 94.5792H95.3408C95.4848 94.5792 95.6288 94.5792 95.9168 94.5312V93.5232C95.9168 90.2592 95.8688 87.0432 95.9648 83.7792C95.9648 83.2032 96.3008 82.4832 96.6848 82.1472C97.5968 81.4272 98.8448 82.2432 98.8928 83.4912C98.9408 85.7472 98.8928 88.0032 98.8928 90.2592V93.7632C98.8928 94.0032 99.0848 94.2912 99.1808 94.5312C99.4208 94.3392 99.7088 94.1952 99.8528 93.9072C101.149 91.1232 103.261 89.2032 106.237 88.4832C110.653 87.3792 115.117 89.5392 117.037 93.7152C117.325 94.3392 117.613 94.6272 118.333 94.5312C119.293 94.4832 120.253 94.5312 121.213 94.5312V87.9552H119.341C116.893 87.8592 115.021 85.9392 114.925 83.4432C114.877 82.3872 114.877 81.3312 114.925 80.2752C114.925 79.1712 115.501 78.6432 116.605 78.6432H120.829C120.541 77.0112 118.861 75.3792 116.989 75.3312C110.989 75.2352 104.989 75.2832 98.8448 75.2832V76.8672C98.7968 77.7792 98.2688 78.3552 97.4528 78.4032C96.6368 78.4512 95.9648 77.8272 95.9168 76.9152V49.8912H38.7008V76.8672C38.6528 77.7792 38.0768 78.3552 37.2608 78.4032C36.4448 78.4032 35.8208 77.8272 35.7248 76.9632C35.6768 76.6752 35.7248 76.3872 35.7248 76.1472V50.6592C35.7248 48.0672 36.8768 46.9152 39.4208 46.9152H95.1488C97.7408 46.9152 98.8448 48.0192 98.8448 50.6592V53.2032C99.2288 53.2032 99.5648 53.2512 99.9008 53.2512C103.069 53.2512 106.237 53.2992 109.453 53.2512C113.485 53.1552 116.941 55.9872 116.221 61.3632C116.173 61.8432 115.645 62.2752 115.213 62.8992C115.933 65.7312 116.701 68.8512 117.469 71.9232C117.517 72.1632 117.853 72.4512 118.141 72.5472C121.933 73.6032 124.189 76.4832 124.237 80.4192V95.6352C124.237 97.0752 123.709 97.5552 122.269 97.5552H117.949C117.805 100.723 116.605 103.363 114.013 105.235C112.189 106.579 110.173 107.155 107.917 107.059C104.077 106.867 99.4208 103.987 98.9888 97.6512H65.6288C65.4848 100.915 64.1408 103.603 61.4048 105.475C59.5808 106.723 57.5648 107.251 55.3568 107.059C51.1328 106.675 47.0528 103.411 46.7168 97.6512C46.4288 97.6512 46.1408 97.6032 45.8528 97.6032C44.1248 97.6032 42.3968 97.5072 40.6688 97.6032C36.7808 97.7952 35.3888 96.7872 35.6768 92.5152C35.7248 92.1312 35.6768 91.6992 35.6768 91.2192C34.1888 91.2192 32.7968 91.1712 31.3568 91.2192C30.4448 91.2672 29.8208 90.9792 29.3408 90.2112C29.3888 89.8752 29.3888 89.5872 29.3888 89.2992ZM98.8928 72.3552H114.397C114.349 72.1152 114.397 71.9232 114.349 71.7792C113.677 69.0432 112.957 66.2592 112.285 63.5232C112.141 62.8992 111.901 62.7072 111.229 62.7072C107.389 62.7552 103.597 62.7072 99.7568 62.7072C99.4688 62.7072 99.2288 62.7552 98.8928 62.7552V72.3552ZM108.445 104.083C111.949 104.083 114.877 101.203 114.877 97.6512C114.877 94.0992 111.997 91.2192 108.493 91.1712C104.941 91.1232 101.965 94.0992 102.013 97.6512C102.061 101.203 104.941 104.083 108.445 104.083ZM56.1728 104.131C59.6768 104.131 62.6048 101.299 62.6528 97.7472C62.7008 94.1952 59.7728 91.2192 56.2208 91.2672C52.7168 91.2672 49.7888 94.1952 49.7888 97.6992C49.7888 101.203 52.6688 104.083 56.1728 104.131ZM113.245 59.6352C113.245 57.6672 111.901 56.3232 109.837 56.3232H99.5648C99.3248 56.3232 99.0848 56.3712 98.8928 56.4192V59.6832C103.693 59.6352 108.445 59.6352 113.245 59.6352ZM117.997 81.7152C117.565 84.4992 118.621 85.5552 121.165 84.8832V81.7152H117.997Z" fill="white"/>
<path d="M65.5807 75.0432C69.7087 70.8672 73.6447 66.9312 77.5807 62.9952C78.0127 62.5632 78.3967 62.1312 78.8287 61.7472C79.5487 61.0752 80.3647 61.0752 80.9887 61.6512C81.6127 62.2272 81.6127 63.1392 80.8927 63.8592C78.5887 66.2112 76.2847 68.5152 73.9807 70.8192C71.6767 73.1232 69.4207 75.4272 67.1167 77.6832C66.0607 78.7392 65.3887 78.7392 64.3807 77.6832C61.9327 75.2352 59.4847 72.7872 57.0367 70.3392C56.5087 69.8112 56.1727 69.2832 56.4607 68.5152C56.8447 67.4112 58.0927 67.1712 59.0047 68.0832C60.9727 70.0032 62.8927 71.9712 64.8127 73.9392C65.0527 74.2752 65.2927 74.6592 65.5807 75.0432Z" fill="white"/>
<path d="M79.9329 91.2192H69.5649C69.2289 91.2192 68.8929 91.2192 68.5569 91.1712C67.8369 91.0272 67.3569 90.4992 67.4529 89.8272C67.5489 89.2992 67.9809 88.8192 68.4129 88.4352C68.6529 88.2432 69.1329 88.2912 69.4689 88.2912H91.1169C91.9809 88.3872 92.5569 89.0592 92.5089 89.8752C92.4609 90.6432 91.8849 91.2192 91.0209 91.2672C89.8689 91.3152 88.7169 91.2672 87.6129 91.2672C85.0689 91.2192 82.5249 91.2192 79.9329 91.2192Z" fill="white"/>
<path d="M43.4529 84.8352H34.3809C33.2289 84.8352 32.5569 84.2592 32.5569 83.3472C32.5569 82.4352 33.2769 81.8592 34.4289 81.8592H52.7649C53.4849 81.8592 54.1089 82.0032 54.3489 82.7232C54.4929 83.1552 54.4929 83.8752 54.2529 84.1632C53.9169 84.5472 53.2929 84.7872 52.7649 84.8352C49.6449 84.8832 46.5729 84.8352 43.4529 84.8352Z" fill="white"/>
<path d="M56.2303 93.0816C53.6623 93.0816 51.6655 95.1504 51.6655 97.6464C51.6655 100.142 53.7343 102.211 56.2303 102.211C58.7263 102.211 60.7231 100.142 60.7231 97.6464C60.7231 95.1504 58.7263 93.0816 56.2303 93.0816ZM56.2351 99.984C54.9823 99.984 53.9503 98.9472 53.9503 97.6992C53.9503 96.4512 54.9487 95.4144 56.2351 95.4144C57.5215 95.4144 58.4863 96.4128 58.4863 97.6992C58.4863 98.9856 57.4879 99.984 56.2351 99.984Z" fill="white"/>
<path d="M108.478 93.1296C105.91 93.1296 103.914 95.1984 103.914 97.6944C103.914 100.19 105.982 102.259 108.478 102.259C110.974 102.259 112.971 100.19 112.971 97.6944C112.971 95.1984 110.974 93.1296 108.478 93.1296ZM108.483 100.032C107.23 100.032 106.198 98.9952 106.198 97.7472C106.198 96.4992 107.197 95.4624 108.483 95.4624C109.736 95.4624 110.734 96.4608 110.734 97.7472C110.734 99.0336 109.736 100.032 108.483 100.032Z" fill="white"/>
</svg>
