<svg width="153" height="151" viewBox="0 0 153 151" fill="none" xmlns="http://www.w3.org/2000/svg">
<path d="M42.0913 63.0226C42.2264 62.5663 42.3359 62.0991 42.5001 61.6538C43.6353 58.5039 45.9056 56.7446 49.2417 56.1861C49.2526 56.062 49.2855 55.8868 49.2891 55.7116C49.2928 54.2626 49.3001 52.8135 49.2891 51.3645C49.2782 50.0505 48.5226 49.2183 47.2196 49.0504C47.1064 49.0358 46.9896 49.0248 46.8801 49.0029C46.2122 48.8533 45.8362 48.3459 45.9165 47.7072C45.9895 47.1013 46.4421 46.718 47.1101 46.6961C49.3731 46.6231 51.5156 48.5613 51.6215 50.8608C51.6908 52.3536 51.647 53.8501 51.6543 55.3466C51.6543 55.5912 51.6543 55.8394 51.6543 56.1241H53.4757C53.4757 55.1787 53.4757 54.2443 53.4757 53.3136C53.4757 51.9229 53.7969 51.6017 55.1766 51.6017C57.8922 51.6017 60.6041 51.6017 63.3197 51.6017C64.5096 51.6017 64.871 51.974 64.871 53.1785C64.871 54.1421 64.871 55.1021 64.871 56.1131H67.1814C67.1814 55.8576 67.1814 55.6094 67.1814 55.3649C67.1814 53.1092 67.1778 50.8571 67.1814 48.6014C67.1814 47.4809 67.6012 47.0721 68.7327 47.0648C70.4117 47.0538 72.0907 47.0721 73.7697 47.0319C74.0361 47.0246 74.3938 46.8531 74.5398 46.6414C78.9308 40.3707 83.3035 34.089 87.6652 27.7964C87.8222 27.5701 87.8988 27.2562 87.9207 26.9752C88.1215 24.6136 89.2566 22.8653 91.4393 21.9455C93.6293 21.022 95.6587 21.4491 97.4837 22.9748C97.7502 23.1974 98.159 23.358 98.5057 23.3617C102.024 23.3909 105.543 23.3617 109.062 23.3909C110.704 23.4055 112.095 24.4822 112.587 26.0079C113.087 27.5665 112.551 29.2674 111.23 30.2529C110.525 30.7785 109.726 31.0194 108.846 31.0121C107.536 31.0048 106.225 31.0194 104.915 31.0267C104.875 31.0267 104.835 31.0668 104.725 31.1252C104.725 31.3114 104.725 31.534 104.725 31.7603C104.725 34.6584 104.736 37.5565 104.714 40.4546C104.711 40.951 104.864 41.1518 105.342 41.3124C108.788 42.484 110.31 46.3676 108.613 49.5833C108.529 49.7439 108.437 49.9008 108.324 50.1016C109.08 50.6929 109.802 51.2915 110.562 51.839C111.098 52.2259 111.325 52.7113 111.31 53.3647C111.284 54.4925 111.328 55.6204 111.292 56.7446C111.277 57.1424 111.186 57.5731 111.014 57.9308C109.339 61.4056 107.634 64.8658 105.959 68.3443C105.631 69.0305 105.152 69.3626 104.393 69.3334C103.751 69.3079 103.105 69.3298 102.462 69.3261C101.853 69.3261 101.418 69.067 101.145 68.5049C99.4073 64.9315 97.6553 61.3655 95.9288 57.7848C95.7755 57.4673 95.7135 57.0804 95.7062 56.7227C95.677 55.6204 95.7135 54.5144 95.6916 53.4121C95.677 52.7332 95.9069 52.2259 96.469 51.8244C97.2319 51.2805 97.9619 50.6856 98.7247 50.0979C97.7648 48.5613 97.4363 46.9516 97.9327 45.2434C98.513 43.2469 99.8234 41.9146 101.794 41.254C102.112 41.1481 102.302 41.0605 102.302 40.6663C102.283 37.5383 102.291 34.4102 102.287 31.2822C102.287 31.2165 102.258 31.1508 102.225 31.0084C100.842 31.0084 99.4438 31.0011 98.0495 31.023C97.8998 31.023 97.7538 31.2128 97.6005 31.3004C96.7939 31.764 95.9763 32.2129 95.1769 32.6947C94.9251 32.8444 94.6258 33.0305 94.509 33.2787C91.9248 38.8121 89.3588 44.3565 86.8111 49.9118C86.7016 50.149 86.7308 50.5396 86.8513 50.7805C87.3586 51.8098 87.6652 52.8683 87.6616 54.0217C87.6543 59.566 87.6616 65.1067 87.6579 70.6511C87.6579 71.757 87.2856 72.1184 86.1541 72.1184C84.2926 72.1184 82.4311 72.1184 80.5222 72.1184V74.7208C81.4639 74.7208 82.38 74.7208 83.2925 74.7208C88.0704 74.7281 91.7788 78.1372 92.1657 82.8713C92.5234 87.244 89.3333 91.2042 84.7963 92.0218C84.6868 92.0401 84.581 92.0948 84.4751 92.135H49.6833C49.5592 92.0912 49.4351 92.0291 49.3037 92.0036C46.5626 91.4853 44.4784 90.018 43.1681 87.5688C42.668 86.6344 42.4417 85.5577 42.0913 84.543C42.0913 83.7619 42.0913 82.9771 42.0913 82.196C42.1315 82.1157 42.1899 82.0427 42.2081 81.9588C43.1243 77.4839 46.5151 74.7208 51.0959 74.7208C51.9609 74.7208 52.8296 74.7208 53.7312 74.7208V72.1184C53.4246 72.1184 53.1764 72.1184 52.9245 72.1184C49.8476 72.1184 46.7743 72.1038 43.6973 72.1293C43.0257 72.1366 42.4892 71.9797 42.0913 71.4322C42.0913 68.6253 42.0913 65.8185 42.0913 63.0116V63.0226ZM67.0902 89.6822C72.5396 89.6822 77.9891 89.7077 83.4385 89.6749C87.7419 89.6493 90.702 85.5759 89.4172 81.5171C88.5631 78.8234 86.1614 77.1481 83.0772 77.1481C72.4301 77.1408 61.7831 77.1444 51.1397 77.1481C50.771 77.1481 50.406 77.1809 50.0374 77.2174C46.4567 77.5897 43.8908 81.1375 44.6463 84.6707C45.2887 87.6747 47.7452 89.6712 50.8769 89.6785C56.2789 89.6931 61.6845 89.6822 67.0865 89.6785L67.0902 89.6822ZM71.6965 65.2527C71.6965 64.8914 71.6965 64.6176 71.6965 64.3439C71.6965 60.6172 71.6965 56.8942 71.6965 53.1676C71.6965 51.974 72.0797 51.5944 73.266 51.5908C75.6348 51.5908 78.0037 51.5908 80.3725 51.5908C82.2632 51.5908 83.1064 52.4303 83.1064 54.3283C83.11 57.7082 83.1064 61.0881 83.1064 64.4716C83.1064 64.7162 83.1064 64.9644 83.1064 65.2308H85.3949C85.3949 64.9425 85.3949 64.7162 85.3949 64.4899C85.3949 61.0625 85.3949 57.6352 85.3949 54.2115C85.3949 51.255 83.4823 49.3497 80.5076 49.346C77.0583 49.3424 73.6091 49.346 70.1598 49.346C69.9372 49.346 69.7109 49.3643 69.4189 49.3789V50.1563C69.4189 52.4084 69.4189 54.6641 69.4189 56.9161C69.4189 58.1936 69.1561 58.4637 67.9005 58.4637C65.6229 58.4637 63.3453 58.4637 61.0713 58.4637H60.3413V65.2564H71.6892L71.6965 65.2527ZM85.3657 67.6106H44.3653V69.8116H85.3657V67.6106ZM86.833 44.028C88.596 40.2064 90.3188 36.4652 91.9686 32.8882C90.8517 32.0706 89.8151 31.3114 88.7237 30.512C84.9533 35.9286 81.1062 41.4511 77.135 47.156C78.1424 47.156 78.9454 47.0867 79.7338 47.1779C80.4382 47.2619 80.7558 47.0027 81.0186 46.3895C81.431 45.4186 81.9274 44.4842 82.4019 43.5425C82.8399 42.6702 83.3728 42.4767 84.2598 42.8673C85.0956 43.2359 85.9242 43.6228 86.8367 44.0353L86.833 44.028ZM74.0398 53.9414V65.2454H80.7777V53.9414H74.0398ZM78.0803 72.1695H56.1876V74.6807H78.0803V72.1695ZM44.4091 65.2491H53.41V58.4637C52.2493 58.4637 51.147 58.4564 50.0483 58.4637C46.4604 58.4966 43.8506 61.5991 44.4091 65.2454V65.2491ZM102.119 65.0082C102.174 64.9972 102.225 64.9863 102.28 64.979C102.28 64.3183 102.309 63.6577 102.273 63.0007C102.196 61.6721 102.291 60.3982 103.145 59.2777C103.262 59.1244 103.236 58.7338 103.119 58.5513C102.375 57.3724 102.159 56.0985 102.269 54.7334C102.316 54.1421 102.298 53.5399 102.265 52.9449C102.254 52.7624 102.13 52.4923 101.984 52.4266C100.517 51.7587 100.513 51.7696 99.2467 52.7588C98.9766 52.9705 98.6992 53.1749 98.4364 53.4012C98.3196 53.4997 98.1517 53.6384 98.1517 53.7589C98.1517 54.832 97.8779 56.0328 98.2648 56.9563C99.4073 59.6974 100.813 62.3327 102.116 65.0082H102.119ZM93.6622 30.4755C95.4835 30.4682 96.9508 29.0009 96.9508 27.1832C96.9508 25.3692 95.4726 23.9019 93.6476 23.9055C91.8189 23.9092 90.3699 25.3655 90.3735 27.2015C90.3735 29.0374 91.8262 30.4828 93.6585 30.4755H93.6622ZM104.714 64.9607C104.762 64.9717 104.809 64.979 104.857 64.9899C104.959 64.7928 105.068 64.5994 105.167 64.3986C106.16 62.3802 107.12 60.3471 108.16 58.3542C108.697 57.3286 108.89 56.292 108.919 55.1386C108.948 54.0399 108.631 53.3318 107.733 52.6821C106.948 52.1127 106.298 51.6017 105.364 52.2952C105.262 52.3719 105.083 52.35 104.981 52.4266C104.868 52.5069 104.722 52.6529 104.729 52.7661C104.795 54.4597 104.342 56.2263 105.448 57.7702C106.069 58.6353 105.97 59.4602 105.364 60.3106C105.079 60.7085 104.784 61.1939 104.747 61.6611C104.656 62.7561 104.718 63.8621 104.718 64.9607H104.714ZM103.506 50.1892C105.364 50.1855 106.864 48.6781 106.868 46.8129C106.872 44.9441 105.382 43.433 103.524 43.4257C101.648 43.4184 100.093 44.9697 100.108 46.8348C100.123 48.6781 101.656 50.1928 103.506 50.1892ZM99.2978 28.614C100.747 28.614 102.189 28.614 103.634 28.614C105.379 28.614 107.127 28.6323 108.872 28.6031C109.759 28.5885 110.35 27.9862 110.35 27.1978C110.35 26.4313 109.777 25.7926 108.948 25.7889C105.755 25.767 102.565 25.7853 99.3708 25.7889C99.3306 25.7889 99.2905 25.8291 99.2978 25.8254V28.614ZM55.7861 56.1022H62.5569V53.956H55.7861V56.1022ZM58.009 58.5221H55.7971V65.2272H58.009V58.5221ZM83.1429 47.5028C83.7342 47.7948 84.2744 48.0612 84.8438 48.3386C85.1723 47.6269 85.4825 46.948 85.8183 46.2216C85.2453 45.9588 84.7124 45.7179 84.1466 45.4624C83.7962 46.1742 83.475 46.8275 83.1429 47.5064V47.5028Z" fill="#424242"/>
<path d="M55.2131 83.4443C55.2131 85.9008 53.2457 87.8681 50.7929 87.8681C48.3438 87.8681 46.3691 85.8898 46.3691 83.4443C46.3691 80.9879 48.3365 79.0242 50.7929 79.0242C53.2494 79.0242 55.2131 80.9879 55.2131 83.4443ZM52.7895 83.3859C52.7712 82.3274 51.8295 81.4113 50.782 81.4295C49.6651 81.4478 48.7854 82.3603 48.8073 83.4772C48.8292 84.5722 49.7052 85.4226 50.8039 85.4153C51.9244 85.4117 52.8077 84.5101 52.7895 83.3859Z" fill="#424242"/>
<path d="M61.6882 79.0242C64.1447 79.0242 66.112 80.9915 66.112 83.4443C66.112 85.8935 64.1374 87.8681 61.6882 87.8681C59.2354 87.8681 57.2681 85.8935 57.2681 83.4407C57.2681 80.9806 59.2318 79.0205 61.6882 79.0205V79.0242ZM61.7795 81.4332C60.71 81.3748 59.7756 82.2143 59.699 83.302C59.6223 84.386 60.4472 85.3314 61.5276 85.408C62.6701 85.4883 63.6045 84.678 63.6665 83.5538C63.7322 82.4223 62.9073 81.4952 61.7795 81.4332Z" fill="#424242"/>
<path d="M72.5944 79.0242C75.0363 79.0351 77.0146 81.0317 77 83.4699C76.9854 85.9008 74.9779 87.8791 72.536 87.8681C70.0905 87.8572 68.1378 85.8752 68.1487 83.4151C68.1633 80.955 70.127 79.0132 72.5908 79.0242H72.5944ZM74.5362 83.437C74.5362 82.3128 73.631 81.4076 72.5251 81.4259C71.4556 81.4441 70.5504 82.353 70.5431 83.4188C70.5358 84.5174 71.4556 85.4226 72.5762 85.4117C73.6712 85.4007 74.5326 84.532 74.5362 83.4334V83.437Z" fill="#424242"/>
<path d="M79.044 83.448C79.0367 80.9806 80.9858 79.0242 83.4568 79.0242C85.8549 79.0242 87.8697 81.0317 87.866 83.4151C87.8624 85.8533 85.8512 87.8608 83.4276 87.8499C81.0113 87.8389 79.0549 85.8716 79.0476 83.448H79.044ZM83.3729 85.4117C84.4752 85.4445 85.384 84.616 85.4315 83.5319C85.4826 82.3822 84.592 81.4368 83.4459 81.4222C82.3983 81.4113 81.4712 82.3201 81.442 83.3896C81.4092 84.4517 82.2961 85.3752 83.3765 85.408L83.3729 85.4117Z" fill="#424242"/>
<path d="M103.452 47.9919C102.813 47.97 102.284 47.4188 102.291 46.7874C102.298 46.1267 102.871 45.5938 103.55 45.6157C104.193 45.6376 104.718 46.1815 104.711 46.8166C104.7 47.4809 104.127 48.0174 103.455 47.9919H103.452Z" fill="#424242"/>
<path d="M50.5412 108.273H51.8026L54.7685 115.517H54.8707L57.8366 108.273H59.098V117H58.1094V110.369H58.0241L55.2969 117H54.3423L51.6151 110.369H51.5298V117H50.5412V108.273ZM61.0806 117V110.455H62.0863V117H61.0806ZM61.592 109.364C61.396 109.364 61.2269 109.297 61.0849 109.163C60.9457 109.03 60.8761 108.869 60.8761 108.682C60.8761 108.494 60.9457 108.334 61.0849 108.2C61.2269 108.067 61.396 108 61.592 108C61.788 108 61.9556 108.067 62.0948 108.2C62.2369 108.334 62.3079 108.494 62.3079 108.682C62.3079 108.869 62.2369 109.03 62.0948 109.163C61.9556 109.297 61.788 109.364 61.592 109.364ZM64.9339 113.062V117H63.9283V110.455H64.8999V111.477H64.9851C65.1385 111.145 65.3714 110.878 65.6839 110.676C65.9964 110.472 66.3999 110.369 66.8942 110.369C67.3374 110.369 67.7251 110.46 68.0575 110.642C68.3899 110.821 68.6484 111.094 68.8331 111.46C69.0178 111.824 69.1101 112.284 69.1101 112.841V117H68.1044V112.909C68.1044 112.395 67.9709 111.994 67.7038 111.707C67.4368 111.418 67.0703 111.273 66.6044 111.273C66.2834 111.273 65.9964 111.342 65.7436 111.482C65.4936 111.621 65.2962 111.824 65.1513 112.091C65.0064 112.358 64.9339 112.682 64.9339 113.062ZM73.6921 117.136C73.0614 117.136 72.5174 116.997 72.06 116.719C71.6055 116.438 71.2546 116.045 71.0075 115.543C70.7631 115.037 70.641 114.449 70.641 113.778C70.641 113.108 70.7631 112.517 71.0075 112.006C71.2546 111.491 71.5984 111.091 72.0387 110.804C72.4819 110.514 72.9989 110.369 73.5898 110.369C73.9308 110.369 74.2674 110.426 74.5998 110.54C74.9322 110.653 75.2347 110.838 75.5075 111.094C75.7802 111.347 75.9975 111.682 76.1594 112.099C76.3214 112.517 76.4023 113.031 76.4023 113.642V114.068H71.3569V113.199H75.3796C75.3796 112.83 75.3058 112.5 75.158 112.21C75.0131 111.92 74.8058 111.692 74.5359 111.524C74.2688 111.357 73.9535 111.273 73.5898 111.273C73.1893 111.273 72.8427 111.372 72.5501 111.571C72.2603 111.767 72.0373 112.023 71.881 112.338C71.7248 112.653 71.6467 112.991 71.6467 113.352V113.932C71.6467 114.426 71.7319 114.845 71.9023 115.189C72.0756 115.53 72.3157 115.79 72.6225 115.969C72.9293 116.145 73.2859 116.233 73.6921 116.233C73.9563 116.233 74.195 116.196 74.408 116.122C74.6239 116.045 74.81 115.932 74.9663 115.781C75.1225 115.628 75.2433 115.437 75.3285 115.21L76.3001 115.483C76.1978 115.812 76.0259 116.102 75.7844 116.352C75.543 116.599 75.2447 116.793 74.8896 116.932C74.5344 117.068 74.1353 117.136 73.6921 117.136ZM77.9322 117V110.455H78.9038V111.443H78.9719C79.0913 111.119 79.3072 110.857 79.6197 110.655C79.9322 110.453 80.2844 110.352 80.6765 110.352C80.7504 110.352 80.8427 110.354 80.9535 110.357C81.0643 110.359 81.1481 110.364 81.2049 110.369V111.392C81.1708 111.384 81.0927 111.371 80.9705 111.354C80.8512 111.334 80.7248 111.324 80.5913 111.324C80.2731 111.324 79.989 111.391 79.739 111.524C79.4918 111.655 79.2958 111.837 79.1509 112.07C79.0089 112.3 78.9379 112.562 78.9379 112.858V117H77.9322ZM82.397 117V110.455H83.4027V117H82.397ZM82.4482 109.568L83.4879 107.591H84.6641L83.3345 109.568H82.4482ZM87.1708 117.153C86.756 117.153 86.3796 117.075 86.0415 116.919C85.7035 116.76 85.435 116.531 85.2362 116.233C85.0373 115.932 84.9379 115.568 84.9379 115.142C84.9379 114.767 85.0117 114.463 85.1594 114.23C85.3072 113.994 85.5046 113.81 85.7518 113.676C85.9989 113.543 86.2717 113.443 86.57 113.378C86.8711 113.31 87.1737 113.256 87.4776 113.216C87.8754 113.165 88.1978 113.126 88.445 113.101C88.695 113.072 88.8768 113.026 88.9904 112.96C89.1069 112.895 89.1651 112.781 89.1651 112.619V112.585C89.1651 112.165 89.0501 111.838 88.82 111.605C88.5927 111.372 88.2475 111.256 87.7844 111.256C87.3043 111.256 86.9279 111.361 86.6552 111.571C86.3825 111.781 86.1907 112.006 86.0799 112.244L85.1254 111.903C85.2958 111.506 85.5231 111.196 85.8072 110.974C86.0941 110.75 86.4066 110.594 86.7447 110.506C87.0856 110.415 87.4208 110.369 87.7504 110.369C87.9606 110.369 88.2021 110.395 88.4748 110.446C88.7504 110.494 89.016 110.595 89.2717 110.749C89.5302 110.902 89.7447 111.134 89.9151 111.443C90.0856 111.753 90.1708 112.168 90.1708 112.688V117H89.1651V116.114H89.114C89.0458 116.256 88.9322 116.408 88.7731 116.57C88.614 116.732 88.4023 116.869 88.1381 116.983C87.8739 117.097 87.5515 117.153 87.1708 117.153ZM87.3242 116.25C87.7219 116.25 88.0572 116.172 88.3299 116.016C88.6055 115.859 88.8129 115.658 88.9521 115.411C89.0941 115.163 89.1651 114.903 89.1651 114.631V113.71C89.1225 113.761 89.0288 113.808 88.8839 113.851C88.7418 113.891 88.5771 113.926 88.3896 113.957C88.2049 113.986 88.0245 114.011 87.8484 114.034C87.6751 114.054 87.5344 114.071 87.4265 114.085C87.1651 114.119 86.9208 114.175 86.6935 114.251C86.4691 114.325 86.2873 114.437 86.1481 114.588C86.0117 114.736 85.9435 114.937 85.9435 115.193C85.9435 115.543 86.0728 115.807 86.3313 115.986C86.5927 116.162 86.9237 116.25 87.3242 116.25ZM96.0291 119.455C95.8587 119.455 95.7067 119.44 95.5732 119.412C95.4396 119.386 95.3473 119.361 95.2962 119.335L95.5518 118.449C95.7962 118.511 96.0121 118.534 96.1996 118.517C96.3871 118.5 96.5533 118.416 96.6982 118.266C96.8459 118.118 96.9808 117.878 97.103 117.545L97.2905 117.034L94.87 110.455H95.9609L97.7678 115.67H97.8359L99.6428 110.455H100.734L97.9553 117.955C97.8303 118.293 97.6754 118.572 97.4908 118.794C97.3061 119.018 97.0916 119.185 96.8473 119.293C96.6058 119.401 96.3331 119.455 96.0291 119.455ZM48.149 132V125.455H49.1206V126.477H49.2058C49.3422 126.128 49.5623 125.857 49.8663 125.663C50.1703 125.467 50.5353 125.369 50.9615 125.369C51.3933 125.369 51.7527 125.467 52.0396 125.663C52.3294 125.857 52.5552 126.128 52.7172 126.477H52.7853C52.9529 126.139 53.2044 125.871 53.5396 125.672C53.8748 125.47 54.2768 125.369 54.7456 125.369C55.3308 125.369 55.8095 125.553 56.1816 125.919C56.5538 126.283 56.7399 126.849 56.7399 127.619V132H55.7342V127.619C55.7342 127.136 55.6021 126.791 55.3379 126.584C55.0737 126.376 54.7626 126.273 54.4047 126.273C53.9444 126.273 53.5879 126.412 53.3351 126.69C53.0822 126.966 52.9558 127.315 52.9558 127.739V132H51.9331V127.517C51.9331 127.145 51.8123 126.845 51.5708 126.618C51.3294 126.388 51.0183 126.273 50.6376 126.273C50.3762 126.273 50.1319 126.342 49.9047 126.482C49.6802 126.621 49.4984 126.814 49.3592 127.061C49.2228 127.305 49.1547 127.588 49.1547 127.909V132H48.149ZM61.323 132.136C60.6923 132.136 60.1483 131.997 59.6909 131.719C59.2363 131.438 58.8855 131.045 58.6383 130.543C58.394 130.037 58.2718 129.449 58.2718 128.778C58.2718 128.108 58.394 127.517 58.6383 127.006C58.8855 126.491 59.2292 126.091 59.6696 125.804C60.1127 125.514 60.6298 125.369 61.2207 125.369C61.5616 125.369 61.8983 125.426 62.2306 125.54C62.563 125.653 62.8656 125.838 63.1383 126.094C63.411 126.347 63.6284 126.682 63.7903 127.099C63.9522 127.517 64.0332 128.031 64.0332 128.642V129.068H58.9877V128.199H63.0105C63.0105 127.83 62.9366 127.5 62.7889 127.21C62.644 126.92 62.4366 126.692 62.1667 126.524C61.8997 126.357 61.5843 126.273 61.2207 126.273C60.8201 126.273 60.4735 126.372 60.1809 126.571C59.8912 126.767 59.6681 127.023 59.5119 127.338C59.3556 127.653 59.2775 127.991 59.2775 128.352V128.932C59.2775 129.426 59.3627 129.845 59.5332 130.189C59.7065 130.53 59.9466 130.79 60.2534 130.969C60.5602 131.145 60.9167 131.233 61.323 131.233C61.5872 131.233 61.8258 131.196 62.0389 131.122C62.2548 131.045 62.4409 130.932 62.5971 130.781C62.7534 130.628 62.8741 130.437 62.9593 130.21L63.9309 130.483C63.8287 130.812 63.6568 131.102 63.4153 131.352C63.1738 131.599 62.8755 131.793 62.5204 131.932C62.1653 132.068 61.7662 132.136 61.323 132.136ZM68.4096 125.455V126.307H65.0176V125.455H68.4096ZM66.0062 123.886H67.0119V130.125C67.0119 130.409 67.0531 130.622 67.1355 130.764C67.2207 130.903 67.3287 130.997 67.4593 131.045C67.5929 131.091 67.7335 131.114 67.8812 131.114C67.992 131.114 68.0829 131.108 68.1539 131.097C68.225 131.082 68.2818 131.071 68.3244 131.062L68.5289 131.966C68.4608 131.991 68.3656 132.017 68.2434 132.043C68.1213 132.071 67.9664 132.085 67.7789 132.085C67.4949 132.085 67.2164 132.024 66.9437 131.902C66.6738 131.78 66.4494 131.594 66.2704 131.344C66.0943 131.094 66.0062 130.778 66.0062 130.398V123.886ZM71.8485 132.153C71.4338 132.153 71.0574 132.075 70.7193 131.919C70.3812 131.76 70.1127 131.531 69.9139 131.233C69.715 130.932 69.6156 130.568 69.6156 130.142C69.6156 129.767 69.6895 129.463 69.8372 129.23C69.9849 128.994 70.1824 128.81 70.4295 128.676C70.6767 128.543 70.9494 128.443 71.2477 128.378C71.5488 128.31 71.8514 128.256 72.1554 128.216C72.5531 128.165 72.8755 128.126 73.1227 128.101C73.3727 128.072 73.5545 128.026 73.6681 127.96C73.7846 127.895 73.8429 127.781 73.8429 127.619V127.585C73.8429 127.165 73.7278 126.838 73.4977 126.605C73.2704 126.372 72.9252 126.256 72.4622 126.256C71.9821 126.256 71.6056 126.361 71.3329 126.571C71.0602 126.781 70.8684 127.006 70.7576 127.244L69.8031 126.903C69.9735 126.506 70.2008 126.196 70.4849 125.974C70.7718 125.75 71.0843 125.594 71.4224 125.506C71.7633 125.415 72.0985 125.369 72.4281 125.369C72.6383 125.369 72.8798 125.395 73.1525 125.446C73.4281 125.494 73.6937 125.595 73.9494 125.749C74.2079 125.902 74.4224 126.134 74.5929 126.443C74.7633 126.753 74.8485 127.168 74.8485 127.688V132H73.8429V131.114H73.7917C73.7235 131.256 73.6099 131.408 73.4508 131.57C73.2917 131.732 73.0801 131.869 72.8159 131.983C72.5517 132.097 72.2292 132.153 71.8485 132.153ZM72.002 131.25C72.3997 131.25 72.7349 131.172 73.0076 131.016C73.2832 130.859 73.4906 130.658 73.6298 130.411C73.7718 130.163 73.8429 129.903 73.8429 129.631V128.71C73.8002 128.761 73.7065 128.808 73.5616 128.851C73.4196 128.891 73.2548 128.926 73.0673 128.957C72.8826 128.986 72.7022 129.011 72.5261 129.034C72.3528 129.054 72.2122 129.071 72.1042 129.085C71.8429 129.119 71.5985 129.175 71.3713 129.251C71.1468 129.325 70.965 129.437 70.8258 129.588C70.6895 129.736 70.6213 129.937 70.6213 130.193C70.6213 130.543 70.7505 130.807 71.0091 130.986C71.2704 131.162 71.6014 131.25 72.002 131.25ZM77.6898 123.273V132H76.6841V123.273H77.6898ZM83.6568 129.324V125.455H84.6625V132H83.6568V130.892H83.5886C83.4352 131.224 83.1966 131.507 82.8727 131.74C82.5488 131.97 82.1397 132.085 81.6454 132.085C81.2363 132.085 80.8727 131.996 80.5545 131.817C80.2363 131.635 79.9863 131.362 79.8045 130.999C79.6227 130.632 79.5318 130.17 79.5318 129.614V125.455H80.5375V129.545C80.5375 130.023 80.671 130.403 80.938 130.688C81.2079 130.972 81.5517 131.114 81.9693 131.114C82.2193 131.114 82.4735 131.05 82.7321 130.922C82.9934 130.794 83.2122 130.598 83.3883 130.334C83.5673 130.07 83.6568 129.733 83.6568 129.324ZM81.6454 124.568L82.6852 122.591H83.8613L82.5318 124.568H81.6454ZM86.5044 132V125.455H87.476V126.443H87.5442C87.6635 126.119 87.8794 125.857 88.1919 125.655C88.5044 125.453 88.8567 125.352 89.2488 125.352C89.3226 125.352 89.415 125.354 89.5257 125.357C89.6365 125.359 89.7203 125.364 89.7772 125.369V126.392C89.7431 126.384 89.665 126.371 89.5428 126.354C89.4235 126.334 89.2971 126.324 89.1635 126.324C88.8453 126.324 88.5613 126.391 88.3113 126.524C88.0641 126.655 87.8681 126.837 87.7232 127.07C87.5811 127.3 87.5101 127.562 87.5101 127.858V132H86.5044ZM93.4121 134.591C92.9263 134.591 92.5087 134.528 92.1593 134.403C91.8098 134.281 91.5186 134.119 91.2857 133.918C91.0556 133.719 90.8723 133.506 90.736 133.278L91.5371 132.716C91.628 132.835 91.7431 132.972 91.8823 133.125C92.0215 133.281 92.2118 133.416 92.4533 133.53C92.6976 133.646 93.0172 133.705 93.4121 133.705C93.9405 133.705 94.3766 133.577 94.7203 133.321C95.0641 133.065 95.236 132.665 95.236 132.119V130.79H95.1507C95.0769 130.909 94.9718 131.057 94.8354 131.233C94.7019 131.406 94.5087 131.561 94.2559 131.697C94.0059 131.831 93.6678 131.898 93.2417 131.898C92.7132 131.898 92.2388 131.773 91.8184 131.523C91.4007 131.273 91.0698 130.909 90.8255 130.432C90.584 129.955 90.4632 129.375 90.4632 128.693C90.4632 128.023 90.5811 127.439 90.8169 126.942C91.0527 126.442 91.3809 126.055 91.8013 125.783C92.2218 125.507 92.7076 125.369 93.2587 125.369C93.6848 125.369 94.0229 125.44 94.2729 125.582C94.5257 125.722 94.7189 125.881 94.8525 126.06C94.9888 126.236 95.0939 126.381 95.1678 126.494H95.2701V125.455H96.2417V132.188C96.2417 132.75 96.1138 133.207 95.8581 133.56C95.6053 133.915 95.2644 134.175 94.8354 134.339C94.4093 134.507 93.9348 134.591 93.4121 134.591ZM93.378 130.994C93.7814 130.994 94.1223 130.902 94.4007 130.717C94.6792 130.533 94.8908 130.267 95.0357 129.92C95.1806 129.574 95.253 129.159 95.253 128.676C95.253 128.205 95.182 127.788 95.04 127.428C94.8979 127.067 94.6877 126.784 94.4093 126.58C94.1309 126.375 93.7871 126.273 93.378 126.273C92.9519 126.273 92.5968 126.381 92.3127 126.597C92.0314 126.812 91.8198 127.102 91.6777 127.466C91.5385 127.83 91.4689 128.233 91.4689 128.676C91.4689 129.131 91.54 129.533 91.682 129.882C91.8269 130.229 92.04 130.501 92.3212 130.7C92.6053 130.896 92.9576 130.994 93.378 130.994ZM98.0826 132V125.455H99.0882V132H98.0826ZM98.5939 124.364C98.3979 124.364 98.2289 124.297 98.0868 124.163C97.9476 124.03 97.878 123.869 97.878 123.682C97.878 123.494 97.9476 123.334 98.0868 123.2C98.2289 123.067 98.3979 123 98.5939 123C98.79 123 98.9576 123.067 99.0968 123.2C99.2388 123.334 99.3098 123.494 99.3098 123.682C99.3098 123.869 99.2388 124.03 99.0968 124.163C98.9576 124.297 98.79 124.364 98.5939 124.364ZM102.856 132.153C102.442 132.153 102.065 132.075 101.727 131.919C101.389 131.76 101.121 131.531 100.922 131.233C100.723 130.932 100.623 130.568 100.623 130.142C100.623 129.767 100.697 129.463 100.845 129.23C100.993 128.994 101.19 128.81 101.437 128.676C101.684 128.543 101.957 128.443 102.256 128.378C102.557 128.31 102.859 128.256 103.163 128.216C103.561 128.165 103.883 128.126 104.131 128.101C104.381 128.072 104.562 128.026 104.676 127.96C104.792 127.895 104.851 127.781 104.851 127.619V127.585C104.851 127.165 104.736 126.838 104.506 126.605C104.278 126.372 103.933 126.256 103.47 126.256C102.99 126.256 102.613 126.361 102.341 126.571C102.068 126.781 101.876 127.006 101.765 127.244L100.811 126.903C100.981 126.506 101.209 126.196 101.493 125.974C101.78 125.75 102.092 125.594 102.43 125.506C102.771 125.415 103.106 125.369 103.436 125.369C103.646 125.369 103.888 125.395 104.16 125.446C104.436 125.494 104.702 125.595 104.957 125.749C105.216 125.902 105.43 126.134 105.601 126.443C105.771 126.753 105.856 127.168 105.856 127.688V132H104.851V131.114H104.8C104.731 131.256 104.618 131.408 104.459 131.57C104.3 131.732 104.088 131.869 103.824 131.983C103.559 132.097 103.237 132.153 102.856 132.153ZM103.01 131.25C103.407 131.25 103.743 131.172 104.015 131.016C104.291 130.859 104.498 130.658 104.638 130.411C104.78 130.163 104.851 129.903 104.851 129.631V128.71C104.808 128.761 104.714 128.808 104.569 128.851C104.427 128.891 104.263 128.926 104.075 128.957C103.89 128.986 103.71 129.011 103.534 129.034C103.361 129.054 103.22 129.071 103.112 129.085C102.851 129.119 102.606 129.175 102.379 129.251C102.155 129.325 101.973 129.437 101.834 129.588C101.697 129.736 101.629 129.937 101.629 130.193C101.629 130.543 101.758 130.807 102.017 130.986C102.278 131.162 102.609 131.25 103.01 131.25Z" fill="black"/>
</svg>
