<svg width="153" height="151" viewBox="0 0 153 151" fill="none" xmlns="http://www.w3.org/2000/svg">
<g clip-path="url(#clip0_29_444)">
<path d="M112 76.5359C111.886 77.001 111.783 77.4696 111.659 77.9311C110.413 82.5958 106.352 85.6239 101.29 85.6346C95.0664 85.6488 88.8433 85.6346 82.6166 85.6346C72.2967 85.6346 61.9769 85.6381 51.657 85.6346C46.8397 85.6346 43.1264 83.1354 41.5502 78.8399C40.5313 76.0673 40.5988 73.2841 42.0365 70.7139C49.772 56.9009 57.2021 42.9103 65.7896 29.5943C66.8652 27.9258 68.09 26.3496 69.2544 24.7414C71.111 22.1748 73.7593 21.3263 76.7733 21.3618C79.6736 21.3938 82.0237 22.5156 83.8165 24.8763C86.7878 28.7884 89.4255 32.9206 91.8643 37.17C97.8851 47.6531 103.803 58.1895 109.788 68.6904C110.8 70.469 111.716 72.2617 112.003 74.3136V76.5359H112ZM76.4467 83.9732C84.6152 83.9732 92.7802 83.9732 100.949 83.9732C101.389 83.9732 101.829 83.9625 102.266 83.9306C108.631 83.4691 112.291 76.8057 109.259 71.1896C108.666 70.0927 108.045 69.0064 107.428 67.9236C101.133 56.908 94.896 45.8568 88.5096 34.8944C86.6174 31.6462 84.3383 28.6251 82.1941 25.5295C79.7482 21.9973 72.8789 22.3629 70.7383 25.5011C69.1124 27.8903 67.3445 30.1836 65.8073 32.626C57.8802 45.232 50.8547 58.3599 43.5808 71.3458C42.3667 73.5113 42.2531 75.8401 43.0873 78.1867C44.3795 81.829 47.5106 83.9661 51.5967 83.9696C59.8788 83.9767 68.1645 83.9696 76.4467 83.9696V83.9732Z" fill="#424242"/>
<path d="M76.4504 81.474C68.1647 81.474 59.8825 81.4775 51.5968 81.474C48.4302 81.474 46.1156 79.7877 45.3098 76.9335C44.8731 75.3893 45.0116 73.8841 45.7926 72.4996C53.5032 58.8321 60.8339 44.9409 69.3504 31.7385C70.3905 30.1303 71.6153 28.6393 72.6838 27.0489C73.9902 25.1035 78.8324 24.958 80.2489 27.0738C81.289 28.6287 82.4854 30.0806 83.5007 31.6497C89.7877 41.359 95.3719 51.48 101.027 61.562C103.004 65.0907 104.975 68.623 106.945 72.1552C109.309 76.3939 106.703 81.1651 101.858 81.4491C100.935 81.5024 100.008 81.4704 99.0816 81.4704C91.5379 81.4704 83.9941 81.4704 76.4504 81.4704V81.474ZM76.4717 79.809C84.6864 79.809 92.9011 79.809 101.112 79.8019C101.687 79.8019 102.28 79.7806 102.83 79.6422C105.617 78.9428 107.002 75.8934 105.667 73.3303C104.772 71.6085 103.775 69.94 102.83 68.2431C96.6073 57.0784 90.4906 45.8533 83.6782 35.0293C82.2511 32.7609 80.7317 30.5457 79.1413 28.3908C77.9023 26.7117 75.0304 26.7259 73.763 28.3837C72.556 29.9599 71.4129 31.5929 70.3373 33.265C64.6253 42.1293 59.5098 51.3487 54.3587 60.5432C52.0654 64.6363 49.7934 68.7401 47.493 72.8297C46.815 74.0332 46.5274 75.265 46.9534 76.6176C47.6031 78.6695 49.2361 79.8055 51.6146 79.8055C59.8967 79.8126 68.1824 79.8055 76.4646 79.8055L76.4717 79.809Z" fill="#424242"/>
<path d="M65.4773 60.0036C67.2133 60.0036 68.9457 59.993 70.6816 60.0072C71.5372 60.0143 71.8425 60.4474 71.6117 61.2639C71.0757 63.1667 71.9419 64.6754 73.8589 65.176C74.686 65.3925 74.9203 65.8682 74.5156 66.6173C72.8542 69.688 71.1822 72.7517 69.5066 75.8118C69.1445 76.4756 68.7824 76.5786 68.0688 76.2413C66.0134 75.2757 64.3626 73.806 62.9923 72.0239C60.5961 68.8999 59.0802 65.4422 59.1015 61.4236C59.1015 61.1929 59.1086 60.9586 59.137 60.7314C59.2329 59.961 59.4885 59.7409 60.273 59.7409C62.009 59.7409 63.7414 59.7409 65.4773 59.7409V60.0072V60.0036ZM69.7835 61.6437C66.7376 61.5692 63.7698 61.4946 60.8055 61.4201C60.5144 66.3084 64.4869 72.6949 68.3528 74.445C69.7728 71.8393 71.1928 69.2336 72.6306 66.596C70.6142 65.5629 69.6557 63.9619 69.7799 61.6437H69.7835Z" fill="#424242"/>
<path d="M87.505 59.7409C89.1948 59.7409 90.8811 59.7409 92.5709 59.7409C93.4549 59.7409 93.7282 59.9788 93.7921 60.8698C93.9377 62.9359 93.572 64.9275 92.8336 66.848C91.4349 70.4797 89.2942 73.5575 85.9466 75.6449C83.6213 77.0969 83.7811 76.4792 82.8794 74.8391C81.4097 72.1659 79.9577 69.4821 78.4987 66.8019C77.9697 65.8327 78.1472 65.4209 79.1945 65.1511C80.8985 64.7145 81.8215 63.1063 81.3387 61.3988C81.0582 60.3977 81.3316 60.0107 82.3717 60.0036C84.0828 59.993 85.7939 60.0036 87.505 60.0036C87.505 59.9149 87.505 59.8297 87.505 59.7409ZM92.0668 61.4201C89.1061 61.4946 86.1418 61.5692 83.1314 61.6473C83.2663 63.9654 82.2901 65.5842 80.2808 66.6031C81.7327 69.262 83.1527 71.8677 84.5727 74.4699C89.1309 72.1943 92.5283 65.3641 92.0668 61.4236V61.4201Z" fill="#424242"/>
<path d="M76.461 43.7375C79.5495 43.7765 82.4605 44.3658 85.0768 46.0343C86.1347 46.7053 86.1844 46.9715 85.5312 48.0401C83.8237 50.841 82.1161 53.6384 80.405 56.4394C79.7944 57.4334 79.411 57.4795 78.5945 56.663C77.3698 55.4383 75.5451 55.4383 74.3168 56.663C73.5038 57.4724 73.1169 57.4263 72.5063 56.4323C70.7703 53.5958 69.0379 50.7558 67.3055 47.9158C66.7446 46.9964 66.8014 46.7088 67.7244 46.1089C70.3869 44.3694 73.3618 43.7694 76.461 43.7375ZM68.9137 47.3443C70.4792 49.9109 72.0377 52.4634 73.6032 55.03C75.5415 53.7449 77.4266 53.784 79.3187 55.0194C80.8914 52.4421 82.4392 49.9038 83.9834 47.3691C80.4192 44.7954 73.0601 44.767 68.9101 47.3407L68.9137 47.3443Z" fill="#424242"/>
<path d="M76.4681 57.373C78.5058 57.373 80.1778 59.0451 80.1849 61.0792C80.192 63.1063 78.5235 64.7854 76.4823 64.8067C74.4304 64.828 72.7086 63.1063 72.7299 61.0615C72.7512 59.0238 74.4268 57.373 76.4681 57.3766V57.373ZM78.5164 61.1751C78.5732 60.0994 77.6751 59.1054 76.5817 59.0415C75.4563 58.9776 74.4659 59.8651 74.3984 60.9976C74.3381 62.0768 75.2256 63.0566 76.3332 63.1311C77.455 63.2057 78.4525 62.3111 78.5129 61.1751H78.5164Z" fill="#424242"/>
</g>
<path d="M42.7214 117H41.6135L44.818 108.273H45.9089L49.1135 117H48.0055L45.3975 109.653H45.3294L42.7214 117ZM43.1305 113.591H47.5964V114.528H43.1305V113.591ZM51.3422 108.273V117H50.3365V108.273H51.3422ZM53.1841 117V110.455H54.1898V117H53.1841ZM53.6955 109.364C53.4995 109.364 53.3304 109.297 53.1884 109.163C53.0492 109.03 52.9796 108.869 52.9796 108.682C52.9796 108.494 53.0492 108.334 53.1884 108.2C53.3304 108.067 53.4995 108 53.6955 108C53.8915 108 54.0591 108.067 54.1983 108.2C54.3404 108.334 54.4114 108.494 54.4114 108.682C54.4114 108.869 54.3404 109.03 54.1983 109.163C54.0591 109.297 53.8915 109.364 53.6955 109.364ZM56.0318 117V110.455H57.0034V111.477H57.0886C57.225 111.128 57.4451 110.857 57.7491 110.663C58.0531 110.467 58.4181 110.369 58.8443 110.369C59.2761 110.369 59.6355 110.467 59.9224 110.663C60.2122 110.857 60.438 111.128 60.6 111.477H60.6681C60.8358 111.139 61.0872 110.871 61.4224 110.672C61.7576 110.47 62.1596 110.369 62.6284 110.369C63.2136 110.369 63.6923 110.553 64.0645 110.919C64.4366 111.283 64.6227 111.849 64.6227 112.619V117H63.617V112.619C63.617 112.136 63.4849 111.791 63.2207 111.584C62.9565 111.376 62.6454 111.273 62.2875 111.273C61.8272 111.273 61.4707 111.412 61.2179 111.69C60.965 111.966 60.8386 112.315 60.8386 112.739V117H59.8159V112.517C59.8159 112.145 59.6951 111.845 59.4537 111.618C59.2122 111.388 58.9011 111.273 58.5204 111.273C58.2591 111.273 58.0147 111.342 57.7875 111.482C57.563 111.621 57.3812 111.814 57.242 112.061C57.1056 112.305 57.0375 112.588 57.0375 112.909V117H56.0318ZM69.2058 117.136C68.5751 117.136 68.0311 116.997 67.5737 116.719C67.1191 116.438 66.7683 116.045 66.5211 115.543C66.2768 115.037 66.1547 114.449 66.1547 113.778C66.1547 113.108 66.2768 112.517 66.5211 112.006C66.7683 111.491 67.112 111.091 67.5524 110.804C67.9956 110.514 68.5126 110.369 69.1035 110.369C69.4444 110.369 69.7811 110.426 70.1135 110.54C70.4458 110.653 70.7484 110.838 71.0211 111.094C71.2939 111.347 71.5112 111.682 71.6731 112.099C71.835 112.517 71.916 113.031 71.916 113.642V114.068H66.8706V113.199H70.8933C70.8933 112.83 70.8194 112.5 70.6717 112.21C70.5268 111.92 70.3194 111.692 70.0495 111.524C69.7825 111.357 69.4672 111.273 69.1035 111.273C68.7029 111.273 68.3564 111.372 68.0637 111.571C67.774 111.767 67.551 112.023 67.3947 112.338C67.2385 112.653 67.1603 112.991 67.1603 113.352V113.932C67.1603 114.426 67.2456 114.845 67.416 115.189C67.5893 115.53 67.8294 115.79 68.1362 115.969C68.443 116.145 68.7995 116.233 69.2058 116.233C69.47 116.233 69.7086 116.196 69.9217 116.122C70.1376 116.045 70.3237 115.932 70.4799 115.781C70.6362 115.628 70.7569 115.437 70.8422 115.21L71.8137 115.483C71.7115 115.812 71.5396 116.102 71.2981 116.352C71.0566 116.599 70.7583 116.793 70.4032 116.932C70.0481 117.068 69.649 117.136 69.2058 117.136ZM74.4515 113.062V117H73.4458V110.455H74.4174V111.477H74.5027C74.6561 111.145 74.889 110.878 75.2015 110.676C75.514 110.472 75.9174 110.369 76.4118 110.369C76.8549 110.369 77.2427 110.46 77.5751 110.642C77.9075 110.821 78.166 111.094 78.3507 111.46C78.5353 111.824 78.6277 112.284 78.6277 112.841V117H77.622V112.909C77.622 112.395 77.4885 111.994 77.2214 111.707C76.9544 111.418 76.5879 111.273 76.122 111.273C75.801 111.273 75.514 111.342 75.2612 111.482C75.0112 111.621 74.8137 111.824 74.6689 112.091C74.524 112.358 74.4515 112.682 74.4515 113.062ZM83.312 110.455V111.307H79.9199V110.455H83.312ZM80.9086 108.886H81.9142V115.125C81.9142 115.409 81.9554 115.622 82.0378 115.764C82.123 115.903 82.231 115.997 82.3617 116.045C82.4952 116.091 82.6358 116.114 82.7836 116.114C82.8944 116.114 82.9853 116.108 83.0563 116.097C83.1273 116.082 83.1841 116.071 83.2267 116.062L83.4313 116.966C83.3631 116.991 83.2679 117.017 83.1458 117.043C83.0236 117.071 82.8688 117.085 82.6813 117.085C82.3972 117.085 82.1188 117.024 81.8461 116.902C81.5762 116.78 81.3517 116.594 81.1728 116.344C80.9966 116.094 80.9086 115.778 80.9086 115.398V108.886ZM87.4135 117.136C86.8226 117.136 86.3042 116.996 85.8581 116.714C85.415 116.433 85.0684 116.04 84.8184 115.534C84.5712 115.028 84.4476 114.437 84.4476 113.761C84.4476 113.08 84.5712 112.484 84.8184 111.976C85.0684 111.467 85.415 111.072 85.8581 110.791C86.3042 110.51 86.8226 110.369 87.4135 110.369C88.0044 110.369 88.5215 110.51 88.9647 110.791C89.4107 111.072 89.7573 111.467 90.0044 111.976C90.2544 112.484 90.3794 113.08 90.3794 113.761C90.3794 114.437 90.2544 115.028 90.0044 115.534C89.7573 116.04 89.4107 116.433 88.9647 116.714C88.5215 116.996 88.0044 117.136 87.4135 117.136ZM87.4135 116.233C87.8624 116.233 88.2317 116.118 88.5215 115.888C88.8113 115.658 89.0257 115.355 89.165 114.98C89.3042 114.605 89.3738 114.199 89.3738 113.761C89.3738 113.324 89.3042 112.916 89.165 112.538C89.0257 112.161 88.8113 111.855 88.5215 111.622C88.2317 111.389 87.8624 111.273 87.4135 111.273C86.9647 111.273 86.5953 111.389 86.3056 111.622C86.0158 111.855 85.8013 112.161 85.6621 112.538C85.5229 112.916 85.4533 113.324 85.4533 113.761C85.4533 114.199 85.5229 114.605 85.6621 114.98C85.8013 115.355 86.0158 115.658 86.3056 115.888C86.5953 116.118 86.9647 116.233 87.4135 116.233ZM96.551 111.92L95.6475 112.176C95.5907 112.026 95.5069 111.879 95.3961 111.737C95.2882 111.592 95.1404 111.473 94.9529 111.379C94.7654 111.286 94.5254 111.239 94.2328 111.239C93.8322 111.239 93.4984 111.331 93.2314 111.516C92.9672 111.697 92.835 111.929 92.835 112.21C92.835 112.46 92.926 112.658 93.1078 112.803C93.2896 112.947 93.5737 113.068 93.96 113.165L94.9316 113.403C95.5169 113.545 95.9529 113.763 96.2399 114.055C96.5268 114.345 96.6703 114.719 96.6703 115.176C96.6703 115.551 96.5623 115.886 96.3464 116.182C96.1333 116.477 95.835 116.71 95.4515 116.881C95.068 117.051 94.622 117.136 94.1135 117.136C93.4458 117.136 92.8933 116.991 92.4558 116.702C92.0183 116.412 91.7413 115.989 91.6248 115.432L92.5794 115.193C92.6703 115.545 92.8422 115.81 93.095 115.986C93.3507 116.162 93.6845 116.25 94.0964 116.25C94.5652 116.25 94.9373 116.151 95.2129 115.952C95.4913 115.75 95.6305 115.509 95.6305 115.227C95.6305 115 95.551 114.81 95.3919 114.656C95.2328 114.5 94.9885 114.384 94.6589 114.307L93.568 114.051C92.9686 113.909 92.5282 113.689 92.247 113.391C91.9686 113.089 91.8294 112.713 91.8294 112.261C91.8294 111.892 91.9331 111.565 92.1404 111.281C92.3507 110.997 92.6362 110.774 92.997 110.612C93.3606 110.45 93.7725 110.369 94.2328 110.369C94.8805 110.369 95.389 110.511 95.7583 110.795C96.1305 111.08 96.3947 111.455 96.551 111.92ZM102.207 119.455C102.036 119.455 101.884 119.44 101.751 119.412C101.617 119.386 101.525 119.361 101.474 119.335L101.73 118.449C101.974 118.511 102.19 118.534 102.377 118.517C102.565 118.5 102.731 118.416 102.876 118.266C103.024 118.118 103.159 117.878 103.281 117.545L103.468 117.034L101.048 110.455H102.139L103.945 115.67H104.014L105.82 110.455H106.911L104.133 117.955C104.008 118.293 103.853 118.572 103.669 118.794C103.484 119.018 103.269 119.185 103.025 119.293C102.784 119.401 102.511 119.455 102.207 119.455ZM54.4455 132V123.273H55.4512V126.494H55.5364C55.6103 126.381 55.7125 126.236 55.8432 126.06C55.9767 125.881 56.1671 125.722 56.4142 125.582C56.6642 125.44 57.0023 125.369 57.4284 125.369C57.9796 125.369 58.4654 125.507 58.8858 125.783C59.3063 126.058 59.6344 126.449 59.8702 126.955C60.106 127.46 60.2239 128.057 60.2239 128.744C60.2239 129.438 60.106 130.038 59.8702 130.547C59.6344 131.053 59.3077 131.445 58.8901 131.723C58.4725 131.999 57.9909 132.136 57.4455 132.136C57.025 132.136 56.6884 132.067 56.4355 131.928C56.1827 131.786 55.9881 131.625 55.8517 131.446C55.7154 131.264 55.6103 131.114 55.5364 130.994H55.4171V132H54.4455ZM55.4341 128.727C55.4341 129.222 55.5066 129.658 55.6515 130.036C55.7963 130.411 56.008 130.705 56.2864 130.918C56.5648 131.128 56.9057 131.233 57.3091 131.233C57.7296 131.233 58.0804 131.122 58.3617 130.901C58.6458 130.676 58.8588 130.375 59.0009 129.997C59.1458 129.616 59.2182 129.193 59.2182 128.727C59.2182 128.267 59.1472 127.852 59.0051 127.483C58.8659 127.111 58.6543 126.817 58.3702 126.601C58.089 126.382 57.7353 126.273 57.3091 126.273C56.9 126.273 56.5563 126.376 56.2779 126.584C55.9995 126.788 55.7892 127.075 55.6472 127.445C55.5051 127.811 55.4341 128.239 55.4341 128.727ZM64.5066 132.136C63.8759 132.136 63.3319 131.997 62.8745 131.719C62.4199 131.438 62.0691 131.045 61.8219 130.543C61.5776 130.037 61.4554 129.449 61.4554 128.778C61.4554 128.108 61.5776 127.517 61.8219 127.006C62.0691 126.491 62.4128 126.091 62.8532 125.804C63.2963 125.514 63.8134 125.369 64.4043 125.369C64.7452 125.369 65.0819 125.426 65.4142 125.54C65.7466 125.653 66.0492 125.838 66.3219 126.094C66.5946 126.347 66.812 126.682 66.9739 127.099C67.1358 127.517 67.2168 128.031 67.2168 128.642V129.068H62.1713V128.199H66.1941C66.1941 127.83 66.1202 127.5 65.9725 127.21C65.8276 126.92 65.6202 126.692 65.3503 126.524C65.0833 126.357 64.7679 126.273 64.4043 126.273C64.0037 126.273 63.6571 126.372 63.3645 126.571C63.0748 126.767 62.8517 127.023 62.6955 127.338C62.5392 127.653 62.4611 127.991 62.4611 128.352V128.932C62.4611 129.426 62.5463 129.845 62.7168 130.189C62.8901 130.53 63.1301 130.79 63.437 130.969C63.7438 131.145 64.1003 131.233 64.5066 131.233C64.7708 131.233 65.0094 131.196 65.2225 131.122C65.4384 131.045 65.6245 130.932 65.7807 130.781C65.937 130.628 66.0577 130.437 66.1429 130.21L67.1145 130.483C67.0123 130.812 66.8404 131.102 66.5989 131.352C66.3574 131.599 66.0591 131.793 65.704 131.932C65.3489 132.068 64.9498 132.136 64.5066 132.136ZM68.883 132V123.273H69.8887V126.494H69.9739C70.0478 126.381 70.15 126.236 70.2807 126.06C70.4142 125.881 70.6046 125.722 70.8517 125.582C71.1017 125.44 71.4398 125.369 71.8659 125.369C72.4171 125.369 72.9029 125.507 73.3233 125.783C73.7438 126.058 74.0719 126.449 74.3077 126.955C74.5435 127.46 74.6614 128.057 74.6614 128.744C74.6614 129.438 74.5435 130.038 74.3077 130.547C74.0719 131.053 73.7452 131.445 73.3276 131.723C72.91 131.999 72.4284 132.136 71.883 132.136C71.4625 132.136 71.1259 132.067 70.873 131.928C70.6202 131.786 70.4256 131.625 70.2892 131.446C70.1529 131.264 70.0478 131.114 69.9739 130.994H69.8546V132H68.883ZM69.8716 128.727C69.8716 129.222 69.9441 129.658 70.089 130.036C70.2338 130.411 70.4455 130.705 70.7239 130.918C71.0023 131.128 71.3432 131.233 71.7466 131.233C72.1671 131.233 72.5179 131.122 72.7992 130.901C73.0833 130.676 73.2963 130.375 73.4384 129.997C73.5833 129.616 73.6557 129.193 73.6557 128.727C73.6557 128.267 73.5847 127.852 73.4426 127.483C73.3034 127.111 73.0918 126.817 72.8077 126.601C72.5265 126.382 72.1728 126.273 71.7466 126.273C71.3375 126.273 70.9938 126.376 70.7154 126.584C70.437 126.788 70.2267 127.075 70.0847 127.445C69.9426 127.811 69.8716 128.239 69.8716 128.727ZM76.1998 132V125.455H77.2054V132H76.1998ZM76.7111 124.364C76.5151 124.364 76.3461 124.297 76.204 124.163C76.0648 124.03 75.9952 123.869 75.9952 123.682C75.9952 123.494 76.0648 123.334 76.204 123.2C76.3461 123.067 76.5151 123 76.7111 123C76.9071 123 77.0748 123.067 77.214 123.2C77.356 123.334 77.427 123.494 77.427 123.682C77.427 123.869 77.356 124.03 77.214 124.163C77.0748 124.297 76.9071 124.364 76.7111 124.364ZM81.519 132.136C80.9735 132.136 80.492 131.999 80.0744 131.723C79.6568 131.445 79.3301 131.053 79.0943 130.547C78.8585 130.038 78.7406 129.438 78.7406 128.744C78.7406 128.057 78.8585 127.46 79.0943 126.955C79.3301 126.449 79.6582 126.058 80.0787 125.783C80.4991 125.507 80.9849 125.369 81.536 125.369C81.9622 125.369 82.2988 125.44 82.546 125.582C82.796 125.722 82.9863 125.881 83.117 126.06C83.2505 126.236 83.3542 126.381 83.4281 126.494H83.5133V123.273H84.519V132H83.5474V130.994H83.4281C83.3542 131.114 83.2491 131.264 83.1127 131.446C82.9764 131.625 82.7818 131.786 82.5289 131.928C82.2761 132.067 81.9395 132.136 81.519 132.136ZM81.6554 131.233C82.0588 131.233 82.3997 131.128 82.6781 130.918C82.9565 130.705 83.1681 130.411 83.313 130.036C83.4579 129.658 83.5304 129.222 83.5304 128.727C83.5304 128.239 83.4593 127.811 83.3173 127.445C83.1752 127.075 82.965 126.788 82.6866 126.584C82.4082 126.376 82.0645 126.273 81.6554 126.273C81.2292 126.273 80.8741 126.382 80.59 126.601C80.3088 126.817 80.0971 127.111 79.9551 127.483C79.8159 127.852 79.7463 128.267 79.7463 128.727C79.7463 129.193 79.8173 129.616 79.9593 129.997C80.1042 130.375 80.3173 130.676 80.5985 130.901C80.8826 131.122 81.2349 131.233 81.6554 131.233ZM88.4267 132.153C88.0119 132.153 87.6355 132.075 87.2974 131.919C86.9593 131.76 86.6909 131.531 86.492 131.233C86.2931 130.932 86.1937 130.568 86.1937 130.142C86.1937 129.767 86.2676 129.463 86.4153 129.23C86.563 128.994 86.7605 128.81 87.0076 128.676C87.2548 128.543 87.5275 128.443 87.8258 128.378C88.127 128.31 88.4295 128.256 88.7335 128.216C89.1312 128.165 89.4537 128.126 89.7008 128.101C89.9508 128.072 90.1326 128.026 90.2463 127.96C90.3627 127.895 90.421 127.781 90.421 127.619V127.585C90.421 127.165 90.3059 126.838 90.0758 126.605C89.8485 126.372 89.5034 126.256 89.0403 126.256C88.5602 126.256 88.1838 126.361 87.911 126.571C87.6383 126.781 87.4466 127.006 87.3358 127.244L86.3812 126.903C86.5517 126.506 86.7789 126.196 87.063 125.974C87.35 125.75 87.6625 125.594 88.0005 125.506C88.3414 125.415 88.6767 125.369 89.0062 125.369C89.2164 125.369 89.4579 125.395 89.7306 125.446C90.0062 125.494 90.2718 125.595 90.5275 125.749C90.786 125.902 91.0005 126.134 91.171 126.443C91.3414 126.753 91.4267 127.168 91.4267 127.688V132H90.421V131.114H90.3699C90.3017 131.256 90.188 131.408 90.0289 131.57C89.8699 131.732 89.6582 131.869 89.394 131.983C89.1298 132.097 88.8074 132.153 88.4267 132.153ZM88.5801 131.25C88.9778 131.25 89.313 131.172 89.5858 131.016C89.8613 130.859 90.0687 130.658 90.2079 130.411C90.35 130.163 90.421 129.903 90.421 129.631V128.71C90.3784 128.761 90.2846 128.808 90.1397 128.851C89.9977 128.891 89.8329 128.926 89.6454 128.957C89.4608 128.986 89.2804 129.011 89.1042 129.034C88.9309 129.054 88.7903 129.071 88.6824 129.085C88.421 129.119 88.1767 129.175 87.9494 129.251C87.725 129.325 87.5431 129.437 87.4039 129.588C87.2676 129.736 87.1994 129.937 87.1994 130.193C87.1994 130.543 87.3287 130.807 87.5872 130.986C87.8485 131.162 88.1795 131.25 88.5801 131.25ZM97.8986 126.92L96.9952 127.176C96.9384 127.026 96.8546 126.879 96.7438 126.737C96.6358 126.592 96.4881 126.473 96.3006 126.379C96.1131 126.286 95.873 126.239 95.5804 126.239C95.1799 126.239 94.8461 126.331 94.579 126.516C94.3148 126.697 94.1827 126.929 94.1827 127.21C94.1827 127.46 94.2736 127.658 94.4554 127.803C94.6373 127.947 94.9213 128.068 95.3077 128.165L96.2793 128.403C96.8645 128.545 97.3006 128.763 97.5875 129.055C97.8745 129.345 98.0179 129.719 98.0179 130.176C98.0179 130.551 97.91 130.886 97.6941 131.182C97.481 131.477 97.1827 131.71 96.7992 131.881C96.4157 132.051 95.9696 132.136 95.4611 132.136C94.7935 132.136 94.2409 131.991 93.8034 131.702C93.3659 131.412 93.089 130.989 92.9725 130.432L93.927 130.193C94.0179 130.545 94.1898 130.81 94.4426 130.986C94.6983 131.162 95.0321 131.25 95.4441 131.25C95.9128 131.25 96.285 131.151 96.5605 130.952C96.839 130.75 96.9782 130.509 96.9782 130.227C96.9782 130 96.8986 129.81 96.7395 129.656C96.5804 129.5 96.3361 129.384 96.0066 129.307L94.9157 129.051C94.3162 128.909 93.8759 128.689 93.5946 128.391C93.3162 128.089 93.177 127.713 93.177 127.261C93.177 126.892 93.2807 126.565 93.4881 126.281C93.6983 125.997 93.9838 125.774 94.3446 125.612C94.7083 125.45 95.1202 125.369 95.5804 125.369C96.2282 125.369 96.7367 125.511 97.106 125.795C97.4782 126.08 97.7424 126.455 97.8986 126.92Z" fill="black"/>
<defs>
<clipPath id="clip0_29_444">
<rect width="71" height="71" fill="white" transform="translate(41 18)"/>
</clipPath>
</defs>
</svg>
