<svg width="153" height="151" viewBox="0 0 153 151" fill="none" xmlns="http://www.w3.org/2000/svg">
<path d="M75.3 149.5C116.335 149.5 149.6 116.235 149.6 75.2C149.6 34.1653 116.335 0.900024 75.3 0.900024C34.2652 0.900024 1 34.1653 1 75.2C1 116.235 34.2652 149.5 75.3 149.5Z" fill="#004C98"/>
<mask id="mask0_29_359" style="mask-type:luminance" maskUnits="userSpaceOnUse" x="41" y="39" width="71" height="71">
<path d="M112 39.2393H41.24V109.996H112V39.2393Z" fill="white"/>
</mask>
<g mask="url(#mask0_29_359)">
<path d="M109.623 102.861C109.77 102.893 109.817 102.915 109.864 102.911C111.824 102.771 112.058 103.397 111.989 105.148C111.946 106.202 111.982 107.259 111.982 108.316C111.982 109.65 111.633 109.992 110.267 109.992C100.787 109.992 91.3108 109.992 81.831 109.992C68.8881 109.992 55.9488 109.992 43.0058 109.992C41.5565 109.992 41.2437 109.676 41.2437 108.219C41.2437 106.993 41.2437 105.763 41.2437 104.537C41.2437 103.285 41.6033 102.929 42.8692 102.918C43.0849 102.918 43.3007 102.918 43.6028 102.918V78.942C43.6028 77.223 43.8258 76.9928 45.5412 76.9748C45.7102 76.9748 45.8792 76.9748 46.095 76.9748C46.3971 74.5653 46.6956 72.2098 46.9905 69.8542C47.6594 64.521 48.3247 59.1877 48.9936 53.8545C49.5474 49.4239 50.1048 44.9897 50.6623 40.5591C50.7809 39.5773 51.1549 39.2465 52.1547 39.2429C54.3161 39.2393 56.4774 39.2393 58.6388 39.2429C59.6313 39.2429 60.0017 39.5809 60.124 40.5699C61.2101 49.2405 62.2926 57.9075 63.375 66.578C63.4434 67.1103 63.5225 67.6389 63.6088 68.2755C63.8965 68.1172 64.1231 68.0022 64.3424 67.8727C66.9317 66.3227 69.521 64.7727 72.1032 63.2119C72.5779 62.9242 73.0454 62.6653 73.61 62.9746C74.1998 63.2947 74.2609 63.8377 74.2537 64.4275C74.2429 65.8983 74.2501 67.3728 74.2501 68.948C74.5055 68.8149 74.6961 68.7286 74.8723 68.6243C77.8608 66.8334 80.8493 65.0424 83.8342 63.2479C84.3268 62.9494 84.8087 62.6509 85.4057 62.9782C86.0279 63.3198 86.0459 63.9024 86.0423 64.5102C86.0315 65.9559 86.0423 67.4052 86.0423 68.9803C86.33 68.8185 86.5349 68.707 86.7363 68.5883C89.7248 66.7974 92.7133 65.0065 95.6946 63.2083C96.1729 62.9206 96.6404 62.6725 97.205 62.9854C97.7912 63.3126 97.8416 63.8593 97.8344 64.4455C97.8236 65.9163 97.8308 67.3836 97.8308 68.9408C98.0717 68.8221 98.2444 68.7538 98.4062 68.6603C101.395 66.8693 104.38 65.0784 107.368 63.2803C107.879 62.9746 108.375 62.6329 109.004 62.989C109.623 63.3378 109.627 63.924 109.627 64.5282C109.623 77.0072 109.627 89.4826 109.627 101.962V102.864L109.623 102.861ZM46.0123 79.3699V102.882H93.1197V102.059C93.1197 98.9372 93.1197 95.8192 93.1197 92.6977C93.1197 91.5001 93.5009 91.1261 94.7164 91.1261C97.5898 91.1261 100.463 91.1261 103.337 91.1261C104.534 91.1261 104.908 91.5073 104.908 92.7228C104.908 95.8444 104.908 98.9624 104.908 102.084V102.868H107.228V79.3699H46.0123ZM48.4793 76.9245H62.3033C61.1238 67.4843 59.9478 58.0981 58.7754 48.719H52.0073C50.8313 58.1304 49.6589 67.4987 48.4829 76.9245M109.565 105.328H43.6603V107.622H109.562V105.328H109.565ZM83.6507 66.1429C83.3738 66.2975 83.1581 66.4054 82.9567 66.5277C80.7917 67.8259 78.6304 69.1206 76.469 70.4224C75.739 70.8648 74.7392 71.1669 74.3724 71.8178C74.002 72.4723 74.2645 73.4865 74.2573 74.3424C74.2501 75.2127 74.2573 76.083 74.2573 76.9389H83.6543V66.1429H83.6507ZM95.4501 66.1033C92.3321 67.9734 89.3328 69.7715 86.3372 71.5804C86.2113 71.656 86.0602 71.8286 86.0602 71.9544C86.0423 73.6123 86.0495 75.2702 86.0495 76.9209H95.4501V66.0997V66.1033ZM97.8344 76.9245H107.206V66.1213C104.124 67.9698 101.121 69.7679 98.1329 71.584C97.9854 71.6739 97.8524 71.9257 97.8488 72.1019C97.8272 73.6914 97.8344 75.2846 97.8344 76.9245ZM102.499 93.5428H95.5148V102.886H102.499V93.5428ZM71.8658 66.24C71.8119 66.222 71.7795 66.2004 71.7651 66.2112C69.2405 67.7145 66.7124 69.2141 64.195 70.7353C64.0655 70.8108 63.9468 71.0518 63.9648 71.1956C64.1914 73.1124 64.4431 75.0221 64.6841 76.9281H71.8622V66.2436L71.8658 66.24ZM52.8955 41.6344C52.6977 43.1844 52.5071 44.7128 52.3093 46.2772H58.4733C58.2755 44.7128 58.0813 43.188 57.8871 41.6344H52.8991H52.8955Z" fill="white"/>
<path d="M53.0285 81.6931C54.1326 81.6931 55.2402 81.6859 56.3443 81.6931C57.3117 81.7003 57.7396 82.1246 57.7468 83.0848C57.7576 84.509 57.7576 85.9331 57.7468 87.3572C57.7396 88.321 57.3117 88.7561 56.3515 88.7597C54.1398 88.7705 51.9317 88.7669 49.72 88.7597C48.7562 88.7561 48.3246 88.3282 48.3174 87.3644C48.3066 85.9403 48.3066 84.5161 48.3174 83.092C48.3246 82.1246 48.749 81.7003 49.7092 81.6895C50.8132 81.6787 51.9209 81.6895 53.0249 81.6895M55.3553 84.099H50.7305V86.3682H55.3553V84.099Z" fill="white"/>
<path d="M64.8097 88.7705C63.7308 88.7705 62.6484 88.7741 61.5695 88.7705C60.5482 88.7633 60.1166 88.3534 60.1094 87.3572C60.0986 85.9331 60.0986 84.509 60.1094 83.0848C60.1166 82.1282 60.5482 81.7039 61.5191 81.7003C63.7308 81.6931 65.9389 81.6931 68.1506 81.7003C69.1073 81.7039 69.5316 82.139 69.5388 83.11C69.5496 84.5341 69.5496 85.9582 69.5388 87.3824C69.5316 88.339 69.0965 88.7597 68.1291 88.7705C67.025 88.7813 65.9174 88.7705 64.8133 88.7705M62.5009 86.361H67.1257V84.0918H62.5009V86.361Z" fill="white"/>
<path d="M76.6129 81.6931C77.717 81.6931 78.8246 81.6859 79.9287 81.6931C80.8925 81.7003 81.3204 82.1282 81.3276 83.0884C81.3384 84.5126 81.3384 85.9367 81.3276 87.3608C81.3204 88.3246 80.8925 88.7561 79.9287 88.7597C77.717 88.7669 75.5089 88.7669 73.2972 88.7597C72.3334 88.7561 71.9054 88.3246 71.8982 87.3608C71.8874 85.9367 71.8874 84.5126 71.8982 83.0884C71.9054 82.1246 72.3298 81.7003 73.2936 81.6895C74.3976 81.6787 75.5053 81.6895 76.6093 81.6895M78.9181 84.1062H74.2933V86.3754H78.9181V84.1062Z" fill="white"/>
<path d="M88.3546 88.767C87.2757 88.767 86.1932 88.7742 85.1143 88.767C84.1362 88.7598 83.701 88.3426 83.6902 87.3932C83.6794 85.9439 83.6794 84.4946 83.6902 83.0453C83.6974 82.1319 84.1362 81.7003 85.0604 81.6968C87.2937 81.686 89.5305 81.686 91.7638 81.6968C92.6737 81.7003 93.1052 82.1427 93.1124 83.0669C93.1232 84.5162 93.1268 85.9655 93.1124 87.4148C93.1052 88.3247 92.6629 88.7562 91.7422 88.767C90.613 88.7778 89.4838 88.767 88.3546 88.767ZM86.0853 86.3611H90.7065V84.0847H86.0853V86.3611Z" fill="white"/>
<path d="M100.118 88.7669C99.0355 88.7669 97.9566 88.7741 96.8777 88.7669C95.9139 88.7561 95.486 88.3318 95.4788 87.368C95.468 85.9439 95.468 84.5197 95.4788 83.0956C95.486 82.1318 95.9103 81.7003 96.8741 81.6967C99.0858 81.6895 101.294 81.6895 103.506 81.6967C104.469 81.7003 104.897 82.1318 104.905 83.092C104.915 84.5161 104.915 85.9403 104.905 87.3644C104.897 88.3282 104.469 88.7561 103.506 88.7633C102.376 88.7741 101.247 88.7633 100.118 88.7633M102.535 84.0918H97.8847V86.3466H102.535V84.0918Z" fill="white"/>
<path d="M53.0321 98.2035C51.9281 98.2035 50.8204 98.2107 49.7164 98.2035C48.7526 98.1927 48.3246 97.7684 48.3174 96.8046C48.3066 95.3804 48.3066 93.9563 48.3174 92.5322C48.3246 91.5684 48.749 91.1369 49.7128 91.1333C51.9245 91.1261 54.1326 91.1261 56.3443 91.1333C57.3081 91.1369 57.736 91.5684 57.7432 92.5286C57.754 93.9527 57.754 95.3768 57.7432 96.801C57.736 97.7648 57.3081 98.1927 56.3443 98.1999C55.2402 98.2107 54.1326 98.1999 53.0285 98.1999M55.3337 93.5392H50.7089V95.8084H55.3337V93.5392Z" fill="white"/>
<path d="M64.8173 98.2035C63.7133 98.2035 62.6056 98.2107 61.5016 98.2035C60.5414 98.1927 60.1134 97.7684 60.1062 96.801C60.0954 95.3768 60.0954 93.9527 60.1062 92.5286C60.1134 91.5648 60.5414 91.1369 61.5052 91.1333C63.7169 91.1261 65.925 91.1261 68.1367 91.1333C69.0969 91.1369 69.5248 91.5684 69.532 92.5322C69.5428 93.9563 69.5428 95.3804 69.532 96.8046C69.5248 97.7648 69.0933 98.1927 68.1295 98.1999C67.0254 98.2107 65.9178 98.1999 64.8137 98.1999M67.1405 93.5248H62.5085V95.7904H67.1405V93.5248Z" fill="white"/>
<path d="M76.5623 98.2035C75.4835 98.2035 74.401 98.2107 73.3221 98.2035C72.3475 98.1963 71.9088 97.7792 71.9016 96.8262C71.8908 95.3769 71.8872 93.9276 71.9016 92.4783C71.9088 91.5684 72.3475 91.1369 73.2753 91.1333C75.5086 91.1225 77.7455 91.1225 79.9788 91.1333C80.8886 91.1369 81.3202 91.5828 81.3274 92.507C81.3382 93.9563 81.3418 95.4056 81.3274 96.8549C81.3202 97.7648 80.8778 98.1927 79.9536 98.2035C78.8244 98.2143 77.6952 98.2035 76.5659 98.2035M74.2859 95.7868H78.9359V93.532H74.2859V95.7868Z" fill="white"/>
<path d="M87.2218 98.2C86.4594 98.2 85.697 98.218 84.9382 98.1964C84.1542 98.1748 83.7011 97.7325 83.6939 96.9485C83.6723 95.4273 83.6723 93.9025 83.6939 92.3812C83.7047 91.5973 84.1542 91.1441 84.9382 91.1369C86.4594 91.1154 87.9843 91.119 89.5055 91.1369C90.2895 91.1477 90.7426 91.5973 90.7534 92.3812C90.775 93.9025 90.775 95.4273 90.7534 96.9485C90.7426 97.7325 90.2895 98.1748 89.5091 98.1964C88.7467 98.218 87.9879 98.2 87.2254 98.2M86.107 95.7941H88.3475V93.4997H86.107V95.7941Z" fill="white"/>
</g>
</svg>
