<svg width="153" height="151" viewBox="0 0 153 151" fill="none" xmlns="http://www.w3.org/2000/svg">
<path d="M37.5925 64.3605C37.632 64.2696 37.6952 64.1827 37.711 64.0919C38.6985 58.5619 42.8974 55.0148 48.4945 54.999C53.0331 54.9871 64.8001 54.995 69.3387 54.999C70.4368 54.999 70.4328 55.3308 70.4328 56.0892C70.4328 56.8436 75.9786 57.29 74.8805 57.29C72.1945 57.29 56.7342 57.2781 54.0482 57.2781C52.2233 57.2781 50.3984 57.2663 48.5696 57.2781C43.4227 57.3137 39.8796 60.8687 39.8756 66.0037C39.8717 71.9129 39.8756 77.8221 39.8756 83.7273V84.5845H40.8039C43.798 84.5845 46.7881 84.5845 49.7822 84.5845C51.0146 84.5845 51.5795 84.94 51.5755 85.7221C51.5755 86.5081 51.0107 86.8676 49.7822 86.8676C48.1943 86.8676 46.6025 86.8676 44.9751 86.8676C44.9593 87.2073 44.9237 87.4561 44.9435 87.701C45.1805 90.5885 43.9244 91.7656 40.9974 91.6629C39.3187 91.6036 38.1692 91.0664 37.5925 89.4667C37.5925 81.0966 37.5925 72.7305 37.5925 64.3605ZM39.9033 86.9031C39.8914 87.0809 39.8717 87.227 39.8756 87.3692C39.9151 89.6444 39.4688 89.3363 42.0639 89.3087C42.2614 89.3087 42.5932 88.9453 42.6248 88.7201C42.7078 88.1513 42.6525 87.5667 42.6525 86.9031H39.9072H39.9033Z" fill="#424242"/>
<path d="M76.9581 83.8379C76.9581 76.3566 76.966 68.8793 76.9581 61.398C76.9581 58.8937 75.3781 57.3097 72.8778 57.2821C71.282 57.2623 69.6822 57.29 68.0864 57.2702C67.2806 57.2584 66.8224 56.8318 66.8066 56.1642C66.7948 55.4927 67.253 55.0148 68.039 55.0069C69.9153 54.995 71.7955 54.9397 73.6638 55.0582C76.5473 55.2399 78.7988 57.4717 79.1662 60.3512C79.2136 60.7186 79.257 61.0859 79.3005 61.4454H80.6948C80.6948 58.392 80.6948 55.394 80.6948 52.3525C78.3999 52.3525 76.1721 52.3525 73.9403 52.3525C70.571 52.3446 68.4222 50.2195 68.3906 46.858C68.3827 46.23 68.3906 45.6019 68.3906 44.9344C68.0904 44.9186 67.8692 44.8949 67.648 44.8909C66.4669 44.8791 65.9258 44.5315 65.9179 43.7652C65.91 42.9791 66.4867 42.6078 67.7033 42.6078C79.4664 42.6078 91.2334 42.6078 102.997 42.6078C103.198 42.6078 103.403 42.596 103.605 42.6157C104.312 42.671 104.778 43.1411 104.77 43.7731C104.762 44.413 104.292 44.8593 103.577 44.887C103.178 44.9028 102.779 44.887 102.286 44.887C102.286 45.6888 102.297 46.4156 102.286 47.1464C102.234 50.1326 100.054 52.309 97.0755 52.3485C96.0366 52.3604 94.9978 52.3485 93.955 52.3485C92.6436 52.3485 91.3322 52.3485 89.9892 52.3485C89.9892 55.4295 89.9892 58.4315 89.9892 61.4612H92.1893C92.4145 60.2999 93.082 59.577 94.2907 59.5375C95.5587 59.498 96.8266 59.502 98.0946 59.5375C99.1018 59.5652 99.8879 60.1498 100.081 61.0109C100.18 61.4493 100.188 61.9194 100.156 62.3697C100.121 62.9108 100.299 63.0846 100.856 63.1715C106.022 63.9773 110.043 68.2038 110.482 73.3862C110.656 75.4521 110.565 77.5416 110.588 79.6193C110.596 80.3461 110.588 81.0729 110.588 81.8708C111.813 81.8708 112.947 81.859 114.084 81.8708C115.072 81.8827 115.482 82.2895 115.49 83.2533C115.498 84.3672 115.514 85.4851 115.486 86.599C115.415 89.3166 113.251 91.5286 110.537 91.5878C108.132 91.6392 105.718 91.6352 103.313 91.5878C100.883 91.5444 98.8411 89.8656 98.4501 87.468C98.2407 86.1803 98.3276 84.8412 98.3079 83.5259C98.2881 82.2026 98.6436 81.8629 99.9629 81.859C100.99 81.859 102.017 81.859 103.103 81.859C103.103 80.9347 103.107 80.1249 103.103 79.3191C103.087 77.6206 103.139 75.9182 103.028 74.2276C102.921 72.6002 101.559 71.1387 100.172 71.0083C100.172 71.2651 100.172 71.5179 100.172 71.7667C100.156 73.4613 99.406 74.1999 97.6917 74.2039C96.8029 74.2039 95.9181 74.2039 95.0294 74.2039C93.2005 74.2039 92.8213 73.9471 92.134 72.2723C87.8601 72.2723 83.5862 72.2723 79.2452 72.2723C79.2452 73.2519 79.2452 74.1881 79.2452 75.1203C79.2452 79.5561 79.2452 83.9959 79.2452 88.4318C79.2452 90.545 78.1826 91.5918 76.0575 91.6036C75.6507 91.6036 75.2478 91.6076 74.8409 91.6036C72.9805 91.576 71.8863 90.4739 71.8666 88.6016C71.8587 88.0328 71.8666 87.4601 71.8666 86.8518H70.9146C66.0482 86.8518 61.1779 86.8518 56.3115 86.8518C56.035 86.8518 46.8552 86.9308 46.5984 86.8518C46.0217 86.6859 46.3733 86.3699 46.4286 85.7537C46.4799 85.177 46.0691 84.6635 46.634 84.5726C46.9065 84.5292 56.1653 84.5726 56.4458 84.5726C62.9633 84.5726 69.4768 84.5726 75.9943 84.5726H76.9226C76.9423 84.2685 76.966 84.0473 76.966 83.8221L76.9581 83.8379ZM70.5986 44.9265C70.6934 46.0325 70.65 47.1543 70.9107 48.201C71.2148 49.4216 72.3406 50.0654 73.731 50.0694C77.5348 50.0773 81.3347 50.0694 85.1386 50.0694C89.0175 50.0694 92.8964 50.0694 96.7753 50.0694C98.8925 50.0694 99.9985 48.9555 100.006 46.8304C100.006 46.2221 100.006 45.6138 100.006 44.9225C90.2104 44.9225 80.5092 44.9225 70.5986 44.9225V44.9265ZM92.1538 69.926C92.1538 67.9155 92.1538 65.9049 92.1538 63.843C87.8917 63.843 83.6218 63.843 79.2965 63.843V69.926C83.5902 69.926 87.8404 69.926 92.1538 69.926ZM100.603 84.1974C100.603 85.1098 100.532 85.9946 100.619 86.8636C100.757 88.2303 101.918 89.2968 103.293 89.3205C105.698 89.36 108.108 89.364 110.513 89.3205C111.939 89.2929 113.101 88.1237 113.191 86.6977C113.243 85.8919 113.199 85.0822 113.199 84.2013C108.957 84.2013 104.814 84.2013 100.603 84.2013V84.1974ZM100.188 68.1604C100.196 68.3263 100.433 68.5672 100.619 68.6304C103.806 69.7127 105.37 71.8655 105.378 75.2309C105.386 77.4073 105.378 79.5838 105.378 81.8195H108.199C108.222 81.7839 108.278 81.7405 108.278 81.701C108.203 78.62 108.392 75.4995 107.97 72.4659C107.472 68.899 104.28 66.0945 100.729 65.4665C100.583 65.4388 100.433 65.4428 100.168 65.427C100.168 66.3987 100.145 67.2795 100.188 68.1643V68.1604ZM87.5915 61.473C87.5915 58.475 87.5915 55.473 87.5915 52.4117C86.1182 52.4117 84.6172 52.4117 83.0767 52.4117C83.0767 55.4216 83.0767 58.3999 83.0767 61.473H87.5915ZM94.5475 61.8483C94.5475 65.2018 94.5475 68.5277 94.5475 71.8971C95.6456 71.8971 96.716 71.8971 97.8339 71.8971C97.8339 68.5475 97.8339 65.2374 97.8339 61.8483H94.5475ZM74.1931 86.9031C74.1694 87.0769 74.1378 87.2231 74.1378 87.3653C74.1576 89.6563 73.8179 89.3363 76.3419 89.3126C76.5473 89.3126 76.887 88.9532 76.9226 88.7241C77.0055 88.1592 76.9502 87.5707 76.9502 86.9031C75.9825 86.9031 75.1056 86.9031 74.1931 86.9031Z" fill="#424242"/>
<path d="M80.3789 35.96C80.2762 36.9317 79.893 37.7257 78.9213 38.0812C77.9852 38.4248 77.211 38.1009 76.4802 37.4847C74.6632 35.9482 72.8225 34.4432 70.9937 32.9185C69.3702 31.5676 69.706 29.6479 71.6928 28.9093C75.9351 27.3253 80.4618 30.4537 80.4737 35.1898C80.4579 35.3083 80.4144 35.6322 80.3789 35.96ZM78.0918 35.8455C78.3407 34.2299 77.9417 32.958 76.8634 31.9429C75.6152 30.7658 74.1418 30.5011 72.3604 31.0897C74.3077 32.7092 76.1445 34.2339 78.0918 35.8455Z" fill="#424242"/>
<path d="M82.6896 23.5926C83.6376 22.1113 85.5217 22.0916 86.4381 23.5847C87.789 25.7848 89.1044 28.0047 90.396 30.2365C91.265 31.7335 90.4237 33.3333 88.7094 33.5347C85.0161 33.9653 81.6744 30.8764 81.6902 27.0409C81.6744 25.7888 82.0181 24.6393 82.6896 23.5926ZM84.629 24.9909C83.8035 26.089 83.76 27.7717 84.471 29.0949C85.1623 30.3826 86.8015 31.4215 88.3262 31.1963C87.0662 29.0831 85.8535 27.0488 84.629 24.9909Z" fill="#424242"/>
<path d="M92.0986 39.4281C90.4436 38.4288 90.4238 36.5209 92.0749 35.5176C94.1961 34.2339 96.3251 32.9659 98.466 31.7098C100.168 30.7105 101.863 31.6506 101.942 33.6216C102.088 37.3109 99.1257 40.3643 95.4206 40.3485C94.2277 40.3603 93.1177 40.0443 92.0986 39.4281ZM93.3626 37.4018C94.4291 38.2234 96.0486 38.3063 97.3758 37.5953C98.865 36.8014 99.5799 35.5216 99.6708 33.6453C97.4746 34.9528 95.4285 36.1694 93.3626 37.4018Z" fill="#424242"/>
<path d="M68.4024 74.3777C69.3662 74.3777 70.326 74.3501 71.2898 74.3856C72.4906 74.4291 73.3241 75.2625 73.3715 76.4633C73.407 77.3481 73.4031 78.2369 73.3794 79.1217C73.3438 80.3896 72.5933 81.2665 71.3254 81.3139C69.4057 81.385 67.4781 81.385 65.5544 81.3139C64.3062 81.2665 63.532 80.3738 63.4846 79.1217C63.453 78.2882 63.457 77.4508 63.4846 76.6134C63.5281 75.2546 64.3852 74.4093 65.748 74.3738C66.6328 74.354 67.5215 74.3698 68.4063 74.3698C68.4063 74.3698 68.4063 74.3738 68.4063 74.3777H68.4024ZM71.0607 76.6964C69.2911 76.6964 67.561 76.6964 65.7954 76.6964V79.0229H71.0607V76.6964Z" fill="#424242"/>
<path d="M93.2954 27.7361C93.6233 28.0521 93.9156 28.5537 94.3066 28.6446C94.6661 28.7275 95.2586 28.4787 95.5153 28.1785C95.859 27.7756 96.0249 27.1949 96.1868 26.6696C96.3646 26.0889 96.1473 25.6031 95.5825 25.3542C94.99 25.0935 94.4607 25.2515 94.1486 25.8164C93.8445 26.3654 93.6351 26.9619 93.2954 27.7361Z" fill="#424242"/>
<path d="M85.9919 40.0246C86.1539 39.8587 86.5528 39.5901 86.7464 39.2148C87.0031 38.7132 86.4738 37.2082 85.9406 37.0068C85.5535 36.8606 84.9728 36.8646 84.6292 37.0621C84.0406 37.4018 84.1315 38.0219 84.3566 38.6144C84.7793 39.7165 85.0597 40.0325 85.9919 40.0246Z" fill="#424242"/>
<path d="M68.4183 38.3576C68.7856 38.804 68.9792 39.2227 69.2912 39.357C69.6072 39.4952 70.1049 39.4636 70.4091 39.2977C70.812 39.0765 71.1517 38.6894 71.44 38.3102C71.8271 37.8007 71.7758 37.2516 71.2978 36.8132C70.8515 36.3984 70.3024 36.355 69.8561 36.7579C69.3544 37.2121 68.9397 37.7651 68.4143 38.3576H68.4183Z" fill="#424242"/>
<path d="M43.2214 117H42.1135L45.318 108.273H46.4089L49.6135 117H48.5055L45.8975 109.653H45.8294L43.2214 117ZM43.6305 113.591H48.0964V114.528H43.6305V113.591ZM51.8422 108.273V117H50.8365V108.273H51.8422ZM53.6841 117V110.455H54.6898V117H53.6841ZM54.1955 109.364C53.9995 109.364 53.8304 109.297 53.6884 109.163C53.5492 109.03 53.4796 108.869 53.4796 108.682C53.4796 108.494 53.5492 108.334 53.6884 108.2C53.8304 108.067 53.9995 108 54.1955 108C54.3915 108 54.5591 108.067 54.6983 108.2C54.8404 108.334 54.9114 108.494 54.9114 108.682C54.9114 108.869 54.8404 109.03 54.6983 109.163C54.5591 109.297 54.3915 109.364 54.1955 109.364ZM56.5318 117V110.455H57.5034V111.477H57.5886C57.725 111.128 57.9451 110.857 58.2491 110.663C58.5531 110.467 58.9181 110.369 59.3443 110.369C59.7761 110.369 60.1355 110.467 60.4224 110.663C60.7122 110.857 60.938 111.128 61.1 111.477H61.1681C61.3358 111.139 61.5872 110.871 61.9224 110.672C62.2576 110.47 62.6596 110.369 63.1284 110.369C63.7136 110.369 64.1923 110.553 64.5645 110.919C64.9366 111.283 65.1227 111.849 65.1227 112.619V117H64.117V112.619C64.117 112.136 63.9849 111.791 63.7207 111.584C63.4565 111.376 63.1454 111.273 62.7875 111.273C62.3272 111.273 61.9707 111.412 61.7179 111.69C61.465 111.966 61.3386 112.315 61.3386 112.739V117H60.3159V112.517C60.3159 112.145 60.1951 111.845 59.9537 111.618C59.7122 111.388 59.4011 111.273 59.0204 111.273C58.7591 111.273 58.5147 111.342 58.2875 111.482C58.063 111.621 57.8812 111.814 57.742 112.061C57.6056 112.305 57.5375 112.588 57.5375 112.909V117H56.5318ZM69.7058 117.136C69.0751 117.136 68.5311 116.997 68.0737 116.719C67.6191 116.438 67.2683 116.045 67.0211 115.543C66.7768 115.037 66.6547 114.449 66.6547 113.778C66.6547 113.108 66.7768 112.517 67.0211 112.006C67.2683 111.491 67.612 111.091 68.0524 110.804C68.4956 110.514 69.0126 110.369 69.6035 110.369C69.9444 110.369 70.2811 110.426 70.6135 110.54C70.9458 110.653 71.2484 110.838 71.5211 111.094C71.7939 111.347 72.0112 111.682 72.1731 112.099C72.335 112.517 72.416 113.031 72.416 113.642V114.068H67.3706V113.199H71.3933C71.3933 112.83 71.3194 112.5 71.1717 112.21C71.0268 111.92 70.8194 111.692 70.5495 111.524C70.2825 111.357 69.9672 111.273 69.6035 111.273C69.2029 111.273 68.8564 111.372 68.5637 111.571C68.274 111.767 68.051 112.023 67.8947 112.338C67.7385 112.653 67.6603 112.991 67.6603 113.352V113.932C67.6603 114.426 67.7456 114.845 67.916 115.189C68.0893 115.53 68.3294 115.79 68.6362 115.969C68.943 116.145 69.2995 116.233 69.7058 116.233C69.97 116.233 70.2086 116.196 70.4217 116.122C70.6376 116.045 70.8237 115.932 70.9799 115.781C71.1362 115.628 71.2569 115.437 71.3422 115.21L72.3137 115.483C72.2115 115.812 72.0396 116.102 71.7981 116.352C71.5566 116.599 71.2583 116.793 70.9032 116.932C70.5481 117.068 70.149 117.136 69.7058 117.136ZM74.9515 113.062V117H73.9458V110.455H74.9174V111.477H75.0027C75.1561 111.145 75.389 110.878 75.7015 110.676C76.014 110.472 76.4174 110.369 76.9118 110.369C77.3549 110.369 77.7427 110.46 78.0751 110.642C78.4075 110.821 78.666 111.094 78.8507 111.46C79.0353 111.824 79.1277 112.284 79.1277 112.841V117H78.122V112.909C78.122 112.395 77.9885 111.994 77.7214 111.707C77.4544 111.418 77.0879 111.273 76.622 111.273C76.301 111.273 76.014 111.342 75.7612 111.482C75.5112 111.621 75.3137 111.824 75.1689 112.091C75.024 112.358 74.9515 112.682 74.9515 113.062ZM83.812 110.455V111.307H80.4199V110.455H83.812ZM81.4086 108.886H82.4142V115.125C82.4142 115.409 82.4554 115.622 82.5378 115.764C82.623 115.903 82.731 115.997 82.8617 116.045C82.9952 116.091 83.1358 116.114 83.2836 116.114C83.3944 116.114 83.4853 116.108 83.5563 116.097C83.6273 116.082 83.6841 116.071 83.7267 116.062L83.9313 116.966C83.8631 116.991 83.7679 117.017 83.6458 117.043C83.5236 117.071 83.3688 117.085 83.1813 117.085C82.8972 117.085 82.6188 117.024 82.3461 116.902C82.0762 116.78 81.8517 116.594 81.6728 116.344C81.4966 116.094 81.4086 115.778 81.4086 115.398V108.886ZM87.9135 117.136C87.3226 117.136 86.8042 116.996 86.3581 116.714C85.915 116.433 85.5684 116.04 85.3184 115.534C85.0712 115.028 84.9476 114.437 84.9476 113.761C84.9476 113.08 85.0712 112.484 85.3184 111.976C85.5684 111.467 85.915 111.072 86.3581 110.791C86.8042 110.51 87.3226 110.369 87.9135 110.369C88.5044 110.369 89.0215 110.51 89.4647 110.791C89.9107 111.072 90.2573 111.467 90.5044 111.976C90.7544 112.484 90.8794 113.08 90.8794 113.761C90.8794 114.437 90.7544 115.028 90.5044 115.534C90.2573 116.04 89.9107 116.433 89.4647 116.714C89.0215 116.996 88.5044 117.136 87.9135 117.136ZM87.9135 116.233C88.3624 116.233 88.7317 116.118 89.0215 115.888C89.3113 115.658 89.5257 115.355 89.665 114.98C89.8042 114.605 89.8738 114.199 89.8738 113.761C89.8738 113.324 89.8042 112.916 89.665 112.538C89.5257 112.161 89.3113 111.855 89.0215 111.622C88.7317 111.389 88.3624 111.273 87.9135 111.273C87.4647 111.273 87.0953 111.389 86.8056 111.622C86.5158 111.855 86.3013 112.161 86.1621 112.538C86.0229 112.916 85.9533 113.324 85.9533 113.761C85.9533 114.199 86.0229 114.605 86.1621 114.98C86.3013 115.355 86.5158 115.658 86.8056 115.888C87.0953 116.118 87.4647 116.233 87.9135 116.233ZM97.051 111.92L96.1475 112.176C96.0907 112.026 96.0069 111.879 95.8961 111.737C95.7882 111.592 95.6404 111.473 95.4529 111.379C95.2654 111.286 95.0254 111.239 94.7328 111.239C94.3322 111.239 93.9984 111.331 93.7314 111.516C93.4672 111.697 93.335 111.929 93.335 112.21C93.335 112.46 93.426 112.658 93.6078 112.803C93.7896 112.947 94.0737 113.068 94.46 113.165L95.4316 113.403C96.0169 113.545 96.4529 113.763 96.7399 114.055C97.0268 114.345 97.1703 114.719 97.1703 115.176C97.1703 115.551 97.0623 115.886 96.8464 116.182C96.6333 116.477 96.335 116.71 95.9515 116.881C95.568 117.051 95.122 117.136 94.6135 117.136C93.9458 117.136 93.3933 116.991 92.9558 116.702C92.5183 116.412 92.2413 115.989 92.1248 115.432L93.0794 115.193C93.1703 115.545 93.3422 115.81 93.595 115.986C93.8507 116.162 94.1845 116.25 94.5964 116.25C95.0652 116.25 95.4373 116.151 95.7129 115.952C95.9913 115.75 96.1305 115.509 96.1305 115.227C96.1305 115 96.051 114.81 95.8919 114.656C95.7328 114.5 95.4885 114.384 95.1589 114.307L94.068 114.051C93.4686 113.909 93.0282 113.689 92.747 113.391C92.4686 113.089 92.3294 112.713 92.3294 112.261C92.3294 111.892 92.4331 111.565 92.6404 111.281C92.8507 110.997 93.1362 110.774 93.497 110.612C93.8606 110.45 94.2725 110.369 94.7328 110.369C95.3805 110.369 95.889 110.511 96.2583 110.795C96.6305 111.08 96.8947 111.455 97.051 111.92ZM102.707 119.455C102.536 119.455 102.384 119.44 102.251 119.412C102.117 119.386 102.025 119.361 101.974 119.335L102.23 118.449C102.474 118.511 102.69 118.534 102.877 118.517C103.065 118.5 103.231 118.416 103.376 118.266C103.524 118.118 103.659 117.878 103.781 117.545L103.968 117.034L101.548 110.455H102.639L104.445 115.67H104.514L106.32 110.455H107.411L104.633 117.955C104.508 118.293 104.353 118.572 104.169 118.794C103.984 119.018 103.769 119.185 103.525 119.293C103.284 119.401 103.011 119.455 102.707 119.455ZM54.9455 132V123.273H55.9512V126.494H56.0364C56.1103 126.381 56.2125 126.236 56.3432 126.06C56.4767 125.881 56.6671 125.722 56.9142 125.582C57.1642 125.44 57.5023 125.369 57.9284 125.369C58.4796 125.369 58.9654 125.507 59.3858 125.783C59.8063 126.058 60.1344 126.449 60.3702 126.955C60.606 127.46 60.7239 128.057 60.7239 128.744C60.7239 129.438 60.606 130.038 60.3702 130.547C60.1344 131.053 59.8077 131.445 59.3901 131.723C58.9725 131.999 58.4909 132.136 57.9455 132.136C57.525 132.136 57.1884 132.067 56.9355 131.928C56.6827 131.786 56.4881 131.625 56.3517 131.446C56.2154 131.264 56.1103 131.114 56.0364 130.994H55.9171V132H54.9455ZM55.9341 128.727C55.9341 129.222 56.0066 129.658 56.1515 130.036C56.2963 130.411 56.508 130.705 56.7864 130.918C57.0648 131.128 57.4057 131.233 57.8091 131.233C58.2296 131.233 58.5804 131.122 58.8617 130.901C59.1458 130.676 59.3588 130.375 59.5009 129.997C59.6458 129.616 59.7182 129.193 59.7182 128.727C59.7182 128.267 59.6472 127.852 59.5051 127.483C59.3659 127.111 59.1543 126.817 58.8702 126.601C58.589 126.382 58.2353 126.273 57.8091 126.273C57.4 126.273 57.0563 126.376 56.7779 126.584C56.4995 126.788 56.2892 127.075 56.1472 127.445C56.0051 127.811 55.9341 128.239 55.9341 128.727ZM65.0066 132.136C64.3759 132.136 63.8319 131.997 63.3745 131.719C62.9199 131.438 62.5691 131.045 62.3219 130.543C62.0776 130.037 61.9554 129.449 61.9554 128.778C61.9554 128.108 62.0776 127.517 62.3219 127.006C62.5691 126.491 62.9128 126.091 63.3532 125.804C63.7963 125.514 64.3134 125.369 64.9043 125.369C65.2452 125.369 65.5819 125.426 65.9142 125.54C66.2466 125.653 66.5492 125.838 66.8219 126.094C67.0946 126.347 67.312 126.682 67.4739 127.099C67.6358 127.517 67.7168 128.031 67.7168 128.642V129.068H62.6713V128.199H66.6941C66.6941 127.83 66.6202 127.5 66.4725 127.21C66.3276 126.92 66.1202 126.692 65.8503 126.524C65.5833 126.357 65.2679 126.273 64.9043 126.273C64.5037 126.273 64.1571 126.372 63.8645 126.571C63.5748 126.767 63.3517 127.023 63.1955 127.338C63.0392 127.653 62.9611 127.991 62.9611 128.352V128.932C62.9611 129.426 63.0463 129.845 63.2168 130.189C63.3901 130.53 63.6301 130.79 63.937 130.969C64.2438 131.145 64.6003 131.233 65.0066 131.233C65.2708 131.233 65.5094 131.196 65.7225 131.122C65.9384 131.045 66.1245 130.932 66.2807 130.781C66.437 130.628 66.5577 130.437 66.6429 130.21L67.6145 130.483C67.5123 130.812 67.3404 131.102 67.0989 131.352C66.8574 131.599 66.5591 131.793 66.204 131.932C65.8489 132.068 65.4498 132.136 65.0066 132.136ZM69.383 132V123.273H70.3887V126.494H70.4739C70.5478 126.381 70.65 126.236 70.7807 126.06C70.9142 125.881 71.1046 125.722 71.3517 125.582C71.6017 125.44 71.9398 125.369 72.3659 125.369C72.9171 125.369 73.4029 125.507 73.8233 125.783C74.2438 126.058 74.5719 126.449 74.8077 126.955C75.0435 127.46 75.1614 128.057 75.1614 128.744C75.1614 129.438 75.0435 130.038 74.8077 130.547C74.5719 131.053 74.2452 131.445 73.8276 131.723C73.41 131.999 72.9284 132.136 72.383 132.136C71.9625 132.136 71.6259 132.067 71.373 131.928C71.1202 131.786 70.9256 131.625 70.7892 131.446C70.6529 131.264 70.5478 131.114 70.4739 130.994H70.3546V132H69.383ZM70.3716 128.727C70.3716 129.222 70.4441 129.658 70.589 130.036C70.7338 130.411 70.9455 130.705 71.2239 130.918C71.5023 131.128 71.8432 131.233 72.2466 131.233C72.6671 131.233 73.0179 131.122 73.2992 130.901C73.5833 130.676 73.7963 130.375 73.9384 129.997C74.0833 129.616 74.1557 129.193 74.1557 128.727C74.1557 128.267 74.0847 127.852 73.9426 127.483C73.8034 127.111 73.5918 126.817 73.3077 126.601C73.0265 126.382 72.6728 126.273 72.2466 126.273C71.8375 126.273 71.4938 126.376 71.2154 126.584C70.937 126.788 70.7267 127.075 70.5847 127.445C70.4426 127.811 70.3716 128.239 70.3716 128.727ZM76.6998 132V125.455H77.7054V132H76.6998ZM77.2111 124.364C77.0151 124.364 76.8461 124.297 76.704 124.163C76.5648 124.03 76.4952 123.869 76.4952 123.682C76.4952 123.494 76.5648 123.334 76.704 123.2C76.8461 123.067 77.0151 123 77.2111 123C77.4071 123 77.5748 123.067 77.714 123.2C77.856 123.334 77.927 123.494 77.927 123.682C77.927 123.869 77.856 124.03 77.714 124.163C77.5748 124.297 77.4071 124.364 77.2111 124.364ZM82.019 132.136C81.4735 132.136 80.992 131.999 80.5744 131.723C80.1568 131.445 79.8301 131.053 79.5943 130.547C79.3585 130.038 79.2406 129.438 79.2406 128.744C79.2406 128.057 79.3585 127.46 79.5943 126.955C79.8301 126.449 80.1582 126.058 80.5787 125.783C80.9991 125.507 81.4849 125.369 82.036 125.369C82.4622 125.369 82.7988 125.44 83.046 125.582C83.296 125.722 83.4863 125.881 83.617 126.06C83.7505 126.236 83.8542 126.381 83.9281 126.494H84.0133V123.273H85.019V132H84.0474V130.994H83.9281C83.8542 131.114 83.7491 131.264 83.6127 131.446C83.4764 131.625 83.2818 131.786 83.0289 131.928C82.7761 132.067 82.4395 132.136 82.019 132.136ZM82.1554 131.233C82.5588 131.233 82.8997 131.128 83.1781 130.918C83.4565 130.705 83.6681 130.411 83.813 130.036C83.9579 129.658 84.0304 129.222 84.0304 128.727C84.0304 128.239 83.9593 127.811 83.8173 127.445C83.6752 127.075 83.465 126.788 83.1866 126.584C82.9082 126.376 82.5645 126.273 82.1554 126.273C81.7292 126.273 81.3741 126.382 81.09 126.601C80.8088 126.817 80.5971 127.111 80.4551 127.483C80.3159 127.852 80.2463 128.267 80.2463 128.727C80.2463 129.193 80.3173 129.616 80.4593 129.997C80.6042 130.375 80.8173 130.676 81.0985 130.901C81.3826 131.122 81.7349 131.233 82.1554 131.233ZM88.9267 132.153C88.5119 132.153 88.1355 132.075 87.7974 131.919C87.4593 131.76 87.1909 131.531 86.992 131.233C86.7931 130.932 86.6937 130.568 86.6937 130.142C86.6937 129.767 86.7676 129.463 86.9153 129.23C87.063 128.994 87.2605 128.81 87.5076 128.676C87.7548 128.543 88.0275 128.443 88.3258 128.378C88.627 128.31 88.9295 128.256 89.2335 128.216C89.6312 128.165 89.9537 128.126 90.2008 128.101C90.4508 128.072 90.6326 128.026 90.7463 127.96C90.8627 127.895 90.921 127.781 90.921 127.619V127.585C90.921 127.165 90.8059 126.838 90.5758 126.605C90.3485 126.372 90.0034 126.256 89.5403 126.256C89.0602 126.256 88.6838 126.361 88.411 126.571C88.1383 126.781 87.9466 127.006 87.8358 127.244L86.8812 126.903C87.0517 126.506 87.2789 126.196 87.563 125.974C87.85 125.75 88.1625 125.594 88.5005 125.506C88.8414 125.415 89.1767 125.369 89.5062 125.369C89.7164 125.369 89.9579 125.395 90.2306 125.446C90.5062 125.494 90.7718 125.595 91.0275 125.749C91.286 125.902 91.5005 126.134 91.671 126.443C91.8414 126.753 91.9267 127.168 91.9267 127.688V132H90.921V131.114H90.8699C90.8017 131.256 90.688 131.408 90.5289 131.57C90.3699 131.732 90.1582 131.869 89.894 131.983C89.6298 132.097 89.3074 132.153 88.9267 132.153ZM89.0801 131.25C89.4778 131.25 89.813 131.172 90.0858 131.016C90.3613 130.859 90.5687 130.658 90.7079 130.411C90.85 130.163 90.921 129.903 90.921 129.631V128.71C90.8784 128.761 90.7846 128.808 90.6397 128.851C90.4977 128.891 90.3329 128.926 90.1454 128.957C89.9608 128.986 89.7804 129.011 89.6042 129.034C89.4309 129.054 89.2903 129.071 89.1824 129.085C88.921 129.119 88.6767 129.175 88.4494 129.251C88.225 129.325 88.0431 129.437 87.9039 129.588C87.7676 129.736 87.6994 129.937 87.6994 130.193C87.6994 130.543 87.8287 130.807 88.0872 130.986C88.3485 131.162 88.6795 131.25 89.0801 131.25ZM98.3986 126.92L97.4952 127.176C97.4384 127.026 97.3546 126.879 97.2438 126.737C97.1358 126.592 96.9881 126.473 96.8006 126.379C96.6131 126.286 96.373 126.239 96.0804 126.239C95.6799 126.239 95.3461 126.331 95.079 126.516C94.8148 126.697 94.6827 126.929 94.6827 127.21C94.6827 127.46 94.7736 127.658 94.9554 127.803C95.1373 127.947 95.4213 128.068 95.8077 128.165L96.7793 128.403C97.3645 128.545 97.8006 128.763 98.0875 129.055C98.3745 129.345 98.5179 129.719 98.5179 130.176C98.5179 130.551 98.41 130.886 98.1941 131.182C97.981 131.477 97.6827 131.71 97.2992 131.881C96.9157 132.051 96.4696 132.136 95.9611 132.136C95.2935 132.136 94.7409 131.991 94.3034 131.702C93.8659 131.412 93.589 130.989 93.4725 130.432L94.427 130.193C94.5179 130.545 94.6898 130.81 94.9426 130.986C95.1983 131.162 95.5321 131.25 95.9441 131.25C96.4128 131.25 96.785 131.151 97.0605 130.952C97.339 130.75 97.4782 130.509 97.4782 130.227C97.4782 130 97.3986 129.81 97.2395 129.656C97.0804 129.5 96.8361 129.384 96.5066 129.307L95.4157 129.051C94.8162 128.909 94.3759 128.689 94.0946 128.391C93.8162 128.089 93.677 127.713 93.677 127.261C93.677 126.892 93.7807 126.565 93.9881 126.281C94.1983 125.997 94.4838 125.774 94.8446 125.612C95.2083 125.45 95.6202 125.369 96.0804 125.369C96.7282 125.369 97.2367 125.511 97.606 125.795C97.9782 126.08 98.2424 126.455 98.3986 126.92Z" fill="black"/>
</svg>
