<svg width="475" height="151" viewBox="0 0 475 151" fill="none" xmlns="http://www.w3.org/2000/svg">
<path d="M106.966 18.39C108.522 18.7254 109.914 19.3338 110.967 20.6052C112.004 21.8493 112.391 23.3001 112.441 24.8679C112.753 34.4073 113.061 43.9428 113.373 53.4822C113.44 55.5648 113.533 57.6435 113.588 59.7261C113.6 60.1395 113.74 60.3228 114.138 60.4476C118.053 61.6956 119.664 65.7828 117.663 69.4098C117.468 69.7647 117.519 69.9714 117.761 70.2483C118.709 71.3286 119.625 72.4362 120.577 73.5165C122.07 75.213 123.065 77.1396 123.357 79.4016C123.369 79.4952 123.431 79.5849 123.467 79.6746C123.467 80.4663 123.467 81.2619 123.467 82.0536C123.424 82.1394 123.361 82.2252 123.346 82.3149C123.018 84.768 121.895 86.8116 120.155 88.5432C119.067 89.6274 117.971 90.7077 116.895 91.8036C115.062 93.6717 112.847 94.5726 110.23 94.5531C106.314 94.5297 102.399 94.5453 98.4832 94.5453H97.75V92.0571C98.5651 92.0571 99.3178 92.0571 100.125 92.0571C100.125 89.9628 100.102 87.9621 100.148 85.9575C100.156 85.626 100.367 85.2087 100.624 84.9903C101.775 84.0075 102.972 83.0871 104.15 82.1394C105.433 81.1098 106.33 79.8267 106.541 78.1692C106.864 75.6147 107.149 73.0524 107.414 70.494C107.449 70.1586 107.356 69.753 107.184 69.4605C105.729 67.0074 106.037 64.1292 108.054 62.0856C108.436 61.6956 108.502 61.329 108.413 60.8298C106.58 50.6196 104.762 40.4055 102.921 30.1992C102.851 29.8131 102.566 29.4699 102.387 29.115C102.173 29.2086 102.118 29.2203 102.083 29.2515C98.0308 33.2958 93.9787 37.344 89.9461 41.4078C89.8057 41.5521 89.7784 41.9499 89.8642 42.1605C90.9835 44.8866 89.8486 47.6478 87.0991 48.7398C86.7013 48.8997 86.5999 49.1064 86.6038 49.5042C86.6194 51.7116 86.6116 53.9151 86.6116 56.1225C86.6116 56.6139 86.6116 57.1053 86.6116 57.6084C86.7676 57.6435 86.8612 57.6708 86.9548 57.6825C89.2714 57.9321 90.3127 58.8915 90.7846 61.212C91.4632 64.5621 92.1847 67.9005 92.797 71.2623C93.2806 73.9065 94.1308 76.5 94.0216 79.2456C94.006 79.6551 94.2322 80.1465 94.4935 80.4819C96.0769 82.506 96.7477 84.7836 96.3226 87.3069C95.5972 91.6398 92.0989 94.5414 87.6529 94.5492C78.5815 94.5609 69.5101 94.5531 60.4387 94.5492C58.8046 94.5492 57.1627 94.6194 55.5325 94.5219C52.2292 94.323 49.7293 92.7357 48.2512 89.7678C46.7575 86.7726 46.9798 83.7774 48.922 81.0591C49.5772 80.1426 49.819 79.2885 49.8034 78.2121C49.7566 75.1623 49.7956 72.1125 49.7839 69.0666C49.7761 67.6236 50.248 66.4029 51.535 65.6853C52.1434 65.346 52.2877 64.956 52.2409 64.3437C52.0576 61.9881 53.7697 60.0888 56.4178 60.1473C60.5791 60.237 64.7443 60.1668 68.9095 60.1785C69.4009 60.1785 69.7012 60.0888 69.9508 59.5935C70.4539 58.5873 71.3275 57.9984 72.4429 57.7761C72.6535 57.7332 72.8602 57.6747 73.1098 57.6162V56.6919C73.1098 52.1055 73.1215 47.5191 73.1059 42.9327C73.0903 39.1731 74.6893 36.4041 77.9848 34.5477C84.6928 30.7686 91.3735 26.9349 98.0581 23.1168C99.505 22.29 101.014 21.5841 102.063 20.1528C102.828 19.1076 104.123 18.7683 105.328 18.39C105.874 18.39 106.42 18.39 106.962 18.39H106.966ZM95.5972 32.2467C97.1572 30.6867 98.7016 29.115 100.285 27.5784C100.644 27.2274 100.702 26.9427 100.531 26.4864C100.332 25.9638 100.25 25.3983 100.102 24.7938C99.6415 25.0512 99.2125 25.2891 98.7874 25.5309C92.2315 29.2671 85.6795 33.015 79.1119 36.7317C76.7329 38.0772 75.5551 40.0428 75.5746 42.7884C75.6058 47.4684 75.5824 52.1523 75.5824 56.8362V57.6279C78.4528 57.6279 81.2803 57.6279 84.1897 57.6279C84.1897 56.4852 84.1897 55.3776 84.1897 54.27C84.1897 52.6827 84.178 51.0993 84.1975 49.512C84.2014 49.122 84.1156 48.9036 83.7139 48.7398C81.0073 47.6595 79.7827 44.7852 80.9098 42.2385C82.0525 39.6567 84.9424 38.5998 87.571 39.8049C87.6607 39.8478 87.7504 39.8829 87.9025 39.9492C90.4921 37.3596 93.0466 34.8012 95.6011 32.2467H95.5972ZM109.349 75.5484C109.232 76.5585 109.161 77.5725 108.994 78.5709C108.627 80.79 107.531 82.5918 105.772 83.9958C104.844 84.7368 103.904 85.4661 102.999 86.2344C102.785 86.4177 102.687 86.7414 102.442 87.1665C103.448 87.1665 104.204 87.1665 105 87.1665V89.6196H102.644V92.0181C102.789 92.0415 102.902 92.0766 103.019 92.0766C105.667 92.0649 108.319 92.0688 110.967 92.0337C112.558 92.0103 113.876 91.3044 114.996 90.2202C116.24 89.0112 117.48 87.7983 118.67 86.5386C121.676 83.3601 121.809 78.957 119.001 75.4665C118.022 74.2497 116.981 73.0875 115.947 71.9175C115.819 71.7693 115.487 71.6094 115.366 71.6718C113.557 72.6195 111.724 72.6546 109.778 71.8083C109.629 73.0992 109.489 74.3238 109.349 75.5484ZM69.397 67.53C68.5936 67.53 67.8331 67.53 67.0219 67.53V65.1081H69.3931C69.3931 64.2423 69.3931 63.4662 69.3931 62.5965C69.0967 62.5965 68.8315 62.5965 68.5663 62.5965C64.6507 62.5965 60.7351 62.5965 56.8234 62.5965C54.9202 62.5965 54.5146 63.0645 54.7798 65.0691C57.9934 65.0691 66.1249 65.1081 69.3931 65.1081C69.3931 65.9583 68.7925 66.6876 68.7925 67.5261C68.4805 67.5261 63.9136 67.5105 63.6484 67.5105C60.4504 67.5105 57.2563 67.5105 54.0583 67.5105C52.627 67.5105 52.237 67.8966 52.237 69.3084C52.237 72.2295 52.237 75.1545 52.237 78.177C54.9124 76.9563 57.6931 77.397 60.4192 77.3463C63.118 77.2956 65.8207 77.3346 68.5195 77.3346H69.397C69.397 74.0118 69.397 70.8021 69.397 67.5261V67.53ZM87.4462 92.0883C90.0436 92.0883 92.0443 91.0587 93.2923 88.7304C95.1916 85.197 92.9647 80.6379 88.9945 79.9437C88.5577 79.8657 88.1092 79.8228 87.6646 79.8228C77.158 79.815 66.6475 79.8111 56.1409 79.8228C53.0482 79.8228 50.7784 81.5856 49.9711 84.5184C49.0234 87.9621 51.6988 91.8699 55.2556 91.9947C59.14 92.1351 63.0361 92.0649 66.9244 92.0805C68.5858 92.0883 70.2433 92.0805 71.9047 92.0805C77.0839 92.0805 82.2631 92.0766 87.4423 92.0805L87.4462 92.0883ZM72.8563 77.3385C77.1658 77.3385 81.4792 77.3424 85.7887 77.3385C87.6958 77.3385 89.6068 77.2761 91.471 78.177C91.471 77.7558 91.5256 77.4165 91.4632 77.1006C90.4336 71.8824 89.3884 66.6642 88.3432 61.4499C88.1482 60.4866 87.7543 60.1746 86.7403 60.1707C82.306 60.1668 77.8717 60.1668 73.4374 60.1707C72.3727 60.1707 71.8852 60.6036 71.8852 61.6176C71.8735 66.7461 71.8813 71.8746 71.8852 77.0031C71.8852 77.0733 71.9086 77.1435 71.9437 77.3385H72.8563ZM105.499 30.6087C107.278 40.5732 109.044 50.4558 110.807 60.3423C110.92 60.3306 111.037 60.3189 111.15 60.3072C110.807 50.0229 110.468 39.7347 110.121 29.3022C108.682 30.3357 107.207 30.7959 105.499 30.6087ZM112.414 69.9831C114.43 69.9909 116.088 68.3178 116.08 66.282C116.072 64.2735 114.473 62.6472 112.465 62.6082C110.468 62.5692 108.764 64.2501 108.748 66.2703C108.736 68.2944 110.398 69.9792 112.41 69.9831H112.414ZM106.232 20.8704C104.204 20.8977 102.621 22.4967 102.617 24.5247C102.613 26.5644 104.255 28.2141 106.287 28.2102C108.315 28.2063 109.957 26.5449 109.945 24.5052C109.934 22.4655 108.272 20.8431 106.232 20.8704ZM82.9534 44.1885C82.9534 45.5379 84.0766 46.6533 85.4221 46.6377C86.7403 46.6221 87.8245 45.5418 87.844 44.2158C87.8635 42.8586 86.7715 41.7471 85.4143 41.7393C84.0571 41.7315 82.9534 42.8313 82.9534 44.1885Z" fill="#424242"/>
<path d="M62.1079 72.3933C63.7303 72.3933 65.302 72.3933 66.9244 72.3933V70.0455C65.341 70.0455 63.7498 70.0455 62.1079 70.0455V72.3933Z" fill="#424242"/>
<path d="M59.5884 72.3777V70.0455C57.9699 70.0455 56.3787 70.0455 54.7485 70.0455V72.3777C56.3631 72.3777 57.9387 72.3777 59.5884 72.3777Z" fill="#424242"/>
<path d="M90.1762 82.5762C91.8922 84.4131 91.9741 87.1704 90.379 89.0814C89.599 90.0135 88.6084 90.5985 87.4189 90.7818C85.66 91.0548 84.1702 90.4503 82.9339 89.1711C81.8926 90.2436 80.7031 90.8325 79.2601 90.8403C77.7937 90.8481 76.5964 90.2124 75.5902 89.1984C73.5622 91.2147 70.6567 91.554 68.1997 89.2335C65.731 91.4292 63.2545 91.4019 60.8092 89.214C58.4068 91.6086 55.4038 91.0548 53.7697 89.4948C51.9835 87.7905 51.7495 84.9552 53.2432 83.0052C53.9998 82.0185 54.9787 81.3906 56.1916 81.1527C58.0129 80.7978 59.5339 81.4257 60.8521 82.7205C61.87 81.6285 63.0907 81.0591 64.5103 81.0474C65.9572 81.0396 67.1818 81.6597 68.2075 82.7322C69.2293 81.6363 70.4461 81.0591 71.8696 81.0474C73.3165 81.0357 74.5411 81.6558 75.5395 82.6815C77.7547 80.6223 80.5198 80.4039 82.9456 82.6542C85.7419 80.595 88.2964 80.5677 90.1723 82.5762H90.1762ZM62.065 86.0043C62.1001 87.3108 63.2194 88.4106 64.5181 88.4106C65.8597 88.4106 66.9712 87.2835 66.9595 85.9341C66.9517 84.5691 65.8597 83.5044 64.483 83.5161C63.1219 83.5317 62.0299 84.6588 62.065 86.0043ZM79.2484 83.5161C77.8873 83.5161 76.7797 84.6354 76.7992 85.977C76.8187 87.2796 77.9263 88.3872 79.2289 88.4067C80.5666 88.4262 81.6898 87.3108 81.6937 85.9575C81.6937 84.5847 80.6212 83.5083 79.2484 83.5122V83.5161ZM86.635 88.4106C87.9649 88.4106 89.1076 87.2484 89.0881 85.9263C89.0686 84.6003 87.9922 83.5278 86.6623 83.5161C85.2817 83.5044 84.2014 84.5652 84.1975 85.938C84.1936 87.303 85.2895 88.4145 86.6389 88.4106H86.635ZM69.4594 85.9731C69.4672 87.3303 70.5904 88.4379 71.932 88.4106C73.2385 88.3833 74.3383 87.2718 74.35 85.9692C74.3617 84.6198 73.2541 83.5161 71.8891 83.52C70.5124 83.52 69.4516 84.5964 69.4594 85.977V85.9731ZM57.1744 88.4106C58.5199 88.395 59.6275 87.2523 59.6002 85.9146C59.5729 84.5808 58.5043 83.5278 57.1705 83.52C55.7938 83.5122 54.7174 84.5808 54.7213 85.9575C54.7213 87.3186 55.8328 88.4301 57.1744 88.4145V88.4106Z" fill="#424242"/>
<path d="M73.1682 62.6277C77.6025 62.6277 81.9783 62.6277 86.3385 62.6277C87.2706 65.3421 88.0545 70.6578 87.7659 72.3777C82.9104 72.3777 78.051 72.3777 73.1682 72.3777C73.1682 69.1056 73.1682 65.8764 73.1682 62.6277ZM75.6213 65.112V69.9324C78.8466 69.9324 82.0758 69.9324 85.3635 69.9324C85.0359 68.3061 84.7161 66.711 84.3963 65.112C81.4401 65.112 78.5502 65.112 75.6213 65.112Z" fill="#424242"/>
<path d="M48.4681 111.5H47.1471C47.0689 111.12 46.9322 110.786 46.7369 110.499C46.5451 110.211 46.3108 109.969 46.0338 109.774C45.7603 109.575 45.4567 109.426 45.1229 109.327C44.7891 109.227 44.4411 109.178 44.0789 109.178C43.4184 109.178 42.82 109.344 42.2838 109.678C41.7511 110.012 41.3267 110.504 41.0107 111.154C40.6982 111.804 40.5419 112.601 40.5419 113.545C40.5419 114.49 40.6982 115.287 41.0107 115.937C41.3267 116.587 41.7511 117.079 42.2838 117.413C42.82 117.746 43.4184 117.913 44.0789 117.913C44.4411 117.913 44.7891 117.864 45.1229 117.764C45.4567 117.665 45.7603 117.517 46.0338 117.322C46.3108 117.123 46.5451 116.88 46.7369 116.592C46.9322 116.301 47.0689 115.967 47.1471 115.591H48.4681C48.3687 116.148 48.1875 116.647 47.9248 117.088C47.662 117.528 47.3353 117.903 46.9446 118.212C46.554 118.517 46.1155 118.75 45.629 118.909C45.146 119.069 44.6293 119.149 44.0789 119.149C43.1485 119.149 42.3211 118.922 41.5966 118.467C40.8722 118.013 40.3022 117.366 39.8868 116.528C39.4713 115.69 39.2635 114.696 39.2635 113.545C39.2635 112.395 39.4713 111.401 39.8868 110.562C40.3022 109.724 40.8722 109.078 41.5966 108.624C42.3211 108.169 43.1485 107.942 44.0789 107.942C44.6293 107.942 45.146 108.022 45.629 108.181C46.1155 108.341 46.554 108.576 46.9446 108.885C47.3353 109.19 47.662 109.563 47.9248 110.003C48.1875 110.44 48.3687 110.939 48.4681 111.5ZM53.7562 119.17C53.0175 119.17 52.3695 118.995 51.8119 118.643C51.2579 118.292 50.8247 117.8 50.5122 117.168C50.2033 116.536 50.0488 115.797 50.0488 114.952C50.0488 114.099 50.2033 113.355 50.5122 112.72C50.8247 112.084 51.2579 111.591 51.8119 111.239C52.3695 110.887 53.0175 110.712 53.7562 110.712C54.4948 110.712 55.1411 110.887 55.6951 111.239C56.2526 111.591 56.6859 112.084 56.9948 112.72C57.3073 113.355 57.4636 114.099 57.4636 114.952C57.4636 115.797 57.3073 116.536 56.9948 117.168C56.6859 117.8 56.2526 118.292 55.6951 118.643C55.1411 118.995 54.4948 119.17 53.7562 119.17ZM53.7562 118.041C54.3172 118.041 54.7789 117.897 55.1411 117.61C55.5033 117.322 55.7714 116.944 55.9454 116.475C56.1195 116.006 56.2065 115.499 56.2065 114.952C56.2065 114.405 56.1195 113.895 55.9454 113.423C55.7714 112.951 55.5033 112.569 55.1411 112.278C54.7789 111.987 54.3172 111.841 53.7562 111.841C53.1951 111.841 52.7334 111.987 52.3712 112.278C52.009 112.569 51.7409 112.951 51.5669 113.423C51.3929 113.895 51.3059 114.405 51.3059 114.952C51.3059 115.499 51.3929 116.006 51.5669 116.475C51.7409 116.944 52.009 117.322 52.3712 117.61C52.7334 117.897 53.1951 118.041 53.7562 118.041ZM60.6396 114.078V119H59.3825V110.818H60.597V112.097H60.7035C60.8953 111.681 61.1865 111.347 61.5771 111.095C61.9677 110.839 62.472 110.712 63.0899 110.712C63.6439 110.712 64.1286 110.825 64.5441 111.053C64.9596 111.276 65.2827 111.617 65.5135 112.075C65.7444 112.53 65.8598 113.105 65.8598 113.801V119H64.6027V113.886C64.6027 113.244 64.4358 112.743 64.102 112.384C63.7682 112.022 63.3101 111.841 62.7277 111.841C62.3264 111.841 61.9677 111.928 61.6517 112.102C61.3392 112.276 61.0924 112.53 60.9113 112.864C60.7302 113.197 60.6396 113.602 60.6396 114.078ZM73.9524 112.651L72.8231 112.97C72.7521 112.782 72.6473 112.599 72.5088 112.422C72.3739 112.24 72.1892 112.091 71.9549 111.974C71.7205 111.857 71.4204 111.798 71.0546 111.798C70.5539 111.798 70.1367 111.914 69.8029 112.145C69.4726 112.372 69.3075 112.661 69.3075 113.013C69.3075 113.325 69.4211 113.572 69.6484 113.753C69.8757 113.934 70.2308 114.085 70.7137 114.206L71.9282 114.504C72.6598 114.682 73.2049 114.953 73.5635 115.319C73.9222 115.681 74.1015 116.148 74.1015 116.72C74.1015 117.189 73.9666 117.608 73.6967 117.977C73.4304 118.347 73.0575 118.638 72.5781 118.851C72.0987 119.064 71.5411 119.17 70.9055 119.17C70.071 119.17 69.3803 118.989 68.8334 118.627C68.2865 118.265 67.9403 117.736 67.7947 117.04L68.9879 116.741C69.1015 117.182 69.3164 117.512 69.6324 117.732C69.952 117.952 70.3693 118.062 70.8842 118.062C71.4701 118.062 71.9353 117.938 72.2798 117.69C72.6278 117.437 72.8018 117.136 72.8018 116.784C72.8018 116.5 72.7024 116.262 72.5035 116.07C72.3046 115.875 71.9992 115.729 71.5873 115.634L70.2237 115.314C69.4744 115.136 68.924 114.861 68.5724 114.488C68.2244 114.112 68.0504 113.641 68.0504 113.077C68.0504 112.615 68.18 112.207 68.4392 111.852C68.702 111.496 69.0589 111.218 69.5099 111.015C69.9644 110.813 70.4794 110.712 71.0546 110.712C71.8643 110.712 72.5 110.889 72.9616 111.244C73.4268 111.599 73.7571 112.068 73.9524 112.651ZM79.5521 110.818V111.884H75.312V110.818H79.5521ZM76.5478 108.858H77.8049V116.656C77.8049 117.011 77.8564 117.278 77.9594 117.455C78.0659 117.629 78.2009 117.746 78.3642 117.807C78.5311 117.864 78.7069 117.892 78.8916 117.892C79.0301 117.892 79.1437 117.885 79.2325 117.871C79.3212 117.853 79.3923 117.839 79.4455 117.828L79.7012 118.957C79.616 118.989 79.497 119.021 79.3443 119.053C79.1916 119.089 78.9981 119.107 78.7637 119.107C78.4086 119.107 78.0606 119.03 77.7197 118.877C77.3823 118.725 77.1018 118.492 76.8781 118.18C76.6579 117.867 76.5478 117.473 76.5478 116.997V108.858ZM81.443 119V110.818H82.6575V112.054H82.7428C82.8919 111.649 83.1618 111.321 83.5524 111.069C83.943 110.816 84.3834 110.69 84.8734 110.69C84.9658 110.69 85.0812 110.692 85.2197 110.696C85.3582 110.699 85.4629 110.705 85.534 110.712V111.99C85.4913 111.979 85.3937 111.963 85.241 111.942C85.0918 111.917 84.9338 111.905 84.7669 111.905C84.3692 111.905 84.0141 111.988 83.7016 112.155C83.3926 112.319 83.1476 112.546 82.9665 112.837C82.7889 113.125 82.7002 113.453 82.7002 113.822V119H81.443ZM92.1804 115.655V110.818H93.4375V119H92.1804V117.615H92.0951C91.9034 118.031 91.6051 118.384 91.2002 118.675C90.7954 118.963 90.284 119.107 89.6661 119.107C89.1548 119.107 88.7002 118.995 88.3025 118.771C87.9048 118.544 87.5923 118.203 87.365 117.748C87.1377 117.29 87.0241 116.713 87.0241 116.017V110.818H88.2812V115.932C88.2812 116.528 88.4481 117.004 88.7819 117.359C89.1193 117.714 89.549 117.892 90.071 117.892C90.3835 117.892 90.7013 117.812 91.0245 117.652C91.3512 117.493 91.6246 117.248 91.8448 116.917C92.0685 116.587 92.1804 116.166 92.1804 115.655ZM99.0638 119.17C98.2967 119.17 97.6362 118.989 97.0823 118.627C96.5283 118.265 96.1021 117.766 95.8038 117.13C95.5055 116.495 95.3564 115.768 95.3564 114.952C95.3564 114.121 95.5091 113.387 95.8145 112.752C96.1234 112.113 96.5531 111.614 97.1036 111.255C97.6575 110.893 98.3038 110.712 99.0425 110.712C99.6178 110.712 100.136 110.818 100.598 111.031C101.06 111.244 101.438 111.543 101.732 111.926C102.027 112.31 102.21 112.757 102.281 113.268H101.024C100.928 112.896 100.715 112.565 100.385 112.278C100.058 111.987 99.6178 111.841 99.0638 111.841C98.5737 111.841 98.144 111.969 97.7747 112.224C97.409 112.477 97.1231 112.833 96.9171 113.295C96.7147 113.753 96.6135 114.291 96.6135 114.909C96.6135 115.541 96.7129 116.092 96.9118 116.56C97.1142 117.029 97.3983 117.393 97.7641 117.652C98.1334 117.912 98.5666 118.041 99.0638 118.041C99.3905 118.041 99.687 117.984 99.9533 117.871C100.22 117.757 100.445 117.594 100.63 117.381C100.814 117.168 100.946 116.912 101.024 116.614H102.281C102.21 117.097 102.034 117.532 101.754 117.919C101.477 118.302 101.109 118.608 100.651 118.835C100.197 119.059 99.6675 119.17 99.0638 119.17ZM107.443 119.17C106.676 119.17 106.015 118.989 105.461 118.627C104.907 118.265 104.481 117.766 104.183 117.13C103.884 116.495 103.735 115.768 103.735 114.952C103.735 114.121 103.888 113.387 104.193 112.752C104.502 112.113 104.932 111.614 105.482 111.255C106.036 110.893 106.683 110.712 107.421 110.712C107.997 110.712 108.515 110.818 108.977 111.031C109.438 111.244 109.817 111.543 110.111 111.926C110.406 112.31 110.589 112.757 110.66 113.268H109.403C109.307 112.896 109.094 112.565 108.764 112.278C108.437 111.987 107.997 111.841 107.443 111.841C106.953 111.841 106.523 111.969 106.154 112.224C105.788 112.477 105.502 112.833 105.296 113.295C105.094 113.753 104.992 114.291 104.992 114.909C104.992 115.541 105.092 116.092 105.291 116.56C105.493 117.029 105.777 117.393 106.143 117.652C106.512 117.912 106.946 118.041 107.443 118.041C107.769 118.041 108.066 117.984 108.332 117.871C108.599 117.757 108.824 117.594 109.009 117.381C109.193 117.168 109.325 116.912 109.403 116.614H110.66C110.589 117.097 110.413 117.532 110.133 117.919C109.856 118.302 109.488 118.608 109.03 118.835C108.576 119.059 108.046 119.17 107.443 119.17ZM112.498 119V110.818H113.755V119H112.498ZM113.137 109.455C112.892 109.455 112.681 109.371 112.503 109.204C112.329 109.037 112.242 108.837 112.242 108.602C112.242 108.368 112.329 108.167 112.503 108C112.681 107.833 112.892 107.75 113.137 107.75C113.382 107.75 113.591 107.833 113.765 108C113.943 108.167 114.032 108.368 114.032 108.602C114.032 108.837 113.943 109.037 113.765 109.204C113.591 109.371 113.382 109.455 113.137 109.455ZM119.381 119.17C118.643 119.17 117.994 118.995 117.437 118.643C116.883 118.292 116.45 117.8 116.137 117.168C115.828 116.536 115.674 115.797 115.674 114.952C115.674 114.099 115.828 113.355 116.137 112.72C116.45 112.084 116.883 111.591 117.437 111.239C117.994 110.887 118.643 110.712 119.381 110.712C120.12 110.712 120.766 110.887 121.32 111.239C121.878 111.591 122.311 112.084 122.62 112.72C122.932 113.355 123.089 114.099 123.089 114.952C123.089 115.797 122.932 116.536 122.62 117.168C122.311 117.8 121.878 118.292 121.32 118.643C120.766 118.995 120.12 119.17 119.381 119.17ZM119.381 118.041C119.942 118.041 120.404 117.897 120.766 117.61C121.128 117.322 121.396 116.944 121.57 116.475C121.744 116.006 121.831 115.499 121.831 114.952C121.831 114.405 121.744 113.895 121.57 113.423C121.396 112.951 121.128 112.569 120.766 112.278C120.404 111.987 119.942 111.841 119.381 111.841C118.82 111.841 118.358 111.987 117.996 112.278C117.634 112.569 117.366 112.951 117.192 113.423C117.018 113.895 116.931 114.405 116.931 114.952C116.931 115.499 117.018 116.006 117.192 116.475C117.366 116.944 117.634 117.322 117.996 117.61C118.358 117.897 118.82 118.041 119.381 118.041ZM118.806 109.71L120.106 107.239H121.576L119.914 109.71H118.806ZM126.265 114.078V119H125.008V110.818H126.222V112.097H126.329C126.52 111.681 126.811 111.347 127.202 111.095C127.593 110.839 128.097 110.712 128.715 110.712C129.269 110.712 129.754 110.825 130.169 111.053C130.585 111.276 130.908 111.617 131.139 112.075C131.369 112.53 131.485 113.105 131.485 113.801V119H130.228V113.886C130.228 113.244 130.061 112.743 129.727 112.384C129.393 112.022 128.935 111.841 128.353 111.841C127.951 111.841 127.593 111.928 127.277 112.102C126.964 112.276 126.717 112.53 126.536 112.864C126.355 113.197 126.265 113.602 126.265 114.078Z" fill="black"/>
<path d="M237.429 58.3864C238.769 58.0462 239.978 57.7774 241.158 57.4162C241.402 57.3406 241.688 56.929 241.696 56.6644C241.742 54.9256 241.717 53.1826 241.721 51.4438C241.725 50.2594 242.276 49.5958 243.221 49.6C244.161 49.6042 244.699 50.2678 244.703 51.4606C244.712 53.6992 244.691 55.9378 244.712 58.1764C244.72 59.1718 244.262 59.7472 243.317 59.9824C241.675 60.394 240.033 60.814 238.277 61.2592C239.147 62.6746 239.89 64.0354 240.785 65.2912C241.713 66.5974 242.091 67.9666 241.982 69.5584C241.881 71.0074 241.961 72.469 241.961 73.876C242.095 73.9558 242.145 74.0062 242.196 74.0104C244.581 74.1658 244.703 74.296 244.703 76.753C244.703 78.9916 244.703 81.2302 244.703 83.4688C244.703 85.3504 244.426 85.6612 242.465 85.8628C242.465 87.1816 242.469 88.5088 242.465 89.8402C242.46 91.2472 241.956 91.7596 240.566 91.7638C237.273 91.768 233.976 91.7722 230.684 91.7638C229.352 91.7638 228.848 91.243 228.844 89.8864C228.836 88.5592 228.844 87.2278 228.844 85.8502H212.825C212.825 87.1816 212.825 88.5046 212.825 89.8318C212.821 91.285 212.334 91.768 210.851 91.768C207.617 91.768 204.387 91.768 201.153 91.768C199.692 91.768 199.205 91.2724 199.196 89.8066C199.192 88.5088 199.196 87.2068 199.196 85.7956C198.671 85.7956 198.218 85.8166 197.764 85.7956C196.823 85.7452 196.231 85.2076 196.223 84.2752C196.197 81.3856 196.193 78.4918 196.223 75.6022C196.231 74.5144 196.739 74.17 198.474 73.9684C198.474 72.343 198.537 70.7008 198.453 69.067C198.39 67.8238 198.717 66.778 199.402 65.7532C200.368 64.3126 201.237 62.809 202.203 61.2466C200.691 60.835 199.272 60.436 197.844 60.058C196.529 59.7094 196.214 59.3272 196.214 57.979C196.214 55.8034 196.21 53.6278 196.214 51.4522C196.214 50.272 196.773 49.6042 197.718 49.6168C198.659 49.6252 199.188 50.2888 199.196 51.4816C199.205 53.128 199.221 54.7786 199.188 56.425C199.175 57.0634 199.276 57.4414 200.019 57.5716C200.99 57.7354 201.93 58.063 203.052 58.3654V57.202C203.052 49.6798 203.052 42.1576 203.052 34.6354C203.052 34.354 203.043 34.0768 203.052 33.7954C203.085 32.7454 203.631 32.1028 204.497 32.086C205.383 32.065 206.013 32.7454 206.025 33.8248C206.051 35.908 206.034 37.9912 206.034 40.0744C206.034 40.4062 206.034 40.738 206.034 41.2C206.319 41.0404 206.483 40.969 206.626 40.8682C208.016 39.877 209.574 39.4612 211.271 39.4654C216.929 39.4738 222.582 39.4738 228.239 39.4654C229.734 39.4654 231.125 39.814 232.418 40.5658C233.031 40.9228 233.666 41.2378 234.438 41.6578C234.438 40.1836 234.438 38.8396 234.438 37.4914C234.438 36.2776 234.43 35.068 234.438 33.8542C234.447 32.758 235.022 32.0902 235.929 32.0944C236.832 32.0944 237.416 32.7664 237.416 33.8626C237.425 41.6326 237.416 49.4026 237.416 57.1768C237.416 57.5464 237.416 57.9202 237.416 58.4074L237.429 58.3864ZM241.7 77.0596C241.469 77.0428 241.318 77.0302 241.171 77.026C239.365 76.984 238.983 76.6018 238.979 74.8168C238.979 72.826 239.004 70.8352 238.962 68.8486C238.953 68.3824 238.806 67.8658 238.567 67.4668C237.378 65.4634 236.114 63.5062 234.934 61.4986C234.653 61.0198 234.472 60.4024 234.468 59.848C234.43 55.7152 234.325 51.574 234.501 47.4454C234.581 45.5848 234.01 44.602 232.343 43.8544C230.747 43.1404 229.272 42.3718 227.424 42.4054C222.607 42.4978 217.785 42.523 212.972 42.397C210.608 42.334 208.575 42.8338 206.773 44.3794C206.286 44.7994 206.017 45.1564 206.021 45.8326C206.051 50.4652 206.055 55.0978 206.013 59.7304C206.009 60.3436 205.803 61.024 205.492 61.5574C204.337 63.544 203.077 65.4676 201.909 67.45C201.645 67.8994 201.489 68.4832 201.477 69.0082C201.431 71.1208 201.447 73.2376 201.46 75.3502C201.464 76.2112 201.095 76.7866 200.255 76.9924C199.935 77.0722 199.595 77.047 199.263 77.0722V82.738H241.7V77.068V77.0596ZM209.801 85.8586H202.229V88.7272H209.801V85.8586ZM239.445 85.8418H231.889V88.7146H239.445V85.8418Z" fill="#424242"/>
<path d="M275.296 82.4356C275.296 82.9606 275.288 83.3638 275.296 83.7628C275.38 87.2656 275.237 87.358 271.726 87.2908C270.172 87.2614 268.618 87.2656 267.064 87.2908C263.301 87.3538 263.284 87.3118 263.355 83.5318C263.364 83.1958 263.355 82.864 263.355 82.4356H262.272C257.765 82.4356 253.259 82.4356 248.752 82.4356C248.441 82.4356 248.126 82.4566 247.824 82.4062C247.072 82.276 246.534 81.6208 246.585 80.8858C246.644 80.1088 247.085 79.63 247.845 79.483C248.147 79.4242 248.462 79.4536 248.773 79.4536C257.694 79.4536 266.615 79.4536 275.535 79.4536H276.783V78.4288C276.783 69.5038 276.774 60.583 276.8 51.658C276.8 50.9776 276.573 50.6122 276.023 50.2468C266.132 43.636 256.253 37.0042 246.371 30.3766C246.19 30.2548 246.005 30.1414 245.829 30.0112C245.043 29.4274 244.854 28.6252 245.321 27.907C245.787 27.1888 246.631 27.0124 247.446 27.5206C248.395 28.1128 249.311 28.7554 250.239 29.377C259.449 35.5552 268.647 41.7502 277.879 47.8948C279.206 48.7768 279.786 49.8604 279.782 51.4522C279.744 61.0576 279.761 70.6672 279.761 80.2726C279.761 81.9946 279.328 82.4314 277.627 82.4314C276.884 82.4314 276.144 82.4314 275.283 82.4314L275.296 82.4356ZM272.272 82.4986H266.421V84.25H272.272V82.4986Z" fill="#424242"/>
<path d="M241.726 28.3816H199.201V29.4232C199.201 34.8328 199.201 40.2424 199.201 45.6478C199.201 45.8956 199.217 55.2112 199.201 55.459C199.146 56.4166 198.277 52.7878 197.411 52.7752C196.584 52.7626 196.273 55.1104 196.21 54.2116C196.198 54.0268 196.21 46.0594 196.21 45.8746C196.21 39.7216 196.21 33.5644 196.21 27.4114C196.21 25.8154 196.668 25.3492 198.251 25.3492C213.044 25.3492 227.836 25.3492 242.633 25.3492C244.233 25.3492 244.703 25.8112 244.703 27.382C244.703 33.5686 244.703 39.7552 244.703 45.9376C244.703 46.093 244.712 56.6182 244.703 56.7736C244.64 57.727 244.027 55.4254 243.158 55.4086C242.335 55.3876 241.726 57.5716 241.696 56.6644C241.663 55.6102 241.721 44.3122 241.721 43.2538C241.721 38.6548 241.721 34.0516 241.721 29.4526V28.3816H241.726Z" fill="#424242"/>
<path d="M272.272 82.4986V84.25H266.421V82.4986H272.272Z" fill="#424242"/>
<path d="M219.995 61.9144C216.95 61.9144 213.9 61.9144 210.855 61.9144C209.394 61.9144 208.898 61.4188 208.898 59.9572C208.894 57.2524 208.894 54.5476 208.898 51.8428C208.898 50.503 209.419 49.9822 210.759 49.978C216.975 49.9738 223.191 49.9738 229.407 49.978C230.747 49.978 231.267 50.503 231.272 51.8386C231.28 54.5728 231.28 57.3112 231.272 60.0454C231.272 61.3852 230.742 61.906 229.407 61.9102C226.269 61.9186 223.128 61.9102 219.99 61.9102L219.995 61.9144ZM228.252 53.0272H211.96V58.882H228.256V53.0272H228.252Z" fill="#424242"/>
<path d="M220.511 66.484C224.169 66.484 227.823 66.484 231.482 66.484C231.784 66.484 232.099 66.4966 232.393 66.5512C233.099 66.6814 233.544 67.1518 233.523 67.702C233.502 68.2354 233.061 68.6638 232.376 68.7814C232.103 68.8276 231.818 68.8486 231.536 68.8486C224.174 68.8486 216.815 68.8486 209.453 68.8486C209.406 68.8486 209.36 68.8486 209.31 68.8486C208.121 68.836 207.441 68.3992 207.449 67.6558C207.458 66.9166 208.142 66.484 209.331 66.4798C213.06 66.4798 216.786 66.4798 220.515 66.4798L220.511 66.484Z" fill="#424242"/>
<path d="M220.486 73.5232C216.807 73.5232 213.128 73.5232 209.444 73.5232C208.109 73.5232 207.437 73.1242 207.445 72.343C207.458 71.5744 208.138 71.188 209.478 71.188C216.815 71.188 224.153 71.188 231.49 71.188C231.818 71.188 232.158 71.188 232.473 71.251C233.12 71.377 233.548 71.8726 233.523 72.3976C233.498 72.952 233.006 73.4056 232.305 73.4854C232.028 73.519 231.742 73.519 231.457 73.519C227.798 73.519 224.144 73.519 220.486 73.519V73.5232Z" fill="#424242"/>
<path d="M205.328 80.8522C204.694 80.8522 204.06 80.8648 203.426 80.848C202.993 80.8354 202.628 80.617 202.434 80.0752C202.271 79.6132 202.279 79.105 202.565 78.7774C202.8 78.5044 203.148 78.2692 203.455 78.2566C204.707 78.1978 205.962 78.2104 207.214 78.2398C207.903 78.2566 208.31 78.7732 208.319 79.5292C208.323 80.3062 207.89 80.827 207.189 80.8522C206.571 80.8732 205.954 80.8522 205.332 80.8522H205.328Z" fill="#424242"/>
<path d="M235.585 80.848C234.951 80.848 234.317 80.8606 233.682 80.8438C233.229 80.8312 232.847 80.5918 232.679 80.008C232.54 79.525 232.569 78.9874 232.893 78.664C233.132 78.4246 233.472 78.2566 233.775 78.244C234.993 78.1978 236.215 78.2104 237.437 78.2314C238.143 78.244 238.592 78.7774 238.592 79.5334C238.592 80.3104 238.122 80.8354 237.395 80.848C236.795 80.8606 236.19 80.848 235.589 80.848H235.585Z" fill="#424242"/>
<path d="M201.198 119V108.091H204.885C205.74 108.091 206.44 108.245 206.983 108.554C207.53 108.86 207.935 109.273 208.198 109.795C208.461 110.317 208.592 110.9 208.592 111.543C208.592 112.185 208.461 112.77 208.198 113.295C207.939 113.821 207.537 114.24 206.994 114.552C206.451 114.861 205.755 115.016 204.906 115.016H202.264V113.844H204.863C205.449 113.844 205.92 113.743 206.275 113.54C206.63 113.338 206.887 113.064 207.047 112.72C207.211 112.372 207.292 111.979 207.292 111.543C207.292 111.106 207.211 110.715 207.047 110.371C206.887 110.026 206.628 109.756 206.269 109.561C205.911 109.362 205.435 109.263 204.842 109.263H202.519V119H201.198ZM212.957 119.192C212.439 119.192 211.968 119.094 211.546 118.899C211.123 118.7 210.787 118.414 210.539 118.041C210.29 117.665 210.166 117.21 210.166 116.678C210.166 116.209 210.258 115.829 210.443 115.538C210.628 115.243 210.874 115.012 211.183 114.845C211.492 114.678 211.833 114.554 212.206 114.472C212.583 114.387 212.961 114.32 213.341 114.27C213.838 114.206 214.241 114.158 214.55 114.126C214.862 114.091 215.09 114.032 215.232 113.95C215.377 113.869 215.45 113.727 215.45 113.524V113.482C215.45 112.956 215.306 112.548 215.019 112.256C214.735 111.965 214.303 111.82 213.724 111.82C213.124 111.82 212.654 111.951 212.313 112.214C211.972 112.477 211.732 112.757 211.594 113.055L210.4 112.629C210.613 112.132 210.898 111.745 211.253 111.468C211.611 111.187 212.002 110.992 212.424 110.882C212.851 110.768 213.27 110.712 213.682 110.712C213.944 110.712 214.246 110.744 214.587 110.808C214.932 110.868 215.264 110.994 215.583 111.186C215.906 111.377 216.174 111.667 216.388 112.054C216.601 112.441 216.707 112.96 216.707 113.609V119H215.45V117.892H215.386C215.301 118.07 215.159 118.26 214.96 118.462C214.761 118.664 214.497 118.837 214.166 118.979C213.836 119.121 213.433 119.192 212.957 119.192ZM213.149 118.062C213.646 118.062 214.065 117.965 214.406 117.77C214.75 117.574 215.01 117.322 215.184 117.013C215.361 116.704 215.45 116.379 215.45 116.038V114.888C215.397 114.952 215.28 115.01 215.098 115.064C214.921 115.113 214.715 115.158 214.481 115.197C214.25 115.232 214.024 115.264 213.804 115.293C213.587 115.317 213.412 115.339 213.277 115.357C212.95 115.399 212.645 115.468 212.361 115.564C212.08 115.657 211.853 115.797 211.679 115.985C211.508 116.17 211.423 116.422 211.423 116.741C211.423 117.178 211.585 117.509 211.908 117.732C212.235 117.952 212.648 118.062 213.149 118.062ZM224.584 122.068V117.743H224.477C224.385 117.892 224.254 118.08 224.083 118.308C223.913 118.531 223.67 118.732 223.354 118.909C223.038 119.083 222.617 119.17 222.091 119.17C221.409 119.17 220.807 118.998 220.285 118.654C219.763 118.306 219.355 117.816 219.06 117.184C218.765 116.548 218.618 115.797 218.618 114.93C218.618 114.071 218.765 113.325 219.06 112.693C219.355 112.061 219.765 111.573 220.291 111.228C220.816 110.884 221.424 110.712 222.112 110.712C222.645 110.712 223.066 110.8 223.375 110.978C223.687 111.152 223.925 111.351 224.089 111.575C224.256 111.795 224.385 111.976 224.477 112.118H224.627V110.818H225.841V122.068H224.584ZM222.262 118.041C222.766 118.041 223.192 117.91 223.54 117.647C223.888 117.381 224.153 117.013 224.334 116.544C224.515 116.072 224.605 115.527 224.605 114.909C224.605 114.298 224.517 113.764 224.339 113.306C224.161 112.844 223.899 112.485 223.551 112.23C223.203 111.971 222.773 111.841 222.262 111.841C221.729 111.841 221.285 111.978 220.93 112.251C220.578 112.521 220.314 112.888 220.136 113.354C219.962 113.815 219.875 114.334 219.875 114.909C219.875 115.491 219.964 116.021 220.142 116.496C220.323 116.969 220.589 117.345 220.941 117.626C221.296 117.903 221.736 118.041 222.262 118.041ZM233.299 115.655V110.818H234.556V119H233.299V117.615H233.213C233.022 118.031 232.723 118.384 232.318 118.675C231.914 118.963 231.402 119.107 230.784 119.107C230.273 119.107 229.818 118.995 229.421 118.771C229.023 118.544 228.71 118.203 228.483 117.748C228.256 117.29 228.142 116.713 228.142 116.017V110.818H229.399V115.932C229.399 116.528 229.566 117.004 229.9 117.359C230.237 117.714 230.667 117.892 231.189 117.892C231.502 117.892 231.819 117.812 232.143 117.652C232.469 117.493 232.743 117.248 232.963 116.917C233.187 116.587 233.299 116.166 233.299 115.655ZM240.288 119.17C239.5 119.17 238.82 118.996 238.248 118.648C237.68 118.297 237.242 117.807 236.933 117.178C236.627 116.546 236.475 115.811 236.475 114.973C236.475 114.135 236.627 113.396 236.933 112.757C237.242 112.114 237.671 111.614 238.222 111.255C238.776 110.893 239.422 110.712 240.161 110.712C240.587 110.712 241.008 110.783 241.423 110.925C241.839 111.067 242.217 111.298 242.558 111.617C242.899 111.933 243.17 112.352 243.373 112.874C243.575 113.396 243.676 114.039 243.676 114.803V115.335H237.369V114.249H242.398C242.398 113.787 242.306 113.375 242.121 113.013C241.94 112.651 241.681 112.365 241.343 112.155C241.009 111.946 240.615 111.841 240.161 111.841C239.66 111.841 239.227 111.965 238.861 112.214C238.499 112.459 238.22 112.778 238.025 113.173C237.829 113.567 237.732 113.989 237.732 114.44V115.165C237.732 115.783 237.838 116.306 238.051 116.736C238.268 117.162 238.568 117.487 238.951 117.711C239.335 117.931 239.781 118.041 240.288 118.041C240.619 118.041 240.917 117.995 241.183 117.903C241.453 117.807 241.686 117.665 241.881 117.477C242.076 117.285 242.227 117.047 242.334 116.763L243.548 117.104C243.421 117.516 243.206 117.878 242.904 118.19C242.602 118.499 242.229 118.741 241.785 118.915C241.341 119.085 240.842 119.17 240.288 119.17ZM249.147 110.818V111.884H244.907V110.818H249.147ZM246.143 108.858H247.4V116.656C247.4 117.011 247.451 117.278 247.554 117.455C247.661 117.629 247.796 117.746 247.959 117.807C248.126 117.864 248.302 117.892 248.486 117.892C248.625 117.892 248.738 117.885 248.827 117.871C248.916 117.853 248.987 117.839 249.04 117.828L249.296 118.957C249.211 118.989 249.092 119.021 248.939 119.053C248.786 119.089 248.593 119.107 248.358 119.107C248.003 119.107 247.655 119.03 247.314 118.877C246.977 118.725 246.697 118.492 246.473 118.18C246.253 117.867 246.143 117.473 246.143 116.997V108.858ZM254.38 119.17C253.592 119.17 252.912 118.996 252.34 118.648C251.772 118.297 251.333 117.807 251.024 117.178C250.719 116.546 250.566 115.811 250.566 114.973C250.566 114.135 250.719 113.396 251.024 112.757C251.333 112.114 251.763 111.614 252.314 111.255C252.867 110.893 253.514 110.712 254.252 110.712C254.679 110.712 255.099 110.783 255.515 110.925C255.93 111.067 256.309 111.298 256.649 111.617C256.99 111.933 257.262 112.352 257.464 112.874C257.667 113.396 257.768 114.039 257.768 114.803V115.335H251.461V114.249H256.49C256.49 113.787 256.397 113.375 256.213 113.013C256.032 112.651 255.772 112.365 255.435 112.155C255.101 111.946 254.707 111.841 254.252 111.841C253.752 111.841 253.318 111.965 252.953 112.214C252.591 112.459 252.312 112.778 252.116 113.173C251.921 113.567 251.823 113.989 251.823 114.44V115.165C251.823 115.783 251.93 116.306 252.143 116.736C252.36 117.162 252.66 117.487 253.043 117.711C253.427 117.931 253.872 118.041 254.38 118.041C254.711 118.041 255.009 117.995 255.275 117.903C255.545 117.807 255.778 117.665 255.973 117.477C256.168 117.285 256.319 117.047 256.426 116.763L257.64 117.104C257.512 117.516 257.298 117.878 256.996 118.19C256.694 118.499 256.321 118.741 255.877 118.915C255.433 119.085 254.934 119.17 254.38 119.17ZM259.68 119V110.818H260.895V112.054H260.98C261.129 111.649 261.399 111.321 261.79 111.069C262.18 110.816 262.621 110.69 263.111 110.69C263.203 110.69 263.318 110.692 263.457 110.696C263.595 110.699 263.7 110.705 263.771 110.712V111.99C263.729 111.979 263.631 111.963 263.478 111.942C263.329 111.917 263.171 111.905 263.004 111.905C262.606 111.905 262.251 111.988 261.939 112.155C261.63 112.319 261.385 112.546 261.204 112.837C261.026 113.125 260.937 113.453 260.937 113.822V119H259.68ZM265.261 119V110.818H266.519V119H265.261ZM265.325 109.71L266.625 107.239H268.095L266.433 109.71H265.325ZM271.229 119.192C270.71 119.192 270.24 119.094 269.817 118.899C269.394 118.7 269.059 118.414 268.81 118.041C268.562 117.665 268.437 117.21 268.437 116.678C268.437 116.209 268.53 115.829 268.714 115.538C268.899 115.243 269.146 115.012 269.455 114.845C269.764 114.678 270.105 114.554 270.478 114.472C270.854 114.387 271.232 114.32 271.612 114.27C272.109 114.206 272.512 114.158 272.821 114.126C273.134 114.091 273.361 114.032 273.503 113.95C273.649 113.869 273.722 113.727 273.722 113.524V113.482C273.722 112.956 273.578 112.548 273.29 112.256C273.006 111.965 272.575 111.82 271.996 111.82C271.396 111.82 270.925 111.951 270.584 112.214C270.243 112.477 270.004 112.757 269.865 113.055L268.672 112.629C268.885 112.132 269.169 111.745 269.524 111.468C269.883 111.187 270.273 110.992 270.696 110.882C271.122 110.768 271.541 110.712 271.953 110.712C272.216 110.712 272.518 110.744 272.859 110.808C273.203 110.868 273.535 110.994 273.855 111.186C274.178 111.377 274.446 111.667 274.659 112.054C274.872 112.441 274.979 112.96 274.979 113.609V119H273.722V117.892H273.658C273.572 118.07 273.43 118.26 273.231 118.462C273.033 118.664 272.768 118.837 272.438 118.979C272.108 119.121 271.705 119.192 271.229 119.192ZM271.42 118.062C271.918 118.062 272.337 117.965 272.678 117.77C273.022 117.574 273.281 117.322 273.455 117.013C273.633 116.704 273.722 116.379 273.722 116.038V114.888C273.668 114.952 273.551 115.01 273.37 115.064C273.192 115.113 272.986 115.158 272.752 115.197C272.521 115.232 272.296 115.264 272.076 115.293C271.859 115.317 271.683 115.339 271.548 115.357C271.222 115.399 270.916 115.468 270.632 115.564C270.352 115.657 270.124 115.797 269.95 115.985C269.78 116.17 269.695 116.422 269.695 116.741C269.695 117.178 269.856 117.509 270.179 117.732C270.506 117.952 270.92 118.062 271.42 118.062Z" fill="black"/>
<g clip-path="url(#clip0_40_20)">
<path d="M402.185 31.0216C412.991 31.0216 423.793 31.0216 434.6 31.0216C438.604 31.0216 440.729 32.6716 441.71 36.5216C442.784 40.728 443.866 44.93 444.944 49.1364C445.283 50.4564 445.353 50.5092 446.757 50.5136C447.135 50.5136 447.514 50.5048 447.892 50.518C449.925 50.5972 451.003 51.7016 451.012 53.752C451.025 56.8408 451.021 59.9252 451.012 63.014C451.012 64.5276 450.18 65.4912 448.9 65.5132C447.593 65.5352 446.735 64.5452 446.726 62.9832C446.717 61.408 446.735 59.8328 446.722 58.2576C446.717 57.4392 447.012 56.81 447.681 56.3172C448.398 55.7892 448.812 53.9412 448.367 53.2196C448.253 53.0348 447.914 52.9028 447.672 52.8984C446.445 52.8676 445.217 52.872 443.985 52.8896C443.092 52.9028 442.823 53.2284 442.982 54.1524C443.629 57.9056 444.403 61.6368 444.913 65.4076C445.371 68.7692 445.573 72.1704 445.833 75.5584C445.895 76.3416 446.035 76.8344 446.902 77.0544C448.081 77.3536 448.64 78.1852 448.737 79.3996C448.891 81.3532 448.552 83.254 446.572 83.9976C444.57 84.75 442.375 85.2076 440.491 83.4212C440.293 83.232 439.919 83.1528 439.625 83.1484C438.208 83.122 436.791 83.1484 435.374 83.1264C434.741 83.1176 434.402 83.3948 434.169 83.9624C432.818 87.3196 430.349 89.0884 427.01 89.1148C423.648 89.1456 420.999 87.302 419.649 83.9404C419.411 83.3508 419.072 83.122 418.447 83.122C409.595 83.1352 400.746 83.1352 391.893 83.122C391.211 83.122 390.886 83.408 390.648 84.0196C389.381 87.3284 386.525 89.2512 383.146 89.1104C379.644 88.9652 377.087 86.928 376.04 83.3948C375.851 82.7612 375.495 82.484 374.87 82.3564C372.529 81.8812 370.197 81.3576 367.856 80.8604C365.269 80.3104 363.949 78.722 363.949 76.082C363.945 62.8512 363.94 49.616 363.949 36.3852C363.949 33.0456 365.964 31.026 369.304 31.026C380.264 31.0172 391.229 31.026 402.189 31.026L402.185 31.0216ZM366.497 71.2684C366.532 72.0076 366.791 72.3508 367.412 72.3552C367.729 72.3552 368.045 72.3376 368.358 72.3684C369.044 72.4344 369.48 72.7908 369.497 73.508C369.515 74.2252 369.101 74.6124 368.411 74.6872C368.067 74.7268 367.72 74.7048 367.372 74.7092C366.69 74.7224 366.347 75.0656 366.294 75.752C366.18 77.2656 366.8 78.194 368.248 78.5196C370.395 79.0036 372.555 79.4304 374.698 79.932C375.565 80.1344 376.009 79.866 376.397 79.074C377.857 76.0908 380.326 74.5948 383.617 74.7092C386.961 74.8236 389.324 76.5308 390.507 79.6856C390.864 80.6272 391.462 80.7548 392.263 80.658C393.143 80.5524 393.095 79.866 393.095 79.2236C393.095 74.1812 393.095 69.1432 393.095 64.1008C393.095 62.4948 392.963 62.3584 391.396 62.3584C384.937 62.3584 378.482 62.3584 372.023 62.3584C369.968 62.3584 369.005 61.3992 368.991 59.362C368.978 57.47 368.987 55.5824 368.991 53.6904C368.996 51.3584 369.937 50.4036 372.243 50.4036C378.227 50.4036 384.211 50.4124 390.199 50.4212C404.218 50.4388 418.232 50.4564 432.25 50.474C434.468 50.474 435.436 51.4376 435.44 53.62C435.44 55.4768 435.44 57.338 435.44 59.1948C435.44 61.3948 434.49 62.332 432.259 62.332C427.595 62.332 422.935 62.332 418.271 62.332C416.921 62.332 416.775 62.4772 416.775 63.8632C416.775 68.9672 416.775 74.0712 416.775 79.1752C416.775 79.7912 416.635 80.4952 417.541 80.6536C418.791 80.8692 419.213 80.5876 419.723 79.734C420.41 78.59 421.092 77.3404 422.086 76.5088C426.095 73.156 432.065 74.7444 434.089 79.602C434.318 80.152 434.516 80.6624 435.233 80.658C436.527 80.6536 437.821 80.7108 439.105 80.614C439.427 80.5876 439.919 80.1036 439.972 79.7736C440.289 77.8156 440.623 77.3888 442.551 76.9664C443.14 76.8388 443.431 76.5352 443.4 75.928C443.356 75.1096 443.325 74.2912 443.285 73.4728C443.255 72.8788 442.96 72.584 442.335 72.5356C440.628 72.3992 440.056 71.8184 439.783 70.1024C439.387 67.6164 438.969 65.1348 438.56 62.6488C438.036 59.45 437.499 56.2512 436.993 53.0524C436.729 51.3716 437.42 50.5488 439.132 50.474C439.792 50.4432 440.456 50.474 441.116 50.4872C442.392 50.5092 442.652 50.1924 442.339 48.9648C441.283 44.8508 440.236 40.7368 439.167 36.6272C438.555 34.2688 437.359 33.3624 434.895 33.3624C413.159 33.3624 391.427 33.3624 369.691 33.3624C367.337 33.3624 366.492 34.1984 366.492 36.5304C366.492 45.6692 366.492 54.8036 366.492 63.9424C366.492 65.368 366.646 65.5264 368.045 65.5264C375.037 65.5264 382.033 65.5264 389.025 65.5264C389.341 65.5264 389.733 65.4252 389.949 65.5748C390.318 65.8344 390.798 66.2392 390.82 66.6088C390.842 66.9828 390.424 67.4536 390.089 67.7528C389.905 67.9156 389.487 67.832 389.174 67.832C381.993 67.832 374.813 67.832 367.627 67.832C367.271 67.832 366.91 67.832 366.505 67.832C366.633 69.2224 367.579 68.8968 368.296 68.932C369.088 68.9716 369.572 69.3456 369.563 70.142C369.55 70.8944 369.066 71.2596 368.323 71.264C367.737 71.264 367.152 71.264 366.51 71.264L366.497 71.2684ZM395.559 66.7892C395.559 71.0044 395.572 75.224 395.55 79.4392C395.545 80.306 395.831 80.7108 396.751 80.6932C398.669 80.6536 400.588 80.6668 402.506 80.6932C403.245 80.702 403.615 80.4556 403.611 79.6636C403.597 71.1056 403.597 62.5432 403.611 53.9852C403.611 53.1932 403.298 52.8544 402.48 52.872C400.623 52.9072 398.766 52.8808 396.909 52.8852C395.691 52.8852 395.559 53.0128 395.559 54.2404C395.559 58.4248 395.559 62.6092 395.559 66.798V66.7892ZM414.193 66.8332C414.193 62.6752 414.193 58.5216 414.193 54.3636C414.193 52.9952 414.065 52.8764 412.67 52.8764C410.906 52.8764 409.146 52.9028 407.381 52.8632C406.471 52.8412 406.154 53.2504 406.154 54.1128C406.163 62.5828 406.163 71.0528 406.154 79.5228C406.154 80.3764 406.523 80.702 407.359 80.6888C409.155 80.658 410.95 80.68 412.741 80.68C414.043 80.68 414.193 80.5304 414.193 79.2104C414.193 75.0876 414.193 70.9604 414.193 66.8376V66.8332ZM376.498 60.0308C377.756 60.0308 379.01 60.0308 380.269 60.0308C381.043 60.0308 381.413 59.6656 381.404 58.8736C381.386 57.2412 381.386 55.6044 381.404 53.972C381.413 53.2328 381.127 52.8676 380.352 52.872C377.778 52.8896 375.2 52.8896 372.626 52.872C371.873 52.8676 371.535 53.1756 371.539 53.9368C371.557 55.5692 371.561 57.206 371.539 58.8384C371.526 59.6876 371.913 60.044 372.731 60.0352C373.99 60.0264 375.244 60.0352 376.502 60.0352L376.498 60.0308ZM388.457 60.0308C389.654 60.0308 390.851 60.0308 392.047 60.0308C392.769 60.0308 393.161 59.7008 393.156 58.9396C393.147 57.2676 393.147 55.6 393.156 53.928C393.161 53.1712 392.817 52.8588 392.056 52.8676C389.724 52.8896 387.392 52.894 385.065 52.8676C384.299 52.8588 383.973 53.1536 383.987 53.9236C384.009 55.5912 384.013 57.2632 383.987 58.9352C383.973 59.7668 384.383 60.0528 385.153 60.0396C386.257 60.022 387.357 60.0352 388.461 60.0352L388.457 60.0308ZM423.551 56.4492C423.551 55.6 423.543 54.7552 423.551 53.906C423.56 53.202 423.252 52.8676 422.535 52.872C420.964 52.8852 419.393 52.8896 417.827 52.872C417.119 52.8632 416.767 53.18 416.767 53.8796C416.767 55.5736 416.767 57.272 416.767 58.966C416.767 59.6568 417.088 60.0308 417.787 60.0308C419.358 60.0352 420.929 60.0396 422.495 60.0308C423.226 60.0264 423.573 59.6436 423.556 58.9044C423.538 58.0904 423.556 57.272 423.551 56.4536V56.4492ZM432.809 56.4184C432.809 55.6 432.787 54.7816 432.813 53.9632C432.84 53.224 432.563 52.8544 431.775 52.8676C430.235 52.894 428.691 52.894 427.151 52.8676C426.411 52.8544 426.139 53.1844 426.147 53.8928C426.165 55.5912 426.165 57.2896 426.147 58.988C426.139 59.7096 426.482 60.0264 427.177 60.0264C428.717 60.0264 430.261 60.0264 431.801 60.0264C432.501 60.0264 432.827 59.6744 432.813 58.966C432.796 58.1168 432.809 57.2676 432.813 56.4184H432.809ZM431.907 81.9428C431.925 79.162 429.808 77.1556 426.843 77.1424C424.04 77.1292 421.875 79.1576 421.84 81.824C421.805 84.5212 423.917 86.642 426.675 86.6772C429.716 86.7168 431.889 84.75 431.907 81.9428ZM388.409 81.9516C388.426 79.1708 386.314 77.1644 383.353 77.1424C380.541 77.1248 378.385 79.1356 378.35 81.8152C378.315 84.5696 380.44 86.6728 383.261 86.6772C386.248 86.6772 388.391 84.7148 388.409 81.956V81.9516ZM439.84 52.7928C439.739 52.8588 439.633 52.9248 439.532 52.9908C439.805 54.5924 440.073 56.194 440.346 57.7956C440.984 61.5752 441.622 65.3504 442.256 69.13C442.339 69.6404 442.502 70.0628 443.131 70.0804C443.162 69.9308 443.193 69.8692 443.184 69.8164C442.234 64.3384 441.283 58.8648 440.307 53.3912C440.267 53.1712 439.999 52.9952 439.84 52.7972V52.7928ZM444.531 79.3248C444.157 79.3292 443.765 79.272 443.409 79.3512C443.14 79.4128 442.788 79.5976 442.687 79.822C442.128 81.0892 442.766 82.044 444.121 82.0396C444.372 82.0396 444.623 82.0484 444.874 82.0264C445.82 81.9296 446.198 81.3092 446.211 80.1212C446.225 79.03 445.463 79.382 444.909 79.3248C444.786 79.3116 444.658 79.3248 444.535 79.3248H444.531Z" fill="#424242"/>
<path d="M403.505 45.6428C393.015 45.6428 382.526 45.6428 372.04 45.6428C369.673 45.6428 368.956 44.9212 368.956 42.5364C368.956 41.0536 368.947 39.5752 368.956 38.0924C368.969 36.3104 369.788 35.4524 371.539 35.4524C392.452 35.448 413.37 35.448 434.283 35.4524C435.924 35.4524 436.676 36.1256 436.976 37.758C437.279 39.43 437.614 41.0976 437.895 42.7696C438.216 44.7188 437.429 45.634 435.449 45.634C427.762 45.6428 420.08 45.634 412.393 45.634C409.432 45.634 406.47 45.634 403.509 45.634L403.505 45.6428ZM390.107 43.2008C391.774 43.2008 393.442 43.2096 395.11 43.2008C396.183 43.1964 396.412 42.9808 396.425 41.9556C396.438 40.948 396.425 39.9404 396.425 38.9328C396.425 38.1628 396.064 37.7756 395.272 37.78C391.876 37.7888 388.474 37.7888 385.078 37.78C384.338 37.78 383.978 38.1056 383.991 38.8624C384.008 39.9316 384.022 41.0052 383.986 42.07C383.96 42.8796 384.303 43.214 385.104 43.2052C386.772 43.1832 388.439 43.2008 390.107 43.2008ZM417.836 43.2008C419.376 43.2008 420.916 43.192 422.456 43.2008C423.226 43.2052 423.63 42.8972 423.613 42.0832C423.591 41.014 423.604 39.9448 423.608 38.8756C423.608 38.1364 423.248 37.7756 422.513 37.7756C419.433 37.7756 416.353 37.7756 413.273 37.7756C412.547 37.7756 412.164 38.1232 412.168 38.8712C412.173 39.9404 412.19 41.0096 412.164 42.0788C412.142 42.8972 412.538 43.2052 413.312 43.2008C414.822 43.1876 416.331 43.2008 417.836 43.2008ZM404.262 43.2008C405.678 43.2008 407.095 43.1788 408.512 43.2096C409.401 43.2272 409.775 42.84 409.744 41.96C409.713 40.9524 409.731 39.9448 409.735 38.9372C409.735 38.154 409.357 37.7844 408.574 37.7844C405.74 37.7844 402.902 37.7932 400.068 37.7844C399.224 37.7844 398.88 38.198 398.898 39.012C398.916 40.0196 398.924 41.0272 398.898 42.0348C398.872 42.8928 399.276 43.2228 400.104 43.2096C401.49 43.1876 402.876 43.2052 404.262 43.2052V43.2008ZM376.388 43.2008C377.677 43.2008 378.966 43.1964 380.26 43.2008C381.025 43.2052 381.434 42.8972 381.408 42.0744C381.377 41.036 381.386 39.9976 381.408 38.9592C381.421 38.1804 381.082 37.78 380.29 37.78C377.743 37.78 375.191 37.78 372.643 37.78C371.908 37.78 371.543 38.132 371.548 38.88C371.556 39.8876 371.548 40.8952 371.548 41.9028C371.552 42.9764 371.75 43.1832 372.797 43.1964C373.994 43.2096 375.191 43.1964 376.383 43.1964L376.388 43.2008ZM430.723 43.2008C431.885 43.2008 433.051 43.2096 434.212 43.2008C434.903 43.192 435.273 42.8664 435.158 42.1272C434.982 41.0096 434.802 39.8964 434.63 38.7788C434.52 38.066 434.107 37.7756 433.39 37.78C431.379 37.7976 429.368 37.802 427.357 37.78C426.534 37.7712 426.13 38.088 426.156 38.946C426.187 40.0152 426.187 41.0844 426.156 42.1492C426.134 42.9324 426.504 43.2184 427.243 43.2096C428.404 43.192 429.566 43.2096 430.732 43.2052L430.723 43.2008Z" fill="#424242"/>
<path d="M428.167 67.8144C425.65 67.8144 423.133 67.8144 420.621 67.8144C419.618 67.8144 419.024 67.348 419.054 66.6C419.085 65.8784 419.622 65.4912 420.616 65.4912C425.584 65.4912 430.552 65.4912 435.524 65.4912C435.651 65.4912 435.774 65.4956 435.902 65.4912C436.681 65.4648 437.187 65.8036 437.275 66.5956C437.35 67.2864 436.76 67.8056 435.906 67.81C433.328 67.8232 430.75 67.8144 428.171 67.8144H428.167Z" fill="#424242"/>
<path d="M427.041 85.8632C424.665 85.872 422.865 84.1912 422.843 81.9384C422.821 79.7032 424.634 77.9564 426.983 77.9476C429.377 77.9388 431.141 79.5976 431.155 81.8812C431.168 84.1692 429.43 85.8544 427.041 85.8632ZM426.983 83.5092C427.855 83.518 428.611 82.7964 428.642 81.9252C428.677 81.0012 427.938 80.284 426.97 80.2972C426.068 80.3104 425.285 81.0188 425.267 81.846C425.25 82.6908 426.086 83.5004 426.983 83.5092Z" fill="#424242"/>
<path d="M383.401 85.8808C380.924 85.8104 379.164 84.1296 379.195 81.8724C379.23 79.5316 381.1 77.886 383.67 77.9432C386.01 77.996 387.709 79.7428 387.656 82.0484C387.603 84.3012 385.773 85.9512 383.401 85.8808ZM383.423 80.2972C382.46 80.2928 381.769 80.9264 381.751 81.8328C381.734 82.77 382.464 83.5136 383.41 83.5136C384.338 83.5136 385.126 82.7436 385.113 81.8504C385.1 80.9836 384.36 80.3016 383.428 80.2972H383.423Z" fill="#424242"/>
</g>
<path d="M356.135 109.263V108.091H364.316V109.263H360.886V119H359.565V109.263H356.135ZM365.335 119V110.818H366.55V112.054H366.635C366.784 111.649 367.054 111.321 367.445 111.069C367.835 110.816 368.275 110.69 368.766 110.69C368.858 110.69 368.973 110.692 369.112 110.696C369.25 110.699 369.355 110.705 369.426 110.712V111.99C369.383 111.979 369.286 111.963 369.133 111.942C368.984 111.917 368.826 111.905 368.659 111.905C368.261 111.905 367.906 111.988 367.594 112.155C367.285 112.319 367.04 112.546 366.859 112.837C366.681 113.125 366.592 113.453 366.592 113.822V119H365.335ZM373.324 119.192C372.805 119.192 372.335 119.094 371.912 118.899C371.49 118.7 371.154 118.414 370.906 118.041C370.657 117.665 370.533 117.21 370.533 116.678C370.533 116.209 370.625 115.829 370.81 115.538C370.994 115.243 371.241 115.012 371.55 114.845C371.859 114.678 372.2 114.554 372.573 114.472C372.949 114.387 373.327 114.32 373.707 114.27C374.205 114.206 374.608 114.158 374.917 114.126C375.229 114.091 375.456 114.032 375.598 113.95C375.744 113.869 375.817 113.727 375.817 113.524V113.482C375.817 112.956 375.673 112.548 375.385 112.256C375.101 111.965 374.67 111.82 374.091 111.82C373.491 111.82 373.02 111.951 372.679 112.214C372.338 112.477 372.099 112.757 371.96 113.055L370.767 112.629C370.98 112.132 371.264 111.745 371.619 111.468C371.978 111.187 372.369 110.992 372.791 110.882C373.217 110.768 373.636 110.712 374.048 110.712C374.311 110.712 374.613 110.744 374.954 110.808C375.298 110.868 375.63 110.994 375.95 111.186C376.273 111.377 376.541 111.667 376.754 112.054C376.967 112.441 377.074 112.96 377.074 113.609V119H375.817V117.892H375.753C375.668 118.07 375.526 118.26 375.327 118.462C375.128 118.664 374.863 118.837 374.533 118.979C374.203 119.121 373.8 119.192 373.324 119.192ZM373.516 118.062C374.013 118.062 374.432 117.965 374.773 117.77C375.117 117.574 375.376 117.322 375.55 117.013C375.728 116.704 375.817 116.379 375.817 116.038V114.888C375.763 114.952 375.646 115.01 375.465 115.064C375.288 115.113 375.082 115.158 374.847 115.197C374.616 115.232 374.391 115.264 374.171 115.293C373.954 115.317 373.778 115.339 373.643 115.357C373.317 115.399 373.011 115.468 372.727 115.564C372.447 115.657 372.219 115.797 372.045 115.985C371.875 116.17 371.79 116.422 371.79 116.741C371.79 117.178 371.951 117.509 372.275 117.732C372.601 117.952 373.015 118.062 373.516 118.062ZM380.625 114.078V119H379.368V110.818H380.583V112.097H380.689C380.881 111.681 381.172 111.347 381.563 111.095C381.954 110.839 382.458 110.712 383.076 110.712C383.63 110.712 384.114 110.825 384.53 111.053C384.945 111.276 385.269 111.617 385.499 112.075C385.73 112.53 385.846 113.105 385.846 113.801V119H384.589V113.886C384.589 113.244 384.422 112.743 384.088 112.384C383.754 112.022 383.296 111.841 382.714 111.841C382.312 111.841 381.954 111.928 381.638 112.102C381.325 112.276 381.078 112.53 380.897 112.864C380.716 113.197 380.625 113.602 380.625 114.078ZM393.938 112.651L392.809 112.97C392.738 112.782 392.633 112.599 392.495 112.422C392.36 112.24 392.175 112.091 391.941 111.974C391.706 111.857 391.406 111.798 391.04 111.798C390.54 111.798 390.123 111.914 389.789 112.145C389.458 112.372 389.293 112.661 389.293 113.013C389.293 113.325 389.407 113.572 389.634 113.753C389.862 113.934 390.217 114.085 390.7 114.206L391.914 114.504C392.646 114.682 393.191 114.953 393.549 115.319C393.908 115.681 394.087 116.148 394.087 116.72C394.087 117.189 393.952 117.608 393.683 117.977C393.416 118.347 393.043 118.638 392.564 118.851C392.085 119.064 391.527 119.17 390.891 119.17C390.057 119.17 389.366 118.989 388.819 118.627C388.272 118.265 387.926 117.736 387.781 117.04L388.974 116.741C389.087 117.182 389.302 117.512 389.618 117.732C389.938 117.952 390.355 118.062 390.87 118.062C391.456 118.062 391.921 117.938 392.266 117.69C392.614 117.437 392.788 117.136 392.788 116.784C392.788 116.5 392.688 116.262 392.489 116.07C392.29 115.875 391.985 115.729 391.573 115.634L390.21 115.314C389.46 115.136 388.91 114.861 388.558 114.488C388.21 114.112 388.036 113.641 388.036 113.077C388.036 112.615 388.166 112.207 388.425 111.852C388.688 111.496 389.045 111.218 389.496 111.015C389.95 110.813 390.465 110.712 391.04 110.712C391.85 110.712 392.486 110.889 392.947 111.244C393.413 111.599 393.743 112.068 393.938 112.651ZM395.98 122.068V110.818H397.194V112.118H397.343C397.436 111.976 397.563 111.795 397.727 111.575C397.894 111.351 398.132 111.152 398.441 110.978C398.753 110.8 399.176 110.712 399.708 110.712C400.397 110.712 401.005 110.884 401.53 111.228C402.056 111.573 402.466 112.061 402.761 112.693C403.055 113.325 403.203 114.071 403.203 114.93C403.203 115.797 403.055 116.548 402.761 117.184C402.466 117.816 402.057 118.306 401.535 118.654C401.013 118.998 400.411 119.17 399.73 119.17C399.204 119.17 398.783 119.083 398.467 118.909C398.151 118.732 397.908 118.531 397.737 118.308C397.567 118.08 397.436 117.892 397.343 117.743H397.237V122.068H395.98ZM397.215 114.909C397.215 115.527 397.306 116.072 397.487 116.544C397.668 117.013 397.933 117.381 398.281 117.647C398.629 117.91 399.055 118.041 399.559 118.041C400.085 118.041 400.523 117.903 400.875 117.626C401.23 117.345 401.496 116.969 401.674 116.496C401.855 116.021 401.946 115.491 401.946 114.909C401.946 114.334 401.857 113.815 401.679 113.354C401.505 112.888 401.241 112.521 400.886 112.251C400.534 111.978 400.092 111.841 399.559 111.841C399.048 111.841 398.618 111.971 398.27 112.23C397.922 112.485 397.659 112.844 397.482 113.306C397.304 113.764 397.215 114.298 397.215 114.909ZM408.444 119.17C407.706 119.17 407.057 118.995 406.5 118.643C405.946 118.292 405.513 117.8 405.2 117.168C404.891 116.536 404.737 115.797 404.737 114.952C404.737 114.099 404.891 113.355 405.2 112.72C405.513 112.084 405.946 111.591 406.5 111.239C407.057 110.887 407.706 110.712 408.444 110.712C409.183 110.712 409.829 110.887 410.383 111.239C410.941 111.591 411.374 112.084 411.683 112.72C411.995 113.355 412.152 114.099 412.152 114.952C412.152 115.797 411.995 116.536 411.683 117.168C411.374 117.8 410.941 118.292 410.383 118.643C409.829 118.995 409.183 119.17 408.444 119.17ZM408.444 118.041C409.005 118.041 409.467 117.897 409.829 117.61C410.191 117.322 410.459 116.944 410.633 116.475C410.807 116.006 410.894 115.499 410.894 114.952C410.894 114.405 410.807 113.895 410.633 113.423C410.459 112.951 410.191 112.569 409.829 112.278C409.467 111.987 409.005 111.841 408.444 111.841C407.883 111.841 407.421 111.987 407.059 112.278C406.697 112.569 406.429 112.951 406.255 113.423C406.081 113.895 405.994 114.405 405.994 114.952C405.994 115.499 406.081 116.006 406.255 116.475C406.429 116.944 406.697 117.322 407.059 117.61C407.421 117.897 407.883 118.041 408.444 118.041ZM414.07 119V110.818H415.285V112.054H415.37C415.519 111.649 415.789 111.321 416.18 111.069C416.57 110.816 417.011 110.69 417.501 110.69C417.593 110.69 417.709 110.692 417.847 110.696C417.986 110.699 418.09 110.705 418.161 110.712V111.99C418.119 111.979 418.021 111.963 417.868 111.942C417.719 111.917 417.561 111.905 417.394 111.905C416.997 111.905 416.642 111.988 416.329 112.155C416.02 112.319 415.775 112.546 415.594 112.837C415.416 113.125 415.328 113.453 415.328 113.822V119H414.07ZM423.722 110.818V111.884H419.482V110.818H423.722ZM420.718 108.858H421.975V116.656C421.975 117.011 422.027 117.278 422.13 117.455C422.236 117.629 422.371 117.746 422.535 117.807C422.702 117.864 422.877 117.892 423.062 117.892C423.2 117.892 423.314 117.885 423.403 117.871C423.492 117.853 423.563 117.839 423.616 117.828L423.872 118.957C423.786 118.989 423.667 119.021 423.515 119.053C423.362 119.089 423.169 119.107 422.934 119.107C422.579 119.107 422.231 119.03 421.89 118.877C421.553 118.725 421.272 118.492 421.048 118.18C420.828 117.867 420.718 117.473 420.718 116.997V108.858ZM428.956 119.17C428.168 119.17 427.488 118.996 426.916 118.648C426.348 118.297 425.909 117.807 425.6 117.178C425.295 116.546 425.142 115.811 425.142 114.973C425.142 114.135 425.295 113.396 425.6 112.757C425.909 112.114 426.339 111.614 426.889 111.255C427.443 110.893 428.089 110.712 428.828 110.712C429.254 110.712 429.675 110.783 430.091 110.925C430.506 111.067 430.884 111.298 431.225 111.617C431.566 111.933 431.838 112.352 432.04 112.874C432.243 113.396 432.344 114.039 432.344 114.803V115.335H426.037V114.249H431.065C431.065 113.787 430.973 113.375 430.788 113.013C430.607 112.651 430.348 112.365 430.011 112.155C429.677 111.946 429.283 111.841 428.828 111.841C428.327 111.841 427.894 111.965 427.528 112.214C427.166 112.459 426.887 112.778 426.692 113.173C426.497 113.567 426.399 113.989 426.399 114.44V115.165C426.399 115.783 426.506 116.306 426.719 116.736C426.935 117.162 427.235 117.487 427.619 117.711C428.002 117.931 428.448 118.041 428.956 118.041C429.286 118.041 429.585 117.995 429.851 117.903C430.121 117.807 430.353 117.665 430.549 117.477C430.744 117.285 430.895 117.047 431.001 116.763L432.216 117.104C432.088 117.516 431.873 117.878 431.571 118.19C431.27 118.499 430.897 118.741 430.453 118.915C430.009 119.085 429.51 119.17 428.956 119.17ZM441.564 119.17C440.882 119.17 440.281 118.998 439.759 118.654C439.237 118.306 438.828 117.816 438.533 117.184C438.239 116.548 438.091 115.797 438.091 114.93C438.091 114.071 438.239 113.325 438.533 112.693C438.828 112.061 439.238 111.573 439.764 111.228C440.289 110.884 440.897 110.712 441.586 110.712C442.118 110.712 442.539 110.8 442.848 110.978C443.161 111.152 443.398 111.351 443.562 111.575C443.729 111.795 443.858 111.976 443.951 112.118H444.057V108.091H445.314V119H444.1V117.743H443.951C443.858 117.892 443.727 118.08 443.556 118.308C443.386 118.531 443.143 118.732 442.827 118.909C442.511 119.083 442.09 119.17 441.564 119.17ZM441.735 118.041C442.239 118.041 442.665 117.91 443.013 117.647C443.361 117.381 443.626 117.013 443.807 116.544C443.988 116.072 444.078 115.527 444.078 114.909C444.078 114.298 443.99 113.764 443.812 113.306C443.635 112.844 443.372 112.485 443.024 112.23C442.676 111.971 442.246 111.841 441.735 111.841C441.202 111.841 440.758 111.978 440.403 112.251C440.051 112.521 439.787 112.888 439.609 113.354C439.435 113.815 439.348 114.334 439.348 114.909C439.348 115.491 439.437 116.021 439.615 116.496C439.796 116.969 440.062 117.345 440.414 117.626C440.769 117.903 441.209 118.041 441.735 118.041ZM451.222 119.17C450.433 119.17 449.753 118.996 449.181 118.648C448.613 118.297 448.175 117.807 447.866 117.178C447.56 116.546 447.408 115.811 447.408 114.973C447.408 114.135 447.56 113.396 447.866 112.757C448.175 112.114 448.604 111.614 449.155 111.255C449.709 110.893 450.355 110.712 451.094 110.712C451.52 110.712 451.941 110.783 452.356 110.925C452.772 111.067 453.15 111.298 453.491 111.617C453.832 111.933 454.103 112.352 454.306 112.874C454.508 113.396 454.609 114.039 454.609 114.803V115.335H448.303V114.249H453.331C453.331 113.787 453.239 113.375 453.054 113.013C452.873 112.651 452.614 112.365 452.276 112.155C451.942 111.946 451.548 111.841 451.094 111.841C450.593 111.841 450.16 111.965 449.794 112.214C449.432 112.459 449.153 112.778 448.958 113.173C448.762 113.567 448.665 113.989 448.665 114.44V115.165C448.665 115.783 448.771 116.306 448.984 116.736C449.201 117.162 449.501 117.487 449.885 117.711C450.268 117.931 450.714 118.041 451.222 118.041C451.552 118.041 451.85 117.995 452.116 117.903C452.386 117.807 452.619 117.665 452.814 117.477C453.01 117.285 453.161 117.047 453.267 116.763L454.482 117.104C454.354 117.516 454.139 117.878 453.837 118.19C453.535 118.499 453.162 118.741 452.718 118.915C452.275 119.085 451.776 119.17 451.222 119.17ZM378.138 140.068V128.818H379.352V130.118H379.502C379.594 129.976 379.722 129.795 379.885 129.575C380.052 129.351 380.29 129.152 380.599 128.978C380.911 128.8 381.334 128.712 381.867 128.712C382.555 128.712 383.163 128.884 383.688 129.228C384.214 129.573 384.624 130.061 384.919 130.693C385.214 131.325 385.361 132.071 385.361 132.93C385.361 133.797 385.214 134.548 384.919 135.184C384.624 135.816 384.216 136.306 383.694 136.654C383.172 136.998 382.57 137.17 381.888 137.17C381.362 137.17 380.941 137.083 380.625 136.909C380.309 136.732 380.066 136.531 379.896 136.308C379.725 136.08 379.594 135.892 379.502 135.743H379.395V140.068H378.138ZM379.374 132.909C379.374 133.527 379.464 134.072 379.645 134.544C379.826 135.013 380.091 135.381 380.439 135.647C380.787 135.91 381.213 136.041 381.717 136.041C382.243 136.041 382.682 135.903 383.033 135.626C383.388 135.345 383.655 134.969 383.832 134.496C384.013 134.021 384.104 133.491 384.104 132.909C384.104 132.334 384.015 131.815 383.837 131.354C383.663 130.888 383.399 130.521 383.044 130.251C382.692 129.978 382.25 129.841 381.717 129.841C381.206 129.841 380.776 129.971 380.428 130.23C380.08 130.485 379.818 130.844 379.64 131.306C379.462 131.764 379.374 132.298 379.374 132.909ZM390.709 137.17C389.921 137.17 389.241 136.996 388.669 136.648C388.101 136.297 387.662 135.807 387.353 135.178C387.048 134.546 386.895 133.811 386.895 132.973C386.895 132.135 387.048 131.396 387.353 130.757C387.662 130.114 388.092 129.614 388.642 129.255C389.196 128.893 389.842 128.712 390.581 128.712C391.007 128.712 391.428 128.783 391.843 128.925C392.259 129.067 392.637 129.298 392.978 129.617C393.319 129.933 393.591 130.352 393.793 130.874C393.995 131.396 394.097 132.039 394.097 132.803V133.335H387.79V132.249H392.818C392.818 131.787 392.726 131.375 392.541 131.013C392.36 130.651 392.101 130.365 391.764 130.155C391.43 129.946 391.036 129.841 390.581 129.841C390.08 129.841 389.647 129.965 389.281 130.214C388.919 130.459 388.64 130.778 388.445 131.173C388.25 131.567 388.152 131.989 388.152 132.44V133.165C388.152 133.783 388.259 134.306 388.472 134.736C388.688 135.162 388.988 135.487 389.372 135.711C389.755 135.931 390.201 136.041 390.709 136.041C391.039 136.041 391.337 135.995 391.604 135.903C391.874 135.807 392.106 135.665 392.302 135.477C392.497 135.285 392.648 135.047 392.754 134.763L393.969 135.104C393.841 135.516 393.626 135.878 393.324 136.19C393.022 136.499 392.65 136.741 392.206 136.915C391.762 137.085 391.263 137.17 390.709 137.17ZM396.009 137V128.818H397.223V130.054H397.309C397.458 129.649 397.728 129.321 398.118 129.069C398.509 128.816 398.949 128.69 399.439 128.69C399.532 128.69 399.647 128.692 399.786 128.696C399.924 128.699 400.029 128.705 400.1 128.712V129.99C400.057 129.979 399.96 129.963 399.807 129.942C399.658 129.917 399.5 129.905 399.333 129.905C398.935 129.905 398.58 129.988 398.267 130.155C397.959 130.319 397.714 130.546 397.532 130.837C397.355 131.125 397.266 131.453 397.266 131.822V137H396.009ZM407.385 130.651L406.256 130.97C406.185 130.782 406.08 130.599 405.942 130.422C405.807 130.24 405.622 130.091 405.388 129.974C405.154 129.857 404.854 129.798 404.488 129.798C403.987 129.798 403.57 129.914 403.236 130.145C402.906 130.372 402.741 130.661 402.741 131.013C402.741 131.325 402.854 131.572 403.081 131.753C403.309 131.934 403.664 132.085 404.147 132.206L405.361 132.504C406.093 132.682 406.638 132.953 406.997 133.319C407.355 133.681 407.535 134.148 407.535 134.72C407.535 135.189 407.4 135.608 407.13 135.977C406.863 136.347 406.491 136.638 406.011 136.851C405.532 137.064 404.974 137.17 404.339 137.17C403.504 137.17 402.813 136.989 402.267 136.627C401.72 136.265 401.373 135.736 401.228 135.04L402.421 134.741C402.535 135.182 402.749 135.512 403.066 135.732C403.385 135.952 403.802 136.062 404.317 136.062C404.903 136.062 405.368 135.938 405.713 135.69C406.061 135.437 406.235 135.136 406.235 134.784C406.235 134.5 406.135 134.262 405.937 134.07C405.738 133.875 405.432 133.729 405.02 133.634L403.657 133.314C402.907 133.136 402.357 132.861 402.006 132.488C401.657 132.112 401.483 131.641 401.483 131.077C401.483 130.615 401.613 130.207 401.872 129.852C402.135 129.496 402.492 129.218 402.943 129.015C403.398 128.813 403.912 128.712 404.488 128.712C405.297 128.712 405.933 128.889 406.395 129.244C406.86 129.599 407.19 130.068 407.385 130.651ZM412.751 137.17C412.012 137.17 411.364 136.995 410.807 136.643C410.253 136.292 409.819 135.8 409.507 135.168C409.198 134.536 409.043 133.797 409.043 132.952C409.043 132.099 409.198 131.355 409.507 130.72C409.819 130.084 410.253 129.591 410.807 129.239C411.364 128.887 412.012 128.712 412.751 128.712C413.489 128.712 414.136 128.887 414.69 129.239C415.247 129.591 415.68 130.084 415.989 130.72C416.302 131.355 416.458 132.099 416.458 132.952C416.458 133.797 416.302 134.536 415.989 135.168C415.68 135.8 415.247 136.292 414.69 136.643C414.136 136.995 413.489 137.17 412.751 137.17ZM412.751 136.041C413.312 136.041 413.774 135.897 414.136 135.61C414.498 135.322 414.766 134.944 414.94 134.475C415.114 134.006 415.201 133.499 415.201 132.952C415.201 132.405 415.114 131.895 414.94 131.423C414.766 130.951 414.498 130.569 414.136 130.278C413.774 129.987 413.312 129.841 412.751 129.841C412.19 129.841 411.728 129.987 411.366 130.278C411.004 130.569 410.736 130.951 410.562 131.423C410.388 131.895 410.301 132.405 410.301 132.952C410.301 133.499 410.388 134.006 410.562 134.475C410.736 134.944 411.004 135.322 411.366 135.61C411.728 135.897 412.19 136.041 412.751 136.041ZM419.634 132.078V137H418.377V128.818H419.592V130.097H419.698C419.89 129.681 420.181 129.347 420.572 129.095C420.962 128.839 421.467 128.712 422.085 128.712C422.638 128.712 423.123 128.825 423.539 129.053C423.954 129.276 424.277 129.617 424.508 130.075C424.739 130.53 424.854 131.105 424.854 131.801V137H423.597V131.886C423.597 131.244 423.43 130.743 423.097 130.384C422.763 130.022 422.305 129.841 421.722 129.841C421.321 129.841 420.962 129.928 420.646 130.102C420.334 130.276 420.087 130.53 419.906 130.864C419.725 131.197 419.634 131.602 419.634 132.078ZM429.559 137.192C429.041 137.192 428.57 137.094 428.148 136.899C427.725 136.7 427.389 136.414 427.141 136.041C426.892 135.665 426.768 135.21 426.768 134.678C426.768 134.209 426.86 133.829 427.045 133.538C427.23 133.243 427.476 133.012 427.785 132.845C428.094 132.678 428.435 132.554 428.808 132.472C429.185 132.387 429.563 132.32 429.943 132.27C430.44 132.206 430.843 132.158 431.152 132.126C431.464 132.091 431.692 132.032 431.834 131.95C431.979 131.869 432.052 131.727 432.052 131.524V131.482C432.052 130.956 431.908 130.548 431.621 130.256C431.337 129.965 430.905 129.82 430.326 129.82C429.726 129.82 429.256 129.951 428.915 130.214C428.574 130.477 428.334 130.757 428.196 131.055L427.002 130.629C427.215 130.132 427.5 129.745 427.855 129.468C428.213 129.187 428.604 128.992 429.027 128.882C429.453 128.768 429.872 128.712 430.284 128.712C430.546 128.712 430.848 128.744 431.189 128.808C431.534 128.868 431.866 128.994 432.185 129.186C432.508 129.377 432.777 129.667 432.99 130.054C433.203 130.441 433.309 130.96 433.309 131.609V137H432.052V135.892H431.988C431.903 136.07 431.761 136.26 431.562 136.462C431.363 136.664 431.099 136.837 430.768 136.979C430.438 137.121 430.035 137.192 429.559 137.192ZM429.751 136.062C430.248 136.062 430.667 135.965 431.008 135.77C431.353 135.574 431.612 135.322 431.786 135.013C431.963 134.704 432.052 134.379 432.052 134.038V132.888C431.999 132.952 431.882 133.01 431.701 133.064C431.523 133.113 431.317 133.158 431.083 133.197C430.852 133.232 430.626 133.264 430.406 133.293C430.19 133.317 430.014 133.339 429.879 133.357C429.552 133.399 429.247 133.468 428.963 133.564C428.682 133.657 428.455 133.797 428.281 133.985C428.11 134.17 428.025 134.422 428.025 134.741C428.025 135.178 428.187 135.509 428.51 135.732C428.837 135.952 429.25 136.062 429.751 136.062ZM436.861 126.091V137H435.604V126.091H436.861Z" fill="black"/>
<defs>
<clipPath id="clip0_40_20">
<rect width="88" height="88" fill="white" transform="translate(363.5 16)"/>
</clipPath>
</defs>
</svg>
