<svg width="475" height="151" viewBox="0 0 475 151" fill="none" xmlns="http://www.w3.org/2000/svg">
<g clip-path="url(#clip0_40_17)">
<path d="M93.109 71.3852C90.4121 72.0076 88.0016 72.5658 85.5863 73.114C85.2109 73.198 84.8256 73.2622 84.4403 73.2869C83.3734 73.3561 82.5683 73.5734 81.8965 74.6749C80.9481 76.2259 78.6463 75.7912 77.9005 74.1118C77.777 73.8302 77.4559 73.4746 77.1941 73.445C76.715 73.3906 76.1618 73.198 75.8062 73.9142C75.2776 74.9811 74.2157 75.4899 73.2673 75.2923C72.146 75.0602 71.5484 74.3094 71.4002 73.2178C71.252 72.1064 70.2048 72.4818 69.5923 71.9681C69.3009 72.625 69.0885 73.2276 68.7823 73.7759C68.2933 74.6453 67.8981 75.643 67.1918 76.3C65.3395 78.0189 64.9246 80.2565 64.5393 82.5582C64.3812 83.5214 64.2973 84.3463 65.1271 85.1663C65.5667 85.6009 65.6605 86.5147 65.6754 87.2161C65.6902 88.0509 65.1468 88.5844 64.2479 88.5844C61.6003 88.5893 58.9577 88.5844 56.3102 88.5844C55.4557 88.5844 54.8382 88.1151 54.611 87.3791C54.1368 85.8529 53.6034 84.3068 53.4552 82.7311C53.0156 78.1078 51.7758 73.687 50.5014 69.2563C48.8269 63.4377 47.2315 57.5894 46.619 51.5287C46.3226 48.6095 46.5795 45.7446 47.4142 42.9192C46.1497 44.485 45.399 46.3225 45.2359 48.2538C44.9346 51.7806 44.905 55.3271 44.7914 58.8687C44.7865 59.0811 44.989 59.3034 45.1075 59.5157C45.7892 60.7407 46.5647 61.9262 47.1327 63.2006C47.518 64.065 47.3945 64.9985 46.8511 65.8827C46.54 66.3816 46.4511 67.0237 46.293 67.6115C45.804 69.4292 44.4407 69.9182 42.9144 68.797C41.803 67.982 41.3042 66.7915 41.1165 65.4875C40.8053 63.3092 41.2795 61.3335 42.7267 59.6145C42.9391 59.3626 43.0083 58.928 43.0181 58.5723C43.1021 55.6087 42.9836 52.6302 43.2552 49.6813C43.7344 44.485 45.8682 40.2075 50.7484 37.7032C51.1732 37.4858 51.514 37.1203 51.9042 36.8289C54.2504 35.0655 56.9227 34.1616 59.8271 34.127C64.7912 34.0628 69.7603 34.0579 74.7244 34.1369C78.4636 34.1962 82.183 34.2406 85.932 33.9838C90.7183 33.6578 95.5392 33.8405 100.34 33.801C102.919 33.7763 105.502 33.7566 108.08 33.7072C108.56 33.6973 109.044 33.6034 109.508 33.48C111.054 33.065 111.059 32.9416 111.015 31.3609C110.985 30.3483 111.034 29.2765 111.336 28.3232C111.879 26.6141 113.603 25.6707 115.337 26.1054C116.379 26.3672 117.337 26.9451 118.35 27.3452C118.745 27.4983 119.194 27.681 119.589 27.6317C122.899 27.2266 125.536 28.2491 127.685 30.8917C129.078 32.6057 130.787 34.0677 132.412 35.5792C133.968 37.0314 135.643 38.3601 137.189 39.8173C140.058 42.5191 139.377 46.6683 135.811 48.3575C134.161 49.138 132.378 49.4047 130.614 49.1281C125.734 48.3625 122.306 50.3728 119.861 54.4528C119.298 55.3913 118.695 56.31 118.127 57.2436C114.833 62.6671 111.622 68.1499 108.214 73.4993C106.806 75.7023 105.813 77.9497 105.576 80.543C105.527 81.0863 105.428 81.6296 105.309 82.1631C105.062 83.2349 104.816 84.2426 105.744 85.1959C106.075 85.5367 106.154 86.2035 106.199 86.737C106.312 88.046 105.789 88.5794 104.485 88.5844C102.385 88.5942 100.286 88.5498 98.1917 88.6041C97.0606 88.6338 96.2209 88.1843 95.9541 87.1569C95.4553 85.27 95.0897 83.3436 94.7539 81.4222C94.1759 78.0979 93.6622 74.7589 93.114 71.3803L93.109 71.3852ZM50.0667 41.4868C51.8696 42.7266 52.2401 44.5097 52.166 46.4559C52.0623 49.0935 50.9608 51.3113 49.1628 53.1883C48.7627 53.6082 48.6195 53.9638 48.7627 54.5417C49.9581 59.4219 51.0151 64.3366 52.324 69.1822C53.5194 73.603 54.7987 77.9893 55.179 82.5829C55.2778 83.7882 55.6434 84.9736 55.9496 86.1542C56.0188 86.416 56.3299 86.7864 56.5522 86.8012C57.5846 86.8704 58.6268 86.8309 59.669 86.8309C59.7085 86.7321 59.748 86.6382 59.7826 86.5394C59.4813 86.2431 59.1207 85.9862 58.8886 85.6405C58.6465 85.2749 58.3403 84.8057 58.3798 84.4204C58.9034 79.6539 60.3161 75.2281 63.5662 71.5482C64.0157 71.0395 64.4257 70.4961 64.8208 69.9528C67.3202 66.5396 70.7235 64.6231 74.8479 63.9711C78.5525 63.3833 82.2669 63.492 85.8876 64.4552C87.9029 64.9936 89.8292 65.858 91.7309 66.5495C91.6272 65.8778 91.4148 65.0578 91.4049 64.2329C91.4049 63.9069 91.7754 63.3981 92.0866 63.2895C92.62 63.1018 92.9757 63.4821 93.0744 64.0551C93.2029 64.7861 93.3313 65.5122 93.4943 66.2383C94.7045 71.6124 96.0579 76.9569 96.6012 82.4595C96.7247 83.6993 97.0705 84.9193 97.3816 86.1295C97.4557 86.411 97.8015 86.8012 98.0435 86.821C99.0907 86.9 100.143 86.8556 101.486 86.8556C101.032 86.3172 100.815 85.8874 100.469 85.68C99.7427 85.2453 99.6933 84.6822 99.8415 83.9462C100.113 82.5879 100.301 81.2147 100.548 79.8514C100.938 77.7077 101.141 75.5393 102.529 73.6673C104.949 70.4072 107.29 67.083 108.831 63.2697C108.95 62.9734 109.567 62.8795 109.953 62.6918C110.101 63.0968 110.422 63.5315 110.362 63.902C110.269 64.4898 109.982 65.0726 109.661 65.5863C107.824 68.5747 105.942 71.5384 104.094 74.5168C103.655 75.2281 103.077 75.9295 102.909 76.7099C102.4 79.0364 102.059 81.4024 101.674 83.7536C101.639 83.9759 101.684 84.2673 101.802 84.4599C102.287 85.2354 102.81 85.9862 103.398 86.8605C103.61 86.8506 104.005 86.8259 104.554 86.7963C104.336 86.3517 104.277 85.9566 104.055 85.8133C102.934 85.1021 103.131 84.1142 103.368 83.0868C103.487 82.5879 103.566 82.0742 103.62 81.5605C103.981 78.2115 105.043 75.1886 106.915 72.3138C110.353 67.0188 113.489 61.531 116.759 56.1273C117.342 55.1641 117.925 54.191 118.572 53.2674C120.009 51.2274 121.521 49.2466 123.887 48.1797C124.544 47.8834 125.245 47.6759 126.001 47.3993C125.038 46.6189 123.99 46.3472 122.879 46.3324C120.34 46.2978 118.147 47.2709 116.26 48.8861C115.238 49.7603 114.363 50.8125 113.46 51.8152C110.945 54.6059 107.354 55.4209 104.267 53.8798C101.037 52.2646 100.335 49.0293 102.632 46.2533C103.166 45.6063 103.823 45.0531 104.287 44.3615C104.578 43.9219 104.87 43.2255 104.727 42.7957C103.941 40.4396 103.699 38.0983 104.662 35.5842H86.6334C86.0407 38.8392 84.2971 41.2695 81.9212 43.265C78.4636 46.1694 75.164 46.0163 71.983 42.8204C71.2224 42.0548 70.353 41.6844 69.3108 41.6893C68.6341 41.6893 67.9574 41.7338 67.2856 41.8078C63.3884 42.2425 58.5329 39.7234 56.8832 36.3349C53.9343 37.1401 51.677 38.8392 50.0618 41.5065L50.0667 41.4868ZM111.958 34.6061C110.58 34.9124 109.345 35.273 108.085 35.4409C106.796 35.6187 106.342 35.8706 105.981 37.1351C105.551 38.6466 105.66 40.168 106.233 41.5955C106.915 43.2996 106.48 44.6579 105.28 45.9125C104.682 46.5398 104.08 47.182 103.591 47.8932C102.677 49.2121 102.859 50.5358 104.065 51.6077C105.329 52.7339 106.831 53.0846 108.476 52.7833C110.402 52.4326 111.726 51.1977 112.911 49.7357C114.63 47.6166 116.739 45.9866 119.357 45.142C122.612 44.0948 125.66 44.2035 128.12 47.0091C128.219 47.1227 128.372 47.2511 128.505 47.2561C129.705 47.3301 130.906 47.3845 132.175 47.4438C131.321 44.2677 131.543 41.4275 133.647 38.8837C132.758 38.1428 131.849 37.471 131.044 36.6906C129.315 35.0062 127.586 33.3219 125.971 31.5387C124.544 29.9631 122.864 29.2222 120.651 29.2913C120.804 29.5383 120.869 29.6469 120.943 29.7507C121.313 30.3039 121.931 30.8917 121.155 31.4992C120.355 32.1265 119.985 31.356 119.57 30.8275C118.547 29.5432 117.307 28.5158 115.756 27.9527C114.008 27.3155 112.822 28.1305 112.714 29.9828C112.62 31.5437 113.005 32.9662 113.83 34.3098C113.998 34.5814 113.776 35.1001 113.731 35.5002C113.306 35.431 112.842 35.4409 112.467 35.2631C112.215 35.1445 112.086 34.7642 111.963 34.5963L111.958 34.6061ZM58.6465 35.9991C58.8787 36.3893 58.9627 36.656 59.1355 36.8091C61.4472 38.8294 63.9416 40.4495 67.2016 40.0247C69.7751 39.6888 71.988 40.079 73.8501 42.1536C75.3863 43.8627 77.5152 44.001 79.4959 42.8155C81.773 41.4473 83.408 39.4913 84.4452 37.0512C84.5984 36.6955 84.6428 36.2954 84.7317 35.9349C76.0136 36.3893 67.3992 35.0507 58.6465 36.004V35.9991ZM67.8487 69.2316C69.1428 69.7997 70.3283 70.4369 71.5928 70.8369C72.6005 71.1531 73.1833 71.563 73.1092 72.7041C73.0895 72.9807 73.4056 73.2721 73.5686 73.5586C73.8304 73.3561 74.27 73.198 74.3293 72.951C74.596 71.815 75.327 71.568 76.3544 71.652C76.8978 71.6964 77.451 71.652 77.9993 71.6421C78.8044 71.6223 79.2243 72.0224 79.4317 72.788C79.5354 73.1585 79.8466 73.4697 80.064 73.8105C80.3504 73.5141 80.7999 73.2672 80.8987 72.9214C81.1457 72.0422 81.7088 71.7804 82.5337 71.7063C83.6895 71.6026 84.8503 71.4988 85.9814 71.2568C88.0708 70.8172 90.1355 70.2788 92.294 69.7651C88.787 65.1171 73.4649 63.1462 67.8537 69.2366L67.8487 69.2316ZM64.2182 86.8457C63.7984 86.3172 63.6206 85.9072 63.3094 85.7343C62.5833 85.3342 62.4499 84.7662 62.5783 84.0302C62.8204 82.6669 63.0525 81.2987 63.2748 79.9354C63.5168 78.4338 64.159 77.1841 65.1765 76.0135C66.11 74.9367 66.8263 73.6426 67.4931 72.3632C68.1253 71.1481 68.0216 71.0592 66.6879 70.5307C62.9142 74.3538 60.9286 78.4091 60.2568 83.719C60.2222 84.0055 60.2716 84.3463 60.4 84.6032C60.726 85.2502 61.1014 85.8726 61.4917 86.4851C61.5954 86.6432 61.8078 86.821 61.9807 86.8309C62.6129 86.8704 63.2501 86.8457 64.2133 86.8457H64.2182ZM135.183 40.1037C133.361 41.5065 132.852 45.2803 134.171 47.1177C135.48 46.7078 136.561 46.0508 137.06 44.6628C136.29 44.243 134.971 44.9444 135.005 43.586C135.04 42.3067 136.3 42.9538 137.203 42.5735C136.487 41.6992 135.83 40.899 135.178 40.1037H135.183ZM44.1641 60.6617C42.1537 63.1956 42.4452 66.8755 44.3666 67.4979C44.7568 66.5199 45.1569 65.5517 45.5274 64.5737C45.5916 64.4058 45.6064 64.1687 45.5422 64.0057C45.1273 62.9585 44.6877 61.9213 44.1641 60.6666V60.6617ZM49.2912 43.1909C48.3033 45.8088 48.1107 48.4662 48.3577 51.2669C50.5903 49.3158 51.1238 44.6875 49.2912 43.1909Z" fill="#424242"/>
<path d="M58.1377 56.5867C58.1476 53.5884 59.6986 51.5386 62.603 50.6939C65.5765 49.8295 68.5649 49.0046 71.7113 49.2071C73.8698 49.3454 75.8209 49.9826 77.3274 51.6373C78.829 53.2921 78.7796 55.1839 76.957 56.4731C75.4455 57.5449 73.7365 58.3402 72.0966 59.2243C70.4567 60.1134 68.7822 60.9432 67.1374 61.8274C65.8383 62.5239 64.4948 63.0573 62.9932 62.8647C60.1234 62.4942 58.1328 59.8912 58.1426 56.5817L58.1377 56.5867ZM70.6839 50.9261C70.6641 50.8322 70.6394 50.7384 70.6197 50.6495C68.061 51.2372 65.4975 51.8152 62.9388 52.4128C61.1458 52.8327 60.2024 54.0577 59.9603 55.8013C59.7035 57.6585 60.1332 59.3774 61.6892 60.553C63.1167 61.6348 64.6182 61.1705 66.0556 60.4394C68.4019 59.2391 70.753 58.0487 73.0894 56.8287C73.9686 56.3693 74.8577 55.8902 75.6628 55.3123C76.9175 54.4133 76.9273 53.6378 75.7913 52.566C74.3539 51.2125 72.5707 50.9112 70.6888 50.931L70.6839 50.9261Z" fill="#424242"/>
<path d="M86.9396 52.645C86.8655 51.4842 87.4039 50.4124 88.5301 49.8147C89.5032 49.2961 90.5948 48.8713 91.6765 48.7132C93.109 48.5057 94.2302 49.2467 94.9217 50.5309C95.5935 51.7757 95.4157 52.9759 94.5216 54.0379C93.3411 55.4407 91.7802 56.1915 89.9724 56.3051C88.1794 56.4187 86.9495 54.932 86.9396 52.6499V52.645ZM88.4906 52.645C88.6931 54.0132 89.2167 54.769 90.0613 54.5121C91.0788 54.2009 92.0618 53.6971 92.9657 53.134C93.5288 52.7833 93.756 52.1214 93.4152 51.425C93.0694 50.7186 92.4767 50.2839 91.7111 50.4371C90.9405 50.5902 90.1502 50.8569 89.4883 51.2718C89.0438 51.5534 88.8116 52.1758 88.4856 52.6499L88.4906 52.645Z" fill="#424242"/>
<path d="M115.094 30.052C116.023 30.7435 116.976 31.4103 117.856 32.1611C117.979 32.2698 117.865 32.8872 117.673 33.07C117.48 33.2577 116.971 33.3466 116.739 33.2231C115.949 32.8082 115.193 32.3192 114.487 31.7759C114.27 31.6079 114.161 31.1683 114.186 30.867C114.215 30.5361 114.452 30.2249 114.6 29.9088L115.094 30.052Z" fill="#424242"/>
<path d="M126.006 36.0435C125.531 35.4063 125.028 35.0211 125.047 34.6704C125.067 34.3147 125.566 33.7961 125.946 33.6973C126.559 33.5392 127.033 34.0332 126.959 34.6407C126.91 35.0458 126.465 35.3965 126.006 36.0435Z" fill="#424242"/>
<path d="M32.3797 111.105H31.0587C30.9806 110.726 30.8438 110.392 30.6485 110.104C30.4568 109.816 30.2224 109.575 29.9454 109.38C29.672 109.181 29.3683 109.032 29.0345 108.932C28.7007 108.833 28.3527 108.783 27.9905 108.783C27.33 108.783 26.7316 108.95 26.1954 109.284C25.6627 109.618 25.2384 110.109 24.9223 110.759C24.6098 111.409 24.4536 112.206 24.4536 113.151C24.4536 114.096 24.6098 114.893 24.9223 115.543C25.2384 116.193 25.6627 116.684 26.1954 117.018C26.7316 117.352 27.33 117.519 27.9905 117.519C28.3527 117.519 28.7007 117.469 29.0345 117.37C29.3683 117.27 29.672 117.123 29.9454 116.928C30.2224 116.729 30.4568 116.485 30.6485 116.198C30.8438 115.907 30.9806 115.573 31.0587 115.196H32.3797C32.2803 115.754 32.0992 116.253 31.8364 116.693C31.5736 117.134 31.2469 117.508 30.8563 117.817C30.4656 118.123 30.0271 118.355 29.5406 118.515C29.0576 118.675 28.5409 118.755 27.9905 118.755C27.0601 118.755 26.2327 118.527 25.5083 118.073C24.7838 117.618 24.2139 116.972 23.7984 116.134C23.3829 115.296 23.1752 114.302 23.1752 113.151C23.1752 112 23.3829 111.006 23.7984 110.168C24.2139 109.33 24.7838 108.684 25.5083 108.229C26.2327 107.775 27.0601 107.547 27.9905 107.547C28.5409 107.547 29.0576 107.627 29.5406 107.787C30.0271 107.947 30.4656 108.181 30.8563 108.49C31.2469 108.795 31.5736 109.168 31.8364 109.609C32.0992 110.045 32.2803 110.544 32.3797 111.105ZM36.7516 118.797C36.2331 118.797 35.7626 118.7 35.34 118.504C34.9174 118.305 34.5819 118.02 34.3333 117.647C34.0847 117.27 33.9604 116.816 33.9604 116.283C33.9604 115.814 34.0527 115.434 34.2374 115.143C34.4221 114.848 34.6689 114.618 34.9778 114.451C35.2868 114.284 35.6277 114.159 36.0005 114.078C36.377 113.993 36.7551 113.925 37.1351 113.875C37.6323 113.811 38.0353 113.764 38.3443 113.732C38.6568 113.696 38.8841 113.637 39.0261 113.556C39.1717 113.474 39.2445 113.332 39.2445 113.13V113.087C39.2445 112.561 39.1007 112.153 38.813 111.862C38.5289 111.571 38.0975 111.425 37.5186 111.425C36.9185 111.425 36.448 111.556 36.1071 111.819C35.7662 112.082 35.5265 112.363 35.388 112.661L34.1948 112.235C34.4078 111.738 34.6919 111.351 35.0471 111.074C35.4057 110.793 35.7963 110.598 36.2189 110.488C36.6451 110.374 37.0641 110.317 37.476 110.317C37.7388 110.317 38.0407 110.349 38.3816 110.413C38.726 110.473 39.0581 110.599 39.3777 110.791C39.7008 110.983 39.9689 111.272 40.182 111.659C40.3951 112.047 40.5016 112.565 40.5016 113.215V118.605H39.2445V117.498H39.1806C39.0953 117.675 38.9533 117.865 38.7544 118.068C38.5556 118.27 38.291 118.442 37.9608 118.584C37.6305 118.726 37.2275 118.797 36.7516 118.797ZM36.9434 117.668C37.4405 117.668 37.8596 117.57 38.2005 117.375C38.5449 117.18 38.8042 116.928 38.9782 116.619C39.1557 116.31 39.2445 115.985 39.2445 115.644V114.493C39.1912 114.557 39.074 114.616 38.8929 114.669C38.7154 114.719 38.5094 114.763 38.275 114.802C38.0442 114.838 37.8187 114.87 37.5985 114.898C37.3819 114.923 37.2061 114.944 37.0712 114.962C36.7445 115.005 36.4391 115.074 36.155 115.17C35.8745 115.262 35.6472 115.402 35.4732 115.591C35.3027 115.775 35.2175 116.027 35.2175 116.347C35.2175 116.784 35.3791 117.114 35.7022 117.338C36.0289 117.558 36.4426 117.668 36.9434 117.668ZM42.7961 118.605V110.424H44.0106V111.659H44.0958C44.2449 111.255 44.5148 110.926 44.9055 110.674C45.2961 110.422 45.7364 110.296 46.2265 110.296C46.3188 110.296 46.4342 110.298 46.5727 110.301C46.7112 110.305 46.816 110.31 46.887 110.317V111.596C46.8444 111.585 46.7467 111.569 46.594 111.548C46.4449 111.523 46.2868 111.51 46.1199 111.51C45.7222 111.51 45.3671 111.594 45.0546 111.761C44.7456 111.924 44.5006 112.151 44.3195 112.443C44.142 112.73 44.0532 113.059 44.0532 113.428V118.605H42.7961ZM49.6342 113.684V118.605H48.3771V110.424H49.5916V111.702H49.6982C49.8899 111.287 50.1811 110.953 50.5717 110.701C50.9624 110.445 51.4666 110.317 52.0845 110.317C52.6385 110.317 53.1232 110.431 53.5387 110.658C53.9542 110.882 54.2773 111.223 54.5082 111.681C54.739 112.135 54.8544 112.711 54.8544 113.407V118.605H53.5973V113.492C53.5973 112.849 53.4304 112.348 53.0966 111.99C52.7628 111.628 52.3047 111.446 51.7223 111.446C51.321 111.446 50.9624 111.533 50.6463 111.707C50.3338 111.881 50.087 112.135 49.9059 112.469C49.7248 112.803 49.6342 113.208 49.6342 113.684ZM60.5819 118.776C59.7936 118.776 59.1135 118.602 58.5418 118.254C57.9736 117.902 57.5351 117.412 57.2261 116.784C56.9207 116.152 56.768 115.417 56.768 114.579C56.768 113.74 56.9207 113.002 57.2261 112.363C57.5351 111.72 57.9648 111.219 58.5152 110.86C59.0692 110.498 59.7155 110.317 60.4541 110.317C60.8802 110.317 61.301 110.388 61.7165 110.53C62.132 110.672 62.5102 110.903 62.8511 111.223C63.192 111.539 63.4637 111.958 63.6661 112.48C63.8685 113.002 63.9697 113.645 63.9697 114.408V114.941H57.6629V113.854H62.6913C62.6913 113.392 62.599 112.98 62.4143 112.618C62.2332 112.256 61.974 111.97 61.6366 111.761C61.3028 111.551 60.9086 111.446 60.4541 111.446C59.9534 111.446 59.5202 111.571 59.1544 111.819C58.7922 112.064 58.5134 112.384 58.3181 112.778C58.1228 113.172 58.0251 113.595 58.0251 114.046V114.77C58.0251 115.388 58.1317 115.912 58.3447 116.342C58.5613 116.768 58.8614 117.093 59.2449 117.316C59.6285 117.537 60.0741 117.647 60.5819 117.647C60.9122 117.647 61.2105 117.601 61.4768 117.508C61.7467 117.412 61.9793 117.27 62.1746 117.082C62.3699 116.89 62.5209 116.652 62.6274 116.368L63.8419 116.709C63.714 117.121 63.4992 117.483 63.1974 117.796C62.8955 118.105 62.5226 118.346 62.0787 118.52C61.6349 118.691 61.1359 118.776 60.5819 118.776ZM70.9104 121.674C70.6974 121.674 70.5074 121.656 70.3405 121.62C70.1736 121.588 70.0581 121.556 69.9942 121.525L70.3138 120.417C70.6192 120.495 70.8891 120.523 71.1235 120.502C71.3579 120.48 71.5656 120.376 71.7467 120.188C71.9314 120.003 72.1001 119.703 72.2528 119.287L72.4871 118.648L69.4616 110.424H70.8252L73.0837 116.944H73.1689L75.4275 110.424H76.7911L73.3181 119.799C73.1618 120.221 72.9683 120.571 72.7375 120.848C72.5067 121.129 72.2385 121.336 71.9331 121.471C71.6313 121.606 71.2904 121.674 70.9104 121.674ZM82.6691 121.674V110.424H83.8836V111.723H84.0328C84.1251 111.581 84.2529 111.4 84.4163 111.18C84.5832 110.956 84.8211 110.757 85.1301 110.583C85.4426 110.406 85.8651 110.317 86.3978 110.317C87.0867 110.317 87.694 110.489 88.2195 110.834C88.7451 111.178 89.1553 111.667 89.45 112.299C89.7448 112.931 89.8921 113.677 89.8921 114.536C89.8921 115.402 89.7448 116.153 89.45 116.789C89.1553 117.421 88.7469 117.911 88.2249 118.259C87.7029 118.604 87.1009 118.776 86.4191 118.776C85.8936 118.776 85.4727 118.689 85.1567 118.515C84.8406 118.337 84.5974 118.137 84.4269 117.913C84.2565 117.686 84.1251 117.498 84.0328 117.348H83.9262V121.674H82.6691ZM83.9049 114.515C83.9049 115.132 83.9955 115.678 84.1766 116.15C84.3577 116.619 84.6222 116.986 84.9703 117.253C85.3183 117.515 85.7444 117.647 86.2487 117.647C86.7742 117.647 87.2128 117.508 87.5644 117.231C87.9195 116.951 88.1858 116.574 88.3634 116.102C88.5445 115.626 88.635 115.097 88.635 114.515C88.635 113.939 88.5463 113.421 88.3687 112.959C88.1947 112.494 87.9301 112.126 87.575 111.857C87.2235 111.583 86.7813 111.446 86.2487 111.446C85.7373 111.446 85.3076 111.576 84.9596 111.835C84.6116 112.091 84.3488 112.45 84.1713 112.911C83.9937 113.369 83.9049 113.904 83.9049 114.515ZM91.8097 118.605V110.424H93.0242V111.659H93.1095C93.2586 111.255 93.5285 110.926 93.9191 110.674C94.3097 110.422 94.7501 110.296 95.2401 110.296C95.3325 110.296 95.4479 110.298 95.5864 110.301C95.7249 110.305 95.8296 110.31 95.9007 110.317V111.596C95.858 111.585 95.7604 111.569 95.6077 111.548C95.4585 111.523 95.3005 111.51 95.1336 111.51C94.7359 111.51 94.3808 111.594 94.0683 111.761C93.7593 111.924 93.5143 112.151 93.3332 112.443C93.1556 112.73 93.0669 113.059 93.0669 113.428V118.605H91.8097ZM100.466 118.776C99.727 118.776 99.0789 118.6 98.5214 118.249C97.9674 117.897 97.5342 117.405 97.2217 116.773C96.9127 116.141 96.7583 115.402 96.7583 114.557C96.7583 113.705 96.9127 112.961 97.2217 112.325C97.5342 111.69 97.9674 111.196 98.5214 110.844C99.0789 110.493 99.727 110.317 100.466 110.317C101.204 110.317 101.851 110.493 102.405 110.844C102.962 111.196 103.395 111.69 103.704 112.325C104.017 112.961 104.173 113.705 104.173 114.557C104.173 115.402 104.017 116.141 103.704 116.773C103.395 117.405 102.962 117.897 102.405 118.249C101.851 118.6 101.204 118.776 100.466 118.776ZM100.466 117.647C101.027 117.647 101.488 117.503 101.851 117.215C102.213 116.928 102.481 116.549 102.655 116.081C102.829 115.612 102.916 115.104 102.916 114.557C102.916 114.01 102.829 113.501 102.655 113.028C102.481 112.556 102.213 112.174 101.851 111.883C101.488 111.592 101.027 111.446 100.466 111.446C99.9046 111.446 99.4429 111.592 99.0807 111.883C98.7185 112.174 98.4504 112.556 98.2764 113.028C98.1024 113.501 98.0154 114.01 98.0154 114.557C98.0154 115.104 98.1024 115.612 98.2764 116.081C98.4504 116.549 98.7185 116.928 99.0807 117.215C99.4429 117.503 99.9046 117.647 100.466 117.647ZM109.181 118.776C108.5 118.776 107.898 118.604 107.376 118.259C106.854 117.911 106.445 117.421 106.151 116.789C105.856 116.153 105.708 115.402 105.708 114.536C105.708 113.677 105.856 112.931 106.151 112.299C106.445 111.667 106.855 111.178 107.381 110.834C107.907 110.489 108.514 110.317 109.203 110.317C109.735 110.317 110.156 110.406 110.465 110.583C110.778 110.757 111.016 110.956 111.179 111.18C111.346 111.4 111.475 111.581 111.568 111.723H111.674V107.696H112.931V118.605H111.717V117.348H111.568C111.475 117.498 111.344 117.686 111.174 117.913C111.003 118.137 110.76 118.337 110.444 118.515C110.128 118.689 109.707 118.776 109.181 118.776ZM109.352 117.647C109.856 117.647 110.282 117.515 110.63 117.253C110.978 116.986 111.243 116.619 111.424 116.15C111.605 115.678 111.696 115.132 111.696 114.515C111.696 113.904 111.607 113.369 111.429 112.911C111.252 112.45 110.989 112.091 110.641 111.835C110.293 111.576 109.863 111.446 109.352 111.446C108.819 111.446 108.375 111.583 108.02 111.857C107.669 112.126 107.404 112.494 107.227 112.959C107.053 113.421 106.966 113.939 106.966 114.515C106.966 115.097 107.054 115.626 107.232 116.102C107.413 116.574 107.679 116.951 108.031 117.231C108.386 117.508 108.826 117.647 109.352 117.647ZM120.565 115.26V110.424H121.822V118.605H120.565V117.221H120.479C120.288 117.636 119.989 117.989 119.585 118.281C119.18 118.568 118.668 118.712 118.05 118.712C117.539 118.712 117.085 118.6 116.687 118.376C116.289 118.149 115.977 117.808 115.749 117.354C115.522 116.896 115.408 116.319 115.408 115.623V110.424H116.665V115.537C116.665 116.134 116.832 116.61 117.166 116.965C117.504 117.32 117.933 117.498 118.455 117.498C118.768 117.498 119.086 117.418 119.409 117.258C119.735 117.098 120.009 116.853 120.229 116.523C120.453 116.193 120.565 115.772 120.565 115.26ZM127.448 118.776C126.681 118.776 126.021 118.595 125.467 118.233C124.913 117.87 124.486 117.371 124.188 116.736C123.89 116.1 123.741 115.374 123.741 114.557C123.741 113.726 123.893 112.993 124.199 112.357C124.508 111.718 124.937 111.219 125.488 110.86C126.042 110.498 126.688 110.317 127.427 110.317C128.002 110.317 128.521 110.424 128.982 110.637C129.444 110.85 129.822 111.148 130.117 111.532C130.411 111.915 130.594 112.363 130.665 112.874H129.408C129.312 112.501 129.099 112.171 128.769 111.883C128.442 111.592 128.002 111.446 127.448 111.446C126.958 111.446 126.528 111.574 126.159 111.83C125.793 112.082 125.507 112.439 125.301 112.901C125.099 113.359 124.998 113.897 124.998 114.515C124.998 115.147 125.097 115.697 125.296 116.166C125.498 116.635 125.783 116.999 126.148 117.258C126.518 117.517 126.951 117.647 127.448 117.647C127.775 117.647 128.071 117.59 128.338 117.476C128.604 117.363 128.829 117.199 129.014 116.986C129.199 116.773 129.33 116.517 129.408 116.219H130.665C130.594 116.702 130.419 117.137 130.138 117.524C129.861 117.908 129.494 118.213 129.035 118.44C128.581 118.664 128.052 118.776 127.448 118.776ZM136.061 110.424V111.489H131.821V110.424H136.061ZM133.057 108.463H134.314V116.262C134.314 116.617 134.366 116.883 134.469 117.061C134.575 117.235 134.71 117.352 134.873 117.412C135.04 117.469 135.216 117.498 135.401 117.498C135.539 117.498 135.653 117.49 135.742 117.476C135.831 117.458 135.902 117.444 135.955 117.434L136.21 118.563C136.125 118.595 136.006 118.627 135.854 118.659C135.701 118.694 135.507 118.712 135.273 118.712C134.918 118.712 134.57 118.636 134.229 118.483C133.892 118.33 133.611 118.098 133.387 117.785C133.167 117.473 133.057 117.079 133.057 116.603V108.463ZM141.188 118.776C140.45 118.776 139.802 118.6 139.244 118.249C138.69 117.897 138.257 117.405 137.944 116.773C137.635 116.141 137.481 115.402 137.481 114.557C137.481 113.705 137.635 112.961 137.944 112.325C138.257 111.69 138.69 111.196 139.244 110.844C139.802 110.493 140.45 110.317 141.188 110.317C141.927 110.317 142.573 110.493 143.127 110.844C143.685 111.196 144.118 111.69 144.427 112.325C144.739 112.961 144.896 113.705 144.896 114.557C144.896 115.402 144.739 116.141 144.427 116.773C144.118 117.405 143.685 117.897 143.127 118.249C142.573 118.6 141.927 118.776 141.188 118.776ZM141.188 117.647C141.749 117.647 142.211 117.503 142.573 117.215C142.935 116.928 143.204 116.549 143.378 116.081C143.552 115.612 143.639 115.104 143.639 114.557C143.639 114.01 143.552 113.501 143.378 113.028C143.204 112.556 142.935 112.174 142.573 111.883C142.211 111.592 141.749 111.446 141.188 111.446C140.627 111.446 140.166 111.592 139.803 111.883C139.441 112.174 139.173 112.556 138.999 113.028C138.825 113.501 138.738 114.01 138.738 114.557C138.738 115.104 138.825 115.612 138.999 116.081C139.173 116.549 139.441 116.928 139.803 117.215C140.166 117.503 140.627 117.647 141.188 117.647ZM152.61 112.256L151.481 112.576C151.41 112.387 151.305 112.205 151.167 112.027C151.032 111.846 150.847 111.697 150.613 111.58C150.378 111.462 150.078 111.404 149.712 111.404C149.212 111.404 148.794 111.519 148.461 111.75C148.13 111.977 147.965 112.267 147.965 112.618C147.965 112.931 148.079 113.178 148.306 113.359C148.533 113.54 148.888 113.691 149.371 113.811L150.586 114.11C151.317 114.287 151.863 114.559 152.221 114.925C152.58 115.287 152.759 115.754 152.759 116.326C152.759 116.794 152.624 117.213 152.354 117.583C152.088 117.952 151.715 118.243 151.236 118.456C150.756 118.669 150.199 118.776 149.563 118.776C148.729 118.776 148.038 118.595 147.491 118.233C146.944 117.87 146.598 117.341 146.452 116.645L147.646 116.347C147.759 116.787 147.974 117.118 148.29 117.338C148.61 117.558 149.027 117.668 149.542 117.668C150.128 117.668 150.593 117.544 150.938 117.295C151.286 117.043 151.46 116.741 151.46 116.39C151.46 116.105 151.36 115.868 151.161 115.676C150.962 115.48 150.657 115.335 150.245 115.239L148.881 114.919C148.132 114.742 147.582 114.467 147.23 114.094C146.882 113.717 146.708 113.247 146.708 112.682C146.708 112.221 146.838 111.812 147.097 111.457C147.36 111.102 147.717 110.823 148.168 110.621C148.622 110.418 149.137 110.317 149.712 110.317C150.522 110.317 151.158 110.495 151.619 110.85C152.085 111.205 152.415 111.674 152.61 112.256ZM49.6882 139.674V128.424H50.9027V129.723H51.0518C51.1441 129.581 51.272 129.4 51.4353 129.18C51.6022 128.956 51.8402 128.757 52.1491 128.583C52.4616 128.406 52.8842 128.317 53.4169 128.317C54.1058 128.317 54.713 128.489 55.2386 128.834C55.7642 129.178 56.1743 129.667 56.4691 130.299C56.7638 130.931 56.9112 131.677 56.9112 132.536C56.9112 133.402 56.7638 134.153 56.4691 134.789C56.1743 135.421 55.7659 135.911 55.2439 136.259C54.7219 136.604 54.12 136.776 53.4382 136.776C52.9126 136.776 52.4918 136.689 52.1757 136.515C51.8597 136.337 51.6164 136.137 51.446 135.913C51.2755 135.686 51.1441 135.498 51.0518 135.348H50.9453V139.674H49.6882ZM50.924 132.515C50.924 133.132 51.0145 133.678 51.1956 134.15C51.3767 134.619 51.6413 134.986 51.9893 135.253C52.3373 135.515 52.7634 135.647 53.2677 135.647C53.7933 135.647 54.2318 135.508 54.5834 135.231C54.9385 134.951 55.2049 134.574 55.3824 134.102C55.5635 133.626 55.6541 133.097 55.6541 132.515C55.6541 131.939 55.5653 131.421 55.3877 130.959C55.2137 130.494 54.9492 130.126 54.5941 129.857C54.2425 129.583 53.8004 129.446 53.2677 129.446C52.7563 129.446 52.3267 129.576 51.9786 129.835C51.6306 130.091 51.3679 130.45 51.1903 130.911C51.0127 131.369 50.924 131.904 50.924 132.515ZM58.8288 136.605V128.424H60.0433V129.659H60.1285C60.2777 129.255 60.5475 128.926 60.9382 128.674C61.3288 128.422 61.7691 128.296 62.2592 128.296C62.3515 128.296 62.4669 128.298 62.6054 128.301C62.7439 128.305 62.8487 128.31 62.9197 128.317V129.596C62.8771 129.585 62.7794 129.569 62.6267 129.548C62.4776 129.523 62.3196 129.51 62.1527 129.51C61.7549 129.51 61.3998 129.594 61.0873 129.761C60.7784 129.924 60.5333 130.151 60.3522 130.443C60.1747 130.73 60.0859 131.059 60.0859 131.428V136.605H58.8288ZM67.4847 136.776C66.746 136.776 66.098 136.6 65.5404 136.249C64.9865 135.897 64.5532 135.405 64.2407 134.773C63.9318 134.141 63.7773 133.402 63.7773 132.557C63.7773 131.705 63.9318 130.961 64.2407 130.325C64.5532 129.69 64.9865 129.196 65.5404 128.844C66.098 128.493 66.746 128.317 67.4847 128.317C68.2233 128.317 68.8696 128.493 69.4236 128.844C69.9811 129.196 70.4144 129.69 70.7233 130.325C71.0358 130.961 71.1921 131.705 71.1921 132.557C71.1921 133.402 71.0358 134.141 70.7233 134.773C70.4144 135.405 69.9811 135.897 69.4236 136.249C68.8696 136.6 68.2233 136.776 67.4847 136.776ZM67.4847 135.647C68.0458 135.647 68.5074 135.503 68.8696 135.215C69.2318 134.928 69.5 134.549 69.674 134.081C69.848 133.612 69.935 133.104 69.935 132.557C69.935 132.01 69.848 131.501 69.674 131.028C69.5 130.556 69.2318 130.174 68.8696 129.883C68.5074 129.592 68.0458 129.446 67.4847 129.446C66.9236 129.446 66.462 129.592 66.0997 129.883C65.7375 130.174 65.4694 130.556 65.2954 131.028C65.1214 131.501 65.0344 132.01 65.0344 132.557C65.0344 133.104 65.1214 133.612 65.2954 134.081C65.4694 134.549 65.7375 134.928 66.0997 135.215C66.462 135.503 66.9236 135.647 67.4847 135.647ZM76.4349 136.776C75.6678 136.776 75.0073 136.595 74.4533 136.233C73.8994 135.87 73.4732 135.371 73.1749 134.736C72.8766 134.1 72.7275 133.374 72.7275 132.557C72.7275 131.726 72.8802 130.993 73.1856 130.357C73.4945 129.718 73.9242 129.219 74.4747 128.86C75.0286 128.498 75.6749 128.317 76.4136 128.317C76.9889 128.317 77.5073 128.424 77.969 128.637C78.4306 128.85 78.8088 129.148 79.1036 129.532C79.3983 129.915 79.5812 130.363 79.6522 130.874H78.3951C78.2992 130.501 78.0862 130.171 77.7559 129.883C77.4292 129.592 76.9889 129.446 76.4349 129.446C75.9448 129.446 75.5151 129.574 75.1458 129.83C74.7801 130.082 74.4942 130.439 74.2882 130.901C74.0858 131.359 73.9846 131.897 73.9846 132.515C73.9846 133.147 74.084 133.697 74.2829 134.166C74.4853 134.635 74.7694 134.999 75.1352 135.258C75.5045 135.517 75.9377 135.647 76.4349 135.647C76.7616 135.647 77.0581 135.59 77.3244 135.476C77.5908 135.363 77.8163 135.199 78.0009 134.986C78.1856 134.773 78.317 134.517 78.3951 134.219H79.6522C79.5812 134.702 79.4054 135.137 79.1249 135.524C78.8479 135.908 78.4803 136.213 78.0222 136.44C77.5677 136.664 77.0386 136.776 76.4349 136.776ZM84.9203 136.776C84.132 136.776 83.4519 136.602 82.8802 136.254C82.312 135.902 81.8734 135.412 81.5645 134.784C81.2591 134.152 81.1064 133.417 81.1064 132.579C81.1064 131.74 81.2591 131.002 81.5645 130.363C81.8734 129.72 82.3031 129.219 82.8536 128.86C83.4075 128.498 84.0538 128.317 84.7925 128.317C85.2186 128.317 85.6394 128.388 86.0549 128.53C86.4704 128.672 86.8486 128.903 87.1895 129.223C87.5304 129.539 87.8021 129.958 88.0045 130.48C88.2069 131.002 88.3081 131.645 88.3081 132.408V132.941H82.0013V131.854H87.0297C87.0297 131.392 86.9374 130.98 86.7527 130.618C86.5716 130.256 86.3124 129.97 85.975 129.761C85.6412 129.551 85.247 129.446 84.7925 129.446C84.2918 129.446 83.8585 129.571 83.4928 129.819C83.1305 130.064 82.8518 130.384 82.6565 130.778C82.4612 131.172 82.3635 131.595 82.3635 132.046V132.77C82.3635 133.388 82.47 133.912 82.6831 134.342C82.8997 134.768 83.1998 135.093 83.5833 135.316C83.9668 135.537 84.4125 135.647 84.9203 135.647C85.2506 135.647 85.5489 135.601 85.8152 135.508C86.0851 135.412 86.3177 135.27 86.513 135.082C86.7083 134.89 86.8592 134.652 86.9658 134.368L88.1803 134.709C88.0524 135.121 87.8376 135.483 87.5357 135.796C87.2339 136.105 86.861 136.346 86.4171 136.52C85.9732 136.691 85.4743 136.776 84.9203 136.776ZM96.0158 130.256L94.8866 130.576C94.8156 130.387 94.7108 130.205 94.5723 130.027C94.4374 129.846 94.2527 129.697 94.0183 129.58C93.784 129.462 93.4839 129.404 93.1181 129.404C92.6174 129.404 92.2002 129.519 91.8663 129.75C91.5361 129.977 91.371 130.267 91.371 130.618C91.371 130.931 91.4846 131.178 91.7119 131.359C91.9391 131.54 92.2943 131.691 92.7772 131.811L93.9917 132.11C94.7232 132.287 95.2683 132.559 95.627 132.925C95.9857 133.287 96.165 133.754 96.165 134.326C96.165 134.794 96.0301 135.213 95.7602 135.583C95.4938 135.952 95.121 136.243 94.6416 136.456C94.1622 136.669 93.6046 136.776 92.969 136.776C92.1345 136.776 91.4438 136.595 90.8969 136.233C90.35 135.87 90.0038 135.341 89.8582 134.645L91.0514 134.347C91.165 134.787 91.3798 135.118 91.6959 135.338C92.0155 135.558 92.4328 135.668 92.9477 135.668C93.5336 135.668 93.9988 135.544 94.3433 135.295C94.6913 135.043 94.8653 134.741 94.8653 134.39C94.8653 134.105 94.7658 133.868 94.567 133.676C94.3681 133.48 94.0627 133.335 93.6508 133.239L92.2872 132.919C91.5379 132.742 90.9874 132.467 90.6359 132.094C90.2879 131.717 90.1139 131.247 90.1139 130.682C90.1139 130.221 90.2435 129.812 90.5027 129.457C90.7655 129.102 91.1224 128.823 91.5734 128.621C92.0279 128.418 92.5428 128.317 93.1181 128.317C93.9278 128.317 94.5634 128.495 95.0251 128.85C95.4903 129.205 95.8205 129.674 96.0158 130.256ZM100.465 136.797C99.9465 136.797 99.476 136.7 99.0534 136.504C98.6308 136.305 98.2952 136.02 98.0467 135.647C97.7981 135.27 97.6738 134.816 97.6738 134.283C97.6738 133.814 97.7661 133.434 97.9508 133.143C98.1354 132.848 98.3822 132.618 98.6912 132.451C99.0001 132.284 99.341 132.159 99.7139 132.078C100.09 131.993 100.469 131.925 100.848 131.875C101.346 131.811 101.749 131.764 102.058 131.732C102.37 131.696 102.597 131.637 102.739 131.556C102.885 131.474 102.958 131.332 102.958 131.13V131.087C102.958 130.561 102.814 130.153 102.526 129.862C102.242 129.571 101.811 129.425 101.232 129.425C100.632 129.425 100.161 129.556 99.8204 129.819C99.4795 130.082 99.2398 130.363 99.1013 130.661L97.9082 130.235C98.1212 129.738 98.4053 129.351 98.7604 129.074C99.1191 128.793 99.5097 128.598 99.9323 128.488C100.358 128.374 100.777 128.317 101.189 128.317C101.452 128.317 101.754 128.349 102.095 128.413C102.439 128.473 102.771 128.599 103.091 128.791C103.414 128.983 103.682 129.272 103.895 129.659C104.108 130.047 104.215 130.565 104.215 131.215V136.605H102.958V135.498H102.894C102.809 135.675 102.667 135.865 102.468 136.068C102.269 136.27 102.004 136.442 101.674 136.584C101.344 136.726 100.941 136.797 100.465 136.797ZM100.657 135.668C101.154 135.668 101.573 135.57 101.914 135.375C102.258 135.18 102.518 134.928 102.692 134.619C102.869 134.31 102.958 133.985 102.958 133.644V132.493C102.905 132.557 102.787 132.616 102.606 132.669C102.429 132.719 102.223 132.763 101.988 132.802C101.758 132.838 101.532 132.87 101.312 132.898C101.095 132.923 100.92 132.944 100.785 132.962C100.458 133.005 100.152 133.074 99.8684 133.17C99.5878 133.262 99.3606 133.402 99.1866 133.591C99.0161 133.775 98.9309 134.027 98.9309 134.347C98.9309 134.784 99.0925 135.114 99.4156 135.338C99.7423 135.558 100.156 135.668 100.657 135.668ZM109.599 136.776C108.917 136.776 108.315 136.604 107.793 136.259C107.271 135.911 106.863 135.421 106.568 134.789C106.273 134.153 106.126 133.402 106.126 132.536C106.126 131.677 106.273 130.931 106.568 130.299C106.863 129.667 107.273 129.178 107.799 128.834C108.324 128.489 108.931 128.317 109.62 128.317C110.153 128.317 110.574 128.406 110.883 128.583C111.195 128.757 111.433 128.956 111.596 129.18C111.763 129.4 111.893 129.581 111.985 129.723H112.092V125.696H113.349V136.605H112.134V135.348H111.985C111.893 135.498 111.762 135.686 111.591 135.913C111.421 136.137 111.177 136.337 110.861 136.515C110.545 136.689 110.125 136.776 109.599 136.776ZM109.769 135.647C110.274 135.647 110.7 135.515 111.048 135.253C111.396 134.986 111.66 134.619 111.841 134.15C112.023 133.678 112.113 133.132 112.113 132.515C112.113 131.904 112.024 131.369 111.847 130.911C111.669 130.45 111.406 130.091 111.058 129.835C110.71 129.576 110.281 129.446 109.769 129.446C109.237 129.446 108.793 129.583 108.438 129.857C108.086 130.126 107.822 130.494 107.644 130.959C107.47 131.421 107.383 131.939 107.383 132.515C107.383 133.097 107.472 133.626 107.649 134.102C107.83 134.574 108.097 134.951 108.448 135.231C108.803 135.508 109.244 135.647 109.769 135.647ZM119.15 136.776C118.411 136.776 117.763 136.6 117.205 136.249C116.652 135.897 116.218 135.405 115.906 134.773C115.597 134.141 115.442 133.402 115.442 132.557C115.442 131.705 115.597 130.961 115.906 130.325C116.218 129.69 116.652 129.196 117.205 128.844C117.763 128.493 118.411 128.317 119.15 128.317C119.888 128.317 120.535 128.493 121.089 128.844C121.646 129.196 122.079 129.69 122.388 130.325C122.701 130.961 122.857 131.705 122.857 132.557C122.857 133.402 122.701 134.141 122.388 134.773C122.079 135.405 121.646 135.897 121.089 136.249C120.535 136.6 119.888 136.776 119.15 136.776ZM119.15 135.647C119.711 135.647 120.172 135.503 120.535 135.215C120.897 134.928 121.165 134.549 121.339 134.081C121.513 133.612 121.6 133.104 121.6 132.557C121.6 132.01 121.513 131.501 121.339 131.028C121.165 130.556 120.897 130.174 120.535 129.883C120.172 129.592 119.711 129.446 119.15 129.446C118.589 129.446 118.127 129.592 117.765 129.883C117.403 130.174 117.134 130.556 116.96 131.028C116.786 131.501 116.699 132.01 116.699 132.557C116.699 133.104 116.786 133.612 116.96 134.081C117.134 134.549 117.403 134.928 117.765 135.215C118.127 135.503 118.589 135.647 119.15 135.647ZM130.572 130.256L129.442 130.576C129.371 130.387 129.266 130.205 129.128 130.027C128.993 129.846 128.808 129.697 128.574 129.58C128.34 129.462 128.04 129.404 127.674 129.404C127.173 129.404 126.756 129.519 126.422 129.75C126.092 129.977 125.927 130.267 125.927 130.618C125.927 130.931 126.04 131.178 126.268 131.359C126.495 131.54 126.85 131.691 127.333 131.811L128.547 132.11C129.279 132.287 129.824 132.559 130.183 132.925C130.541 133.287 130.721 133.754 130.721 134.326C130.721 134.794 130.586 135.213 130.316 135.583C130.049 135.952 129.677 136.243 129.197 136.456C128.718 136.669 128.16 136.776 127.525 136.776C126.69 136.776 125.999 136.595 125.453 136.233C124.906 135.87 124.559 135.341 124.414 134.645L125.607 134.347C125.721 134.787 125.936 135.118 126.252 135.338C126.571 135.558 126.988 135.668 127.503 135.668C128.089 135.668 128.554 135.544 128.899 135.295C129.247 135.043 129.421 134.741 129.421 134.39C129.421 134.105 129.322 133.868 129.123 133.676C128.924 133.48 128.618 133.335 128.206 133.239L126.843 132.919C126.094 132.742 125.543 132.467 125.192 132.094C124.844 131.717 124.67 131.247 124.67 130.682C124.67 130.221 124.799 129.812 125.058 129.457C125.321 129.102 125.678 128.823 126.129 128.621C126.584 128.418 127.098 128.317 127.674 128.317C128.483 128.317 129.119 128.495 129.581 128.85C130.046 129.205 130.376 129.674 130.572 130.256Z" fill="black"/>
</g>
<g clip-path="url(#clip1_40_17)">
<path d="M274.058 84.0987H220.924C220.924 85.8575 220.924 87.5827 220.924 89.308C220.924 90.6748 220.596 90.9964 219.219 90.9964C218.016 90.9964 216.814 90.9964 215.611 90.9964C214.345 90.9964 213.996 90.6446 213.996 89.3616C213.996 71.6769 213.996 53.9923 213.996 36.3076C213.996 32.7231 213.996 29.1386 213.996 25.5508C213.996 24.3749 214.368 24.0064 215.551 23.9997C216.8 23.9997 218.053 23.9997 219.303 23.9997C220.529 23.9997 220.907 24.3682 220.907 25.5809C220.907 28.7098 220.907 31.8354 220.907 34.9643C220.907 35.1284 220.921 35.2926 220.931 35.5036H223.092C223.289 34.0531 223.403 32.6159 223.691 31.2156C224.083 29.3095 224.88 27.5641 226.197 26.0935C228.428 23.6011 231.617 23.4972 233.909 25.9293C234.703 26.7735 235.292 27.812 235.989 28.7802C236.043 28.6864 236.123 28.4921 236.244 28.3313C236.974 27.3564 237.594 26.2576 238.478 25.4503C240.404 23.6882 243.024 23.7049 244.954 25.467C245.788 26.2308 246.381 27.2559 247.071 28.1738C247.222 28.3748 247.312 28.6194 247.449 28.874C250.458 22.2108 256.454 23.0282 259.024 28.9041C259.148 28.683 259.228 28.4921 259.349 28.3313C260.062 27.3732 260.662 26.2911 261.526 25.4938C263.493 23.6748 266.119 23.7217 268.129 25.4938C270.102 27.2325 270.993 29.5507 271.442 32.0598C271.643 33.1854 271.7 34.3378 271.824 35.5137H274.055V34.7532C274.055 31.6746 274.055 28.5926 274.055 25.5139C274.055 24.3816 274.44 24.0031 275.569 23.9997C276.893 23.9964 278.216 23.993 279.539 23.9997C280.571 24.0031 280.98 24.4084 280.98 25.4436C280.983 31.1687 280.98 36.8972 280.98 42.6224C280.98 58.1664 280.98 73.7104 280.98 89.251C280.98 90.6748 280.668 90.9897 279.251 90.9897C277.975 90.9897 276.702 90.9964 275.425 90.9897C274.481 90.983 274.058 90.5609 274.052 89.6229C274.042 87.7971 274.052 85.9747 274.052 84.0954L274.058 84.0987ZM216.358 42.5152V49.3592H278.638V42.5152H216.358ZM278.628 81.7269V74.8829H216.345V81.7269H278.628ZM258.987 61.1177C259.647 60.1831 260.206 59.1848 260.957 58.364C263.255 55.8482 266.491 55.9185 268.769 58.4545C270.105 59.9452 270.893 61.7174 271.288 63.647C271.569 65.0238 271.68 66.4375 271.871 67.8479H274.005V51.7779H220.948V67.8512H223.242C223.242 67.4492 223.226 67.0941 223.242 66.739C223.39 64.0322 223.986 61.4561 225.584 59.2049C226.468 57.9587 227.581 56.9704 229.125 56.6455C231.436 56.1564 233.142 57.2083 234.505 58.9402C235.048 59.627 235.453 60.4209 235.952 61.2115C237.188 58.8062 238.659 56.5483 241.708 56.5517C244.746 56.555 246.213 58.8096 247.463 61.2383C250.324 54.9102 256.247 55.0341 258.98 61.1211L258.987 61.1177ZM216.335 40.1199H278.645V37.9022H216.335V40.1199ZM216.335 72.4642H278.621V70.2398H216.338V72.4642H216.335ZM234.833 67.8613C234.763 66.9635 234.743 66.1226 234.619 65.2985C234.327 63.3522 233.778 61.4896 232.421 59.9854C231.008 58.421 229.262 58.4143 227.895 60.0189C225.983 62.2668 225.594 64.9937 225.54 67.8613H234.833ZM246.387 67.8646C246.314 66.9467 246.297 66.1025 246.166 65.2784C245.851 63.2617 245.289 61.3254 243.808 59.8179C242.515 58.5014 240.95 58.4511 239.684 59.7811C237.533 62.039 237.165 64.8898 237.085 67.868H246.387V67.8646ZM257.942 67.8646C257.865 66.9434 257.848 66.0992 257.721 65.2717C257.416 63.3019 256.86 61.4159 255.456 59.9151C254.089 58.4545 252.381 58.4243 251.091 59.9519C250.411 60.7593 249.888 61.7442 249.483 62.7291C248.813 64.3572 248.609 66.0891 248.669 67.8646H257.942ZM269.442 67.8579C269.435 65.1042 269.02 62.5013 267.328 60.2836C265.828 58.3138 263.801 58.3573 262.28 60.3271C261.288 61.6102 260.752 63.1009 260.488 64.6788C260.313 65.7273 260.25 66.7926 260.136 67.8579H269.442ZM225.544 35.5036H234.79C234.76 32.8437 234.391 30.3145 232.8 28.1571C232.338 27.5306 231.641 26.9846 230.934 26.6529C229.818 26.1337 228.519 26.7333 227.557 28.07C225.973 30.2709 225.557 32.8002 225.54 35.5036H225.544ZM246.421 35.5204C246.287 34.3546 246.23 33.2256 246.012 32.1335C245.657 30.3446 245.047 28.6495 243.674 27.3531C242.471 26.2174 241.115 26.2007 239.858 27.276C239.677 27.4301 239.503 27.6043 239.356 27.7919C237.56 30.0599 237.158 32.7198 237.105 35.5539C240.089 35.5539 242.974 35.5539 245.858 35.5539C245.996 35.5539 246.136 35.5405 246.421 35.5237V35.5204ZM257.932 35.5137C257.861 34.636 257.841 33.8186 257.724 33.0179C257.442 31.0917 256.906 29.2492 255.603 27.7383C254.153 26.0566 252.344 26.0533 250.933 27.7685C249.094 30.0063 248.716 32.693 248.655 35.5137H257.932ZM269.479 35.5304C269.412 34.6561 269.395 33.842 269.278 33.0414C268.987 31.0414 268.434 29.1286 267.023 27.5976C265.643 26.0968 263.881 26.0633 262.618 27.6613C261.861 28.616 261.302 29.7785 260.866 30.9309C260.313 32.3881 260.169 33.9459 260.233 35.5338H269.479V35.5304ZM218.566 67.8613V51.7813H216.341V67.8613H218.566ZM276.42 51.7545V67.8579H278.641V51.7545H276.42ZM216.345 26.3481V35.5036H218.562V26.3481H216.345ZM276.42 26.3481V35.4969H278.645V26.3447H276.42V26.3481ZM218.566 88.6547V84.1255H216.341V88.6547H218.562H218.566ZM276.42 84.0987V88.6279H278.641V84.0987H276.42Z" fill="#424242"/>
</g>
<path d="M196.775 119V108.091H198.096V112.949H203.913V108.091H205.234V119H203.913V114.121H198.096V119H196.775ZM212.864 115.655V110.818H214.122V119H212.864V117.615H212.779C212.587 118.031 212.289 118.384 211.884 118.675C211.479 118.963 210.968 119.107 210.35 119.107C209.839 119.107 209.384 118.995 208.987 118.771C208.589 118.544 208.276 118.203 208.049 117.748C207.822 117.29 207.708 116.713 207.708 116.017V110.818H208.965V115.932C208.965 116.528 209.132 117.004 209.466 117.359C209.803 117.714 210.233 117.892 210.755 117.892C211.068 117.892 211.385 117.812 211.709 117.652C212.035 117.493 212.309 117.248 212.529 116.917C212.753 116.587 212.864 116.166 212.864 115.655ZM219.854 119.17C219.066 119.17 218.386 118.996 217.814 118.648C217.246 118.297 216.808 117.807 216.499 117.178C216.193 116.546 216.04 115.811 216.04 114.973C216.04 114.135 216.193 113.396 216.499 112.757C216.808 112.114 217.237 111.614 217.788 111.255C218.342 110.893 218.988 110.712 219.727 110.712C220.153 110.712 220.574 110.783 220.989 110.925C221.404 111.067 221.783 111.298 222.124 111.617C222.464 111.933 222.736 112.352 222.939 112.874C223.141 113.396 223.242 114.039 223.242 114.803V115.335H216.935V114.249H221.964C221.964 113.787 221.871 113.375 221.687 113.013C221.506 112.651 221.246 112.365 220.909 112.155C220.575 111.946 220.181 111.841 219.727 111.841C219.226 111.841 218.793 111.965 218.427 112.214C218.065 112.459 217.786 112.778 217.591 113.173C217.395 113.567 217.298 113.989 217.298 114.44V115.165C217.298 115.783 217.404 116.306 217.617 116.736C217.834 117.162 218.134 117.487 218.517 117.711C218.901 117.931 219.347 118.041 219.854 118.041C220.185 118.041 220.483 117.995 220.749 117.903C221.019 117.807 221.252 117.665 221.447 117.477C221.642 117.285 221.793 117.047 221.9 116.763L223.114 117.104C222.987 117.516 222.772 117.878 222.47 118.19C222.168 118.499 221.795 118.741 221.351 118.915C220.907 119.085 220.408 119.17 219.854 119.17ZM231.596 110.818L228.57 119H227.292L224.266 110.818H225.63L227.888 117.338H227.974L230.232 110.818H231.596ZM236.286 119.17C235.547 119.17 234.899 118.995 234.342 118.643C233.788 118.292 233.354 117.8 233.042 117.168C232.733 116.536 232.579 115.797 232.579 114.952C232.579 114.099 232.733 113.355 233.042 112.72C233.354 112.084 233.788 111.591 234.342 111.239C234.899 110.887 235.547 110.712 236.286 110.712C237.025 110.712 237.671 110.887 238.225 111.239C238.782 111.591 239.216 112.084 239.525 112.72C239.837 113.355 239.993 114.099 239.993 114.952C239.993 115.797 239.837 116.536 239.525 117.168C239.216 117.8 238.782 118.292 238.225 118.643C237.671 118.995 237.025 119.17 236.286 119.17ZM236.286 118.041C236.847 118.041 237.309 117.897 237.671 117.61C238.033 117.322 238.301 116.944 238.475 116.475C238.649 116.006 238.736 115.499 238.736 114.952C238.736 114.405 238.649 113.895 238.475 113.423C238.301 112.951 238.033 112.569 237.671 112.278C237.309 111.987 236.847 111.841 236.286 111.841C235.725 111.841 235.263 111.987 234.901 112.278C234.539 112.569 234.271 112.951 234.097 113.423C233.923 113.895 233.836 114.405 233.836 114.952C233.836 115.499 233.923 116.006 234.097 116.475C234.271 116.944 234.539 117.322 234.901 117.61C235.263 117.897 235.725 118.041 236.286 118.041ZM247.708 112.651L246.578 112.97C246.507 112.782 246.403 112.599 246.264 112.422C246.129 112.24 245.945 112.091 245.71 111.974C245.476 111.857 245.176 111.798 244.81 111.798C244.309 111.798 243.892 111.914 243.558 112.145C243.228 112.372 243.063 112.661 243.063 113.013C243.063 113.325 243.176 113.572 243.404 113.753C243.631 113.934 243.986 114.085 244.469 114.206L245.684 114.504C246.415 114.682 246.96 114.953 247.319 115.319C247.678 115.681 247.857 116.148 247.857 116.72C247.857 117.189 247.722 117.608 247.452 117.977C247.186 118.347 246.813 118.638 246.333 118.851C245.854 119.064 245.297 119.17 244.661 119.17C243.826 119.17 243.136 118.989 242.589 118.627C242.042 118.265 241.696 117.736 241.55 117.04L242.743 116.741C242.857 117.182 243.072 117.512 243.388 117.732C243.707 117.952 244.125 118.062 244.64 118.062C245.225 118.062 245.691 117.938 246.035 117.69C246.383 117.437 246.557 117.136 246.557 116.784C246.557 116.5 246.458 116.262 246.259 116.07C246.06 115.875 245.755 115.729 245.343 115.634L243.979 115.314C243.23 115.136 242.679 114.861 242.328 114.488C241.98 114.112 241.806 113.641 241.806 113.077C241.806 112.615 241.935 112.207 242.195 111.852C242.457 111.496 242.814 111.218 243.265 111.015C243.72 110.813 244.235 110.712 244.81 110.712C245.62 110.712 246.255 110.889 246.717 111.244C247.182 111.599 247.512 112.068 247.708 112.651ZM254.778 122.068C254.565 122.068 254.375 122.05 254.208 122.015C254.041 121.983 253.925 121.951 253.861 121.919L254.181 120.811C254.486 120.889 254.756 120.918 254.991 120.896C255.225 120.875 255.433 120.77 255.614 120.582C255.799 120.397 255.967 120.097 256.12 119.682L256.354 119.043L253.329 110.818H254.692L256.951 117.338H257.036L259.295 110.818H260.658L257.185 120.193C257.029 120.616 256.835 120.966 256.605 121.243C256.374 121.523 256.106 121.731 255.8 121.866C255.498 122.001 255.158 122.068 254.778 122.068ZM266.536 122.068V110.818H267.751V112.118H267.9C267.992 111.976 268.12 111.795 268.283 111.575C268.45 111.351 268.688 111.152 268.997 110.978C269.31 110.8 269.732 110.712 270.265 110.712C270.954 110.712 271.561 110.884 272.087 111.228C272.612 111.573 273.022 112.061 273.317 112.693C273.612 113.325 273.759 114.071 273.759 114.93C273.759 115.797 273.612 116.548 273.317 117.184C273.022 117.816 272.614 118.306 272.092 118.654C271.57 118.998 270.968 119.17 270.286 119.17C269.761 119.17 269.34 119.083 269.024 118.909C268.708 118.732 268.465 118.531 268.294 118.308C268.124 118.08 267.992 117.892 267.9 117.743H267.793V122.068H266.536ZM267.772 114.909C267.772 115.527 267.863 116.072 268.044 116.544C268.225 117.013 268.489 117.381 268.837 117.647C269.185 117.91 269.612 118.041 270.116 118.041C270.641 118.041 271.08 117.903 271.432 117.626C271.787 117.345 272.053 116.969 272.231 116.496C272.412 116.021 272.502 115.491 272.502 114.909C272.502 114.334 272.413 113.815 272.236 113.354C272.062 112.888 271.797 112.521 271.442 112.251C271.091 111.978 270.649 111.841 270.116 111.841C269.604 111.841 269.175 111.971 268.827 112.23C268.479 112.485 268.216 112.844 268.038 113.306C267.861 113.764 267.772 114.298 267.772 114.909ZM279.001 119.17C278.262 119.17 277.614 118.995 277.057 118.643C276.503 118.292 276.069 117.8 275.757 117.168C275.448 116.536 275.293 115.797 275.293 114.952C275.293 114.099 275.448 113.355 275.757 112.72C276.069 112.084 276.503 111.591 277.057 111.239C277.614 110.887 278.262 110.712 279.001 110.712C279.739 110.712 280.386 110.887 280.94 111.239C281.497 111.591 281.93 112.084 282.239 112.72C282.552 113.355 282.708 114.099 282.708 114.952C282.708 115.797 282.552 116.536 282.239 117.168C281.93 117.8 281.497 118.292 280.94 118.643C280.386 118.995 279.739 119.17 279.001 119.17ZM279.001 118.041C279.562 118.041 280.024 117.897 280.386 117.61C280.748 117.322 281.016 116.944 281.19 116.475C281.364 116.006 281.451 115.499 281.451 114.952C281.451 114.405 281.364 113.895 281.19 113.423C281.016 112.951 280.748 112.569 280.386 112.278C280.024 111.987 279.562 111.841 279.001 111.841C278.44 111.841 277.978 111.987 277.616 112.278C277.254 112.569 276.986 112.951 276.812 113.423C276.638 113.895 276.551 114.405 276.551 114.952C276.551 115.499 276.638 116.006 276.812 116.475C276.986 116.944 277.254 117.322 277.616 117.61C277.978 117.897 278.44 118.041 279.001 118.041ZM285.884 108.091V119H284.627V108.091H285.884ZM289.444 108.091V119H288.187V108.091H289.444ZM295.07 119.17C294.331 119.17 293.683 118.995 293.126 118.643C292.572 118.292 292.139 117.8 291.826 117.168C291.517 116.536 291.363 115.797 291.363 114.952C291.363 114.099 291.517 113.355 291.826 112.72C292.139 112.084 292.572 111.591 293.126 111.239C293.683 110.887 294.331 110.712 295.07 110.712C295.809 110.712 296.455 110.887 297.009 111.239C297.567 111.591 298 112.084 298.309 112.72C298.621 113.355 298.778 114.099 298.778 114.952C298.778 115.797 298.621 116.536 298.309 117.168C298 117.8 297.567 118.292 297.009 118.643C296.455 118.995 295.809 119.17 295.07 119.17ZM295.07 118.041C295.631 118.041 296.093 117.897 296.455 117.61C296.817 117.322 297.085 116.944 297.259 116.475C297.433 116.006 297.52 115.499 297.52 114.952C297.52 114.405 297.433 113.895 297.259 113.423C297.085 112.951 296.817 112.569 296.455 112.278C296.093 111.987 295.631 111.841 295.07 111.841C294.509 111.841 294.047 111.987 293.685 112.278C293.323 112.569 293.055 112.951 292.881 113.423C292.707 113.895 292.62 114.405 292.62 114.952C292.62 115.499 292.707 116.006 292.881 116.475C293.055 116.944 293.323 117.322 293.685 117.61C294.047 117.897 294.509 118.041 295.07 118.041Z" fill="black"/>
<path d="M397.663 83.0212C397.663 82.6385 397.663 82.316 397.663 81.9935C397.663 75.0877 397.633 68.1819 397.689 61.2761C397.701 59.8872 396.846 59.1734 395.977 58.4252C395.818 58.2876 395.371 58.4123 395.083 58.5026C389.652 60.2183 382.914 56.258 381.942 50.7712C381.697 49.378 381.933 48.9007 383.219 48.2729C385.042 47.3871 386.964 47.228 388.899 47.7053C393.148 48.7545 396.218 51.1066 397.276 55.5786C397.293 55.656 397.357 55.7291 397.409 55.7979C397.422 55.8151 397.461 55.8151 397.637 55.871C397.637 54.3101 397.654 52.7879 397.615 51.2657C397.611 51.0636 397.314 50.8486 397.125 50.6766C393.234 47.0689 393.118 39.7073 396.897 35.9792C398.643 34.2592 399.593 34.2635 401.339 36.005C405.08 39.7288 404.981 47.0259 401.111 50.625C400.673 51.0335 400.496 51.4291 400.514 52.0139C400.548 53.2824 400.527 54.5466 400.527 55.8151C400.604 55.828 400.677 55.8409 400.754 55.8538C400.828 55.5958 400.909 55.3378 400.965 55.0798C402.143 49.7994 408.357 46.0111 413.56 47.4086C413.904 47.5032 414.244 47.6236 414.57 47.7655C415.921 48.3503 416.187 48.8319 415.985 50.2724C415.439 54.1553 411.926 57.6469 407.665 58.5327C406.061 58.8681 404.465 58.8767 402.883 58.3779C402.681 58.3134 402.35 58.279 402.225 58.3951C401.356 59.1906 400.475 59.9087 400.488 61.3363C400.548 68.212 400.518 75.0877 400.518 81.9634V83.0212H422.039V81.9892C422.039 69.3429 422.022 56.6966 422.065 44.0546C422.07 42.6614 421.188 41.9734 420.337 41.208C420.199 41.0833 419.782 41.1994 419.52 41.2811C414.115 43.0097 407.407 39.1698 406.336 33.7303C406.035 32.1995 406.284 31.6878 407.69 31.0299C409.526 30.1742 411.449 30.0538 413.379 30.5397C417.524 31.5846 420.513 33.9109 421.622 38.2367C421.661 38.3915 421.751 38.5334 422.014 38.6581C422.014 37.1359 422.031 35.6094 421.992 34.0872C421.988 33.8851 421.687 33.6744 421.498 33.4981C417.598 29.8775 417.473 22.5417 421.253 18.8007C422.998 17.0721 423.953 17.0721 425.694 18.8007C429.474 22.5503 429.337 29.8603 425.454 33.5153C425.157 33.7948 424.942 34.3022 424.92 34.715C424.852 36.0179 424.895 37.3251 425.101 38.6667C425.157 38.4732 425.23 38.2797 425.273 38.0819C426.374 32.7069 432.605 28.8197 437.898 30.2C440.314 30.8321 440.8 31.6749 440.147 34.1044C438.784 39.1655 432.506 42.7001 427.44 41.2252C426.894 41.0661 426.563 41.1564 426.176 41.5219C425.32 42.3346 424.847 43.1903 424.852 44.4803C424.912 56.9761 424.886 69.4719 424.886 81.9677V83.1115C425.436 83.1115 425.909 83.1115 426.378 83.1115C430.562 83.1115 434.746 83.1115 438.93 83.1115C440.005 83.1115 440.641 83.6189 440.658 84.4875C440.676 85.3432 440.018 85.928 438.986 85.9624C438.745 85.971 438.508 85.9624 438.268 85.9624C412.115 85.9624 385.962 85.9624 359.81 85.9624C359.539 85.9624 359.272 85.9753 359.001 85.9581C358.047 85.8979 357.419 85.2787 357.462 84.4445C357.501 83.6361 358.107 83.0986 359.049 83.0986C363.443 83.09 367.838 83.0943 372.228 83.0943C372.551 83.0943 372.873 83.0943 373.303 83.0943C373.303 81.2539 373.484 79.4737 373.222 77.758C373.097 76.9582 372.138 76.2659 371.506 75.5779C371.411 75.479 371.011 75.6295 370.762 75.7112C365.877 77.2678 359.646 74.189 357.926 69.3429C357.75 68.8398 357.638 68.3066 357.552 67.7777C357.363 66.6339 357.608 66.1351 358.653 65.6019C360.975 64.4151 363.396 64.4237 365.787 65.2708C369.403 66.5522 372.03 68.8441 372.895 72.77C372.916 72.8689 373.007 72.9506 373.286 73.0194C373.286 71.9444 373.239 70.8694 373.299 69.7987C373.351 68.8828 373.114 68.2249 372.426 67.5326C368.87 63.955 368.883 56.9847 372.37 53.3684C372.637 53.0889 372.929 52.8266 373.239 52.5944C374.464 51.657 374.976 51.6398 376.184 52.5729C378.472 54.3402 379.469 56.7912 379.659 59.5776C379.882 62.8929 379.018 65.8513 376.451 68.1518C376.326 68.2636 376.18 68.4399 376.18 68.5861C376.158 70.061 376.167 71.5359 376.167 73.0151C376.24 73.0237 376.313 73.0323 376.386 73.0409C376.455 72.8087 376.541 72.5765 376.593 72.34C377.715 67.0768 383.954 63.2498 389.162 64.6344C391.6 65.2794 392.081 66.1179 391.419 68.5302C390.009 73.6687 383.778 77.1173 378.622 75.651C378.304 75.5607 377.81 75.6811 377.543 75.8918C376.571 76.6615 375.978 77.6032 376.111 78.9706C376.24 80.295 376.141 81.6452 376.141 83.0427H397.663V83.0212ZM423.476 31.3266C426.606 28.5402 425.836 22.2192 423.368 20.7443C420.629 23.3544 420.659 29.1422 423.476 31.3266ZM399.069 48.5481C402.118 45.9208 401.559 39.6127 398.991 37.9572C396.248 40.4899 396.265 46.2648 399.069 48.5481ZM374.692 65.7653C377.797 63.0262 377.096 56.7181 374.593 55.1787C371.85 57.7544 371.88 63.5422 374.692 65.7653ZM418.625 38.4517C418.04 35.145 412.704 32.0318 409.281 33.5454C409.815 36.9682 415.211 39.8277 418.625 38.4517ZM394.197 55.6732C393.96 52.7535 388.56 49.1329 384.887 50.7798C385.498 54.2284 390.938 57.0879 394.197 55.6732ZM369.816 72.8732C369.438 69.7127 363.869 66.3759 360.498 68.0185C361.186 71.5015 366.66 74.3524 369.816 72.8732ZM388.62 67.5498C384.526 66.1609 379.573 70.0094 379.426 72.8345C382.742 74.103 387.687 71.2822 388.62 67.5498ZM428.133 38.3614C431.418 39.746 436.681 36.7403 437.365 33.1197C434.127 31.791 429.16 34.5817 428.133 38.3614ZM403.76 55.5743C406.865 57.0363 412.111 54.0779 412.997 50.367C409.797 49.0082 404.444 51.9408 403.76 55.5743Z" fill="#424242"/>
<path d="M387.596 87.4072C388.074 87.4072 388.555 87.3814 389.028 87.4115C389.871 87.4674 390.452 88.078 390.439 88.8563C390.426 89.6002 389.875 90.2194 389.08 90.2538C388.065 90.2968 387.046 90.3011 386.036 90.2538C385.249 90.2151 384.707 89.5658 384.715 88.8219C384.724 88.078 385.279 87.4846 386.074 87.4201C386.577 87.3814 387.089 87.4115 387.596 87.4115V87.4072Z" fill="#424242"/>
<path d="M410.507 90.2667C410.03 90.2667 409.548 90.2925 409.075 90.2624C408.232 90.2065 407.656 89.5959 407.669 88.8176C407.682 88.0737 408.232 87.4588 409.028 87.4244C410.043 87.3814 411.062 87.3771 412.072 87.4244C412.855 87.4631 413.405 88.1167 413.392 88.8563C413.379 89.6002 412.829 90.1936 412.033 90.2581C411.53 90.2968 411.019 90.2667 410.511 90.2667H410.507Z" fill="#424242"/>
<path d="M364.579 91.6986C364.101 91.6986 363.62 91.7287 363.147 91.6943C362.308 91.6341 361.736 91.0063 361.762 90.228C361.784 89.4841 362.343 88.8864 363.142 88.852C364.127 88.809 365.116 88.809 366.096 88.852C366.931 88.8864 367.507 89.54 367.485 90.314C367.46 91.0536 366.901 91.6384 366.105 91.6943C365.602 91.7287 365.09 91.7029 364.583 91.7029L364.579 91.6986Z" fill="#424242"/>
<path d="M433.473 91.6986C432.966 91.6986 432.454 91.733 431.951 91.69C431.164 91.6212 430.618 91.0063 430.622 90.2624C430.626 89.5185 431.177 88.895 431.972 88.8606C432.987 88.8133 434.006 88.8133 435.017 88.8606C435.804 88.8993 436.354 89.5443 436.345 90.2839C436.337 91.0278 435.786 91.6083 434.995 91.6986C434.935 91.7072 434.875 91.7072 434.815 91.7072C434.367 91.7072 433.92 91.7072 433.469 91.7072C433.469 91.7072 433.469 91.7029 433.469 91.6986H433.473Z" fill="#424242"/>
<path d="M376.163 93.1477C376.61 93.1477 377.061 93.1262 377.504 93.1477C378.356 93.195 378.945 93.7755 378.958 94.5495C378.971 95.3278 378.394 95.9599 377.552 95.9943C376.567 96.033 375.578 96.0373 374.597 95.9943C373.802 95.9556 373.247 95.345 373.234 94.6011C373.221 93.8228 373.793 93.2079 374.64 93.1563C375.148 93.1219 375.655 93.152 376.163 93.1477Z" fill="#424242"/>
<path d="M399.043 96.0029C398.536 96.0029 398.024 96.0373 397.521 95.9943C396.734 95.9255 396.188 95.3106 396.192 94.5667C396.196 93.8228 396.747 93.1993 397.538 93.1606C398.553 93.1133 399.572 93.1133 400.582 93.1606C401.369 93.1993 401.92 93.84 401.915 94.5839C401.911 95.3278 401.361 95.9298 400.565 95.9943C400.062 96.0373 399.55 96.0029 399.043 96.0029Z" fill="#424242"/>
<path d="M422.087 96.0029C421.549 96.0029 421.007 96.0373 420.474 95.9943C419.687 95.9298 419.141 95.3106 419.146 94.5667C419.15 93.8228 419.7 93.195 420.491 93.1606C421.506 93.1133 422.525 93.1133 423.536 93.1606C424.323 93.1993 424.873 93.84 424.869 94.5839C424.865 95.3278 424.314 95.9298 423.519 95.9943C423.046 96.033 422.564 96.0029 422.087 96.0029Z" fill="#424242"/>
<path d="M377.137 110.818C377.073 110.278 376.813 109.859 376.359 109.561C375.904 109.263 375.347 109.114 374.686 109.114C374.203 109.114 373.781 109.192 373.419 109.348C373.06 109.504 372.779 109.719 372.577 109.993C372.378 110.266 372.279 110.577 372.279 110.925C372.279 111.216 372.348 111.466 372.486 111.676C372.628 111.882 372.809 112.054 373.03 112.192C373.25 112.327 373.481 112.439 373.722 112.528C373.964 112.613 374.186 112.683 374.388 112.736L375.496 113.034C375.78 113.109 376.096 113.212 376.444 113.343C376.796 113.474 377.131 113.654 377.451 113.881C377.774 114.105 378.04 114.392 378.25 114.744C378.459 115.096 378.564 115.527 378.564 116.038C378.564 116.628 378.41 117.161 378.101 117.636C377.795 118.112 377.348 118.49 376.758 118.771C376.172 119.051 375.46 119.192 374.622 119.192C373.841 119.192 373.165 119.066 372.593 118.814C372.025 118.561 371.577 118.21 371.251 117.759C370.927 117.308 370.744 116.784 370.702 116.188H372.066C372.101 116.599 372.24 116.94 372.481 117.21C372.726 117.477 373.035 117.675 373.408 117.807C373.784 117.935 374.189 117.999 374.622 117.999C375.127 117.999 375.579 117.917 375.981 117.754C376.382 117.587 376.7 117.356 376.934 117.061C377.169 116.763 377.286 116.415 377.286 116.017C377.286 115.655 377.184 115.36 376.982 115.133C376.78 114.906 376.513 114.721 376.183 114.579C375.853 114.437 375.496 114.312 375.112 114.206L373.77 113.822C372.918 113.577 372.243 113.228 371.746 112.773C371.249 112.319 371 111.724 371 110.989C371 110.378 371.165 109.845 371.496 109.391C371.829 108.933 372.277 108.577 372.838 108.325C373.403 108.07 374.033 107.942 374.729 107.942C375.432 107.942 376.057 108.068 376.604 108.32C377.151 108.569 377.584 108.909 377.904 109.343C378.227 109.776 378.397 110.268 378.415 110.818H377.137ZM383.996 119.17C383.208 119.17 382.528 118.996 381.956 118.648C381.388 118.297 380.949 117.807 380.64 117.178C380.335 116.546 380.182 115.811 380.182 114.973C380.182 114.135 380.335 113.396 380.64 112.757C380.949 112.114 381.379 111.614 381.929 111.255C382.483 110.893 383.13 110.712 383.868 110.712C384.294 110.712 384.715 110.783 385.131 110.925C385.546 111.067 385.924 111.298 386.265 111.617C386.606 111.933 386.878 112.352 387.08 112.874C387.283 113.396 387.384 114.039 387.384 114.803V115.335H381.077V114.249H386.105C386.105 113.787 386.013 113.375 385.828 113.013C385.647 112.651 385.388 112.365 385.051 112.155C384.717 111.946 384.323 111.841 383.868 111.841C383.367 111.841 382.934 111.965 382.568 112.214C382.206 112.459 381.927 112.778 381.732 113.173C381.537 113.567 381.439 113.989 381.439 114.44V115.165C381.439 115.783 381.546 116.306 381.759 116.736C381.975 117.162 382.275 117.487 382.659 117.711C383.043 117.931 383.488 118.041 383.996 118.041C384.326 118.041 384.625 117.995 384.891 117.903C385.161 117.807 385.393 117.665 385.589 117.477C385.784 117.285 385.935 117.047 386.041 116.763L387.256 117.104C387.128 117.516 386.913 117.878 386.611 118.19C386.31 118.499 385.937 118.741 385.493 118.915C385.049 119.085 384.55 119.17 383.996 119.17ZM389.296 119V110.818H390.511V112.097H390.617C390.788 111.66 391.063 111.321 391.443 111.079C391.823 110.834 392.279 110.712 392.812 110.712C393.351 110.712 393.801 110.834 394.159 111.079C394.522 111.321 394.804 111.66 395.006 112.097H395.092C395.301 111.674 395.615 111.338 396.034 111.09C396.453 110.838 396.956 110.712 397.542 110.712C398.273 110.712 398.872 110.941 399.337 111.399C399.802 111.853 400.035 112.562 400.035 113.524V119H398.778V113.524C398.778 112.92 398.612 112.489 398.282 112.23C397.952 111.971 397.563 111.841 397.116 111.841C396.54 111.841 396.095 112.015 395.779 112.363C395.463 112.707 395.305 113.144 395.305 113.673V119H394.026V113.396C394.026 112.931 393.875 112.556 393.573 112.272C393.272 111.985 392.883 111.841 392.407 111.841C392.08 111.841 391.775 111.928 391.491 112.102C391.21 112.276 390.983 112.517 390.809 112.826C390.638 113.132 390.553 113.485 390.553 113.886V119H389.296ZM402.333 119V110.818H403.59V119H402.333ZM402.972 109.455C402.727 109.455 402.516 109.371 402.339 109.204C402.165 109.037 402.078 108.837 402.078 108.602C402.078 108.368 402.165 108.167 402.339 108C402.516 107.833 402.727 107.75 402.972 107.75C403.217 107.75 403.427 107.833 403.601 108C403.778 108.167 403.867 108.368 403.867 108.602C403.867 108.837 403.778 109.037 403.601 109.204C403.427 109.371 403.217 109.455 402.972 109.455ZM407.15 108.091V119H405.893V108.091H407.15ZM410.709 108.091V119H409.452V108.091H410.709ZM415.42 119.192C414.901 119.192 414.431 119.094 414.008 118.899C413.585 118.7 413.25 118.414 413.001 118.041C412.753 117.665 412.628 117.21 412.628 116.678C412.628 116.209 412.721 115.829 412.905 115.538C413.09 115.243 413.337 115.012 413.646 114.845C413.955 114.678 414.296 114.554 414.669 114.472C415.045 114.387 415.423 114.32 415.803 114.27C416.3 114.206 416.703 114.158 417.012 114.126C417.325 114.091 417.552 114.032 417.694 113.95C417.84 113.869 417.912 113.727 417.912 113.524V113.482C417.912 112.956 417.769 112.548 417.481 112.256C417.197 111.965 416.765 111.82 416.187 111.82C415.586 111.82 415.116 111.951 414.775 112.214C414.434 112.477 414.194 112.757 414.056 113.055L412.863 112.629C413.076 112.132 413.36 111.745 413.715 111.468C414.074 111.187 414.464 110.992 414.887 110.882C415.313 110.768 415.732 110.712 416.144 110.712C416.407 110.712 416.709 110.744 417.05 110.808C417.394 110.868 417.726 110.994 418.046 111.186C418.369 111.377 418.637 111.667 418.85 112.054C419.063 112.441 419.17 112.96 419.17 113.609V119H417.912V117.892H417.849C417.763 118.07 417.621 118.26 417.422 118.462C417.224 118.664 416.959 118.837 416.629 118.979C416.298 119.121 415.895 119.192 415.42 119.192ZM415.611 118.062C416.108 118.062 416.528 117.965 416.868 117.77C417.213 117.574 417.472 117.322 417.646 117.013C417.824 116.704 417.912 116.379 417.912 116.038V114.888C417.859 114.952 417.742 115.01 417.561 115.064C417.383 115.113 417.177 115.158 416.943 115.197C416.712 115.232 416.487 115.264 416.267 115.293C416.05 115.317 415.874 115.339 415.739 115.357C415.412 115.399 415.107 115.468 414.823 115.564C414.542 115.657 414.315 115.797 414.141 115.985C413.971 116.17 413.885 116.422 413.885 116.741C413.885 117.178 414.047 117.509 414.37 117.732C414.697 117.952 415.111 118.062 415.611 118.062ZM427.259 112.651L426.13 112.97C426.059 112.782 425.954 112.599 425.816 112.422C425.681 112.24 425.496 112.091 425.262 111.974C425.028 111.857 424.728 111.798 424.362 111.798C423.861 111.798 423.444 111.914 423.11 112.145C422.78 112.372 422.615 112.661 422.615 113.013C422.615 113.325 422.728 113.572 422.956 113.753C423.183 113.934 423.538 114.085 424.021 114.206L425.235 114.504C425.967 114.682 426.512 114.953 426.871 115.319C427.229 115.681 427.409 116.148 427.409 116.72C427.409 117.189 427.274 117.608 427.004 117.977C426.737 118.347 426.365 118.638 425.885 118.851C425.406 119.064 424.848 119.17 424.213 119.17C423.378 119.17 422.687 118.989 422.141 118.627C421.594 118.265 421.247 117.736 421.102 117.04L422.295 116.741C422.409 117.182 422.623 117.512 422.94 117.732C423.259 117.952 423.676 118.062 424.191 118.062C424.777 118.062 425.242 117.938 425.587 117.69C425.935 117.437 426.109 117.136 426.109 116.784C426.109 116.5 426.009 116.262 425.811 116.07C425.612 115.875 425.306 115.729 424.894 115.634L423.531 115.314C422.782 115.136 422.231 114.861 421.88 114.488C421.532 114.112 421.358 113.641 421.358 113.077C421.358 112.615 421.487 112.207 421.746 111.852C422.009 111.496 422.366 111.218 422.817 111.015C423.272 110.813 423.786 110.712 424.362 110.712C425.171 110.712 425.807 110.889 426.269 111.244C426.734 111.599 427.064 112.068 427.259 112.651Z" fill="black"/>
<defs>
<clipPath id="clip0_40_17">
<rect width="153" height="151" fill="white"/>
</clipPath>
<clipPath id="clip1_40_17">
<rect width="67" height="67" fill="white" transform="translate(214 24)"/>
</clipPath>
</defs>
</svg>
