<svg width="475" height="151" viewBox="0 0 475 151" fill="none" xmlns="http://www.w3.org/2000/svg">
<path d="M38.3807 111.5H37.0597C36.9815 111.12 36.8448 110.786 36.6495 110.499C36.4577 110.211 36.2234 109.969 35.9464 109.774C35.6729 109.575 35.3693 109.426 35.0355 109.327C34.7017 109.227 34.3537 109.178 33.9915 109.178C33.331 109.178 32.7326 109.344 32.1964 109.678C31.6637 110.012 31.2393 110.504 30.9233 111.154C30.6108 111.804 30.4545 112.601 30.4545 113.545C30.4545 114.49 30.6108 115.287 30.9233 115.937C31.2393 116.587 31.6637 117.079 32.1964 117.413C32.7326 117.746 33.331 117.913 33.9915 117.913C34.3537 117.913 34.7017 117.864 35.0355 117.764C35.3693 117.665 35.6729 117.517 35.9464 117.322C36.2234 117.123 36.4577 116.88 36.6495 116.592C36.8448 116.301 36.9815 115.967 37.0597 115.591H38.3807C38.2813 116.148 38.1001 116.647 37.8374 117.088C37.5746 117.528 37.2479 117.903 36.8572 118.212C36.4666 118.517 36.0281 118.75 35.5415 118.909C35.0586 119.069 34.5419 119.149 33.9915 119.149C33.0611 119.149 32.2337 118.922 31.5092 118.467C30.7848 118.013 30.2148 117.366 29.7994 116.528C29.3839 115.69 29.1761 114.696 29.1761 113.545C29.1761 112.395 29.3839 111.401 29.7994 110.562C30.2148 109.724 30.7848 109.078 31.5092 108.624C32.2337 108.169 33.0611 107.942 33.9915 107.942C34.5419 107.942 35.0586 108.022 35.5415 108.181C36.0281 108.341 36.4666 108.576 36.8572 108.885C37.2479 109.19 37.5746 109.563 37.8374 110.003C38.1001 110.44 38.2813 110.939 38.3807 111.5ZM42.7526 119.192C42.2341 119.192 41.7636 119.094 41.341 118.899C40.9184 118.7 40.5828 118.414 40.3343 118.041C40.0857 117.665 39.9614 117.21 39.9614 116.678C39.9614 116.209 40.0537 115.829 40.2384 115.538C40.423 115.243 40.6698 115.012 40.9788 114.845C41.2877 114.678 41.6286 114.554 42.0015 114.472C42.3779 114.387 42.7561 114.32 43.1361 114.27C43.6333 114.206 44.0363 114.158 44.3453 114.126C44.6578 114.091 44.885 114.032 45.0271 113.95C45.1727 113.869 45.2455 113.727 45.2455 113.524V113.482C45.2455 112.956 45.1017 112.548 44.814 112.256C44.5299 111.965 44.0985 111.82 43.5196 111.82C42.9195 111.82 42.449 111.951 42.108 112.214C41.7671 112.477 41.5274 112.757 41.3889 113.055L40.1958 112.629C40.4088 112.132 40.6929 111.745 41.048 111.468C41.4067 111.187 41.7973 110.992 42.2199 110.882C42.646 110.768 43.0651 110.712 43.477 110.712C43.7398 110.712 44.0416 110.744 44.3825 110.808C44.727 110.868 45.059 110.994 45.3786 111.186C45.7018 111.377 45.9699 111.667 46.183 112.054C46.396 112.441 46.5026 112.96 46.5026 113.609V119H45.2455V117.892H45.1816C45.0963 118.07 44.9543 118.26 44.7554 118.462C44.5566 118.664 44.292 118.837 43.9617 118.979C43.6315 119.121 43.2284 119.192 42.7526 119.192ZM42.9443 118.062C43.4415 118.062 43.8605 117.965 44.2014 117.77C44.5459 117.574 44.8051 117.322 44.9791 117.013C45.1567 116.704 45.2455 116.379 45.2455 116.038V114.888C45.1922 114.952 45.075 115.01 44.8939 115.064C44.7164 115.113 44.5104 115.158 44.276 115.197C44.0452 115.232 43.8197 115.264 43.5995 115.293C43.3829 115.317 43.2071 115.339 43.0722 115.357C42.7455 115.399 42.4401 115.468 42.156 115.564C41.8754 115.657 41.6482 115.797 41.4742 115.985C41.3037 116.17 41.2185 116.422 41.2185 116.741C41.2185 117.178 41.3801 117.509 41.7032 117.732C42.0299 117.952 42.4436 118.062 42.9443 118.062ZM48.7971 119V110.818H50.0115V112.054H50.0968C50.2459 111.649 50.5158 111.321 50.9064 111.069C51.2971 110.816 51.7374 110.69 52.2275 110.69C52.3198 110.69 52.4352 110.692 52.5737 110.696C52.7122 110.699 52.8169 110.705 52.888 110.712V111.99C52.8453 111.979 52.7477 111.963 52.595 111.942C52.4458 111.917 52.2878 111.905 52.1209 111.905C51.7232 111.905 51.3681 111.988 51.0556 112.155C50.7466 112.319 50.5016 112.546 50.3205 112.837C50.1429 113.125 50.0542 113.453 50.0542 113.822V119H48.7971ZM57.4316 122.239C56.8244 122.239 56.3024 122.161 55.8656 122.004C55.4288 121.852 55.0648 121.649 54.7736 121.397C54.486 121.148 54.2569 120.882 54.0865 120.598L55.0879 119.895C55.2015 120.044 55.3453 120.214 55.5194 120.406C55.6934 120.602 55.9313 120.77 56.2331 120.912C56.5385 121.058 56.938 121.131 57.4316 121.131C58.0922 121.131 58.6373 120.971 59.0669 120.651C59.4966 120.332 59.7115 119.831 59.7115 119.149V117.487H59.6049C59.5126 117.636 59.3812 117.821 59.2108 118.041C59.0439 118.258 58.8024 118.451 58.4863 118.622C58.1738 118.789 57.7512 118.872 57.2186 118.872C56.5581 118.872 55.965 118.716 55.4395 118.403C54.9174 118.091 54.5037 117.636 54.1983 117.04C53.8965 116.443 53.7456 115.719 53.7456 114.866C53.7456 114.028 53.8929 113.299 54.1877 112.677C54.4824 112.052 54.8926 111.569 55.4181 111.228C55.9437 110.884 56.551 110.712 57.2399 110.712C57.7725 110.712 58.1951 110.8 58.5076 110.978C58.8237 111.152 59.0652 111.351 59.2321 111.575C59.4025 111.795 59.5339 111.976 59.6262 112.118H59.7541V110.818H60.9686V119.234C60.9686 119.938 60.8088 120.509 60.4892 120.95C60.1731 121.393 59.747 121.718 59.2108 121.924C58.6781 122.134 58.085 122.239 57.4316 122.239ZM57.389 117.743C57.8933 117.743 58.3194 117.627 58.6674 117.397C59.0154 117.166 59.28 116.834 59.4611 116.401C59.6422 115.967 59.7328 115.449 59.7328 114.845C59.7328 114.256 59.644 113.735 59.4664 113.284C59.2889 112.833 59.0261 112.48 58.6781 112.224C58.3301 111.969 57.9004 111.841 57.389 111.841C56.8564 111.841 56.4125 111.976 56.0574 112.246C55.7058 112.516 55.4412 112.878 55.2637 113.332C55.0897 113.787 55.0027 114.291 55.0027 114.845C55.0027 115.413 55.0914 115.916 55.269 116.353C55.4501 116.786 55.7164 117.127 56.068 117.375C56.4231 117.62 56.8635 117.743 57.389 117.743ZM65.6774 119.192C65.1589 119.192 64.6884 119.094 64.2658 118.899C63.8432 118.7 63.5076 118.414 63.2591 118.041C63.0105 117.665 62.8862 117.21 62.8862 116.678C62.8862 116.209 62.9785 115.829 63.1632 115.538C63.3478 115.243 63.5946 115.012 63.9036 114.845C64.2125 114.678 64.5534 114.554 64.9263 114.472C65.3027 114.387 65.6809 114.32 66.0609 114.27C66.5581 114.206 66.9611 114.158 67.2701 114.126C67.5826 114.091 67.8098 114.032 67.9519 113.95C68.0975 113.869 68.1703 113.727 68.1703 113.524V113.482C68.1703 112.956 68.0265 112.548 67.7388 112.256C67.4547 111.965 67.0233 111.82 66.4444 111.82C65.8443 111.82 65.3738 111.951 65.0328 112.214C64.6919 112.477 64.4522 112.757 64.3137 113.055L63.1206 112.629C63.3336 112.132 63.6177 111.745 63.9728 111.468C64.3315 111.187 64.7221 110.992 65.1447 110.882C65.5708 110.768 65.9899 110.712 66.4018 110.712C66.6646 110.712 66.9664 110.744 67.3074 110.808C67.6518 110.868 67.9838 110.994 68.3034 111.186C68.6266 111.377 68.8947 111.667 69.1078 112.054C69.3208 112.441 69.4274 112.96 69.4274 113.609V119H68.1703V117.892H68.1064C68.0211 118.07 67.8791 118.26 67.6802 118.462C67.4814 118.664 67.2168 118.837 66.8865 118.979C66.5563 119.121 66.1532 119.192 65.6774 119.192ZM65.8691 118.062C66.3663 118.062 66.7853 117.965 67.1262 117.77C67.4707 117.574 67.7299 117.322 67.9039 117.013C68.0815 116.704 68.1703 116.379 68.1703 116.038V114.888C68.117 114.952 67.9998 115.01 67.8187 115.064C67.6412 115.113 67.4352 115.158 67.2008 115.197C66.97 115.232 66.7445 115.264 66.5243 115.293C66.3077 115.317 66.1319 115.339 65.997 115.357C65.6703 115.399 65.3649 115.468 65.0808 115.564C64.8002 115.657 64.573 115.797 64.399 115.985C64.2285 116.17 64.1433 116.422 64.1433 116.741C64.1433 117.178 64.3049 117.509 64.628 117.732C64.9547 117.952 65.3684 118.062 65.8691 118.062ZM75.9406 122.068V110.818H77.1551V112.118H77.3042C77.3966 111.976 77.5244 111.795 77.6878 111.575C77.8547 111.351 78.0926 111.152 78.4015 110.978C78.714 110.8 79.1366 110.712 79.6693 110.712C80.3582 110.712 80.9655 110.884 81.491 111.228C82.0166 111.573 82.4268 112.061 82.7215 112.693C83.0162 113.325 83.1636 114.071 83.1636 114.93C83.1636 115.797 83.0162 116.548 82.7215 117.184C82.4268 117.816 82.0184 118.306 81.4964 118.654C80.9743 118.998 80.3724 119.17 79.6906 119.17C79.165 119.17 78.7442 119.083 78.4282 118.909C78.1121 118.732 77.8689 118.531 77.6984 118.308C77.528 118.08 77.3966 117.892 77.3042 117.743H77.1977V122.068H75.9406ZM77.1764 114.909C77.1764 115.527 77.267 116.072 77.4481 116.544C77.6292 117.013 77.8937 117.381 78.2417 117.647C78.5898 117.91 79.0159 118.041 79.5202 118.041C80.0457 118.041 80.4843 117.903 80.8358 117.626C81.191 117.345 81.4573 116.969 81.6349 116.496C81.816 116.021 81.9065 115.491 81.9065 114.909C81.9065 114.334 81.8177 113.815 81.6402 113.354C81.4662 112.888 81.2016 112.521 80.8465 112.251C80.4949 111.978 80.0528 111.841 79.5202 111.841C79.0088 111.841 78.5791 111.971 78.2311 112.23C77.8831 112.485 77.6203 112.844 77.4427 113.306C77.2652 113.764 77.1764 114.298 77.1764 114.909ZM88.5116 119.17C87.7233 119.17 87.0432 118.996 86.4715 118.648C85.9033 118.297 85.4648 117.807 85.1558 117.178C84.8504 116.546 84.6977 115.811 84.6977 114.973C84.6977 114.135 84.8504 113.396 85.1558 112.757C85.4648 112.114 85.8944 111.614 86.4449 111.255C86.9988 110.893 87.6452 110.712 88.3838 110.712C88.8099 110.712 89.2307 110.783 89.6462 110.925C90.0617 111.067 90.4399 111.298 90.7808 111.617C91.1217 111.933 91.3934 112.352 91.5958 112.874C91.7982 113.396 91.8994 114.039 91.8994 114.803V115.335H85.5926V114.249H90.621C90.621 113.787 90.5287 113.375 90.344 113.013C90.1629 112.651 89.9037 112.365 89.5663 112.155C89.2325 111.946 88.8383 111.841 88.3838 111.841C87.8831 111.841 87.4498 111.965 87.0841 112.214C86.7219 112.459 86.4431 112.778 86.2478 113.173C86.0525 113.567 85.9548 113.989 85.9548 114.44V115.165C85.9548 115.783 86.0613 116.306 86.2744 116.736C86.491 117.162 86.7911 117.487 87.1746 117.711C87.5582 117.931 88.0038 118.041 88.5116 118.041C88.8419 118.041 89.1402 117.995 89.4065 117.903C89.6764 117.807 89.909 117.665 90.1043 117.477C90.2996 117.285 90.4506 117.047 90.5571 116.763L91.7716 117.104C91.6437 117.516 91.4289 117.878 91.127 118.19C90.8252 118.499 90.4523 118.741 90.0084 118.915C89.5645 119.085 89.0656 119.17 88.5116 119.17ZM99.6072 112.651L98.4779 112.97C98.4069 112.782 98.3021 112.599 98.1636 112.422C98.0287 112.24 97.844 112.091 97.6096 111.974C97.3753 111.857 97.0752 111.798 96.7094 111.798C96.2087 111.798 95.7915 111.914 95.4577 112.145C95.1274 112.372 94.9623 112.661 94.9623 113.013C94.9623 113.325 95.0759 113.572 95.3032 113.753C95.5305 113.934 95.8856 114.085 96.3685 114.206L97.583 114.504C98.3145 114.682 98.8596 114.953 99.2183 115.319C99.577 115.681 99.7563 116.148 99.7563 116.72C99.7563 117.189 99.6214 117.608 99.3515 117.977C99.0851 118.347 98.7123 118.638 98.2329 118.851C97.7535 119.064 97.1959 119.17 96.5603 119.17C95.7258 119.17 95.0351 118.989 94.4882 118.627C93.9413 118.265 93.5951 117.736 93.4495 117.04L94.6427 116.741C94.7563 117.182 94.9711 117.512 95.2872 117.732C95.6068 117.952 96.0241 118.062 96.539 118.062C97.1249 118.062 97.5901 117.938 97.9346 117.69C98.2826 117.437 98.4566 117.136 98.4566 116.784C98.4566 116.5 98.3572 116.262 98.1583 116.07C97.9594 115.875 97.654 115.729 97.2421 115.634L95.8785 115.314C95.1292 115.136 94.5787 114.861 94.2272 114.488C93.8792 114.112 93.7052 113.641 93.7052 113.077C93.7052 112.615 93.8348 112.207 94.094 111.852C94.3568 111.496 94.7137 111.218 95.1647 111.015C95.6192 110.813 96.1341 110.712 96.7094 110.712C97.5191 110.712 98.1547 110.889 98.6164 111.244C99.0816 111.599 99.4118 112.068 99.6072 112.651ZM104.056 119.192C103.538 119.192 103.067 119.094 102.645 118.899C102.222 118.7 101.887 118.414 101.638 118.041C101.389 117.665 101.265 117.21 101.265 116.678C101.265 116.209 101.357 115.829 101.542 115.538C101.727 115.243 101.974 115.012 102.282 114.845C102.591 114.678 102.932 114.554 103.305 114.472C103.682 114.387 104.06 114.32 104.44 114.27C104.937 114.206 105.34 114.158 105.649 114.126C105.961 114.091 106.189 114.032 106.331 113.95C106.476 113.869 106.549 113.727 106.549 113.524V113.482C106.549 112.956 106.405 112.548 106.118 112.256C105.834 111.965 105.402 111.82 104.823 111.82C104.223 111.82 103.753 111.951 103.412 112.214C103.071 112.477 102.831 112.757 102.693 113.055L101.499 112.629C101.713 112.132 101.997 111.745 102.352 111.468C102.71 111.187 103.101 110.992 103.524 110.882C103.95 110.768 104.369 110.712 104.781 110.712C105.044 110.712 105.345 110.744 105.686 110.808C106.031 110.868 106.363 110.994 106.682 111.186C107.006 111.377 107.274 111.667 107.487 112.054C107.7 112.441 107.806 112.96 107.806 113.609V119H106.549V117.892H106.485C106.4 118.07 106.258 118.26 106.059 118.462C105.86 118.664 105.596 118.837 105.265 118.979C104.935 119.121 104.532 119.192 104.056 119.192ZM104.248 118.062C104.745 118.062 105.164 117.965 105.505 117.77C105.85 117.574 106.109 117.322 106.283 117.013C106.46 116.704 106.549 116.379 106.549 116.038V114.888C106.496 114.952 106.379 115.01 106.198 115.064C106.02 115.113 105.814 115.158 105.58 115.197C105.349 115.232 105.123 115.264 104.903 115.293C104.687 115.317 104.511 115.339 104.376 115.357C104.049 115.399 103.744 115.468 103.46 115.564C103.179 115.657 102.952 115.797 102.778 115.985C102.607 116.17 102.522 116.422 102.522 116.741C102.522 117.178 102.684 117.509 103.007 117.732C103.334 117.952 103.747 118.062 104.248 118.062ZM113.19 119.17C112.508 119.17 111.907 118.998 111.384 118.654C110.862 118.306 110.454 117.816 110.159 117.184C109.865 116.548 109.717 115.797 109.717 114.93C109.717 114.071 109.865 113.325 110.159 112.693C110.454 112.061 110.864 111.573 111.39 111.228C111.915 110.884 112.523 110.712 113.212 110.712C113.744 110.712 114.165 110.8 114.474 110.978C114.786 111.152 115.024 111.351 115.188 111.575C115.355 111.795 115.484 111.976 115.577 112.118H115.683V108.091H116.94V119H115.726V117.743H115.577C115.484 117.892 115.353 118.08 115.182 118.308C115.012 118.531 114.769 118.732 114.453 118.909C114.137 119.083 113.716 119.17 113.19 119.17ZM113.361 118.041C113.865 118.041 114.291 117.91 114.639 117.647C114.987 117.381 115.252 117.013 115.433 116.544C115.614 116.072 115.704 115.527 115.704 114.909C115.704 114.298 115.616 113.764 115.438 113.306C115.261 112.844 114.998 112.485 114.65 112.23C114.302 111.971 113.872 111.841 113.361 111.841C112.828 111.841 112.384 111.978 112.029 112.251C111.677 112.521 111.413 112.888 111.235 113.354C111.061 113.815 110.974 114.334 110.974 114.909C110.974 115.491 111.063 116.021 111.241 116.496C111.422 116.969 111.688 117.345 112.04 117.626C112.395 117.903 112.835 118.041 113.361 118.041ZM121.825 119.192C121.306 119.192 120.836 119.094 120.413 118.899C119.991 118.7 119.655 118.414 119.407 118.041C119.158 117.665 119.034 117.21 119.034 116.678C119.034 116.209 119.126 115.829 119.311 115.538C119.495 115.243 119.742 115.012 120.051 114.845C120.36 114.678 120.701 114.554 121.074 114.472C121.45 114.387 121.828 114.32 122.208 114.27C122.706 114.206 123.109 114.158 123.418 114.126C123.73 114.091 123.957 114.032 124.099 113.95C124.245 113.869 124.318 113.727 124.318 113.524V113.482C124.318 112.956 124.174 112.548 123.886 112.256C123.602 111.965 123.171 111.82 122.592 111.82C121.992 111.82 121.521 111.951 121.18 112.214C120.839 112.477 120.6 112.757 120.461 113.055L119.268 112.629C119.481 112.132 119.765 111.745 120.12 111.468C120.479 111.187 120.87 110.992 121.292 110.882C121.718 110.768 122.137 110.712 122.549 110.712C122.812 110.712 123.114 110.744 123.455 110.808C123.799 110.868 124.131 110.994 124.451 111.186C124.774 111.377 125.042 111.667 125.255 112.054C125.468 112.441 125.575 112.96 125.575 113.609V119H124.318V117.892H124.254C124.169 118.07 124.027 118.26 123.828 118.462C123.629 118.664 123.364 118.837 123.034 118.979C122.704 119.121 122.301 119.192 121.825 119.192ZM122.017 118.062C122.514 118.062 122.933 117.965 123.274 117.77C123.618 117.574 123.877 117.322 124.051 117.013C124.229 116.704 124.318 116.379 124.318 116.038V114.888C124.264 114.952 124.147 115.01 123.966 115.064C123.789 115.113 123.583 115.158 123.348 115.197C123.117 115.232 122.892 115.264 122.672 115.293C122.455 115.317 122.279 115.339 122.144 115.357C121.818 115.399 121.512 115.468 121.228 115.564C120.948 115.657 120.72 115.797 120.546 115.985C120.376 116.17 120.291 116.422 120.291 116.741C120.291 117.178 120.452 117.509 120.775 117.732C121.102 117.952 121.516 118.062 122.017 118.062Z" fill="black"/>
<path d="M134.687 76.7074C134.227 77.9759 133.301 78.4715 131.985 78.4066C130.994 78.3594 130.003 78.3948 128.958 78.3948C128.498 81.0144 127.218 83.0971 124.988 84.5249C123.383 85.5515 121.607 85.9645 119.707 85.7934C116.385 85.5043 112.851 83.0558 112.008 78.442H96.7384C95.9301 82.2239 93.7766 84.8671 89.8826 85.6341C85.9768 86.4011 82.9678 84.814 80.8969 81.6516C79.9942 82.5366 79.1859 83.5573 78.1652 84.283C73.1915 87.823 66.1587 84.9497 64.9905 78.9435C64.9079 78.5305 64.7722 78.3594 64.3592 78.2532C62.9609 77.8992 62.0346 76.7133 61.9933 75.2501C61.9638 74.2117 61.9697 73.1674 61.9874 72.129C62.0169 70.2941 63.132 69.0551 64.9433 68.8368C65.2678 68.7955 65.6041 68.7955 65.9345 68.7955C76.0412 68.7955 86.142 68.7955 96.2487 68.7955H97.2222C97.2399 68.4828 97.2635 68.235 97.2635 67.9813C97.2635 58.087 97.2635 48.1986 97.2635 38.3043C97.2635 36.6051 96.821 35.9561 95.2103 35.313C94.3017 34.9531 93.7766 34.3218 93.7412 33.3424C93.7117 32.4928 93.6881 31.6373 93.7766 30.7936C93.8887 29.6608 94.9861 28.8702 96.113 29.0177C99.9539 29.5133 103.293 33.0415 103.594 36.9119C103.618 37.1892 103.641 37.4665 103.671 37.791C104.538 37.791 105.335 37.791 106.137 37.791C110.597 37.8028 113.878 40.4342 114.869 44.8002C114.893 44.9123 114.928 45.0303 114.969 45.1719C115.713 45.2368 116.48 45.2191 117.206 45.3902C119.483 45.9212 120.822 47.4139 121.33 49.6736C121.949 52.4171 122.563 55.1606 123.182 57.9041C123.223 58.087 123.277 58.2699 123.347 58.5236C123.884 58.5236 124.415 58.5236 124.952 58.5236C126.539 58.5236 128.126 58.4941 129.708 58.5413C131.702 58.6003 133.33 60.0812 133.395 62.0518C133.495 65.1021 133.46 68.1524 133.46 71.2086C133.46 71.7927 133.472 72.2942 134.038 72.6777C134.321 72.8724 134.463 73.2736 134.675 73.5863V76.7074H134.687ZM131.265 72.0051C131.301 71.8458 131.342 71.7573 131.342 71.6688C131.342 68.5949 131.366 65.5151 131.33 62.4412C131.318 61.3379 130.569 60.6653 129.454 60.6535C127.277 60.6417 125.1 60.6535 122.923 60.6535C121.849 60.6535 121.572 60.4116 121.33 59.3496C120.628 56.2167 119.925 53.0779 119.206 49.9509C118.852 48.4346 117.825 47.5496 116.273 47.408C115.666 47.349 115.046 47.3785 114.432 47.3726C113.241 47.3608 112.91 47.0953 112.845 45.8917C112.68 42.8119 110.167 40.151 107.004 39.9917C104.526 39.8678 102.043 39.9622 99.5586 39.9622C99.5232 39.9622 99.4878 40.0153 99.4642 40.033V45.2427H100.361C103.27 45.2427 106.178 45.2427 109.093 45.2427C109.353 45.2427 109.612 45.2545 109.866 45.3017C110.438 45.402 110.739 45.7678 110.721 46.3401C110.71 46.9124 110.397 47.2664 109.819 47.3431C109.565 47.3785 109.299 47.3785 109.04 47.3785C106.131 47.3785 103.222 47.3785 100.308 47.3785C100.031 47.3785 99.7533 47.3785 99.3993 47.3785V48.3815C99.3993 55.2668 99.3993 62.1521 99.3993 69.0374C99.3993 69.2498 99.4052 69.4622 99.3993 69.6746C99.3521 70.5596 99.0099 70.9077 98.1249 70.9254C97.2517 70.9431 96.3726 70.9254 95.4994 70.9254C95.0215 70.9254 94.5436 70.9254 93.9831 70.9254C94.0952 71.1083 94.1188 71.1732 94.166 71.2204C95.4758 72.5243 96.3077 74.0819 96.6617 75.8991C96.6912 76.0525 97.0098 76.2472 97.1986 76.2531C101.978 76.2708 106.757 76.2649 111.536 76.2767C111.913 76.2767 112.031 76.1528 112.137 75.7811C112.379 74.9197 112.609 74.0288 113.04 73.2618C115.949 68.0639 122.716 67.2851 126.811 71.6393C126.946 71.7868 127.135 71.9874 127.306 71.9933C128.622 72.0228 129.944 72.011 131.265 72.011V72.0051ZM73.2387 83.693C76.7433 83.7756 79.6756 80.92 79.7287 77.38C79.7818 73.9226 76.9734 71.067 73.4157 70.9431C70.0173 70.8251 67.0496 73.722 66.9611 77.2384C66.8726 80.6899 69.7105 83.6163 73.2387 83.693ZM88.2483 83.693C91.747 83.693 94.6203 80.8433 94.638 77.3446C94.6557 73.8577 91.6821 70.8841 88.2188 70.9372C84.7142 70.9903 81.8527 73.8695 81.8645 77.3387C81.8763 80.8315 84.7496 83.693 88.2483 83.693ZM120.521 83.693C124.026 83.6635 126.893 80.7784 126.87 77.3092C126.846 73.8341 123.943 70.9372 120.486 70.9372C116.987 70.9372 114.055 73.899 114.102 77.3741C114.155 80.8846 117.034 83.7166 120.521 83.693ZM101.423 37.7615C101.736 34.8056 98.9863 31.5547 95.8593 31.2125C95.8593 31.6845 95.8888 32.1565 95.8534 32.6226C95.818 33.1182 95.9891 33.3542 96.4788 33.5371C98.0364 34.1271 98.945 35.3071 99.3049 36.9119C99.3639 37.1833 99.3816 37.4606 99.4229 37.7615H101.423ZM67.7222 70.9313C66.7605 70.9313 66.023 70.9077 65.2973 70.9372C64.5657 70.9726 64.1527 71.3384 64.1291 72.011C64.0937 73.073 64.0996 74.1409 64.1291 75.2029C64.1409 75.6572 64.3238 76.0584 64.9079 76.1233C65.2383 74.1173 66.1528 72.4535 67.7222 70.9313ZM132.51 76.2708V74.1881H128.457C128.604 74.8017 128.722 75.374 128.887 75.9345C128.929 76.0702 129.118 76.2531 129.247 76.2531C130.327 76.2767 131.407 76.2649 132.516 76.2649L132.51 76.2708ZM82.4722 70.9962H79.1092C79.7051 71.7455 80.2538 72.4358 80.7966 73.1143C81.3512 72.4122 81.894 71.7219 82.4722 70.9962Z" fill="#424242"/>
<path d="M105.069 72.011C105.069 71.5862 105.069 71.2794 105.069 70.9726C105.069 64.3941 105.069 57.8156 105.069 51.2371C105.069 49.7621 105.335 49.4907 106.804 49.4907C109.807 49.4907 112.816 49.4907 115.819 49.4907C116.969 49.4907 117.241 49.709 117.483 50.8005C118.084 53.4732 118.686 56.1459 119.288 58.8186C119.589 60.1402 119.194 60.6417 117.843 60.6417C114.58 60.6417 111.311 60.6417 108.049 60.6417H107.24V71.9992C107.7 71.9992 108.143 72.0405 108.574 71.9815C108.757 71.9579 108.981 71.7632 109.075 71.5862C110.721 68.4415 113.205 66.2821 116.586 65.1729C116.922 65.0608 117.105 64.9015 117.064 64.518C117.034 64.2643 117.046 63.9988 117.076 63.7392C117.14 63.1669 117.471 62.8306 118.043 62.7893C118.615 62.748 119.058 63.0489 119.105 63.6094C119.182 64.4295 119.182 65.2614 119.105 66.0756C119.046 66.7305 118.433 66.8721 117.902 67.0078C115.471 67.6214 113.5 68.943 112.002 70.9372C111.482 71.6275 111.075 72.4181 110.698 73.2028C110.379 73.8636 109.931 74.1468 109.199 74.1409C106.668 74.1173 104.137 74.135 101.606 74.1291C101.417 74.1291 101.222 74.1291 101.039 74.0937C100.455 73.9639 100.113 73.6158 100.148 72.9963C100.184 72.3827 100.556 72.0346 101.157 72.0169C102.172 71.9874 103.193 72.0051 104.208 71.9992C104.461 71.9992 104.715 71.9992 105.069 71.9992V72.011ZM107.24 58.4646H117.017C116.497 56.1459 115.99 53.9039 115.488 51.6737H107.24V58.4646Z" fill="#424242"/>
<path d="M73.6456 81.5572C70.7074 81.5808 68.7014 79.2031 69.1793 76.5894C69.315 75.8342 69.7162 75.4861 70.3534 75.5451C71.0024 75.61 71.321 76.0761 71.2561 76.8903C71.1381 78.4184 72.029 79.4627 73.4096 79.4332C74.4716 79.4096 75.3448 78.6013 75.4569 77.5393C75.569 76.5304 74.8905 75.5451 73.8993 75.2855C73.6928 75.2324 73.4804 75.2088 73.2739 75.1675C72.5836 75.0318 72.2473 74.6188 72.3181 73.9993C72.383 73.4093 72.855 73.0435 73.5335 73.0848C74.9495 73.1674 76.0882 73.7869 76.8611 74.961C77.7638 76.3298 77.8641 77.8048 77.0971 79.268C76.3183 80.7607 75.038 81.4923 73.6338 81.5572H73.6456Z" fill="#424242"/>
<path d="M88.5195 81.5631C85.599 81.5749 83.6048 79.1913 84.0945 76.5717C84.2302 75.8283 84.6432 75.4743 85.2804 75.551C85.9058 75.6218 86.2185 76.0879 86.1713 76.8431C86.0592 78.442 86.9324 79.4804 88.3425 79.4332C89.4045 79.3978 90.2718 78.5836 90.3721 77.5216C90.4724 76.5068 89.7939 75.5392 88.7968 75.2855C88.5903 75.2324 88.3779 75.2088 88.1714 75.1675C87.4929 75.0318 87.1566 74.607 87.2392 73.9816C87.31 73.4152 87.7643 73.0494 88.4015 73.0848C89.8706 73.1615 91.0447 73.8046 91.8294 75.0436C92.7026 76.436 92.7675 77.8992 91.9769 79.3506C91.1863 80.8079 89.9119 81.5041 88.5254 81.5631H88.5195Z" fill="#424242"/>
<path d="M120.386 81.5572C117.725 81.4982 115.79 79.0497 116.344 76.4537C116.486 75.8047 116.881 75.4861 117.483 75.5451C118.073 75.6041 118.397 76.0112 118.415 76.672C118.427 77.1145 118.386 77.5806 118.504 77.9995C118.799 79.0084 119.766 79.563 120.834 79.4096C121.808 79.2739 122.575 78.4066 122.616 77.4036C122.657 76.4065 121.973 75.5097 120.988 75.2737C120.781 75.2265 120.569 75.2029 120.362 75.1616C119.731 75.0259 119.406 74.607 119.471 74.0052C119.53 73.4388 119.985 73.0494 120.61 73.0789C122.05 73.1497 123.224 73.7515 124.014 74.961C124.923 76.3534 125.017 77.8402 124.227 79.3329C123.46 80.7784 122.026 81.5985 120.392 81.5631L120.386 81.5572Z" fill="#424242"/>
<path d="M27.5196 68.8014C22.8114 68.8014 19 72.6187 19 77.321C19 82.0233 22.8173 85.8406 27.5196 85.8406C32.2219 85.8406 36.0392 82.0233 36.0392 77.321C36.0392 72.6187 32.2219 68.8014 27.5196 68.8014ZM27.555 83.6989C24.0681 83.7284 21.1889 80.8905 21.1358 77.38C21.0827 73.9049 24.0209 70.9431 27.5196 70.9431C30.9829 70.9431 33.8798 73.84 33.9034 77.3151C33.927 80.7902 31.0596 83.6753 27.555 83.6989Z" fill="#424242"/>
<path d="M27.4014 81.5631C24.7405 81.5041 22.8053 79.0556 23.3599 76.4596C23.5015 75.8106 23.8968 75.492 24.4986 75.551C25.0886 75.61 25.4131 76.0171 25.4308 76.6779C25.4426 77.1204 25.4013 77.5865 25.5193 78.0054C25.8143 79.0143 26.7819 79.5689 27.8498 79.4155C28.8233 79.2798 29.5903 78.4125 29.6316 77.4095C29.6729 76.4124 28.9885 75.5156 28.0032 75.2796C27.7967 75.2324 27.5843 75.2088 27.3778 75.1675C26.7465 75.0318 26.422 74.6129 26.4869 74.0111C26.5459 73.4447 27.0002 73.0553 27.6256 73.0848C29.0652 73.1556 30.2393 73.7574 31.0299 74.9669C31.9385 76.3593 32.0329 77.8461 31.2423 79.3388C30.4753 80.7843 29.0416 81.6044 27.4073 81.569L27.4014 81.5631Z" fill="#424242"/>
<path d="M44.5645 68.8014C39.8563 68.8014 36.0449 72.6187 36.0449 77.321C36.0449 82.0233 39.8622 85.8406 44.5645 85.8406C49.2668 85.8406 53.0841 82.0233 53.0841 77.321C53.0841 72.6187 49.2668 68.8014 44.5645 68.8014ZM44.5999 83.6989C41.113 83.7284 38.2338 80.8905 38.1807 77.38C38.1276 73.9049 41.0658 70.9431 44.5645 70.9431C48.0278 70.9431 50.9247 73.84 50.9483 77.3151C50.9719 80.7902 48.1045 83.6753 44.5999 83.6989Z" fill="#424242"/>
<path d="M44.4463 81.5513C41.7854 81.4923 39.8502 79.0438 40.4048 76.4478C40.5464 75.7988 40.9417 75.4802 41.5435 75.5392C42.1335 75.5982 42.458 76.0053 42.4757 76.6661C42.4875 77.1086 42.4462 77.5747 42.5642 77.9936C42.8592 79.0025 43.8268 79.5571 44.8947 79.4037C45.8682 79.268 46.6352 78.4007 46.6765 77.3977C46.7178 76.4006 46.0334 75.5038 45.0481 75.2678C44.8416 75.2206 44.6292 75.197 44.4227 75.1557C43.7914 75.02 43.4669 74.6011 43.5318 73.9993C43.5908 73.4329 44.0451 73.0435 44.6705 73.073C46.1101 73.1438 47.2842 73.7456 48.0748 74.9551C48.9834 76.3475 49.0778 77.8343 48.2872 79.327C47.5202 80.7725 46.0865 81.5926 44.4522 81.5572L44.4463 81.5513Z" fill="#424242"/>
<path d="M93.9772 39.9209H19V69.356H93.9772V39.9209Z" stroke="#424242" stroke-width="4" stroke-miterlimit="10"/>
<path d="M198.43 119V108.091H199.751V117.828H204.822V119H198.43ZM206.697 119V110.818H207.954V119H206.697ZM206.761 109.71L208.061 107.239H209.531L207.869 109.71H206.761ZM215.839 122.068V117.743H215.732C215.64 117.892 215.509 118.08 215.338 118.308C215.168 118.531 214.924 118.732 214.608 118.909C214.292 119.083 213.872 119.17 213.346 119.17C212.664 119.17 212.062 118.998 211.54 118.654C211.018 118.306 210.61 117.816 210.315 117.184C210.02 116.548 209.873 115.797 209.873 114.93C209.873 114.071 210.02 113.325 210.315 112.693C210.61 112.061 211.02 111.573 211.546 111.228C212.071 110.884 212.678 110.712 213.367 110.712C213.9 110.712 214.321 110.8 214.63 110.978C214.942 111.152 215.18 111.351 215.344 111.575C215.51 111.795 215.64 111.976 215.732 112.118H215.882V110.818H217.096V122.068H215.839ZM213.516 118.041C214.021 118.041 214.447 117.91 214.795 117.647C215.143 117.381 215.407 117.013 215.589 116.544C215.77 116.072 215.86 115.527 215.86 114.909C215.86 114.298 215.771 113.764 215.594 113.306C215.416 112.844 215.154 112.485 214.806 112.23C214.458 111.971 214.028 111.841 213.516 111.841C212.984 111.841 212.54 111.978 212.185 112.251C211.833 112.521 211.569 112.888 211.391 113.354C211.217 113.815 211.13 114.334 211.13 114.909C211.13 115.491 211.219 116.021 211.396 116.496C211.578 116.969 211.844 117.345 212.195 117.626C212.551 117.903 212.991 118.041 213.516 118.041ZM224.553 115.655V110.818H225.811V119H224.553V117.615H224.468C224.276 118.031 223.978 118.384 223.573 118.675C223.168 118.963 222.657 119.107 222.039 119.107C221.528 119.107 221.073 118.995 220.676 118.771C220.278 118.544 219.965 118.203 219.738 117.748C219.511 117.29 219.397 116.713 219.397 116.017V110.818H220.654V115.932C220.654 116.528 220.821 117.004 221.155 117.359C221.492 117.714 221.922 117.892 222.444 117.892C222.757 117.892 223.074 117.812 223.398 117.652C223.724 117.493 223.998 117.248 224.218 116.917C224.442 116.587 224.553 116.166 224.553 115.655ZM228.113 119V110.818H229.37V119H228.113ZM228.752 109.455C228.507 109.455 228.296 109.371 228.118 109.204C227.944 109.037 227.857 108.837 227.857 108.602C227.857 108.368 227.944 108.167 228.118 108C228.296 107.833 228.507 107.75 228.752 107.75C228.997 107.75 229.207 107.833 229.381 108C229.558 108.167 229.647 108.368 229.647 108.602C229.647 108.837 229.558 109.037 229.381 109.204C229.207 109.371 228.997 109.455 228.752 109.455ZM234.762 119.17C234.08 119.17 233.478 118.998 232.956 118.654C232.434 118.306 232.026 117.816 231.731 117.184C231.436 116.548 231.289 115.797 231.289 114.93C231.289 114.071 231.436 113.325 231.731 112.693C232.026 112.061 232.436 111.573 232.962 111.228C233.487 110.884 234.094 110.712 234.783 110.712C235.316 110.712 235.737 110.8 236.046 110.978C236.358 111.152 236.596 111.351 236.76 111.575C236.926 111.795 237.056 111.976 237.148 112.118H237.255V108.091H238.512V119H237.298V117.743H237.148C237.056 117.892 236.925 118.08 236.754 118.308C236.584 118.531 236.341 118.732 236.024 118.909C235.708 119.083 235.288 119.17 234.762 119.17ZM234.932 118.041C235.437 118.041 235.863 117.91 236.211 117.647C236.559 117.381 236.823 117.013 237.005 116.544C237.186 116.072 237.276 115.527 237.276 114.909C237.276 114.298 237.187 113.764 237.01 113.306C236.832 112.844 236.57 112.485 236.222 112.23C235.874 111.971 235.444 111.841 234.932 111.841C234.4 111.841 233.956 111.978 233.601 112.251C233.249 112.521 232.985 112.888 232.807 113.354C232.633 113.815 232.546 114.334 232.546 114.909C232.546 115.491 232.635 116.021 232.812 116.496C232.994 116.969 233.26 117.345 233.611 117.626C233.967 117.903 234.407 118.041 234.932 118.041ZM244.313 119.17C243.574 119.17 242.926 118.995 242.369 118.643C241.815 118.292 241.381 117.8 241.069 117.168C240.76 116.536 240.605 115.797 240.605 114.952C240.605 114.099 240.76 113.355 241.069 112.72C241.381 112.084 241.815 111.591 242.369 111.239C242.926 110.887 243.574 110.712 244.313 110.712C245.051 110.712 245.698 110.887 246.252 111.239C246.809 111.591 247.242 112.084 247.551 112.72C247.864 113.355 248.02 114.099 248.02 114.952C248.02 115.797 247.864 116.536 247.551 117.168C247.242 117.8 246.809 118.292 246.252 118.643C245.698 118.995 245.051 119.17 244.313 119.17ZM244.313 118.041C244.874 118.041 245.336 117.897 245.698 117.61C246.06 117.322 246.328 116.944 246.502 116.475C246.676 116.006 246.763 115.499 246.763 114.952C246.763 114.405 246.676 113.895 246.502 113.423C246.328 112.951 246.06 112.569 245.698 112.278C245.336 111.987 244.874 111.841 244.313 111.841C243.752 111.841 243.29 111.987 242.928 112.278C242.566 112.569 242.298 112.951 242.124 113.423C241.95 113.895 241.863 114.405 241.863 114.952C241.863 115.499 241.95 116.006 242.124 116.475C242.298 116.944 242.566 117.322 242.928 117.61C243.29 117.897 243.752 118.041 244.313 118.041ZM255.735 112.651L254.605 112.97C254.534 112.782 254.43 112.599 254.291 112.422C254.156 112.24 253.971 112.091 253.737 111.974C253.503 111.857 253.203 111.798 252.837 111.798C252.336 111.798 251.919 111.914 251.585 112.145C251.255 112.372 251.09 112.661 251.09 113.013C251.09 113.325 251.203 113.572 251.431 113.753C251.658 113.934 252.013 114.085 252.496 114.206L253.71 114.504C254.442 114.682 254.987 114.953 255.346 115.319C255.704 115.681 255.884 116.148 255.884 116.72C255.884 117.189 255.749 117.608 255.479 117.977C255.213 118.347 254.84 118.638 254.36 118.851C253.881 119.064 253.323 119.17 252.688 119.17C251.853 119.17 251.163 118.989 250.616 118.627C250.069 118.265 249.723 117.736 249.577 117.04L250.77 116.741C250.884 117.182 251.099 117.512 251.415 117.732C251.734 117.952 252.152 118.062 252.666 118.062C253.252 118.062 253.718 117.938 254.062 117.69C254.41 117.437 254.584 117.136 254.584 116.784C254.584 116.5 254.485 116.262 254.286 116.07C254.087 115.875 253.781 115.729 253.37 115.634L252.006 115.314C251.257 115.136 250.706 114.861 250.355 114.488C250.007 114.112 249.833 113.641 249.833 113.077C249.833 112.615 249.962 112.207 250.221 111.852C250.484 111.496 250.841 111.218 251.292 111.015C251.747 110.813 252.262 110.712 252.837 110.712C253.647 110.712 254.282 110.889 254.744 111.244C255.209 111.599 255.539 112.068 255.735 112.651ZM265.084 119.17C264.402 119.17 263.801 118.998 263.279 118.654C262.757 118.306 262.348 117.816 262.053 117.184C261.759 116.548 261.611 115.797 261.611 114.93C261.611 114.071 261.759 113.325 262.053 112.693C262.348 112.061 262.758 111.573 263.284 111.228C263.809 110.884 264.417 110.712 265.106 110.712C265.638 110.712 266.059 110.8 266.368 110.978C266.681 111.152 266.918 111.351 267.082 111.575C267.249 111.795 267.378 111.976 267.471 112.118H267.577V108.091H268.834V119H267.62V117.743H267.471C267.378 117.892 267.247 118.08 267.076 118.308C266.906 118.531 266.663 118.732 266.347 118.909C266.031 119.083 265.61 119.17 265.084 119.17ZM265.255 118.041C265.759 118.041 266.185 117.91 266.533 117.647C266.881 117.381 267.146 117.013 267.327 116.544C267.508 116.072 267.598 115.527 267.598 114.909C267.598 114.298 267.51 113.764 267.332 113.306C267.155 112.844 266.892 112.485 266.544 112.23C266.196 111.971 265.766 111.841 265.255 111.841C264.722 111.841 264.278 111.978 263.923 112.251C263.572 112.521 263.307 112.888 263.129 113.354C262.955 113.815 262.868 114.334 262.868 114.909C262.868 115.491 262.957 116.021 263.135 116.496C263.316 116.969 263.582 117.345 263.934 117.626C264.289 117.903 264.729 118.041 265.255 118.041ZM274.742 119.17C273.953 119.17 273.273 118.996 272.701 118.648C272.133 118.297 271.695 117.807 271.386 117.178C271.08 116.546 270.928 115.811 270.928 114.973C270.928 114.135 271.08 113.396 271.386 112.757C271.695 112.114 272.124 111.614 272.675 111.255C273.229 110.893 273.875 110.712 274.614 110.712C275.04 110.712 275.461 110.783 275.876 110.925C276.292 111.067 276.67 111.298 277.011 111.617C277.352 111.933 277.623 112.352 277.826 112.874C278.028 113.396 278.129 114.039 278.129 114.803V115.335H271.823V114.249H276.851C276.851 113.787 276.759 113.375 276.574 113.013C276.393 112.651 276.134 112.365 275.796 112.155C275.462 111.946 275.068 111.841 274.614 111.841C274.113 111.841 273.68 111.965 273.314 112.214C272.952 112.459 272.673 112.778 272.478 113.173C272.282 113.567 272.185 113.989 272.185 114.44V115.165C272.185 115.783 272.291 116.306 272.504 116.736C272.721 117.162 273.021 117.487 273.405 117.711C273.788 117.931 274.234 118.041 274.742 118.041C275.072 118.041 275.37 117.995 275.636 117.903C275.906 117.807 276.139 117.665 276.334 117.477C276.53 117.285 276.681 117.047 276.787 116.763L278.002 117.104C277.874 117.516 277.659 117.878 277.357 118.19C277.055 118.499 276.682 118.741 276.238 118.915C275.795 119.085 275.296 119.17 274.742 119.17ZM210.761 128.818V129.884H206.521V128.818H210.761ZM207.756 126.858H209.013V134.656C209.013 135.011 209.065 135.278 209.168 135.455C209.274 135.629 209.409 135.746 209.573 135.807C209.74 135.864 209.915 135.892 210.1 135.892C210.239 135.892 210.352 135.885 210.441 135.871C210.53 135.853 210.601 135.839 210.654 135.828L210.91 136.957C210.824 136.989 210.706 137.021 210.553 137.053C210.4 137.089 210.207 137.107 209.972 137.107C209.617 137.107 209.269 137.03 208.928 136.877C208.591 136.725 208.31 136.492 208.087 136.18C207.866 135.867 207.756 135.473 207.756 134.997V126.858ZM215.888 137.17C215.149 137.17 214.501 136.995 213.943 136.643C213.389 136.292 212.956 135.8 212.644 135.168C212.335 134.536 212.18 133.797 212.18 132.952C212.18 132.099 212.335 131.355 212.644 130.72C212.956 130.084 213.389 129.591 213.943 129.239C214.501 128.887 215.149 128.712 215.888 128.712C216.626 128.712 217.272 128.887 217.826 129.239C218.384 129.591 218.817 130.084 219.126 130.72C219.439 131.355 219.595 132.099 219.595 132.952C219.595 133.797 219.439 134.536 219.126 135.168C218.817 135.8 218.384 136.292 217.826 136.643C217.272 136.995 216.626 137.17 215.888 137.17ZM215.888 136.041C216.449 136.041 216.91 135.897 217.272 135.61C217.635 135.322 217.903 134.944 218.077 134.475C218.251 134.006 218.338 133.499 218.338 132.952C218.338 132.405 218.251 131.895 218.077 131.423C217.903 130.951 217.635 130.569 217.272 130.278C216.91 129.987 216.449 129.841 215.888 129.841C215.326 129.841 214.865 129.987 214.503 130.278C214.14 130.569 213.872 130.951 213.698 131.423C213.524 131.895 213.437 132.405 213.437 132.952C213.437 133.499 213.524 134.006 213.698 134.475C213.872 134.944 214.14 135.322 214.503 135.61C214.865 135.897 215.326 136.041 215.888 136.041ZM224.603 137.17C223.922 137.17 223.32 136.998 222.798 136.654C222.276 136.306 221.867 135.816 221.572 135.184C221.278 134.548 221.13 133.797 221.13 132.93C221.13 132.071 221.278 131.325 221.572 130.693C221.867 130.061 222.277 129.573 222.803 129.228C223.328 128.884 223.936 128.712 224.625 128.712C225.157 128.712 225.578 128.8 225.887 128.978C226.2 129.152 226.438 129.351 226.601 129.575C226.768 129.795 226.897 129.976 226.99 130.118H227.096V126.091H228.353V137H227.139V135.743H226.99C226.897 135.892 226.766 136.08 226.596 136.308C226.425 136.531 226.182 136.732 225.866 136.909C225.55 137.083 225.129 137.17 224.603 137.17ZM224.774 136.041C225.278 136.041 225.704 135.91 226.052 135.647C226.4 135.381 226.665 135.013 226.846 134.544C227.027 134.072 227.118 133.527 227.118 132.909C227.118 132.298 227.029 131.764 226.851 131.306C226.674 130.844 226.411 130.485 226.063 130.23C225.715 129.971 225.285 129.841 224.774 129.841C224.241 129.841 223.797 129.978 223.442 130.251C223.091 130.521 222.826 130.888 222.648 131.354C222.474 131.815 222.387 132.334 222.387 132.909C222.387 133.491 222.476 134.021 222.654 134.496C222.835 134.969 223.101 135.345 223.453 135.626C223.808 135.903 224.248 136.041 224.774 136.041ZM234.154 137.17C233.415 137.17 232.767 136.995 232.21 136.643C231.656 136.292 231.223 135.8 230.91 135.168C230.601 134.536 230.447 133.797 230.447 132.952C230.447 132.099 230.601 131.355 230.91 130.72C231.223 130.084 231.656 129.591 232.21 129.239C232.767 128.887 233.415 128.712 234.154 128.712C234.893 128.712 235.539 128.887 236.093 129.239C236.651 129.591 237.084 130.084 237.393 130.72C237.705 131.355 237.862 132.099 237.862 132.952C237.862 133.797 237.705 134.536 237.393 135.168C237.084 135.8 236.651 136.292 236.093 136.643C235.539 136.995 234.893 137.17 234.154 137.17ZM234.154 136.041C234.715 136.041 235.177 135.897 235.539 135.61C235.901 135.322 236.169 134.944 236.343 134.475C236.517 134.006 236.604 133.499 236.604 132.952C236.604 132.405 236.517 131.895 236.343 131.423C236.169 130.951 235.901 130.569 235.539 130.278C235.177 129.987 234.715 129.841 234.154 129.841C233.593 129.841 233.131 129.987 232.769 130.278C232.407 130.569 232.139 130.951 231.965 131.423C231.791 131.895 231.704 132.405 231.704 132.952C231.704 133.499 231.791 134.006 231.965 134.475C232.139 134.944 232.407 135.322 232.769 135.61C233.131 135.897 233.593 136.041 234.154 136.041ZM247.557 128.818V129.884H243.317V128.818H247.557ZM244.553 126.858H245.81V134.656C245.81 135.011 245.862 135.278 245.965 135.455C246.071 135.629 246.206 135.746 246.37 135.807C246.536 135.864 246.712 135.892 246.897 135.892C247.035 135.892 247.149 135.885 247.238 135.871C247.327 135.853 247.398 135.839 247.451 135.828L247.707 136.957C247.621 136.989 247.502 137.021 247.35 137.053C247.197 137.089 247.003 137.107 246.769 137.107C246.414 137.107 246.066 137.03 245.725 136.877C245.388 136.725 245.107 136.492 244.883 136.18C244.663 135.867 244.553 135.473 244.553 134.997V126.858ZM249.448 137V128.818H250.706V137H249.448ZM250.088 127.455C249.843 127.455 249.631 127.371 249.454 127.204C249.28 127.037 249.193 126.837 249.193 126.602C249.193 126.368 249.28 126.167 249.454 126C249.631 125.833 249.843 125.75 250.088 125.75C250.333 125.75 250.542 125.833 250.716 126C250.894 126.167 250.983 126.368 250.983 126.602C250.983 126.837 250.894 127.037 250.716 127.204C250.542 127.371 250.333 127.455 250.088 127.455ZM253.008 140.068V128.818H254.222V130.118H254.372C254.464 129.976 254.592 129.795 254.755 129.575C254.922 129.351 255.16 129.152 255.469 128.978C255.781 128.8 256.204 128.712 256.737 128.712C257.426 128.712 258.033 128.884 258.558 129.228C259.084 129.573 259.494 130.061 259.789 130.693C260.084 131.325 260.231 132.071 260.231 132.93C260.231 133.797 260.084 134.548 259.789 135.184C259.494 135.816 259.086 136.306 258.564 136.654C258.042 136.998 257.44 137.17 256.758 137.17C256.232 137.17 255.812 137.083 255.496 136.909C255.18 136.732 254.936 136.531 254.766 136.308C254.595 136.08 254.464 135.892 254.372 135.743H254.265V140.068H253.008ZM254.244 132.909C254.244 133.527 254.334 134.072 254.515 134.544C254.697 135.013 254.961 135.381 255.309 135.647C255.657 135.91 256.083 136.041 256.588 136.041C257.113 136.041 257.552 135.903 257.903 135.626C258.258 135.345 258.525 134.969 258.702 134.496C258.883 134.021 258.974 133.491 258.974 132.909C258.974 132.334 258.885 131.815 258.708 131.354C258.534 130.888 258.269 130.521 257.914 130.251C257.562 129.978 257.12 129.841 256.588 129.841C256.076 129.841 255.646 129.971 255.298 130.23C254.95 130.485 254.688 130.844 254.51 131.306C254.333 131.764 254.244 132.298 254.244 132.909ZM265.472 137.17C264.734 137.17 264.086 136.995 263.528 136.643C262.974 136.292 262.541 135.8 262.229 135.168C261.92 134.536 261.765 133.797 261.765 132.952C261.765 132.099 261.92 131.355 262.229 130.72C262.541 130.084 262.974 129.591 263.528 129.239C264.086 128.887 264.734 128.712 265.472 128.712C266.211 128.712 266.857 128.887 267.411 129.239C267.969 129.591 268.402 130.084 268.711 130.72C269.024 131.355 269.18 132.099 269.18 132.952C269.18 133.797 269.024 134.536 268.711 135.168C268.402 135.8 267.969 136.292 267.411 136.643C266.857 136.995 266.211 137.17 265.472 137.17ZM265.472 136.041C266.034 136.041 266.495 135.897 266.857 135.61C267.22 135.322 267.488 134.944 267.662 134.475C267.836 134.006 267.923 133.499 267.923 132.952C267.923 132.405 267.836 131.895 267.662 131.423C267.488 130.951 267.22 130.569 266.857 130.278C266.495 129.987 266.034 129.841 265.472 129.841C264.911 129.841 264.45 129.987 264.088 130.278C263.725 130.569 263.457 130.951 263.283 131.423C263.109 131.895 263.022 132.405 263.022 132.952C263.022 133.499 263.109 134.006 263.283 134.475C263.457 134.944 263.725 135.322 264.088 135.61C264.45 135.897 264.911 136.041 265.472 136.041Z" fill="black"/>
<path d="M286.731 75.4991C285.461 78.297 283.232 79.571 280.223 79.5269C279.439 79.5171 279.405 80.0022 279.278 80.5412C277.685 87.2395 269.762 89.959 264.426 85.647C262.858 84.3779 261.995 82.9716 261.084 80.159H240.832C239.666 84.3877 237.069 87.166 232.605 87.656C228.798 88.0725 225.721 86.5192 223.766 83.2117C221.472 79.3456 221.992 75.5677 224.672 71.9417H214.554C217.298 75.6804 217.768 79.5759 215.274 83.5057C213.26 86.676 210.178 88.1215 206.464 87.6413C202.112 87.0778 199.535 84.3583 198.374 80.0953C197.1 80.0953 195.806 80.1051 194.513 80.0953C191.847 80.0708 190.058 78.2676 190.034 75.5873C190.029 75.0483 190.078 74.5044 190.024 73.9654C189.76 71.2998 191.279 69.0605 194.522 68.7322C192.695 66.2234 191.45 63.4696 190.352 60.6178C186.839 51.4891 191.519 43.507 197.198 39.9545C199.854 38.2934 202.749 37.4947 205.856 37.382C206.331 37.3673 206.802 37.382 207.321 37.382C207.404 36.7107 207.429 36.0835 207.566 35.4759C208.081 33.1974 209.938 31.6784 212.26 31.6147C213.245 31.5853 214.23 31.5951 215.215 31.6049C218.248 31.6392 220.287 33.6482 220.38 36.6666C220.385 36.8528 220.38 37.0439 220.38 37.3673C220.791 37.3673 221.159 37.3673 221.526 37.3673C227.534 37.3673 233.536 37.3624 239.544 37.3673C248.285 37.382 255.346 43.1885 256.885 51.7929C257.845 57.1633 256.238 61.9016 252.793 66.0519C252.053 66.9486 251.245 67.7865 250.338 68.7959C253.048 68.7959 255.576 68.8302 258.1 68.7763C258.928 68.7616 259.423 68.056 259.442 67.0907C259.467 65.8216 259.447 64.5476 259.447 63.2785C259.447 58.795 259.442 54.3164 259.447 49.8329C259.452 45.8884 261.99 43.3355 265.945 43.3208C270.712 43.3012 275.48 43.3208 280.243 43.311C283.261 43.3012 285.412 44.5948 286.559 47.4417C286.588 47.5201 286.677 47.574 286.74 47.6377V75.4844L286.731 75.4991ZM222.516 68.8253C230.106 68.8253 237.701 68.8351 245.291 68.8008C245.757 68.8008 246.335 68.5411 246.658 68.2079C247.874 66.9535 249.035 65.6452 250.167 64.3173C253.994 59.8142 255.101 54.728 252.793 49.24C250.466 43.6981 246.07 40.5866 240.068 40.4886C228.636 40.3073 217.195 40.3661 205.763 40.469C201.069 40.5131 197.203 42.5172 194.601 46.5205C192.21 50.1906 191.479 54.1645 192.822 58.4324C193.763 61.4165 194.988 64.2585 196.82 66.8163C197.796 68.1834 198.947 68.9037 200.799 68.8743C208.041 68.7518 215.284 68.8253 222.526 68.8253H222.516ZM260.986 77.0524C261.064 76.7143 261.123 76.435 261.187 76.1606C262.191 71.7065 266.155 68.6587 270.712 68.84C274.696 68.9968 278.151 71.8388 279.258 75.847C279.336 76.141 279.528 76.5722 279.743 76.631C281.953 77.2043 283.996 75.5922 283.996 73.3186C283.996 70.5207 283.996 67.7228 283.996 64.9249C283.996 64.5868 283.996 64.2438 283.996 63.8028C283.531 63.8028 283.188 63.8028 282.845 63.8028C280.557 63.8028 278.268 63.8273 275.98 63.793C273.094 63.7538 271.217 61.8722 271.163 59.0008C271.134 57.3789 271.139 55.757 271.163 54.14C271.207 51.1902 273.069 49.338 276.024 49.3135C278.312 49.2939 280.601 49.3135 282.889 49.3086C283.217 49.3086 283.546 49.2743 283.884 49.2547C283.658 47.5397 282.458 46.545 280.664 46.545C275.897 46.5352 271.129 46.545 266.361 46.545C263.764 46.545 262.642 47.6622 262.637 50.2494C262.637 55.7815 262.647 61.3136 262.637 66.8408C262.632 70.016 260.756 71.8878 257.6 71.8878C251.627 71.8878 245.649 71.8878 239.676 71.8878C239.348 71.8878 239.019 71.9172 238.882 71.9221C239.495 73.3235 240.205 74.6661 240.661 76.092C240.896 76.8319 241.107 77.0818 241.896 77.0769C247.932 77.0426 253.974 77.0573 260.011 77.0573C260.324 77.0573 260.638 77.0573 260.991 77.0573L260.986 77.0524ZM207.483 84.6768C210.991 84.7013 213.789 81.8838 213.809 78.3019C213.828 74.7935 211.04 71.9074 207.615 71.878C204.131 71.8486 201.304 74.7053 201.294 78.2627C201.284 81.7907 204.043 84.6474 207.478 84.6719L207.483 84.6768ZM231.65 84.6768C234.472 84.7356 238.103 82.609 237.853 77.6796C237.686 74.3574 234.903 71.8927 231.664 71.8829C228.19 71.8731 225.368 74.7788 225.397 78.3264C225.427 81.8642 228.195 84.6768 231.65 84.6768ZM270.159 84.6768C273.682 84.716 276.46 81.9279 276.49 78.3362C276.514 74.7935 273.785 71.9221 270.355 71.8829C266.935 71.8437 264.063 74.6416 264.034 78.0471C264.004 81.776 266.65 84.6376 270.164 84.6768H270.159ZM283.996 52.3858C281.096 52.3858 278.342 52.3564 275.588 52.4005C274.672 52.4152 274.245 53.0914 274.226 53.944C274.187 55.6884 274.182 57.4328 274.226 59.1772C274.25 60.1523 274.814 60.7158 275.799 60.7354C278.337 60.7746 280.87 60.7648 283.408 60.7354C283.604 60.7354 283.962 60.3973 283.962 60.2111C284.001 57.6484 283.987 55.0857 283.987 52.3956L283.996 52.3858ZM200.265 71.878C198.403 71.878 196.35 71.8633 194.302 71.8878C193.508 71.8976 193.087 72.3631 193.077 73.1618C193.067 74.0487 193.062 74.9356 193.077 75.8225C193.092 76.5771 193.503 77.0132 194.253 77.0328C195.424 77.0622 196.595 77.072 197.766 77.023C197.987 77.0132 198.3 76.7584 198.393 76.5428C199.035 75.0189 199.628 73.4754 200.26 71.878H200.265ZM210.491 37.3085H217.273C217.386 35.3779 216.729 34.6674 214.882 34.6576C214.215 34.6576 213.549 34.6576 212.883 34.6576C211.04 34.6674 210.384 35.3779 210.491 37.3085Z" fill="#424242"/>
<path d="M223.124 62.3965C226.701 62.3867 229.209 59.2703 228.038 55.8452C227.093 53.0767 225.657 50.465 224.329 47.8337C223.795 46.7704 222.286 46.7655 221.747 47.8239C220.419 50.416 218.993 52.9934 218.052 55.7325C216.876 59.1527 219.512 62.4014 223.124 62.3916V62.3965Z" fill="#424242" stroke="#424242" stroke-miterlimit="10"/>
<path d="M223.124 62.3965C219.512 62.4063 216.871 59.1576 218.052 55.7374C218.993 52.9983 220.424 50.4209 221.747 47.8288C222.291 46.7704 223.795 46.7753 224.329 47.8386C225.657 50.465 227.093 53.0767 228.038 55.8501C229.21 59.2752 226.701 62.3916 223.124 62.4014V62.3965Z" fill="#424242"/>
<path d="M231.365 81.8985C229.062 81.8446 227.392 79.7327 227.872 77.4836C227.989 76.9201 228.337 76.6457 228.857 76.6996C229.366 76.7486 229.65 77.1014 229.66 77.6747C229.67 78.0569 229.631 78.4636 229.739 78.8213C229.993 79.6935 230.826 80.1688 231.753 80.0414C232.595 79.9238 233.257 79.1741 233.291 78.3068C233.325 77.4444 232.737 76.6702 231.885 76.4644C231.708 76.4203 231.522 76.4056 231.341 76.3664C230.792 76.2488 230.518 75.8862 230.572 75.3668C230.626 74.8768 231.013 74.5387 231.557 74.5681C232.801 74.6269 233.82 75.1512 234.497 76.1949C235.281 77.4003 235.364 78.6841 234.678 79.9728C234.016 81.2223 232.772 81.9328 231.361 81.9034L231.365 81.8985Z" fill="#424242"/>
<path d="M270.124 81.8985C267.821 81.8446 266.15 79.7327 266.63 77.4836C266.748 76.9201 267.096 76.6457 267.615 76.6996C268.125 76.7486 268.409 77.1014 268.419 77.6747C268.429 78.0569 268.39 78.4636 268.497 78.8213C268.752 79.6935 269.585 80.1688 270.511 80.0414C271.354 79.9238 272.016 79.1741 272.05 78.3068C272.084 77.4444 271.496 76.6702 270.644 76.4644C270.467 76.4203 270.281 76.4056 270.1 76.3664C269.551 76.2488 269.277 75.8862 269.33 75.3668C269.384 74.8768 269.771 74.5387 270.315 74.5681C271.56 74.6269 272.579 75.1512 273.255 76.1949C274.039 77.4003 274.123 78.6841 273.437 79.9728C272.775 81.2223 271.531 81.9328 270.119 81.9034L270.124 81.8985Z" fill="#424242"/>
<path d="M207.272 81.8985C204.969 81.8446 203.298 79.7327 203.778 77.4836C203.896 76.9201 204.244 76.6457 204.763 76.6996C205.273 76.7486 205.557 77.1014 205.567 77.6747C205.577 78.0569 205.538 78.4636 205.645 78.8213C205.9 79.6935 206.733 80.1688 207.659 80.0414C208.502 79.9238 209.164 79.1741 209.198 78.3068C209.232 77.4444 208.644 76.6702 207.792 76.4644C207.615 76.4203 207.429 76.4056 207.248 76.3664C206.699 76.2488 206.424 75.8862 206.478 75.3668C206.532 74.8768 206.919 74.5387 207.463 74.5681C208.708 74.6269 209.727 75.1512 210.403 76.1949C211.187 77.4003 211.271 78.6841 210.585 79.9728C209.923 81.2223 208.678 81.9328 207.267 81.9034L207.272 81.8985Z" fill="#424242"/>
<path d="M356.138 111.5H354.817C354.739 111.12 354.602 110.786 354.407 110.499C354.215 110.211 353.981 109.969 353.704 109.774C353.43 109.575 353.127 109.426 352.793 109.327C352.459 109.227 352.111 109.178 351.749 109.178C351.088 109.178 350.49 109.344 349.954 109.678C349.421 110.012 348.997 110.504 348.681 111.154C348.368 111.804 348.212 112.601 348.212 113.545C348.212 114.49 348.368 115.287 348.681 115.937C348.997 116.587 349.421 117.079 349.954 117.413C350.49 117.746 351.088 117.913 351.749 117.913C352.111 117.913 352.459 117.864 352.793 117.764C353.127 117.665 353.43 117.517 353.704 117.322C353.981 117.123 354.215 116.88 354.407 116.592C354.602 116.301 354.739 115.967 354.817 115.591H356.138C356.039 116.148 355.857 116.647 355.595 117.088C355.332 117.528 355.005 117.903 354.615 118.212C354.224 118.517 353.785 118.75 353.299 118.909C352.816 119.069 352.299 119.149 351.749 119.149C350.818 119.149 349.991 118.922 349.267 118.467C348.542 118.013 347.972 117.366 347.557 116.528C347.141 115.69 346.933 114.696 346.933 113.545C346.933 112.395 347.141 111.401 347.557 110.562C347.972 109.724 348.542 109.078 349.267 108.624C349.991 108.169 350.818 107.942 351.749 107.942C352.299 107.942 352.816 108.022 353.299 108.181C353.785 108.341 354.224 108.576 354.615 108.885C355.005 109.19 355.332 109.563 355.595 110.003C355.857 110.44 356.039 110.939 356.138 111.5ZM360.51 119.192C359.991 119.192 359.521 119.094 359.098 118.899C358.676 118.7 358.34 118.414 358.092 118.041C357.843 117.665 357.719 117.21 357.719 116.678C357.719 116.209 357.811 115.829 357.996 115.538C358.18 115.243 358.427 115.012 358.736 114.845C359.045 114.678 359.386 114.554 359.759 114.472C360.135 114.387 360.513 114.32 360.893 114.27C361.391 114.206 361.794 114.158 362.103 114.126C362.415 114.091 362.642 114.032 362.784 113.95C362.93 113.869 363.003 113.727 363.003 113.524V113.482C363.003 112.956 362.859 112.548 362.571 112.256C362.287 111.965 361.856 111.82 361.277 111.82C360.677 111.82 360.206 111.951 359.865 112.214C359.524 112.477 359.285 112.757 359.146 113.055L357.953 112.629C358.166 112.132 358.45 111.745 358.805 111.468C359.164 111.187 359.555 110.992 359.977 110.882C360.403 110.768 360.822 110.712 361.234 110.712C361.497 110.712 361.799 110.744 362.14 110.808C362.484 110.868 362.816 110.994 363.136 111.186C363.459 111.377 363.727 111.667 363.94 112.054C364.153 112.441 364.26 112.96 364.26 113.609V119H363.003V117.892H362.939C362.854 118.07 362.712 118.26 362.513 118.462C362.314 118.664 362.049 118.837 361.719 118.979C361.389 119.121 360.986 119.192 360.51 119.192ZM360.702 118.062C361.199 118.062 361.618 117.965 361.959 117.77C362.303 117.574 362.562 117.322 362.736 117.013C362.914 116.704 363.003 116.379 363.003 116.038V114.888C362.95 114.952 362.832 115.01 362.651 115.064C362.474 115.113 362.268 115.158 362.033 115.197C361.803 115.232 361.577 115.264 361.357 115.293C361.14 115.317 360.964 115.339 360.83 115.357C360.503 115.399 360.197 115.468 359.913 115.564C359.633 115.657 359.405 115.797 359.231 115.985C359.061 116.17 358.976 116.422 358.976 116.741C358.976 117.178 359.137 117.509 359.461 117.732C359.787 117.952 360.201 118.062 360.702 118.062ZM366.554 119V110.818H367.769V112.054H367.854C368.003 111.649 368.273 111.321 368.664 111.069C369.054 110.816 369.495 110.69 369.985 110.69C370.077 110.69 370.193 110.692 370.331 110.696C370.47 110.699 370.574 110.705 370.645 110.712V111.99C370.603 111.979 370.505 111.963 370.352 111.942C370.203 111.917 370.045 111.905 369.878 111.905C369.481 111.905 369.125 111.988 368.813 112.155C368.504 112.319 368.259 112.546 368.078 112.837C367.9 113.125 367.811 113.453 367.811 113.822V119H366.554ZM375.189 122.239C374.582 122.239 374.06 122.161 373.623 122.004C373.186 121.852 372.822 121.649 372.531 121.397C372.243 121.148 372.014 120.882 371.844 120.598L372.845 119.895C372.959 120.044 373.103 120.214 373.277 120.406C373.451 120.602 373.689 120.77 373.99 120.912C374.296 121.058 374.695 121.131 375.189 121.131C375.849 121.131 376.395 120.971 376.824 120.651C377.254 120.332 377.469 119.831 377.469 119.149V117.487H377.362C377.27 117.636 377.139 117.821 376.968 118.041C376.801 118.258 376.56 118.451 376.244 118.622C375.931 118.789 375.509 118.872 374.976 118.872C374.315 118.872 373.722 118.716 373.197 118.403C372.675 118.091 372.261 117.636 371.956 117.04C371.654 116.443 371.503 115.719 371.503 114.866C371.503 114.028 371.65 113.299 371.945 112.677C372.24 112.052 372.65 111.569 373.175 111.228C373.701 110.884 374.308 110.712 374.997 110.712C375.53 110.712 375.952 110.8 376.265 110.978C376.581 111.152 376.822 111.351 376.989 111.575C377.16 111.795 377.291 111.976 377.384 112.118H377.511V110.818H378.726V119.234C378.726 119.938 378.566 120.509 378.246 120.95C377.93 121.393 377.504 121.718 376.968 121.924C376.435 122.134 375.842 122.239 375.189 122.239ZM375.146 117.743C375.651 117.743 376.077 117.627 376.425 117.397C376.773 117.166 377.037 116.834 377.218 116.401C377.4 115.967 377.49 115.449 377.49 114.845C377.49 114.256 377.401 113.735 377.224 113.284C377.046 112.833 376.783 112.48 376.435 112.224C376.087 111.969 375.658 111.841 375.146 111.841C374.614 111.841 374.17 111.976 373.815 112.246C373.463 112.516 373.199 112.878 373.021 113.332C372.847 113.787 372.76 114.291 372.76 114.845C372.76 115.413 372.849 115.916 373.026 116.353C373.207 116.786 373.474 117.127 373.825 117.375C374.18 117.62 374.621 117.743 375.146 117.743ZM383.435 119.192C382.916 119.192 382.446 119.094 382.023 118.899C381.601 118.7 381.265 118.414 381.016 118.041C380.768 117.665 380.644 117.21 380.644 116.678C380.644 116.209 380.736 115.829 380.92 115.538C381.105 115.243 381.352 115.012 381.661 114.845C381.97 114.678 382.311 114.554 382.684 114.472C383.06 114.387 383.438 114.32 383.818 114.27C384.315 114.206 384.718 114.158 385.027 114.126C385.34 114.091 385.567 114.032 385.709 113.95C385.855 113.869 385.928 113.727 385.928 113.524V113.482C385.928 112.956 385.784 112.548 385.496 112.256C385.212 111.965 384.781 111.82 384.202 111.82C383.602 111.82 383.131 111.951 382.79 112.214C382.449 112.477 382.21 112.757 382.071 113.055L380.878 112.629C381.091 112.132 381.375 111.745 381.73 111.468C382.089 111.187 382.479 110.992 382.902 110.882C383.328 110.768 383.747 110.712 384.159 110.712C384.422 110.712 384.724 110.744 385.065 110.808C385.409 110.868 385.741 110.994 386.061 111.186C386.384 111.377 386.652 111.667 386.865 112.054C387.078 112.441 387.185 112.96 387.185 113.609V119H385.928V117.892H385.864C385.778 118.07 385.636 118.26 385.438 118.462C385.239 118.664 384.974 118.837 384.644 118.979C384.314 119.121 383.911 119.192 383.435 119.192ZM383.626 118.062C384.124 118.062 384.543 117.965 384.884 117.77C385.228 117.574 385.487 117.322 385.661 117.013C385.839 116.704 385.928 116.379 385.928 116.038V114.888C385.874 114.952 385.757 115.01 385.576 115.064C385.398 115.113 385.193 115.158 384.958 115.197C384.727 115.232 384.502 115.264 384.282 115.293C384.065 115.317 383.889 115.339 383.754 115.357C383.428 115.399 383.122 115.468 382.838 115.564C382.558 115.657 382.33 115.797 382.156 115.985C381.986 116.17 381.901 116.422 381.901 116.741C381.901 117.178 382.062 117.509 382.385 117.732C382.712 117.952 383.126 118.062 383.626 118.062ZM399.493 112.651L398.364 112.97C398.293 112.782 398.188 112.599 398.05 112.422C397.915 112.24 397.73 112.091 397.496 111.974C397.261 111.857 396.961 111.798 396.596 111.798C396.095 111.798 395.678 111.914 395.344 112.145C395.014 112.372 394.848 112.661 394.848 113.013C394.848 113.325 394.962 113.572 395.189 113.753C395.417 113.934 395.772 114.085 396.255 114.206L397.469 114.504C398.201 114.682 398.746 114.953 399.105 115.319C399.463 115.681 399.643 116.148 399.643 116.72C399.643 117.189 399.508 117.608 399.238 117.977C398.971 118.347 398.598 118.638 398.119 118.851C397.64 119.064 397.082 119.17 396.447 119.17C395.612 119.17 394.921 118.989 394.374 118.627C393.828 118.265 393.481 117.736 393.336 117.04L394.529 116.741C394.643 117.182 394.857 117.512 395.173 117.732C395.493 117.952 395.91 118.062 396.425 118.062C397.011 118.062 397.476 117.938 397.821 117.69C398.169 117.437 398.343 117.136 398.343 116.784C398.343 116.5 398.243 116.262 398.045 116.07C397.846 115.875 397.54 115.729 397.128 115.634L395.765 115.314C395.015 115.136 394.465 114.861 394.113 114.488C393.765 114.112 393.591 113.641 393.591 113.077C393.591 112.615 393.721 112.207 393.98 111.852C394.243 111.496 394.6 111.218 395.051 111.015C395.505 110.813 396.02 110.712 396.596 110.712C397.405 110.712 398.041 110.889 398.503 111.244C398.968 111.599 399.298 112.068 399.493 112.651ZM404.965 119.17C404.177 119.17 403.497 118.996 402.925 118.648C402.357 118.297 401.918 117.807 401.609 117.178C401.304 116.546 401.151 115.811 401.151 114.973C401.151 114.135 401.304 113.396 401.609 112.757C401.918 112.114 402.348 111.614 402.898 111.255C403.452 110.893 404.099 110.712 404.837 110.712C405.264 110.712 405.684 110.783 406.1 110.925C406.515 111.067 406.894 111.298 407.234 111.617C407.575 111.933 407.847 112.352 408.049 112.874C408.252 113.396 408.353 114.039 408.353 114.803V115.335H402.046V114.249H407.075C407.075 113.787 406.982 113.375 406.798 113.013C406.617 112.651 406.357 112.365 406.02 112.155C405.686 111.946 405.292 111.841 404.837 111.841C404.337 111.841 403.903 111.965 403.538 112.214C403.175 112.459 402.897 112.778 402.701 113.173C402.506 113.567 402.408 113.989 402.408 114.44V115.165C402.408 115.783 402.515 116.306 402.728 116.736C402.945 117.162 403.245 117.487 403.628 117.711C404.012 117.931 404.457 118.041 404.965 118.041C405.295 118.041 405.594 117.995 405.86 117.903C406.13 117.807 406.363 117.665 406.558 117.477C406.753 117.285 406.904 117.047 407.011 116.763L408.225 117.104C408.097 117.516 407.883 117.878 407.581 118.19C407.279 118.499 406.906 118.741 406.462 118.915C406.018 119.085 405.519 119.17 404.965 119.17ZM413.589 119.17C412.822 119.17 412.162 118.989 411.608 118.627C411.054 118.265 410.628 117.766 410.329 117.13C410.031 116.495 409.882 115.768 409.882 114.952C409.882 114.121 410.034 113.387 410.34 112.752C410.649 112.113 411.079 111.614 411.629 111.255C412.183 110.893 412.829 110.712 413.568 110.712C414.143 110.712 414.662 110.818 415.123 111.031C415.585 111.244 415.963 111.543 416.258 111.926C416.553 112.31 416.735 112.757 416.807 113.268H415.549C415.454 112.896 415.24 112.565 414.91 112.278C414.583 111.987 414.143 111.841 413.589 111.841C413.099 111.841 412.669 111.969 412.3 112.224C411.934 112.477 411.648 112.833 411.443 113.295C411.24 113.753 411.139 114.291 411.139 114.909C411.139 115.541 411.238 116.092 411.437 116.56C411.64 117.029 411.924 117.393 412.289 117.652C412.659 117.912 413.092 118.041 413.589 118.041C413.916 118.041 414.212 117.984 414.479 117.871C414.745 117.757 414.971 117.594 415.155 117.381C415.34 117.168 415.471 116.912 415.549 116.614H416.807C416.735 117.097 416.56 117.532 416.279 117.919C416.002 118.302 415.635 118.608 415.177 118.835C414.722 119.059 414.193 119.17 413.589 119.17ZM421.052 119.192C420.533 119.192 420.063 119.094 419.64 118.899C419.218 118.7 418.882 118.414 418.634 118.041C418.385 117.665 418.261 117.21 418.261 116.678C418.261 116.209 418.353 115.829 418.538 115.538C418.722 115.243 418.969 115.012 419.278 114.845C419.587 114.678 419.928 114.554 420.301 114.472C420.677 114.387 421.055 114.32 421.435 114.27C421.933 114.206 422.336 114.158 422.645 114.126C422.957 114.091 423.184 114.032 423.326 113.95C423.472 113.869 423.545 113.727 423.545 113.524V113.482C423.545 112.956 423.401 112.548 423.113 112.256C422.829 111.965 422.398 111.82 421.819 111.82C421.219 111.82 420.748 111.951 420.407 112.214C420.066 112.477 419.827 112.757 419.688 113.055L418.495 112.629C418.708 112.132 418.992 111.745 419.347 111.468C419.706 111.187 420.097 110.992 420.519 110.882C420.945 110.768 421.364 110.712 421.776 110.712C422.039 110.712 422.341 110.744 422.682 110.808C423.026 110.868 423.358 110.994 423.678 111.186C424.001 111.377 424.269 111.667 424.482 112.054C424.695 112.441 424.802 112.96 424.802 113.609V119H423.545V117.892H423.481C423.396 118.07 423.254 118.26 423.055 118.462C422.856 118.664 422.591 118.837 422.261 118.979C421.931 119.121 421.528 119.192 421.052 119.192ZM421.244 118.062C421.741 118.062 422.16 117.965 422.501 117.77C422.845 117.574 423.104 117.322 423.278 117.013C423.456 116.704 423.545 116.379 423.545 116.038V114.888C423.492 114.952 423.374 115.01 423.193 115.064C423.016 115.113 422.81 115.158 422.575 115.197C422.345 115.232 422.119 115.264 421.899 115.293C421.682 115.317 421.506 115.339 421.371 115.357C421.045 115.399 420.739 115.468 420.455 115.564C420.175 115.657 419.947 115.797 419.773 115.985C419.603 116.17 419.518 116.422 419.518 116.741C419.518 117.178 419.679 117.509 420.003 117.732C420.329 117.952 420.743 118.062 421.244 118.062ZM432.125 122.068C431.912 122.068 431.722 122.05 431.555 122.015C431.388 121.983 431.273 121.951 431.209 121.919L431.528 120.811C431.834 120.889 432.103 120.918 432.338 120.896C432.572 120.875 432.78 120.77 432.961 120.582C433.146 120.397 433.314 120.097 433.467 119.682L433.701 119.043L430.676 110.818H432.04L434.298 117.338H434.383L436.642 110.818H438.005L434.532 120.193C434.376 120.616 434.183 120.966 433.952 121.243C433.721 121.523 433.453 121.731 433.148 121.866C432.846 122.001 432.505 122.068 432.125 122.068ZM442.672 107.58L439.156 120.641H438.005L441.521 107.58H442.672ZM447.486 119.17C446.747 119.17 446.099 118.995 445.541 118.643C444.987 118.292 444.554 117.8 444.242 117.168C443.933 116.536 443.778 115.797 443.778 114.952C443.778 114.099 443.933 113.355 444.242 112.72C444.554 112.084 444.987 111.591 445.541 111.239C446.099 110.887 446.747 110.712 447.486 110.712C448.224 110.712 448.871 110.887 449.425 111.239C449.982 111.591 450.415 112.084 450.724 112.72C451.037 113.355 451.193 114.099 451.193 114.952C451.193 115.797 451.037 116.536 450.724 117.168C450.415 117.8 449.982 118.292 449.425 118.643C448.871 118.995 448.224 119.17 447.486 119.17ZM447.486 118.041C448.047 118.041 448.508 117.897 448.871 117.61C449.233 117.322 449.501 116.944 449.675 116.475C449.849 116.006 449.936 115.499 449.936 114.952C449.936 114.405 449.849 113.895 449.675 113.423C449.501 112.951 449.233 112.569 448.871 112.278C448.508 111.987 448.047 111.841 447.486 111.841C446.925 111.841 446.463 111.987 446.101 112.278C445.739 112.569 445.47 112.951 445.296 113.423C445.122 113.895 445.035 114.405 445.035 114.952C445.035 115.499 445.122 116.006 445.296 116.475C445.47 116.944 445.739 117.322 446.101 117.61C446.463 117.897 446.925 118.041 447.486 118.041ZM361.01 137V128.818H362.224V130.054H362.31C362.459 129.649 362.729 129.321 363.119 129.069C363.51 128.816 363.95 128.69 364.44 128.69C364.533 128.69 364.648 128.692 364.787 128.696C364.925 128.699 365.03 128.705 365.101 128.712V129.99C365.058 129.979 364.961 129.963 364.808 129.942C364.659 129.917 364.501 129.905 364.334 129.905C363.936 129.905 363.581 129.988 363.268 130.155C362.96 130.319 362.714 130.546 362.533 130.837C362.356 131.125 362.267 131.453 362.267 131.822V137H361.01ZM369.772 137.17C368.984 137.17 368.304 136.996 367.732 136.648C367.164 136.297 366.725 135.807 366.417 135.178C366.111 134.546 365.958 133.811 365.958 132.973C365.958 132.135 366.111 131.396 366.417 130.757C366.725 130.114 367.155 129.614 367.706 129.255C368.26 128.893 368.906 128.712 369.645 128.712C370.071 128.712 370.491 128.783 370.907 128.925C371.322 129.067 371.701 129.298 372.042 129.617C372.382 129.933 372.654 130.352 372.857 130.874C373.059 131.396 373.16 132.039 373.16 132.803V133.335H366.853V132.249H371.882C371.882 131.787 371.789 131.375 371.605 131.013C371.424 130.651 371.164 130.365 370.827 130.155C370.493 129.946 370.099 129.841 369.645 129.841C369.144 129.841 368.711 129.965 368.345 130.214C367.983 130.459 367.704 130.778 367.509 131.173C367.313 131.567 367.216 131.989 367.216 132.44V133.165C367.216 133.783 367.322 134.306 367.535 134.736C367.752 135.162 368.052 135.487 368.435 135.711C368.819 135.931 369.265 136.041 369.772 136.041C370.103 136.041 370.401 135.995 370.667 135.903C370.937 135.807 371.17 135.665 371.365 135.477C371.56 135.285 371.711 135.047 371.818 134.763L373.032 135.104C372.904 135.516 372.69 135.878 372.388 136.19C372.086 136.499 371.713 136.741 371.269 136.915C370.825 137.085 370.326 137.17 369.772 137.17ZM378.716 128.818V129.884H374.305V128.818H378.716ZM375.626 137V127.689C375.626 127.22 375.737 126.83 375.957 126.517C376.177 126.205 376.463 125.97 376.814 125.814C377.166 125.658 377.537 125.58 377.928 125.58C378.237 125.58 378.489 125.604 378.684 125.654C378.879 125.704 379.025 125.75 379.121 125.793L378.759 126.879C378.695 126.858 378.606 126.831 378.492 126.799C378.382 126.767 378.237 126.751 378.055 126.751C377.64 126.751 377.34 126.856 377.155 127.066C376.974 127.275 376.884 127.582 376.884 127.987V137H375.626ZM380.478 137V128.818H381.692V130.054H381.777C381.927 129.649 382.196 129.321 382.587 129.069C382.978 128.816 383.418 128.69 383.908 128.69C384 128.69 384.116 128.692 384.254 128.696C384.393 128.699 384.498 128.705 384.569 128.712V129.99C384.526 129.979 384.428 129.963 384.276 129.942C384.127 129.917 383.968 129.905 383.802 129.905C383.404 129.905 383.049 129.988 382.736 130.155C382.427 130.319 382.182 130.546 382.001 130.837C381.824 131.125 381.735 131.453 381.735 131.822V137H380.478ZM386.059 137V128.818H387.316V137H386.059ZM386.698 127.455C386.453 127.455 386.242 127.371 386.064 127.204C385.89 127.037 385.803 126.837 385.803 126.602C385.803 126.368 385.89 126.167 386.064 126C386.242 125.833 386.453 125.75 386.698 125.75C386.943 125.75 387.153 125.833 387.327 126C387.504 126.167 387.593 126.368 387.593 126.602C387.593 126.837 387.504 127.037 387.327 127.204C387.153 127.371 386.943 127.455 386.698 127.455ZM392.921 140.239C392.314 140.239 391.792 140.161 391.355 140.004C390.918 139.852 390.554 139.649 390.263 139.397C389.975 139.148 389.746 138.882 389.576 138.598L390.577 137.895C390.691 138.044 390.835 138.214 391.009 138.406C391.183 138.602 391.421 138.77 391.722 138.912C392.028 139.058 392.427 139.131 392.921 139.131C393.581 139.131 394.127 138.971 394.556 138.651C394.986 138.332 395.201 137.831 395.201 137.149V135.487H395.094C395.002 135.636 394.87 135.821 394.7 136.041C394.533 136.258 394.292 136.451 393.976 136.622C393.663 136.789 393.241 136.872 392.708 136.872C392.047 136.872 391.454 136.716 390.929 136.403C390.407 136.091 389.993 135.636 389.688 135.04C389.386 134.443 389.235 133.719 389.235 132.866C389.235 132.028 389.382 131.299 389.677 130.677C389.972 130.052 390.382 129.569 390.907 129.228C391.433 128.884 392.04 128.712 392.729 128.712C393.262 128.712 393.684 128.8 393.997 128.978C394.313 129.152 394.554 129.351 394.721 129.575C394.892 129.795 395.023 129.976 395.116 130.118H395.243V128.818H396.458V137.234C396.458 137.938 396.298 138.509 395.978 138.95C395.662 139.393 395.236 139.718 394.7 139.924C394.167 140.134 393.574 140.239 392.921 140.239ZM392.878 135.743C393.383 135.743 393.809 135.627 394.157 135.397C394.505 135.166 394.769 134.834 394.95 134.401C395.131 133.967 395.222 133.449 395.222 132.845C395.222 132.256 395.133 131.735 394.956 131.284C394.778 130.833 394.515 130.48 394.167 130.224C393.819 129.969 393.39 129.841 392.878 129.841C392.346 129.841 391.902 129.976 391.547 130.246C391.195 130.516 390.93 130.878 390.753 131.332C390.579 131.787 390.492 132.291 390.492 132.845C390.492 133.413 390.581 133.916 390.758 134.353C390.939 134.786 391.206 135.127 391.557 135.375C391.912 135.62 392.353 135.743 392.878 135.743ZM402.189 137.17C401.401 137.17 400.721 136.996 400.149 136.648C399.581 136.297 399.142 135.807 398.834 135.178C398.528 134.546 398.375 133.811 398.375 132.973C398.375 132.135 398.528 131.396 398.834 130.757C399.142 130.114 399.572 129.614 400.123 129.255C400.677 128.893 401.323 128.712 402.062 128.712C402.488 128.712 402.908 128.783 403.324 128.925C403.739 129.067 404.118 129.298 404.459 129.617C404.799 129.933 405.071 130.352 405.274 130.874C405.476 131.396 405.577 132.039 405.577 132.803V133.335H399.27V132.249H404.299C404.299 131.787 404.206 131.375 404.022 131.013C403.841 130.651 403.581 130.365 403.244 130.155C402.91 129.946 402.516 129.841 402.062 129.841C401.561 129.841 401.128 129.965 400.762 130.214C400.4 130.459 400.121 130.778 399.926 131.173C399.73 131.567 399.633 131.989 399.633 132.44V133.165C399.633 133.783 399.739 134.306 399.952 134.736C400.169 135.162 400.469 135.487 400.852 135.711C401.236 135.931 401.682 136.041 402.189 136.041C402.52 136.041 402.818 135.995 403.084 135.903C403.354 135.807 403.587 135.665 403.782 135.477C403.977 135.285 404.128 135.047 404.235 134.763L405.449 135.104C405.321 135.516 405.107 135.878 404.805 136.19C404.503 136.499 404.13 136.741 403.686 136.915C403.242 137.085 402.743 137.17 402.189 137.17ZM407.489 137V128.818H408.704V130.054H408.789C408.938 129.649 409.208 129.321 409.599 129.069C409.989 128.816 410.43 128.69 410.92 128.69C411.012 128.69 411.128 128.692 411.266 128.696C411.405 128.699 411.509 128.705 411.58 128.712V129.99C411.538 129.979 411.44 129.963 411.287 129.942C411.138 129.917 410.98 129.905 410.813 129.905C410.416 129.905 410.06 129.988 409.748 130.155C409.439 130.319 409.194 130.546 409.013 130.837C408.835 131.125 408.747 131.453 408.747 131.822V137H407.489ZM415.478 137.192C414.96 137.192 414.489 137.094 414.067 136.899C413.644 136.7 413.308 136.414 413.06 136.041C412.811 135.665 412.687 135.21 412.687 134.678C412.687 134.209 412.779 133.829 412.964 133.538C413.149 133.243 413.395 133.012 413.704 132.845C414.013 132.678 414.354 132.554 414.727 132.472C415.104 132.387 415.482 132.32 415.862 132.27C416.359 132.206 416.762 132.158 417.071 132.126C417.383 132.091 417.611 132.032 417.753 131.95C417.898 131.869 417.971 131.727 417.971 131.524V131.482C417.971 130.956 417.827 130.548 417.54 130.256C417.256 129.965 416.824 129.82 416.245 129.82C415.645 129.82 415.175 129.951 414.834 130.214C414.493 130.477 414.253 130.757 414.115 131.055L412.921 130.629C413.134 130.132 413.419 129.745 413.774 129.468C414.132 129.187 414.523 128.992 414.945 128.882C415.372 128.768 415.791 128.712 416.203 128.712C416.465 128.712 416.767 128.744 417.108 128.808C417.453 128.868 417.785 128.994 418.104 129.186C418.427 129.377 418.695 129.667 418.909 130.054C419.122 130.441 419.228 130.96 419.228 131.609V137H417.971V135.892H417.907C417.822 136.07 417.68 136.26 417.481 136.462C417.282 136.664 417.018 136.837 416.687 136.979C416.357 137.121 415.954 137.192 415.478 137.192ZM415.67 136.062C416.167 136.062 416.586 135.965 416.927 135.77C417.271 135.574 417.531 135.322 417.705 135.013C417.882 134.704 417.971 134.379 417.971 134.038V132.888C417.918 132.952 417.801 133.01 417.619 133.064C417.442 133.113 417.236 133.158 417.002 133.197C416.771 133.232 416.545 133.264 416.325 133.293C416.108 133.317 415.933 133.339 415.798 133.357C415.471 133.399 415.166 133.468 414.882 133.564C414.601 133.657 414.374 133.797 414.2 133.985C414.029 134.17 413.944 134.422 413.944 134.741C413.944 135.178 414.106 135.509 414.429 135.732C414.756 135.952 415.169 136.062 415.67 136.062ZM424.612 137.17C423.93 137.17 423.328 136.998 422.806 136.654C422.284 136.306 421.876 135.816 421.581 135.184C421.286 134.548 421.139 133.797 421.139 132.93C421.139 132.071 421.286 131.325 421.581 130.693C421.876 130.061 422.286 129.573 422.812 129.228C423.337 128.884 423.945 128.712 424.633 128.712C425.166 128.712 425.587 128.8 425.896 128.978C426.208 129.152 426.446 129.351 426.61 129.575C426.777 129.795 426.906 129.976 426.998 130.118H427.105V126.091H428.362V137H427.148V135.743H426.998C426.906 135.892 426.775 136.08 426.604 136.308C426.434 136.531 426.191 136.732 425.875 136.909C425.559 137.083 425.138 137.17 424.612 137.17ZM424.783 136.041C425.287 136.041 425.713 135.91 426.061 135.647C426.409 135.381 426.674 135.013 426.855 134.544C427.036 134.072 427.126 133.527 427.126 132.909C427.126 132.298 427.038 131.764 426.86 131.306C426.682 130.844 426.42 130.485 426.072 130.23C425.724 129.971 425.294 129.841 424.783 129.841C424.25 129.841 423.806 129.978 423.451 130.251C423.099 130.521 422.835 130.888 422.657 131.354C422.483 131.815 422.396 132.334 422.396 132.909C422.396 133.491 422.485 134.021 422.663 134.496C422.844 134.969 423.11 135.345 423.462 135.626C423.817 135.903 424.257 136.041 424.783 136.041ZM433.247 137.192C432.728 137.192 432.258 137.094 431.835 136.899C431.413 136.7 431.077 136.414 430.828 136.041C430.58 135.665 430.456 135.21 430.456 134.678C430.456 134.209 430.548 133.829 430.733 133.538C430.917 133.243 431.164 133.012 431.473 132.845C431.782 132.678 432.123 132.554 432.496 132.472C432.872 132.387 433.25 132.32 433.63 132.27C434.127 132.206 434.53 132.158 434.839 132.126C435.152 132.091 435.379 132.032 435.521 131.95C435.667 131.869 435.74 131.727 435.74 131.524V131.482C435.74 130.956 435.596 130.548 435.308 130.256C435.024 129.965 434.593 129.82 434.014 129.82C433.414 129.82 432.943 129.951 432.602 130.214C432.261 130.477 432.022 130.757 431.883 131.055L430.69 130.629C430.903 130.132 431.187 129.745 431.542 129.468C431.901 129.187 432.291 128.992 432.714 128.882C433.14 128.768 433.559 128.712 433.971 128.712C434.234 128.712 434.536 128.744 434.877 128.808C435.221 128.868 435.553 128.994 435.873 129.186C436.196 129.377 436.464 129.667 436.677 130.054C436.89 130.441 436.997 130.96 436.997 131.609V137H435.74V135.892H435.676C435.59 136.07 435.448 136.26 435.25 136.462C435.051 136.664 434.786 136.837 434.456 136.979C434.126 137.121 433.723 137.192 433.247 137.192ZM433.438 136.062C433.936 136.062 434.355 135.965 434.696 135.77C435.04 135.574 435.299 135.322 435.473 135.013C435.651 134.704 435.74 134.379 435.74 134.038V132.888C435.686 132.952 435.569 133.01 435.388 133.064C435.21 133.113 435.005 133.158 434.77 133.197C434.539 133.232 434.314 133.264 434.094 133.293C433.877 133.317 433.701 133.339 433.566 133.357C433.24 133.399 432.934 133.468 432.65 133.564C432.37 133.657 432.142 133.797 431.968 133.985C431.798 134.17 431.713 134.422 431.713 134.741C431.713 135.178 431.874 135.509 432.197 135.732C432.524 135.952 432.938 136.062 433.438 136.062Z" fill="black"/>
<g clip-path="url(#clip0_40_21)">
<path d="M396.373 39.0809C396.561 38.8136 396.673 38.642 396.799 38.4803C397.439 37.6388 398.089 36.8039 398.726 35.9591C399.161 35.3849 399.135 34.715 398.68 34.3784C398.224 34.0385 397.604 34.2002 397.145 34.781C397.119 34.814 397.096 34.8503 397.069 34.8833C395.944 36.365 394.832 37.8599 393.683 39.3218C393.278 39.8399 393.261 40.2887 393.657 40.8035C394.842 42.3479 396.01 43.9055 397.191 45.4466C397.604 45.9845 398.251 46.1165 398.686 45.7865C399.122 45.4532 399.165 44.8031 398.756 44.2553C398.069 43.3412 397.37 42.4403 396.68 41.5295C396.587 41.4107 396.521 41.2721 396.406 41.0807C397.894 41.0807 399.29 41.0675 400.686 41.0939C400.884 41.0972 401.115 41.2457 401.267 41.3909C401.91 42.0047 402.521 42.6515 403.161 43.2686C403.653 43.7438 404.201 43.7471 404.613 43.3148C404.996 42.9122 404.993 42.3578 404.537 41.9024C403.943 41.3117 403.31 40.7573 402.617 40.1171C403.313 39.4538 403.887 38.9258 404.441 38.378C404.986 37.8368 405.029 37.2527 404.583 36.827C404.138 36.398 403.63 36.4442 403.082 36.9788C402.478 37.5695 401.891 38.18 401.283 38.7707C401.155 38.8961 400.983 39.0677 400.828 39.0677C399.379 39.0908 397.931 39.0809 396.376 39.0809H396.373ZM380.249 41.0807C379.398 42.1961 378.639 43.1828 377.89 44.1761C377.414 44.8031 377.431 45.4532 377.913 45.7997C378.371 46.1264 378.995 45.9647 379.444 45.3773C380.586 43.8824 381.718 42.3776 382.869 40.886C383.279 40.358 383.302 39.8597 382.899 39.3284C381.718 37.7807 380.549 36.2264 379.361 34.6853C378.969 34.1738 378.338 34.0583 377.913 34.3718C377.461 34.7051 377.408 35.3486 377.82 35.8964C378.48 36.7775 379.157 37.6421 379.823 38.5199C379.942 38.675 380.045 38.8433 380.213 39.0875C379.559 39.0875 379.035 39.0875 378.507 39.0875C377.556 39.0809 376.5 39.3251 375.682 38.9885C374.867 38.6552 374.289 37.7378 373.61 37.0778C373.58 37.0481 373.55 37.0184 373.52 36.9887C372.946 36.4376 372.418 36.3914 371.976 36.86C371.564 37.2956 371.61 37.8335 372.141 38.3615C372.705 38.9258 373.293 39.4703 373.949 40.0973C373.266 40.7474 372.656 41.3018 372.078 41.8859C371.597 42.3743 371.583 42.9287 372.002 43.3379C372.425 43.7537 372.956 43.7306 373.458 43.2455C374.081 42.6416 374.679 42.0113 375.306 41.414C375.461 41.2655 375.685 41.1005 375.88 41.0972C377.292 41.0708 378.705 41.084 380.262 41.084L380.249 41.0807ZM389.228 32.0024C389.228 31.4711 389.228 31.0751 389.228 30.6824C389.235 29.6264 388.968 28.4615 389.327 27.5408C389.664 26.6729 390.664 26.0591 391.364 25.3298C391.875 24.7985 391.911 24.2573 391.479 23.8283C391.05 23.4059 390.502 23.4422 389.981 23.9669C389.417 24.5345 388.879 25.1252 388.235 25.805C387.605 25.1318 387.067 24.5378 386.506 23.9669C385.991 23.4455 385.43 23.4059 385.004 23.8217C384.559 24.2573 384.595 24.782 385.11 25.3265C385.82 26.0756 386.813 26.7125 387.159 27.6002C387.519 28.5209 387.248 29.6858 387.255 30.7418C387.255 30.9959 387.262 31.25 387.255 31.5041C387.248 31.6559 387.215 31.8077 387.182 32.0387C386.103 31.2137 385.1 30.4415 384.09 29.6792C383.543 29.2667 382.902 29.2931 382.556 29.7221C382.193 30.1742 382.338 30.821 382.919 31.2533C384.427 32.3786 385.942 33.494 387.46 34.6094C388.103 35.0813 388.413 35.0813 389.05 34.5995C390.552 33.4643 392.05 32.3258 393.545 31.184C394.129 30.7385 394.291 30.1115 393.957 29.6528C393.604 29.1644 392.971 29.1545 392.337 29.6363C391.344 30.3887 390.354 31.1477 389.235 32.0024H389.228ZM389.228 48.0734C390.377 48.9512 391.393 49.7366 392.423 50.5121C392.964 50.918 393.624 50.8652 393.951 50.423C394.264 49.9973 394.145 49.3637 393.637 48.971C391.997 47.7071 390.354 46.4432 388.681 45.2189C388.493 45.0836 388.031 45.0902 387.842 45.2288C386.192 46.4465 384.572 47.7038 382.952 48.9611C382.447 49.3538 382.318 49.9808 382.622 50.4098C382.942 50.8619 383.609 50.9213 384.146 50.5187C385.061 49.8356 385.965 49.136 386.872 48.4463C386.994 48.3539 387.133 48.2813 387.341 48.1526C387.341 49.5188 387.324 50.786 387.351 52.0532C387.361 52.5119 387.252 52.8485 386.895 53.1554C386.288 53.6801 385.721 54.2543 385.146 54.8153C384.602 55.3499 384.546 55.8614 384.965 56.3135C385.387 56.7656 385.975 56.7293 386.513 56.1914C387.077 55.6271 387.625 55.0463 388.242 54.4061C388.846 55.0397 389.36 55.5974 389.895 56.1353C390.479 56.726 391.047 56.7821 391.489 56.3234C391.921 55.8779 391.855 55.3466 391.294 54.779C390.7 54.1784 390.09 53.5877 389.506 52.9772C389.374 52.8386 389.235 52.6274 389.232 52.4492C389.209 51.0368 389.219 49.6244 389.219 48.0701L389.228 48.0734Z" fill="#424242"/>
<path d="M431.406 79.5785C431.096 80.0834 430.63 80.2187 430.06 80.2121C428.535 80.189 427.01 80.2055 425.486 80.2055C425.281 80.2055 425.073 80.2055 424.803 80.2055C424.921 82.862 424.08 85.0763 422.083 86.7956C420.427 88.2212 418.47 88.6502 416.341 88.4753C414.256 88.3037 412.612 87.3071 411.312 85.7297C410.015 84.1556 409.537 82.301 409.639 80.2517H392.898C392.974 83.0138 392.053 85.3304 389.826 87.0629C388.123 88.3862 386.17 88.6106 384.117 88.472C380.573 88.2377 377.999 84.9773 377.652 80.2088H376.992C373.9 80.2088 370.811 80.2088 367.719 80.2088C366.65 80.2088 366.366 79.9217 366.366 78.8558C366.366 63.953 366.366 49.0502 366.366 34.1441C366.366 33.065 366.627 32.8043 367.719 32.8043C370.174 32.8043 372.63 32.7977 375.085 32.8076C375.86 32.8076 376.253 33.197 376.21 33.8537C376.171 34.4378 375.811 34.748 375.128 34.7513C373.118 34.7579 371.105 34.7513 369.095 34.7546C368.868 34.7546 368.643 34.7546 368.376 34.7546V60.4451H407.801V34.781C407.577 34.7711 407.352 34.7513 407.128 34.7513C405.263 34.7513 403.402 34.7513 401.538 34.7513C400.749 34.7513 400.396 34.451 400.379 33.8075C400.363 33.1343 400.726 32.8043 401.541 32.801C403.91 32.7944 406.283 32.7911 408.652 32.801C409.524 32.801 409.811 33.1112 409.814 34.0055C409.817 36.5894 409.814 39.17 409.814 41.7539C409.814 41.9816 409.814 42.2126 409.814 42.503C410.108 42.5162 410.355 42.536 410.599 42.536C413.437 42.536 416.272 42.5624 419.11 42.5294C421.417 42.503 423.113 43.4468 424.291 45.4466C426.192 48.6707 428.172 51.8486 430.076 55.0727C430.597 55.9538 430.967 56.924 431.406 57.8513V79.5752V79.5785ZM368.366 78.1595C368.505 78.1859 368.564 78.209 368.623 78.209C371.65 78.209 374.679 78.2057 377.705 78.2255C378.108 78.2255 378.177 77.9813 378.312 77.714C379.735 74.8991 382.058 73.4174 385.18 73.4141C388.301 73.4141 390.634 74.8859 392.044 77.7074C392.232 78.0803 392.42 78.2255 392.849 78.2222C398.373 78.2057 403.9 78.2057 409.425 78.2222C409.87 78.2222 410.071 78.077 410.269 77.6777C411.629 74.9552 413.883 73.4999 416.896 73.4108C419.856 73.325 422.225 74.5757 423.671 77.1926C424.143 78.0473 424.621 78.2816 425.512 78.2288C426.793 78.1562 428.08 78.209 429.393 78.209V69.7016H368.366V78.1529V78.1595ZM409.857 44.5292V67.6292H429.386C429.403 67.4906 429.429 67.3916 429.429 67.2893C429.429 64.4315 429.456 61.5737 429.409 58.7159C429.4 58.1483 429.251 57.5114 428.964 57.0263C426.766 53.3402 424.522 49.6772 422.278 46.0175C421.724 45.1133 420.866 44.5589 419.816 44.5424C416.516 44.4962 413.216 44.5259 409.86 44.5259L409.857 44.5292ZM407.821 62.4845H368.386V67.6358H407.824V62.4845H407.821ZM417.044 86.4887C420.13 86.5415 422.671 84.0764 422.737 80.9645C422.803 77.9087 420.282 75.3116 417.206 75.2654C414.048 75.2225 411.537 77.6612 411.49 80.8193C411.444 83.8982 413.929 86.4359 417.041 86.4887H417.044ZM379.682 80.882C379.685 84.0005 382.173 86.4887 385.285 86.492C388.354 86.492 390.885 83.951 390.892 80.8589C390.898 77.7602 388.374 75.2522 385.265 75.2687C382.12 75.2852 379.682 77.7404 379.685 80.8853L379.682 80.882Z" fill="#424242"/>
<path d="M396.373 39.0809C397.927 39.0809 399.376 39.0908 400.825 39.0677C400.98 39.0677 401.152 38.8961 401.28 38.7707C401.884 38.18 402.475 37.5728 403.079 36.9788C403.627 36.4442 404.135 36.398 404.58 36.827C405.026 37.2527 404.983 37.8368 404.438 38.378C403.887 38.9291 403.31 39.4571 402.613 40.1171C403.306 40.7573 403.94 41.3084 404.534 41.9024C404.989 42.3578 404.993 42.9122 404.61 43.3148C404.197 43.7471 403.65 43.7438 403.158 43.2686C402.518 42.6515 401.907 42.0047 401.264 41.3909C401.112 41.2457 400.881 41.0972 400.683 41.0939C399.287 41.0675 397.894 41.0807 396.403 41.0807C396.518 41.2721 396.584 41.4107 396.677 41.5295C397.366 42.4403 398.069 43.3412 398.752 44.2553C399.162 44.8031 399.122 45.4532 398.683 45.7865C398.251 46.1198 397.604 45.9878 397.188 45.4466C396.004 43.9022 394.839 42.3446 393.654 40.8035C393.258 40.2887 393.274 39.8399 393.68 39.3218C394.829 37.8566 395.941 36.365 397.066 34.8833C397.093 34.8503 397.116 34.814 397.142 34.781C397.597 34.2035 398.218 34.0418 398.677 34.3784C399.132 34.7183 399.158 35.3849 398.723 35.9591C398.086 36.8039 397.436 37.6388 396.796 38.4803C396.673 38.642 396.558 38.8136 396.37 39.0809H396.373Z" fill="#424242"/>
<path d="M380.25 41.0807C378.692 41.0807 377.28 41.0675 375.867 41.0939C375.672 41.0972 375.448 41.2622 375.293 41.4107C374.666 42.0113 374.069 42.6383 373.445 43.2422C372.947 43.7273 372.412 43.7504 371.99 43.3346C371.574 42.9221 371.584 42.3677 372.066 41.8826C372.643 41.2985 373.254 40.7474 373.937 40.094C373.28 39.467 372.696 38.9225 372.128 38.3582C371.6 37.8302 371.551 37.2923 371.963 36.8567C372.405 36.3914 372.937 36.4343 373.508 36.9854C373.537 37.0151 373.567 37.0448 373.597 37.0745C374.277 37.7345 374.854 38.6519 375.669 38.9852C376.488 39.3218 377.544 39.0776 378.494 39.0842C379.022 39.0875 379.547 39.0842 380.2 39.0842C380.032 38.8367 379.929 38.6717 379.811 38.5166C379.144 37.6421 378.468 36.7742 377.808 35.8931C377.398 35.3453 377.448 34.7018 377.9 34.3685C378.326 34.055 378.956 34.1738 379.349 34.682C380.537 36.2231 381.705 37.7774 382.886 39.3251C383.292 39.8564 383.266 40.3547 382.857 40.8827C381.705 42.371 380.576 43.8791 379.431 45.374C378.986 45.9581 378.362 46.1231 377.9 45.7964C377.415 45.4499 377.402 44.7998 377.877 44.1728C378.629 43.1795 379.385 42.1928 380.236 41.0774L380.25 41.0807Z" fill="#424242"/>
<path d="M389.229 31.9991C390.347 31.1444 391.337 30.3854 392.331 29.633C392.968 29.1512 393.598 29.1644 393.951 29.6495C394.284 30.1082 394.123 30.7352 393.538 31.1807C392.044 32.3225 390.545 33.461 389.044 34.5962C388.407 35.078 388.097 35.078 387.453 34.6061C385.935 33.4907 384.424 32.3753 382.912 31.25C382.332 30.8177 382.186 30.1676 382.549 29.7188C382.896 29.2898 383.536 29.2601 384.084 29.6759C385.094 30.4382 386.097 31.2104 387.176 32.0354C387.209 31.8044 387.242 31.6526 387.249 31.5008C387.259 31.2467 387.252 30.9926 387.249 30.7385C387.242 29.6825 387.513 28.5176 387.153 27.5969C386.806 26.7092 385.813 26.0723 385.104 25.3232C384.589 24.7787 384.556 24.254 384.998 23.8184C385.424 23.4026 385.988 23.4422 386.5 23.9636C387.061 24.5345 387.598 25.1285 388.229 25.8017C388.872 25.1219 389.413 24.5279 389.974 23.9636C390.496 23.4389 391.047 23.4026 391.473 23.825C391.905 24.2507 391.869 24.7952 391.357 25.3265C390.654 26.0558 389.658 26.6663 389.321 27.5375C388.961 28.4582 389.229 29.6198 389.222 30.6791C389.222 31.0751 389.222 31.4678 389.222 31.9991H389.229Z" fill="#424242"/>
<path d="M389.229 48.0701C389.229 49.6244 389.219 51.0368 389.242 52.4492C389.242 52.6274 389.38 52.8386 389.516 52.9772C390.1 53.5877 390.71 54.1751 391.304 54.779C391.869 55.3499 391.931 55.8779 391.499 56.3234C391.057 56.7821 390.489 56.726 389.905 56.1353C389.371 55.5974 388.852 55.0397 388.252 54.4061C387.635 55.0463 387.087 55.6271 386.523 56.1914C385.985 56.7293 385.394 56.7656 384.975 56.3135C384.556 55.8614 384.609 55.3499 385.156 54.8153C385.731 54.2543 386.298 53.6801 386.905 53.1554C387.262 52.8452 387.371 52.5086 387.361 52.0532C387.334 50.7893 387.351 49.5221 387.351 48.1526C387.143 48.2813 387.004 48.3539 386.882 48.4463C385.972 49.136 385.071 49.8356 384.157 50.5187C383.619 50.9213 382.952 50.8619 382.632 50.4098C382.325 49.9808 382.454 49.3538 382.962 48.9611C384.582 47.7071 386.203 46.4465 387.853 45.2288C388.041 45.0902 388.506 45.0803 388.691 45.2189C390.364 46.4432 392.007 47.7038 393.647 48.971C394.156 49.3637 394.274 49.9973 393.961 50.423C393.634 50.8685 392.974 50.918 392.433 50.5121C391.403 49.7399 390.384 48.9512 389.239 48.0734L389.229 48.0701Z" fill="#424242"/>
<path d="M388.394 44.5193C385.866 44.5028 383.896 42.5525 383.902 40.0676C383.909 37.6223 385.922 35.6291 388.364 35.6456C390.816 35.6621 392.793 37.6652 392.776 40.1171C392.76 42.5822 390.816 44.5325 388.39 44.5193H388.394ZM385.79 40.0808C385.79 41.4734 386.813 42.5558 388.136 42.5525C389.605 42.5525 390.717 41.4767 390.707 40.0709C390.7 38.6981 389.618 37.6355 388.239 37.6355C386.849 37.6355 385.793 38.6915 385.79 40.0808Z" fill="#424242"/>
<path d="M419.384 58.7225C417.883 58.7225 416.381 58.7225 414.883 58.7225C413.797 58.7225 413.372 58.31 413.372 57.2441C413.368 54.5579 413.368 51.875 413.372 49.1888C413.372 48.2846 413.688 47.9678 414.589 47.9579C415.645 47.948 416.705 47.9513 417.761 47.9579C418.813 47.9645 419.642 48.4067 420.203 49.301C421.853 51.9311 423.496 54.5645 425.13 57.2045C425.598 57.9602 425.116 58.706 424.14 58.7159C422.556 58.7324 420.968 58.7192 419.384 58.7225ZM422.384 56.6006C422.4 56.5115 422.414 56.4851 422.407 56.4719C421.153 54.4193 419.902 52.3634 418.635 50.3174C418.536 50.159 418.312 49.9907 418.14 49.9841C417.262 49.9511 416.381 49.9676 415.487 49.9676V56.6006H422.387H422.384Z" fill="#424242"/>
<path d="M385.315 77.2883C383.17 77.2883 381.503 79.0142 381.503 81.0998C381.503 83.1854 383.229 84.9113 385.315 84.9113C387.401 84.9113 389.067 83.1854 389.067 81.0998C389.067 79.0142 387.401 77.2883 385.315 77.2883ZM385.322 83.0501C384.279 83.0501 383.411 82.1855 383.411 81.1394C383.411 80.0933 384.246 79.2287 385.322 79.2287C386.397 79.2287 387.203 80.0636 387.203 81.1394C387.203 82.2152 386.368 83.0501 385.322 83.0501Z" fill="#424242"/>
<path d="M417.147 77.0672C415.002 77.0672 413.335 78.7931 413.335 80.8787C413.335 82.9643 415.061 84.6902 417.147 84.6902C419.233 84.6902 420.899 82.9643 420.899 80.8787C420.899 78.7931 419.233 77.0672 417.147 77.0672ZM417.154 82.829C416.111 82.829 415.243 81.9644 415.243 80.9183C415.243 79.8722 416.078 79.0076 417.154 79.0076C418.229 79.0076 419.035 79.8425 419.035 80.9183C419.035 81.9941 418.2 82.829 417.154 82.829Z" fill="#424242"/>
</g>
<defs>
<clipPath id="clip0_40_21">
<rect width="66" height="66" fill="white" transform="translate(366 23)"/>
</clipPath>
</defs>
</svg>
