<svg width="475" height="151" viewBox="0 0 475 151" fill="none" xmlns="http://www.w3.org/2000/svg">
<path d="M41.5925 64.3605C41.632 64.2696 41.6952 64.1827 41.711 64.0919C42.6985 58.5619 46.8974 55.0148 52.4945 54.999C57.0331 54.9871 68.8001 54.995 73.3387 54.999C74.4368 54.999 74.4328 55.3308 74.4328 56.0892C74.4328 56.8436 79.9786 57.29 78.8805 57.29C76.1945 57.29 60.7342 57.2781 58.0482 57.2781C56.2233 57.2781 54.3984 57.2663 52.5696 57.2781C47.4227 57.3137 43.8796 60.8687 43.8756 66.0037C43.8717 71.9129 43.8756 77.8221 43.8756 83.7273V84.5845H44.8039C47.798 84.5845 50.7881 84.5845 53.7822 84.5845C55.0146 84.5845 55.5795 84.94 55.5755 85.7221C55.5755 86.5081 55.0107 86.8676 53.7822 86.8676C52.1943 86.8676 50.6025 86.8676 48.9751 86.8676C48.9593 87.2073 48.9237 87.4561 48.9435 87.701C49.1805 90.5885 47.9244 91.7656 44.9974 91.6629C43.3187 91.6036 42.1692 91.0664 41.5925 89.4667C41.5925 81.0966 41.5925 72.7305 41.5925 64.3605ZM43.9033 86.9031C43.8914 87.0809 43.8717 87.227 43.8756 87.3692C43.9151 89.6444 43.4688 89.3363 46.0639 89.3087C46.2614 89.3087 46.5932 88.9453 46.6248 88.7201C46.7078 88.1513 46.6525 87.5667 46.6525 86.9031H43.9072H43.9033Z" fill="#424242"/>
<path d="M80.9581 83.8379C80.9581 76.3566 80.966 68.8793 80.9581 61.398C80.9581 58.8937 79.3781 57.3097 76.8778 57.2821C75.282 57.2623 73.6822 57.29 72.0864 57.2702C71.2806 57.2584 70.8224 56.8318 70.8066 56.1642C70.7948 55.4927 71.253 55.0148 72.039 55.0069C73.9153 54.995 75.7955 54.9397 77.6638 55.0582C80.5473 55.2399 82.7988 57.4717 83.1662 60.3512C83.2136 60.7186 83.257 61.0859 83.3005 61.4454H84.6948C84.6948 58.392 84.6948 55.394 84.6948 52.3525C82.3999 52.3525 80.1721 52.3525 77.9403 52.3525C74.571 52.3446 72.4222 50.2195 72.3906 46.858C72.3827 46.23 72.3906 45.6019 72.3906 44.9344C72.0904 44.9186 71.8692 44.8949 71.648 44.8909C70.4669 44.8791 69.9258 44.5315 69.9179 43.7652C69.91 42.9791 70.4867 42.6078 71.7033 42.6078C83.4664 42.6078 95.2334 42.6078 106.997 42.6078C107.198 42.6078 107.403 42.596 107.605 42.6157C108.312 42.671 108.778 43.1411 108.77 43.7731C108.762 44.413 108.292 44.8593 107.577 44.887C107.178 44.9028 106.779 44.887 106.286 44.887C106.286 45.6888 106.297 46.4156 106.286 47.1464C106.234 50.1326 104.054 52.309 101.075 52.3485C100.037 52.3604 98.9978 52.3485 97.955 52.3485C96.6436 52.3485 95.3322 52.3485 93.9892 52.3485C93.9892 55.4295 93.9892 58.4315 93.9892 61.4612H96.1893C96.4145 60.2999 97.082 59.577 98.2907 59.5375C99.5587 59.498 100.827 59.502 102.095 59.5375C103.102 59.5652 103.888 60.1498 104.081 61.0109C104.18 61.4493 104.188 61.9194 104.156 62.3697C104.121 62.9108 104.299 63.0846 104.856 63.1715C110.022 63.9773 114.043 68.2038 114.482 73.3862C114.656 75.4521 114.565 77.5416 114.588 79.6193C114.596 80.3461 114.588 81.0729 114.588 81.8708C115.813 81.8708 116.947 81.859 118.084 81.8708C119.072 81.8827 119.482 82.2895 119.49 83.2533C119.498 84.3672 119.514 85.4851 119.486 86.599C119.415 89.3166 117.251 91.5286 114.537 91.5878C112.132 91.6392 109.718 91.6352 107.313 91.5878C104.883 91.5444 102.841 89.8656 102.45 87.468C102.241 86.1803 102.328 84.8412 102.308 83.5259C102.288 82.2026 102.644 81.8629 103.963 81.859C104.99 81.859 106.017 81.859 107.103 81.859C107.103 80.9347 107.107 80.1249 107.103 79.3191C107.087 77.6206 107.139 75.9182 107.028 74.2276C106.921 72.6002 105.559 71.1387 104.172 71.0083C104.172 71.2651 104.172 71.5179 104.172 71.7667C104.156 73.4613 103.406 74.1999 101.692 74.2039C100.803 74.2039 99.9181 74.2039 99.0294 74.2039C97.2005 74.2039 96.8213 73.9471 96.134 72.2723C91.8601 72.2723 87.5862 72.2723 83.2452 72.2723C83.2452 73.2519 83.2452 74.1881 83.2452 75.1203C83.2452 79.5561 83.2452 83.9959 83.2452 88.4318C83.2452 90.545 82.1826 91.5918 80.0575 91.6036C79.6507 91.6036 79.2478 91.6076 78.8409 91.6036C76.9805 91.576 75.8863 90.4739 75.8666 88.6016C75.8587 88.0328 75.8666 87.4601 75.8666 86.8518H74.9146C70.0482 86.8518 65.1779 86.8518 60.3115 86.8518C60.035 86.8518 50.8552 86.9308 50.5984 86.8518C50.0217 86.6859 50.3733 86.3699 50.4286 85.7537C50.4799 85.177 50.0691 84.6635 50.634 84.5726C50.9065 84.5292 60.1653 84.5726 60.4458 84.5726C66.9633 84.5726 73.4768 84.5726 79.9943 84.5726H80.9226C80.9423 84.2685 80.966 84.0473 80.966 83.8221L80.9581 83.8379ZM74.5986 44.9265C74.6934 46.0325 74.65 47.1543 74.9107 48.201C75.2148 49.4216 76.3406 50.0654 77.731 50.0694C81.5348 50.0773 85.3347 50.0694 89.1386 50.0694C93.0175 50.0694 96.8964 50.0694 100.775 50.0694C102.892 50.0694 103.998 48.9555 104.006 46.8304C104.006 46.2221 104.006 45.6138 104.006 44.9225C94.2104 44.9225 84.5092 44.9225 74.5986 44.9225V44.9265ZM96.1538 69.926C96.1538 67.9155 96.1538 65.9049 96.1538 63.843C91.8917 63.843 87.6218 63.843 83.2965 63.843V69.926C87.5902 69.926 91.8404 69.926 96.1538 69.926ZM104.603 84.1974C104.603 85.1098 104.532 85.9946 104.619 86.8636C104.757 88.2303 105.918 89.2968 107.293 89.3205C109.698 89.36 112.108 89.364 114.513 89.3205C115.939 89.2929 117.101 88.1237 117.191 86.6977C117.243 85.8919 117.199 85.0822 117.199 84.2013C112.957 84.2013 108.814 84.2013 104.603 84.2013V84.1974ZM104.188 68.1604C104.196 68.3263 104.433 68.5672 104.619 68.6304C107.806 69.7127 109.37 71.8655 109.378 75.2309C109.386 77.4073 109.378 79.5838 109.378 81.8195H112.199C112.222 81.7839 112.278 81.7405 112.278 81.701C112.203 78.62 112.392 75.4995 111.97 72.4659C111.472 68.899 108.28 66.0945 104.729 65.4665C104.583 65.4388 104.433 65.4428 104.168 65.427C104.168 66.3987 104.145 67.2795 104.188 68.1643V68.1604ZM91.5915 61.473C91.5915 58.475 91.5915 55.473 91.5915 52.4117C90.1182 52.4117 88.6172 52.4117 87.0767 52.4117C87.0767 55.4216 87.0767 58.3999 87.0767 61.473H91.5915ZM98.5475 61.8483C98.5475 65.2018 98.5475 68.5277 98.5475 71.8971C99.6456 71.8971 100.716 71.8971 101.834 71.8971C101.834 68.5475 101.834 65.2374 101.834 61.8483H98.5475ZM78.1931 86.9031C78.1694 87.0769 78.1378 87.2231 78.1378 87.3653C78.1576 89.6563 77.8179 89.3363 80.3419 89.3126C80.5473 89.3126 80.887 88.9532 80.9226 88.7241C81.0055 88.1592 80.9502 87.5707 80.9502 86.9031C79.9825 86.9031 79.1056 86.9031 78.1931 86.9031Z" fill="#424242"/>
<path d="M84.3789 35.96C84.2762 36.9317 83.893 37.7257 82.9213 38.0812C81.9852 38.4248 81.211 38.1009 80.4802 37.4847C78.6632 35.9482 76.8225 34.4432 74.9937 32.9185C73.3702 31.5676 73.706 29.6479 75.6928 28.9093C79.9351 27.3253 84.4618 30.4537 84.4737 35.1898C84.4579 35.3083 84.4144 35.6322 84.3789 35.96ZM82.0918 35.8455C82.3407 34.2299 81.9417 32.958 80.8634 31.9429C79.6152 30.7658 78.1418 30.5011 76.3604 31.0897C78.3077 32.7092 80.1445 34.2339 82.0918 35.8455Z" fill="#424242"/>
<path d="M86.6896 23.5926C87.6376 22.1113 89.5217 22.0916 90.4381 23.5847C91.789 25.7848 93.1044 28.0047 94.396 30.2365C95.265 31.7335 94.4237 33.3333 92.7094 33.5347C89.0161 33.9653 85.6744 30.8764 85.6902 27.0409C85.6744 25.7888 86.0181 24.6393 86.6896 23.5926ZM88.629 24.9909C87.8035 26.089 87.76 27.7717 88.471 29.0949C89.1623 30.3826 90.8015 31.4215 92.3262 31.1963C91.0662 29.0831 89.8535 27.0488 88.629 24.9909Z" fill="#424242"/>
<path d="M96.0986 39.4281C94.4436 38.4288 94.4238 36.5209 96.0749 35.5176C98.1961 34.2339 100.325 32.9659 102.466 31.7098C104.168 30.7105 105.863 31.6506 105.942 33.6216C106.088 37.3109 103.126 40.3643 99.4206 40.3485C98.2277 40.3603 97.1177 40.0443 96.0986 39.4281ZM97.3626 37.4018C98.4291 38.2234 100.049 38.3063 101.376 37.5953C102.865 36.8014 103.58 35.5216 103.671 33.6453C101.475 34.9528 99.4285 36.1694 97.3626 37.4018Z" fill="#424242"/>
<path d="M72.4024 74.3777C73.3662 74.3777 74.326 74.3501 75.2898 74.3856C76.4906 74.4291 77.3241 75.2625 77.3715 76.4633C77.407 77.3481 77.4031 78.2369 77.3794 79.1217C77.3438 80.3896 76.5933 81.2665 75.3254 81.3139C73.4057 81.385 71.4781 81.385 69.5544 81.3139C68.3062 81.2665 67.532 80.3738 67.4846 79.1217C67.453 78.2882 67.457 77.4508 67.4846 76.6134C67.5281 75.2546 68.3852 74.4093 69.748 74.3738C70.6328 74.354 71.5215 74.3698 72.4063 74.3698C72.4063 74.3698 72.4063 74.3738 72.4063 74.3777H72.4024ZM75.0607 76.6964C73.2911 76.6964 71.561 76.6964 69.7954 76.6964V79.0229H75.0607V76.6964Z" fill="#424242"/>
<path d="M97.2954 27.7361C97.6233 28.0521 97.9156 28.5537 98.3066 28.6446C98.6661 28.7275 99.2586 28.4787 99.5153 28.1785C99.859 27.7756 100.025 27.1949 100.187 26.6696C100.365 26.0889 100.147 25.6031 99.5825 25.3542C98.99 25.0935 98.4607 25.2515 98.1486 25.8164C97.8445 26.3654 97.6351 26.9619 97.2954 27.7361Z" fill="#424242"/>
<path d="M89.9919 40.0246C90.1539 39.8587 90.5528 39.5901 90.7464 39.2148C91.0031 38.7132 90.4738 37.2082 89.9406 37.0068C89.5535 36.8606 88.9728 36.8646 88.6292 37.0621C88.0406 37.4018 88.1315 38.0219 88.3566 38.6144C88.7793 39.7165 89.0597 40.0325 89.9919 40.0246Z" fill="#424242"/>
<path d="M72.4183 38.3576C72.7856 38.804 72.9792 39.2227 73.2912 39.357C73.6072 39.4952 74.1049 39.4636 74.4091 39.2977C74.812 39.0765 75.1517 38.6894 75.44 38.3102C75.8271 37.8007 75.7758 37.2516 75.2978 36.8132C74.8515 36.3984 74.3024 36.355 73.8561 36.7579C73.3544 37.2121 72.9397 37.7651 72.4143 38.3576H72.4183Z" fill="#424242"/>
<path d="M38.9018 119H37.5168L41.5225 108.091H42.8861L46.8918 119H45.5069L42.2469 109.817H42.1617L38.9018 119ZM39.4131 114.739H44.9955V115.911H39.4131V114.739ZM49.6777 108.091V119H48.4206V108.091H49.6777ZM51.9802 119V110.818H53.2373V119H51.9802ZM52.6194 109.455C52.3743 109.455 52.163 109.371 51.9855 109.204C51.8115 109.037 51.7245 108.837 51.7245 108.602C51.7245 108.368 51.8115 108.167 51.9855 108C52.163 107.833 52.3743 107.75 52.6194 107.75C52.8644 107.75 53.0739 107.833 53.2479 108C53.4255 108.167 53.5142 108.368 53.5142 108.602C53.5142 108.837 53.4255 109.037 53.2479 109.204C53.0739 109.371 52.8644 109.455 52.6194 109.455ZM55.5397 119V110.818H56.7542V112.097H56.8608C57.0312 111.66 57.3064 111.321 57.6864 111.079C58.0664 110.834 58.5227 110.712 59.0554 110.712C59.5951 110.712 60.0443 110.834 60.403 111.079C60.7652 111.321 61.0475 111.66 61.25 112.097H61.3352C61.5447 111.674 61.859 111.338 62.278 111.09C62.697 110.838 63.1995 110.712 63.7855 110.712C64.517 110.712 65.1154 110.941 65.5806 111.399C66.0458 111.853 66.2784 112.562 66.2784 113.524V119H65.0213V113.524C65.0213 112.92 64.8561 112.489 64.5259 112.23C64.1956 111.971 63.8068 111.841 63.3593 111.841C62.784 111.841 62.3384 112.015 62.0223 112.363C61.7063 112.707 61.5483 113.144 61.5483 113.673V119H60.2698V113.396C60.2698 112.931 60.1189 112.556 59.8171 112.272C59.5152 111.985 59.1264 111.841 58.6505 111.841C58.3238 111.841 58.0184 111.928 57.7343 112.102C57.4538 112.276 57.2265 112.517 57.0525 112.826C56.8821 113.132 56.7968 113.485 56.7968 113.886V119H55.5397ZM72.0072 119.17C71.2189 119.17 70.5388 118.996 69.9671 118.648C69.3989 118.297 68.9604 117.807 68.6514 117.178C68.346 116.546 68.1933 115.811 68.1933 114.973C68.1933 114.135 68.346 113.396 68.6514 112.757C68.9604 112.114 69.39 111.614 69.9405 111.255C70.4945 110.893 71.1408 110.712 71.8794 110.712C72.3055 110.712 72.7263 110.783 73.1418 110.925C73.5573 111.067 73.9355 111.298 74.2764 111.617C74.6173 111.933 74.889 112.352 75.0914 112.874C75.2938 113.396 75.395 114.039 75.395 114.803V115.335H69.0882V114.249H74.1166C74.1166 113.787 74.0243 113.375 73.8396 113.013C73.6585 112.651 73.3993 112.365 73.0619 112.155C72.7281 111.946 72.3339 111.841 71.8794 111.841C71.3787 111.841 70.9454 111.965 70.5797 112.214C70.2175 112.459 69.9387 112.778 69.7434 113.173C69.5481 113.567 69.4504 113.989 69.4504 114.44V115.165C69.4504 115.783 69.557 116.306 69.77 116.736C69.9866 117.162 70.2867 117.487 70.6702 117.711C71.0538 117.931 71.4994 118.041 72.0072 118.041C72.3375 118.041 72.6358 117.995 72.9021 117.903C73.172 117.807 73.4046 117.665 73.5999 117.477C73.7952 117.285 73.9462 117.047 74.0527 116.763L75.2672 117.104C75.1393 117.516 74.9245 117.878 74.6226 118.19C74.3208 118.499 73.9479 118.741 73.504 118.915C73.0601 119.085 72.5612 119.17 72.0072 119.17ZM78.5644 114.078V119H77.3073V110.818H78.5218V112.097H78.6283C78.8201 111.681 79.1113 111.347 79.5019 111.095C79.8925 110.839 80.3968 110.712 81.0147 110.712C81.5687 110.712 82.0534 110.825 82.4689 111.053C82.8844 111.276 83.2075 111.617 83.4383 112.075C83.6692 112.53 83.7846 113.105 83.7846 113.801V119H82.5275V113.886C82.5275 113.244 82.3606 112.743 82.0268 112.384C81.693 112.022 81.2349 111.841 80.6525 111.841C80.2512 111.841 79.8925 111.928 79.5765 112.102C79.264 112.276 79.0172 112.53 78.8361 112.864C78.655 113.197 78.5644 113.602 78.5644 114.078ZM89.64 110.818V111.884H85.3999V110.818H89.64ZM86.6357 108.858H87.8928V116.656C87.8928 117.011 87.9443 117.278 88.0473 117.455C88.1538 117.629 88.2888 117.746 88.4521 117.807C88.619 117.864 88.7948 117.892 88.9794 117.892C89.1179 117.892 89.2316 117.885 89.3204 117.871C89.4091 117.853 89.4802 117.839 89.5334 117.828L89.7891 118.957C89.7039 118.989 89.5849 119.021 89.4322 119.053C89.2795 119.089 89.086 119.107 88.8516 119.107C88.4965 119.107 88.1485 119.03 87.8076 118.877C87.4702 118.725 87.1897 118.492 86.966 118.18C86.7458 117.867 86.6357 117.473 86.6357 116.997V108.858ZM94.7669 119.17C94.0283 119.17 93.3802 118.995 92.8227 118.643C92.2687 118.292 91.8354 117.8 91.5229 117.168C91.214 116.536 91.0595 115.797 91.0595 114.952C91.0595 114.099 91.214 113.355 91.5229 112.72C91.8354 112.084 92.2687 111.591 92.8227 111.239C93.3802 110.887 94.0283 110.712 94.7669 110.712C95.5055 110.712 96.1519 110.887 96.7058 111.239C97.2634 111.591 97.6966 112.084 98.0055 112.72C98.318 113.355 98.4743 114.099 98.4743 114.952C98.4743 115.797 98.318 116.536 98.0055 117.168C97.6966 117.8 97.2634 118.292 96.7058 118.643C96.1519 118.995 95.5055 119.17 94.7669 119.17ZM94.7669 118.041C95.328 118.041 95.7896 117.897 96.1519 117.61C96.5141 117.322 96.7822 116.944 96.9562 116.475C97.1302 116.006 97.2172 115.499 97.2172 114.952C97.2172 114.405 97.1302 113.895 96.9562 113.423C96.7822 112.951 96.5141 112.569 96.1519 112.278C95.7896 111.987 95.328 111.841 94.7669 111.841C94.2058 111.841 93.7442 111.987 93.382 112.278C93.0198 112.569 92.7516 112.951 92.5776 113.423C92.4036 113.895 92.3166 114.405 92.3166 114.952C92.3166 115.499 92.4036 116.006 92.5776 116.475C92.7516 116.944 93.0198 117.322 93.382 117.61C93.7442 117.897 94.2058 118.041 94.7669 118.041ZM106.189 112.651L105.059 112.97C104.988 112.782 104.884 112.599 104.745 112.422C104.61 112.24 104.426 112.091 104.191 111.974C103.957 111.857 103.657 111.798 103.291 111.798C102.79 111.798 102.373 111.914 102.039 112.145C101.709 112.372 101.544 112.661 101.544 113.013C101.544 113.325 101.657 113.572 101.885 113.753C102.112 113.934 102.467 114.085 102.95 114.206L104.165 114.504C104.896 114.682 105.441 114.953 105.8 115.319C106.159 115.681 106.338 116.148 106.338 116.72C106.338 117.189 106.203 117.608 105.933 117.977C105.667 118.347 105.294 118.638 104.814 118.851C104.335 119.064 103.777 119.17 103.142 119.17C102.307 119.17 101.617 118.989 101.07 118.627C100.523 118.265 100.177 117.736 100.031 117.04L101.224 116.741C101.338 117.182 101.553 117.512 101.869 117.732C102.188 117.952 102.606 118.062 103.121 118.062C103.706 118.062 104.172 117.938 104.516 117.69C104.864 117.437 105.038 117.136 105.038 116.784C105.038 116.5 104.939 116.262 104.74 116.07C104.541 115.875 104.236 115.729 103.824 115.634L102.46 115.314C101.711 115.136 101.16 114.861 100.809 114.488C100.461 114.112 100.287 113.641 100.287 113.077C100.287 112.615 100.416 112.207 100.676 111.852C100.938 111.496 101.295 111.218 101.746 111.015C102.201 110.813 102.716 110.712 103.291 110.712C104.101 110.712 104.736 110.889 105.198 111.244C105.663 111.599 105.993 112.068 106.189 112.651ZM113.259 122.068C113.045 122.068 112.856 122.05 112.689 122.015C112.522 121.983 112.406 121.951 112.342 121.919L112.662 120.811C112.967 120.889 113.237 120.918 113.472 120.896C113.706 120.875 113.914 120.77 114.095 120.582C114.28 120.397 114.448 120.097 114.601 119.682L114.835 119.043L111.81 110.818H113.173L115.432 117.338H115.517L117.776 110.818H119.139L115.666 120.193C115.51 120.616 115.316 120.966 115.086 121.243C114.855 121.523 114.587 121.731 114.281 121.866C113.979 122.001 113.639 122.068 113.259 122.068ZM53.5569 137V126.091H54.814V130.118H54.9205C55.0128 129.976 55.1407 129.795 55.304 129.575C55.4709 129.351 55.7089 129.152 56.0178 128.978C56.3303 128.8 56.7529 128.712 57.2856 128.712C57.9745 128.712 58.5817 128.884 59.1073 129.228C59.6329 129.573 60.043 130.061 60.3378 130.693C60.6325 131.325 60.7799 132.071 60.7799 132.93C60.7799 133.797 60.6325 134.548 60.3378 135.184C60.043 135.816 59.6346 136.306 59.1126 136.654C58.5906 136.998 57.9887 137.17 57.3069 137.17C56.7813 137.17 56.3605 137.083 56.0444 136.909C55.7284 136.732 55.4851 136.531 55.3147 136.308C55.1442 136.08 55.0128 135.892 54.9205 135.743H54.7714V137H53.5569ZM54.7927 132.909C54.7927 133.527 54.8832 134.072 55.0643 134.544C55.2454 135.013 55.51 135.381 55.858 135.647C56.206 135.91 56.6321 136.041 57.1364 136.041C57.662 136.041 58.1005 135.903 58.4521 135.626C58.8072 135.345 59.0736 134.969 59.2511 134.496C59.4322 134.021 59.5228 133.491 59.5228 132.909C59.5228 132.334 59.434 131.815 59.2564 131.354C59.0824 130.888 58.8179 130.521 58.4628 130.251C58.1112 129.978 57.6691 129.841 57.1364 129.841C56.625 129.841 56.1954 129.971 55.8473 130.23C55.4993 130.485 55.2366 130.844 55.059 131.306C54.8814 131.764 54.7927 132.298 54.7927 132.909ZM66.1332 137.17C65.3449 137.17 64.6648 136.996 64.0931 136.648C63.5249 136.297 63.0863 135.807 62.7774 135.178C62.472 134.546 62.3193 133.811 62.3193 132.973C62.3193 132.135 62.472 131.396 62.7774 130.757C63.0863 130.114 63.516 129.614 64.0665 129.255C64.6204 128.893 65.2667 128.712 66.0054 128.712C66.4315 128.712 66.8523 128.783 67.2678 128.925C67.6833 129.067 68.0615 129.298 68.4024 129.617C68.7433 129.933 69.015 130.352 69.2174 130.874C69.4198 131.396 69.521 132.039 69.521 132.803V133.335H63.2142V132.249H68.2426C68.2426 131.787 68.1503 131.375 67.9656 131.013C67.7845 130.651 67.5253 130.365 67.1879 130.155C66.8541 129.946 66.4599 129.841 66.0054 129.841C65.5047 129.841 65.0714 129.965 64.7057 130.214C64.3434 130.459 64.0647 130.778 63.8694 131.173C63.6741 131.567 63.5764 131.989 63.5764 132.44V133.165C63.5764 133.783 63.6829 134.306 63.896 134.736C64.1126 135.162 64.4127 135.487 64.7962 135.711C65.1797 135.931 65.6254 136.041 66.1332 136.041C66.4635 136.041 66.7618 135.995 67.0281 135.903C67.298 135.807 67.5306 135.665 67.7259 135.477C67.9212 135.285 68.0721 135.047 68.1787 134.763L69.3932 135.104C69.2653 135.516 69.0505 135.878 68.7486 136.19C68.4468 136.499 68.0739 136.741 67.63 136.915C67.1861 137.085 66.6872 137.17 66.1332 137.17ZM71.6037 137V126.091H72.8608V130.118H72.9674C73.0597 129.976 73.1875 129.795 73.3509 129.575C73.5178 129.351 73.7557 129.152 74.0647 128.978C74.3772 128.8 74.7998 128.712 75.3324 128.712C76.0214 128.712 76.6286 128.884 77.1542 129.228C77.6797 129.573 78.0899 130.061 78.3846 130.693C78.6794 131.325 78.8267 132.071 78.8267 132.93C78.8267 133.797 78.6794 134.548 78.3846 135.184C78.0899 135.816 77.6815 136.306 77.1595 136.654C76.6375 136.998 76.0356 137.17 75.3537 137.17C74.8282 137.17 74.4074 137.083 74.0913 136.909C73.7753 136.732 73.532 136.531 73.3616 136.308C73.1911 136.08 73.0597 135.892 72.9674 135.743H72.8182V137H71.6037ZM72.8395 132.909C72.8395 133.527 72.9301 134.072 73.1112 134.544C73.2923 135.013 73.5569 135.381 73.9049 135.647C74.2529 135.91 74.679 136.041 75.1833 136.041C75.7089 136.041 76.1474 135.903 76.499 135.626C76.8541 135.345 77.1204 134.969 77.298 134.496C77.4791 134.021 77.5696 133.491 77.5696 132.909C77.5696 132.334 77.4809 131.815 77.3033 131.354C77.1293 130.888 76.8647 130.521 76.5096 130.251C76.1581 129.978 75.716 129.841 75.1833 129.841C74.6719 129.841 74.2422 129.971 73.8942 130.23C73.5462 130.485 73.2834 130.844 73.1059 131.306C72.9283 131.764 72.8395 132.298 72.8395 132.909ZM80.7497 137V128.818H82.0068V137H80.7497ZM81.3889 127.455C81.1439 127.455 80.9326 127.371 80.755 127.204C80.581 127.037 80.494 126.837 80.494 126.602C80.494 126.368 80.581 126.167 80.755 126C80.9326 125.833 81.1439 125.75 81.3889 125.75C81.6339 125.75 81.8434 125.833 82.0174 126C82.195 126.167 82.2838 126.368 82.2838 126.602C82.2838 126.837 82.195 127.037 82.0174 127.204C81.8434 127.371 81.6339 127.455 81.3889 127.455ZM87.3987 137.17C86.7169 137.17 86.115 136.998 85.593 136.654C85.071 136.306 84.6626 135.816 84.3679 135.184C84.0731 134.548 83.9257 133.797 83.9257 132.93C83.9257 132.071 84.0731 131.325 84.3679 130.693C84.6626 130.061 85.0728 129.573 85.5983 129.228C86.1239 128.884 86.7311 128.712 87.4201 128.712C87.9527 128.712 88.3735 128.8 88.6825 128.978C88.995 129.152 89.2329 129.351 89.3963 129.575C89.5632 129.795 89.6928 129.976 89.7851 130.118H89.8916V126.091H91.1487V137H89.9343V135.743H89.7851C89.6928 135.892 89.5614 136.08 89.3909 136.308C89.2205 136.531 88.9772 136.732 88.6612 136.909C88.3451 137.083 87.9243 137.17 87.3987 137.17ZM87.5692 136.041C88.0735 136.041 88.4996 135.91 88.8476 135.647C89.1956 135.381 89.4602 135.013 89.6413 134.544C89.8224 134.072 89.913 133.527 89.913 132.909C89.913 132.298 89.8242 131.764 89.6466 131.306C89.4691 130.844 89.2063 130.485 88.8583 130.23C88.5103 129.971 88.0806 129.841 87.5692 129.841C87.0365 129.841 86.5926 129.978 86.2375 130.251C85.886 130.521 85.6214 130.888 85.4438 131.354C85.2698 131.815 85.1828 132.334 85.1828 132.909C85.1828 133.491 85.2716 134.021 85.4492 134.496C85.6303 134.969 85.8966 135.345 86.2482 135.626C86.6033 135.903 87.0436 136.041 87.5692 136.041ZM96.0333 137.192C95.5149 137.192 95.0443 137.094 94.6218 136.899C94.1992 136.7 93.8636 136.414 93.615 136.041C93.3664 135.665 93.2421 135.21 93.2421 134.678C93.2421 134.209 93.3345 133.829 93.5191 133.538C93.7038 133.243 93.9506 133.012 94.2595 132.845C94.5685 132.678 94.9094 132.554 95.2823 132.472C95.6587 132.387 96.0369 132.32 96.4169 132.27C96.914 132.206 97.3171 132.158 97.626 132.126C97.9385 132.091 98.1658 132.032 98.3078 131.95C98.4534 131.869 98.5262 131.727 98.5262 131.524V131.482C98.5262 130.956 98.3824 130.548 98.0948 130.256C97.8107 129.965 97.3792 129.82 96.8004 129.82C96.2002 129.82 95.7297 129.951 95.3888 130.214C95.0479 130.477 94.8082 130.757 94.6697 131.055L93.4765 130.629C93.6896 130.132 93.9737 129.745 94.3288 129.468C94.6875 129.187 95.0781 128.992 95.5007 128.882C95.9268 128.768 96.3458 128.712 96.7578 128.712C97.0206 128.712 97.3224 128.744 97.6633 128.808C98.0078 128.868 98.3398 128.994 98.6594 129.186C98.9826 129.377 99.2507 129.667 99.4637 130.054C99.6768 130.441 99.7833 130.96 99.7833 131.609V137H98.5262V135.892H98.4623C98.3771 136.07 98.235 136.26 98.0362 136.462C97.8373 136.664 97.5728 136.837 97.2425 136.979C96.9122 137.121 96.5092 137.192 96.0333 137.192ZM96.2251 136.062C96.7223 136.062 97.1413 135.965 97.4822 135.77C97.8267 135.574 98.0859 135.322 98.2599 135.013C98.4375 134.704 98.5262 134.379 98.5262 134.038V132.888C98.473 132.952 98.3558 133.01 98.1747 133.064C97.9971 133.113 97.7911 133.158 97.5568 133.197C97.3259 133.232 97.1005 133.264 96.8803 133.293C96.6637 133.317 96.4879 133.339 96.3529 133.357C96.0262 133.399 95.7208 133.468 95.4367 133.564C95.1562 133.657 94.9289 133.797 94.7549 133.985C94.5845 134.17 94.4992 134.422 94.4992 134.741C94.4992 135.178 94.6608 135.509 94.984 135.732C95.3107 135.952 95.7244 136.062 96.2251 136.062ZM107.873 130.651L106.744 130.97C106.673 130.782 106.568 130.599 106.43 130.422C106.295 130.24 106.11 130.091 105.876 129.974C105.641 129.857 105.341 129.798 104.976 129.798C104.475 129.798 104.058 129.914 103.724 130.145C103.394 130.372 103.228 130.661 103.228 131.013C103.228 131.325 103.342 131.572 103.569 131.753C103.797 131.934 104.152 132.085 104.635 132.206L105.849 132.504C106.581 132.682 107.126 132.953 107.484 133.319C107.843 133.681 108.022 134.148 108.022 134.72C108.022 135.189 107.887 135.608 107.618 135.977C107.351 136.347 106.978 136.638 106.499 136.851C106.02 137.064 105.462 137.17 104.826 137.17C103.992 137.17 103.301 136.989 102.754 136.627C102.207 136.265 101.861 135.736 101.716 135.04L102.909 134.741C103.022 135.182 103.237 135.512 103.553 135.732C103.873 135.952 104.29 136.062 104.805 136.062C105.391 136.062 105.856 135.938 106.201 135.69C106.549 135.437 106.723 135.136 106.723 134.784C106.723 134.5 106.623 134.262 106.424 134.07C106.226 133.875 105.92 133.729 105.508 133.634L104.145 133.314C103.395 133.136 102.845 132.861 102.493 132.488C102.145 132.112 101.971 131.641 101.971 131.077C101.971 130.615 102.101 130.207 102.36 129.852C102.623 129.496 102.98 129.218 103.431 129.015C103.885 128.813 104.4 128.712 104.976 128.712C105.785 128.712 106.421 128.889 106.883 129.244C107.348 129.599 107.678 130.068 107.873 130.651Z" fill="black"/>
<path d="M204.091 63.0226C204.226 62.5663 204.336 62.0991 204.5 61.6538C205.635 58.5039 207.906 56.7446 211.242 56.1861C211.253 56.062 211.285 55.8868 211.289 55.7116C211.293 54.2626 211.3 52.8135 211.289 51.3645C211.278 50.0505 210.523 49.2183 209.22 49.0504C209.106 49.0358 208.99 49.0248 208.88 49.0029C208.212 48.8533 207.836 48.3459 207.917 47.7072C207.99 47.1013 208.442 46.718 209.11 46.6961C211.373 46.6231 213.516 48.5613 213.621 50.8608C213.691 52.3536 213.647 53.8501 213.654 55.3466C213.654 55.5912 213.654 55.8394 213.654 56.1241H215.476C215.476 55.1787 215.476 54.2443 215.476 53.3136C215.476 51.9229 215.797 51.6017 217.177 51.6017C219.892 51.6017 222.604 51.6017 225.32 51.6017C226.51 51.6017 226.871 51.974 226.871 53.1785C226.871 54.1421 226.871 55.1021 226.871 56.1131H229.181C229.181 55.8576 229.181 55.6094 229.181 55.3649C229.181 53.1092 229.178 50.8571 229.181 48.6014C229.181 47.4809 229.601 47.0721 230.733 47.0648C232.412 47.0538 234.091 47.0721 235.77 47.0319C236.036 47.0246 236.394 46.8531 236.54 46.6414C240.931 40.3707 245.303 34.089 249.665 27.7964C249.822 27.5701 249.899 27.2562 249.921 26.9752C250.121 24.6136 251.257 22.8653 253.439 21.9455C255.629 21.022 257.659 21.4491 259.484 22.9748C259.75 23.1974 260.159 23.358 260.506 23.3617C264.024 23.3909 267.543 23.3617 271.062 23.3909C272.704 23.4055 274.095 24.4822 274.587 26.0079C275.087 27.5665 274.551 29.2674 273.23 30.2529C272.525 30.7785 271.726 31.0194 270.846 31.0121C269.536 31.0048 268.225 31.0194 266.915 31.0267C266.875 31.0267 266.835 31.0668 266.725 31.1252C266.725 31.3114 266.725 31.534 266.725 31.7603C266.725 34.6584 266.736 37.5565 266.714 40.4546C266.711 40.951 266.864 41.1518 267.342 41.3124C270.788 42.484 272.31 46.3676 270.613 49.5833C270.529 49.7439 270.437 49.9008 270.324 50.1016C271.08 50.6929 271.802 51.2915 272.562 51.839C273.098 52.2259 273.325 52.7113 273.31 53.3647C273.284 54.4925 273.328 55.6204 273.292 56.7446C273.277 57.1424 273.186 57.5731 273.014 57.9308C271.339 61.4056 269.634 64.8658 267.959 68.3443C267.631 69.0305 267.152 69.3626 266.393 69.3334C265.751 69.3079 265.105 69.3298 264.462 69.3261C263.853 69.3261 263.418 69.067 263.145 68.5049C261.407 64.9315 259.655 61.3655 257.929 57.7848C257.776 57.4673 257.713 57.0804 257.706 56.7227C257.677 55.6204 257.713 54.5144 257.692 53.4121C257.677 52.7332 257.907 52.2259 258.469 51.8244C259.232 51.2805 259.962 50.6856 260.725 50.0979C259.765 48.5613 259.436 46.9516 259.933 45.2434C260.513 43.2469 261.823 41.9146 263.794 41.254C264.112 41.1481 264.302 41.0605 264.302 40.6663C264.283 37.5383 264.291 34.4102 264.287 31.2822C264.287 31.2165 264.258 31.1508 264.225 31.0084C262.842 31.0084 261.444 31.0011 260.049 31.023C259.9 31.023 259.754 31.2128 259.601 31.3004C258.794 31.764 257.976 32.2129 257.177 32.6947C256.925 32.8444 256.626 33.0305 256.509 33.2787C253.925 38.8121 251.359 44.3565 248.811 49.9118C248.702 50.149 248.731 50.5396 248.851 50.7805C249.359 51.8098 249.665 52.8683 249.662 54.0217C249.654 59.566 249.662 65.1067 249.658 70.6511C249.658 71.757 249.286 72.1184 248.154 72.1184C246.293 72.1184 244.431 72.1184 242.522 72.1184V74.7208C243.464 74.7208 244.38 74.7208 245.293 74.7208C250.07 74.7281 253.779 78.1372 254.166 82.8713C254.523 87.244 251.333 91.2042 246.796 92.0218C246.687 92.0401 246.581 92.0948 246.475 92.135H211.683C211.559 92.0912 211.435 92.0291 211.304 92.0036C208.563 91.4853 206.478 90.018 205.168 87.5688C204.668 86.6344 204.442 85.5577 204.091 84.543C204.091 83.7619 204.091 82.9771 204.091 82.196C204.131 82.1157 204.19 82.0427 204.208 81.9588C205.124 77.4839 208.515 74.7208 213.096 74.7208C213.961 74.7208 214.83 74.7208 215.731 74.7208V72.1184C215.425 72.1184 215.176 72.1184 214.925 72.1184C211.848 72.1184 208.774 72.1038 205.697 72.1293C205.026 72.1366 204.489 71.9797 204.091 71.4322C204.091 68.6253 204.091 65.8185 204.091 63.0116V63.0226ZM229.09 89.6822C234.54 89.6822 239.989 89.7077 245.439 89.6749C249.742 89.6493 252.702 85.5759 251.417 81.5171C250.563 78.8234 248.161 77.1481 245.077 77.1481C234.43 77.1408 223.783 77.1444 213.14 77.1481C212.771 77.1481 212.406 77.1809 212.037 77.2174C208.457 77.5897 205.891 81.1375 206.646 84.6707C207.289 87.6747 209.745 89.6712 212.877 89.6785C218.279 89.6931 223.685 89.6822 229.087 89.6785L229.09 89.6822ZM233.696 65.2527C233.696 64.8914 233.696 64.6176 233.696 64.3439C233.696 60.6172 233.696 56.8942 233.696 53.1676C233.696 51.974 234.08 51.5944 235.266 51.5908C237.635 51.5908 240.004 51.5908 242.373 51.5908C244.263 51.5908 245.106 52.4303 245.106 54.3283C245.11 57.7082 245.106 61.0881 245.106 64.4716C245.106 64.7162 245.106 64.9644 245.106 65.2308H247.395C247.395 64.9425 247.395 64.7162 247.395 64.4899C247.395 61.0625 247.395 57.6352 247.395 54.2115C247.395 51.255 245.482 49.3497 242.508 49.346C239.058 49.3424 235.609 49.346 232.16 49.346C231.937 49.346 231.711 49.3643 231.419 49.3789V50.1563C231.419 52.4084 231.419 54.6641 231.419 56.9161C231.419 58.1936 231.156 58.4637 229.9 58.4637C227.623 58.4637 225.345 58.4637 223.071 58.4637H222.341V65.2564H233.689L233.696 65.2527ZM247.366 67.6106H206.365V69.8116H247.366V67.6106ZM248.833 44.028C250.596 40.2064 252.319 36.4652 253.969 32.8882C252.852 32.0706 251.815 31.3114 250.724 30.512C246.953 35.9286 243.106 41.4511 239.135 47.156C240.142 47.156 240.945 47.0867 241.734 47.1779C242.438 47.2619 242.756 47.0027 243.019 46.3895C243.431 45.4186 243.927 44.4842 244.402 43.5425C244.84 42.6702 245.373 42.4767 246.26 42.8673C247.096 43.2359 247.924 43.6228 248.837 44.0353L248.833 44.028ZM236.04 53.9414V65.2454H242.778V53.9414H236.04ZM240.08 72.1695H218.188V74.6807H240.08V72.1695ZM206.409 65.2491H215.41V58.4637C214.249 58.4637 213.147 58.4564 212.048 58.4637C208.46 58.4966 205.851 61.5991 206.409 65.2454V65.2491ZM264.119 65.0082C264.174 64.9972 264.225 64.9863 264.28 64.979C264.28 64.3183 264.309 63.6577 264.273 63.0007C264.196 61.6721 264.291 60.3982 265.145 59.2777C265.262 59.1244 265.236 58.7338 265.119 58.5513C264.375 57.3724 264.159 56.0985 264.269 54.7334C264.316 54.1421 264.298 53.5399 264.265 52.9449C264.254 52.7624 264.13 52.4923 263.984 52.4266C262.517 51.7587 262.513 51.7696 261.247 52.7588C260.977 52.9705 260.699 53.1749 260.436 53.4012C260.32 53.4997 260.152 53.6384 260.152 53.7589C260.152 54.832 259.878 56.0328 260.265 56.9563C261.407 59.6974 262.813 62.3327 264.116 65.0082H264.119ZM255.662 30.4755C257.484 30.4682 258.951 29.0009 258.951 27.1832C258.951 25.3692 257.473 23.9019 255.648 23.9055C253.819 23.9092 252.37 25.3655 252.374 27.2015C252.374 29.0374 253.826 30.4828 255.659 30.4755H255.662ZM266.714 64.9607C266.762 64.9717 266.809 64.979 266.857 64.9899C266.959 64.7928 267.068 64.5994 267.167 64.3986C268.16 62.3802 269.12 60.3471 270.16 58.3542C270.697 57.3286 270.89 56.292 270.919 55.1386C270.948 54.0399 270.631 53.3318 269.733 52.6821C268.948 52.1127 268.298 51.6017 267.364 52.2952C267.262 52.3719 267.083 52.35 266.981 52.4266C266.868 52.5069 266.722 52.6529 266.729 52.7661C266.795 54.4597 266.342 56.2263 267.448 57.7702C268.069 58.6353 267.97 59.4602 267.364 60.3106C267.079 60.7085 266.784 61.1939 266.747 61.6611C266.656 62.7561 266.718 63.8621 266.718 64.9607H266.714ZM265.506 50.1892C267.364 50.1855 268.864 48.6781 268.868 46.8129C268.872 44.9441 267.382 43.433 265.524 43.4257C263.648 43.4184 262.093 44.9697 262.108 46.8348C262.123 48.6781 263.656 50.1928 265.506 50.1892ZM261.298 28.614C262.747 28.614 264.189 28.614 265.634 28.614C267.379 28.614 269.127 28.6323 270.872 28.6031C271.759 28.5885 272.35 27.9862 272.35 27.1978C272.35 26.4313 271.777 25.7926 270.948 25.7889C267.755 25.767 264.565 25.7853 261.371 25.7889C261.331 25.7889 261.29 25.8291 261.298 25.8254V28.614ZM217.786 56.1022H224.557V53.956H217.786V56.1022ZM220.009 58.5221H217.797V65.2272H220.009V58.5221ZM245.143 47.5028C245.734 47.7948 246.274 48.0612 246.844 48.3386C247.172 47.6269 247.483 46.948 247.818 46.2216C247.245 45.9588 246.712 45.7179 246.147 45.4624C245.796 46.1742 245.475 46.8275 245.143 47.5064V47.5028Z" fill="#424242"/>
<path d="M217.213 83.4443C217.213 85.9008 215.246 87.8681 212.793 87.8681C210.344 87.8681 208.369 85.8898 208.369 83.4443C208.369 80.9879 210.336 79.0242 212.793 79.0242C215.249 79.0242 217.213 80.9879 217.213 83.4443ZM214.789 83.3859C214.771 82.3274 213.83 81.4113 212.782 81.4295C211.665 81.4478 210.785 82.3603 210.807 83.4772C210.829 84.5722 211.705 85.4226 212.804 85.4153C213.924 85.4117 214.808 84.5101 214.789 83.3859Z" fill="#424242"/>
<path d="M223.688 79.0242C226.145 79.0242 228.112 80.9915 228.112 83.4443C228.112 85.8935 226.137 87.8681 223.688 87.8681C221.235 87.8681 219.268 85.8935 219.268 83.4407C219.268 80.9806 221.232 79.0205 223.688 79.0205V79.0242ZM223.779 81.4332C222.71 81.3748 221.776 82.2143 221.699 83.302C221.622 84.386 222.447 85.3314 223.528 85.408C224.67 85.4883 225.604 84.678 225.667 83.5538C225.732 82.4223 224.907 81.4952 223.779 81.4332Z" fill="#424242"/>
<path d="M234.594 79.0242C237.036 79.0351 239.015 81.0317 239 83.4699C238.985 85.9008 236.978 87.8791 234.536 87.8681C232.091 87.8572 230.138 85.8752 230.149 83.4151C230.163 80.955 232.127 79.0132 234.591 79.0242H234.594ZM236.536 83.437C236.536 82.3128 235.631 81.4076 234.525 81.4259C233.456 81.4441 232.55 82.353 232.543 83.4188C232.536 84.5174 233.456 85.4226 234.576 85.4117C235.671 85.4007 236.533 84.532 236.536 83.4334V83.437Z" fill="#424242"/>
<path d="M241.044 83.448C241.037 80.9806 242.986 79.0242 245.457 79.0242C247.855 79.0242 249.87 81.0317 249.866 83.4151C249.862 85.8533 247.851 87.8608 245.428 87.8499C243.011 87.8389 241.055 85.8716 241.048 83.448H241.044ZM245.373 85.4117C246.475 85.4445 247.384 84.616 247.431 83.5319C247.483 82.3822 246.592 81.4368 245.446 81.4222C244.398 81.4113 243.471 82.3201 243.442 83.3896C243.409 84.4517 244.296 85.3752 245.377 85.408L245.373 85.4117Z" fill="#424242"/>
<path d="M265.452 47.9919C264.813 47.97 264.284 47.4188 264.291 46.7874C264.298 46.1267 264.871 45.5938 265.55 45.6157C266.193 45.6376 266.718 46.1815 266.711 46.8166C266.7 47.4809 266.127 48.0174 265.455 47.9919H265.452Z" fill="#424242"/>
<path d="M205.926 108.091H207.503L211.211 117.146H211.338L215.046 108.091H216.623V119H215.387V110.712H215.28L211.871 119H210.678L207.269 110.712H207.162V119H205.926V108.091ZM219.101 119V110.818H220.358V119H219.101ZM219.74 109.455C219.495 109.455 219.284 109.371 219.106 109.204C218.932 109.037 218.845 108.837 218.845 108.602C218.845 108.368 218.932 108.167 219.106 108C219.284 107.833 219.495 107.75 219.74 107.75C219.985 107.75 220.195 107.833 220.369 108C220.546 108.167 220.635 108.368 220.635 108.602C220.635 108.837 220.546 109.037 220.369 109.204C220.195 109.371 219.985 109.455 219.74 109.455ZM223.917 114.078V119H222.66V110.818H223.875V112.097H223.981C224.173 111.681 224.464 111.347 224.855 111.095C225.246 110.839 225.75 110.712 226.368 110.712C226.922 110.712 227.406 110.825 227.822 111.053C228.237 111.276 228.561 111.617 228.791 112.075C229.022 112.53 229.138 113.105 229.138 113.801V119H227.881V113.886C227.881 113.244 227.714 112.743 227.38 112.384C227.046 112.022 226.588 111.841 226.006 111.841C225.604 111.841 225.246 111.928 224.93 112.102C224.617 112.276 224.37 112.53 224.189 112.864C224.008 113.197 223.917 113.602 223.917 114.078ZM234.865 119.17C234.077 119.17 233.397 118.996 232.825 118.648C232.257 118.297 231.818 117.807 231.509 117.178C231.204 116.546 231.051 115.811 231.051 114.973C231.051 114.135 231.204 113.396 231.509 112.757C231.818 112.114 232.248 111.614 232.798 111.255C233.352 110.893 233.999 110.712 234.737 110.712C235.163 110.712 235.584 110.783 236 110.925C236.415 111.067 236.793 111.298 237.134 111.617C237.475 111.933 237.747 112.352 237.949 112.874C238.152 113.396 238.253 114.039 238.253 114.803V115.335H231.946V114.249H236.975C236.975 113.787 236.882 113.375 236.698 113.013C236.516 112.651 236.257 112.365 235.92 112.155C235.586 111.946 235.192 111.841 234.737 111.841C234.237 111.841 233.803 111.965 233.438 112.214C233.075 112.459 232.797 112.778 232.601 113.173C232.406 113.567 232.308 113.989 232.308 114.44V115.165C232.308 115.783 232.415 116.306 232.628 116.736C232.845 117.162 233.145 117.487 233.528 117.711C233.912 117.931 234.357 118.041 234.865 118.041C235.195 118.041 235.494 117.995 235.76 117.903C236.03 117.807 236.263 117.665 236.458 117.477C236.653 117.285 236.804 117.047 236.911 116.763L238.125 117.104C237.997 117.516 237.782 117.878 237.481 118.19C237.179 118.499 236.806 118.741 236.362 118.915C235.918 119.085 235.419 119.17 234.865 119.17ZM240.165 119V110.818H241.38V112.054H241.465C241.614 111.649 241.884 111.321 242.275 111.069C242.665 110.816 243.106 110.69 243.596 110.69C243.688 110.69 243.803 110.692 243.942 110.696C244.08 110.699 244.185 110.705 244.256 110.712V111.99C244.214 111.979 244.116 111.963 243.963 111.942C243.814 111.917 243.656 111.905 243.489 111.905C243.091 111.905 242.736 111.988 242.424 112.155C242.115 112.319 241.87 112.546 241.689 112.837C241.511 113.125 241.422 113.453 241.422 113.822V119H240.165ZM245.746 119V110.818H247.003V119H245.746ZM245.81 109.71L247.11 107.239H248.58L246.918 109.71H245.81ZM251.714 119.192C251.195 119.192 250.725 119.094 250.302 118.899C249.879 118.7 249.544 118.414 249.295 118.041C249.047 117.665 248.922 117.21 248.922 116.678C248.922 116.209 249.015 115.829 249.199 115.538C249.384 115.243 249.631 115.012 249.94 114.845C250.249 114.678 250.59 114.554 250.962 114.472C251.339 114.387 251.717 114.32 252.097 114.27C252.594 114.206 252.997 114.158 253.306 114.126C253.619 114.091 253.846 114.032 253.988 113.95C254.134 113.869 254.206 113.727 254.206 113.524V113.482C254.206 112.956 254.063 112.548 253.775 112.256C253.491 111.965 253.059 111.82 252.481 111.82C251.88 111.82 251.41 111.951 251.069 112.214C250.728 112.477 250.488 112.757 250.35 113.055L249.157 112.629C249.37 112.132 249.654 111.745 250.009 111.468C250.368 111.187 250.758 110.992 251.181 110.882C251.607 110.768 252.026 110.712 252.438 110.712C252.701 110.712 253.003 110.744 253.343 110.808C253.688 110.868 254.02 110.994 254.34 111.186C254.663 111.377 254.931 111.667 255.144 112.054C255.357 112.441 255.464 112.96 255.464 113.609V119H254.206V117.892H254.142C254.057 118.07 253.915 118.26 253.716 118.462C253.517 118.664 253.253 118.837 252.923 118.979C252.592 119.121 252.189 119.192 251.714 119.192ZM251.905 118.062C252.402 118.062 252.821 117.965 253.162 117.77C253.507 117.574 253.766 117.322 253.94 117.013C254.118 116.704 254.206 116.379 254.206 116.038V114.888C254.153 114.952 254.036 115.01 253.855 115.064C253.677 115.113 253.471 115.158 253.237 115.197C253.006 115.232 252.781 115.264 252.56 115.293C252.344 115.317 252.168 115.339 252.033 115.357C251.706 115.399 251.401 115.468 251.117 115.564C250.836 115.657 250.609 115.797 250.435 115.985C250.265 116.17 250.179 116.422 250.179 116.741C250.179 117.178 250.341 117.509 250.664 117.732C250.991 117.952 251.405 118.062 251.905 118.062ZM262.786 122.068C262.573 122.068 262.383 122.05 262.216 122.015C262.05 121.983 261.934 121.951 261.87 121.919L262.19 120.811C262.495 120.889 262.765 120.918 262.999 120.896C263.234 120.875 263.442 120.77 263.623 120.582C263.807 120.397 263.976 120.097 264.129 119.682L264.363 119.043L261.338 110.818H262.701L264.96 117.338H265.045L267.303 110.818H268.667L265.194 120.193C265.038 120.616 264.844 120.966 264.613 121.243C264.383 121.523 264.115 121.731 263.809 121.866C263.507 122.001 263.166 122.068 262.786 122.068ZM202.936 137V128.818H204.151V130.097H204.257C204.428 129.66 204.703 129.321 205.083 129.079C205.463 128.834 205.919 128.712 206.452 128.712C206.992 128.712 207.441 128.834 207.799 129.079C208.162 129.321 208.444 129.66 208.646 130.097H208.732C208.941 129.674 209.255 129.338 209.674 129.09C210.094 128.838 210.596 128.712 211.182 128.712C211.913 128.712 212.512 128.941 212.977 129.399C213.442 129.853 213.675 130.562 213.675 131.524V137H212.418V131.524C212.418 130.92 212.253 130.489 211.922 130.23C211.592 129.971 211.203 129.841 210.756 129.841C210.181 129.841 209.735 130.015 209.419 130.363C209.103 130.707 208.945 131.144 208.945 131.673V137H207.666V131.396C207.666 130.931 207.515 130.556 207.214 130.272C206.912 129.985 206.523 129.841 206.047 129.841C205.72 129.841 205.415 129.928 205.131 130.102C204.85 130.276 204.623 130.517 204.449 130.826C204.279 131.132 204.193 131.485 204.193 131.886V137H202.936ZM219.404 137.17C218.615 137.17 217.935 136.996 217.364 136.648C216.795 136.297 216.357 135.807 216.048 135.178C215.742 134.546 215.59 133.811 215.59 132.973C215.59 132.135 215.742 131.396 216.048 130.757C216.357 130.114 216.787 129.614 217.337 129.255C217.891 128.893 218.537 128.712 219.276 128.712C219.702 128.712 220.123 128.783 220.538 128.925C220.954 129.067 221.332 129.298 221.673 129.617C222.014 129.933 222.285 130.352 222.488 130.874C222.69 131.396 222.792 132.039 222.792 132.803V133.335H216.485V132.249H221.513C221.513 131.787 221.421 131.375 221.236 131.013C221.055 130.651 220.796 130.365 220.458 130.155C220.125 129.946 219.73 129.841 219.276 129.841C218.775 129.841 218.342 129.965 217.976 130.214C217.614 130.459 217.335 130.778 217.14 131.173C216.945 131.567 216.847 131.989 216.847 132.44V133.165C216.847 133.783 216.953 134.306 217.167 134.736C217.383 135.162 217.683 135.487 218.067 135.711C218.45 135.931 218.896 136.041 219.404 136.041C219.734 136.041 220.032 135.995 220.299 135.903C220.568 135.807 220.801 135.665 220.996 135.477C221.192 135.285 221.343 135.047 221.449 134.763L222.664 135.104C222.536 135.516 222.321 135.878 222.019 136.19C221.717 136.499 221.344 136.741 220.901 136.915C220.457 137.085 219.958 137.17 219.404 137.17ZM228.262 128.818V129.884H224.022V128.818H228.262ZM225.258 126.858H226.515V134.656C226.515 135.011 226.566 135.278 226.669 135.455C226.776 135.629 226.911 135.746 227.074 135.807C227.241 135.864 227.417 135.892 227.602 135.892C227.74 135.892 227.854 135.885 227.942 135.871C228.031 135.853 228.102 135.839 228.155 135.828L228.411 136.957C228.326 136.989 228.207 137.021 228.054 137.053C227.902 137.089 227.708 137.107 227.474 137.107C227.119 137.107 226.771 137.03 226.43 136.877C226.092 136.725 225.812 136.492 225.588 136.18C225.368 135.867 225.258 135.473 225.258 134.997V126.858ZM232.561 137.192C232.042 137.192 231.572 137.094 231.149 136.899C230.727 136.7 230.391 136.414 230.142 136.041C229.894 135.665 229.769 135.21 229.769 134.678C229.769 134.209 229.862 133.829 230.046 133.538C230.231 133.243 230.478 133.012 230.787 132.845C231.096 132.678 231.437 132.554 231.81 132.472C232.186 132.387 232.564 132.32 232.944 132.27C233.441 132.206 233.844 132.158 234.153 132.126C234.466 132.091 234.693 132.032 234.835 131.95C234.981 131.869 235.054 131.727 235.054 131.524V131.482C235.054 130.956 234.91 130.548 234.622 130.256C234.338 129.965 233.907 129.82 233.328 129.82C232.728 129.82 232.257 129.951 231.916 130.214C231.575 130.477 231.336 130.757 231.197 131.055L230.004 130.629C230.217 130.132 230.501 129.745 230.856 129.468C231.215 129.187 231.605 128.992 232.028 128.882C232.454 128.768 232.873 128.712 233.285 128.712C233.548 128.712 233.85 128.744 234.191 128.808C234.535 128.868 234.867 128.994 235.187 129.186C235.51 129.377 235.778 129.667 235.991 130.054C236.204 130.441 236.311 130.96 236.311 131.609V137H235.054V135.892H234.99C234.904 136.07 234.762 136.26 234.564 136.462C234.365 136.664 234.1 136.837 233.77 136.979C233.44 137.121 233.037 137.192 232.561 137.192ZM232.752 136.062C233.25 136.062 233.669 135.965 234.01 135.77C234.354 135.574 234.613 135.322 234.787 135.013C234.965 134.704 235.054 134.379 235.054 134.038V132.888C235 132.952 234.883 133.01 234.702 133.064C234.524 133.113 234.318 133.158 234.084 133.197C233.853 133.232 233.628 133.264 233.408 133.293C233.191 133.317 233.015 133.339 232.88 133.357C232.554 133.399 232.248 133.468 231.964 133.564C231.684 133.657 231.456 133.797 231.282 133.985C231.112 134.17 231.027 134.422 231.027 134.741C231.027 135.178 231.188 135.509 231.511 135.732C231.838 135.952 232.252 136.062 232.752 136.062ZM239.862 126.091V137H238.605V126.091H239.862ZM247.321 133.655V128.818H248.578V137H247.321V135.615H247.236C247.044 136.031 246.746 136.384 246.341 136.675C245.936 136.963 245.425 137.107 244.807 137.107C244.295 137.107 243.841 136.995 243.443 136.771C243.045 136.544 242.733 136.203 242.506 135.748C242.278 135.29 242.165 134.713 242.165 134.017V128.818H243.422V133.932C243.422 134.528 243.589 135.004 243.923 135.359C244.26 135.714 244.69 135.892 245.212 135.892C245.524 135.892 245.842 135.812 246.165 135.652C246.492 135.493 246.765 135.248 246.985 134.917C247.209 134.587 247.321 134.166 247.321 133.655ZM244.807 127.71L246.106 125.239H247.577L245.915 127.71H244.807ZM250.881 137V128.818H252.095V130.054H252.18C252.329 129.649 252.599 129.321 252.99 129.069C253.381 128.816 253.821 128.69 254.311 128.69C254.403 128.69 254.519 128.692 254.657 128.696C254.796 128.699 254.9 128.705 254.971 128.712V129.99C254.929 129.979 254.831 129.963 254.678 129.942C254.529 129.917 254.371 129.905 254.204 129.905C253.807 129.905 253.452 129.988 253.139 130.155C252.83 130.319 252.585 130.546 252.404 130.837C252.226 131.125 252.138 131.453 252.138 131.822V137H250.881ZM259.515 140.239C258.908 140.239 258.386 140.161 257.949 140.004C257.512 139.852 257.148 139.649 256.857 139.397C256.569 139.148 256.34 138.882 256.17 138.598L257.171 137.895C257.285 138.044 257.429 138.214 257.603 138.406C257.777 138.602 258.015 138.77 258.317 138.912C258.622 139.058 259.022 139.131 259.515 139.131C260.176 139.131 260.721 138.971 261.15 138.651C261.58 138.332 261.795 137.831 261.795 137.149V135.487H261.688C261.596 135.636 261.465 135.821 261.294 136.041C261.127 136.258 260.886 136.451 260.57 136.622C260.257 136.789 259.835 136.872 259.302 136.872C258.642 136.872 258.049 136.716 257.523 136.403C257.001 136.091 256.587 135.636 256.282 135.04C255.98 134.443 255.829 133.719 255.829 132.866C255.829 132.028 255.976 131.299 256.271 130.677C256.566 130.052 256.976 129.569 257.502 129.228C258.027 128.884 258.634 128.712 259.323 128.712C259.856 128.712 260.279 128.8 260.591 128.978C260.907 129.152 261.149 129.351 261.316 129.575C261.486 129.795 261.617 129.976 261.71 130.118H261.838V128.818H263.052V137.234C263.052 137.938 262.892 138.509 262.573 138.95C262.257 139.393 261.83 139.718 261.294 139.924C260.762 140.134 260.169 140.239 259.515 140.239ZM259.473 135.743C259.977 135.743 260.403 135.627 260.751 135.397C261.099 135.166 261.364 134.834 261.545 134.401C261.726 133.967 261.816 133.449 261.816 132.845C261.816 132.256 261.727 131.735 261.55 131.284C261.372 130.833 261.11 130.48 260.762 130.224C260.414 129.969 259.984 129.841 259.473 129.841C258.94 129.841 258.496 129.976 258.141 130.246C257.789 130.516 257.525 130.878 257.347 131.332C257.173 131.787 257.086 132.291 257.086 132.845C257.086 133.413 257.175 133.916 257.352 134.353C257.534 134.786 257.8 135.127 258.152 135.375C258.507 135.62 258.947 135.743 259.473 135.743ZM265.353 137V128.818H266.61V137H265.353ZM265.992 127.455C265.747 127.455 265.536 127.371 265.359 127.204C265.185 127.037 265.098 126.837 265.098 126.602C265.098 126.368 265.185 126.167 265.359 126C265.536 125.833 265.747 125.75 265.992 125.75C266.237 125.75 266.447 125.833 266.621 126C266.799 126.167 266.887 126.368 266.887 126.602C266.887 126.837 266.799 127.037 266.621 127.204C266.447 127.371 266.237 127.455 265.992 127.455ZM271.32 137.192C270.802 137.192 270.331 137.094 269.909 136.899C269.486 136.7 269.151 136.414 268.902 136.041C268.654 135.665 268.529 135.21 268.529 134.678C268.529 134.209 268.622 133.829 268.806 133.538C268.991 133.243 269.238 133.012 269.547 132.845C269.856 132.678 270.197 132.554 270.569 132.472C270.946 132.387 271.324 132.32 271.704 132.27C272.201 132.206 272.604 132.158 272.913 132.126C273.226 132.091 273.453 132.032 273.595 131.95C273.741 131.869 273.813 131.727 273.813 131.524V131.482C273.813 130.956 273.67 130.548 273.382 130.256C273.098 129.965 272.666 129.82 272.087 129.82C271.487 129.82 271.017 129.951 270.676 130.214C270.335 130.477 270.095 130.757 269.957 131.055L268.764 130.629C268.977 130.132 269.261 129.745 269.616 129.468C269.975 129.187 270.365 128.992 270.788 128.882C271.214 128.768 271.633 128.712 272.045 128.712C272.308 128.712 272.61 128.744 272.95 128.808C273.295 128.868 273.627 128.994 273.947 129.186C274.27 129.377 274.538 129.667 274.751 130.054C274.964 130.441 275.07 130.96 275.07 131.609V137H273.813V135.892H273.749C273.664 136.07 273.522 136.26 273.323 136.462C273.124 136.664 272.86 136.837 272.53 136.979C272.199 137.121 271.796 137.192 271.32 137.192ZM271.512 136.062C272.009 136.062 272.428 135.965 272.769 135.77C273.114 135.574 273.373 135.322 273.547 135.013C273.725 134.704 273.813 134.379 273.813 134.038V132.888C273.76 132.952 273.643 133.01 273.462 133.064C273.284 133.113 273.078 133.158 272.844 133.197C272.613 133.232 272.388 133.264 272.167 133.293C271.951 133.317 271.775 133.339 271.64 133.357C271.313 133.399 271.008 133.468 270.724 133.564C270.443 133.657 270.216 133.797 270.042 133.985C269.872 134.17 269.786 134.422 269.786 134.741C269.786 135.178 269.948 135.509 270.271 135.732C270.598 135.952 271.011 136.062 271.512 136.062Z" fill="black"/>
<g clip-path="url(#clip0_40_19)">
<path d="M434 76.5359C433.886 77.001 433.783 77.4696 433.659 77.9311C432.413 82.5958 428.352 85.6239 423.29 85.6346C417.066 85.6488 410.843 85.6346 404.617 85.6346C394.297 85.6346 383.977 85.6381 373.657 85.6346C368.84 85.6346 365.126 83.1354 363.55 78.8399C362.531 76.0673 362.599 73.2841 364.037 70.7139C371.772 56.9009 379.202 42.9103 387.79 29.5943C388.865 27.9258 390.09 26.3496 391.254 24.7414C393.111 22.1748 395.759 21.3263 398.773 21.3618C401.674 21.3938 404.024 22.5156 405.816 24.8763C408.788 28.7884 411.425 32.9206 413.864 37.17C419.885 47.6531 425.803 58.1895 431.788 68.6904C432.8 70.469 433.716 72.2617 434.003 74.3136V76.5359H434ZM398.447 83.9732C406.615 83.9732 414.78 83.9732 422.949 83.9732C423.389 83.9732 423.829 83.9625 424.266 83.9306C430.631 83.4691 434.291 76.8057 431.259 71.1896C430.666 70.0927 430.045 69.0064 429.428 67.9236C423.133 56.908 416.896 45.8568 410.51 34.8944C408.617 31.6462 406.338 28.6251 404.194 25.5295C401.748 21.9973 394.879 22.3629 392.738 25.5011C391.112 27.8903 389.344 30.1836 387.807 32.626C379.88 45.232 372.855 58.3599 365.581 71.3458C364.367 73.5113 364.253 75.8401 365.087 78.1867C366.38 81.829 369.511 83.9661 373.597 83.9696C381.879 83.9767 390.165 83.9696 398.447 83.9696V83.9732Z" fill="#424242"/>
<path d="M398.45 81.474C390.165 81.474 381.883 81.4775 373.597 81.474C370.43 81.474 368.116 79.7877 367.31 76.9335C366.873 75.3893 367.012 73.8841 367.793 72.4996C375.503 58.8321 382.834 44.9409 391.35 31.7385C392.391 30.1303 393.615 28.6393 394.684 27.0489C395.99 25.1035 400.832 24.958 402.249 27.0738C403.289 28.6287 404.485 30.0806 405.501 31.6497C411.788 41.359 417.372 51.48 423.027 61.562C425.004 65.0907 426.975 68.623 428.945 72.1552C431.309 76.3939 428.703 81.1651 423.858 81.4491C422.935 81.5024 422.008 81.4704 421.082 81.4704C413.538 81.4704 405.994 81.4704 398.45 81.4704V81.474ZM398.472 79.809C406.686 79.809 414.901 79.809 423.112 79.8019C423.687 79.8019 424.28 79.7806 424.83 79.6422C427.617 78.9428 429.002 75.8934 427.667 73.3303C426.772 71.6085 425.775 69.94 424.83 68.2431C418.607 57.0784 412.491 45.8533 405.678 35.0293C404.251 32.7609 402.732 30.5457 401.141 28.3908C399.902 26.7117 397.03 26.7259 395.763 28.3837C394.556 29.9599 393.413 31.5929 392.337 33.265C386.625 42.1293 381.51 51.3487 376.359 60.5432C374.065 64.6363 371.793 68.7401 369.493 72.8297C368.815 74.0332 368.527 75.265 368.953 76.6176C369.603 78.6695 371.236 79.8055 373.615 79.8055C381.897 79.8126 390.182 79.8055 398.465 79.8055L398.472 79.809Z" fill="#424242"/>
<path d="M387.477 60.0036C389.213 60.0036 390.946 59.993 392.682 60.0072C393.537 60.0143 393.842 60.4474 393.612 61.2639C393.076 63.1667 393.942 64.6754 395.859 65.176C396.686 65.3925 396.92 65.8682 396.516 66.6173C394.854 69.688 393.182 72.7517 391.507 75.8118C391.144 76.4756 390.782 76.5786 390.069 76.2413C388.013 75.2757 386.363 73.806 384.992 72.0239C382.596 68.8999 381.08 65.4422 381.102 61.4236C381.102 61.1929 381.109 60.9586 381.137 60.7314C381.233 59.961 381.488 59.7409 382.273 59.7409C384.009 59.7409 385.741 59.7409 387.477 59.7409V60.0072V60.0036ZM391.783 61.6437C388.738 61.5692 385.77 61.4946 382.806 61.4201C382.514 66.3084 386.487 72.6949 390.353 74.445C391.773 71.8393 393.193 69.2336 394.631 66.596C392.614 65.5629 391.656 63.9619 391.78 61.6437H391.783Z" fill="#424242"/>
<path d="M409.505 59.7409C411.195 59.7409 412.881 59.7409 414.571 59.7409C415.455 59.7409 415.728 59.9788 415.792 60.8698C415.938 62.9359 415.572 64.9275 414.834 66.848C413.435 70.4797 411.294 73.5575 407.947 75.6449C405.621 77.0969 405.781 76.4792 404.879 74.8391C403.41 72.1659 401.958 69.4821 400.499 66.8019C399.97 65.8327 400.147 65.4209 401.194 65.1511C402.898 64.7145 403.821 63.1063 403.339 61.3988C403.058 60.3977 403.332 60.0107 404.372 60.0036C406.083 59.993 407.794 60.0036 409.505 60.0036C409.505 59.9149 409.505 59.8297 409.505 59.7409ZM414.067 61.4201C411.106 61.4946 408.142 61.5692 405.131 61.6473C405.266 63.9654 404.29 65.5842 402.281 66.6031C403.733 69.262 405.153 71.8677 406.573 74.4699C411.131 72.1943 414.528 65.3641 414.067 61.4236V61.4201Z" fill="#424242"/>
<path d="M398.461 43.7375C401.549 43.7765 404.46 44.3658 407.077 46.0343C408.135 46.7053 408.184 46.9715 407.531 48.0401C405.824 50.841 404.116 53.6384 402.405 56.4394C401.794 57.4334 401.411 57.4795 400.595 56.663C399.37 55.4383 397.545 55.4383 396.317 56.663C395.504 57.4724 395.117 57.4263 394.506 56.4323C392.77 53.5958 391.038 50.7558 389.306 47.9158C388.745 46.9964 388.801 46.7088 389.724 46.1089C392.387 44.3694 395.362 43.7694 398.461 43.7375ZM390.914 47.3443C392.479 49.9109 394.038 52.4634 395.603 55.03C397.542 53.7449 399.427 53.784 401.319 55.0194C402.891 52.4421 404.439 49.9038 405.983 47.3691C402.419 44.7954 395.06 44.767 390.91 47.3407L390.914 47.3443Z" fill="#424242"/>
<path d="M398.468 57.373C400.506 57.373 402.178 59.0451 402.185 61.0792C402.192 63.1063 400.524 64.7854 398.482 64.8067C396.43 64.828 394.709 63.1063 394.73 61.0615C394.751 59.0238 396.427 57.373 398.468 57.3766V57.373ZM400.516 61.1751C400.573 60.0994 399.675 59.1054 398.582 59.0415C397.456 58.9776 396.466 59.8651 396.398 60.9976C396.338 62.0768 397.226 63.0566 398.333 63.1311C399.455 63.2057 400.453 62.3111 400.513 61.1751H400.516Z" fill="#424242"/>
</g>
<path d="M364.902 119H363.517L367.523 108.091H368.886L372.892 119H371.507L368.247 109.817H368.162L364.902 119ZM365.413 114.739H370.996V115.911H365.413V114.739ZM375.678 108.091V119H374.421V108.091H375.678ZM377.98 119V110.818H379.237V119H377.98ZM378.619 109.455C378.374 109.455 378.163 109.371 377.985 109.204C377.811 109.037 377.724 108.837 377.724 108.602C377.724 108.368 377.811 108.167 377.985 108C378.163 107.833 378.374 107.75 378.619 107.75C378.864 107.75 379.074 107.833 379.248 108C379.425 108.167 379.514 108.368 379.514 108.602C379.514 108.837 379.425 109.037 379.248 109.204C379.074 109.371 378.864 109.455 378.619 109.455ZM381.54 119V110.818H382.754V112.097H382.861C383.031 111.66 383.306 111.321 383.686 111.079C384.066 110.834 384.523 110.712 385.055 110.712C385.595 110.712 386.044 110.834 386.403 111.079C386.765 111.321 387.048 111.66 387.25 112.097H387.335C387.545 111.674 387.859 111.338 388.278 111.09C388.697 110.838 389.2 110.712 389.785 110.712C390.517 110.712 391.115 110.941 391.581 111.399C392.046 111.853 392.278 112.562 392.278 113.524V119H391.021V113.524C391.021 112.92 390.856 112.489 390.526 112.23C390.196 111.971 389.807 111.841 389.359 111.841C388.784 111.841 388.338 112.015 388.022 112.363C387.706 112.707 387.548 113.144 387.548 113.673V119H386.27V113.396C386.27 112.931 386.119 112.556 385.817 112.272C385.515 111.985 385.126 111.841 384.651 111.841C384.324 111.841 384.018 111.928 383.734 112.102C383.454 112.276 383.227 112.517 383.053 112.826C382.882 113.132 382.797 113.485 382.797 113.886V119H381.54ZM398.007 119.17C397.219 119.17 396.539 118.996 395.967 118.648C395.399 118.297 394.96 117.807 394.651 117.178C394.346 116.546 394.193 115.811 394.193 114.973C394.193 114.135 394.346 113.396 394.651 112.757C394.96 112.114 395.39 111.614 395.94 111.255C396.494 110.893 397.141 110.712 397.879 110.712C398.306 110.712 398.726 110.783 399.142 110.925C399.557 111.067 399.936 111.298 400.276 111.617C400.617 111.933 400.889 112.352 401.091 112.874C401.294 113.396 401.395 114.039 401.395 114.803V115.335H395.088V114.249H400.117C400.117 113.787 400.024 113.375 399.84 113.013C399.659 112.651 399.399 112.365 399.062 112.155C398.728 111.946 398.334 111.841 397.879 111.841C397.379 111.841 396.945 111.965 396.58 112.214C396.217 112.459 395.939 112.778 395.743 113.173C395.548 113.567 395.45 113.989 395.45 114.44V115.165C395.45 115.783 395.557 116.306 395.77 116.736C395.987 117.162 396.287 117.487 396.67 117.711C397.054 117.931 397.499 118.041 398.007 118.041C398.337 118.041 398.636 117.995 398.902 117.903C399.172 117.807 399.405 117.665 399.6 117.477C399.795 117.285 399.946 117.047 400.053 116.763L401.267 117.104C401.139 117.516 400.924 117.878 400.623 118.19C400.321 118.499 399.948 118.741 399.504 118.915C399.06 119.085 398.561 119.17 398.007 119.17ZM404.564 114.078V119H403.307V110.818H404.522V112.097H404.628C404.82 111.681 405.111 111.347 405.502 111.095C405.893 110.839 406.397 110.712 407.015 110.712C407.569 110.712 408.053 110.825 408.469 111.053C408.884 111.276 409.208 111.617 409.438 112.075C409.669 112.53 409.785 113.105 409.785 113.801V119H408.527V113.886C408.527 113.244 408.361 112.743 408.027 112.384C407.693 112.022 407.235 111.841 406.652 111.841C406.251 111.841 405.893 111.928 405.576 112.102C405.264 112.276 405.017 112.53 404.836 112.864C404.655 113.197 404.564 113.602 404.564 114.078ZM415.64 110.818V111.884H411.4V110.818H415.64ZM412.636 108.858H413.893V116.656C413.893 117.011 413.944 117.278 414.047 117.455C414.154 117.629 414.289 117.746 414.452 117.807C414.619 117.864 414.795 117.892 414.979 117.892C415.118 117.892 415.232 117.885 415.32 117.871C415.409 117.853 415.48 117.839 415.533 117.828L415.789 118.957C415.704 118.989 415.585 119.021 415.432 119.053C415.28 119.089 415.086 119.107 414.852 119.107C414.496 119.107 414.148 119.03 413.808 118.877C413.47 118.725 413.19 118.492 412.966 118.18C412.746 117.867 412.636 117.473 412.636 116.997V108.858ZM420.767 119.17C420.028 119.17 419.38 118.995 418.823 118.643C418.269 118.292 417.835 117.8 417.523 117.168C417.214 116.536 417.06 115.797 417.06 114.952C417.06 114.099 417.214 113.355 417.523 112.72C417.835 112.084 418.269 111.591 418.823 111.239C419.38 110.887 420.028 110.712 420.767 110.712C421.506 110.712 422.152 110.887 422.706 111.239C423.263 111.591 423.697 112.084 424.006 112.72C424.318 113.355 424.474 114.099 424.474 114.952C424.474 115.797 424.318 116.536 424.006 117.168C423.697 117.8 423.263 118.292 422.706 118.643C422.152 118.995 421.506 119.17 420.767 119.17ZM420.767 118.041C421.328 118.041 421.79 117.897 422.152 117.61C422.514 117.322 422.782 116.944 422.956 116.475C423.13 116.006 423.217 115.499 423.217 114.952C423.217 114.405 423.13 113.895 422.956 113.423C422.782 112.951 422.514 112.569 422.152 112.278C421.79 111.987 421.328 111.841 420.767 111.841C420.206 111.841 419.744 111.987 419.382 112.278C419.02 112.569 418.752 112.951 418.578 113.423C418.404 113.895 418.317 114.405 418.317 114.952C418.317 115.499 418.404 116.006 418.578 116.475C418.752 116.944 419.02 117.322 419.382 117.61C419.744 117.897 420.206 118.041 420.767 118.041ZM432.189 112.651L431.059 112.97C430.988 112.782 430.884 112.599 430.745 112.422C430.61 112.24 430.426 112.091 430.191 111.974C429.957 111.857 429.657 111.798 429.291 111.798C428.79 111.798 428.373 111.914 428.039 112.145C427.709 112.372 427.544 112.661 427.544 113.013C427.544 113.325 427.657 113.572 427.885 113.753C428.112 113.934 428.467 114.085 428.95 114.206L430.165 114.504C430.896 114.682 431.441 114.953 431.8 115.319C432.159 115.681 432.338 116.148 432.338 116.72C432.338 117.189 432.203 117.608 431.933 117.977C431.667 118.347 431.294 118.638 430.814 118.851C430.335 119.064 429.777 119.17 429.142 119.17C428.307 119.17 427.617 118.989 427.07 118.627C426.523 118.265 426.177 117.736 426.031 117.04L427.224 116.741C427.338 117.182 427.553 117.512 427.869 117.732C428.188 117.952 428.606 118.062 429.121 118.062C429.706 118.062 430.172 117.938 430.516 117.69C430.864 117.437 431.038 117.136 431.038 116.784C431.038 116.5 430.939 116.262 430.74 116.07C430.541 115.875 430.236 115.729 429.824 115.634L428.46 115.314C427.711 115.136 427.16 114.861 426.809 114.488C426.461 114.112 426.287 113.641 426.287 113.077C426.287 112.615 426.416 112.207 426.676 111.852C426.938 111.496 427.295 111.218 427.746 111.015C428.201 110.813 428.716 110.712 429.291 110.712C430.101 110.712 430.736 110.889 431.198 111.244C431.663 111.599 431.993 112.068 432.189 112.651ZM439.259 122.068C439.045 122.068 438.856 122.05 438.689 122.015C438.522 121.983 438.406 121.951 438.342 121.919L438.662 120.811C438.967 120.889 439.237 120.918 439.472 120.896C439.706 120.875 439.914 120.77 440.095 120.582C440.28 120.397 440.448 120.097 440.601 119.682L440.835 119.043L437.81 110.818H439.173L441.432 117.338H441.517L443.776 110.818H445.139L441.666 120.193C441.51 120.616 441.316 120.966 441.086 121.243C440.855 121.523 440.587 121.731 440.281 121.866C439.979 122.001 439.639 122.068 439.259 122.068ZM379.557 137V126.091H380.814V130.118H380.92C381.013 129.976 381.141 129.795 381.304 129.575C381.471 129.351 381.709 129.152 382.018 128.978C382.33 128.8 382.753 128.712 383.286 128.712C383.974 128.712 384.582 128.884 385.107 129.228C385.633 129.573 386.043 130.061 386.338 130.693C386.633 131.325 386.78 132.071 386.78 132.93C386.78 133.797 386.633 134.548 386.338 135.184C386.043 135.816 385.635 136.306 385.113 136.654C384.591 136.998 383.989 137.17 383.307 137.17C382.781 137.17 382.36 137.083 382.044 136.909C381.728 136.732 381.485 136.531 381.315 136.308C381.144 136.08 381.013 135.892 380.92 135.743H380.771V137H379.557ZM380.793 132.909C380.793 133.527 380.883 134.072 381.064 134.544C381.245 135.013 381.51 135.381 381.858 135.647C382.206 135.91 382.632 136.041 383.136 136.041C383.662 136.041 384.101 135.903 384.452 135.626C384.807 135.345 385.074 134.969 385.251 134.496C385.432 134.021 385.523 133.491 385.523 132.909C385.523 132.334 385.434 131.815 385.256 131.354C385.082 130.888 384.818 130.521 384.463 130.251C384.111 129.978 383.669 129.841 383.136 129.841C382.625 129.841 382.195 129.971 381.847 130.23C381.499 130.485 381.237 130.844 381.059 131.306C380.881 131.764 380.793 132.298 380.793 132.909ZM392.133 137.17C391.345 137.17 390.665 136.996 390.093 136.648C389.525 136.297 389.086 135.807 388.777 135.178C388.472 134.546 388.319 133.811 388.319 132.973C388.319 132.135 388.472 131.396 388.777 130.757C389.086 130.114 389.516 129.614 390.066 129.255C390.62 128.893 391.267 128.712 392.005 128.712C392.432 128.712 392.852 128.783 393.268 128.925C393.683 129.067 394.061 129.298 394.402 129.617C394.743 129.933 395.015 130.352 395.217 130.874C395.42 131.396 395.521 132.039 395.521 132.803V133.335H389.214V132.249H394.243C394.243 131.787 394.15 131.375 393.966 131.013C393.784 130.651 393.525 130.365 393.188 130.155C392.854 129.946 392.46 129.841 392.005 129.841C391.505 129.841 391.071 129.965 390.706 130.214C390.343 130.459 390.065 130.778 389.869 131.173C389.674 131.567 389.576 131.989 389.576 132.44V133.165C389.576 133.783 389.683 134.306 389.896 134.736C390.113 135.162 390.413 135.487 390.796 135.711C391.18 135.931 391.625 136.041 392.133 136.041C392.463 136.041 392.762 135.995 393.028 135.903C393.298 135.807 393.531 135.665 393.726 135.477C393.921 135.285 394.072 135.047 394.179 134.763L395.393 135.104C395.265 135.516 395.05 135.878 394.749 136.19C394.447 136.499 394.074 136.741 393.63 136.915C393.186 137.085 392.687 137.17 392.133 137.17ZM397.604 137V126.091H398.861V130.118H398.967C399.06 129.976 399.188 129.795 399.351 129.575C399.518 129.351 399.756 129.152 400.065 128.978C400.377 128.8 400.8 128.712 401.332 128.712C402.021 128.712 402.629 128.884 403.154 129.228C403.68 129.573 404.09 130.061 404.385 130.693C404.679 131.325 404.827 132.071 404.827 132.93C404.827 133.797 404.679 134.548 404.385 135.184C404.09 135.816 403.682 136.306 403.159 136.654C402.637 136.998 402.036 137.17 401.354 137.17C400.828 137.17 400.407 137.083 400.091 136.909C399.775 136.732 399.532 136.531 399.362 136.308C399.191 136.08 399.06 135.892 398.967 135.743H398.818V137H397.604ZM398.84 132.909C398.84 133.527 398.93 134.072 399.111 134.544C399.292 135.013 399.557 135.381 399.905 135.647C400.253 135.91 400.679 136.041 401.183 136.041C401.709 136.041 402.147 135.903 402.499 135.626C402.854 135.345 403.12 134.969 403.298 134.496C403.479 134.021 403.57 133.491 403.57 132.909C403.57 132.334 403.481 131.815 403.303 131.354C403.129 130.888 402.865 130.521 402.51 130.251C402.158 129.978 401.716 129.841 401.183 129.841C400.672 129.841 400.242 129.971 399.894 130.23C399.546 130.485 399.283 130.844 399.106 131.306C398.928 131.764 398.84 132.298 398.84 132.909ZM406.75 137V128.818H408.007V137H406.75ZM407.389 127.455C407.144 127.455 406.933 127.371 406.755 127.204C406.581 127.037 406.494 126.837 406.494 126.602C406.494 126.368 406.581 126.167 406.755 126C406.933 125.833 407.144 125.75 407.389 125.75C407.634 125.75 407.843 125.833 408.017 126C408.195 126.167 408.284 126.368 408.284 126.602C408.284 126.837 408.195 127.037 408.017 127.204C407.843 127.371 407.634 127.455 407.389 127.455ZM413.399 137.17C412.717 137.17 412.115 136.998 411.593 136.654C411.071 136.306 410.663 135.816 410.368 135.184C410.073 134.548 409.926 133.797 409.926 132.93C409.926 132.071 410.073 131.325 410.368 130.693C410.663 130.061 411.073 129.573 411.598 129.228C412.124 128.884 412.731 128.712 413.42 128.712C413.953 128.712 414.374 128.8 414.682 128.978C414.995 129.152 415.233 129.351 415.396 129.575C415.563 129.795 415.693 129.976 415.785 130.118H415.892V126.091H417.149V137H415.934V135.743H415.785C415.693 135.892 415.561 136.08 415.391 136.308C415.22 136.531 414.977 136.732 414.661 136.909C414.345 137.083 413.924 137.17 413.399 137.17ZM413.569 136.041C414.073 136.041 414.5 135.91 414.848 135.647C415.196 135.381 415.46 135.013 415.641 134.544C415.822 134.072 415.913 133.527 415.913 132.909C415.913 132.298 415.824 131.764 415.647 131.306C415.469 130.844 415.206 130.485 414.858 130.23C414.51 129.971 414.081 129.841 413.569 129.841C413.037 129.841 412.593 129.978 412.238 130.251C411.886 130.521 411.621 130.888 411.444 131.354C411.27 131.815 411.183 132.334 411.183 132.909C411.183 133.491 411.272 134.021 411.449 134.496C411.63 134.969 411.897 135.345 412.248 135.626C412.603 135.903 413.044 136.041 413.569 136.041ZM422.033 137.192C421.515 137.192 421.044 137.094 420.622 136.899C420.199 136.7 419.864 136.414 419.615 136.041C419.366 135.665 419.242 135.21 419.242 134.678C419.242 134.209 419.334 133.829 419.519 133.538C419.704 133.243 419.951 133.012 420.26 132.845C420.568 132.678 420.909 132.554 421.282 132.472C421.659 132.387 422.037 132.32 422.417 132.27C422.914 132.206 423.317 132.158 423.626 132.126C423.939 132.091 424.166 132.032 424.308 131.95C424.453 131.869 424.526 131.727 424.526 131.524V131.482C424.526 130.956 424.382 130.548 424.095 130.256C423.811 129.965 423.379 129.82 422.8 129.82C422.2 129.82 421.73 129.951 421.389 130.214C421.048 130.477 420.808 130.757 420.67 131.055L419.477 130.629C419.69 130.132 419.974 129.745 420.329 129.468C420.687 129.187 421.078 128.992 421.501 128.882C421.927 128.768 422.346 128.712 422.758 128.712C423.021 128.712 423.322 128.744 423.663 128.808C424.008 128.868 424.34 128.994 424.659 129.186C424.983 129.377 425.251 129.667 425.464 130.054C425.677 130.441 425.783 130.96 425.783 131.609V137H424.526V135.892H424.462C424.377 136.07 424.235 136.26 424.036 136.462C423.837 136.664 423.573 136.837 423.242 136.979C422.912 137.121 422.509 137.192 422.033 137.192ZM422.225 136.062C422.722 136.062 423.141 135.965 423.482 135.77C423.827 135.574 424.086 135.322 424.26 135.013C424.437 134.704 424.526 134.379 424.526 134.038V132.888C424.473 132.952 424.356 133.01 424.175 133.064C423.997 133.113 423.791 133.158 423.557 133.197C423.326 133.232 423.1 133.264 422.88 133.293C422.664 133.317 422.488 133.339 422.353 133.357C422.026 133.399 421.721 133.468 421.437 133.564C421.156 133.657 420.929 133.797 420.755 133.985C420.584 134.17 420.499 134.422 420.499 134.741C420.499 135.178 420.661 135.509 420.984 135.732C421.311 135.952 421.724 136.062 422.225 136.062ZM433.873 130.651L432.744 130.97C432.673 130.782 432.568 130.599 432.43 130.422C432.295 130.24 432.11 130.091 431.876 129.974C431.641 129.857 431.341 129.798 430.976 129.798C430.475 129.798 430.058 129.914 429.724 130.145C429.394 130.372 429.228 130.661 429.228 131.013C429.228 131.325 429.342 131.572 429.569 131.753C429.797 131.934 430.152 132.085 430.635 132.206L431.849 132.504C432.581 132.682 433.126 132.953 433.484 133.319C433.843 133.681 434.022 134.148 434.022 134.72C434.022 135.189 433.887 135.608 433.618 135.977C433.351 136.347 432.978 136.638 432.499 136.851C432.02 137.064 431.462 137.17 430.826 137.17C429.992 137.17 429.301 136.989 428.754 136.627C428.207 136.265 427.861 135.736 427.716 135.04L428.909 134.741C429.022 135.182 429.237 135.512 429.553 135.732C429.873 135.952 430.29 136.062 430.805 136.062C431.391 136.062 431.856 135.938 432.201 135.69C432.549 135.437 432.723 135.136 432.723 134.784C432.723 134.5 432.623 134.262 432.424 134.07C432.226 133.875 431.92 133.729 431.508 133.634L430.145 133.314C429.395 133.136 428.845 132.861 428.493 132.488C428.145 132.112 427.971 131.641 427.971 131.077C427.971 130.615 428.101 130.207 428.36 129.852C428.623 129.496 428.98 129.218 429.431 129.015C429.885 128.813 430.4 128.712 430.976 128.712C431.785 128.712 432.421 128.889 432.883 129.244C433.348 129.599 433.678 130.068 433.873 130.651Z" fill="black"/>
<defs>
<clipPath id="clip0_40_19">
<rect width="71" height="71" fill="white" transform="translate(363 18)"/>
</clipPath>
</defs>
</svg>
