<svg width="477" height="159" viewBox="0 0 477 159" fill="none" xmlns="http://www.w3.org/2000/svg">
<path d="M117.317 69.4963C117.057 69.3165 116.929 69.1294 116.874 68.8983H56.7184C56.6634 68.8983 56.6193 68.8873 56.5753 68.8726H54.1503C53.4496 68.9643 52.7526 69.0597 52.0518 69.1588C52.0262 69.2101 51.9931 69.2542 51.9565 69.2762C51.1934 69.7091 50.8265 70.4208 50.5 71.1765V91.7614C51.1017 93.46 52.3197 94.0434 54.088 94.0397C68.5205 94.003 92.1504 94.0397 106.583 94.0397C106.73 94.0397 106.836 94.0324 106.913 94.0213C109.793 94.0213 112.677 94.0213 115.557 94.0177C117.27 94.014 118.477 92.796 118.495 91.0864C118.506 90.0445 118.495 89.0063 118.495 87.9644C118.495 82.6521 118.491 77.3399 118.499 72.0277C118.499 70.9858 118.187 70.0906 117.317 69.4963ZM116.503 90.7416C116.503 91.7761 116.254 92.0256 115.215 92.0256C111.418 92.0256 107.625 92.0256 103.828 92.0256C103.817 92.0256 103.806 92.0256 103.798 92.0256C89.2998 92.0256 68.3591 92.0256 53.8605 92.0256C52.7159 92.0256 52.4921 91.8055 52.4921 90.6902C52.4921 84.5378 52.4921 78.3818 52.4921 72.2294C52.4921 71.1399 52.7232 70.9087 53.8128 70.9087C74.2656 70.9087 94.7185 70.9087 115.171 70.9087C116.268 70.9087 116.507 71.1399 116.507 72.2111C116.507 78.3855 116.507 84.5635 116.507 90.7379L116.503 90.7416Z" fill="#424242"/>
<path d="M84.4829 74.2325C86.9849 74.2325 89.4833 74.2325 91.9853 74.2325C93.7059 74.2325 94.7551 75.2634 94.7882 76.9877C94.8065 77.9379 94.8065 78.8917 94.7882 79.8419C94.7551 81.5625 93.7022 82.5934 91.9816 82.5934C86.9812 82.5971 81.9808 82.5971 76.9768 82.5934C75.3002 82.5934 74.2436 81.5515 74.2106 79.8713C74.1886 78.8991 74.1886 77.9232 74.2106 76.951C74.2473 75.2671 75.3039 74.2362 76.9804 74.2325C79.4825 74.2252 81.9808 74.2325 84.4829 74.2325ZM84.4939 80.6087C86.9702 80.6087 89.4466 80.5977 91.9229 80.616C92.5466 80.6197 92.8107 80.3629 92.8034 79.7502C92.7887 78.8441 92.7961 77.9379 92.8034 77.0317C92.8034 76.4888 92.5723 76.2246 92.0036 76.2246C87.0069 76.232 82.0102 76.232 77.0135 76.2246C76.4522 76.2246 76.2027 76.4741 76.2027 77.0207C76.2064 77.9049 76.1954 78.789 76.2027 79.6732C76.21 80.4619 76.3531 80.6087 77.1345 80.6087C79.5889 80.6087 82.0432 80.6087 84.4975 80.6087H84.4939Z" fill="#424242"/>
<path d="M58.1014 90.0372C57.2833 90.0372 56.4652 90.0445 55.6471 90.0372C54.9354 90.0298 54.4878 89.6336 54.4841 89.043C54.4841 88.4523 54.9317 88.0524 55.6471 88.0487C57.3053 88.0414 58.9636 88.0414 60.6218 88.0487C61.3372 88.0487 61.7848 88.4486 61.7848 89.043C61.7848 89.6336 61.3372 90.0298 60.6218 90.0372C59.7817 90.0482 58.9416 90.0372 58.1014 90.0372Z" fill="#424242"/>
<path d="M56.8652 84.0646C57.2834 84.0646 57.7053 84.0463 58.1235 84.0683C58.7289 84.1013 59.1398 84.5342 59.1251 85.0845C59.1104 85.6091 58.7142 86.0273 58.1382 86.0457C57.2541 86.0714 56.3699 86.0714 55.4858 86.0457C54.8804 86.0273 54.4696 85.5834 54.4879 85.0331C54.5026 84.5085 54.8988 84.105 55.4748 84.0719C55.937 84.0463 56.4029 84.0683 56.8652 84.0683V84.0646Z" fill="#424242"/>
<path d="M76.3017 70.0099C76.133 68.6011 76.0413 67.1887 76.1256 65.7543C76.1366 65.5415 76.1256 65.325 76.1256 65.0425H85.5321C85.6458 65.0425 90.5765 65.0499 93.2253 65.0499C93.1263 66.4513 93.0602 67.8161 92.9538 69.1625C93.6215 69.1661 94.2892 69.1771 94.9569 69.1845C95.0046 68.6342 95.045 68.0839 95.0523 67.5336C95.1844 60.7649 95.0963 53.9888 95.0963 47.2165C95.0963 44.9602 94.5644 42.8398 93.4491 40.8697C92.9061 39.9085 92.3999 38.9216 91.8349 37.9714C89.7731 34.4899 89.1898 30.7038 89.4759 26.7086C90.184 26.5325 90.4261 26.0336 90.3894 25.3219C90.3601 24.7716 90.3968 24.2139 90.3784 23.6636C90.3234 22.1998 89.3402 21.235 87.869 21.224C85.7009 21.2093 83.5327 21.2093 81.3608 21.224C79.897 21.2313 78.8992 22.1925 78.8258 23.6489C78.7964 24.269 78.8184 24.889 78.8184 25.509C78.8184 26.0152 79.0019 26.3968 79.4898 26.6279C79.6255 26.6903 79.776 26.9141 79.7686 27.0535C79.6953 28.7961 79.6916 30.5497 79.4751 32.2777C79.1596 34.7797 77.938 36.9515 76.7493 39.1344C75.9495 40.6019 75.2598 42.1354 74.6105 43.6799C74.3353 44.3366 74.284 45.0886 74.1299 45.7967V69.3055C74.1739 69.566 74.2143 69.8265 74.2583 70.0906C74.937 70.0723 75.6157 70.0429 76.2944 70.0099H76.3017ZM80.8399 23.7663C80.9279 23.5389 81.2141 23.2381 81.4159 23.2344C83.5327 23.194 85.6495 23.216 87.7663 23.205C88.2286 23.205 88.401 23.4252 88.39 23.8544C88.3827 24.0965 88.39 24.3387 88.39 24.6542H80.8142C80.8142 24.3533 80.7372 24.0232 80.8362 23.7663H80.8399ZM87.4031 26.7123V28.2238H81.8268V26.7123H87.4031ZM77.406 42.0326C78.2388 40.4991 79.1193 38.9877 79.9007 37.4285C81.0086 35.2089 81.5809 32.8353 81.7424 30.3149H87.4288C87.5425 31.089 87.6416 31.8924 87.7737 32.6885C88.1332 34.8017 88.8926 36.7718 89.9345 38.6391C90.5912 39.8168 91.2552 40.9907 91.8899 42.1794C92.5062 43.335 92.9061 44.564 93.0199 45.9288H76.2137C76.3017 44.5127 76.753 43.2433 77.4097 42.0326H77.406ZM76.1623 48.0089H93.0676V59.3378H76.1623V48.0089ZM76.1587 61.4032H93.0639V63.0431C91.2259 63.0358 82.344 63.0431 80.506 63.0431C79.0716 63.0431 77.6371 63.0431 76.1587 63.0431V61.4032Z" fill="#424242"/>
<path d="M84.5746 57.0999C83.8665 57.0999 83.1585 57.1219 82.4541 57.0962C80.6418 57.0265 79.2037 55.5443 79.1817 53.743C79.1596 51.916 80.5134 50.3715 82.3294 50.2871C83.8519 50.2138 85.3817 50.2138 86.9042 50.2871C88.7092 50.3752 90.0996 51.9601 90.0556 53.754C90.0116 55.559 88.5735 57.0302 86.7648 57.0962C86.0347 57.1219 85.3047 57.0999 84.5746 57.0999ZM84.5966 55.1114C84.5966 55.1114 84.5966 55.1114 84.5966 55.1151C85.2166 55.1151 85.833 55.1151 86.453 55.1151C86.497 55.1151 86.541 55.1151 86.585 55.1114C87.4325 55.0674 88.0378 54.4914 88.0598 53.7137C88.0819 52.9176 87.4618 52.2756 86.585 52.2572C85.2606 52.2315 83.9363 52.2279 82.6119 52.2572C81.7571 52.2756 81.1774 52.8882 81.1811 53.6807C81.1811 54.4658 81.7754 55.0748 82.6155 55.1041C83.2759 55.1298 83.9399 55.1078 84.604 55.1078L84.5966 55.1114Z" fill="#424242"/>
<path d="M54.0256 70.0099C53.8569 68.6011 53.7651 67.1887 53.8495 65.7543C53.8605 65.5415 53.8495 65.325 53.8495 65.0425H63.256C63.3697 65.0425 68.3004 65.0499 70.9492 65.0499C70.8501 66.4513 70.7841 67.8161 70.6777 69.1625C71.3454 69.1661 72.0131 69.1771 72.6808 69.1845C72.7285 68.6342 72.7688 68.0839 72.7762 67.5336C72.9083 60.7649 72.8202 53.9888 72.8202 47.2165C72.8202 44.9602 72.2882 42.8398 71.173 40.8697C70.63 39.9085 70.1237 38.9216 69.5588 37.9714C67.497 34.4899 66.9136 30.7038 67.1998 26.7086C67.9079 26.5325 68.15 26.0336 68.1133 25.3219C68.084 24.7716 68.1206 24.2139 68.1023 23.6636C68.0473 22.1998 67.0641 21.235 65.5929 21.224C63.4247 21.2093 61.2566 21.2093 59.0847 21.224C57.6209 21.2313 56.623 22.1925 56.5497 23.6489C56.5203 24.269 56.5423 24.889 56.5423 25.509C56.5423 26.0152 56.7258 26.3968 57.2137 26.6279C57.3494 26.6903 57.4998 26.9141 57.4925 27.0535C57.4191 28.7961 57.4155 30.5497 57.199 32.2777C56.8835 34.7797 55.6618 36.9515 54.4732 39.1344C53.6734 40.6019 52.9837 42.1354 52.3344 43.6799C52.0592 44.3366 52.0078 45.0886 51.8538 45.7967V69.3055C51.8978 69.566 51.9381 69.8265 51.9822 70.0906C52.6609 70.0723 53.3396 70.0429 54.0183 70.0099H54.0256ZM58.5674 23.7663C58.6555 23.5389 58.9416 23.2381 59.1434 23.2344C61.2602 23.194 63.377 23.216 65.4939 23.205C65.9561 23.205 66.1286 23.4252 66.1175 23.8544C66.1102 24.0965 66.1175 24.3387 66.1175 24.6542H58.5417C58.5417 24.3533 58.4647 24.0232 58.5638 23.7663H58.5674ZM65.1307 26.7123V28.2238H59.5543V26.7123H65.1307ZM55.1335 42.0363C55.9663 40.5028 56.8468 38.9913 57.6282 37.4321C58.7362 35.2126 59.3085 32.839 59.4699 30.3186H65.1564C65.2701 31.0927 65.3691 31.8961 65.5012 32.6922C65.8607 34.8054 66.6202 36.7754 67.6621 38.6428C68.3187 39.8204 68.9828 40.9944 69.6175 42.1831C70.2338 43.3387 70.6337 44.5677 70.7474 45.9324H53.9412C54.0293 44.5163 54.4805 43.247 55.1372 42.0363H55.1335ZM53.8899 48.0126H70.7951V59.3414H53.8899V48.0126ZM53.8862 61.4069H70.7914V63.0468C68.9534 63.0394 60.0716 63.0468 58.2336 63.0468C56.7991 63.0468 55.3647 63.0468 53.8862 63.0468V61.4069Z" fill="#424242"/>
<path d="M62.2985 57.0999C61.5904 57.0999 60.8824 57.1219 60.178 57.0962C58.3657 57.0265 56.9276 55.5443 56.9055 53.743C56.8835 51.916 58.2373 50.3715 60.0533 50.2871C61.5758 50.2138 63.1056 50.2138 64.6281 50.2871C66.4331 50.3752 67.8235 51.9601 67.7795 53.754C67.7354 55.559 66.2973 57.0302 64.4887 57.0962C63.7586 57.1219 63.0285 57.0999 62.2985 57.0999ZM62.3205 55.1114C62.3205 55.1114 62.3205 55.1114 62.3205 55.1151C62.9405 55.1151 63.5568 55.1151 64.1768 55.1151C64.2209 55.1151 64.2649 55.1151 64.3089 55.1114C65.1564 55.0674 65.7617 54.4914 65.7837 53.7137C65.8057 52.9176 65.1857 52.2756 64.3089 52.2572C62.9845 52.2315 61.6601 52.2279 60.3357 52.2572C59.4809 52.2756 58.9013 52.8882 58.905 53.6807C58.905 54.4658 59.4993 55.0748 60.3394 55.1041C60.9998 55.1298 61.6638 55.1078 62.3278 55.1078L62.3205 55.1114Z" fill="#424242"/>
<path d="M97.9431 70.0099C97.7743 68.6011 97.6826 67.1887 97.767 65.7543C97.778 65.5415 97.767 65.325 97.767 65.0425H107.173C107.287 65.0425 112.218 65.0499 114.867 65.0499C114.768 66.4513 114.702 67.8161 114.595 69.1625C115.263 69.1661 115.931 69.1771 116.598 69.1845C116.646 68.6342 116.686 68.0839 116.694 67.5336C116.826 60.7649 116.738 53.9888 116.738 47.2165C116.738 44.9602 116.206 42.8398 115.09 40.8697C114.547 39.9085 114.041 38.9216 113.476 37.9714C111.414 34.4899 110.831 30.7038 111.117 26.7086C111.825 26.5325 112.067 26.0336 112.031 25.3219C112.001 24.7716 112.038 24.2139 112.02 23.6636C111.965 22.1998 110.982 21.235 109.51 21.224C107.342 21.2093 105.174 21.2093 103.002 21.224C101.538 21.2313 100.541 22.1925 100.467 23.6489C100.438 24.269 100.46 24.889 100.46 25.509C100.46 26.0152 100.643 26.3968 101.131 26.6279C101.267 26.6903 101.417 26.9141 101.41 27.0535C101.337 28.7961 101.333 30.5497 101.116 32.2777C100.801 34.7797 99.5793 36.9515 98.3907 39.1344C97.5909 40.6019 96.9012 42.1354 96.2518 43.6799C95.9767 44.3366 95.9253 45.0886 95.7712 45.7967V69.3055C95.8153 69.566 95.8556 69.8265 95.8996 70.0906C96.5783 70.0723 97.257 70.0429 97.9358 70.0099H97.9431ZM102.485 23.7663C102.573 23.5389 102.859 23.2381 103.061 23.2344C105.178 23.194 107.295 23.216 109.411 23.205C109.874 23.205 110.046 23.4252 110.035 23.8544C110.028 24.0965 110.035 24.3387 110.035 24.6542H102.459C102.459 24.3533 102.382 24.0232 102.481 23.7663H102.485ZM109.048 26.7123V28.2238H103.472V26.7123H109.048ZM99.051 42.0326C99.8838 40.4991 100.764 38.9877 101.546 37.4285C102.654 35.2089 103.226 32.8353 103.387 30.3149H109.074C109.188 31.089 109.287 31.8924 109.419 32.6885C109.778 34.8017 110.538 36.7718 111.58 38.6391C112.236 39.8168 112.9 40.9907 113.535 42.1794C114.151 43.335 114.551 44.564 114.665 45.9288H97.8587C97.9468 44.5127 98.398 43.2433 99.0547 42.0326H99.051ZM97.8074 48.0089H114.713V59.3378H97.8074V48.0089ZM97.8037 61.4032H114.709V63.0431C112.871 63.0358 103.989 63.0431 102.151 63.0431C100.717 63.0431 99.2822 63.0431 97.8037 63.0431V61.4032Z" fill="#424242"/>
<path d="M106.22 57.0999C105.512 57.0999 104.804 57.1219 104.099 57.0962C102.287 57.0265 100.849 55.5443 100.827 53.743C100.805 51.916 102.158 50.3715 103.974 50.2871C105.497 50.2138 107.027 50.2138 108.549 50.2871C110.354 50.3752 111.745 51.9601 111.701 53.754C111.657 55.559 110.218 57.0302 108.41 57.0962C107.68 57.1219 106.95 57.0999 106.22 57.0999ZM106.242 55.1114C106.242 55.1114 106.242 55.1114 106.242 55.1151C106.862 55.1151 107.478 55.1151 108.098 55.1151C108.142 55.1151 108.186 55.1151 108.23 55.1114C109.078 55.0674 109.683 54.4914 109.705 53.7137C109.727 52.9176 109.107 52.2756 108.23 52.2572C106.906 52.2315 105.581 52.2279 104.257 52.2572C103.402 52.2756 102.822 52.8882 102.826 53.6807C102.826 54.4658 103.42 55.0748 104.261 55.1041C104.921 55.1298 105.585 55.1078 106.249 55.1078L106.242 55.1114Z" fill="#424242"/>
<path d="M42.9018 119.04H41.5168L45.5225 108.131H46.8861L50.8918 119.04H49.5069L46.2469 109.856H46.1617L42.9018 119.04ZM43.4131 114.778H48.9955V115.95H43.4131V114.778ZM53.6777 108.131V119.04H52.4206V108.131H53.6777ZM55.9802 119.04V110.858H57.2373V119.04H55.9802ZM56.6194 109.494C56.3743 109.494 56.163 109.411 55.9855 109.244C55.8115 109.077 55.7245 108.876 55.7245 108.642C55.7245 108.408 55.8115 108.207 55.9855 108.04C56.163 107.873 56.3743 107.79 56.6194 107.79C56.8644 107.79 57.0739 107.873 57.2479 108.04C57.4255 108.207 57.5142 108.408 57.5142 108.642C57.5142 108.876 57.4255 109.077 57.2479 109.244C57.0739 109.411 56.8644 109.494 56.6194 109.494ZM59.5397 119.04V110.858H60.7542V112.136H60.8608C61.0312 111.7 61.3064 111.36 61.6864 111.119C62.0664 110.874 62.5227 110.751 63.0554 110.751C63.5951 110.751 64.0443 110.874 64.403 111.119C64.7652 111.36 65.0475 111.7 65.25 112.136H65.3352C65.5447 111.714 65.859 111.378 66.278 111.13C66.697 110.877 67.1995 110.751 67.7855 110.751C68.517 110.751 69.1154 110.98 69.5806 111.438C70.0458 111.893 70.2784 112.601 70.2784 113.564V119.04H69.0213V113.564C69.0213 112.96 68.8561 112.529 68.5259 112.269C68.1956 112.01 67.8068 111.881 67.3593 111.881C66.784 111.881 66.3384 112.055 66.0223 112.403C65.7063 112.747 65.5483 113.184 65.5483 113.713V119.04H64.2698V113.436C64.2698 112.971 64.1189 112.596 63.8171 112.312C63.5152 112.024 63.1264 111.881 62.6505 111.881C62.3238 111.881 62.0184 111.968 61.7343 112.142C61.4538 112.316 61.2265 112.557 61.0525 112.866C60.8821 113.171 60.7968 113.525 60.7968 113.926V119.04H59.5397ZM76.0072 119.21C75.2189 119.21 74.5388 119.036 73.9671 118.688C73.3989 118.337 72.9604 117.847 72.6514 117.218C72.346 116.586 72.1933 115.851 72.1933 115.013C72.1933 114.175 72.346 113.436 72.6514 112.797C72.9604 112.154 73.39 111.653 73.9405 111.295C74.4945 110.932 75.1408 110.751 75.8794 110.751C76.3055 110.751 76.7263 110.822 77.1418 110.964C77.5573 111.106 77.9355 111.337 78.2764 111.657C78.6173 111.973 78.889 112.392 79.0914 112.914C79.2938 113.436 79.395 114.079 79.395 114.842V115.375H73.0882V114.288H78.1166C78.1166 113.827 78.0243 113.415 77.8396 113.052C77.6585 112.69 77.3993 112.404 77.0619 112.195C76.7281 111.985 76.3339 111.881 75.8794 111.881C75.3787 111.881 74.9454 112.005 74.5797 112.253C74.2175 112.499 73.9387 112.818 73.7434 113.212C73.5481 113.606 73.4504 114.029 73.4504 114.48V115.204C73.4504 115.822 73.557 116.346 73.77 116.776C73.9866 117.202 74.2867 117.527 74.6702 117.751C75.0538 117.971 75.4994 118.081 76.0072 118.081C76.3375 118.081 76.6358 118.035 76.9021 117.942C77.172 117.847 77.4046 117.704 77.5999 117.516C77.7952 117.325 77.9462 117.087 78.0527 116.802L79.2672 117.143C79.1393 117.555 78.9245 117.918 78.6226 118.23C78.3208 118.539 77.9479 118.78 77.504 118.954C77.0601 119.125 76.5612 119.21 76.0072 119.21ZM82.5644 114.118V119.04H81.3073V110.858H82.5218V112.136H82.6283C82.8201 111.721 83.1113 111.387 83.5019 111.135C83.8925 110.879 84.3968 110.751 85.0147 110.751C85.5687 110.751 86.0534 110.865 86.4689 111.092C86.8844 111.316 87.2075 111.657 87.4383 112.115C87.6692 112.57 87.7846 113.145 87.7846 113.841V119.04H86.5275V113.926C86.5275 113.283 86.3606 112.783 86.0268 112.424C85.693 112.062 85.2349 111.881 84.6525 111.881C84.2512 111.881 83.8925 111.968 83.5765 112.142C83.264 112.316 83.0172 112.57 82.8361 112.903C82.655 113.237 82.5644 113.642 82.5644 114.118ZM93.64 110.858V111.923H89.3999V110.858H93.64ZM90.6357 108.898H91.8928V116.696C91.8928 117.051 91.9443 117.317 92.0473 117.495C92.1538 117.669 92.2888 117.786 92.4521 117.847C92.619 117.903 92.7948 117.932 92.9794 117.932C93.1179 117.932 93.2316 117.925 93.3204 117.91C93.4091 117.893 93.4802 117.878 93.5334 117.868L93.7891 118.997C93.7039 119.029 93.5849 119.061 93.4322 119.093C93.2795 119.128 93.086 119.146 92.8516 119.146C92.4965 119.146 92.1485 119.07 91.8076 118.917C91.4702 118.764 91.1897 118.532 90.966 118.219C90.7458 117.907 90.6357 117.513 90.6357 117.037V108.898ZM98.7669 119.21C98.0283 119.21 97.3802 119.034 96.8227 118.683C96.2687 118.331 95.8354 117.839 95.5229 117.207C95.214 116.575 95.0595 115.837 95.0595 114.991C95.0595 114.139 95.214 113.395 95.5229 112.76C95.8354 112.124 96.2687 111.63 96.8227 111.279C97.3802 110.927 98.0283 110.751 98.7669 110.751C99.5055 110.751 100.152 110.927 100.706 111.279C101.263 111.63 101.697 112.124 102.006 112.76C102.318 113.395 102.474 114.139 102.474 114.991C102.474 115.837 102.318 116.575 102.006 117.207C101.697 117.839 101.263 118.331 100.706 118.683C100.152 119.034 99.5055 119.21 98.7669 119.21ZM98.7669 118.081C99.328 118.081 99.7896 117.937 100.152 117.649C100.514 117.362 100.782 116.984 100.956 116.515C101.13 116.046 101.217 115.538 101.217 114.991C101.217 114.445 101.13 113.935 100.956 113.463C100.782 112.99 100.514 112.609 100.152 112.317C99.7896 112.026 99.328 111.881 98.7669 111.881C98.2058 111.881 97.7442 112.026 97.382 112.317C97.0198 112.609 96.7516 112.99 96.5776 113.463C96.4036 113.935 96.3166 114.445 96.3166 114.991C96.3166 115.538 96.4036 116.046 96.5776 116.515C96.7516 116.984 97.0198 117.362 97.382 117.649C97.7442 117.937 98.2058 118.081 98.7669 118.081ZM110.189 112.69L109.059 113.01C108.988 112.822 108.884 112.639 108.745 112.461C108.61 112.28 108.426 112.131 108.191 112.014C107.957 111.897 107.657 111.838 107.291 111.838C106.79 111.838 106.373 111.953 106.039 112.184C105.709 112.412 105.544 112.701 105.544 113.052C105.544 113.365 105.657 113.612 105.885 113.793C106.112 113.974 106.467 114.125 106.95 114.246L108.165 114.544C108.896 114.722 109.441 114.993 109.8 115.359C110.159 115.721 110.338 116.188 110.338 116.76C110.338 117.229 110.203 117.648 109.933 118.017C109.667 118.386 109.294 118.677 108.814 118.891C108.335 119.104 107.777 119.21 107.142 119.21C106.307 119.21 105.617 119.029 105.07 118.667C104.523 118.305 104.177 117.775 104.031 117.079L105.224 116.781C105.338 117.222 105.553 117.552 105.869 117.772C106.188 117.992 106.606 118.102 107.121 118.102C107.706 118.102 108.172 117.978 108.516 117.729C108.864 117.477 109.038 117.175 109.038 116.824C109.038 116.54 108.939 116.302 108.74 116.11C108.541 115.915 108.236 115.769 107.824 115.673L106.46 115.354C105.711 115.176 105.16 114.901 104.809 114.528C104.461 114.152 104.287 113.681 104.287 113.116C104.287 112.655 104.416 112.246 104.676 111.891C104.938 111.536 105.295 111.257 105.746 111.055C106.201 110.853 106.716 110.751 107.291 110.751C108.101 110.751 108.736 110.929 109.198 111.284C109.663 111.639 109.993 112.108 110.189 112.69ZM117.259 122.108C117.045 122.108 116.856 122.09 116.689 122.055C116.522 122.023 116.406 121.991 116.342 121.959L116.662 120.851C116.967 120.929 117.237 120.957 117.472 120.936C117.706 120.915 117.914 120.81 118.095 120.622C118.28 120.437 118.448 120.137 118.601 119.722L118.835 119.082L115.81 110.858H117.173L119.432 117.378H119.517L121.776 110.858H123.139L119.666 120.233C119.51 120.655 119.316 121.005 119.086 121.282C118.855 121.563 118.587 121.771 118.281 121.905C117.979 122.04 117.639 122.108 117.259 122.108ZM57.5569 137.04V126.131H58.814V130.158H58.9205C59.0128 130.016 59.1407 129.834 59.304 129.614C59.4709 129.391 59.7089 129.192 60.0178 129.018C60.3303 128.84 60.7529 128.751 61.2856 128.751C61.9745 128.751 62.5817 128.924 63.1073 129.268C63.6329 129.613 64.043 130.101 64.3378 130.733C64.6325 131.365 64.7799 132.111 64.7799 132.97C64.7799 133.837 64.6325 134.588 64.3378 135.223C64.043 135.855 63.6346 136.345 63.1126 136.693C62.5906 137.038 61.9887 137.21 61.3069 137.21C60.7813 137.21 60.3605 137.123 60.0444 136.949C59.7284 136.772 59.4851 136.571 59.3147 136.347C59.1442 136.12 59.0128 135.932 58.9205 135.783H58.7714V137.04H57.5569ZM58.7927 132.949C58.7927 133.567 58.8832 134.112 59.0643 134.584C59.2454 135.053 59.51 135.42 59.858 135.687C60.206 135.95 60.6321 136.081 61.1364 136.081C61.662 136.081 62.1005 135.942 62.4521 135.665C62.8072 135.385 63.0736 135.008 63.2511 134.536C63.4322 134.06 63.5228 133.531 63.5228 132.949C63.5228 132.374 63.434 131.855 63.2564 131.393C63.0824 130.928 62.8179 130.561 62.4628 130.291C62.1112 130.017 61.6691 129.881 61.1364 129.881C60.625 129.881 60.1954 130.01 59.8473 130.269C59.4993 130.525 59.2366 130.884 59.059 131.345C58.8814 131.804 58.7927 132.338 58.7927 132.949ZM70.1332 137.21C69.3449 137.21 68.6648 137.036 68.0931 136.688C67.5249 136.337 67.0863 135.847 66.7774 135.218C66.472 134.586 66.3193 133.851 66.3193 133.013C66.3193 132.175 66.472 131.436 66.7774 130.797C67.0863 130.154 67.516 129.653 68.0665 129.295C68.6204 128.932 69.2667 128.751 70.0054 128.751C70.4315 128.751 70.8523 128.822 71.2678 128.964C71.6833 129.106 72.0615 129.337 72.4024 129.657C72.7433 129.973 73.015 130.392 73.2174 130.914C73.4198 131.436 73.521 132.079 73.521 132.842V133.375H67.2142V132.288H72.2426C72.2426 131.827 72.1503 131.415 71.9656 131.052C71.7845 130.69 71.5253 130.404 71.1879 130.195C70.8541 129.985 70.4599 129.881 70.0054 129.881C69.5047 129.881 69.0714 130.005 68.7057 130.253C68.3434 130.499 68.0647 130.818 67.8694 131.212C67.6741 131.606 67.5764 132.029 67.5764 132.48V133.204C67.5764 133.822 67.6829 134.346 67.896 134.776C68.1126 135.202 68.4127 135.527 68.7962 135.751C69.1797 135.971 69.6254 136.081 70.1332 136.081C70.4635 136.081 70.7618 136.035 71.0281 135.942C71.298 135.847 71.5306 135.704 71.7259 135.516C71.9212 135.325 72.0721 135.087 72.1787 134.802L73.3932 135.143C73.2653 135.555 73.0505 135.918 72.7486 136.23C72.4468 136.539 72.0739 136.78 71.63 136.954C71.1861 137.125 70.6872 137.21 70.1332 137.21ZM75.6037 137.04V126.131H76.8608V130.158H76.9674C77.0597 130.016 77.1875 129.834 77.3509 129.614C77.5178 129.391 77.7557 129.192 78.0647 129.018C78.3772 128.84 78.7998 128.751 79.3324 128.751C80.0214 128.751 80.6286 128.924 81.1542 129.268C81.6797 129.613 82.0899 130.101 82.3846 130.733C82.6794 131.365 82.8267 132.111 82.8267 132.97C82.8267 133.837 82.6794 134.588 82.3846 135.223C82.0899 135.855 81.6815 136.345 81.1595 136.693C80.6375 137.038 80.0356 137.21 79.3537 137.21C78.8282 137.21 78.4074 137.123 78.0913 136.949C77.7753 136.772 77.532 136.571 77.3616 136.347C77.1911 136.12 77.0597 135.932 76.9674 135.783H76.8182V137.04H75.6037ZM76.8395 132.949C76.8395 133.567 76.9301 134.112 77.1112 134.584C77.2923 135.053 77.5569 135.42 77.9049 135.687C78.2529 135.95 78.679 136.081 79.1833 136.081C79.7089 136.081 80.1474 135.942 80.499 135.665C80.8541 135.385 81.1204 135.008 81.298 134.536C81.4791 134.06 81.5696 133.531 81.5696 132.949C81.5696 132.374 81.4809 131.855 81.3033 131.393C81.1293 130.928 80.8647 130.561 80.5096 130.291C80.1581 130.017 79.716 129.881 79.1833 129.881C78.6719 129.881 78.2422 130.01 77.8942 130.269C77.5462 130.525 77.2834 130.884 77.1059 131.345C76.9283 131.804 76.8395 132.338 76.8395 132.949ZM84.7497 137.04V128.858H86.0068V137.04H84.7497ZM85.3889 127.494C85.1439 127.494 84.9326 127.411 84.755 127.244C84.581 127.077 84.494 126.876 84.494 126.642C84.494 126.408 84.581 126.207 84.755 126.04C84.9326 125.873 85.1439 125.79 85.3889 125.79C85.6339 125.79 85.8434 125.873 86.0174 126.04C86.195 126.207 86.2838 126.408 86.2838 126.642C86.2838 126.876 86.195 127.077 86.0174 127.244C85.8434 127.411 85.6339 127.494 85.3889 127.494ZM91.3987 137.21C90.7169 137.21 90.115 137.038 89.593 136.693C89.071 136.345 88.6626 135.855 88.3679 135.223C88.0731 134.588 87.9257 133.837 87.9257 132.97C87.9257 132.111 88.0731 131.365 88.3679 130.733C88.6626 130.101 89.0728 129.613 89.5983 129.268C90.1239 128.924 90.7311 128.751 91.4201 128.751C91.9527 128.751 92.3735 128.84 92.6825 129.018C92.995 129.192 93.2329 129.391 93.3963 129.614C93.5632 129.834 93.6928 130.016 93.7851 130.158H93.8916V126.131H95.1487V137.04H93.9343V135.783H93.7851C93.6928 135.932 93.5614 136.12 93.3909 136.347C93.2205 136.571 92.9772 136.772 92.6612 136.949C92.3451 137.123 91.9243 137.21 91.3987 137.21ZM91.5692 136.081C92.0735 136.081 92.4996 135.95 92.8476 135.687C93.1956 135.42 93.4602 135.053 93.6413 134.584C93.8224 134.112 93.913 133.567 93.913 132.949C93.913 132.338 93.8242 131.804 93.6466 131.345C93.4691 130.884 93.2063 130.525 92.8583 130.269C92.5103 130.01 92.0806 129.881 91.5692 129.881C91.0365 129.881 90.5926 130.017 90.2375 130.291C89.886 130.561 89.6214 130.928 89.4438 131.393C89.2698 131.855 89.1828 132.374 89.1828 132.949C89.1828 133.531 89.2716 134.06 89.4492 134.536C89.6303 135.008 89.8966 135.385 90.2482 135.665C90.6033 135.942 91.0436 136.081 91.5692 136.081ZM100.033 137.231C99.5149 137.231 99.0443 137.134 98.6218 136.938C98.1992 136.74 97.8636 136.454 97.615 136.081C97.3664 135.704 97.2421 135.25 97.2421 134.717C97.2421 134.249 97.3345 133.869 97.5191 133.577C97.7038 133.283 97.9506 133.052 98.2595 132.885C98.5685 132.718 98.9094 132.594 99.2823 132.512C99.6587 132.427 100.037 132.359 100.417 132.31C100.914 132.246 101.317 132.198 101.626 132.166C101.939 132.13 102.166 132.072 102.308 131.99C102.453 131.908 102.526 131.766 102.526 131.564V131.521C102.526 130.996 102.382 130.587 102.095 130.296C101.811 130.005 101.379 129.859 100.8 129.859C100.2 129.859 99.7297 129.991 99.3888 130.253C99.0479 130.516 98.8082 130.797 98.6697 131.095L97.4765 130.669C97.6896 130.172 97.9737 129.785 98.3288 129.508C98.6875 129.227 99.0781 129.032 99.5007 128.922C99.9268 128.808 100.346 128.751 100.758 128.751C101.021 128.751 101.322 128.783 101.663 128.847C102.008 128.908 102.34 129.034 102.659 129.225C102.983 129.417 103.251 129.707 103.464 130.094C103.677 130.481 103.783 130.999 103.783 131.649V137.04H102.526V135.932H102.462C102.377 136.109 102.235 136.299 102.036 136.502C101.837 136.704 101.573 136.876 101.242 137.018C100.912 137.16 100.509 137.231 100.033 137.231ZM100.225 136.102C100.722 136.102 101.141 136.005 101.482 135.809C101.827 135.614 102.086 135.362 102.26 135.053C102.437 134.744 102.526 134.419 102.526 134.078V132.927C102.473 132.991 102.356 133.05 102.175 133.103C101.997 133.153 101.791 133.197 101.557 133.236C101.326 133.272 101.1 133.304 100.88 133.332C100.664 133.357 100.488 133.378 100.353 133.396C100.026 133.439 99.7208 133.508 99.4367 133.604C99.1562 133.696 98.9289 133.837 98.7549 134.025C98.5845 134.209 98.4992 134.462 98.4992 134.781C98.4992 135.218 98.6608 135.548 98.984 135.772C99.3107 135.992 99.7244 136.102 100.225 136.102ZM111.873 130.69L110.744 131.01C110.673 130.822 110.568 130.639 110.43 130.461C110.295 130.28 110.11 130.131 109.876 130.014C109.641 129.897 109.341 129.838 108.976 129.838C108.475 129.838 108.058 129.953 107.724 130.184C107.394 130.412 107.228 130.701 107.228 131.052C107.228 131.365 107.342 131.612 107.569 131.793C107.797 131.974 108.152 132.125 108.635 132.246L109.849 132.544C110.581 132.722 111.126 132.993 111.484 133.359C111.843 133.721 112.022 134.188 112.022 134.76C112.022 135.229 111.887 135.648 111.618 136.017C111.351 136.386 110.978 136.677 110.499 136.891C110.02 137.104 109.462 137.21 108.826 137.21C107.992 137.21 107.301 137.029 106.754 136.667C106.207 136.305 105.861 135.775 105.716 135.079L106.909 134.781C107.022 135.222 107.237 135.552 107.553 135.772C107.873 135.992 108.29 136.102 108.805 136.102C109.391 136.102 109.856 135.978 110.201 135.729C110.549 135.477 110.723 135.175 110.723 134.824C110.723 134.54 110.623 134.302 110.424 134.11C110.226 133.915 109.92 133.769 109.508 133.673L108.145 133.354C107.395 133.176 106.845 132.901 106.493 132.528C106.145 132.152 105.971 131.681 105.971 131.116C105.971 130.655 106.101 130.246 106.36 129.891C106.623 129.536 106.98 129.257 107.431 129.055C107.885 128.853 108.4 128.751 108.976 128.751C109.785 128.751 110.421 128.929 110.883 129.284C111.348 129.639 111.678 130.108 111.873 130.69Z" fill="black"/>
<path d="M275.222 75.6907C275.185 74.1722 275.185 72.65 275.222 71.1278C275.251 69.8642 275.118 68.6672 274.187 67.6474C275.137 66.6166 275.251 65.39 275.222 64.1006C275.181 62.475 275.218 60.8493 275.211 59.2237C275.203 56.7815 273.711 55.2113 271.283 55.1559C270.36 55.1337 269.432 55.13 268.508 55.1337C268.095 55.0894 259.712 55.1485 259.29 55.1485C257.857 55.1485 256.427 55.1485 254.975 55.1485C254.938 54.731 254.905 54.3209 254.875 53.9071C254.679 54.1325 254.45 54.3431 254.177 54.5315C253.804 54.7864 253.486 55.1226 253.209 55.5069C253.327 56.715 253.338 57.9121 253.301 59.1091C253.545 59.1424 253.763 59.3419 253.667 59.6412C253.512 60.1215 253.357 60.6018 253.209 61.0858C253.453 61.0414 253.715 61.1708 253.686 61.4996C253.63 62.1203 253.608 62.7447 253.49 63.358C253.405 64.725 253.431 66.1031 253.471 67.4738C253.667 67.5071 253.833 67.6511 253.808 67.895C253.645 69.5465 254.096 71.1684 254.114 72.8162C254.114 72.9788 254.04 73.0859 253.937 73.1525C254.096 73.2153 254.229 73.352 254.236 73.5552C254.295 75.1328 254.251 76.7584 253.789 78.2806C253.719 78.506 253.501 78.602 253.298 78.5762C253.298 78.5799 253.298 78.5836 253.298 78.5873C253.264 78.772 253.139 78.857 252.995 78.8791C252.88 79.2043 252.832 79.5442 252.825 79.8915C252.821 80.0836 252.714 80.2018 252.577 80.2572C252.74 82.2634 253.069 84.2474 253.567 86.2241C253.793 87.1219 253.87 88.0529 254.026 89.0394C254.011 89.0394 254.003 89.0394 253.989 89.0394C253.989 89.2315 253.859 89.4421 253.663 89.4643C252.88 89.5566 252.093 89.6047 251.306 89.6305C251.247 89.7192 251.192 89.8116 251.125 89.8928C251.162 89.9926 251.199 90.096 251.24 90.1958C251.399 90.5985 251.517 91.0123 251.613 91.4335C258.182 91.4335 264.751 91.4335 271.32 91.4335C273.622 91.4335 275.203 89.8153 275.214 87.5024C275.225 85.8768 275.192 84.2511 275.225 82.6255C275.255 81.2917 275.192 79.9986 274.183 78.9604C275.055 77.9813 275.255 76.8766 275.225 75.6833L275.222 75.6907ZM255.219 57.5426C255.374 57.5352 255.555 57.5131 255.732 57.5131C257.277 57.5131 266.779 57.5315 268.601 57.5094C269.447 57.5094 270.297 57.5094 271.143 57.5168C272.351 57.5278 272.846 58.0525 272.85 59.2643C272.857 61.0193 272.85 62.7779 272.85 64.5329C272.85 66.0255 272.425 66.4615 270.943 66.4615C265.989 66.4615 261.034 66.4615 256.083 66.4615C255.832 66.4615 255.581 66.4282 255.219 66.4061V57.5426ZM255.293 68.826H256.028C261.005 68.826 265.985 68.826 270.962 68.826C272.384 68.826 272.85 69.2879 272.85 70.7066C272.85 72.5133 272.857 74.3237 272.85 76.1303C272.842 77.2202 272.34 77.7634 271.287 77.7671C265.915 77.7781 260.543 77.7707 255.171 77.7671C255.071 77.7671 254.971 77.7412 254.753 77.7116C254.934 74.7448 255.108 71.8483 255.293 68.8223V68.826ZM272.85 87.4581C272.842 88.5369 272.325 89.08 271.272 89.0837C266.428 89.0948 261.581 89.0874 256.737 89.0837C256.612 89.0837 256.486 89.0542 256.457 89.0542C255.902 86.08 255.356 83.1649 254.79 80.1353H255.744C260.798 80.1353 265.852 80.1353 270.91 80.1353C272.429 80.1353 272.853 80.5713 272.853 82.1156C272.853 83.8965 272.861 85.6773 272.853 87.4581H272.85Z" fill="#424242"/>
<path d="M256.626 89.0357C256.582 89.0283 256.541 89.0061 256.505 88.9803C256.405 89.0135 256.298 88.9987 256.205 88.9544C255.976 89.2167 255.492 89.1133 255.452 88.6699C255.426 88.4002 255.404 88.1305 255.381 87.8571C255.222 88.3891 254.798 88.8436 254.147 89.0911C253.782 89.2278 253.394 89.3239 253.006 89.3719C246.204 90.266 239.369 90.7832 232.512 90.9015C225.3 91.0234 218.11 90.6798 210.939 89.9224C209.191 89.7377 207.436 89.5566 205.707 89.2352C203.786 88.8805 203.287 87.2364 204.576 85.7696C204.957 85.3337 205.367 84.9235 205.759 84.4987C206.605 83.5861 206.952 82.5368 206.897 81.2659C206.627 74.8335 206.324 68.3975 206.198 61.9614C206.014 52.5327 206.306 43.1077 206.889 33.6938C206.978 32.2898 206.56 31.1592 205.611 30.1691C205.131 29.6703 204.632 29.1715 204.237 28.6062C203.487 27.5311 203.856 26.3008 205.06 25.8057C205.522 25.6173 206.036 25.5249 206.535 25.4473C207.54 25.2922 214.992 24.6604 215.993 24.4941C216.584 24.3944 214.663 24.3907 214.604 23.8032C214.541 23.1973 215.295 22.3882 214.733 22.451C213.218 22.6209 206.254 23.2897 204.798 23.6924C201.765 24.5495 200.834 27.7417 202.814 30.2023C203.221 30.7048 203.671 31.174 204.129 31.6358C204.65 32.1642 204.842 32.759 204.817 33.5127C204.554 40.9648 204.137 48.4206 204.137 55.8726C204.137 63.9528 204.484 72.033 204.794 80.1094C204.857 81.7462 204.584 83.0282 203.309 84.1033C202.541 84.7499 202.016 85.6144 201.854 86.6452C201.48 89.0098 202.899 90.9938 205.508 91.3079C210.263 91.8805 215.04 92.2796 219.809 92.7118C221.513 92.867 223.223 92.9077 224.934 93H234.385C234.566 92.9705 234.743 92.9224 234.928 92.9113C238.948 92.6564 242.975 92.4532 246.991 92.1392C249.296 91.9581 251.598 91.6663 253.881 91.3042C255.3 91.0788 256.486 90.4101 257.11 89.1059L256.63 89.0246L256.626 89.0357Z" fill="#424242"/>
<path d="M256.782 29.8033C258.3 27.6013 257.502 24.9116 255.034 23.8845C254.424 23.6296 253.752 23.4523 253.094 23.3895C248.21 22.9239 243.326 22.403 238.43 22.0853C231.233 21.616 224.029 21.7934 216.835 22.2958C215.819 22.366 214.803 22.451 213.791 22.5434C213.078 22.6099 212.671 23.0237 212.697 23.6407C212.719 24.254 213.17 24.6309 213.879 24.6235C214.086 24.6235 214.297 24.6013 214.504 24.5902C218.413 24.3759 222.318 24.0693 226.227 23.9695C234.085 23.7626 241.925 24.1949 249.736 25.0668C250.999 25.2072 252.27 25.3439 253.519 25.5878C255.562 25.9831 256.065 27.6013 254.665 29.1605C254.295 29.5743 253.903 29.9696 253.527 30.3797C252.706 31.2775 252.363 32.3083 252.415 33.5534C252.684 40.0338 252.987 46.5142 253.113 52.9946C253.298 62.4011 252.995 71.8039 252.418 81.192C252.418 81.2105 252.418 81.2253 252.418 81.2437C252.422 81.2548 252.433 81.2659 252.437 81.277C252.736 82.1785 252.928 83.1132 253.179 84.0258C253.327 84.2401 253.493 84.4507 253.685 84.6502C254.166 85.1527 254.665 85.644 255.064 86.2093C255.167 86.3571 255.248 86.5086 255.311 86.6601C255.285 86.0468 255.282 85.4297 255.322 84.8164C255.307 84.7869 255.289 84.761 255.282 84.7278C255.174 84.2142 255.123 83.697 255.163 83.1797C254.657 82.6735 254.472 82.0935 254.502 81.3657C254.761 74.8631 255.071 68.3605 255.2 61.8543C255.385 52.3997 255.075 42.9562 254.506 33.5164C254.461 32.759 254.676 32.1753 255.189 31.6359C255.747 31.0521 256.327 30.4684 256.785 29.807L256.782 29.8033Z" fill="#424242"/>
<path d="M231.488 53.2568C230.893 53.944 230.686 54.6904 230.679 55.4958C230.664 57.2101 230.657 58.9244 230.694 60.6387C230.701 60.9084 230.89 61.2483 231.108 61.422C232.187 62.2976 233.295 63.1363 234.403 63.975C235.545 64.8395 236.051 65.9701 235.767 67.3777C235.493 68.7337 234.595 69.5391 233.284 69.9122C228.636 71.2386 223.988 72.5613 219.34 73.8914C217.962 74.2867 216.754 73.9948 215.823 72.8938C214.87 71.7706 214.792 70.5071 215.446 69.1992C217.22 65.6376 218.986 62.0722 220.785 58.5254C221.816 56.4896 224.236 56.0204 225.946 57.4761C226.489 57.9416 226.589 58.5106 226.209 58.9983C225.858 59.4527 225.274 59.5155 224.72 59.1572C223.611 58.4478 223.068 58.5956 222.477 59.7816C220.789 63.1548 219.111 66.528 217.419 69.8975C217.146 70.4406 216.954 70.9689 217.386 71.5157C217.844 72.0921 218.42 71.9923 219.03 71.8187C223.541 70.5256 228.056 69.2435 232.567 67.9578C233.125 67.7989 233.616 67.5772 233.735 66.9196C233.849 66.2693 233.483 65.8888 233.014 65.5378C232.124 64.8728 231.241 64.1966 230.376 63.4984C230.051 63.236 229.829 63.2065 229.482 63.4799C228.351 64.3666 227.195 65.2127 226.042 66.0698C225.344 66.5908 224.738 66.5575 224.347 65.9996C223.973 65.4676 224.125 64.9097 224.794 64.4072C225.883 63.587 226.973 62.7594 228.078 61.9614C228.451 61.6917 228.614 61.4035 228.606 60.9306C228.577 59.2163 228.606 57.502 228.592 55.7877C228.581 54.3246 228.972 53.0056 229.907 51.8566C230.04 51.6903 230.103 51.3984 230.073 51.1805C229.863 49.7026 230.369 48.5647 231.581 47.6927C233.971 45.9784 236.328 44.2235 238.722 42.5165C240.946 40.9278 243.795 42.1545 244.032 44.7887C244.135 45.9304 243.736 46.9132 242.816 47.5967C240.27 49.4883 237.71 51.3578 235.124 53.194C233.978 54.0068 232.737 53.9477 231.492 53.2605L231.488 53.2568ZM242.125 45.04C241.841 44.6631 241.656 44.1606 241.357 44.0794C240.924 43.9611 240.3 43.987 239.953 44.2308C237.507 45.9341 235.109 47.7038 232.704 49.4661C232.061 49.9391 231.932 50.6632 232.342 51.2137C232.748 51.7568 233.432 51.8529 234.063 51.3947C236.517 49.625 238.97 47.8479 241.397 46.0412C241.685 45.8269 241.841 45.439 242.121 45.04H242.125Z" fill="#424242"/>
<path d="M229.633 27.2356C235.903 27.4166 242.132 27.8415 248.339 28.6691C248.432 28.6802 248.524 28.6949 248.613 28.7134C249.326 28.8538 249.721 29.2935 249.655 29.8698C249.584 30.4905 249.078 30.8489 248.332 30.7676C246.928 30.6125 245.528 30.4314 244.128 30.2799C238.087 29.6223 232.028 29.2676 225.961 29.578C220.995 29.8292 216.045 30.3575 211.086 30.7529C210.817 30.775 210.444 30.8267 210.288 30.6827C210.011 30.4277 209.719 30.0398 209.694 29.6925C209.657 29.1568 210.056 28.8132 210.61 28.7393C212.261 28.5287 213.909 28.2553 215.572 28.1371C220.256 27.8008 224.949 27.5311 229.637 27.2356H229.633Z" fill="#424242"/>
<path d="M229.685 87.3029C223.404 87.4359 217.149 86.9852 210.924 86.165C210.111 86.0578 209.69 85.6994 209.66 85.1231C209.627 84.4469 210.185 83.9888 210.975 84.0738C213.436 84.3361 215.893 84.6502 218.361 84.8644C224.598 85.4039 230.849 85.5553 237.096 85.1157C240.813 84.8571 244.515 84.4359 248.225 84.0849C249.056 84.0073 249.555 84.2992 249.655 84.9273C249.754 85.5627 249.307 86.0689 248.454 86.1502C244.19 86.5492 239.93 86.9741 235.663 87.277C233.683 87.4174 231.684 87.2992 229.692 87.2992L229.685 87.3029Z" fill="#424242"/>
<path d="M162.719 119V108.091H169.26V109.263H164.04V112.949H168.77V114.121H164.04V119H162.719ZM174.182 119.17C173.394 119.17 172.714 118.996 172.142 118.648C171.574 118.297 171.135 117.807 170.826 117.178C170.521 116.546 170.368 115.811 170.368 114.973C170.368 114.135 170.521 113.396 170.826 112.757C171.135 112.114 171.565 111.614 172.115 111.255C172.669 110.893 173.316 110.712 174.054 110.712C174.48 110.712 174.901 110.783 175.317 110.925C175.732 111.067 176.11 111.298 176.451 111.617C176.792 111.933 177.064 112.352 177.266 112.874C177.469 113.396 177.57 114.039 177.57 114.803V115.335H171.263V114.249H176.291C176.291 113.787 176.199 113.375 176.014 113.013C175.833 112.651 175.574 112.365 175.237 112.155C174.903 111.946 174.509 111.841 174.054 111.841C173.553 111.841 173.12 111.965 172.754 112.214C172.392 112.459 172.114 112.778 171.918 113.173C171.723 113.567 171.625 113.989 171.625 114.44V115.165C171.625 115.783 171.732 116.306 171.945 116.736C172.161 117.162 172.462 117.487 172.845 117.711C173.229 117.931 173.674 118.041 174.182 118.041C174.512 118.041 174.811 117.995 175.077 117.903C175.347 117.807 175.579 117.665 175.775 117.477C175.97 117.285 176.121 117.047 176.227 116.763L177.442 117.104C177.314 117.516 177.099 117.878 176.797 118.19C176.496 118.499 176.123 118.741 175.679 118.915C175.235 119.085 174.736 119.17 174.182 119.17ZM179.482 119V110.818H180.697V112.054H180.782C180.931 111.649 181.201 111.321 181.591 111.069C181.982 110.816 182.422 110.69 182.913 110.69C183.005 110.69 183.12 110.692 183.259 110.696C183.397 110.699 183.502 110.705 183.573 110.712V111.99C183.53 111.979 183.433 111.963 183.28 111.942C183.131 111.917 182.973 111.905 182.806 111.905C182.408 111.905 182.053 111.988 181.741 112.155C181.432 112.319 181.187 112.546 181.006 112.837C180.828 113.125 180.739 113.453 180.739 113.822V119H179.482ZM185.063 119V110.818H186.278V112.054H186.363C186.512 111.649 186.782 111.321 187.173 111.069C187.563 110.816 188.004 110.69 188.494 110.69C188.586 110.69 188.701 110.692 188.84 110.696C188.978 110.699 189.083 110.705 189.154 110.712V111.99C189.111 111.979 189.014 111.963 188.861 111.942C188.712 111.917 188.554 111.905 188.387 111.905C187.989 111.905 187.634 111.988 187.322 112.155C187.013 112.319 186.768 112.546 186.587 112.837C186.409 113.125 186.32 113.453 186.32 113.822V119H185.063ZM193.826 119.17C193.037 119.17 192.357 118.996 191.785 118.648C191.217 118.297 190.779 117.807 190.47 117.178C190.164 116.546 190.012 115.811 190.012 114.973C190.012 114.135 190.164 113.396 190.47 112.757C190.779 112.114 191.208 111.614 191.759 111.255C192.313 110.893 192.959 110.712 193.698 110.712C194.124 110.712 194.545 110.783 194.96 110.925C195.376 111.067 195.754 111.298 196.095 111.617C196.436 111.933 196.707 112.352 196.91 112.874C197.112 113.396 197.213 114.039 197.213 114.803V115.335H190.907V114.249H195.935C195.935 113.787 195.843 113.375 195.658 113.013C195.477 112.651 195.218 112.365 194.88 112.155C194.546 111.946 194.152 111.841 193.698 111.841C193.197 111.841 192.764 111.965 192.398 112.214C192.036 112.459 191.757 112.778 191.562 113.173C191.366 113.567 191.269 113.989 191.269 114.44V115.165C191.269 115.783 191.375 116.306 191.588 116.736C191.805 117.162 192.105 117.487 192.489 117.711C192.872 117.931 193.318 118.041 193.826 118.041C194.156 118.041 194.454 117.995 194.72 117.903C194.99 117.807 195.223 117.665 195.418 117.477C195.614 117.285 195.765 117.047 195.871 116.763L197.086 117.104C196.958 117.516 196.743 117.878 196.441 118.19C196.139 118.499 195.766 118.741 195.322 118.915C194.879 119.085 194.38 119.17 193.826 119.17ZM202.684 110.818V111.884H198.444V110.818H202.684ZM199.68 108.858H200.937V116.656C200.937 117.011 200.988 117.278 201.091 117.455C201.198 117.629 201.333 117.746 201.496 117.807C201.663 117.864 201.839 117.892 202.023 117.892C202.162 117.892 202.276 117.885 202.364 117.871C202.453 117.853 202.524 117.839 202.577 117.828L202.833 118.957C202.748 118.989 202.629 119.021 202.476 119.053C202.323 119.089 202.13 119.107 201.896 119.107C201.54 119.107 201.192 119.03 200.852 118.877C200.514 118.725 200.234 118.492 200.01 118.18C199.79 117.867 199.68 117.473 199.68 116.997V108.858ZM207.917 119.17C207.129 119.17 206.449 118.996 205.877 118.648C205.309 118.297 204.871 117.807 204.562 117.178C204.256 116.546 204.103 115.811 204.103 114.973C204.103 114.135 204.256 113.396 204.562 112.757C204.871 112.114 205.3 111.614 205.851 111.255C206.405 110.893 207.051 110.712 207.79 110.712C208.216 110.712 208.636 110.783 209.052 110.925C209.467 111.067 209.846 111.298 210.187 111.617C210.527 111.933 210.799 112.352 211.002 112.874C211.204 113.396 211.305 114.039 211.305 114.803V115.335H204.998V114.249H210.027C210.027 113.787 209.934 113.375 209.75 113.013C209.569 112.651 209.309 112.365 208.972 112.155C208.638 111.946 208.244 111.841 207.79 111.841C207.289 111.841 206.856 111.965 206.49 112.214C206.128 112.459 205.849 112.778 205.654 113.173C205.458 113.567 205.361 113.989 205.361 114.44V115.165C205.361 115.783 205.467 116.306 205.68 116.736C205.897 117.162 206.197 117.487 206.58 117.711C206.964 117.931 207.41 118.041 207.917 118.041C208.248 118.041 208.546 117.995 208.812 117.903C209.082 117.807 209.315 117.665 209.51 117.477C209.705 117.285 209.856 117.047 209.963 116.763L211.177 117.104C211.049 117.516 210.835 117.878 210.533 118.19C210.231 118.499 209.858 118.741 209.414 118.915C208.97 119.085 208.471 119.17 207.917 119.17ZM213.217 119V110.818H214.432V112.054H214.517C214.666 111.649 214.936 111.321 215.327 111.069C215.717 110.816 216.158 110.69 216.648 110.69C216.74 110.69 216.856 110.692 216.994 110.696C217.133 110.699 217.237 110.705 217.308 110.712V111.99C217.266 111.979 217.168 111.963 217.015 111.942C216.866 111.917 216.708 111.905 216.541 111.905C216.144 111.905 215.788 111.988 215.476 112.155C215.167 112.319 214.922 112.546 214.741 112.837C214.563 113.125 214.475 113.453 214.475 113.822V119H213.217ZM218.799 119V110.818H220.056V119H218.799ZM218.862 109.71L220.162 107.239H221.632L219.97 109.71H218.862ZM224.766 119.192C224.247 119.192 223.777 119.094 223.354 118.899C222.932 118.7 222.596 118.414 222.347 118.041C222.099 117.665 221.975 117.21 221.975 116.678C221.975 116.209 222.067 115.829 222.252 115.538C222.436 115.243 222.683 115.012 222.992 114.845C223.301 114.678 223.642 114.554 224.015 114.472C224.391 114.387 224.769 114.32 225.149 114.27C225.646 114.206 226.049 114.158 226.358 114.126C226.671 114.091 226.898 114.032 227.04 113.95C227.186 113.869 227.259 113.727 227.259 113.524V113.482C227.259 112.956 227.115 112.548 226.827 112.256C226.543 111.965 226.112 111.82 225.533 111.82C224.933 111.82 224.462 111.951 224.121 112.214C223.78 112.477 223.541 112.757 223.402 113.055L222.209 112.629C222.422 112.132 222.706 111.745 223.061 111.468C223.42 111.187 223.811 110.992 224.233 110.882C224.659 110.768 225.078 110.712 225.49 110.712C225.753 110.712 226.055 110.744 226.396 110.808C226.74 110.868 227.072 110.994 227.392 111.186C227.715 111.377 227.983 111.667 228.196 112.054C228.409 112.441 228.516 112.96 228.516 113.609V119H227.259V117.892H227.195C227.11 118.07 226.967 118.26 226.769 118.462C226.57 118.664 226.305 118.837 225.975 118.979C225.645 119.121 225.242 119.192 224.766 119.192ZM224.958 118.062C225.455 118.062 225.874 117.965 226.215 117.77C226.559 117.574 226.818 117.322 226.992 117.013C227.17 116.704 227.259 116.379 227.259 116.038V114.888C227.205 114.952 227.088 115.01 226.907 115.064C226.73 115.113 226.524 115.158 226.289 115.197C226.058 115.232 225.833 115.264 225.613 115.293C225.396 115.317 225.22 115.339 225.085 115.357C224.759 115.399 224.453 115.468 224.169 115.564C223.889 115.657 223.661 115.797 223.487 115.985C223.317 116.17 223.232 116.422 223.232 116.741C223.232 117.178 223.393 117.509 223.716 117.732C224.043 117.952 224.457 118.062 224.958 118.062ZM232.685 117.509L232.6 118.084C232.54 118.489 232.447 118.922 232.323 119.384C232.202 119.845 232.076 120.28 231.945 120.689C231.813 121.097 231.705 121.422 231.62 121.663H230.661C230.707 121.436 230.768 121.136 230.842 120.763C230.917 120.39 230.991 119.973 231.066 119.511C231.144 119.053 231.208 118.585 231.258 118.105L231.322 117.509H232.685ZM239.233 119V110.818H240.448V112.097H240.554C240.725 111.66 241 111.321 241.38 111.079C241.76 110.834 242.216 110.712 242.749 110.712C243.288 110.712 243.738 110.834 244.096 111.079C244.459 111.321 244.741 111.66 244.943 112.097H245.029C245.238 111.674 245.552 111.338 245.971 111.09C246.39 110.838 246.893 110.712 247.479 110.712C248.21 110.712 248.809 110.941 249.274 111.399C249.739 111.853 249.972 112.562 249.972 113.524V119H248.715V113.524C248.715 112.92 248.549 112.489 248.219 112.23C247.889 111.971 247.5 111.841 247.053 111.841C246.477 111.841 246.032 112.015 245.716 112.363C245.4 112.707 245.242 113.144 245.242 113.673V119H243.963V113.396C243.963 112.931 243.812 112.556 243.51 112.272C243.209 111.985 242.82 111.841 242.344 111.841C242.017 111.841 241.712 111.928 241.428 112.102C241.147 112.276 240.92 112.517 240.746 112.826C240.575 113.132 240.49 113.485 240.49 113.886V119H239.233ZM254.678 119.192C254.159 119.192 253.689 119.094 253.266 118.899C252.844 118.7 252.508 118.414 252.26 118.041C252.011 117.665 251.887 117.21 251.887 116.678C251.887 116.209 251.979 115.829 252.164 115.538C252.348 115.243 252.595 115.012 252.904 114.845C253.213 114.678 253.554 114.554 253.927 114.472C254.303 114.387 254.681 114.32 255.061 114.27C255.559 114.206 255.962 114.158 256.271 114.126C256.583 114.091 256.81 114.032 256.952 113.95C257.098 113.869 257.171 113.727 257.171 113.524V113.482C257.171 112.956 257.027 112.548 256.739 112.256C256.455 111.965 256.024 111.82 255.445 111.82C254.845 111.82 254.374 111.951 254.033 112.214C253.692 112.477 253.453 112.757 253.314 113.055L252.121 112.629C252.334 112.132 252.618 111.745 252.973 111.468C253.332 111.187 253.723 110.992 254.145 110.882C254.571 110.768 254.99 110.712 255.402 110.712C255.665 110.712 255.967 110.744 256.308 110.808C256.652 110.868 256.984 110.994 257.304 111.186C257.627 111.377 257.895 111.667 258.108 112.054C258.321 112.441 258.428 112.96 258.428 113.609V119H257.171V117.892H257.107C257.022 118.07 256.88 118.26 256.681 118.462C256.482 118.664 256.217 118.837 255.887 118.979C255.557 119.121 255.154 119.192 254.678 119.192ZM254.87 118.062C255.367 118.062 255.786 117.965 256.127 117.77C256.471 117.574 256.73 117.322 256.904 117.013C257.082 116.704 257.171 116.379 257.171 116.038V114.888C257.117 114.952 257 115.01 256.819 115.064C256.642 115.113 256.436 115.158 256.201 115.197C255.97 115.232 255.745 115.264 255.525 115.293C255.308 115.317 255.132 115.339 254.997 115.357C254.671 115.399 254.365 115.468 254.081 115.564C253.801 115.657 253.573 115.797 253.399 115.985C253.229 116.17 253.144 116.422 253.144 116.741C253.144 117.178 253.305 117.509 253.629 117.732C253.955 117.952 254.369 118.062 254.87 118.062ZM264.281 110.818V111.884H260.041V110.818H264.281ZM261.276 108.858H262.533V116.656C262.533 117.011 262.585 117.278 262.688 117.455C262.794 117.629 262.929 117.746 263.093 117.807C263.26 117.864 263.435 117.892 263.62 117.892C263.759 117.892 263.872 117.885 263.961 117.871C264.05 117.853 264.121 117.839 264.174 117.828L264.43 118.957C264.345 118.989 264.226 119.021 264.073 119.053C263.92 119.089 263.727 119.107 263.492 119.107C263.137 119.107 262.789 119.03 262.448 118.877C262.111 118.725 261.83 118.492 261.607 118.18C261.386 117.867 261.276 117.473 261.276 116.997V108.858ZM269.514 119.17C268.726 119.17 268.046 118.996 267.474 118.648C266.906 118.297 266.467 117.807 266.158 117.178C265.853 116.546 265.7 115.811 265.7 114.973C265.7 114.135 265.853 113.396 266.158 112.757C266.467 112.114 266.897 111.614 267.447 111.255C268.001 110.893 268.648 110.712 269.386 110.712C269.812 110.712 270.233 110.783 270.649 110.925C271.064 111.067 271.442 111.298 271.783 111.617C272.124 111.933 272.396 112.352 272.598 112.874C272.801 113.396 272.902 114.039 272.902 114.803V115.335H266.595V114.249H271.623C271.623 113.787 271.531 113.375 271.346 113.013C271.165 112.651 270.906 112.365 270.569 112.155C270.235 111.946 269.841 111.841 269.386 111.841C268.886 111.841 268.452 111.965 268.087 112.214C267.724 112.459 267.446 112.778 267.25 113.173C267.055 113.567 266.957 113.989 266.957 114.44V115.165C266.957 115.783 267.064 116.306 267.277 116.736C267.493 117.162 267.794 117.487 268.177 117.711C268.561 117.931 269.006 118.041 269.514 118.041C269.844 118.041 270.143 117.995 270.409 117.903C270.679 117.807 270.911 117.665 271.107 117.477C271.302 117.285 271.453 117.047 271.56 116.763L272.774 117.104C272.646 117.516 272.431 117.878 272.129 118.19C271.828 118.499 271.455 118.741 271.011 118.915C270.567 119.085 270.068 119.17 269.514 119.17ZM274.814 119V110.818H276.029V112.054H276.114C276.263 111.649 276.533 111.321 276.924 111.069C277.314 110.816 277.754 110.69 278.245 110.69C278.337 110.69 278.452 110.692 278.591 110.696C278.729 110.699 278.834 110.705 278.905 110.712V111.99C278.862 111.979 278.765 111.963 278.612 111.942C278.463 111.917 278.305 111.905 278.138 111.905C277.74 111.905 277.385 111.988 277.073 112.155C276.764 112.319 276.519 112.546 276.338 112.837C276.16 113.125 276.071 113.453 276.071 113.822V119H274.814ZM280.395 119V110.818H281.652V119H280.395ZM281.034 109.455C280.789 109.455 280.578 109.371 280.401 109.204C280.227 109.037 280.14 108.837 280.14 108.602C280.14 108.368 280.227 108.167 280.401 108C280.578 107.833 280.789 107.75 281.034 107.75C281.279 107.75 281.489 107.833 281.663 108C281.841 108.167 281.929 108.368 281.929 108.602C281.929 108.837 281.841 109.037 281.663 109.204C281.489 109.371 281.279 109.455 281.034 109.455ZM286.362 119.192C285.844 119.192 285.373 119.094 284.951 118.899C284.528 118.7 284.193 118.414 283.944 118.041C283.696 117.665 283.571 117.21 283.571 116.678C283.571 116.209 283.664 115.829 283.848 115.538C284.033 115.243 284.28 115.012 284.589 114.845C284.898 114.678 285.239 114.554 285.611 114.472C285.988 114.387 286.366 114.32 286.746 114.27C287.243 114.206 287.646 114.158 287.955 114.126C288.268 114.091 288.495 114.032 288.637 113.95C288.783 113.869 288.855 113.727 288.855 113.524V113.482C288.855 112.956 288.712 112.548 288.424 112.256C288.14 111.965 287.708 111.82 287.129 111.82C286.529 111.82 286.059 111.951 285.718 112.214C285.377 112.477 285.137 112.757 284.999 113.055L283.806 112.629C284.019 112.132 284.303 111.745 284.658 111.468C285.017 111.187 285.407 110.992 285.83 110.882C286.256 110.768 286.675 110.712 287.087 110.712C287.35 110.712 287.652 110.744 287.992 110.808C288.337 110.868 288.669 110.994 288.989 111.186C289.312 111.377 289.58 111.667 289.793 112.054C290.006 112.441 290.112 112.96 290.112 113.609V119H288.855V117.892H288.791C288.706 118.07 288.564 118.26 288.365 118.462C288.166 118.664 287.902 118.837 287.572 118.979C287.241 119.121 286.838 119.192 286.362 119.192ZM286.554 118.062C287.051 118.062 287.47 117.965 287.811 117.77C288.156 117.574 288.415 117.322 288.589 117.013C288.767 116.704 288.855 116.379 288.855 116.038V114.888C288.802 114.952 288.685 115.01 288.504 115.064C288.326 115.113 288.12 115.158 287.886 115.197C287.655 115.232 287.43 115.264 287.209 115.293C286.993 115.317 286.817 115.339 286.682 115.357C286.355 115.399 286.05 115.468 285.766 115.564C285.485 115.657 285.258 115.797 285.084 115.985C284.914 116.17 284.828 116.422 284.828 116.741C284.828 117.178 284.99 117.509 285.313 117.732C285.64 117.952 286.053 118.062 286.554 118.062ZM293.664 108.091V119H292.407V108.091H293.664ZM299.397 119.17C298.609 119.17 297.928 118.996 297.357 118.648C296.789 118.297 296.35 117.807 296.041 117.178C295.736 116.546 295.583 115.811 295.583 114.973C295.583 114.135 295.736 113.396 296.041 112.757C296.35 112.114 296.78 111.614 297.33 111.255C297.884 110.893 298.53 110.712 299.269 110.712C299.695 110.712 300.116 110.783 300.531 110.925C300.947 111.067 301.325 111.298 301.666 111.617C302.007 111.933 302.279 112.352 302.481 112.874C302.683 113.396 302.785 114.039 302.785 114.803V115.335H296.478V114.249H301.506C301.506 113.787 301.414 113.375 301.229 113.013C301.048 112.651 300.789 112.365 300.452 112.155C300.118 111.946 299.724 111.841 299.269 111.841C298.768 111.841 298.335 111.965 297.969 112.214C297.607 112.459 297.328 112.778 297.133 113.173C296.938 113.567 296.84 113.989 296.84 114.44V115.165C296.84 115.783 296.947 116.306 297.16 116.736C297.376 117.162 297.676 117.487 298.06 117.711C298.443 117.931 298.889 118.041 299.397 118.041C299.727 118.041 300.025 117.995 300.292 117.903C300.562 117.807 300.794 117.665 300.99 117.477C301.185 117.285 301.336 117.047 301.442 116.763L302.657 117.104C302.529 117.516 302.314 117.878 302.012 118.19C301.71 118.499 301.338 118.741 300.894 118.915C300.45 119.085 299.951 119.17 299.397 119.17ZM310.492 112.651L309.363 112.97C309.292 112.782 309.187 112.599 309.049 112.422C308.914 112.24 308.729 112.091 308.495 111.974C308.261 111.857 307.96 111.798 307.595 111.798C307.094 111.798 306.677 111.914 306.343 112.145C306.013 112.372 305.848 112.661 305.848 113.013C305.848 113.325 305.961 113.572 306.188 113.753C306.416 113.934 306.771 114.085 307.254 114.206L308.468 114.504C309.2 114.682 309.745 114.953 310.104 115.319C310.462 115.681 310.642 116.148 310.642 116.72C310.642 117.189 310.507 117.608 310.237 117.977C309.97 118.347 309.598 118.638 309.118 118.851C308.639 119.064 308.081 119.17 307.446 119.17C306.611 119.17 305.92 118.989 305.373 118.627C304.827 118.265 304.48 117.736 304.335 117.04L305.528 116.741C305.642 117.182 305.856 117.512 306.172 117.732C306.492 117.952 306.909 118.062 307.424 118.062C308.01 118.062 308.475 117.938 308.82 117.69C309.168 117.437 309.342 117.136 309.342 116.784C309.342 116.5 309.242 116.262 309.044 116.07C308.845 115.875 308.539 115.729 308.127 115.634L306.764 115.314C306.014 115.136 305.464 114.861 305.112 114.488C304.764 114.112 304.59 113.641 304.59 113.077C304.59 112.615 304.72 112.207 304.979 111.852C305.242 111.496 305.599 111.218 306.05 111.015C306.504 110.813 307.019 110.712 307.595 110.712C308.404 110.712 309.04 110.889 309.502 111.244C309.967 111.599 310.297 112.068 310.492 112.651ZM185.743 137.17C185.061 137.17 184.459 136.998 183.937 136.654C183.415 136.306 183.007 135.816 182.712 135.184C182.417 134.548 182.27 133.797 182.27 132.93C182.27 132.071 182.417 131.325 182.712 130.693C183.007 130.061 183.417 129.573 183.943 129.228C184.468 128.884 185.075 128.712 185.764 128.712C186.297 128.712 186.718 128.8 187.027 128.978C187.339 129.152 187.577 129.351 187.741 129.575C187.907 129.795 188.037 129.976 188.129 130.118H188.236V126.091H189.493V137H188.278V135.743H188.129C188.037 135.892 187.906 136.08 187.735 136.308C187.565 136.531 187.321 136.732 187.005 136.909C186.689 137.083 186.269 137.17 185.743 137.17ZM185.913 136.041C186.418 136.041 186.844 135.91 187.192 135.647C187.54 135.381 187.804 135.013 187.986 134.544C188.167 134.072 188.257 133.527 188.257 132.909C188.257 132.298 188.168 131.764 187.991 131.306C187.813 130.844 187.551 130.485 187.203 130.23C186.854 129.971 186.425 129.841 185.913 129.841C185.381 129.841 184.937 129.978 184.582 130.251C184.23 130.521 183.966 130.888 183.788 131.354C183.614 131.815 183.527 132.334 183.527 132.909C183.527 133.491 183.616 134.021 183.793 134.496C183.975 134.969 184.241 135.345 184.592 135.626C184.948 135.903 185.388 136.041 185.913 136.041ZM195.4 137.17C194.612 137.17 193.932 136.996 193.36 136.648C192.792 136.297 192.353 135.807 192.044 135.178C191.739 134.546 191.586 133.811 191.586 132.973C191.586 132.135 191.739 131.396 192.044 130.757C192.353 130.114 192.783 129.614 193.334 129.255C193.888 128.893 194.534 128.712 195.272 128.712C195.699 128.712 196.119 128.783 196.535 128.925C196.95 129.067 197.329 129.298 197.669 129.617C198.01 129.933 198.282 130.352 198.484 130.874C198.687 131.396 198.788 132.039 198.788 132.803V133.335H192.481V132.249H197.51C197.51 131.787 197.417 131.375 197.233 131.013C197.052 130.651 196.792 130.365 196.455 130.155C196.121 129.946 195.727 129.841 195.272 129.841C194.772 129.841 194.339 129.965 193.973 130.214C193.611 130.459 193.332 130.778 193.136 131.173C192.941 131.567 192.843 131.989 192.843 132.44V133.165C192.843 133.783 192.95 134.306 193.163 134.736C193.38 135.162 193.68 135.487 194.063 135.711C194.447 135.931 194.892 136.041 195.4 136.041C195.731 136.041 196.029 135.995 196.295 135.903C196.565 135.807 196.798 135.665 196.993 135.477C197.188 135.285 197.339 135.047 197.446 134.763L198.66 135.104C198.532 135.516 198.318 135.878 198.016 136.19C197.714 136.499 197.341 136.741 196.897 136.915C196.453 137.085 195.954 137.17 195.4 137.17ZM208.243 137.17C207.476 137.17 206.815 136.989 206.261 136.627C205.707 136.265 205.281 135.766 204.983 135.13C204.685 134.495 204.536 133.768 204.536 132.952C204.536 132.121 204.688 131.387 204.994 130.752C205.303 130.113 205.732 129.614 206.283 129.255C206.837 128.893 207.483 128.712 208.222 128.712C208.797 128.712 209.315 128.818 209.777 129.031C210.239 129.244 210.617 129.543 210.912 129.926C211.206 130.31 211.389 130.757 211.46 131.268H210.203C210.107 130.896 209.894 130.565 209.564 130.278C209.237 129.987 208.797 129.841 208.243 129.841C207.753 129.841 207.323 129.969 206.954 130.224C206.588 130.477 206.302 130.833 206.096 131.295C205.894 131.753 205.793 132.291 205.793 132.909C205.793 133.541 205.892 134.092 206.091 134.56C206.293 135.029 206.578 135.393 206.943 135.652C207.313 135.912 207.746 136.041 208.243 136.041C208.57 136.041 208.866 135.984 209.133 135.871C209.399 135.757 209.624 135.594 209.809 135.381C209.994 135.168 210.125 134.912 210.203 134.614H211.46C211.389 135.097 211.214 135.532 210.933 135.919C210.656 136.302 210.288 136.608 209.83 136.835C209.376 137.059 208.847 137.17 208.243 137.17ZM216.622 137.17C215.883 137.17 215.235 136.995 214.678 136.643C214.124 136.292 213.69 135.8 213.378 135.168C213.069 134.536 212.915 133.797 212.915 132.952C212.915 132.099 213.069 131.355 213.378 130.72C213.69 130.084 214.124 129.591 214.678 129.239C215.235 128.887 215.883 128.712 216.622 128.712C217.361 128.712 218.007 128.887 218.561 129.239C219.118 129.591 219.552 130.084 219.861 130.72C220.173 131.355 220.329 132.099 220.329 132.952C220.329 133.797 220.173 134.536 219.861 135.168C219.552 135.8 219.118 136.292 218.561 136.643C218.007 136.995 217.361 137.17 216.622 137.17ZM216.622 136.041C217.183 136.041 217.645 135.897 218.007 135.61C218.369 135.322 218.637 134.944 218.811 134.475C218.985 134.006 219.072 133.499 219.072 132.952C219.072 132.405 218.985 131.895 218.811 131.423C218.637 130.951 218.369 130.569 218.007 130.278C217.645 129.987 217.183 129.841 216.622 129.841C216.061 129.841 215.599 129.987 215.237 130.278C214.875 130.569 214.607 130.951 214.433 131.423C214.259 131.895 214.172 132.405 214.172 132.952C214.172 133.499 214.259 134.006 214.433 134.475C214.607 134.944 214.875 135.322 215.237 135.61C215.599 135.897 216.061 136.041 216.622 136.041ZM223.505 132.078V137H222.248V128.818H223.463V130.097H223.569C223.761 129.681 224.052 129.347 224.443 129.095C224.833 128.839 225.338 128.712 225.956 128.712C226.51 128.712 226.994 128.825 227.41 129.053C227.825 129.276 228.148 129.617 228.379 130.075C228.61 130.53 228.725 131.105 228.725 131.801V137H227.468V131.886C227.468 131.244 227.301 130.743 226.968 130.384C226.634 130.022 226.176 129.841 225.593 129.841C225.192 129.841 224.833 129.928 224.517 130.102C224.205 130.276 223.958 130.53 223.777 130.864C223.596 131.197 223.505 131.602 223.505 132.078ZM236.818 130.651L235.689 130.97C235.618 130.782 235.513 130.599 235.375 130.422C235.24 130.24 235.055 130.091 234.821 129.974C234.586 129.857 234.286 129.798 233.92 129.798C233.42 129.798 233.002 129.914 232.669 130.145C232.338 130.372 232.173 130.661 232.173 131.013C232.173 131.325 232.287 131.572 232.514 131.753C232.741 131.934 233.097 132.085 233.579 132.206L234.794 132.504C235.525 132.682 236.071 132.953 236.429 133.319C236.788 133.681 236.967 134.148 236.967 134.72C236.967 135.189 236.832 135.608 236.562 135.977C236.296 136.347 235.923 136.638 235.444 136.851C234.964 137.064 234.407 137.17 233.771 137.17C232.937 137.17 232.246 136.989 231.699 136.627C231.152 136.265 230.806 135.736 230.66 135.04L231.854 134.741C231.967 135.182 232.182 135.512 232.498 135.732C232.818 135.952 233.235 136.062 233.75 136.062C234.336 136.062 234.801 135.938 235.146 135.69C235.494 135.437 235.668 135.136 235.668 134.784C235.668 134.5 235.568 134.262 235.369 134.07C235.17 133.875 234.865 133.729 234.453 133.634L233.089 133.314C232.34 133.136 231.79 132.861 231.438 132.488C231.09 132.112 230.916 131.641 230.916 131.077C230.916 130.615 231.046 130.207 231.305 129.852C231.568 129.496 231.925 129.218 232.376 129.015C232.83 128.813 233.345 128.712 233.92 128.712C234.73 128.712 235.366 128.889 235.827 129.244C236.293 129.599 236.623 130.068 236.818 130.651ZM242.418 128.818V129.884H238.178V128.818H242.418ZM239.414 126.858H240.671V134.656C240.671 135.011 240.722 135.278 240.825 135.455C240.932 135.629 241.067 135.746 241.23 135.807C241.397 135.864 241.573 135.892 241.757 135.892C241.896 135.892 242.009 135.885 242.098 135.871C242.187 135.853 242.258 135.839 242.311 135.828L242.567 136.957C242.482 136.989 242.363 137.021 242.21 137.053C242.057 137.089 241.864 137.107 241.629 137.107C241.274 137.107 240.926 137.03 240.585 136.877C240.248 136.725 239.968 136.492 239.744 136.18C239.524 135.867 239.414 135.473 239.414 134.997V126.858ZM244.309 137V128.818H245.523V130.054H245.608C245.758 129.649 246.028 129.321 246.418 129.069C246.809 128.816 247.249 128.69 247.739 128.69C247.831 128.69 247.947 128.692 248.085 128.696C248.224 128.699 248.329 128.705 248.4 128.712V129.99C248.357 129.979 248.259 129.963 248.107 129.942C247.958 129.917 247.8 129.905 247.633 129.905C247.235 129.905 246.88 129.988 246.567 130.155C246.258 130.319 246.013 130.546 245.832 130.837C245.655 131.125 245.566 131.453 245.566 131.822V137H244.309ZM255.046 133.655V128.818H256.303V137H255.046V135.615H254.961C254.769 136.031 254.471 136.384 254.066 136.675C253.661 136.963 253.15 137.107 252.532 137.107C252.021 137.107 251.566 136.995 251.168 136.771C250.771 136.544 250.458 136.203 250.231 135.748C250.003 135.29 249.89 134.713 249.89 134.017V128.818H251.147V133.932C251.147 134.528 251.314 135.004 251.648 135.359C251.985 135.714 252.415 135.892 252.937 135.892C253.249 135.892 253.567 135.812 253.89 135.652C254.217 135.493 254.49 135.248 254.71 134.917C254.934 134.587 255.046 134.166 255.046 133.655ZM261.93 137.17C261.162 137.17 260.502 136.989 259.948 136.627C259.394 136.265 258.968 135.766 258.67 135.13C258.371 134.495 258.222 133.768 258.222 132.952C258.222 132.121 258.375 131.387 258.68 130.752C258.989 130.113 259.419 129.614 259.969 129.255C260.523 128.893 261.17 128.712 261.908 128.712C262.483 128.712 263.002 128.818 263.464 129.031C263.925 129.244 264.303 129.543 264.598 129.926C264.893 130.31 265.076 130.757 265.147 131.268H263.89C263.794 130.896 263.581 130.565 263.251 130.278C262.924 129.987 262.483 129.841 261.93 129.841C261.439 129.841 261.01 129.969 260.64 130.224C260.275 130.477 259.989 130.833 259.783 131.295C259.58 131.753 259.479 132.291 259.479 132.909C259.479 133.541 259.579 134.092 259.778 134.56C259.98 135.029 260.264 135.393 260.63 135.652C260.999 135.912 261.432 136.041 261.93 136.041C262.256 136.041 262.553 135.984 262.819 135.871C263.085 135.757 263.311 135.594 263.496 135.381C263.68 135.168 263.812 134.912 263.89 134.614H265.147C265.076 135.097 264.9 135.532 264.619 135.919C264.343 136.302 263.975 136.608 263.517 136.835C263.062 137.059 262.533 137.17 261.93 137.17ZM270.308 137.17C269.541 137.17 268.881 136.989 268.327 136.627C267.773 136.265 267.347 135.766 267.048 135.13C266.75 134.495 266.601 133.768 266.601 132.952C266.601 132.121 266.754 131.387 267.059 130.752C267.368 130.113 267.798 129.614 268.348 129.255C268.902 128.893 269.548 128.712 270.287 128.712C270.862 128.712 271.381 128.818 271.843 129.031C272.304 129.244 272.682 129.543 272.977 129.926C273.272 130.31 273.455 130.757 273.526 131.268H272.269C272.173 130.896 271.96 130.565 271.629 130.278C271.303 129.987 270.862 129.841 270.308 129.841C269.818 129.841 269.389 129.969 269.019 130.224C268.654 130.477 268.368 130.833 268.162 131.295C267.959 131.753 267.858 132.291 267.858 132.909C267.858 133.541 267.958 134.092 268.156 134.56C268.359 135.029 268.643 135.393 269.009 135.652C269.378 135.912 269.811 136.041 270.308 136.041C270.635 136.041 270.932 135.984 271.198 135.871C271.464 135.757 271.69 135.594 271.874 135.381C272.059 135.168 272.191 134.912 272.269 134.614H273.526C273.455 135.097 273.279 135.532 272.998 135.919C272.721 136.302 272.354 136.608 271.896 136.835C271.441 137.059 270.912 137.17 270.308 137.17ZM275.363 137V128.818H276.621V137H275.363ZM276.003 127.455C275.758 127.455 275.546 127.371 275.369 127.204C275.195 127.037 275.108 126.837 275.108 126.602C275.108 126.368 275.195 126.167 275.369 126C275.546 125.833 275.758 125.75 276.003 125.75C276.248 125.75 276.457 125.833 276.631 126C276.809 126.167 276.898 126.368 276.898 126.602C276.898 126.837 276.809 127.037 276.631 127.204C276.457 127.371 276.248 127.455 276.003 127.455ZM282.247 137.17C281.508 137.17 280.86 136.995 280.303 136.643C279.749 136.292 279.315 135.8 279.003 135.168C278.694 134.536 278.54 133.797 278.54 132.952C278.54 132.099 278.694 131.355 279.003 130.72C279.315 130.084 279.749 129.591 280.303 129.239C280.86 128.887 281.508 128.712 282.247 128.712C282.986 128.712 283.632 128.887 284.186 129.239C284.743 129.591 285.177 130.084 285.486 130.72C285.798 131.355 285.954 132.099 285.954 132.952C285.954 133.797 285.798 134.536 285.486 135.168C285.177 135.8 284.743 136.292 284.186 136.643C283.632 136.995 282.986 137.17 282.247 137.17ZM282.247 136.041C282.808 136.041 283.27 135.897 283.632 135.61C283.994 135.322 284.262 134.944 284.436 134.475C284.61 134.006 284.697 133.499 284.697 132.952C284.697 132.405 284.61 131.895 284.436 131.423C284.262 130.951 283.994 130.569 283.632 130.278C283.27 129.987 282.808 129.841 282.247 129.841C281.686 129.841 281.224 129.987 280.862 130.278C280.5 130.569 280.232 130.951 280.058 131.423C279.884 131.895 279.797 132.405 279.797 132.952C279.797 133.499 279.884 134.006 280.058 134.475C280.232 134.944 280.5 135.322 280.862 135.61C281.224 135.897 281.686 136.041 282.247 136.041ZM281.672 127.71L282.971 125.239H284.441L282.78 127.71H281.672ZM289.13 132.078V137H287.873V128.818H289.088V130.097H289.194C289.386 129.681 289.677 129.347 290.068 129.095C290.458 128.839 290.963 128.712 291.581 128.712C292.135 128.712 292.619 128.825 293.035 129.053C293.45 129.276 293.773 129.617 294.004 130.075C294.235 130.53 294.35 131.105 294.35 131.801V137H293.093V131.886C293.093 131.244 292.926 130.743 292.593 130.384C292.259 130.022 291.801 129.841 291.218 129.841C290.817 129.841 290.458 129.928 290.142 130.102C289.83 130.276 289.583 130.53 289.402 130.864C289.221 131.197 289.13 131.602 289.13 132.078Z" fill="black"/>
<path d="M387.363 40.2927C387.355 39.1778 387.99 38.4153 389.109 38.1161C392.762 37.1364 396.418 36.1649 400.07 35.1852C407.662 33.1521 415.258 31.1189 422.849 29.0816C424.919 28.5282 425.686 28.9464 426.235 31C429.24 42.1947 432.24 53.3894 435.241 64.5841C435.692 66.2607 435.179 67.183 433.519 67.6298C422.169 70.6754 410.818 73.7129 399.468 76.7462C398.017 77.1356 397.045 76.5659 396.652 75.1025C393.602 63.7233 390.556 52.3441 387.515 40.965C387.445 40.7067 387.4 40.4403 387.367 40.2927H387.363ZM400.128 72.3766C410.453 69.6056 420.664 66.8714 430.908 64.1209C428.145 53.8075 425.411 43.613 422.661 33.3406C419.857 34.0949 417.106 34.8327 414.323 35.5787C414.413 35.9354 414.479 36.2182 414.553 36.501C415.286 39.2393 416.032 41.9775 416.746 44.7239C417.192 46.4537 416.028 47.6957 414.29 47.3719C413.04 47.1383 411.794 46.9005 410.56 46.6054C409.953 46.4619 409.507 46.5193 409.035 46.9866C408.17 47.8392 407.227 48.618 406.317 49.4215C404.801 50.7578 403.165 50.2577 402.636 48.2901C402.292 47.0112 401.96 45.7323 401.616 44.4533C401.161 42.7686 400.702 41.0839 400.23 39.3458C397.414 40.1042 394.684 40.8379 391.884 41.5881C394.635 51.8564 397.373 62.0755 400.132 72.3725L400.128 72.3766ZM411.995 42.6374C411.458 40.6371 410.921 38.6449 410.38 36.6363C408.256 37.2061 406.235 37.7472 404.165 38.3047C404.719 40.3665 405.243 42.3341 405.78 44.3263C406.74 43.6212 407.559 42.662 408.564 42.3874C409.576 42.1127 410.773 42.5186 411.999 42.6374H411.995Z" fill="#424242"/>
<path d="M389.319 75.0984C390.593 75.3689 391.786 75.5083 392.897 75.8772C394.885 76.5413 396.447 77.8284 397.533 79.6238C397.832 80.1198 398.099 80.1813 398.632 80.0378C410.864 76.7462 423.103 73.4833 435.335 70.1876C435.721 70.0851 436.122 69.7367 436.348 69.3924C436.983 68.4209 437.516 67.3838 438.114 66.3877C438.811 65.2236 439.971 64.8793 441.004 65.5023C442 66.1049 442.263 67.2608 441.619 68.4086C440.865 69.7531 440.066 71.073 439.324 72.4216C438.902 73.1841 438.299 73.6145 437.459 73.8399C429.601 75.9305 421.751 78.0415 413.897 80.1485C409.175 81.4151 404.452 82.6817 399.726 83.9279C399.181 84.0713 398.956 84.2722 398.923 84.8912C398.644 89.888 394.836 93.5977 389.892 93.7453C385.24 93.8846 381.128 90.3389 380.604 85.5142C380.198 81.7758 381.702 78.8122 384.842 76.7298C385.301 76.4265 385.424 76.201 385.273 75.6435C381.502 61.6368 377.759 47.6178 374.004 33.607C373.266 30.8606 370.954 29.5325 368.212 30.254C366.409 30.7295 364.613 31.2255 362.81 31.6928C361.289 32.0863 360.055 31.2746 360.002 29.8809C359.969 29.0037 360.44 28.1675 361.301 27.9298C363.72 27.2616 366.13 26.4623 368.597 26.0934C372.811 25.4703 376.578 28.0199 377.771 32.1314C378.862 35.8903 379.829 39.6901 380.846 43.4736C383.678 54.0412 386.507 64.6087 389.319 75.0984ZM394.885 84.6288C394.959 81.7922 392.688 79.4106 389.851 79.3533C387.044 79.2959 384.658 81.5463 384.584 84.3173C384.51 87.2195 386.716 89.5642 389.622 89.6789C392.417 89.7855 394.811 87.49 394.881 84.6288H394.885Z" fill="#424242"/>
<path d="M391.79 84.555C391.77 85.711 390.868 86.5513 389.675 86.5226C388.544 86.498 387.671 85.6208 387.675 84.5141C387.675 83.3827 388.614 82.4727 389.757 82.485C390.913 82.4973 391.811 83.4114 391.79 84.5591V84.555Z" fill="#424242"/>
<path d="M366.124 118.749V107.84H369.811C370.666 107.84 371.366 107.995 371.909 108.304C372.456 108.609 372.861 109.023 373.124 109.545C373.387 110.067 373.518 110.649 373.518 111.292C373.518 111.935 373.387 112.519 373.124 113.044C372.865 113.57 372.463 113.989 371.92 114.301C371.377 114.61 370.681 114.765 369.832 114.765H367.19V113.593H369.789C370.375 113.593 370.846 113.492 371.201 113.289C371.556 113.087 371.813 112.814 371.973 112.469C372.137 112.121 372.218 111.729 372.218 111.292C372.218 110.855 372.137 110.464 371.973 110.12C371.813 109.776 371.554 109.506 371.196 109.31C370.837 109.111 370.361 109.012 369.768 109.012H367.446V118.749H366.124ZM375.476 118.749V110.567H376.69V111.803H376.775C376.924 111.398 377.194 111.07 377.585 110.818C377.976 110.566 378.416 110.44 378.906 110.44C378.998 110.44 379.114 110.441 379.252 110.445C379.391 110.448 379.495 110.454 379.566 110.461V111.739C379.524 111.729 379.426 111.713 379.273 111.691C379.124 111.666 378.966 111.654 378.799 111.654C378.402 111.654 378.047 111.738 377.734 111.904C377.425 112.068 377.18 112.295 376.999 112.586C376.821 112.874 376.733 113.202 376.733 113.572V118.749H375.476ZM384.131 118.92C383.393 118.92 382.745 118.744 382.187 118.392C381.633 118.041 381.2 117.549 380.887 116.917C380.579 116.285 380.424 115.546 380.424 114.701C380.424 113.849 380.579 113.105 380.887 112.469C381.2 111.833 381.633 111.34 382.187 110.988C382.745 110.637 383.393 110.461 384.131 110.461C384.87 110.461 385.516 110.637 386.07 110.988C386.628 111.34 387.061 111.833 387.37 112.469C387.683 113.105 387.839 113.849 387.839 114.701C387.839 115.546 387.683 116.285 387.37 116.917C387.061 117.549 386.628 118.041 386.07 118.392C385.516 118.744 384.87 118.92 384.131 118.92ZM384.131 117.79C384.692 117.79 385.154 117.647 385.516 117.359C385.879 117.071 386.147 116.693 386.321 116.224C386.495 115.756 386.582 115.248 386.582 114.701C386.582 114.154 386.495 113.644 386.321 113.172C386.147 112.7 385.879 112.318 385.516 112.027C385.154 111.736 384.692 111.59 384.131 111.59C383.57 111.59 383.109 111.736 382.746 112.027C382.384 112.318 382.116 112.7 381.942 113.172C381.768 113.644 381.681 114.154 381.681 114.701C381.681 115.248 381.768 115.756 381.942 116.224C382.116 116.693 382.384 117.071 382.746 117.359C383.109 117.647 383.57 117.79 384.131 117.79ZM392.847 118.92C392.165 118.92 391.563 118.747 391.041 118.403C390.519 118.055 390.111 117.565 389.816 116.933C389.522 116.297 389.374 115.546 389.374 114.68C389.374 113.82 389.522 113.075 389.816 112.442C390.111 111.81 390.521 111.322 391.047 110.978C391.572 110.633 392.18 110.461 392.869 110.461C393.401 110.461 393.822 110.55 394.131 110.727C394.443 110.901 394.681 111.1 394.845 111.324C395.012 111.544 395.141 111.725 395.234 111.867H395.34V107.84H396.597V118.749H395.383V117.492H395.234C395.141 117.641 395.01 117.829 394.839 118.057C394.669 118.28 394.426 118.481 394.11 118.659C393.794 118.833 393.373 118.92 392.847 118.92ZM393.018 117.79C393.522 117.79 393.948 117.659 394.296 117.396C394.644 117.13 394.909 116.762 395.09 116.294C395.271 115.821 395.361 115.276 395.361 114.658C395.361 114.048 395.273 113.513 395.095 113.055C394.918 112.593 394.655 112.235 394.307 111.979C393.959 111.72 393.529 111.59 393.018 111.59C392.485 111.59 392.041 111.727 391.686 112C391.334 112.27 391.07 112.638 390.892 113.103C390.718 113.565 390.631 114.083 390.631 114.658C390.631 115.241 390.72 115.77 390.898 116.246C391.079 116.718 391.345 117.094 391.697 117.375C392.052 117.652 392.492 117.79 393.018 117.79ZM404.23 115.404V110.567H405.488V118.749H404.23V117.364H404.145C403.953 117.78 403.655 118.133 403.25 118.424C402.845 118.712 402.334 118.856 401.716 118.856C401.205 118.856 400.75 118.744 400.353 118.52C399.955 118.293 399.642 117.952 399.415 117.497C399.188 117.039 399.074 116.462 399.074 115.766V110.567H400.331V115.681C400.331 116.278 400.498 116.753 400.832 117.109C401.169 117.464 401.599 117.641 402.121 117.641C402.434 117.641 402.751 117.561 403.075 117.402C403.401 117.242 403.675 116.997 403.895 116.666C404.119 116.336 404.23 115.915 404.23 115.404ZM411.114 118.92C410.347 118.92 409.686 118.739 409.132 118.376C408.578 118.014 408.152 117.515 407.854 116.88C407.556 116.244 407.406 115.518 407.406 114.701C407.406 113.87 407.559 113.137 407.865 112.501C408.173 111.862 408.603 111.363 409.154 111.004C409.708 110.642 410.354 110.461 411.093 110.461C411.668 110.461 412.186 110.567 412.648 110.78C413.11 110.994 413.488 111.292 413.783 111.675C414.077 112.059 414.26 112.506 414.331 113.018H413.074C412.978 112.645 412.765 112.315 412.435 112.027C412.108 111.736 411.668 111.59 411.114 111.59C410.624 111.59 410.194 111.718 409.825 111.974C409.459 112.226 409.173 112.583 408.967 113.044C408.765 113.502 408.664 114.04 408.664 114.658C408.664 115.29 408.763 115.841 408.962 116.31C409.164 116.778 409.448 117.142 409.814 117.402C410.183 117.661 410.617 117.79 411.114 117.79C411.441 117.79 411.737 117.734 412.003 117.62C412.27 117.506 412.495 117.343 412.68 117.13C412.865 116.917 412.996 116.661 413.074 116.363H414.331C414.26 116.846 414.084 117.281 413.804 117.668C413.527 118.051 413.159 118.357 412.701 118.584C412.247 118.808 411.718 118.92 411.114 118.92ZM419.727 110.567V111.633H415.487V110.567H419.727ZM416.723 108.607H417.98V116.405C417.98 116.761 418.031 117.027 418.134 117.204C418.241 117.378 418.376 117.496 418.539 117.556C418.706 117.613 418.882 117.641 419.067 117.641C419.205 117.641 419.319 117.634 419.408 117.62C419.496 117.602 419.567 117.588 419.621 117.577L419.876 118.707C419.791 118.739 419.672 118.771 419.519 118.803C419.367 118.838 419.173 118.856 418.939 118.856C418.584 118.856 418.236 118.779 417.895 118.627C417.557 118.474 417.277 118.241 417.053 117.929C416.833 117.616 416.723 117.222 416.723 116.746V108.607ZM424.854 118.92C424.115 118.92 423.467 118.744 422.91 118.392C422.356 118.041 421.923 117.549 421.61 116.917C421.301 116.285 421.147 115.546 421.147 114.701C421.147 113.849 421.301 113.105 421.61 112.469C421.923 111.833 422.356 111.34 422.91 110.988C423.467 110.637 424.115 110.461 424.854 110.461C425.593 110.461 426.239 110.637 426.793 110.988C427.351 111.34 427.784 111.833 428.093 112.469C428.405 113.105 428.561 113.849 428.561 114.701C428.561 115.546 428.405 116.285 428.093 116.917C427.784 117.549 427.351 118.041 426.793 118.392C426.239 118.744 425.593 118.92 424.854 118.92ZM424.854 117.79C425.415 117.79 425.877 117.647 426.239 117.359C426.601 117.071 426.869 116.693 427.043 116.224C427.217 115.756 427.304 115.248 427.304 114.701C427.304 114.154 427.217 113.644 427.043 113.172C426.869 112.7 426.601 112.318 426.239 112.027C425.877 111.736 425.415 111.59 424.854 111.59C424.293 111.59 423.831 111.736 423.469 112.027C423.107 112.318 422.839 112.7 422.665 113.172C422.491 113.644 422.404 114.154 422.404 114.701C422.404 115.248 422.491 115.756 422.665 116.224C422.839 116.693 423.107 117.071 423.469 117.359C423.831 117.647 424.293 117.79 424.854 117.79ZM436.276 112.4L435.147 112.719C435.076 112.531 434.971 112.348 434.832 112.171C434.697 111.99 434.513 111.841 434.278 111.723C434.044 111.606 433.744 111.548 433.378 111.548C432.877 111.548 432.46 111.663 432.126 111.894C431.796 112.121 431.631 112.41 431.631 112.762C431.631 113.075 431.745 113.321 431.972 113.502C432.199 113.684 432.554 113.834 433.037 113.955L434.252 114.253C434.983 114.431 435.528 114.703 435.887 115.068C436.246 115.431 436.425 115.898 436.425 116.469C436.425 116.938 436.29 117.357 436.02 117.727C435.754 118.096 435.381 118.387 434.902 118.6C434.422 118.813 433.865 118.92 433.229 118.92C432.394 118.92 431.704 118.739 431.157 118.376C430.61 118.014 430.264 117.485 430.118 116.789L431.311 116.491C431.425 116.931 431.64 117.261 431.956 117.481C432.276 117.702 432.693 117.812 433.208 117.812C433.794 117.812 434.259 117.687 434.603 117.439C434.951 117.187 435.125 116.885 435.125 116.533C435.125 116.249 435.026 116.011 434.827 115.82C434.628 115.624 434.323 115.479 433.911 115.383L432.547 115.063C431.798 114.886 431.247 114.61 430.896 114.238C430.548 113.861 430.374 113.391 430.374 112.826C430.374 112.364 430.503 111.956 430.763 111.601C431.026 111.246 431.382 110.967 431.833 110.765C432.288 110.562 432.803 110.461 433.378 110.461C434.188 110.461 434.823 110.638 435.285 110.994C435.75 111.349 436.081 111.817 436.276 112.4ZM387.586 128.567L384.56 136.749H383.282L380.256 128.567H381.62L383.878 135.087H383.964L386.222 128.567H387.586ZM391.404 136.941C390.885 136.941 390.415 136.843 389.992 136.648C389.57 136.449 389.234 136.163 388.985 135.79C388.737 135.414 388.613 134.959 388.613 134.427C388.613 133.958 388.705 133.578 388.889 133.287C389.074 132.992 389.321 132.761 389.63 132.594C389.939 132.428 390.28 132.303 390.653 132.222C391.029 132.136 391.407 132.069 391.787 132.019C392.284 131.955 392.687 131.907 392.996 131.875C393.309 131.84 393.536 131.781 393.678 131.7C393.824 131.618 393.897 131.476 393.897 131.273V131.231C393.897 130.705 393.753 130.297 393.465 130.006C393.181 129.714 392.75 129.569 392.171 129.569C391.571 129.569 391.1 129.7 390.759 129.963C390.418 130.226 390.179 130.506 390.04 130.805L388.847 130.378C389.06 129.881 389.344 129.494 389.699 129.217C390.058 128.937 390.448 128.741 390.871 128.631C391.297 128.518 391.716 128.461 392.128 128.461C392.391 128.461 392.693 128.493 393.034 128.557C393.378 128.617 393.71 128.743 394.03 128.935C394.353 129.127 394.621 129.416 394.834 129.803C395.047 130.19 395.154 130.709 395.154 131.359V136.749H393.897V135.641H393.833C393.747 135.819 393.605 136.009 393.407 136.211C393.208 136.414 392.943 136.586 392.613 136.728C392.283 136.87 391.88 136.941 391.404 136.941ZM391.595 135.812C392.093 135.812 392.512 135.714 392.853 135.519C393.197 135.323 393.456 135.071 393.63 134.762C393.808 134.453 393.897 134.128 393.897 133.788V132.637C393.843 132.701 393.726 132.76 393.545 132.813C393.367 132.863 393.162 132.907 392.927 132.946C392.696 132.981 392.471 133.013 392.251 133.042C392.034 133.067 391.858 133.088 391.723 133.106C391.397 133.148 391.091 133.218 390.807 133.314C390.527 133.406 390.299 133.546 390.125 133.734C389.955 133.919 389.87 134.171 389.87 134.491C389.87 134.928 390.031 135.258 390.354 135.481C390.681 135.702 391.095 135.812 391.595 135.812ZM397.448 136.749V128.567H398.663V129.803H398.748C398.897 129.398 399.167 129.07 399.558 128.818C399.948 128.566 400.389 128.44 400.879 128.44C400.971 128.44 401.086 128.441 401.225 128.445C401.363 128.448 401.468 128.454 401.539 128.461V129.739C401.496 129.729 401.399 129.713 401.246 129.691C401.097 129.666 400.939 129.654 400.772 129.654C400.374 129.654 400.019 129.738 399.707 129.904C399.398 130.068 399.153 130.295 398.972 130.586C398.794 130.874 398.705 131.202 398.705 131.572V136.749H397.448ZM403.029 136.749V128.567H404.286V136.749H403.029ZM403.668 127.204C403.423 127.204 403.212 127.12 403.035 126.953C402.861 126.787 402.774 126.586 402.774 126.352C402.774 126.117 402.861 125.916 403.035 125.75C403.212 125.583 403.423 125.499 403.668 125.499C403.913 125.499 404.123 125.583 404.297 125.75C404.475 125.916 404.563 126.117 404.563 126.352C404.563 126.586 404.475 126.787 404.297 126.953C404.123 127.12 403.913 127.204 403.668 127.204ZM409.913 136.92C409.174 136.92 408.526 136.744 407.968 136.392C407.414 136.041 406.981 135.549 406.669 134.917C406.36 134.285 406.205 133.546 406.205 132.701C406.205 131.849 406.36 131.105 406.669 130.469C406.981 129.833 407.414 129.34 407.968 128.988C408.526 128.637 409.174 128.461 409.913 128.461C410.651 128.461 411.298 128.637 411.852 128.988C412.409 129.34 412.842 129.833 413.151 130.469C413.464 131.105 413.62 131.849 413.62 132.701C413.62 133.546 413.464 134.285 413.151 134.917C412.842 135.549 412.409 136.041 411.852 136.392C411.298 136.744 410.651 136.92 409.913 136.92ZM409.913 135.79C410.474 135.79 410.935 135.647 411.298 135.359C411.66 135.071 411.928 134.693 412.102 134.224C412.276 133.756 412.363 133.248 412.363 132.701C412.363 132.154 412.276 131.644 412.102 131.172C411.928 130.7 411.66 130.318 411.298 130.027C410.935 129.736 410.474 129.59 409.913 129.59C409.352 129.59 408.89 129.736 408.528 130.027C408.166 130.318 407.897 130.7 407.723 131.172C407.549 131.644 407.462 132.154 407.462 132.701C407.462 133.248 407.549 133.756 407.723 134.224C407.897 134.693 408.166 135.071 408.528 135.359C408.89 135.647 409.352 135.79 409.913 135.79ZM421.334 130.4L420.205 130.719C420.134 130.531 420.029 130.348 419.891 130.171C419.756 129.99 419.571 129.841 419.337 129.723C419.103 129.606 418.802 129.548 418.437 129.548C417.936 129.548 417.519 129.663 417.185 129.894C416.855 130.121 416.69 130.41 416.69 130.762C416.69 131.075 416.803 131.321 417.03 131.502C417.258 131.684 417.613 131.834 418.096 131.955L419.31 132.253C420.042 132.431 420.587 132.703 420.946 133.068C421.304 133.431 421.484 133.898 421.484 134.469C421.484 134.938 421.349 135.357 421.079 135.727C420.812 136.096 420.44 136.387 419.96 136.6C419.481 136.813 418.923 136.92 418.288 136.92C417.453 136.92 416.762 136.739 416.215 136.376C415.669 136.014 415.322 135.485 415.177 134.789L416.37 134.491C416.484 134.931 416.698 135.261 417.014 135.481C417.334 135.702 417.751 135.812 418.266 135.812C418.852 135.812 419.317 135.687 419.662 135.439C420.01 135.187 420.184 134.885 420.184 134.533C420.184 134.249 420.084 134.011 419.886 133.82C419.687 133.624 419.381 133.479 418.969 133.383L417.606 133.063C416.856 132.886 416.306 132.61 415.954 132.238C415.606 131.861 415.432 131.391 415.432 130.826C415.432 130.364 415.562 129.956 415.821 129.601C416.084 129.246 416.441 128.967 416.892 128.765C417.347 128.562 417.861 128.461 418.437 128.461C419.246 128.461 419.882 128.638 420.344 128.994C420.809 129.349 421.139 129.817 421.334 130.4Z" fill="black"/>
</svg>
