<svg width="475" height="151" viewBox="0 0 475 151" fill="none" xmlns="http://www.w3.org/2000/svg">
<path d="M117.317 69.4963C117.057 69.3165 116.929 69.1294 116.874 68.8983H56.7184C56.6634 68.8983 56.6193 68.8873 56.5753 68.8726H54.1503C53.4496 68.9643 52.7526 69.0597 52.0518 69.1588C52.0262 69.2101 51.9931 69.2542 51.9565 69.2762C51.1934 69.7091 50.8265 70.4208 50.5 71.1765V91.7614C51.1017 93.46 52.3197 94.0434 54.088 94.0397C68.5205 94.003 92.1504 94.0397 106.583 94.0397C106.73 94.0397 106.836 94.0324 106.913 94.0213C109.793 94.0213 112.677 94.0213 115.557 94.0177C117.27 94.014 118.477 92.796 118.495 91.0864C118.506 90.0445 118.495 89.0063 118.495 87.9644C118.495 82.6521 118.491 77.3399 118.499 72.0277C118.499 70.9858 118.187 70.0906 117.317 69.4963ZM116.503 90.7416C116.503 91.7761 116.254 92.0256 115.215 92.0256C111.418 92.0256 107.625 92.0256 103.828 92.0256C103.817 92.0256 103.806 92.0256 103.798 92.0256C89.2998 92.0256 68.3591 92.0256 53.8605 92.0256C52.7159 92.0256 52.4921 91.8055 52.4921 90.6902C52.4921 84.5378 52.4921 78.3818 52.4921 72.2294C52.4921 71.1399 52.7232 70.9087 53.8128 70.9087C74.2656 70.9087 94.7185 70.9087 115.171 70.9087C116.268 70.9087 116.507 71.1399 116.507 72.2111C116.507 78.3855 116.507 84.5635 116.507 90.7379L116.503 90.7416Z" fill="#424242"/>
<path d="M84.4829 74.2325C86.9849 74.2325 89.4833 74.2325 91.9853 74.2325C93.7059 74.2325 94.7551 75.2634 94.7882 76.9877C94.8065 77.9379 94.8065 78.8917 94.7882 79.8419C94.7551 81.5625 93.7022 82.5934 91.9816 82.5934C86.9812 82.5971 81.9808 82.5971 76.9768 82.5934C75.3002 82.5934 74.2436 81.5515 74.2106 79.8713C74.1886 78.8991 74.1886 77.9232 74.2106 76.951C74.2473 75.2671 75.3039 74.2362 76.9804 74.2325C79.4825 74.2252 81.9808 74.2325 84.4829 74.2325ZM84.4939 80.6087C86.9702 80.6087 89.4466 80.5977 91.9229 80.616C92.5466 80.6197 92.8107 80.3629 92.8034 79.7502C92.7887 78.8441 92.7961 77.9379 92.8034 77.0317C92.8034 76.4888 92.5723 76.2246 92.0036 76.2246C87.0069 76.232 82.0102 76.232 77.0135 76.2246C76.4522 76.2246 76.2027 76.4741 76.2027 77.0207C76.2064 77.9049 76.1954 78.789 76.2027 79.6732C76.21 80.4619 76.3531 80.6087 77.1345 80.6087C79.5889 80.6087 82.0432 80.6087 84.4975 80.6087H84.4939Z" fill="#424242"/>
<path d="M58.1014 90.0372C57.2833 90.0372 56.4652 90.0445 55.6471 90.0372C54.9354 90.0298 54.4878 89.6336 54.4841 89.043C54.4841 88.4523 54.9317 88.0524 55.6471 88.0487C57.3053 88.0414 58.9636 88.0414 60.6218 88.0487C61.3372 88.0487 61.7848 88.4486 61.7848 89.043C61.7848 89.6336 61.3372 90.0298 60.6218 90.0372C59.7817 90.0482 58.9416 90.0372 58.1014 90.0372Z" fill="#424242"/>
<path d="M56.8652 84.0646C57.2834 84.0646 57.7053 84.0463 58.1235 84.0683C58.7289 84.1013 59.1398 84.5342 59.1251 85.0845C59.1104 85.6091 58.7142 86.0273 58.1382 86.0457C57.2541 86.0714 56.3699 86.0714 55.4858 86.0457C54.8804 86.0273 54.4696 85.5834 54.4879 85.0331C54.5026 84.5085 54.8988 84.105 55.4748 84.0719C55.937 84.0463 56.4029 84.0683 56.8652 84.0683V84.0646Z" fill="#424242"/>
<path d="M76.3017 70.0099C76.133 68.6011 76.0413 67.1887 76.1256 65.7543C76.1366 65.5415 76.1256 65.325 76.1256 65.0425H85.5321C85.6458 65.0425 90.5765 65.0499 93.2253 65.0499C93.1263 66.4513 93.0602 67.8161 92.9538 69.1625C93.6215 69.1661 94.2892 69.1771 94.9569 69.1845C95.0046 68.6342 95.045 68.0839 95.0523 67.5336C95.1844 60.7649 95.0963 53.9888 95.0963 47.2165C95.0963 44.9602 94.5644 42.8398 93.4491 40.8697C92.9061 39.9085 92.3999 38.9216 91.8349 37.9714C89.7731 34.4899 89.1898 30.7038 89.4759 26.7086C90.184 26.5325 90.4261 26.0336 90.3894 25.3219C90.3601 24.7716 90.3968 24.2139 90.3784 23.6636C90.3234 22.1998 89.3402 21.235 87.869 21.224C85.7009 21.2093 83.5327 21.2093 81.3608 21.224C79.897 21.2313 78.8992 22.1925 78.8258 23.6489C78.7964 24.269 78.8184 24.889 78.8184 25.509C78.8184 26.0152 79.0019 26.3968 79.4898 26.6279C79.6255 26.6903 79.776 26.9141 79.7686 27.0535C79.6953 28.7961 79.6916 30.5497 79.4751 32.2777C79.1596 34.7797 77.938 36.9515 76.7493 39.1344C75.9495 40.6019 75.2598 42.1354 74.6105 43.6799C74.3353 44.3366 74.284 45.0886 74.1299 45.7967V69.3055C74.1739 69.566 74.2143 69.8265 74.2583 70.0906C74.937 70.0723 75.6157 70.0429 76.2944 70.0099H76.3017ZM80.8399 23.7663C80.9279 23.5389 81.2141 23.2381 81.4159 23.2344C83.5327 23.194 85.6495 23.216 87.7663 23.205C88.2286 23.205 88.401 23.4252 88.39 23.8544C88.3827 24.0965 88.39 24.3387 88.39 24.6542H80.8142C80.8142 24.3533 80.7372 24.0232 80.8362 23.7663H80.8399ZM87.4031 26.7123V28.2238H81.8268V26.7123H87.4031ZM77.406 42.0326C78.2388 40.4991 79.1193 38.9877 79.9007 37.4285C81.0086 35.2089 81.5809 32.8353 81.7424 30.3149H87.4288C87.5425 31.089 87.6416 31.8924 87.7737 32.6885C88.1332 34.8017 88.8926 36.7718 89.9345 38.6391C90.5912 39.8168 91.2552 40.9907 91.8899 42.1794C92.5062 43.335 92.9061 44.564 93.0199 45.9288H76.2137C76.3017 44.5127 76.753 43.2433 77.4097 42.0326H77.406ZM76.1623 48.0089H93.0676V59.3378H76.1623V48.0089ZM76.1587 61.4032H93.0639V63.0431C91.2259 63.0358 82.344 63.0431 80.506 63.0431C79.0716 63.0431 77.6371 63.0431 76.1587 63.0431V61.4032Z" fill="#424242"/>
<path d="M84.5746 57.0999C83.8665 57.0999 83.1585 57.1219 82.4541 57.0962C80.6418 57.0265 79.2037 55.5443 79.1817 53.743C79.1596 51.916 80.5134 50.3715 82.3294 50.2871C83.8519 50.2138 85.3817 50.2138 86.9042 50.2871C88.7092 50.3752 90.0996 51.9601 90.0556 53.754C90.0116 55.559 88.5735 57.0302 86.7648 57.0962C86.0347 57.1219 85.3047 57.0999 84.5746 57.0999ZM84.5966 55.1114C84.5966 55.1114 84.5966 55.1114 84.5966 55.1151C85.2166 55.1151 85.833 55.1151 86.453 55.1151C86.497 55.1151 86.541 55.1151 86.585 55.1114C87.4325 55.0674 88.0378 54.4914 88.0598 53.7137C88.0819 52.9176 87.4618 52.2756 86.585 52.2572C85.2606 52.2315 83.9363 52.2279 82.6119 52.2572C81.7571 52.2756 81.1774 52.8882 81.1811 53.6807C81.1811 54.4658 81.7754 55.0748 82.6155 55.1041C83.2759 55.1298 83.9399 55.1078 84.604 55.1078L84.5966 55.1114Z" fill="#424242"/>
<path d="M54.0256 70.0099C53.8569 68.6011 53.7651 67.1887 53.8495 65.7543C53.8605 65.5415 53.8495 65.325 53.8495 65.0425H63.256C63.3697 65.0425 68.3004 65.0499 70.9492 65.0499C70.8501 66.4513 70.7841 67.8161 70.6777 69.1625C71.3454 69.1661 72.0131 69.1771 72.6808 69.1845C72.7285 68.6342 72.7688 68.0839 72.7762 67.5336C72.9083 60.7649 72.8202 53.9888 72.8202 47.2165C72.8202 44.9602 72.2882 42.8398 71.173 40.8697C70.63 39.9085 70.1237 38.9216 69.5588 37.9714C67.497 34.4899 66.9136 30.7038 67.1998 26.7086C67.9079 26.5325 68.15 26.0336 68.1133 25.3219C68.084 24.7716 68.1206 24.2139 68.1023 23.6636C68.0473 22.1998 67.0641 21.235 65.5929 21.224C63.4247 21.2093 61.2566 21.2093 59.0847 21.224C57.6209 21.2313 56.623 22.1925 56.5497 23.6489C56.5203 24.269 56.5423 24.889 56.5423 25.509C56.5423 26.0152 56.7258 26.3968 57.2137 26.6279C57.3494 26.6903 57.4998 26.9141 57.4925 27.0535C57.4191 28.7961 57.4155 30.5497 57.199 32.2777C56.8835 34.7797 55.6618 36.9515 54.4732 39.1344C53.6734 40.6019 52.9837 42.1354 52.3344 43.6799C52.0592 44.3366 52.0078 45.0886 51.8538 45.7967V69.3055C51.8978 69.566 51.9381 69.8265 51.9822 70.0906C52.6609 70.0723 53.3396 70.0429 54.0183 70.0099H54.0256ZM58.5674 23.7663C58.6555 23.5389 58.9416 23.2381 59.1434 23.2344C61.2602 23.194 63.377 23.216 65.4939 23.205C65.9561 23.205 66.1286 23.4252 66.1175 23.8544C66.1102 24.0965 66.1175 24.3387 66.1175 24.6542H58.5417C58.5417 24.3533 58.4647 24.0232 58.5638 23.7663H58.5674ZM65.1307 26.7123V28.2238H59.5543V26.7123H65.1307ZM55.1335 42.0363C55.9663 40.5028 56.8468 38.9913 57.6282 37.4321C58.7362 35.2126 59.3085 32.839 59.4699 30.3186H65.1564C65.2701 31.0927 65.3691 31.8961 65.5012 32.6922C65.8607 34.8054 66.6202 36.7754 67.6621 38.6428C68.3187 39.8204 68.9828 40.9944 69.6175 42.1831C70.2338 43.3387 70.6337 44.5677 70.7474 45.9324H53.9412C54.0293 44.5163 54.4805 43.247 55.1372 42.0363H55.1335ZM53.8899 48.0126H70.7951V59.3414H53.8899V48.0126ZM53.8862 61.4069H70.7914V63.0468C68.9534 63.0394 60.0716 63.0468 58.2336 63.0468C56.7991 63.0468 55.3647 63.0468 53.8862 63.0468V61.4069Z" fill="#424242"/>
<path d="M62.2985 57.0999C61.5904 57.0999 60.8824 57.1219 60.178 57.0962C58.3657 57.0265 56.9276 55.5443 56.9055 53.743C56.8835 51.916 58.2373 50.3715 60.0533 50.2871C61.5758 50.2138 63.1056 50.2138 64.6281 50.2871C66.4331 50.3752 67.8235 51.9601 67.7795 53.754C67.7354 55.559 66.2973 57.0302 64.4887 57.0962C63.7586 57.1219 63.0285 57.0999 62.2985 57.0999ZM62.3205 55.1114C62.3205 55.1114 62.3205 55.1114 62.3205 55.1151C62.9405 55.1151 63.5568 55.1151 64.1768 55.1151C64.2209 55.1151 64.2649 55.1151 64.3089 55.1114C65.1564 55.0674 65.7617 54.4914 65.7837 53.7137C65.8057 52.9176 65.1857 52.2756 64.3089 52.2572C62.9845 52.2315 61.6601 52.2279 60.3357 52.2572C59.4809 52.2756 58.9013 52.8882 58.905 53.6807C58.905 54.4658 59.4993 55.0748 60.3394 55.1041C60.9998 55.1298 61.6638 55.1078 62.3278 55.1078L62.3205 55.1114Z" fill="#424242"/>
<path d="M97.9431 70.0099C97.7743 68.6011 97.6826 67.1887 97.767 65.7543C97.778 65.5415 97.767 65.325 97.767 65.0425H107.173C107.287 65.0425 112.218 65.0499 114.867 65.0499C114.768 66.4513 114.702 67.8161 114.595 69.1625C115.263 69.1661 115.931 69.1771 116.598 69.1845C116.646 68.6342 116.686 68.0839 116.694 67.5336C116.826 60.7649 116.738 53.9888 116.738 47.2165C116.738 44.9602 116.206 42.8398 115.09 40.8697C114.547 39.9085 114.041 38.9216 113.476 37.9714C111.414 34.4899 110.831 30.7038 111.117 26.7086C111.825 26.5325 112.067 26.0336 112.031 25.3219C112.001 24.7716 112.038 24.2139 112.02 23.6636C111.965 22.1998 110.982 21.235 109.51 21.224C107.342 21.2093 105.174 21.2093 103.002 21.224C101.538 21.2313 100.541 22.1925 100.467 23.6489C100.438 24.269 100.46 24.889 100.46 25.509C100.46 26.0152 100.643 26.3968 101.131 26.6279C101.267 26.6903 101.417 26.9141 101.41 27.0535C101.337 28.7961 101.333 30.5497 101.116 32.2777C100.801 34.7797 99.5793 36.9515 98.3907 39.1344C97.5909 40.6019 96.9012 42.1354 96.2518 43.6799C95.9767 44.3366 95.9253 45.0886 95.7712 45.7967V69.3055C95.8153 69.566 95.8556 69.8265 95.8996 70.0906C96.5783 70.0723 97.257 70.0429 97.9358 70.0099H97.9431ZM102.485 23.7663C102.573 23.5389 102.859 23.2381 103.061 23.2344C105.178 23.194 107.295 23.216 109.411 23.205C109.874 23.205 110.046 23.4252 110.035 23.8544C110.028 24.0965 110.035 24.3387 110.035 24.6542H102.459C102.459 24.3533 102.382 24.0232 102.481 23.7663H102.485ZM109.048 26.7123V28.2238H103.472V26.7123H109.048ZM99.051 42.0326C99.8838 40.4991 100.764 38.9877 101.546 37.4285C102.654 35.2089 103.226 32.8353 103.387 30.3149H109.074C109.188 31.089 109.287 31.8924 109.419 32.6885C109.778 34.8017 110.538 36.7718 111.58 38.6391C112.236 39.8168 112.9 40.9907 113.535 42.1794C114.151 43.335 114.551 44.564 114.665 45.9288H97.8587C97.9468 44.5127 98.398 43.2433 99.0547 42.0326H99.051ZM97.8074 48.0089H114.713V59.3378H97.8074V48.0089ZM97.8037 61.4032H114.709V63.0431C112.871 63.0358 103.989 63.0431 102.151 63.0431C100.717 63.0431 99.2822 63.0431 97.8037 63.0431V61.4032Z" fill="#424242"/>
<path d="M106.22 57.0999C105.512 57.0999 104.804 57.1219 104.099 57.0962C102.287 57.0265 100.849 55.5443 100.827 53.743C100.805 51.916 102.158 50.3715 103.974 50.2871C105.497 50.2138 107.027 50.2138 108.549 50.2871C110.354 50.3752 111.745 51.9601 111.701 53.754C111.657 55.559 110.218 57.0302 108.41 57.0962C107.68 57.1219 106.95 57.0999 106.22 57.0999ZM106.242 55.1114C106.242 55.1114 106.242 55.1114 106.242 55.1151C106.862 55.1151 107.478 55.1151 108.098 55.1151C108.142 55.1151 108.186 55.1151 108.23 55.1114C109.078 55.0674 109.683 54.4914 109.705 53.7137C109.727 52.9176 109.107 52.2756 108.23 52.2572C106.906 52.2315 105.581 52.2279 104.257 52.2572C103.402 52.2756 102.822 52.8882 102.826 53.6807C102.826 54.4658 103.42 55.0748 104.261 55.1041C104.921 55.1298 105.585 55.1078 106.249 55.1078L106.242 55.1114Z" fill="#424242"/>
<path d="M42.9018 119.04H41.5168L45.5225 108.131H46.8861L50.8918 119.04H49.5069L46.2469 109.856H46.1617L42.9018 119.04ZM43.4131 114.778H48.9955V115.95H43.4131V114.778ZM53.6777 108.131V119.04H52.4206V108.131H53.6777ZM55.9802 119.04V110.858H57.2373V119.04H55.9802ZM56.6194 109.494C56.3743 109.494 56.163 109.411 55.9855 109.244C55.8115 109.077 55.7245 108.876 55.7245 108.642C55.7245 108.408 55.8115 108.207 55.9855 108.04C56.163 107.873 56.3743 107.79 56.6194 107.79C56.8644 107.79 57.0739 107.873 57.2479 108.04C57.4255 108.207 57.5142 108.408 57.5142 108.642C57.5142 108.876 57.4255 109.077 57.2479 109.244C57.0739 109.411 56.8644 109.494 56.6194 109.494ZM59.5397 119.04V110.858H60.7542V112.136H60.8608C61.0312 111.7 61.3064 111.36 61.6864 111.119C62.0664 110.874 62.5227 110.751 63.0554 110.751C63.5951 110.751 64.0443 110.874 64.403 111.119C64.7652 111.36 65.0475 111.7 65.25 112.136H65.3352C65.5447 111.714 65.859 111.378 66.278 111.13C66.697 110.877 67.1995 110.751 67.7855 110.751C68.517 110.751 69.1154 110.98 69.5806 111.438C70.0458 111.893 70.2784 112.601 70.2784 113.564V119.04H69.0213V113.564C69.0213 112.96 68.8561 112.529 68.5259 112.269C68.1956 112.01 67.8068 111.881 67.3593 111.881C66.784 111.881 66.3384 112.055 66.0223 112.403C65.7063 112.747 65.5483 113.184 65.5483 113.713V119.04H64.2698V113.436C64.2698 112.971 64.1189 112.596 63.8171 112.312C63.5152 112.024 63.1264 111.881 62.6505 111.881C62.3238 111.881 62.0184 111.968 61.7343 112.142C61.4538 112.316 61.2265 112.557 61.0525 112.866C60.8821 113.171 60.7968 113.525 60.7968 113.926V119.04H59.5397ZM76.0072 119.21C75.2189 119.21 74.5388 119.036 73.9671 118.688C73.3989 118.337 72.9604 117.847 72.6514 117.218C72.346 116.586 72.1933 115.851 72.1933 115.013C72.1933 114.175 72.346 113.436 72.6514 112.797C72.9604 112.154 73.39 111.653 73.9405 111.295C74.4945 110.932 75.1408 110.751 75.8794 110.751C76.3055 110.751 76.7263 110.822 77.1418 110.964C77.5573 111.106 77.9355 111.337 78.2764 111.657C78.6173 111.973 78.889 112.392 79.0914 112.914C79.2938 113.436 79.395 114.079 79.395 114.842V115.375H73.0882V114.288H78.1166C78.1166 113.827 78.0243 113.415 77.8396 113.052C77.6585 112.69 77.3993 112.404 77.0619 112.195C76.7281 111.985 76.3339 111.881 75.8794 111.881C75.3787 111.881 74.9454 112.005 74.5797 112.253C74.2175 112.499 73.9387 112.818 73.7434 113.212C73.5481 113.606 73.4504 114.029 73.4504 114.48V115.204C73.4504 115.822 73.557 116.346 73.77 116.776C73.9866 117.202 74.2867 117.527 74.6702 117.751C75.0538 117.971 75.4994 118.081 76.0072 118.081C76.3375 118.081 76.6358 118.035 76.9021 117.942C77.172 117.847 77.4046 117.704 77.5999 117.516C77.7952 117.325 77.9462 117.087 78.0527 116.802L79.2672 117.143C79.1393 117.555 78.9245 117.918 78.6226 118.23C78.3208 118.539 77.9479 118.78 77.504 118.954C77.0601 119.125 76.5612 119.21 76.0072 119.21ZM82.5644 114.118V119.04H81.3073V110.858H82.5218V112.136H82.6283C82.8201 111.721 83.1113 111.387 83.5019 111.135C83.8925 110.879 84.3968 110.751 85.0147 110.751C85.5687 110.751 86.0534 110.865 86.4689 111.092C86.8844 111.316 87.2075 111.657 87.4383 112.115C87.6692 112.57 87.7846 113.145 87.7846 113.841V119.04H86.5275V113.926C86.5275 113.283 86.3606 112.783 86.0268 112.424C85.693 112.062 85.2349 111.881 84.6525 111.881C84.2512 111.881 83.8925 111.968 83.5765 112.142C83.264 112.316 83.0172 112.57 82.8361 112.903C82.655 113.237 82.5644 113.642 82.5644 114.118ZM93.64 110.858V111.923H89.3999V110.858H93.64ZM90.6357 108.898H91.8928V116.696C91.8928 117.051 91.9443 117.317 92.0473 117.495C92.1538 117.669 92.2888 117.786 92.4521 117.847C92.619 117.903 92.7948 117.932 92.9794 117.932C93.1179 117.932 93.2316 117.925 93.3204 117.91C93.4091 117.893 93.4802 117.878 93.5334 117.868L93.7891 118.997C93.7039 119.029 93.5849 119.061 93.4322 119.093C93.2795 119.128 93.086 119.146 92.8516 119.146C92.4965 119.146 92.1485 119.07 91.8076 118.917C91.4702 118.764 91.1897 118.532 90.966 118.219C90.7458 117.907 90.6357 117.513 90.6357 117.037V108.898ZM98.7669 119.21C98.0283 119.21 97.3802 119.034 96.8227 118.683C96.2687 118.331 95.8354 117.839 95.5229 117.207C95.214 116.575 95.0595 115.837 95.0595 114.991C95.0595 114.139 95.214 113.395 95.5229 112.76C95.8354 112.124 96.2687 111.63 96.8227 111.279C97.3802 110.927 98.0283 110.751 98.7669 110.751C99.5055 110.751 100.152 110.927 100.706 111.279C101.263 111.63 101.697 112.124 102.006 112.76C102.318 113.395 102.474 114.139 102.474 114.991C102.474 115.837 102.318 116.575 102.006 117.207C101.697 117.839 101.263 118.331 100.706 118.683C100.152 119.034 99.5055 119.21 98.7669 119.21ZM98.7669 118.081C99.328 118.081 99.7896 117.937 100.152 117.649C100.514 117.362 100.782 116.984 100.956 116.515C101.13 116.046 101.217 115.538 101.217 114.991C101.217 114.445 101.13 113.935 100.956 113.463C100.782 112.99 100.514 112.609 100.152 112.317C99.7896 112.026 99.328 111.881 98.7669 111.881C98.2058 111.881 97.7442 112.026 97.382 112.317C97.0198 112.609 96.7516 112.99 96.5776 113.463C96.4036 113.935 96.3166 114.445 96.3166 114.991C96.3166 115.538 96.4036 116.046 96.5776 116.515C96.7516 116.984 97.0198 117.362 97.382 117.649C97.7442 117.937 98.2058 118.081 98.7669 118.081ZM110.189 112.69L109.059 113.01C108.988 112.822 108.884 112.639 108.745 112.461C108.61 112.28 108.426 112.131 108.191 112.014C107.957 111.897 107.657 111.838 107.291 111.838C106.79 111.838 106.373 111.953 106.039 112.184C105.709 112.412 105.544 112.701 105.544 113.052C105.544 113.365 105.657 113.612 105.885 113.793C106.112 113.974 106.467 114.125 106.95 114.246L108.165 114.544C108.896 114.722 109.441 114.993 109.8 115.359C110.159 115.721 110.338 116.188 110.338 116.76C110.338 117.229 110.203 117.648 109.933 118.017C109.667 118.386 109.294 118.677 108.814 118.891C108.335 119.104 107.777 119.21 107.142 119.21C106.307 119.21 105.617 119.029 105.07 118.667C104.523 118.305 104.177 117.775 104.031 117.079L105.224 116.781C105.338 117.222 105.553 117.552 105.869 117.772C106.188 117.992 106.606 118.102 107.121 118.102C107.706 118.102 108.172 117.978 108.516 117.729C108.864 117.477 109.038 117.175 109.038 116.824C109.038 116.54 108.939 116.302 108.74 116.11C108.541 115.915 108.236 115.769 107.824 115.673L106.46 115.354C105.711 115.176 105.16 114.901 104.809 114.528C104.461 114.152 104.287 113.681 104.287 113.116C104.287 112.655 104.416 112.246 104.676 111.891C104.938 111.536 105.295 111.257 105.746 111.055C106.201 110.853 106.716 110.751 107.291 110.751C108.101 110.751 108.736 110.929 109.198 111.284C109.663 111.639 109.993 112.108 110.189 112.69ZM117.259 122.108C117.045 122.108 116.856 122.09 116.689 122.055C116.522 122.023 116.406 121.991 116.342 121.959L116.662 120.851C116.967 120.929 117.237 120.957 117.472 120.936C117.706 120.915 117.914 120.81 118.095 120.622C118.28 120.437 118.448 120.137 118.601 119.722L118.835 119.082L115.81 110.858H117.173L119.432 117.378H119.517L121.776 110.858H123.139L119.666 120.233C119.51 120.655 119.316 121.005 119.086 121.282C118.855 121.563 118.587 121.771 118.281 121.905C117.979 122.04 117.639 122.108 117.259 122.108ZM57.5569 137.04V126.131H58.814V130.158H58.9205C59.0128 130.016 59.1407 129.834 59.304 129.614C59.4709 129.391 59.7089 129.192 60.0178 129.018C60.3303 128.84 60.7529 128.751 61.2856 128.751C61.9745 128.751 62.5817 128.924 63.1073 129.268C63.6329 129.613 64.043 130.101 64.3378 130.733C64.6325 131.365 64.7799 132.111 64.7799 132.97C64.7799 133.837 64.6325 134.588 64.3378 135.223C64.043 135.855 63.6346 136.345 63.1126 136.693C62.5906 137.038 61.9887 137.21 61.3069 137.21C60.7813 137.21 60.3605 137.123 60.0444 136.949C59.7284 136.772 59.4851 136.571 59.3147 136.347C59.1442 136.12 59.0128 135.932 58.9205 135.783H58.7714V137.04H57.5569ZM58.7927 132.949C58.7927 133.567 58.8832 134.112 59.0643 134.584C59.2454 135.053 59.51 135.42 59.858 135.687C60.206 135.95 60.6321 136.081 61.1364 136.081C61.662 136.081 62.1005 135.942 62.4521 135.665C62.8072 135.385 63.0736 135.008 63.2511 134.536C63.4322 134.06 63.5228 133.531 63.5228 132.949C63.5228 132.374 63.434 131.855 63.2564 131.393C63.0824 130.928 62.8179 130.561 62.4628 130.291C62.1112 130.017 61.6691 129.881 61.1364 129.881C60.625 129.881 60.1954 130.01 59.8473 130.269C59.4993 130.525 59.2366 130.884 59.059 131.345C58.8814 131.804 58.7927 132.338 58.7927 132.949ZM70.1332 137.21C69.3449 137.21 68.6648 137.036 68.0931 136.688C67.5249 136.337 67.0863 135.847 66.7774 135.218C66.472 134.586 66.3193 133.851 66.3193 133.013C66.3193 132.175 66.472 131.436 66.7774 130.797C67.0863 130.154 67.516 129.653 68.0665 129.295C68.6204 128.932 69.2667 128.751 70.0054 128.751C70.4315 128.751 70.8523 128.822 71.2678 128.964C71.6833 129.106 72.0615 129.337 72.4024 129.657C72.7433 129.973 73.015 130.392 73.2174 130.914C73.4198 131.436 73.521 132.079 73.521 132.842V133.375H67.2142V132.288H72.2426C72.2426 131.827 72.1503 131.415 71.9656 131.052C71.7845 130.69 71.5253 130.404 71.1879 130.195C70.8541 129.985 70.4599 129.881 70.0054 129.881C69.5047 129.881 69.0714 130.005 68.7057 130.253C68.3434 130.499 68.0647 130.818 67.8694 131.212C67.6741 131.606 67.5764 132.029 67.5764 132.48V133.204C67.5764 133.822 67.6829 134.346 67.896 134.776C68.1126 135.202 68.4127 135.527 68.7962 135.751C69.1797 135.971 69.6254 136.081 70.1332 136.081C70.4635 136.081 70.7618 136.035 71.0281 135.942C71.298 135.847 71.5306 135.704 71.7259 135.516C71.9212 135.325 72.0721 135.087 72.1787 134.802L73.3932 135.143C73.2653 135.555 73.0505 135.918 72.7486 136.23C72.4468 136.539 72.0739 136.78 71.63 136.954C71.1861 137.125 70.6872 137.21 70.1332 137.21ZM75.6037 137.04V126.131H76.8608V130.158H76.9674C77.0597 130.016 77.1875 129.834 77.3509 129.614C77.5178 129.391 77.7557 129.192 78.0647 129.018C78.3772 128.84 78.7998 128.751 79.3324 128.751C80.0214 128.751 80.6286 128.924 81.1542 129.268C81.6797 129.613 82.0899 130.101 82.3846 130.733C82.6794 131.365 82.8267 132.111 82.8267 132.97C82.8267 133.837 82.6794 134.588 82.3846 135.223C82.0899 135.855 81.6815 136.345 81.1595 136.693C80.6375 137.038 80.0356 137.21 79.3537 137.21C78.8282 137.21 78.4074 137.123 78.0913 136.949C77.7753 136.772 77.532 136.571 77.3616 136.347C77.1911 136.12 77.0597 135.932 76.9674 135.783H76.8182V137.04H75.6037ZM76.8395 132.949C76.8395 133.567 76.9301 134.112 77.1112 134.584C77.2923 135.053 77.5569 135.42 77.9049 135.687C78.2529 135.95 78.679 136.081 79.1833 136.081C79.7089 136.081 80.1474 135.942 80.499 135.665C80.8541 135.385 81.1204 135.008 81.298 134.536C81.4791 134.06 81.5696 133.531 81.5696 132.949C81.5696 132.374 81.4809 131.855 81.3033 131.393C81.1293 130.928 80.8647 130.561 80.5096 130.291C80.1581 130.017 79.716 129.881 79.1833 129.881C78.6719 129.881 78.2422 130.01 77.8942 130.269C77.5462 130.525 77.2834 130.884 77.1059 131.345C76.9283 131.804 76.8395 132.338 76.8395 132.949ZM84.7497 137.04V128.858H86.0068V137.04H84.7497ZM85.3889 127.494C85.1439 127.494 84.9326 127.411 84.755 127.244C84.581 127.077 84.494 126.876 84.494 126.642C84.494 126.408 84.581 126.207 84.755 126.04C84.9326 125.873 85.1439 125.79 85.3889 125.79C85.6339 125.79 85.8434 125.873 86.0174 126.04C86.195 126.207 86.2838 126.408 86.2838 126.642C86.2838 126.876 86.195 127.077 86.0174 127.244C85.8434 127.411 85.6339 127.494 85.3889 127.494ZM91.3987 137.21C90.7169 137.21 90.115 137.038 89.593 136.693C89.071 136.345 88.6626 135.855 88.3679 135.223C88.0731 134.588 87.9257 133.837 87.9257 132.97C87.9257 132.111 88.0731 131.365 88.3679 130.733C88.6626 130.101 89.0728 129.613 89.5983 129.268C90.1239 128.924 90.7311 128.751 91.4201 128.751C91.9527 128.751 92.3735 128.84 92.6825 129.018C92.995 129.192 93.2329 129.391 93.3963 129.614C93.5632 129.834 93.6928 130.016 93.7851 130.158H93.8916V126.131H95.1487V137.04H93.9343V135.783H93.7851C93.6928 135.932 93.5614 136.12 93.3909 136.347C93.2205 136.571 92.9772 136.772 92.6612 136.949C92.3451 137.123 91.9243 137.21 91.3987 137.21ZM91.5692 136.081C92.0735 136.081 92.4996 135.95 92.8476 135.687C93.1956 135.42 93.4602 135.053 93.6413 134.584C93.8224 134.112 93.913 133.567 93.913 132.949C93.913 132.338 93.8242 131.804 93.6466 131.345C93.4691 130.884 93.2063 130.525 92.8583 130.269C92.5103 130.01 92.0806 129.881 91.5692 129.881C91.0365 129.881 90.5926 130.017 90.2375 130.291C89.886 130.561 89.6214 130.928 89.4438 131.393C89.2698 131.855 89.1828 132.374 89.1828 132.949C89.1828 133.531 89.2716 134.06 89.4492 134.536C89.6303 135.008 89.8966 135.385 90.2482 135.665C90.6033 135.942 91.0436 136.081 91.5692 136.081ZM100.033 137.231C99.5149 137.231 99.0443 137.134 98.6218 136.938C98.1992 136.74 97.8636 136.454 97.615 136.081C97.3664 135.704 97.2421 135.25 97.2421 134.717C97.2421 134.249 97.3345 133.869 97.5191 133.577C97.7038 133.283 97.9506 133.052 98.2595 132.885C98.5685 132.718 98.9094 132.594 99.2823 132.512C99.6587 132.427 100.037 132.359 100.417 132.31C100.914 132.246 101.317 132.198 101.626 132.166C101.939 132.13 102.166 132.072 102.308 131.99C102.453 131.908 102.526 131.766 102.526 131.564V131.521C102.526 130.996 102.382 130.587 102.095 130.296C101.811 130.005 101.379 129.859 100.8 129.859C100.2 129.859 99.7297 129.991 99.3888 130.253C99.0479 130.516 98.8082 130.797 98.6697 131.095L97.4765 130.669C97.6896 130.172 97.9737 129.785 98.3288 129.508C98.6875 129.227 99.0781 129.032 99.5007 128.922C99.9268 128.808 100.346 128.751 100.758 128.751C101.021 128.751 101.322 128.783 101.663 128.847C102.008 128.908 102.34 129.034 102.659 129.225C102.983 129.417 103.251 129.707 103.464 130.094C103.677 130.481 103.783 130.999 103.783 131.649V137.04H102.526V135.932H102.462C102.377 136.109 102.235 136.299 102.036 136.502C101.837 136.704 101.573 136.876 101.242 137.018C100.912 137.16 100.509 137.231 100.033 137.231ZM100.225 136.102C100.722 136.102 101.141 136.005 101.482 135.809C101.827 135.614 102.086 135.362 102.26 135.053C102.437 134.744 102.526 134.419 102.526 134.078V132.927C102.473 132.991 102.356 133.05 102.175 133.103C101.997 133.153 101.791 133.197 101.557 133.236C101.326 133.272 101.1 133.304 100.88 133.332C100.664 133.357 100.488 133.378 100.353 133.396C100.026 133.439 99.7208 133.508 99.4367 133.604C99.1562 133.696 98.9289 133.837 98.7549 134.025C98.5845 134.209 98.4992 134.462 98.4992 134.781C98.4992 135.218 98.6608 135.548 98.984 135.772C99.3107 135.992 99.7244 136.102 100.225 136.102ZM111.873 130.69L110.744 131.01C110.673 130.822 110.568 130.639 110.43 130.461C110.295 130.28 110.11 130.131 109.876 130.014C109.641 129.897 109.341 129.838 108.976 129.838C108.475 129.838 108.058 129.953 107.724 130.184C107.394 130.412 107.228 130.701 107.228 131.052C107.228 131.365 107.342 131.612 107.569 131.793C107.797 131.974 108.152 132.125 108.635 132.246L109.849 132.544C110.581 132.722 111.126 132.993 111.484 133.359C111.843 133.721 112.022 134.188 112.022 134.76C112.022 135.229 111.887 135.648 111.618 136.017C111.351 136.386 110.978 136.677 110.499 136.891C110.02 137.104 109.462 137.21 108.826 137.21C107.992 137.21 107.301 137.029 106.754 136.667C106.207 136.305 105.861 135.775 105.716 135.079L106.909 134.781C107.022 135.222 107.237 135.552 107.553 135.772C107.873 135.992 108.29 136.102 108.805 136.102C109.391 136.102 109.856 135.978 110.201 135.729C110.549 135.477 110.723 135.175 110.723 134.824C110.723 134.54 110.623 134.302 110.424 134.11C110.226 133.915 109.92 133.769 109.508 133.673L108.145 133.354C107.395 133.176 106.845 132.901 106.493 132.528C106.145 132.152 105.971 131.681 105.971 131.116C105.971 130.655 106.101 130.246 106.36 129.891C106.623 129.536 106.98 129.257 107.431 129.055C107.885 128.853 108.4 128.751 108.976 128.751C109.785 128.751 110.421 128.929 110.883 129.284C111.348 129.639 111.678 130.108 111.873 130.69Z" fill="black"/>
<g clip-path="url(#clip0_40_18)">
<path d="M288.722 75.6907C288.685 74.1722 288.685 72.65 288.722 71.1278C288.751 69.8642 288.618 68.6672 287.687 67.6474C288.637 66.6166 288.751 65.39 288.722 64.1006C288.681 62.475 288.718 60.8493 288.711 59.2237C288.703 56.7815 287.211 55.2113 284.783 55.1559C283.86 55.1337 282.932 55.13 282.008 55.1337C281.595 55.0894 273.212 55.1485 272.79 55.1485C271.357 55.1485 269.927 55.1485 268.475 55.1485C268.438 54.731 268.405 54.3209 268.375 53.9071C268.179 54.1325 267.95 54.3431 267.677 54.5315C267.304 54.7864 266.986 55.1226 266.709 55.5069C266.827 56.715 266.838 57.9121 266.801 59.1091C267.045 59.1424 267.263 59.3419 267.167 59.6412C267.012 60.1215 266.857 60.6018 266.709 61.0858C266.953 61.0414 267.215 61.1708 267.186 61.4996C267.13 62.1203 267.108 62.7447 266.99 63.358C266.905 64.725 266.931 66.1031 266.971 67.4738C267.167 67.5071 267.333 67.6511 267.308 67.895C267.145 69.5465 267.596 71.1684 267.614 72.8162C267.614 72.9788 267.54 73.0859 267.437 73.1525C267.596 73.2153 267.729 73.352 267.736 73.5552C267.795 75.1328 267.751 76.7584 267.289 78.2806C267.219 78.506 267.001 78.602 266.798 78.5762C266.798 78.5799 266.798 78.5836 266.798 78.5873C266.764 78.772 266.639 78.857 266.495 78.8791C266.38 79.2043 266.332 79.5442 266.325 79.8915C266.321 80.0836 266.214 80.2018 266.077 80.2572C266.24 82.2634 266.569 84.2474 267.067 86.2241C267.293 87.1219 267.37 88.0529 267.526 89.0394C267.511 89.0394 267.503 89.0394 267.489 89.0394C267.489 89.2315 267.359 89.4421 267.163 89.4643C266.38 89.5566 265.593 89.6047 264.806 89.6305C264.747 89.7192 264.692 89.8116 264.625 89.8928C264.662 89.9926 264.699 90.096 264.74 90.1958C264.899 90.5985 265.017 91.0123 265.113 91.4335C271.682 91.4335 278.251 91.4335 284.82 91.4335C287.122 91.4335 288.703 89.8153 288.714 87.5024C288.725 85.8768 288.692 84.2511 288.725 82.6255C288.755 81.2917 288.692 79.9986 287.683 78.9604C288.555 77.9813 288.755 76.8766 288.725 75.6833L288.722 75.6907ZM268.719 57.5426C268.874 57.5352 269.055 57.5131 269.232 57.5131C270.777 57.5131 280.279 57.5315 282.101 57.5094C282.947 57.5094 283.797 57.5094 284.643 57.5168C285.851 57.5278 286.346 58.0525 286.35 59.2643C286.357 61.0193 286.35 62.7779 286.35 64.5329C286.35 66.0255 285.925 66.4615 284.443 66.4615C279.489 66.4615 274.534 66.4615 269.583 66.4615C269.332 66.4615 269.081 66.4282 268.719 66.4061V57.5426ZM268.793 68.826H269.528C274.505 68.826 279.485 68.826 284.462 68.826C285.884 68.826 286.35 69.2879 286.35 70.7066C286.35 72.5133 286.357 74.3237 286.35 76.1303C286.342 77.2202 285.84 77.7634 284.787 77.7671C279.415 77.7781 274.043 77.7707 268.671 77.7671C268.571 77.7671 268.471 77.7412 268.253 77.7116C268.434 74.7448 268.608 71.8483 268.793 68.8223V68.826ZM286.35 87.4581C286.342 88.5369 285.825 89.08 284.772 89.0837C279.928 89.0948 275.081 89.0874 270.237 89.0837C270.112 89.0837 269.986 89.0542 269.957 89.0542C269.402 86.08 268.856 83.1649 268.29 80.1353H269.244C274.298 80.1353 279.352 80.1353 284.41 80.1353C285.929 80.1353 286.353 80.5713 286.353 82.1156C286.353 83.8965 286.361 85.6773 286.353 87.4581H286.35Z" fill="#424242"/>
<path d="M270.126 89.0357C270.082 89.0283 270.041 89.0061 270.005 88.9803C269.905 89.0135 269.798 88.9987 269.705 88.9544C269.476 89.2167 268.992 89.1133 268.952 88.6699C268.926 88.4002 268.904 88.1305 268.881 87.8571C268.722 88.3891 268.298 88.8436 267.647 89.0911C267.282 89.2278 266.894 89.3239 266.506 89.3719C259.704 90.266 252.869 90.7832 246.012 90.9015C238.8 91.0234 231.61 90.6798 224.439 89.9224C222.691 89.7377 220.936 89.5566 219.207 89.2352C217.286 88.8805 216.787 87.2364 218.076 85.7696C218.457 85.3337 218.867 84.9235 219.259 84.4987C220.105 83.5861 220.452 82.5368 220.397 81.2659C220.127 74.8335 219.824 68.3975 219.698 61.9614C219.514 52.5327 219.806 43.1077 220.389 33.6938C220.478 32.2898 220.06 31.1592 219.111 30.1691C218.631 29.6703 218.132 29.1715 217.737 28.6062C216.987 27.5311 217.356 26.3008 218.56 25.8057C219.022 25.6173 219.536 25.5249 220.035 25.4473C221.04 25.2922 228.492 24.6604 229.493 24.4941C230.084 24.3944 228.163 24.3907 228.104 23.8032C228.041 23.1973 228.795 22.3882 228.233 22.451C226.718 22.6209 219.754 23.2897 218.298 23.6924C215.265 24.5495 214.334 27.7417 216.314 30.2023C216.721 30.7048 217.171 31.174 217.629 31.6358C218.15 32.1642 218.342 32.759 218.317 33.5127C218.054 40.9648 217.637 48.4206 217.637 55.8726C217.637 63.9528 217.984 72.033 218.294 80.1094C218.357 81.7462 218.084 83.0282 216.809 84.1033C216.041 84.7499 215.516 85.6144 215.354 86.6452C214.98 89.0098 216.399 90.9938 219.008 91.3079C223.763 91.8805 228.54 92.2796 233.309 92.7118C235.013 92.867 236.723 92.9077 238.434 93H247.885C248.066 92.9705 248.243 92.9224 248.428 92.9113C252.448 92.6564 256.475 92.4532 260.491 92.1392C262.796 91.9581 265.098 91.6663 267.381 91.3042C268.8 91.0788 269.986 90.4101 270.61 89.1059L270.13 89.0246L270.126 89.0357Z" fill="#424242"/>
<path d="M270.282 29.8033C271.8 27.6013 271.002 24.9116 268.534 23.8845C267.924 23.6296 267.252 23.4523 266.594 23.3895C261.71 22.9239 256.826 22.403 251.93 22.0853C244.733 21.616 237.529 21.7934 230.335 22.2958C229.319 22.366 228.303 22.451 227.291 22.5434C226.578 22.6099 226.171 23.0237 226.197 23.6407C226.219 24.254 226.67 24.6309 227.379 24.6235C227.586 24.6235 227.797 24.6013 228.004 24.5902C231.913 24.3759 235.818 24.0693 239.727 23.9695C247.585 23.7626 255.425 24.1949 263.236 25.0668C264.499 25.2072 265.77 25.3439 267.019 25.5878C269.062 25.9831 269.565 27.6013 268.165 29.1605C267.795 29.5743 267.403 29.9696 267.027 30.3797C266.206 31.2775 265.863 32.3083 265.915 33.5534C266.184 40.0338 266.487 46.5142 266.613 52.9946C266.798 62.4011 266.495 71.8039 265.918 81.192C265.918 81.2105 265.918 81.2253 265.918 81.2437C265.922 81.2548 265.933 81.2659 265.937 81.277C266.236 82.1785 266.428 83.1132 266.679 84.0258C266.827 84.2401 266.993 84.4507 267.185 84.6502C267.666 85.1527 268.165 85.644 268.564 86.2093C268.667 86.3571 268.748 86.5086 268.811 86.6601C268.785 86.0468 268.782 85.4297 268.822 84.8164C268.807 84.7869 268.789 84.761 268.782 84.7278C268.674 84.2142 268.623 83.697 268.663 83.1797C268.157 82.6735 267.972 82.0935 268.002 81.3657C268.261 74.8631 268.571 68.3605 268.7 61.8543C268.885 52.3997 268.575 42.9562 268.006 33.5164C267.961 32.759 268.176 32.1753 268.689 31.6359C269.247 31.0521 269.827 30.4684 270.285 29.807L270.282 29.8033Z" fill="#424242"/>
<path d="M244.988 53.2568C244.393 53.944 244.186 54.6904 244.179 55.4958C244.164 57.2101 244.157 58.9244 244.194 60.6387C244.201 60.9084 244.39 61.2483 244.608 61.422C245.687 62.2976 246.795 63.1363 247.903 63.975C249.045 64.8395 249.551 65.9701 249.267 67.3777C248.993 68.7337 248.095 69.5391 246.784 69.9122C242.136 71.2386 237.488 72.5613 232.84 73.8914C231.462 74.2867 230.254 73.9948 229.323 72.8938C228.37 71.7706 228.292 70.5071 228.946 69.1992C230.72 65.6376 232.486 62.0722 234.285 58.5254C235.316 56.4896 237.736 56.0204 239.446 57.4761C239.989 57.9416 240.089 58.5106 239.709 58.9983C239.358 59.4527 238.774 59.5155 238.22 59.1572C237.111 58.4478 236.568 58.5956 235.977 59.7816C234.289 63.1548 232.611 66.528 230.919 69.8975C230.646 70.4406 230.454 70.9689 230.886 71.5157C231.344 72.0921 231.92 71.9923 232.53 71.8187C237.041 70.5256 241.556 69.2435 246.067 67.9578C246.625 67.7989 247.116 67.5772 247.235 66.9196C247.349 66.2693 246.983 65.8888 246.514 65.5378C245.624 64.8728 244.741 64.1966 243.876 63.4984C243.551 63.236 243.329 63.2065 242.982 63.4799C241.851 64.3666 240.695 65.2127 239.542 66.0698C238.844 66.5908 238.238 66.5575 237.847 65.9996C237.473 65.4676 237.625 64.9097 238.294 64.4072C239.383 63.587 240.473 62.7594 241.578 61.9614C241.951 61.6917 242.114 61.4035 242.106 60.9306C242.077 59.2163 242.106 57.502 242.092 55.7877C242.081 54.3246 242.472 53.0056 243.407 51.8566C243.54 51.6903 243.603 51.3984 243.573 51.1805C243.363 49.7026 243.869 48.5647 245.081 47.6927C247.471 45.9784 249.828 44.2235 252.222 42.5165C254.446 40.9278 257.295 42.1545 257.532 44.7887C257.635 45.9304 257.236 46.9132 256.316 47.5967C253.77 49.4883 251.21 51.3578 248.624 53.194C247.478 54.0068 246.237 53.9477 244.992 53.2605L244.988 53.2568ZM255.625 45.04C255.341 44.6631 255.156 44.1606 254.857 44.0794C254.424 43.9611 253.8 43.987 253.453 44.2308C251.007 45.9341 248.609 47.7038 246.204 49.4661C245.561 49.9391 245.432 50.6632 245.842 51.2137C246.248 51.7568 246.932 51.8529 247.563 51.3947C250.017 49.625 252.47 47.8479 254.897 46.0412C255.185 45.8269 255.341 45.439 255.621 45.04H255.625Z" fill="#424242"/>
<path d="M243.133 27.2356C249.403 27.4166 255.632 27.8415 261.839 28.6691C261.932 28.6802 262.024 28.6949 262.113 28.7134C262.826 28.8538 263.221 29.2935 263.155 29.8698C263.084 30.4905 262.578 30.8489 261.832 30.7676C260.428 30.6125 259.028 30.4314 257.628 30.2799C251.587 29.6223 245.528 29.2676 239.461 29.578C234.495 29.8292 229.545 30.3575 224.586 30.7529C224.317 30.775 223.944 30.8267 223.788 30.6827C223.511 30.4277 223.219 30.0398 223.194 29.6925C223.157 29.1568 223.556 28.8132 224.11 28.7393C225.761 28.5287 227.409 28.2553 229.072 28.1371C233.756 27.8008 238.449 27.5311 243.137 27.2356H243.133Z" fill="#424242"/>
<path d="M243.185 87.3029C236.904 87.4359 230.649 86.9852 224.424 86.165C223.611 86.0578 223.19 85.6994 223.16 85.1231C223.127 84.4469 223.685 83.9888 224.475 84.0738C226.936 84.3361 229.393 84.6502 231.861 84.8644C238.098 85.4039 244.349 85.5553 250.596 85.1157C254.313 84.8571 258.015 84.4359 261.725 84.0849C262.556 84.0073 263.055 84.2992 263.155 84.9273C263.254 85.5627 262.807 86.0689 261.954 86.1502C257.69 86.5492 253.43 86.9741 249.163 87.277C247.183 87.4174 245.184 87.2992 243.192 87.2992L243.185 87.3029Z" fill="#424242"/>
<path d="M177.427 108.091H179.004L182.712 117.146H182.839L186.547 108.091H188.123V119H186.888V110.712H186.781L183.372 119H182.179L178.77 110.712H178.663V119H177.427V108.091ZM193.009 119.192C192.491 119.192 192.02 119.094 191.598 118.899C191.175 118.7 190.84 118.414 190.591 118.041C190.343 117.665 190.218 117.21 190.218 116.678C190.218 116.209 190.311 115.829 190.495 115.538C190.68 115.243 190.927 115.012 191.236 114.845C191.545 114.678 191.885 114.554 192.258 114.472C192.635 114.387 193.013 114.32 193.393 114.27C193.89 114.206 194.293 114.158 194.602 114.126C194.915 114.091 195.142 114.032 195.284 113.95C195.43 113.869 195.502 113.727 195.502 113.524V113.482C195.502 112.956 195.358 112.548 195.071 112.256C194.787 111.965 194.355 111.82 193.776 111.82C193.176 111.82 192.706 111.951 192.365 112.214C192.024 112.477 191.784 112.757 191.646 113.055L190.453 112.629C190.666 112.132 190.95 111.745 191.305 111.468C191.664 111.187 192.054 110.992 192.477 110.882C192.903 110.768 193.322 110.712 193.734 110.712C193.997 110.712 194.298 110.744 194.639 110.808C194.984 110.868 195.316 110.994 195.635 111.186C195.959 111.377 196.227 111.667 196.44 112.054C196.653 112.441 196.759 112.96 196.759 113.609V119H195.502V117.892H195.438C195.353 118.07 195.211 118.26 195.012 118.462C194.813 118.664 194.549 118.837 194.219 118.979C193.888 119.121 193.485 119.192 193.009 119.192ZM193.201 118.062C193.698 118.062 194.117 117.965 194.458 117.77C194.803 117.574 195.062 117.322 195.236 117.013C195.414 116.704 195.502 116.379 195.502 116.038V114.888C195.449 114.952 195.332 115.01 195.151 115.064C194.973 115.113 194.767 115.158 194.533 115.197C194.302 115.232 194.077 115.264 193.856 115.293C193.64 115.317 193.464 115.339 193.329 115.357C193.002 115.399 192.697 115.468 192.413 115.564C192.132 115.657 191.905 115.797 191.731 115.985C191.561 116.17 191.475 116.422 191.475 116.741C191.475 117.178 191.637 117.509 191.96 117.732C192.287 117.952 192.7 118.062 193.201 118.062ZM202.612 110.818V111.884H198.372V110.818H202.612ZM199.608 108.858H200.865V116.656C200.865 117.011 200.916 117.278 201.019 117.455C201.126 117.629 201.261 117.746 201.424 117.807C201.591 117.864 201.767 117.892 201.952 117.892C202.09 117.892 202.204 117.885 202.293 117.871C202.381 117.853 202.452 117.839 202.506 117.828L202.761 118.957C202.676 118.989 202.557 119.021 202.404 119.053C202.252 119.089 202.058 119.107 201.824 119.107C201.469 119.107 201.121 119.03 200.78 118.877C200.442 118.725 200.162 118.492 199.938 118.18C199.718 117.867 199.608 117.473 199.608 116.997V108.858ZM207.846 119.17C207.057 119.17 206.377 118.996 205.805 118.648C205.237 118.297 204.799 117.807 204.49 117.178C204.184 116.546 204.032 115.811 204.032 114.973C204.032 114.135 204.184 113.396 204.49 112.757C204.799 112.114 205.228 111.614 205.779 111.255C206.333 110.893 206.979 110.712 207.718 110.712C208.144 110.712 208.565 110.783 208.98 110.925C209.396 111.067 209.774 111.298 210.115 111.617C210.456 111.933 210.727 112.352 210.93 112.874C211.132 113.396 211.233 114.039 211.233 114.803V115.335H204.927V114.249H209.955C209.955 113.787 209.863 113.375 209.678 113.013C209.497 112.651 209.238 112.365 208.9 112.155C208.566 111.946 208.172 111.841 207.718 111.841C207.217 111.841 206.784 111.965 206.418 112.214C206.056 112.459 205.777 112.778 205.582 113.173C205.386 113.567 205.289 113.989 205.289 114.44V115.165C205.289 115.783 205.395 116.306 205.608 116.736C205.825 117.162 206.125 117.487 206.509 117.711C206.892 117.931 207.338 118.041 207.846 118.041C208.176 118.041 208.474 117.995 208.741 117.903C209.01 117.807 209.243 117.665 209.438 117.477C209.634 117.285 209.785 117.047 209.891 116.763L211.106 117.104C210.978 117.516 210.763 117.878 210.461 118.19C210.159 118.499 209.786 118.741 209.342 118.915C208.899 119.085 208.4 119.17 207.846 119.17ZM213.146 119V110.818H214.36V112.054H214.445C214.595 111.649 214.864 111.321 215.255 111.069C215.646 110.816 216.086 110.69 216.576 110.69C216.668 110.69 216.784 110.692 216.922 110.696C217.061 110.699 217.166 110.705 217.237 110.712V111.99C217.194 111.979 217.096 111.963 216.944 111.942C216.794 111.917 216.636 111.905 216.47 111.905C216.072 111.905 215.717 111.988 215.404 112.155C215.095 112.319 214.85 112.546 214.669 112.837C214.492 113.125 214.403 113.453 214.403 113.822V119H213.146ZM218.727 119V110.818H219.984V119H218.727ZM219.366 109.455C219.121 109.455 218.91 109.371 218.732 109.204C218.558 109.037 218.471 108.837 218.471 108.602C218.471 108.368 218.558 108.167 218.732 108C218.91 107.833 219.121 107.75 219.366 107.75C219.611 107.75 219.82 107.833 219.994 108C220.172 108.167 220.261 108.368 220.261 108.602C220.261 108.837 220.172 109.037 219.994 109.204C219.82 109.371 219.611 109.455 219.366 109.455ZM224.694 119.192C224.176 119.192 223.705 119.094 223.282 118.899C222.86 118.7 222.524 118.414 222.276 118.041C222.027 117.665 221.903 117.21 221.903 116.678C221.903 116.209 221.995 115.829 222.18 115.538C222.364 115.243 222.611 115.012 222.92 114.845C223.229 114.678 223.57 114.554 223.943 114.472C224.319 114.387 224.698 114.32 225.078 114.27C225.575 114.206 225.978 114.158 226.287 114.126C226.599 114.091 226.826 114.032 226.968 113.95C227.114 113.869 227.187 113.727 227.187 113.524V113.482C227.187 112.956 227.043 112.548 226.755 112.256C226.471 111.965 226.04 111.82 225.461 111.82C224.861 111.82 224.39 111.951 224.049 112.214C223.709 112.477 223.469 112.757 223.33 113.055L222.137 112.629C222.35 112.132 222.634 111.745 222.989 111.468C223.348 111.187 223.739 110.992 224.161 110.882C224.587 110.768 225.006 110.712 225.418 110.712C225.681 110.712 225.983 110.744 226.324 110.808C226.668 110.868 227 110.994 227.32 111.186C227.643 111.377 227.911 111.667 228.124 112.054C228.337 112.441 228.444 112.96 228.444 113.609V119H227.187V117.892H227.123C227.038 118.07 226.896 118.26 226.697 118.462C226.498 118.664 226.233 118.837 225.903 118.979C225.573 119.121 225.17 119.192 224.694 119.192ZM224.886 118.062C225.383 118.062 225.802 117.965 226.143 117.77C226.487 117.574 226.747 117.322 226.921 117.013C227.098 116.704 227.187 116.379 227.187 116.038V114.888C227.134 114.952 227.016 115.01 226.835 115.064C226.658 115.113 226.452 115.158 226.217 115.197C225.987 115.232 225.761 115.264 225.541 115.293C225.324 115.317 225.149 115.339 225.014 115.357C224.687 115.399 224.381 115.468 224.097 115.564C223.817 115.657 223.59 115.797 223.416 115.985C223.245 116.17 223.16 116.422 223.16 116.741C223.16 117.178 223.321 117.509 223.645 117.732C223.971 117.952 224.385 118.062 224.886 118.062ZM231.996 108.091V119H230.738V108.091H231.996ZM241.606 119.17C240.924 119.17 240.323 118.998 239.801 118.654C239.278 118.306 238.87 117.816 238.575 117.184C238.281 116.548 238.133 115.797 238.133 114.93C238.133 114.071 238.281 113.325 238.575 112.693C238.87 112.061 239.28 111.573 239.806 111.228C240.331 110.884 240.939 110.712 241.628 110.712C242.16 110.712 242.581 110.8 242.89 110.978C243.203 111.152 243.44 111.351 243.604 111.575C243.771 111.795 243.9 111.976 243.993 112.118H244.099V108.091H245.356V119H244.142V117.743H243.993C243.9 117.892 243.769 118.08 243.598 118.308C243.428 118.531 243.185 118.732 242.869 118.909C242.553 119.083 242.132 119.17 241.606 119.17ZM241.777 118.041C242.281 118.041 242.707 117.91 243.055 117.647C243.403 117.381 243.668 117.013 243.849 116.544C244.03 116.072 244.12 115.527 244.12 114.909C244.12 114.298 244.032 113.764 243.854 113.306C243.677 112.844 243.414 112.485 243.066 112.23C242.718 111.971 242.288 111.841 241.777 111.841C241.244 111.841 240.8 111.978 240.445 112.251C240.093 112.521 239.829 112.888 239.651 113.354C239.477 113.815 239.39 114.334 239.39 114.909C239.39 115.491 239.479 116.021 239.657 116.496C239.838 116.969 240.104 117.345 240.456 117.626C240.811 117.903 241.251 118.041 241.777 118.041ZM251.264 119.17C250.475 119.17 249.795 118.996 249.223 118.648C248.655 118.297 248.217 117.807 247.908 117.178C247.602 116.546 247.45 115.811 247.45 114.973C247.45 114.135 247.602 113.396 247.908 112.757C248.217 112.114 248.646 111.614 249.197 111.255C249.751 110.893 250.397 110.712 251.136 110.712C251.562 110.712 251.983 110.783 252.398 110.925C252.814 111.067 253.192 111.298 253.533 111.617C253.874 111.933 254.145 112.352 254.348 112.874C254.55 113.396 254.651 114.039 254.651 114.803V115.335H248.345V114.249H253.373C253.373 113.787 253.281 113.375 253.096 113.013C252.915 112.651 252.656 112.365 252.318 112.155C251.984 111.946 251.59 111.841 251.136 111.841C250.635 111.841 250.202 111.965 249.836 112.214C249.474 112.459 249.195 112.778 249 113.173C248.804 113.567 248.707 113.989 248.707 114.44V115.165C248.707 115.783 248.813 116.306 249.026 116.736C249.243 117.162 249.543 117.487 249.927 117.711C250.31 117.931 250.756 118.041 251.264 118.041C251.594 118.041 251.892 117.995 252.158 117.903C252.428 117.807 252.661 117.665 252.856 117.477C253.052 117.285 253.203 117.047 253.309 116.763L254.524 117.104C254.396 117.516 254.181 117.878 253.879 118.19C253.577 118.499 253.204 118.741 252.76 118.915C252.316 119.085 251.818 119.17 251.264 119.17ZM260.953 119V108.091H267.494V109.263H262.274V112.949H267.004V114.121H262.274V119H260.953ZM272.416 119.17C271.628 119.17 270.948 118.996 270.376 118.648C269.808 118.297 269.369 117.807 269.06 117.178C268.755 116.546 268.602 115.811 268.602 114.973C268.602 114.135 268.755 113.396 269.06 112.757C269.369 112.114 269.799 111.614 270.349 111.255C270.903 110.893 271.549 110.712 272.288 110.712C272.714 110.712 273.135 110.783 273.551 110.925C273.966 111.067 274.344 111.298 274.685 111.617C275.026 111.933 275.298 112.352 275.5 112.874C275.703 113.396 275.804 114.039 275.804 114.803V115.335H269.497V114.249H274.525C274.525 113.787 274.433 113.375 274.248 113.013C274.067 112.651 273.808 112.365 273.471 112.155C273.137 111.946 272.743 111.841 272.288 111.841C271.787 111.841 271.354 111.965 270.988 112.214C270.626 112.459 270.347 112.778 270.152 113.173C269.957 113.567 269.859 113.989 269.859 114.44V115.165C269.859 115.783 269.966 116.306 270.179 116.736C270.395 117.162 270.695 117.487 271.079 117.711C271.462 117.931 271.908 118.041 272.416 118.041C272.746 118.041 273.044 117.995 273.311 117.903C273.581 117.807 273.813 117.665 274.009 117.477C274.204 117.285 274.355 117.047 274.461 116.763L275.676 117.104C275.548 117.516 275.333 117.878 275.031 118.19C274.729 118.499 274.357 118.741 273.913 118.915C273.469 119.085 272.97 119.17 272.416 119.17ZM277.716 119V110.818H278.93V112.054H279.016C279.165 111.649 279.435 111.321 279.825 111.069C280.216 110.816 280.656 110.69 281.146 110.69C281.239 110.69 281.354 110.692 281.493 110.696C281.631 110.699 281.736 110.705 281.807 110.712V111.99C281.764 111.979 281.667 111.963 281.514 111.942C281.365 111.917 281.207 111.905 281.04 111.905C280.642 111.905 280.287 111.988 279.975 112.155C279.666 112.319 279.421 112.546 279.239 112.837C279.062 113.125 278.973 113.453 278.973 113.822V119H277.716ZM283.297 119V110.818H284.512V112.054H284.597C284.746 111.649 285.016 111.321 285.406 111.069C285.797 110.816 286.237 110.69 286.727 110.69C286.82 110.69 286.935 110.692 287.074 110.696C287.212 110.699 287.317 110.705 287.388 110.712V111.99C287.345 111.979 287.248 111.963 287.095 111.942C286.946 111.917 286.788 111.905 286.621 111.905C286.223 111.905 285.868 111.988 285.556 112.155C285.247 112.319 285.002 112.546 284.82 112.837C284.643 113.125 284.554 113.453 284.554 113.822V119H283.297ZM292.059 119.17C291.271 119.17 290.591 118.996 290.019 118.648C289.451 118.297 289.013 117.807 288.704 117.178C288.398 116.546 288.246 115.811 288.246 114.973C288.246 114.135 288.398 113.396 288.704 112.757C289.013 112.114 289.442 111.614 289.993 111.255C290.547 110.893 291.193 110.712 291.932 110.712C292.358 110.712 292.779 110.783 293.194 110.925C293.61 111.067 293.988 111.298 294.329 111.617C294.67 111.933 294.941 112.352 295.144 112.874C295.346 113.396 295.447 114.039 295.447 114.803V115.335H289.14V114.249H294.169C294.169 113.787 294.077 113.375 293.892 113.013C293.711 112.651 293.452 112.365 293.114 112.155C292.78 111.946 292.386 111.841 291.932 111.841C291.431 111.841 290.998 111.965 290.632 112.214C290.27 112.459 289.991 112.778 289.796 113.173C289.6 113.567 289.503 113.989 289.503 114.44V115.165C289.503 115.783 289.609 116.306 289.822 116.736C290.039 117.162 290.339 117.487 290.722 117.711C291.106 117.931 291.552 118.041 292.059 118.041C292.39 118.041 292.688 117.995 292.954 117.903C293.224 117.807 293.457 117.665 293.652 117.477C293.847 117.285 293.998 117.047 294.105 116.763L295.319 117.104C295.192 117.516 294.977 117.878 294.675 118.19C294.373 118.499 294 118.741 293.556 118.915C293.112 119.085 292.613 119.17 292.059 119.17ZM300.918 110.818V111.884H296.678V110.818H300.918ZM297.914 108.858H299.171V116.656C299.171 117.011 299.222 117.278 299.325 117.455C299.432 117.629 299.567 117.746 299.73 117.807C299.897 117.864 300.073 117.892 300.257 117.892C300.396 117.892 300.509 117.885 300.598 117.871C300.687 117.853 300.758 117.839 300.811 117.828L301.067 118.957C300.982 118.989 300.863 119.021 300.71 119.053C300.557 119.089 300.364 119.107 300.129 119.107C299.774 119.107 299.426 119.03 299.085 118.877C298.748 118.725 298.468 118.492 298.244 118.18C298.024 117.867 297.914 117.473 297.914 116.997V108.858ZM306.151 119.17C305.363 119.17 304.683 118.996 304.111 118.648C303.543 118.297 303.104 117.807 302.795 117.178C302.49 116.546 302.337 115.811 302.337 114.973C302.337 114.135 302.49 113.396 302.795 112.757C303.104 112.114 303.534 111.614 304.085 111.255C304.638 110.893 305.285 110.712 306.023 110.712C306.45 110.712 306.87 110.783 307.286 110.925C307.701 111.067 308.08 111.298 308.42 111.617C308.761 111.933 309.033 112.352 309.235 112.874C309.438 113.396 309.539 114.039 309.539 114.803V115.335H303.232V114.249H308.261C308.261 113.787 308.168 113.375 307.984 113.013C307.803 112.651 307.543 112.365 307.206 112.155C306.872 111.946 306.478 111.841 306.023 111.841C305.523 111.841 305.089 111.965 304.724 112.214C304.362 112.459 304.083 112.778 303.887 113.173C303.692 113.567 303.594 113.989 303.594 114.44V115.165C303.594 115.783 303.701 116.306 303.914 116.736C304.131 117.162 304.431 117.487 304.814 117.711C305.198 117.931 305.643 118.041 306.151 118.041C306.482 118.041 306.78 117.995 307.046 117.903C307.316 117.807 307.549 117.665 307.744 117.477C307.939 117.285 308.09 117.047 308.197 116.763L309.411 117.104C309.283 117.516 309.069 117.878 308.767 118.19C308.465 118.499 308.092 118.741 307.648 118.915C307.204 119.085 306.705 119.17 306.151 119.17ZM311.451 119V110.818H312.666V112.054H312.751C312.9 111.649 313.17 111.321 313.561 111.069C313.951 110.816 314.392 110.69 314.882 110.69C314.974 110.69 315.089 110.692 315.228 110.696C315.366 110.699 315.471 110.705 315.542 110.712V111.99C315.5 111.979 315.402 111.963 315.249 111.942C315.1 111.917 314.942 111.905 314.775 111.905C314.377 111.905 314.022 111.988 313.71 112.155C313.401 112.319 313.156 112.546 312.975 112.837C312.797 113.125 312.708 113.453 312.708 113.822V119H311.451ZM317.032 119V110.818H318.29V119H317.032ZM317.096 109.71L318.396 107.239H319.866L318.204 109.71H317.096ZM323 119.192C322.481 119.192 322.011 119.094 321.588 118.899C321.165 118.7 320.83 118.414 320.581 118.041C320.333 117.665 320.208 117.21 320.208 116.678C320.208 116.209 320.301 115.829 320.485 115.538C320.67 115.243 320.917 115.012 321.226 114.845C321.535 114.678 321.876 114.554 322.249 114.472C322.625 114.387 323.003 114.32 323.383 114.27C323.88 114.206 324.283 114.158 324.592 114.126C324.905 114.091 325.132 114.032 325.274 113.95C325.42 113.869 325.493 113.727 325.493 113.524V113.482C325.493 112.956 325.349 112.548 325.061 112.256C324.777 111.965 324.346 111.82 323.767 111.82C323.167 111.82 322.696 111.951 322.355 112.214C322.014 112.477 321.775 112.757 321.636 113.055L320.443 112.629C320.656 112.132 320.94 111.745 321.295 111.468C321.654 111.187 322.044 110.992 322.467 110.882C322.893 110.768 323.312 110.712 323.724 110.712C323.987 110.712 324.289 110.744 324.63 110.808C324.974 110.868 325.306 110.994 325.626 111.186C325.949 111.377 326.217 111.667 326.43 112.054C326.643 112.441 326.75 112.96 326.75 113.609V119H325.493V117.892H325.429C325.343 118.07 325.201 118.26 325.002 118.462C324.804 118.664 324.539 118.837 324.209 118.979C323.879 119.121 323.475 119.192 323 119.192ZM323.191 118.062C323.689 118.062 324.108 117.965 324.449 117.77C324.793 117.574 325.052 117.322 325.226 117.013C325.404 116.704 325.493 116.379 325.493 116.038V114.888C325.439 114.952 325.322 115.01 325.141 115.064C324.963 115.113 324.757 115.158 324.523 115.197C324.292 115.232 324.067 115.264 323.847 115.293C323.63 115.317 323.454 115.339 323.319 115.357C322.993 115.399 322.687 115.468 322.403 115.564C322.123 115.657 321.895 115.797 321.721 115.985C321.551 116.17 321.466 116.422 321.466 116.741C321.466 117.178 321.627 117.509 321.95 117.732C322.277 117.952 322.691 118.062 323.191 118.062ZM201.812 140.068C201.599 140.068 201.409 140.05 201.242 140.015C201.075 139.983 200.96 139.951 200.896 139.919L201.215 138.811C201.521 138.889 201.79 138.918 202.025 138.896C202.259 138.875 202.467 138.77 202.648 138.582C202.833 138.397 203.001 138.097 203.154 137.682L203.388 137.043L200.363 128.818H201.727L203.985 135.338H204.07L206.329 128.818H207.692L204.219 138.193C204.063 138.616 203.87 138.966 203.639 139.243C203.408 139.523 203.14 139.731 202.835 139.866C202.533 140.001 202.192 140.068 201.812 140.068ZM216.894 137.17C216.127 137.17 215.467 136.989 214.913 136.627C214.359 136.265 213.933 135.766 213.634 135.13C213.336 134.495 213.187 133.768 213.187 132.952C213.187 132.121 213.34 131.387 213.645 130.752C213.954 130.113 214.384 129.614 214.934 129.255C215.488 128.893 216.134 128.712 216.873 128.712C217.448 128.712 217.967 128.818 218.428 129.031C218.89 129.244 219.268 129.543 219.563 129.926C219.858 130.31 220.041 130.757 220.112 131.268H218.855C218.759 130.896 218.546 130.565 218.215 130.278C217.889 129.987 217.448 129.841 216.894 129.841C216.404 129.841 215.975 129.969 215.605 130.224C215.24 130.477 214.954 130.833 214.748 131.295C214.545 131.753 214.444 132.291 214.444 132.909C214.444 133.541 214.544 134.092 214.742 134.56C214.945 135.029 215.229 135.393 215.595 135.652C215.964 135.912 216.397 136.041 216.894 136.041C217.221 136.041 217.518 135.984 217.784 135.871C218.05 135.757 218.276 135.594 218.46 135.381C218.645 135.168 218.776 134.912 218.855 134.614H220.112C220.041 135.097 219.865 135.532 219.584 135.919C219.307 136.302 218.94 136.608 218.482 136.835C218.027 137.059 217.498 137.17 216.894 137.17ZM225.273 137.17C224.535 137.17 223.887 136.995 223.329 136.643C222.775 136.292 222.342 135.8 222.029 135.168C221.72 134.536 221.566 133.797 221.566 132.952C221.566 132.099 221.72 131.355 222.029 130.72C222.342 130.084 222.775 129.591 223.329 129.239C223.887 128.887 224.535 128.712 225.273 128.712C226.012 128.712 226.658 128.887 227.212 129.239C227.77 129.591 228.203 130.084 228.512 130.72C228.824 131.355 228.981 132.099 228.981 132.952C228.981 133.797 228.824 134.536 228.512 135.168C228.203 135.8 227.77 136.292 227.212 136.643C226.658 136.995 226.012 137.17 225.273 137.17ZM225.273 136.041C225.834 136.041 226.296 135.897 226.658 135.61C227.02 135.322 227.289 134.944 227.463 134.475C227.637 134.006 227.724 133.499 227.724 132.952C227.724 132.405 227.637 131.895 227.463 131.423C227.289 130.951 227.02 130.569 226.658 130.278C226.296 129.987 225.834 129.841 225.273 129.841C224.712 129.841 224.251 129.987 223.888 130.278C223.526 130.569 223.258 130.951 223.084 131.423C222.91 131.895 222.823 132.405 222.823 132.952C222.823 133.499 222.91 134.006 223.084 134.475C223.258 134.944 223.526 135.322 223.888 135.61C224.251 135.897 224.712 136.041 225.273 136.041ZM232.157 132.078V137H230.9V128.818H232.114V130.097H232.221C232.412 129.681 232.704 129.347 233.094 129.095C233.485 128.839 233.989 128.712 234.607 128.712C235.161 128.712 235.646 128.825 236.061 129.053C236.477 129.276 236.8 129.617 237.031 130.075C237.261 130.53 237.377 131.105 237.377 131.801V137H236.12V131.886C236.12 131.244 235.953 130.743 235.619 130.384C235.285 130.022 234.827 129.841 234.245 129.841C233.843 129.841 233.485 129.928 233.169 130.102C232.856 130.276 232.609 130.53 232.428 130.864C232.247 131.197 232.157 131.602 232.157 132.078ZM245.469 130.651L244.34 130.97C244.269 130.782 244.164 130.599 244.026 130.422C243.891 130.24 243.706 130.091 243.472 129.974C243.238 129.857 242.938 129.798 242.572 129.798C242.071 129.798 241.654 129.914 241.32 130.145C240.99 130.372 240.825 130.661 240.825 131.013C240.825 131.325 240.938 131.572 241.165 131.753C241.393 131.934 241.748 132.085 242.231 132.206L243.445 132.504C244.177 132.682 244.722 132.953 245.081 133.319C245.439 133.681 245.619 134.148 245.619 134.72C245.619 135.189 245.484 135.608 245.214 135.977C244.947 136.347 244.575 136.638 244.095 136.851C243.616 137.064 243.058 137.17 242.423 137.17C241.588 137.17 240.897 136.989 240.35 136.627C239.804 136.265 239.457 135.736 239.312 135.04L240.505 134.741C240.619 135.182 240.833 135.512 241.15 135.732C241.469 135.952 241.886 136.062 242.401 136.062C242.987 136.062 243.452 135.938 243.797 135.69C244.145 135.437 244.319 135.136 244.319 134.784C244.319 134.5 244.219 134.262 244.021 134.07C243.822 133.875 243.516 133.729 243.104 133.634L241.741 133.314C240.991 133.136 240.441 132.861 240.089 132.488C239.741 132.112 239.567 131.641 239.567 131.077C239.567 130.615 239.697 130.207 239.956 129.852C240.219 129.496 240.576 129.218 241.027 129.015C241.482 128.813 241.996 128.712 242.572 128.712C243.381 128.712 244.017 128.889 244.479 129.244C244.944 129.599 245.274 130.068 245.469 130.651ZM251.069 128.818V129.884H246.829V128.818H251.069ZM248.065 126.858H249.322V134.656C249.322 135.011 249.373 135.278 249.476 135.455C249.583 135.629 249.718 135.746 249.881 135.807C250.048 135.864 250.224 135.892 250.409 135.892C250.547 135.892 250.661 135.885 250.75 135.871C250.838 135.853 250.909 135.839 250.963 135.828L251.218 136.957C251.133 136.989 251.014 137.021 250.861 137.053C250.709 137.089 250.515 137.107 250.281 137.107C249.926 137.107 249.578 137.03 249.237 136.877C248.899 136.725 248.619 136.492 248.395 136.18C248.175 135.867 248.065 135.473 248.065 134.997V126.858ZM252.96 137V128.818H254.175V130.054H254.26C254.409 129.649 254.679 129.321 255.07 129.069C255.46 128.816 255.9 128.69 256.391 128.69C256.483 128.69 256.598 128.692 256.737 128.696C256.875 128.699 256.98 128.705 257.051 128.712V129.99C257.008 129.979 256.911 129.963 256.758 129.942C256.609 129.917 256.451 129.905 256.284 129.905C255.886 129.905 255.531 129.988 255.219 130.155C254.91 130.319 254.665 130.546 254.484 130.837C254.306 131.125 254.217 131.453 254.217 131.822V137H252.96ZM263.697 133.655V128.818H264.955V137H263.697V135.615H263.612C263.42 136.031 263.122 136.384 262.717 136.675C262.313 136.963 261.801 137.107 261.183 137.107C260.672 137.107 260.217 136.995 259.82 136.771C259.422 136.544 259.109 136.203 258.882 135.748C258.655 135.29 258.541 134.713 258.541 134.017V128.818H259.798V133.932C259.798 134.528 259.965 135.004 260.299 135.359C260.636 135.714 261.066 135.892 261.588 135.892C261.901 135.892 262.218 135.812 262.542 135.652C262.868 135.493 263.142 135.248 263.362 134.917C263.586 134.587 263.697 134.166 263.697 133.655ZM270.581 137.17C269.814 137.17 269.153 136.989 268.599 136.627C268.045 136.265 267.619 135.766 267.321 135.13C267.023 134.495 266.873 133.768 266.873 132.952C266.873 132.121 267.026 131.387 267.332 130.752C267.641 130.113 268.07 129.614 268.621 129.255C269.175 128.893 269.821 128.712 270.56 128.712C271.135 128.712 271.653 128.818 272.115 129.031C272.577 129.244 272.955 129.543 273.25 129.926C273.544 130.31 273.727 130.757 273.798 131.268H272.541C272.445 130.896 272.232 130.565 271.902 130.278C271.575 129.987 271.135 129.841 270.581 129.841C270.091 129.841 269.661 129.969 269.292 130.224C268.926 130.477 268.64 130.833 268.434 131.295C268.232 131.753 268.131 132.291 268.131 132.909C268.131 133.541 268.23 134.092 268.429 134.56C268.631 135.029 268.915 135.393 269.281 135.652C269.65 135.912 270.084 136.041 270.581 136.041C270.908 136.041 271.204 135.984 271.47 135.871C271.737 135.757 271.962 135.594 272.147 135.381C272.332 135.168 272.463 134.912 272.541 134.614H273.798C273.727 135.097 273.551 135.532 273.271 135.919C272.994 136.302 272.626 136.608 272.168 136.835C271.714 137.059 271.185 137.17 270.581 137.17ZM278.96 137.17C278.193 137.17 277.532 136.989 276.978 136.627C276.424 136.265 275.998 135.766 275.7 135.13C275.402 134.495 275.252 133.768 275.252 132.952C275.252 132.121 275.405 131.387 275.71 130.752C276.019 130.113 276.449 129.614 277 129.255C277.554 128.893 278.2 128.712 278.938 128.712C279.514 128.712 280.032 128.818 280.494 129.031C280.956 129.244 281.334 129.543 281.628 129.926C281.923 130.31 282.106 130.757 282.177 131.268H280.92C280.824 130.896 280.611 130.565 280.281 130.278C279.954 129.987 279.514 129.841 278.96 129.841C278.47 129.841 278.04 129.969 277.671 130.224C277.305 130.477 277.019 130.833 276.813 131.295C276.611 131.753 276.509 132.291 276.509 132.909C276.509 133.541 276.609 134.092 276.808 134.56C277.01 135.029 277.294 135.393 277.66 135.652C278.029 135.912 278.463 136.041 278.96 136.041C279.286 136.041 279.583 135.984 279.849 135.871C280.116 135.757 280.341 135.594 280.526 135.381C280.71 135.168 280.842 134.912 280.92 134.614H282.177C282.106 135.097 281.93 135.532 281.65 135.919C281.373 136.302 281.005 136.608 280.547 136.835C280.093 137.059 279.563 137.17 278.96 137.17ZM284.015 137V128.818H285.272V137H284.015ZM284.654 127.455C284.409 127.455 284.198 127.371 284.02 127.204C283.846 127.037 283.759 126.837 283.759 126.602C283.759 126.368 283.846 126.167 284.02 126C284.198 125.833 284.409 125.75 284.654 125.75C284.899 125.75 285.109 125.833 285.283 126C285.46 126.167 285.549 126.368 285.549 126.602C285.549 126.837 285.46 127.037 285.283 127.204C285.109 127.371 284.899 127.455 284.654 127.455ZM290.898 137.17C290.16 137.17 289.512 136.995 288.954 136.643C288.4 136.292 287.967 135.8 287.654 135.168C287.345 134.536 287.191 133.797 287.191 132.952C287.191 132.099 287.345 131.355 287.654 130.72C287.967 130.084 288.4 129.591 288.954 129.239C289.512 128.887 290.16 128.712 290.898 128.712C291.637 128.712 292.283 128.887 292.837 129.239C293.395 129.591 293.828 130.084 294.137 130.72C294.449 131.355 294.606 132.099 294.606 132.952C294.606 133.797 294.449 134.536 294.137 135.168C293.828 135.8 293.395 136.292 292.837 136.643C292.283 136.995 291.637 137.17 290.898 137.17ZM290.898 136.041C291.459 136.041 291.921 135.897 292.283 135.61C292.645 135.322 292.914 134.944 293.088 134.475C293.262 134.006 293.349 133.499 293.349 132.952C293.349 132.405 293.262 131.895 293.088 131.423C292.914 130.951 292.645 130.569 292.283 130.278C291.921 129.987 291.459 129.841 290.898 129.841C290.337 129.841 289.876 129.987 289.513 130.278C289.151 130.569 288.883 130.951 288.709 131.423C288.535 131.895 288.448 132.405 288.448 132.952C288.448 133.499 288.535 134.006 288.709 134.475C288.883 134.944 289.151 135.322 289.513 135.61C289.876 135.897 290.337 136.041 290.898 136.041ZM290.323 127.71L291.623 125.239H293.093L291.431 127.71H290.323ZM297.782 132.078V137H296.525V128.818H297.739V130.097H297.846C298.037 129.681 298.329 129.347 298.719 129.095C299.11 128.839 299.614 128.712 300.232 128.712C300.786 128.712 301.271 128.825 301.686 129.053C302.102 129.276 302.425 129.617 302.656 130.075C302.886 130.53 303.002 131.105 303.002 131.801V137H301.745V131.886C301.745 131.244 301.578 130.743 301.244 130.384C300.91 130.022 300.452 129.841 299.87 129.841C299.468 129.841 299.11 129.928 298.794 130.102C298.481 130.276 298.234 130.53 298.053 130.864C297.872 131.197 297.782 131.602 297.782 132.078Z" fill="black"/>
</g>
<path d="M385.363 40.2927C385.355 39.1778 385.99 38.4153 387.109 38.1161C390.762 37.1364 394.418 36.1649 398.07 35.1852C405.662 33.1521 413.258 31.1189 420.849 29.0816C422.919 28.5282 423.686 28.9464 424.235 31C427.24 42.1947 430.24 53.3894 433.241 64.5841C433.692 66.2607 433.179 67.183 431.519 67.6298C420.169 70.6754 408.818 73.7129 397.468 76.7462C396.017 77.1356 395.045 76.5659 394.652 75.1025C391.602 63.7233 388.556 52.3441 385.515 40.965C385.445 40.7067 385.4 40.4403 385.367 40.2927H385.363ZM398.128 72.3766C408.453 69.6056 418.664 66.8714 428.908 64.1209C426.145 53.8075 423.411 43.613 420.661 33.3406C417.857 34.0949 415.106 34.8327 412.323 35.5787C412.413 35.9354 412.479 36.2182 412.553 36.501C413.286 39.2393 414.032 41.9775 414.746 44.7239C415.192 46.4537 414.028 47.6957 412.29 47.3719C411.04 47.1383 409.794 46.9005 408.56 46.6054C407.953 46.4619 407.507 46.5193 407.035 46.9866C406.17 47.8392 405.227 48.618 404.317 49.4215C402.801 50.7578 401.165 50.2577 400.636 48.2901C400.292 47.0112 399.96 45.7323 399.616 44.4533C399.161 42.7686 398.702 41.0839 398.23 39.3458C395.414 40.1042 392.684 40.8379 389.884 41.5881C392.635 51.8564 395.373 62.0755 398.132 72.3725L398.128 72.3766ZM409.995 42.6374C409.458 40.6371 408.921 38.6449 408.38 36.6363C406.256 37.2061 404.235 37.7472 402.165 38.3047C402.719 40.3665 403.243 42.3341 403.78 44.3263C404.74 43.6212 405.559 42.662 406.564 42.3874C407.576 42.1127 408.773 42.5186 409.999 42.6374H409.995Z" fill="#424242"/>
<path d="M387.319 75.0984C388.593 75.3689 389.786 75.5083 390.897 75.8772C392.885 76.5413 394.447 77.8284 395.533 79.6238C395.832 80.1198 396.099 80.1813 396.632 80.0378C408.864 76.7462 421.103 73.4833 433.335 70.1876C433.721 70.0851 434.122 69.7367 434.348 69.3924C434.983 68.4209 435.516 67.3838 436.114 66.3877C436.811 65.2236 437.971 64.8793 439.004 65.5023C440 66.1049 440.263 67.2608 439.619 68.4086C438.865 69.7531 438.066 71.073 437.324 72.4216C436.902 73.1841 436.299 73.6145 435.459 73.8399C427.601 75.9305 419.751 78.0415 411.897 80.1485C407.175 81.4151 402.452 82.6817 397.726 83.9279C397.181 84.0713 396.956 84.2722 396.923 84.8912C396.644 89.888 392.836 93.5977 387.892 93.7453C383.24 93.8846 379.128 90.3389 378.604 85.5142C378.198 81.7758 379.702 78.8122 382.842 76.7298C383.301 76.4265 383.424 76.201 383.273 75.6435C379.502 61.6368 375.759 47.6178 372.004 33.607C371.266 30.8606 368.954 29.5325 366.212 30.254C364.409 30.7295 362.613 31.2255 360.81 31.6928C359.289 32.0863 358.055 31.2746 358.002 29.8809C357.969 29.0037 358.44 28.1675 359.301 27.9298C361.72 27.2616 364.13 26.4623 366.597 26.0934C370.811 25.4703 374.578 28.0199 375.771 32.1314C376.862 35.8903 377.829 39.6901 378.846 43.4736C381.678 54.0412 384.507 64.6087 387.319 75.0984ZM392.885 84.6288C392.959 81.7922 390.688 79.4106 387.851 79.3533C385.044 79.2959 382.658 81.5463 382.584 84.3173C382.51 87.2195 384.716 89.5642 387.622 89.6789C390.417 89.7855 392.811 87.49 392.881 84.6288H392.885Z" fill="#424242"/>
<path d="M389.79 84.555C389.77 85.711 388.868 86.5513 387.675 86.5226C386.544 86.498 385.671 85.6208 385.675 84.5141C385.675 83.3827 386.614 82.4727 387.757 82.485C388.913 82.4973 389.811 83.4114 389.79 84.5591V84.555Z" fill="#424242"/>
<path d="M364.124 118.749V107.84H367.811C368.666 107.84 369.366 107.995 369.909 108.304C370.456 108.609 370.861 109.023 371.124 109.545C371.387 110.067 371.518 110.649 371.518 111.292C371.518 111.935 371.387 112.519 371.124 113.044C370.865 113.57 370.463 113.989 369.92 114.301C369.377 114.61 368.681 114.765 367.832 114.765H365.19V113.593H367.789C368.375 113.593 368.846 113.492 369.201 113.289C369.556 113.087 369.813 112.814 369.973 112.469C370.137 112.121 370.218 111.729 370.218 111.292C370.218 110.855 370.137 110.464 369.973 110.12C369.813 109.776 369.554 109.506 369.196 109.31C368.837 109.111 368.361 109.012 367.768 109.012H365.446V118.749H364.124ZM373.476 118.749V110.567H374.69V111.803H374.775C374.924 111.398 375.194 111.07 375.585 110.818C375.976 110.566 376.416 110.44 376.906 110.44C376.998 110.44 377.114 110.441 377.252 110.445C377.391 110.448 377.495 110.454 377.566 110.461V111.739C377.524 111.729 377.426 111.713 377.273 111.691C377.124 111.666 376.966 111.654 376.799 111.654C376.402 111.654 376.047 111.738 375.734 111.904C375.425 112.068 375.18 112.295 374.999 112.586C374.821 112.874 374.733 113.202 374.733 113.572V118.749H373.476ZM382.131 118.92C381.393 118.92 380.745 118.744 380.187 118.392C379.633 118.041 379.2 117.549 378.887 116.917C378.579 116.285 378.424 115.546 378.424 114.701C378.424 113.849 378.579 113.105 378.887 112.469C379.2 111.833 379.633 111.34 380.187 110.988C380.745 110.637 381.393 110.461 382.131 110.461C382.87 110.461 383.516 110.637 384.07 110.988C384.628 111.34 385.061 111.833 385.37 112.469C385.683 113.105 385.839 113.849 385.839 114.701C385.839 115.546 385.683 116.285 385.37 116.917C385.061 117.549 384.628 118.041 384.07 118.392C383.516 118.744 382.87 118.92 382.131 118.92ZM382.131 117.79C382.692 117.79 383.154 117.647 383.516 117.359C383.879 117.071 384.147 116.693 384.321 116.224C384.495 115.756 384.582 115.248 384.582 114.701C384.582 114.154 384.495 113.644 384.321 113.172C384.147 112.7 383.879 112.318 383.516 112.027C383.154 111.736 382.692 111.59 382.131 111.59C381.57 111.59 381.109 111.736 380.746 112.027C380.384 112.318 380.116 112.7 379.942 113.172C379.768 113.644 379.681 114.154 379.681 114.701C379.681 115.248 379.768 115.756 379.942 116.224C380.116 116.693 380.384 117.071 380.746 117.359C381.109 117.647 381.57 117.79 382.131 117.79ZM390.847 118.92C390.165 118.92 389.563 118.747 389.041 118.403C388.519 118.055 388.111 117.565 387.816 116.933C387.522 116.297 387.374 115.546 387.374 114.68C387.374 113.82 387.522 113.075 387.816 112.442C388.111 111.81 388.521 111.322 389.047 110.978C389.572 110.633 390.18 110.461 390.869 110.461C391.401 110.461 391.822 110.55 392.131 110.727C392.443 110.901 392.681 111.1 392.845 111.324C393.012 111.544 393.141 111.725 393.234 111.867H393.34V107.84H394.597V118.749H393.383V117.492H393.234C393.141 117.641 393.01 117.829 392.839 118.057C392.669 118.28 392.426 118.481 392.11 118.659C391.794 118.833 391.373 118.92 390.847 118.92ZM391.018 117.79C391.522 117.79 391.948 117.659 392.296 117.396C392.644 117.13 392.909 116.762 393.09 116.294C393.271 115.821 393.361 115.276 393.361 114.658C393.361 114.048 393.273 113.513 393.095 113.055C392.918 112.593 392.655 112.235 392.307 111.979C391.959 111.72 391.529 111.59 391.018 111.59C390.485 111.59 390.041 111.727 389.686 112C389.334 112.27 389.07 112.638 388.892 113.103C388.718 113.565 388.631 114.083 388.631 114.658C388.631 115.241 388.72 115.77 388.898 116.246C389.079 116.718 389.345 117.094 389.697 117.375C390.052 117.652 390.492 117.79 391.018 117.79ZM402.23 115.404V110.567H403.488V118.749H402.23V117.364H402.145C401.953 117.78 401.655 118.133 401.25 118.424C400.845 118.712 400.334 118.856 399.716 118.856C399.205 118.856 398.75 118.744 398.353 118.52C397.955 118.293 397.642 117.952 397.415 117.497C397.188 117.039 397.074 116.462 397.074 115.766V110.567H398.331V115.681C398.331 116.278 398.498 116.753 398.832 117.109C399.169 117.464 399.599 117.641 400.121 117.641C400.434 117.641 400.751 117.561 401.075 117.402C401.401 117.242 401.675 116.997 401.895 116.666C402.119 116.336 402.23 115.915 402.23 115.404ZM409.114 118.92C408.347 118.92 407.686 118.739 407.132 118.376C406.578 118.014 406.152 117.515 405.854 116.88C405.556 116.244 405.406 115.518 405.406 114.701C405.406 113.87 405.559 113.137 405.865 112.501C406.173 111.862 406.603 111.363 407.154 111.004C407.708 110.642 408.354 110.461 409.093 110.461C409.668 110.461 410.186 110.567 410.648 110.78C411.11 110.994 411.488 111.292 411.783 111.675C412.077 112.059 412.26 112.506 412.331 113.018H411.074C410.978 112.645 410.765 112.315 410.435 112.027C410.108 111.736 409.668 111.59 409.114 111.59C408.624 111.59 408.194 111.718 407.825 111.974C407.459 112.226 407.173 112.583 406.967 113.044C406.765 113.502 406.664 114.04 406.664 114.658C406.664 115.29 406.763 115.841 406.962 116.31C407.164 116.778 407.448 117.142 407.814 117.402C408.183 117.661 408.617 117.79 409.114 117.79C409.441 117.79 409.737 117.734 410.003 117.62C410.27 117.506 410.495 117.343 410.68 117.13C410.865 116.917 410.996 116.661 411.074 116.363H412.331C412.26 116.846 412.084 117.281 411.804 117.668C411.527 118.051 411.159 118.357 410.701 118.584C410.247 118.808 409.718 118.92 409.114 118.92ZM417.727 110.567V111.633H413.487V110.567H417.727ZM414.723 108.607H415.98V116.405C415.98 116.761 416.031 117.027 416.134 117.204C416.241 117.378 416.376 117.496 416.539 117.556C416.706 117.613 416.882 117.641 417.067 117.641C417.205 117.641 417.319 117.634 417.408 117.62C417.496 117.602 417.567 117.588 417.621 117.577L417.876 118.707C417.791 118.739 417.672 118.771 417.519 118.803C417.367 118.838 417.173 118.856 416.939 118.856C416.584 118.856 416.236 118.779 415.895 118.627C415.557 118.474 415.277 118.241 415.053 117.929C414.833 117.616 414.723 117.222 414.723 116.746V108.607ZM422.854 118.92C422.115 118.92 421.467 118.744 420.91 118.392C420.356 118.041 419.923 117.549 419.61 116.917C419.301 116.285 419.147 115.546 419.147 114.701C419.147 113.849 419.301 113.105 419.61 112.469C419.923 111.833 420.356 111.34 420.91 110.988C421.467 110.637 422.115 110.461 422.854 110.461C423.593 110.461 424.239 110.637 424.793 110.988C425.351 111.34 425.784 111.833 426.093 112.469C426.405 113.105 426.561 113.849 426.561 114.701C426.561 115.546 426.405 116.285 426.093 116.917C425.784 117.549 425.351 118.041 424.793 118.392C424.239 118.744 423.593 118.92 422.854 118.92ZM422.854 117.79C423.415 117.79 423.877 117.647 424.239 117.359C424.601 117.071 424.869 116.693 425.043 116.224C425.217 115.756 425.304 115.248 425.304 114.701C425.304 114.154 425.217 113.644 425.043 113.172C424.869 112.7 424.601 112.318 424.239 112.027C423.877 111.736 423.415 111.59 422.854 111.59C422.293 111.59 421.831 111.736 421.469 112.027C421.107 112.318 420.839 112.7 420.665 113.172C420.491 113.644 420.404 114.154 420.404 114.701C420.404 115.248 420.491 115.756 420.665 116.224C420.839 116.693 421.107 117.071 421.469 117.359C421.831 117.647 422.293 117.79 422.854 117.79ZM434.276 112.4L433.147 112.719C433.076 112.531 432.971 112.348 432.832 112.171C432.697 111.99 432.513 111.841 432.278 111.723C432.044 111.606 431.744 111.548 431.378 111.548C430.877 111.548 430.46 111.663 430.126 111.894C429.796 112.121 429.631 112.41 429.631 112.762C429.631 113.075 429.745 113.321 429.972 113.502C430.199 113.684 430.554 113.834 431.037 113.955L432.252 114.253C432.983 114.431 433.528 114.703 433.887 115.068C434.246 115.431 434.425 115.898 434.425 116.469C434.425 116.938 434.29 117.357 434.02 117.727C433.754 118.096 433.381 118.387 432.902 118.6C432.422 118.813 431.865 118.92 431.229 118.92C430.394 118.92 429.704 118.739 429.157 118.376C428.61 118.014 428.264 117.485 428.118 116.789L429.311 116.491C429.425 116.931 429.64 117.261 429.956 117.481C430.276 117.702 430.693 117.812 431.208 117.812C431.794 117.812 432.259 117.687 432.603 117.439C432.951 117.187 433.125 116.885 433.125 116.533C433.125 116.249 433.026 116.011 432.827 115.82C432.628 115.624 432.323 115.479 431.911 115.383L430.547 115.063C429.798 114.886 429.247 114.61 428.896 114.238C428.548 113.861 428.374 113.391 428.374 112.826C428.374 112.364 428.503 111.956 428.763 111.601C429.026 111.246 429.382 110.967 429.833 110.765C430.288 110.562 430.803 110.461 431.378 110.461C432.188 110.461 432.823 110.638 433.285 110.994C433.75 111.349 434.081 111.817 434.276 112.4ZM385.586 128.567L382.56 136.749H381.282L378.256 128.567H379.62L381.878 135.087H381.964L384.222 128.567H385.586ZM389.404 136.941C388.885 136.941 388.415 136.843 387.992 136.648C387.57 136.449 387.234 136.163 386.985 135.79C386.737 135.414 386.613 134.959 386.613 134.427C386.613 133.958 386.705 133.578 386.889 133.287C387.074 132.992 387.321 132.761 387.63 132.594C387.939 132.428 388.28 132.303 388.653 132.222C389.029 132.136 389.407 132.069 389.787 132.019C390.284 131.955 390.687 131.907 390.996 131.875C391.309 131.84 391.536 131.781 391.678 131.7C391.824 131.618 391.897 131.476 391.897 131.273V131.231C391.897 130.705 391.753 130.297 391.465 130.006C391.181 129.714 390.75 129.569 390.171 129.569C389.571 129.569 389.1 129.7 388.759 129.963C388.418 130.226 388.179 130.506 388.04 130.805L386.847 130.378C387.06 129.881 387.344 129.494 387.699 129.217C388.058 128.937 388.448 128.741 388.871 128.631C389.297 128.518 389.716 128.461 390.128 128.461C390.391 128.461 390.693 128.493 391.034 128.557C391.378 128.617 391.71 128.743 392.03 128.935C392.353 129.127 392.621 129.416 392.834 129.803C393.047 130.19 393.154 130.709 393.154 131.359V136.749H391.897V135.641H391.833C391.747 135.819 391.605 136.009 391.407 136.211C391.208 136.414 390.943 136.586 390.613 136.728C390.283 136.87 389.88 136.941 389.404 136.941ZM389.595 135.812C390.093 135.812 390.512 135.714 390.853 135.519C391.197 135.323 391.456 135.071 391.63 134.762C391.808 134.453 391.897 134.128 391.897 133.788V132.637C391.843 132.701 391.726 132.76 391.545 132.813C391.367 132.863 391.162 132.907 390.927 132.946C390.696 132.981 390.471 133.013 390.251 133.042C390.034 133.067 389.858 133.088 389.723 133.106C389.397 133.148 389.091 133.218 388.807 133.314C388.527 133.406 388.299 133.546 388.125 133.734C387.955 133.919 387.87 134.171 387.87 134.491C387.87 134.928 388.031 135.258 388.354 135.481C388.681 135.702 389.095 135.812 389.595 135.812ZM395.448 136.749V128.567H396.663V129.803H396.748C396.897 129.398 397.167 129.07 397.558 128.818C397.948 128.566 398.389 128.44 398.879 128.44C398.971 128.44 399.086 128.441 399.225 128.445C399.363 128.448 399.468 128.454 399.539 128.461V129.739C399.496 129.729 399.399 129.713 399.246 129.691C399.097 129.666 398.939 129.654 398.772 129.654C398.374 129.654 398.019 129.738 397.707 129.904C397.398 130.068 397.153 130.295 396.972 130.586C396.794 130.874 396.705 131.202 396.705 131.572V136.749H395.448ZM401.029 136.749V128.567H402.286V136.749H401.029ZM401.668 127.204C401.423 127.204 401.212 127.12 401.035 126.953C400.861 126.787 400.774 126.586 400.774 126.352C400.774 126.117 400.861 125.916 401.035 125.75C401.212 125.583 401.423 125.499 401.668 125.499C401.913 125.499 402.123 125.583 402.297 125.75C402.475 125.916 402.563 126.117 402.563 126.352C402.563 126.586 402.475 126.787 402.297 126.953C402.123 127.12 401.913 127.204 401.668 127.204ZM407.913 136.92C407.174 136.92 406.526 136.744 405.968 136.392C405.414 136.041 404.981 135.549 404.669 134.917C404.36 134.285 404.205 133.546 404.205 132.701C404.205 131.849 404.36 131.105 404.669 130.469C404.981 129.833 405.414 129.34 405.968 128.988C406.526 128.637 407.174 128.461 407.913 128.461C408.651 128.461 409.298 128.637 409.852 128.988C410.409 129.34 410.842 129.833 411.151 130.469C411.464 131.105 411.62 131.849 411.62 132.701C411.62 133.546 411.464 134.285 411.151 134.917C410.842 135.549 410.409 136.041 409.852 136.392C409.298 136.744 408.651 136.92 407.913 136.92ZM407.913 135.79C408.474 135.79 408.935 135.647 409.298 135.359C409.66 135.071 409.928 134.693 410.102 134.224C410.276 133.756 410.363 133.248 410.363 132.701C410.363 132.154 410.276 131.644 410.102 131.172C409.928 130.7 409.66 130.318 409.298 130.027C408.935 129.736 408.474 129.59 407.913 129.59C407.352 129.59 406.89 129.736 406.528 130.027C406.166 130.318 405.897 130.7 405.723 131.172C405.549 131.644 405.462 132.154 405.462 132.701C405.462 133.248 405.549 133.756 405.723 134.224C405.897 134.693 406.166 135.071 406.528 135.359C406.89 135.647 407.352 135.79 407.913 135.79ZM419.334 130.4L418.205 130.719C418.134 130.531 418.029 130.348 417.891 130.171C417.756 129.99 417.571 129.841 417.337 129.723C417.103 129.606 416.802 129.548 416.437 129.548C415.936 129.548 415.519 129.663 415.185 129.894C414.855 130.121 414.69 130.41 414.69 130.762C414.69 131.075 414.803 131.321 415.03 131.502C415.258 131.684 415.613 131.834 416.096 131.955L417.31 132.253C418.042 132.431 418.587 132.703 418.946 133.068C419.304 133.431 419.484 133.898 419.484 134.469C419.484 134.938 419.349 135.357 419.079 135.727C418.812 136.096 418.44 136.387 417.96 136.6C417.481 136.813 416.923 136.92 416.288 136.92C415.453 136.92 414.762 136.739 414.215 136.376C413.669 136.014 413.322 135.485 413.177 134.789L414.37 134.491C414.484 134.931 414.698 135.261 415.014 135.481C415.334 135.702 415.751 135.812 416.266 135.812C416.852 135.812 417.317 135.687 417.662 135.439C418.01 135.187 418.184 134.885 418.184 134.533C418.184 134.249 418.084 134.011 417.886 133.82C417.687 133.624 417.381 133.479 416.969 133.383L415.606 133.063C414.856 132.886 414.306 132.61 413.954 132.238C413.606 131.861 413.432 131.391 413.432 130.826C413.432 130.364 413.562 129.956 413.821 129.601C414.084 129.246 414.441 128.967 414.892 128.765C415.347 128.562 415.861 128.461 416.437 128.461C417.246 128.461 417.882 128.638 418.344 128.994C418.809 129.349 419.139 129.817 419.334 130.4Z" fill="black"/>
<defs>
<clipPath id="clip0_40_18">
<rect width="153" height="151" fill="white" transform="translate(161)"/>
</clipPath>
</defs>
</svg>
