<svg width="153" height="151" viewBox="0 0 153 151" fill="none" xmlns="http://www.w3.org/2000/svg">
<path d="M75.3 149.5C116.335 149.5 149.6 116.235 149.6 75.2C149.6 34.1653 116.335 0.900024 75.3 0.900024C34.2652 0.900024 1 34.1653 1 75.2C1 116.235 34.2652 149.5 75.3 149.5Z" fill="#004C98"/>
<path d="M34.6279 89.5376C35.3627 89.1328 36.0755 88.6752 36.8411 88.3364C37.3823 88.0944 37.6463 87.7336 37.9323 87.2232C38.7727 85.7492 38.8035 84.3544 37.9147 82.9068C37.5979 82.392 37.7475 81.9036 38.1919 81.4944C38.9223 80.8256 39.6439 80.1436 40.4007 79.4308C39.4327 78.4672 38.5967 77.6312 37.7519 76.7952C37.0655 76.1176 37.0787 75.682 37.7915 75C39.9827 72.8968 42.4423 71.1852 45.1967 69.8872C45.4915 69.7464 45.7951 69.3856 45.8831 69.0688C48.3119 60.084 50.7495 51.1036 53.0683 42.0924C53.3411 41.0408 52.9583 39.8088 52.8307 38.6692C52.7383 37.8464 52.5623 37.0324 52.4347 36.214C52.2675 35.1624 52.5975 34.7708 53.6667 34.7664C56.5707 34.762 59.4747 34.7664 62.3787 34.7664C71.3415 34.7664 80.3043 34.7664 89.2627 34.7664C90.6487 34.7664 90.9215 35.092 90.7015 36.4736C90.4463 38.0576 90.1867 39.6372 89.9315 41.2168C89.7555 42.3168 89.5487 42.4928 88.4135 42.506C88.1143 42.506 87.8195 42.506 87.4763 42.506V72.3996H95.0883V71.4888C95.0883 68.114 95.0883 64.7392 95.0883 61.3644C95.0883 59.0632 95.4799 58.5484 97.7107 57.9676C97.7107 56.4188 97.6667 54.848 97.7371 53.2816C97.7591 52.8108 98.0011 52.2828 98.3003 51.9088C98.8371 51.2444 99.4927 50.6768 100.1 50.074C100.553 49.6208 101.068 49.48 101.548 49.9816C102.001 50.4524 101.913 51.0288 101.42 51.3544C99.5367 52.5996 99.3343 54.4212 99.5455 56.4232C99.5983 56.916 99.5543 57.4176 99.5543 57.9456C99.7259 58.0028 99.8755 58.0644 100.03 58.0952C101.477 58.3724 102.177 59.1864 102.181 60.678C102.19 64.2728 102.181 67.8676 102.181 71.4668C102.181 71.766 102.181 72.0608 102.181 72.3908C103.268 72.4436 104.302 72.382 105.288 72.5668C109.349 73.3412 111.901 76.4388 111.936 80.5792C111.962 83.8132 111.954 87.0516 111.932 90.29C111.932 90.8576 112.094 91.1524 112.622 91.4252C118.021 94.2148 120.74 100.344 119.192 106.134C117.616 112.026 112.275 115.968 106.168 115.748C99.6907 115.515 94.2567 110.2 93.8783 103.723C93.8695 103.56 93.8519 103.398 93.8343 103.156H73.9287C74.2103 103.842 74.4655 104.498 74.7515 105.14C75.0155 105.721 74.9055 106.183 74.4523 106.632C72.5823 108.48 70.7255 110.336 68.8775 112.202C68.4507 112.633 67.9755 112.778 67.4607 112.462C66.0439 111.582 64.6887 111.621 63.2191 112.422C62.6075 112.752 62.2467 113.1 61.9915 113.72C61.0499 116.012 61.4371 115.753 58.9687 115.757C56.8127 115.762 54.6523 115.744 52.4963 115.766C51.8275 115.775 51.2995 115.568 51.1763 114.899C50.8243 112.937 49.3415 112.25 47.7047 111.74C47.4319 111.652 47.0579 111.722 46.7807 111.832C43.9823 112.95 44.7083 113.073 42.5875 110.996C41.1663 109.602 39.7891 108.163 38.3503 106.786C37.7563 106.218 37.5891 105.633 38.0115 104.951C38.7903 103.688 38.7551 102.504 38.0555 101.176C37.6683 100.441 37.3163 99.9172 36.5199 99.64C35.8599 99.4068 35.2615 99.002 34.6323 98.672C34.6323 95.6272 34.6323 92.5868 34.6323 89.542L34.6279 89.5376ZM47.4495 109.562C48.1843 109.896 48.8839 110.358 49.6451 110.521C51.2291 110.864 52.1355 111.793 52.5139 113.32C52.6195 113.755 52.8571 113.927 53.3367 113.922C55.3255 113.896 57.3187 113.896 59.3075 113.922C59.7739 113.927 60.0511 113.777 60.1567 113.342C60.5219 111.806 61.4063 110.816 63.0167 110.565C63.0959 110.552 63.1751 110.512 63.2411 110.464C64.5831 109.522 65.9207 109.549 67.3155 110.385C67.5179 110.504 68.0195 110.402 68.2087 110.222C69.6651 108.827 71.0951 107.397 72.4899 105.941C72.6747 105.752 72.7759 105.25 72.6571 105.039C71.8607 103.64 71.7903 102.298 72.7495 100.951C72.8111 100.863 72.8463 100.749 72.8683 100.643C73.1279 99.1032 74.0915 98.2584 75.5567 97.902C76.0363 97.7876 76.1903 97.506 76.1859 97.0088C76.1595 95.0464 76.1595 93.084 76.1859 91.1216C76.1903 90.6376 76.0715 90.3208 75.5787 90.2152C74.0519 89.8808 73.1279 88.9612 72.8507 87.408C72.8375 87.3288 72.8111 87.2408 72.7671 87.1748C71.8255 85.8372 71.8343 84.4908 72.6571 83.0916C72.7803 82.8848 72.6835 82.3788 72.5031 82.1896C71.1083 80.7332 69.6783 79.3076 68.2263 77.9084C68.0415 77.7324 67.5751 77.6004 67.3991 77.706C65.9163 78.6168 64.4951 78.5244 63.0827 77.5828C63.0387 77.552 62.9815 77.53 62.9287 77.5212C61.3843 77.266 60.5263 76.3156 60.1919 74.8328C60.0687 74.296 59.7123 74.1992 59.2063 74.208C57.3275 74.2344 55.4443 74.2476 53.5655 74.2036C52.9319 74.1904 52.5843 74.3796 52.4259 74.9824C52.0827 76.3068 51.3699 77.2616 49.9091 77.4552C49.8035 77.4684 49.6935 77.5212 49.6055 77.5828C48.1931 78.5244 46.7719 78.6168 45.2891 77.706C45.1087 77.596 44.6379 77.7236 44.4575 77.8996C42.9879 79.3208 41.5403 80.7684 40.1191 82.238C39.9651 82.3964 39.8727 82.832 39.9739 82.9948C40.8935 84.4644 40.8319 85.8856 39.8683 87.298C39.8507 87.32 39.8375 87.3464 39.8331 87.3728C39.5823 88.9788 38.6055 89.8764 37.0655 90.2416C36.6343 90.3428 36.4627 90.598 36.4715 91.0732C36.5023 93.062 36.4935 95.0552 36.4715 97.044C36.4715 97.4532 36.5419 97.7392 36.9775 97.8448C38.5703 98.2188 39.5779 99.1692 39.8683 100.815C39.8815 100.894 39.9167 100.978 39.9607 101.044C40.8979 102.333 40.8407 103.635 40.0179 104.951C39.7627 105.356 39.8419 105.664 40.2071 106.016C41.5799 107.34 42.9351 108.686 44.2507 110.064C44.6775 110.508 45.0207 110.64 45.5927 110.336C46.1691 110.028 46.8115 109.83 47.4583 109.571L47.4495 109.562ZM101.059 74.3884C101.059 76.5136 101.059 78.5552 101.059 80.5968C101.059 81.798 100.817 82.2336 100.148 82.2336C99.4751 82.2336 99.2111 81.776 99.2111 80.6056C99.2111 78.5376 99.2111 76.4696 99.2111 74.3972H96.2719C96.2323 75.1584 96.1883 75.924 96.1487 76.6852C96.1355 76.9316 96.1487 77.1824 96.1487 77.4332C96.1487 78.7048 96.1575 79.9764 96.1355 81.248C96.1223 81.8112 95.8407 82.2116 95.2291 82.2204C94.6175 82.2292 94.3315 81.8376 94.2919 81.2744C94.2567 80.808 94.2787 80.3328 94.2787 79.8664C94.2787 78.0448 94.2787 76.2276 94.2787 74.3708H91.2207C91.2207 76.54 91.2207 78.6388 91.2207 80.7376C91.2207 81.7584 90.9435 82.2116 90.3099 82.2292C89.6587 82.2512 89.3683 81.8112 89.3683 80.786C89.3683 78.9336 89.3683 77.0812 89.3683 75.2244C89.3683 74.934 89.3375 74.6436 89.3287 74.3972H86.2707C86.2707 76.6808 86.2663 78.8632 86.2707 81.05C86.2707 81.7232 86.0551 82.2336 85.3071 82.2116C84.6075 82.1896 84.4183 81.6836 84.4227 81.0544C84.4315 79.3384 84.4227 77.6224 84.4227 75.9108C84.4227 75.396 84.4227 74.8812 84.4227 74.362H74.2719C81.8663 81.8904 84.4183 90.7916 82.0247 101.136C82.1347 101.158 82.2403 101.198 82.3459 101.198C86.0243 101.202 89.7027 101.198 93.3811 101.215C93.9223 101.215 93.9883 100.938 94.0675 100.511C95.3743 93.5592 101.904 89.0184 108.909 90.1712C109.278 90.2328 109.644 90.2856 110.009 90.3428C110.009 86.6996 110.114 83.1268 109.969 79.5716C109.881 77.4332 108.566 75.9064 106.665 74.9296C106.484 74.8372 106.273 74.7976 106.009 74.7096C106.009 75.0836 106.009 75.3608 106.009 75.6336C106.009 77.4024 106.009 79.1756 106.009 80.9444C106.009 81.8024 105.679 82.2644 105.072 82.2248C104.254 82.1676 104.152 81.5868 104.166 80.918C104.183 79.8136 104.166 78.7048 104.166 77.6004C104.166 76.5312 104.166 75.462 104.166 74.3884H101.064H101.059ZM80.5859 63.516V47.522C80.3747 47.4956 80.1855 47.456 80.0007 47.456C73.0575 47.456 66.1187 47.4604 59.1755 47.4384C58.6079 47.4384 58.4891 47.7112 58.3703 48.1424C56.7071 54.386 55.0351 60.6252 53.3719 66.8644C53.3103 67.0932 53.2663 67.3264 53.1915 67.6476C58.1283 67.1064 62.7879 67.8412 67.2583 69.808C68.5739 68.0788 69.8543 66.4156 71.1083 64.7304C71.2183 64.5808 71.2491 64.2464 71.1611 64.088C70.5627 63.0408 69.9159 62.0156 69.2779 60.964C68.7059 61.2896 68.2043 61.58 67.7027 61.8616C67.1439 62.174 66.6115 62.174 66.2815 61.558C65.9779 60.986 66.2507 60.5592 66.7743 60.2556C68.3275 59.358 69.8851 58.4604 71.4339 57.5584C71.9795 57.2372 72.5163 57.1712 72.8727 57.774C73.2159 58.3592 72.9563 58.8256 72.3975 59.1512C71.9047 59.4372 71.4207 59.7364 70.9015 60.0488C71.5659 61.14 72.1731 62.1564 72.8111 63.1596C72.9123 63.318 73.1455 63.4896 73.3171 63.494C75.7151 63.516 78.1175 63.5072 80.5903 63.5072L80.5859 63.516ZM85.5535 42.5588C85.2719 42.5412 85.0563 42.5104 84.8407 42.5104C75.1079 42.5104 65.3707 42.5148 55.6379 42.4928C55.0175 42.4928 54.8547 42.7524 54.7183 43.2672C52.5227 51.5084 50.3095 59.7496 48.1007 67.9864C48.0347 68.2328 47.9951 68.488 47.9379 68.7916C48.7827 68.5628 49.5175 68.29 50.2787 68.18C50.9739 68.0832 51.2291 67.7444 51.3963 67.1064C53.1827 60.3524 54.9955 53.6116 56.8083 46.8664C57.1207 45.696 57.2659 45.586 58.4583 45.586C65.9515 45.586 73.4447 45.586 80.9423 45.586C82.2623 45.586 82.4647 45.7928 82.4647 47.1348C82.4647 55.2352 82.4647 63.34 82.4647 71.4404V72.3996H85.5535V42.5588ZM74.7735 101.215C76.2607 101.215 77.6995 101.176 79.1295 101.233C79.8115 101.259 80.0931 101.039 80.2603 100.384C81.1975 96.648 81.3647 92.886 80.5639 89.124C76.7623 71.3128 56.2539 63.4896 41.6195 74.186C40.8979 74.714 40.2335 75.3168 39.4811 75.9372C40.1851 76.6192 40.7791 77.2 41.3775 77.772C41.4523 77.8468 41.5491 77.8996 41.7999 78.0844C42.2091 77.6092 42.6007 77.1076 43.0407 76.6588C44.5851 75.088 44.2727 75.2376 46.2043 76.0604C46.9875 76.3948 47.6299 76.3684 48.4571 76.0956C49.8827 75.6292 50.7407 74.8108 51.0795 73.372C51.2687 72.5712 51.8275 72.3248 52.6327 72.338C54.8459 72.3732 57.0591 72.3512 59.2679 72.3512C61.1467 72.3512 61.1863 72.3336 61.8419 74.0672C62.1763 74.9516 62.7175 75.4092 63.5755 75.836C64.8515 76.474 65.9559 76.4696 67.1263 75.7656C67.9271 75.2816 68.5299 75.5104 69.1591 76.166C70.8443 77.9216 72.5735 79.6332 74.3159 81.3316C74.8615 81.864 75.0683 82.3876 74.6811 83.0916C74.5227 83.382 74.4611 83.7252 74.2895 84.0024C73.8451 84.7372 74.0475 85.3884 74.2807 86.1716C74.7163 87.6192 75.5699 88.4464 76.9955 88.8028C77.7875 89.0008 78.0559 89.5464 78.0427 90.3516C78.0075 92.3976 78.0383 94.4436 78.0295 96.4896C78.0163 99.2748 78.3111 98.7468 75.7899 99.794C75.1563 100.058 74.7691 100.392 74.7647 101.211L74.7735 101.215ZM106.704 91.852C100.61 91.8608 95.7087 96.7844 95.7087 102.896C95.7087 108.959 100.69 113.922 106.757 113.909C112.816 113.896 117.784 108.902 117.77 102.843C117.757 96.7756 112.79 91.8432 106.704 91.852ZM88.7655 36.6804H54.3883C54.5511 37.6748 54.7887 38.5944 54.8239 39.5228C54.8635 40.4864 55.2815 40.6536 56.1615 40.6492C65.0363 40.6184 73.9111 40.6272 82.7859 40.6272C84.3611 40.6272 85.9363 40.6404 87.5115 40.6096C87.7491 40.6052 88.1539 40.4116 88.1891 40.2488C88.4223 39.0916 88.5763 37.9168 88.7655 36.6804ZM69.0447 70.534C70.7343 72.206 72.7011 72.7296 74.9319 72.4744C75.8603 72.3688 76.8107 72.4568 77.7523 72.4568C78.6939 72.4568 79.6135 72.4568 80.5463 72.4568V65.4036C78.1043 65.4036 75.7283 65.3948 73.3523 65.4168C73.1367 65.4168 72.8507 65.5444 72.7231 65.7116C71.4691 67.322 70.2415 68.9544 69.0447 70.5384V70.534ZM100.329 72.426C100.329 68.4132 100.338 64.4928 100.298 60.5768C100.298 60.3656 99.8843 60.0224 99.6203 59.974C99.1143 59.8772 98.5775 59.952 98.0539 59.9432C97.0595 59.9212 96.9495 60.018 96.9451 61.0036C96.9451 64.5676 96.9451 68.136 96.9451 71.7C96.9451 71.9376 96.9803 72.1752 96.9979 72.4304H100.324L100.329 72.426Z" fill="white"/>
<path d="M69.916 93.6076C70.29 100.736 64.4072 107.23 57.2308 107.617C49.6936 108.026 43.142 102.306 42.768 94.9936C42.372 87.1836 48.0656 80.8564 55.8448 80.4648C63.2236 80.0908 69.5156 85.9736 69.916 93.6076ZM68.0504 94.0608C68.0504 87.584 62.8364 82.348 56.3552 82.3304C49.896 82.3128 44.6116 87.562 44.594 94.008C44.5764 100.494 49.8696 105.804 56.3464 105.796C62.7968 105.787 68.0504 100.52 68.0548 94.0608H68.0504Z" fill="white"/>
<path d="M90.9789 85.7008C92.6069 85.7008 94.2393 85.7096 95.8673 85.7008C96.5229 85.6964 97.0641 85.8548 97.0641 86.6204C97.0641 87.3772 96.5229 87.5532 95.8673 87.5532C92.5541 87.5488 89.2409 87.5488 85.9277 87.5532C85.2589 87.5532 84.7485 87.3244 84.7705 86.5808C84.7925 85.8768 85.3029 85.6964 85.9277 85.7008C87.6129 85.7096 89.2981 85.7008 90.9789 85.7008Z" fill="white"/>
<path d="M90.9569 89.652C92.5849 89.652 94.2129 89.6564 95.8453 89.652C96.4833 89.652 97.0289 89.7664 97.0685 90.5496C97.0993 91.1788 96.6681 91.5 95.8057 91.5044C92.5497 91.5088 89.2893 91.5088 86.0333 91.5044C85.1753 91.5044 84.7265 91.17 84.7617 90.5496C84.8101 89.7796 85.3469 89.6476 85.9893 89.652C87.6481 89.6608 89.3025 89.652 90.9613 89.652H90.9569Z" fill="white"/>
<path d="M106.845 111.709C102.106 111.837 98.0188 107.912 97.8868 103.107C97.7548 98.2716 101.622 94.1708 106.44 94.03C111.399 93.8892 115.474 97.7964 115.57 102.786C115.663 107.573 111.747 111.573 106.841 111.705L106.845 111.709ZM113.696 102.83C113.67 98.9756 110.541 95.8604 106.709 95.8736C102.894 95.8868 99.7348 99.046 99.7304 102.861C99.7304 106.724 102.907 109.87 106.779 109.835C110.642 109.8 113.718 106.684 113.692 102.83H113.696Z" fill="white"/>
<path d="M63.5801 94.0256C63.5977 98.0032 60.3725 101.281 56.3993 101.316C52.3909 101.352 49.0865 98.0824 49.0733 94.0828C49.0601 90.07 52.3381 86.7876 56.3465 86.7964C60.3373 86.8052 63.5625 90.0304 63.5845 94.0256H63.5801ZM56.3553 88.6664C53.3897 88.6488 50.9565 91.0292 50.9169 93.986C50.8773 96.9516 53.3281 99.4464 56.3025 99.4684C59.2461 99.4904 61.6837 97.0792 61.7145 94.1224C61.7453 91.0952 59.3781 88.684 56.3553 88.6708V88.6664Z" fill="white"/>
<path d="M57.3717 84.724C57.0417 84.9704 56.7425 85.362 56.3817 85.4324C55.8229 85.5424 55.4313 85.1464 55.4181 84.5744C55.4049 84.0024 55.7789 83.5888 56.3421 83.6724C56.7073 83.7296 57.0241 84.1036 57.3629 84.3368C57.3629 84.4644 57.3673 84.592 57.3717 84.7196V84.724Z" fill="white"/>
<path d="M49.4121 88.376C49.1789 88.0416 48.8093 87.7292 48.7433 87.3596C48.6377 86.7832 49.0865 86.3564 49.6189 86.4576C49.9665 86.5236 50.4549 86.9944 50.4769 87.3112C50.4989 87.65 50.0501 88.024 49.8081 88.3804C49.6761 88.3804 49.5441 88.3804 49.4077 88.376H49.4121Z" fill="white"/>
<path d="M47.1372 93.128C47.2912 93.3612 47.6564 93.6824 47.7136 94.0476C47.8016 94.6284 47.366 94.9716 46.8028 94.9584C46.2792 94.9452 45.9272 94.6108 45.9272 94.0608C45.9272 93.4712 46.2836 93.1764 47.1372 93.128Z" fill="white"/>
<path d="M62.8892 88.3848C62.6428 88.0592 62.26 87.7644 62.1764 87.3992C62.0488 86.8316 62.4492 86.4488 63.0168 86.4268C63.5932 86.4048 64.0068 86.7876 63.932 87.342C63.8836 87.7072 63.4964 88.0328 63.2632 88.3716C63.1356 88.3716 63.0124 88.376 62.8848 88.3804L62.8892 88.3848Z" fill="white"/>
<path d="M66.8712 94.2544C66.5104 94.4964 66.132 94.9408 65.7888 94.9188C65.4764 94.8968 65.0144 94.3996 64.9484 94.0476C64.8516 93.5064 65.2828 93.0708 65.8592 93.1852C66.2244 93.2556 66.5324 93.6296 66.8668 93.8672C66.8668 93.9948 66.8668 94.1268 66.8668 94.2544H66.8712Z" fill="white"/>
<path d="M62.876 101.814C62.634 101.484 62.2512 101.184 62.1764 100.819C62.0576 100.252 62.4536 99.8732 63.03 99.86C63.6108 99.8468 64.0112 100.238 63.932 100.784C63.8792 101.149 63.492 101.466 63.25 101.809H62.8716L62.876 101.814Z" fill="white"/>
<path d="M49.3989 101.805C49.1701 101.466 48.8049 101.145 48.7433 100.78C48.6465 100.203 49.0909 99.7764 49.6321 99.8864C49.9797 99.9568 50.4637 100.432 50.4813 100.749C50.4989 101.092 50.0457 101.457 49.7993 101.814C49.6673 101.814 49.5353 101.809 49.3989 101.805Z" fill="white"/>
<path d="M56.5443 102.509C56.7731 102.848 57.1383 103.164 57.1999 103.534C57.2967 104.106 56.8611 104.537 56.3155 104.427C55.9679 104.357 55.4795 103.882 55.4619 103.569C55.4443 103.226 55.8975 102.856 56.1439 102.5C56.2759 102.5 56.4079 102.504 56.5399 102.509H56.5443Z" fill="white"/>
<path d="M110.493 102.9C110.48 104.995 108.764 106.667 106.652 106.636C104.592 106.61 102.956 104.92 102.969 102.834C102.982 100.753 104.632 99.1076 106.718 99.1032C108.83 99.0988 110.506 100.784 110.493 102.9ZM104.826 102.852C104.821 103.908 105.644 104.766 106.691 104.788C107.747 104.81 108.662 103.899 108.649 102.843C108.636 101.796 107.782 100.964 106.726 100.969C105.662 100.969 104.834 101.792 104.83 102.856L104.826 102.852Z" fill="white"/>
<path d="M106.515 98.5224C106.286 98.1836 105.921 97.8668 105.855 97.4972C105.754 96.912 106.194 96.5732 106.753 96.5776C107.276 96.5776 107.703 96.9384 107.615 97.4576C107.549 97.8448 107.158 98.1748 106.911 98.5312L106.515 98.518V98.5224Z" fill="white"/>
<path d="M103.136 98.0252C103.369 98.3684 103.752 98.6852 103.805 99.0548C103.888 99.618 103.475 99.992 102.898 99.9744C102.326 99.9568 101.922 99.5828 102.045 99.0108C102.124 98.6456 102.511 98.3464 102.758 98.0164C102.885 98.0164 103.008 98.0208 103.136 98.0252Z" fill="white"/>
<path d="M101.499 101.822C101.75 102.148 102.137 102.443 102.216 102.804C102.34 103.367 101.948 103.754 101.376 103.78C100.795 103.802 100.39 103.42 100.461 102.87C100.509 102.504 100.888 102.179 101.121 101.84L101.504 101.827L101.499 101.822Z" fill="white"/>
<path d="M109.494 106.46C109.833 106.231 110.15 105.866 110.515 105.804C111.091 105.708 111.518 106.148 111.412 106.689C111.346 107.036 110.867 107.52 110.55 107.542C110.211 107.564 109.842 107.107 109.485 106.86C109.485 106.728 109.485 106.592 109.49 106.46H109.494Z" fill="white"/>
<path d="M113.142 103.085C112.803 103.323 112.482 103.706 112.116 103.758C111.558 103.838 111.179 103.415 111.197 102.848C111.214 102.284 111.588 101.871 112.165 101.998C112.53 102.078 112.825 102.46 113.15 102.707C113.15 102.83 113.146 102.958 113.142 103.081V103.085Z" fill="white"/>
<path d="M103.11 105.637C103.352 105.972 103.739 106.28 103.809 106.645C103.915 107.212 103.488 107.586 102.925 107.586C102.362 107.586 101.935 107.221 102.049 106.645C102.12 106.28 102.498 105.972 102.736 105.637C102.859 105.637 102.986 105.637 103.11 105.637Z" fill="white"/>
<path d="M106.524 109.289C106.291 108.95 105.921 108.642 105.855 108.273C105.75 107.692 106.198 107.27 106.731 107.366C107.078 107.428 107.567 107.903 107.589 108.22C107.615 108.559 107.162 108.933 106.92 109.294C106.788 109.294 106.656 109.294 106.524 109.294V109.289Z" fill="white"/>
<path d="M109.494 98.87C109.828 98.6324 110.136 98.2584 110.506 98.188C111.082 98.078 111.443 98.5004 111.447 99.0636C111.447 99.6356 111.06 100.04 110.501 99.9436C110.136 99.882 109.828 99.4904 109.494 99.244C109.494 99.1164 109.494 98.9932 109.494 98.8656V98.87Z" fill="white"/>
</svg>
