<svg width="153" height="151" viewBox="0 0 153 151" fill="none" xmlns="http://www.w3.org/2000/svg">
<g clip-path="url(#clip0_29_259)">
<path d="M102.558 84.0987H49.4241C49.4241 85.8575 49.4241 87.5827 49.4241 89.308C49.4241 90.6748 49.0958 90.9964 47.719 90.9964C46.5163 90.9964 45.3137 90.9964 44.111 90.9964C42.8447 90.9964 42.4963 90.6446 42.4963 89.3616C42.4963 71.6769 42.4963 53.9923 42.4963 36.3076C42.4963 32.7231 42.4963 29.1386 42.4963 25.5508C42.4963 24.3749 42.8682 24.0064 44.0507 23.9997C45.3003 23.9997 46.5532 23.9997 47.8027 23.9997C49.0288 23.9997 49.4074 24.3682 49.4074 25.5809C49.4074 28.7098 49.4074 31.8354 49.4074 34.9643C49.4074 35.1284 49.4208 35.2926 49.4308 35.5036H51.5916C51.7892 34.0531 51.9031 32.6159 52.1912 31.2156C52.5832 29.3095 53.3805 27.5641 54.697 26.0935C56.9281 23.6011 60.1173 23.4972 62.4087 25.9293C63.2027 26.7735 63.7923 27.812 64.4891 28.7802C64.5427 28.6864 64.6231 28.4921 64.7437 28.3313C65.474 27.3564 66.0937 26.2576 66.9781 25.4503C68.9044 23.6882 71.5241 23.7049 73.4537 25.467C74.2878 26.2308 74.8808 27.2559 75.5709 28.1738C75.7216 28.3748 75.8121 28.6194 75.9494 28.874C78.9577 22.2108 84.9542 23.0282 87.5237 28.9041C87.6476 28.683 87.728 28.4921 87.8486 28.3313C88.5622 27.3732 89.1618 26.2911 90.0261 25.4938C91.9926 23.6748 94.619 23.7217 96.629 25.4938C98.6021 27.2325 99.4932 29.5507 99.9421 32.0598C100.143 33.1854 100.2 34.3378 100.324 35.5137H102.555V34.7532C102.555 31.6746 102.555 28.5926 102.555 25.5139C102.555 24.3816 102.94 24.0031 104.069 23.9997C105.393 23.9964 106.716 23.993 108.039 23.9997C109.071 24.0031 109.48 24.4084 109.48 25.4436C109.483 31.1687 109.48 36.8972 109.48 42.6224C109.48 58.1664 109.48 73.7104 109.48 89.251C109.48 90.6748 109.168 90.9897 107.751 90.9897C106.475 90.9897 105.202 90.9964 103.925 90.9897C102.981 90.983 102.558 90.5609 102.552 89.6229C102.542 87.7971 102.552 85.9747 102.552 84.0954L102.558 84.0987ZM44.8581 42.5152V49.3592H107.138V42.5152H44.8581ZM107.128 81.7269V74.8829H44.8447V81.7269H107.128ZM87.4868 61.1177C88.1468 60.1831 88.7062 59.1848 89.4566 58.364C91.7547 55.8482 94.9908 55.9185 97.2688 58.4545C98.6055 59.9452 99.3927 61.7174 99.788 63.647C100.069 65.0238 100.18 66.4375 100.371 67.8479H102.505V51.7779H49.4476V67.8512H51.7423C51.7423 67.4492 51.7256 67.0941 51.7423 66.739C51.8897 64.0322 52.486 61.4561 54.084 59.2049C54.9684 57.9587 56.0806 56.9704 57.6249 56.6455C59.9364 56.1564 61.6416 57.2083 63.005 58.9402C63.5477 59.627 63.9531 60.4209 64.4522 61.2115C65.6884 58.8062 67.159 56.5483 70.2075 56.5517C73.246 56.555 74.7133 58.8096 75.9628 61.2383C78.8237 54.9102 84.7465 55.0341 87.4801 61.1211L87.4868 61.1177ZM44.8346 40.1199H107.145V37.9022H44.8346V40.1199ZM44.8346 72.4642H107.121V70.2398H44.838V72.4642H44.8346ZM63.3333 67.8613C63.263 66.9635 63.2429 66.1226 63.1189 65.2985C62.8275 63.3522 62.2781 61.4896 60.9213 59.9854C59.5076 58.421 57.7623 58.4143 56.3955 60.0189C54.4826 62.2668 54.094 64.9937 54.0404 67.8613H63.3333ZM74.8875 67.8646C74.8138 66.9467 74.797 66.1025 74.6664 65.2784C74.3515 63.2617 73.7887 61.3254 72.308 59.8179C71.0149 58.5014 69.4504 58.4511 68.1841 59.7811C66.0334 62.039 65.6649 64.8898 65.5845 67.868H74.8875V67.8646ZM86.4416 67.8646C86.3646 66.9434 86.3478 66.0992 86.2205 65.2717C85.9157 63.3019 85.3596 61.4159 83.9559 59.9151C82.5891 58.4545 80.8806 58.4243 79.5909 59.9519C78.9108 60.7593 78.3882 61.7442 77.9829 62.7291C77.3129 64.3572 77.1085 66.0891 77.1688 67.8646H86.4416ZM97.9422 67.8579C97.9355 65.1042 97.5201 62.5013 95.8283 60.2836C94.3275 58.3138 92.3008 58.3573 90.7799 60.3271C89.7883 61.6102 89.2523 63.1009 88.9876 64.6788C88.8134 65.7273 88.7498 66.7926 88.6359 67.8579H97.9422ZM54.0438 35.5036H63.2898C63.2596 32.8437 62.8911 30.3145 61.2999 28.1571C60.8376 27.5306 60.1408 26.9846 59.4339 26.6529C58.3184 26.1337 57.0186 26.7333 56.0571 28.07C54.4726 30.2709 54.0572 32.8002 54.0404 35.5036H54.0438ZM74.921 35.5204C74.787 34.3546 74.73 33.2256 74.5123 32.1335C74.1572 30.3446 73.5475 28.6495 72.174 27.3531C70.9713 26.2174 69.6146 26.2007 68.3583 27.276C68.1774 27.4301 68.0032 27.6043 67.8558 27.7919C66.0602 30.0599 65.6582 32.7198 65.6046 35.5539C68.5895 35.5539 71.4738 35.5539 74.3582 35.5539C74.4955 35.5539 74.6362 35.5405 74.921 35.5237V35.5204ZM86.4316 35.5137C86.3612 34.636 86.3411 33.8186 86.2239 33.0179C85.9425 31.0917 85.4065 29.2492 84.1033 27.7383C82.6528 26.0566 80.8438 26.0533 79.4334 27.7685C77.5943 30.0063 77.2157 32.693 77.1554 35.5137H86.4316ZM97.979 35.5304C97.912 34.6561 97.8953 33.842 97.778 33.0414C97.4866 31.0414 96.9338 29.1286 95.5235 27.5976C94.1433 26.0968 92.3812 26.0633 91.1182 27.6613C90.3611 28.616 89.8017 29.7785 89.3662 30.9309C88.8134 32.3881 88.6694 33.9459 88.733 35.5338H97.979V35.5304ZM47.0657 67.8613V51.7813H44.8413V67.8613H47.0657ZM104.92 51.7545V67.8579H107.141V51.7545H104.92ZM44.8447 26.3481V35.5036H47.0624V26.3481H44.8447ZM104.92 26.3481V35.4969H107.145V26.3447H104.92V26.3481ZM47.0657 88.6547V84.1255H44.8413V88.6547H47.0624H47.0657ZM104.92 84.0987V88.6279H107.141V84.0987H104.92Z" fill="#424242"/>
</g>
<path d="M35.4201 117V108.273H36.4769V112.159H41.1303V108.273H42.1871V117H41.1303V113.097H36.4769V117H35.4201ZM48.2915 114.324V110.455H49.2972V117H48.2915V115.892H48.2234C48.07 116.224 47.8313 116.507 47.5075 116.74C47.1836 116.97 46.7745 117.085 46.2802 117.085C45.8711 117.085 45.5075 116.996 45.1893 116.817C44.8711 116.635 44.6211 116.362 44.4393 115.999C44.2575 115.632 44.1665 115.17 44.1665 114.614V110.455H45.1722V114.545C45.1722 115.023 45.3058 115.403 45.5728 115.688C45.8427 115.972 46.1864 116.114 46.604 116.114C46.854 116.114 47.1083 116.05 47.3668 115.922C47.6282 115.794 47.8469 115.598 48.0231 115.334C48.2021 115.07 48.2915 114.733 48.2915 114.324ZM53.8835 117.136C53.2528 117.136 52.7088 116.997 52.2514 116.719C51.7969 116.438 51.446 116.045 51.1989 115.543C50.9545 115.037 50.8324 114.449 50.8324 113.778C50.8324 113.108 50.9545 112.517 51.1989 112.006C51.446 111.491 51.7898 111.091 52.2301 110.804C52.6733 110.514 53.1903 110.369 53.7812 110.369C54.1222 110.369 54.4588 110.426 54.7912 110.54C55.1236 110.653 55.4261 110.838 55.6989 111.094C55.9716 111.347 56.1889 111.682 56.3509 112.099C56.5128 112.517 56.5938 113.031 56.5938 113.642V114.068H51.5483V113.199H55.571C55.571 112.83 55.4972 112.5 55.3494 112.21C55.2045 111.92 54.9972 111.692 54.7273 111.524C54.4602 111.357 54.1449 111.273 53.7812 111.273C53.3807 111.273 53.0341 111.372 52.7415 111.571C52.4517 111.767 52.2287 112.023 52.0724 112.338C51.9162 112.653 51.8381 112.991 51.8381 113.352V113.932C51.8381 114.426 51.9233 114.845 52.0938 115.189C52.267 115.53 52.5071 115.79 52.8139 115.969C53.1207 116.145 53.4773 116.233 53.8835 116.233C54.1477 116.233 54.3864 116.196 54.5994 116.122C54.8153 116.045 55.0014 115.932 55.1577 115.781C55.3139 115.628 55.4347 115.437 55.5199 115.21L56.4915 115.483C56.3892 115.812 56.2173 116.102 55.9759 116.352C55.7344 116.599 55.4361 116.793 55.081 116.932C54.7259 117.068 54.3267 117.136 53.8835 117.136ZM63.2766 110.455L60.8562 117H59.8335L57.413 110.455H58.5039L60.3107 115.67H60.3789L62.1857 110.455H63.2766ZM67.0288 117.136C66.4379 117.136 65.9194 116.996 65.4734 116.714C65.0302 116.433 64.6836 116.04 64.4336 115.534C64.1864 115.028 64.0629 114.437 64.0629 113.761C64.0629 113.08 64.1864 112.484 64.4336 111.976C64.6836 111.467 65.0302 111.072 65.4734 110.791C65.9194 110.51 66.4379 110.369 67.0288 110.369C67.6197 110.369 68.1367 110.51 68.5799 110.791C69.0259 111.072 69.3725 111.467 69.6197 111.976C69.8697 112.484 69.9947 113.08 69.9947 113.761C69.9947 114.437 69.8697 115.028 69.6197 115.534C69.3725 116.04 69.0259 116.433 68.5799 116.714C68.1367 116.996 67.6197 117.136 67.0288 117.136ZM67.0288 116.233C67.4776 116.233 67.8469 116.118 68.1367 115.888C68.4265 115.658 68.641 115.355 68.7802 114.98C68.9194 114.605 68.989 114.199 68.989 113.761C68.989 113.324 68.9194 112.916 68.7802 112.538C68.641 112.161 68.4265 111.855 68.1367 111.622C67.8469 111.389 67.4776 111.273 67.0288 111.273C66.5799 111.273 66.2106 111.389 65.9208 111.622C65.631 111.855 65.4165 112.161 65.2773 112.538C65.1381 112.916 65.0685 113.324 65.0685 113.761C65.0685 114.199 65.1381 114.605 65.2773 114.98C65.4165 115.355 65.631 115.658 65.9208 115.888C66.2106 116.118 66.5799 116.233 67.0288 116.233ZM76.1662 111.92L75.2628 112.176C75.206 112.026 75.1222 111.879 75.0114 111.737C74.9034 111.592 74.7557 111.473 74.5682 111.379C74.3807 111.286 74.1406 111.239 73.848 111.239C73.4474 111.239 73.1136 111.331 72.8466 111.516C72.5824 111.697 72.4503 111.929 72.4503 112.21C72.4503 112.46 72.5412 112.658 72.723 112.803C72.9048 112.947 73.1889 113.068 73.5753 113.165L74.5469 113.403C75.1321 113.545 75.5682 113.763 75.8551 114.055C76.142 114.345 76.2855 114.719 76.2855 115.176C76.2855 115.551 76.1776 115.886 75.9616 116.182C75.7486 116.477 75.4503 116.71 75.0668 116.881C74.6832 117.051 74.2372 117.136 73.7287 117.136C73.0611 117.136 72.5085 116.991 72.071 116.702C71.6335 116.412 71.3565 115.989 71.2401 115.432L72.1946 115.193C72.2855 115.545 72.4574 115.81 72.7102 115.986C72.9659 116.162 73.2997 116.25 73.7116 116.25C74.1804 116.25 74.5526 116.151 74.8281 115.952C75.1065 115.75 75.2457 115.509 75.2457 115.227C75.2457 115 75.1662 114.81 75.0071 114.656C74.848 114.5 74.6037 114.384 74.2741 114.307L73.1832 114.051C72.5838 113.909 72.1435 113.689 71.8622 113.391C71.5838 113.089 71.4446 112.713 71.4446 112.261C71.4446 111.892 71.5483 111.565 71.7557 111.281C71.9659 110.997 72.2514 110.774 72.6122 110.612C72.9759 110.45 73.3878 110.369 73.848 110.369C74.4957 110.369 75.0043 110.511 75.3736 110.795C75.7457 111.08 76.0099 111.455 76.1662 111.92ZM81.8221 119.455C81.6516 119.455 81.4996 119.44 81.3661 119.412C81.2326 119.386 81.1403 119.361 81.0891 119.335L81.3448 118.449C81.5891 118.511 81.805 118.534 81.9925 118.517C82.18 118.5 82.3462 118.416 82.4911 118.266C82.6388 118.118 82.7738 117.878 82.896 117.545L83.0835 117.034L80.663 110.455H81.7539L83.5607 115.67H83.6289L85.4357 110.455H86.5266L83.7482 117.955C83.6232 118.293 83.4684 118.572 83.2837 118.794C83.0991 119.018 82.8846 119.185 82.6403 119.293C82.3988 119.401 82.1261 119.455 81.8221 119.455ZM91.229 119.455V110.455H92.2006V111.494H92.32C92.3938 111.381 92.4961 111.236 92.6268 111.06C92.7603 110.881 92.9506 110.722 93.1978 110.582C93.4478 110.44 93.7859 110.369 94.212 110.369C94.7631 110.369 95.2489 110.507 95.6694 110.783C96.0898 111.058 96.418 111.449 96.6538 111.955C96.8896 112.46 97.0075 113.057 97.0075 113.744C97.0075 114.438 96.8896 115.038 96.6538 115.547C96.418 116.053 96.0913 116.445 95.6737 116.723C95.256 116.999 94.7745 117.136 94.229 117.136C93.8086 117.136 93.4719 117.067 93.2191 116.928C92.9663 116.786 92.7717 116.625 92.6353 116.446C92.4989 116.264 92.3938 116.114 92.32 115.994H92.2347V119.455H91.229ZM92.2177 113.727C92.2177 114.222 92.2901 114.658 92.435 115.036C92.5799 115.411 92.7915 115.705 93.07 115.918C93.3484 116.128 93.6893 116.233 94.0927 116.233C94.5131 116.233 94.864 116.122 95.1452 115.901C95.4293 115.676 95.6424 115.375 95.7844 114.997C95.9293 114.616 96.0018 114.193 96.0018 113.727C96.0018 113.267 95.9308 112.852 95.7887 112.483C95.6495 112.111 95.4379 111.817 95.1538 111.601C94.8725 111.382 94.5188 111.273 94.0927 111.273C93.6836 111.273 93.3398 111.376 93.0614 111.584C92.783 111.788 92.5728 112.075 92.4308 112.445C92.2887 112.811 92.2177 113.239 92.2177 113.727ZM101.201 117.136C100.61 117.136 100.091 116.996 99.6452 116.714C99.2021 116.433 98.8555 116.04 98.6055 115.534C98.3583 115.028 98.2347 114.437 98.2347 113.761C98.2347 113.08 98.3583 112.484 98.6055 111.976C98.8555 111.467 99.2021 111.072 99.6452 110.791C100.091 110.51 100.61 110.369 101.201 110.369C101.792 110.369 102.309 110.51 102.752 110.791C103.198 111.072 103.544 111.467 103.792 111.976C104.042 112.484 104.167 113.08 104.167 113.761C104.167 114.437 104.042 115.028 103.792 115.534C103.544 116.04 103.198 116.433 102.752 116.714C102.309 116.996 101.792 117.136 101.201 117.136ZM101.201 116.233C101.65 116.233 102.019 116.118 102.309 115.888C102.598 115.658 102.813 115.355 102.952 114.98C103.091 114.605 103.161 114.199 103.161 113.761C103.161 113.324 103.091 112.916 102.952 112.538C102.813 112.161 102.598 111.855 102.309 111.622C102.019 111.389 101.65 111.273 101.201 111.273C100.752 111.273 100.382 111.389 100.093 111.622C99.8029 111.855 99.5884 112.161 99.4492 112.538C99.31 112.916 99.2404 113.324 99.2404 113.761C99.2404 114.199 99.31 114.605 99.4492 114.98C99.5884 115.355 99.8029 115.658 100.093 115.888C100.382 116.118 100.752 116.233 101.201 116.233ZM106.707 108.273V117H105.702V108.273H106.707ZM109.555 108.273V117H108.549V108.273H109.555ZM114.056 117.136C113.465 117.136 112.947 116.996 112.501 116.714C112.058 116.433 111.711 116.04 111.461 115.534C111.214 115.028 111.09 114.437 111.09 113.761C111.09 113.08 111.214 112.484 111.461 111.976C111.711 111.467 112.058 111.072 112.501 110.791C112.947 110.51 113.465 110.369 114.056 110.369C114.647 110.369 115.164 110.51 115.607 110.791C116.053 111.072 116.4 111.467 116.647 111.976C116.897 112.484 117.022 113.08 117.022 113.761C117.022 114.437 116.897 115.028 116.647 115.534C116.4 116.04 116.053 116.433 115.607 116.714C115.164 116.996 114.647 117.136 114.056 117.136ZM114.056 116.233C114.505 116.233 114.874 116.118 115.164 115.888C115.454 115.658 115.668 115.355 115.808 114.98C115.947 114.605 116.016 114.199 116.016 113.761C116.016 113.324 115.947 112.916 115.808 112.538C115.668 112.161 115.454 111.855 115.164 111.622C114.874 111.389 114.505 111.273 114.056 111.273C113.607 111.273 113.238 111.389 112.948 111.622C112.658 111.855 112.444 112.161 112.305 112.538C112.165 112.916 112.096 113.324 112.096 113.761C112.096 114.199 112.165 114.605 112.305 114.98C112.444 115.355 112.658 115.658 112.948 115.888C113.238 116.118 113.607 116.233 114.056 116.233Z" fill="black"/>
<defs>
<clipPath id="clip0_29_259">
<rect width="67" height="67" fill="white" transform="translate(42.5 24)"/>
</clipPath>
</defs>
</svg>
