<svg width="153" height="151" viewBox="0 0 153 151" fill="none" xmlns="http://www.w3.org/2000/svg">
<path d="M79.609 71.3852C76.9121 72.0076 74.5016 72.5658 72.0863 73.114C71.7109 73.198 71.3256 73.2622 70.9403 73.2869C69.8734 73.3561 69.0683 73.5734 68.3965 74.6749C67.4481 76.2259 65.1463 75.7912 64.4005 74.1118C64.277 73.8303 63.9559 73.4746 63.6941 73.445C63.215 73.3906 62.6618 73.198 62.3062 73.9142C61.7776 74.9811 60.7157 75.4899 59.7673 75.2923C58.646 75.0602 58.0484 74.3094 57.9002 73.2178C57.752 72.1064 56.7048 72.4818 56.0923 71.9681C55.8009 72.625 55.5885 73.2276 55.2823 73.7759C54.7933 74.6453 54.3981 75.643 53.6918 76.3C51.8395 78.0189 51.4246 80.2565 51.0393 82.5582C50.8812 83.5214 50.7973 84.3463 51.6271 85.1663C52.0667 85.6009 52.1605 86.5147 52.1754 87.2161C52.1902 88.0509 51.6468 88.5844 50.7479 88.5844C48.1003 88.5893 45.4577 88.5844 42.8102 88.5844C41.9557 88.5844 41.3382 88.1151 41.111 87.3791C40.6368 85.8529 40.1034 84.3068 39.9552 82.7311C39.5156 78.1078 38.2758 73.687 37.0014 69.2563C35.3269 63.4377 33.7315 57.5894 33.119 51.5287C32.8226 48.6095 33.0795 45.7446 33.9142 42.9192C32.6497 44.485 31.899 46.3225 31.736 48.2538C31.4346 51.7806 31.405 55.3271 31.2914 58.8687C31.2865 59.0811 31.489 59.3034 31.6075 59.5157C32.2892 60.7407 33.0647 61.9262 33.6327 63.2006C34.018 64.065 33.8945 64.9985 33.3511 65.8827C33.04 66.3816 32.9511 67.0237 32.793 67.6115C32.304 69.4292 30.9407 69.9182 29.4144 68.797C28.303 67.982 27.8042 66.7915 27.6165 65.4875C27.3053 63.3092 27.7795 61.3335 29.2267 59.6145C29.4391 59.3626 29.5083 58.928 29.5181 58.5723C29.6021 55.6087 29.4836 52.6302 29.7552 49.6813C30.2344 44.485 32.3682 40.2075 37.2484 37.7032C37.6732 37.4858 38.014 37.1203 38.4042 36.8289C40.7504 35.0655 43.4227 34.1616 46.3271 34.127C51.2912 34.0628 56.2603 34.0579 61.2244 34.1369C64.9636 34.1962 68.683 34.2406 72.432 33.9838C77.2183 33.6578 82.0392 33.8405 86.8404 33.801C89.4188 33.7763 92.0021 33.7566 94.5805 33.7072C95.0596 33.6973 95.5437 33.6034 96.008 33.48C97.554 33.065 97.559 32.9416 97.5145 31.3609C97.4849 30.3483 97.5343 29.2765 97.8356 28.3232C98.3789 26.6141 100.103 25.6707 101.837 26.1054C102.879 26.3672 103.837 26.9451 104.85 27.3452C105.245 27.4983 105.694 27.681 106.089 27.6317C109.399 27.2266 112.036 28.2491 114.185 30.8917C115.578 32.6057 117.287 34.0677 118.912 35.5792C120.468 37.0314 122.143 38.3601 123.689 39.8173C126.558 42.5191 125.877 46.6683 122.31 48.3575C120.661 49.138 118.878 49.4047 117.114 49.1281C112.234 48.3625 108.806 50.3728 106.361 54.4528C105.798 55.3913 105.195 56.31 104.627 57.2436C101.333 62.6671 98.1221 68.1499 94.7138 73.4993C93.3061 75.7023 92.3133 77.9497 92.0762 80.543C92.0268 81.0863 91.928 81.6296 91.8094 82.1631C91.5625 83.2349 91.3155 84.2426 92.2441 85.1959C92.5751 85.5367 92.6541 86.2036 92.6985 86.737C92.8122 88.046 92.2886 88.5794 90.9846 88.5844C88.8853 88.5942 86.786 88.5498 84.6917 88.6041C83.5606 88.6338 82.7209 88.1843 82.4541 87.1569C81.9553 85.27 81.5897 83.3436 81.2539 81.4222C80.6759 78.0979 80.1622 74.7589 79.614 71.3803L79.609 71.3852ZM36.5667 41.4868C38.3696 42.7266 38.7401 44.5097 38.666 46.4559C38.5623 49.0935 37.4608 51.3113 35.6628 53.1883C35.2627 53.6082 35.1195 53.9638 35.2627 54.5417C36.4581 59.4219 37.5151 64.3366 38.824 69.1822C40.0194 73.603 41.2987 77.9893 41.679 82.5829C41.7778 83.7882 42.1434 84.9736 42.4496 86.1542C42.5188 86.4159 42.8299 86.7864 43.0522 86.8012C44.0846 86.8704 45.1268 86.8309 46.169 86.8309C46.2085 86.7321 46.248 86.6382 46.2826 86.5394C45.9813 86.2431 45.6207 85.9862 45.3886 85.6405C45.1465 85.2749 44.8403 84.8057 44.8798 84.4204C45.4034 79.6538 46.8161 75.2281 50.0662 71.5482C50.5157 71.0395 50.9257 70.4961 51.3208 69.9528C53.8202 66.5396 57.2235 64.6231 61.3479 63.9711C65.0525 63.3833 68.7669 63.492 72.3876 64.4552C74.4029 64.9936 76.3292 65.858 78.2309 66.5495C78.1272 65.8778 77.9148 65.0578 77.9049 64.2329C77.9049 63.9069 78.2754 63.3981 78.5866 63.2895C79.12 63.1018 79.4757 63.4821 79.5744 64.0551C79.7029 64.7861 79.8313 65.5122 79.9943 66.2383C81.2045 71.6124 82.5579 76.9569 83.1012 82.4595C83.2247 83.6993 83.5705 84.9193 83.8816 86.1295C83.9557 86.411 84.3015 86.8012 84.5435 86.821C85.5907 86.9 86.6428 86.8556 87.9863 86.8556C87.5319 86.3172 87.3146 85.8874 86.9688 85.68C86.2427 85.2453 86.1933 84.6822 86.3415 83.9462C86.6132 82.5879 86.8008 81.2147 87.0478 79.8514C87.438 77.7077 87.6406 75.5393 89.0285 73.6673C91.4489 70.4072 93.7902 67.083 95.3313 63.2697C95.4498 62.9734 96.0672 62.8795 96.4525 62.6918C96.6007 63.0968 96.9218 63.5315 96.8625 63.902C96.7686 64.4898 96.4822 65.0726 96.1611 65.5863C94.3236 68.5747 92.4417 71.5384 90.5943 74.5168C90.1547 75.2281 89.5768 75.9295 89.4089 76.7099C88.9001 79.0364 88.5593 81.4024 88.174 83.7536C88.1394 83.9759 88.1839 84.2673 88.3024 84.4599C88.7865 85.2354 89.3101 85.9862 89.8979 86.8605C90.1103 86.8506 90.5054 86.8259 91.0537 86.7963C90.8364 86.3517 90.7771 85.9566 90.5548 85.8133C89.4336 85.1021 89.6311 84.1142 89.8682 83.0868C89.9868 82.5879 90.0658 82.0742 90.1202 81.5605C90.4807 78.2115 91.5427 75.1886 93.4148 72.3138C96.8526 67.0188 99.9892 61.531 103.259 56.1273C103.842 55.1641 104.425 54.191 105.072 53.2674C106.509 51.2274 108.021 49.2466 110.387 48.1797C111.044 47.8834 111.745 47.6759 112.501 47.3993C111.538 46.6189 110.49 46.3472 109.379 46.3324C106.84 46.2978 104.647 47.2709 102.76 48.8861C101.738 49.7603 100.863 50.8125 99.9595 51.8152C97.4453 54.6059 93.8544 55.4209 90.7672 53.8798C87.5368 52.2646 86.8354 49.0293 89.1323 46.2533C89.6657 45.6063 90.3227 45.0531 90.787 44.3615C91.0784 43.9219 91.3698 43.2255 91.2266 42.7957C90.4412 40.4396 90.1992 38.0983 91.1624 35.5842H73.1334C72.5407 38.8392 70.7971 41.2695 68.4212 43.265C64.9636 46.1694 61.664 46.0163 58.483 42.8204C57.7224 42.0548 56.853 41.6844 55.8108 41.6893C55.1341 41.6893 54.4574 41.7338 53.7856 41.8078C49.8884 42.2425 45.0329 39.7234 43.3832 36.3349C40.4343 37.1401 38.177 38.8392 36.5618 41.5065L36.5667 41.4868ZM98.4579 34.6061C97.0798 34.9124 95.845 35.273 94.5854 35.4409C93.2962 35.6187 92.8418 35.8706 92.4812 37.1351C92.0515 38.6466 92.1601 40.168 92.7331 41.5955C93.4148 43.2996 92.9801 44.6579 91.7798 45.9125C91.1821 46.5398 90.5795 47.182 90.0905 47.8932C89.1767 49.2121 89.3595 50.5358 90.5647 51.6077C91.8292 52.7339 93.3308 53.0846 94.9756 52.7833C96.902 52.4326 98.2258 51.1977 99.4112 49.7357C101.13 47.6166 103.239 45.9866 105.857 45.142C109.112 44.0948 112.16 44.2035 114.62 47.0091C114.719 47.1227 114.872 47.2511 115.005 47.2561C116.205 47.3301 117.406 47.3845 118.675 47.4438C117.821 44.2677 118.043 41.4275 120.147 38.8837C119.258 38.1428 118.349 37.471 117.544 36.6906C115.815 35.0062 114.086 33.3219 112.471 31.5387C111.044 29.9631 109.364 29.2222 107.151 29.2913C107.304 29.5383 107.369 29.6469 107.443 29.7507C107.813 30.3039 108.431 30.8917 107.655 31.4992C106.855 32.1265 106.485 31.356 106.07 30.8275C105.047 29.5432 103.807 28.5158 102.256 27.9527C100.508 27.3155 99.3223 28.1305 99.2137 29.9828C99.1198 31.5437 99.5051 32.9662 100.33 34.3098C100.498 34.5814 100.276 35.1001 100.231 35.5002C99.8064 35.431 99.3421 35.4409 98.9667 35.2631C98.7148 35.1445 98.5864 34.7642 98.4629 34.5963L98.4579 34.6061ZM45.1465 35.9991C45.3787 36.3893 45.4627 36.656 45.6355 36.8091C47.9472 38.8294 50.4416 40.4495 53.7016 40.0247C56.2751 39.6888 58.488 40.079 60.3501 42.1536C61.8863 43.8627 64.0152 44.001 65.9959 42.8155C68.273 41.4473 69.908 39.4913 70.9452 37.0512C71.0984 36.6955 71.1428 36.2954 71.2317 35.9349C62.5136 36.3893 53.8992 35.0507 45.1465 36.004V35.9991ZM54.3487 69.2316C55.6428 69.7997 56.8283 70.4369 58.0928 70.8369C59.1005 71.1531 59.6833 71.563 59.6092 72.7041C59.5895 72.9807 59.9056 73.2721 60.0686 73.5586C60.3304 73.3561 60.77 73.198 60.8293 72.951C61.096 71.815 61.827 71.568 62.8544 71.652C63.3978 71.6964 63.951 71.652 64.4993 71.6421C65.3044 71.6223 65.7243 72.0224 65.9317 72.788C66.0354 73.1585 66.3466 73.4697 66.564 73.8105C66.8504 73.5141 67.2999 73.2672 67.3987 72.9214C67.6457 72.0422 68.2088 71.7804 69.0337 71.7063C70.1895 71.6026 71.3503 71.4988 72.4814 71.2568C74.5708 70.8172 76.6355 70.2788 78.794 69.7651C75.287 65.1171 59.9649 63.1462 54.3537 69.2366L54.3487 69.2316ZM50.7182 86.8457C50.2984 86.3172 50.1206 85.9072 49.8094 85.7343C49.0833 85.3342 48.9499 84.7662 49.0783 84.0302C49.3204 82.6669 49.5525 81.2987 49.7748 79.9354C50.0168 78.4338 50.659 77.1841 51.6765 76.0135C52.61 74.9367 53.3263 73.6426 53.9931 72.3632C54.6253 71.1481 54.5216 71.0592 53.1879 70.5307C49.4142 74.3538 47.4286 78.4091 46.7568 83.719C46.7222 84.0055 46.7716 84.3463 46.9 84.6032C47.226 85.2502 47.6014 85.8726 47.9917 86.4851C48.0954 86.6432 48.3078 86.821 48.4807 86.8309C49.1129 86.8704 49.7501 86.8457 50.7133 86.8457H50.7182ZM121.683 40.1037C119.861 41.5065 119.352 45.2803 120.671 47.1177C121.98 46.7078 123.061 46.0508 123.56 44.6628C122.79 44.243 121.471 44.9444 121.505 43.586C121.54 42.3067 122.8 42.9538 123.703 42.5735C122.987 41.6992 122.33 40.899 121.678 40.1037H121.683ZM30.6641 60.6617C28.6537 63.1956 28.9452 66.8755 30.8666 67.4979C31.2568 66.5199 31.6569 65.5517 32.0274 64.5737C32.0916 64.4058 32.1064 64.1687 32.0422 64.0057C31.6273 62.9585 31.1877 61.9213 30.6641 60.6666V60.6617ZM35.7912 43.1909C34.8033 45.8088 34.6107 48.4662 34.8577 51.2669C37.0903 49.3158 37.6238 44.6875 35.7912 43.1909Z" fill="#424242"/>
<path d="M44.6377 56.5867C44.6476 53.5884 46.1986 51.5386 49.103 50.6939C52.0765 49.8295 55.0649 49.0046 58.2113 49.2071C60.3698 49.3454 62.3209 49.9826 63.8274 51.6373C65.329 53.2921 65.2796 55.1839 63.457 56.4731C61.9455 57.5449 60.2365 58.3402 58.5966 59.2243C56.9567 60.1134 55.2822 60.9432 53.6374 61.8274C52.3383 62.5239 50.9948 63.0573 49.4932 62.8647C46.6234 62.4942 44.6328 59.8912 44.6426 56.5817L44.6377 56.5867ZM57.1839 50.9261C57.1641 50.8322 57.1394 50.7384 57.1197 50.6495C54.561 51.2372 51.9975 51.8152 49.4388 52.4128C47.6458 52.8327 46.7024 54.0577 46.4603 55.8013C46.2035 57.6585 46.6332 59.3774 48.1892 60.553C49.6167 61.6348 51.1182 61.1705 52.5556 60.4394C54.9019 59.2391 57.253 58.0487 59.5894 56.8287C60.4686 56.3693 61.3577 55.8902 62.1628 55.3123C63.4175 54.4133 63.4273 53.6378 62.2913 52.566C60.8539 51.2125 59.0707 50.9112 57.1888 50.931L57.1839 50.9261Z" fill="#424242"/>
<path d="M73.4396 52.645C73.3655 51.4842 73.9039 50.4124 75.0301 49.8147C76.0032 49.2961 77.0948 48.8713 78.1765 48.7132C79.609 48.5057 80.7302 49.2467 81.4217 50.5309C82.0935 51.7757 81.9157 52.9759 81.0216 54.0379C79.8411 55.4407 78.2802 56.1915 76.4724 56.3051C74.6794 56.4187 73.4495 54.932 73.4396 52.6499V52.645ZM74.9906 52.645C75.1931 54.0132 75.7167 54.769 76.5613 54.5121C77.5788 54.2009 78.5618 53.6971 79.4657 53.134C80.0288 52.7833 80.256 52.1214 79.9152 51.425C79.5694 50.7186 78.9767 50.2839 78.2111 50.4371C77.4405 50.5902 76.6502 50.8569 75.9883 51.2718C75.5438 51.5534 75.3116 52.1758 74.9856 52.6499L74.9906 52.645Z" fill="#424242"/>
<path d="M101.594 30.052C102.523 30.7435 103.476 31.4103 104.356 32.1611C104.479 32.2698 104.365 32.8872 104.173 33.07C103.98 33.2577 103.471 33.3466 103.239 33.2231C102.449 32.8082 101.693 32.3192 100.987 31.7759C100.77 31.6079 100.661 31.1683 100.686 30.867C100.715 30.5361 100.952 30.2249 101.1 29.9088L101.594 30.052Z" fill="#424242"/>
<path d="M112.506 36.0435C112.032 35.4063 111.528 35.0211 111.548 34.6704C111.567 34.3147 112.066 33.7961 112.447 33.6973C113.059 33.5392 113.533 34.0332 113.459 34.6407C113.41 35.0458 112.965 35.3965 112.506 36.0435Z" fill="#424242"/>
<path d="M30.4038 110.605H29.3469C29.2844 110.302 29.1751 110.034 29.0188 109.804C28.8654 109.574 28.6779 109.381 28.4563 109.225C28.2376 109.066 27.9947 108.946 27.7276 108.867C27.4606 108.787 27.1822 108.748 26.8924 108.748C26.364 108.748 25.8853 108.881 25.4563 109.148C25.0302 109.415 24.6907 109.809 24.4379 110.329C24.1879 110.848 24.0629 111.486 24.0629 112.242C24.0629 112.998 24.1879 113.635 24.4379 114.155C24.6907 114.675 25.0302 115.069 25.4563 115.336C25.8853 115.603 26.364 115.736 26.8924 115.736C27.1822 115.736 27.4606 115.696 27.7276 115.617C27.9947 115.537 28.2376 115.419 28.4563 115.263C28.6779 115.104 28.8654 114.909 29.0188 114.679C29.1751 114.446 29.2844 114.179 29.3469 113.878H30.4038C30.3242 114.324 30.1793 114.723 29.9691 115.076C29.7589 115.428 29.4975 115.728 29.185 115.975C28.8725 116.219 28.5217 116.405 28.1325 116.533C27.7461 116.661 27.3327 116.725 26.8924 116.725C26.1481 116.725 25.4862 116.543 24.9066 116.179C24.3271 115.816 23.8711 115.299 23.5387 114.628C23.2063 113.958 23.0401 113.162 23.0401 112.242C23.0401 111.321 23.2063 110.526 23.5387 109.855C23.8711 109.185 24.3271 108.668 24.9066 108.304C25.4862 107.941 26.1481 107.759 26.8924 107.759C27.3327 107.759 27.7461 107.823 28.1325 107.951C28.5217 108.079 28.8725 108.266 29.185 108.513C29.4975 108.757 29.7589 109.056 29.9691 109.408C30.1793 109.757 30.3242 110.157 30.4038 110.605ZM33.9013 116.759C33.4865 116.759 33.1101 116.681 32.772 116.525C32.4339 116.365 32.1655 116.137 31.9666 115.838C31.7678 115.537 31.6683 115.174 31.6683 114.748C31.6683 114.373 31.7422 114.069 31.8899 113.836C32.0376 113.6 32.2351 113.415 32.4822 113.282C32.7294 113.148 33.0021 113.049 33.3004 112.983C33.6016 112.915 33.9041 112.861 34.2081 112.821C34.6058 112.77 34.9283 112.732 35.1754 112.706C35.4254 112.678 35.6072 112.631 35.7209 112.566C35.8374 112.5 35.8956 112.387 35.8956 112.225V112.191C35.8956 111.77 35.7805 111.444 35.5504 111.211C35.3232 110.978 34.978 110.861 34.5149 110.861C34.0348 110.861 33.6584 110.966 33.3857 111.177C33.1129 111.387 32.9212 111.611 32.8104 111.85L31.8558 111.509C32.0263 111.111 32.2536 110.802 32.5376 110.58C32.8246 110.355 33.1371 110.199 33.4751 110.111C33.8161 110.02 34.1513 109.975 34.4808 109.975C34.6911 109.975 34.9325 110 35.2053 110.052C35.4808 110.1 35.7464 110.201 36.0021 110.354C36.2607 110.507 36.4751 110.739 36.6456 111.049C36.8161 111.358 36.9013 111.773 36.9013 112.293V116.605H35.8956V115.719H35.8445C35.7763 115.861 35.6626 116.013 35.5036 116.175C35.3445 116.337 35.1328 116.475 34.8686 116.588C34.6044 116.702 34.282 116.759 33.9013 116.759ZM34.0547 115.855C34.4524 115.855 34.7876 115.777 35.0604 115.621C35.3359 115.465 35.5433 115.263 35.6825 115.016C35.8246 114.769 35.8956 114.509 35.8956 114.236V113.316C35.853 113.367 35.7592 113.414 35.6143 113.456C35.4723 113.496 35.3075 113.532 35.12 113.563C34.9354 113.591 34.755 113.617 34.5788 113.64C34.4055 113.659 34.2649 113.677 34.157 113.691C33.8956 113.725 33.6513 113.78 33.424 113.857C33.1996 113.931 33.0178 114.043 32.8786 114.194C32.7422 114.341 32.674 114.543 32.674 114.799C32.674 115.148 32.8033 115.412 33.0618 115.591C33.3232 115.767 33.6541 115.855 34.0547 115.855ZM38.7369 116.605V110.06H39.7085V111.049H39.7766C39.896 110.725 40.1119 110.462 40.4244 110.26C40.7369 110.059 41.0891 109.958 41.4812 109.958C41.555 109.958 41.6474 109.959 41.7582 109.962C41.869 109.965 41.9528 109.969 42.0096 109.975V110.998C41.9755 110.989 41.8974 110.976 41.7752 110.959C41.6559 110.939 41.5295 110.929 41.396 110.929C41.0778 110.929 40.7937 110.996 40.5437 111.13C40.2965 111.26 40.1005 111.442 39.9556 111.675C39.8136 111.905 39.7425 112.168 39.7425 112.463V116.605H38.7369ZM44.2074 112.668V116.605H43.2017V110.06H44.1733V111.083H44.2585C44.4119 110.75 44.6449 110.483 44.9574 110.282C45.2699 110.077 45.6733 109.975 46.1676 109.975C46.6108 109.975 46.9986 110.066 47.331 110.248C47.6634 110.427 47.9219 110.699 48.1065 111.066C48.2912 111.429 48.3835 111.89 48.3835 112.446V116.605H47.3778V112.515C47.3778 112 47.2443 111.6 46.9773 111.313C46.7102 111.023 46.3438 110.878 45.8778 110.878C45.5568 110.878 45.2699 110.948 45.017 111.087C44.767 111.226 44.5696 111.429 44.4247 111.696C44.2798 111.963 44.2074 112.287 44.2074 112.668ZM52.9656 116.742C52.3349 116.742 51.7908 116.603 51.3335 116.324C50.8789 116.043 50.5281 115.651 50.2809 115.148C50.0366 114.642 49.9144 114.054 49.9144 113.384C49.9144 112.713 50.0366 112.123 50.2809 111.611C50.5281 111.097 50.8718 110.696 51.3121 110.409C51.7553 110.12 52.2724 109.975 52.8633 109.975C53.2042 109.975 53.5408 110.032 53.8732 110.145C54.2056 110.259 54.5082 110.444 54.7809 110.699C55.0536 110.952 55.271 111.287 55.4329 111.705C55.5948 112.123 55.6758 112.637 55.6758 113.248V113.674H50.6303V112.804H54.6531C54.6531 112.435 54.5792 112.105 54.4315 111.816C54.2866 111.526 54.0792 111.297 53.8093 111.13C53.5423 110.962 53.2269 110.878 52.8633 110.878C52.4627 110.878 52.1161 110.978 51.8235 111.177C51.5337 111.373 51.3107 111.628 51.1545 111.944C50.9982 112.259 50.9201 112.597 50.9201 112.958V113.537C50.9201 114.032 51.0053 114.451 51.1758 114.794C51.3491 115.135 51.5891 115.395 51.896 115.574C52.2028 115.75 52.5593 115.838 52.9656 115.838C53.2298 115.838 53.4684 115.802 53.6815 115.728C53.8974 115.651 54.0835 115.537 54.2397 115.387C54.396 115.233 54.5167 115.043 54.6019 114.816L55.5735 115.088C55.4712 115.418 55.2994 115.708 55.0579 115.958C54.8164 116.205 54.5181 116.398 54.163 116.537C53.8079 116.674 53.4087 116.742 52.9656 116.742ZM61.2283 119.06C61.0579 119.06 60.9059 119.046 60.7724 119.017C60.6388 118.992 60.5465 118.966 60.4954 118.941L60.7511 118.054C60.9954 118.117 61.2113 118.14 61.3988 118.123C61.5863 118.105 61.7525 118.022 61.8974 117.871C62.0451 117.723 62.18 117.483 62.3022 117.151L62.4897 116.64L60.0692 110.06H61.1602L62.967 115.276H63.0352L64.842 110.06H65.9329L63.1545 117.56C63.0295 117.898 62.8746 118.178 62.69 118.4C62.5053 118.624 62.2908 118.79 62.0465 118.898C61.805 119.006 61.5323 119.06 61.2283 119.06ZM70.6353 119.06V110.06H71.6069V111.1H71.7262C71.8001 110.986 71.9023 110.841 72.033 110.665C72.1665 110.486 72.3569 110.327 72.604 110.188C72.854 110.046 73.1921 109.975 73.6183 109.975C74.1694 109.975 74.6552 110.113 75.0756 110.388C75.4961 110.664 75.8242 111.054 76.06 111.56C76.2958 112.066 76.4137 112.662 76.4137 113.35C76.4137 114.043 76.2958 114.644 76.06 115.152C75.8242 115.658 75.4975 116.05 75.0799 116.329C74.6623 116.604 74.1808 116.742 73.6353 116.742C73.2148 116.742 72.8782 116.672 72.6254 116.533C72.3725 116.391 72.1779 116.23 72.0415 116.052C71.9052 115.87 71.8001 115.719 71.7262 115.6H71.641V119.06H70.6353ZM71.6239 113.333C71.6239 113.827 71.6964 114.263 71.8413 114.641C71.9862 115.016 72.1978 115.31 72.4762 115.523C72.7546 115.733 73.0955 115.838 73.4989 115.838C73.9194 115.838 74.2702 115.728 74.5515 115.506C74.8356 115.282 75.0487 114.98 75.1907 114.603C75.3356 114.222 75.408 113.799 75.408 113.333C75.408 112.873 75.337 112.458 75.195 112.088C75.0558 111.716 74.8441 111.422 74.56 111.206C74.2788 110.988 73.9251 110.878 73.4989 110.878C73.0898 110.878 72.7461 110.982 72.4677 111.189C72.1893 111.394 71.979 111.681 71.837 112.05C71.695 112.417 71.6239 112.844 71.6239 113.333ZM77.9478 116.605V110.06H78.9194V111.049H78.9876C79.1069 110.725 79.3228 110.462 79.6353 110.26C79.9478 110.059 80.3001 109.958 80.6921 109.958C80.766 109.958 80.8583 109.959 80.9691 109.962C81.0799 109.965 81.1637 109.969 81.2205 109.975V110.998C81.1864 110.989 81.1083 110.976 80.9862 110.959C80.8668 110.939 80.7404 110.929 80.6069 110.929C80.2887 110.929 80.0046 110.996 79.7546 111.13C79.5075 111.26 79.3114 111.442 79.1665 111.675C79.0245 111.905 78.9535 112.168 78.9535 112.463V116.605H77.9478ZM84.8725 116.742C84.2816 116.742 83.7631 116.601 83.3171 116.32C82.8739 116.039 82.5273 115.645 82.2773 115.14C82.0302 114.634 81.9066 114.043 81.9066 113.367C81.9066 112.685 82.0302 112.09 82.2773 111.581C82.5273 111.073 82.8739 110.678 83.3171 110.397C83.7631 110.115 84.2816 109.975 84.8725 109.975C85.4634 109.975 85.9805 110.115 86.4237 110.397C86.8697 110.678 87.2163 111.073 87.4634 111.581C87.7134 112.09 87.8384 112.685 87.8384 113.367C87.8384 114.043 87.7134 114.634 87.4634 115.14C87.2163 115.645 86.8697 116.039 86.4237 116.32C85.9805 116.601 85.4634 116.742 84.8725 116.742ZM84.8725 115.838C85.3214 115.838 85.6907 115.723 85.9805 115.493C86.2702 115.263 86.4847 114.961 86.6239 114.586C86.7631 114.211 86.8327 113.804 86.8327 113.367C86.8327 112.929 86.7631 112.522 86.6239 112.144C86.4847 111.766 86.2702 111.461 85.9805 111.228C85.6907 110.995 85.3214 110.878 84.8725 110.878C84.4237 110.878 84.0543 110.995 83.7646 111.228C83.4748 111.461 83.2603 111.766 83.1211 112.144C82.9819 112.522 82.9123 112.929 82.9123 113.367C82.9123 113.804 82.9819 114.211 83.1211 114.586C83.2603 114.961 83.4748 115.263 83.7646 115.493C84.0543 115.723 84.4237 115.838 84.8725 115.838ZM91.8452 116.742C91.2997 116.742 90.8182 116.604 90.4006 116.329C89.983 116.05 89.6563 115.658 89.4205 115.152C89.1847 114.644 89.0668 114.043 89.0668 113.35C89.0668 112.662 89.1847 112.066 89.4205 111.56C89.6563 111.054 89.9844 110.664 90.4048 110.388C90.8253 110.113 91.3111 109.975 91.8622 109.975C92.2884 109.975 92.625 110.046 92.8722 110.188C93.1222 110.327 93.3125 110.486 93.4432 110.665C93.5767 110.841 93.6804 110.986 93.7543 111.1H93.8395V107.878H94.8452V116.605H93.8736V115.6H93.7543C93.6804 115.719 93.5753 115.87 93.4389 116.052C93.3026 116.23 93.108 116.391 92.8551 116.533C92.6023 116.672 92.2656 116.742 91.8452 116.742ZM91.9815 115.838C92.3849 115.838 92.7259 115.733 93.0043 115.523C93.2827 115.31 93.4943 115.016 93.6392 114.641C93.7841 114.263 93.8565 113.827 93.8565 113.333C93.8565 112.844 93.7855 112.417 93.6435 112.05C93.5014 111.681 93.2912 111.394 93.0128 111.189C92.7344 110.982 92.3906 110.878 91.9815 110.878C91.5554 110.878 91.2003 110.988 90.9162 111.206C90.6349 111.422 90.4233 111.716 90.2812 112.088C90.142 112.458 90.0724 112.873 90.0724 113.333C90.0724 113.799 90.1435 114.222 90.2855 114.603C90.4304 114.98 90.6435 115.282 90.9247 115.506C91.2088 115.728 91.5611 115.838 91.9815 115.838ZM100.952 113.929V110.06H101.957V116.605H100.952V115.498H100.884C100.73 115.83 100.491 116.113 100.168 116.346C99.8438 116.576 99.4347 116.691 98.9403 116.691C98.5312 116.691 98.1676 116.601 97.8494 116.422C97.5313 116.24 97.2813 115.968 97.0994 115.604C96.9176 115.238 96.8267 114.776 96.8267 114.219V110.06H97.8324V114.151C97.8324 114.628 97.9659 115.009 98.233 115.293C98.5028 115.577 98.8466 115.719 99.2642 115.719C99.5142 115.719 99.7685 115.655 100.027 115.527C100.288 115.4 100.507 115.204 100.683 114.939C100.862 114.675 100.952 114.338 100.952 113.929ZM106.458 116.742C105.845 116.742 105.316 116.597 104.873 116.307C104.43 116.017 104.089 115.618 103.85 115.11C103.612 114.601 103.493 114.02 103.493 113.367C103.493 112.702 103.615 112.115 103.859 111.607C104.106 111.096 104.45 110.696 104.89 110.409C105.333 110.12 105.85 109.975 106.441 109.975C106.902 109.975 107.316 110.06 107.686 110.23C108.055 110.401 108.358 110.64 108.593 110.946C108.829 111.253 108.975 111.611 109.032 112.02H108.027C107.95 111.722 107.779 111.458 107.515 111.228C107.254 110.995 106.902 110.878 106.458 110.878C106.066 110.878 105.723 110.98 105.427 111.185C105.135 111.387 104.906 111.672 104.741 112.042C104.579 112.408 104.498 112.838 104.498 113.333C104.498 113.838 104.578 114.279 104.737 114.654C104.899 115.029 105.126 115.32 105.419 115.527C105.714 115.735 106.061 115.838 106.458 115.838C106.72 115.838 106.957 115.793 107.17 115.702C107.383 115.611 107.564 115.48 107.711 115.31C107.859 115.14 107.964 114.935 108.027 114.696H109.032C108.975 115.083 108.835 115.431 108.61 115.74C108.389 116.047 108.095 116.292 107.728 116.473C107.365 116.652 106.941 116.742 106.458 116.742ZM113.349 110.06V110.912H109.957V110.06H113.349ZM110.946 108.492H111.951V114.73C111.951 115.015 111.993 115.228 112.075 115.37C112.16 115.509 112.268 115.603 112.399 115.651C112.532 115.696 112.673 115.719 112.821 115.719C112.931 115.719 113.022 115.713 113.093 115.702C113.164 115.688 113.221 115.677 113.264 115.668L113.468 116.571C113.4 116.597 113.305 116.623 113.183 116.648C113.061 116.677 112.906 116.691 112.718 116.691C112.434 116.691 112.156 116.63 111.883 116.507C111.613 116.385 111.389 116.199 111.21 115.949C111.034 115.699 110.946 115.384 110.946 115.003V108.492ZM117.451 116.742C116.86 116.742 116.341 116.601 115.895 116.32C115.452 116.039 115.105 115.645 114.855 115.14C114.608 114.634 114.485 114.043 114.485 113.367C114.485 112.685 114.608 112.09 114.855 111.581C115.105 111.073 115.452 110.678 115.895 110.397C116.341 110.115 116.86 109.975 117.451 109.975C118.042 109.975 118.559 110.115 119.002 110.397C119.448 110.678 119.794 111.073 120.042 111.581C120.292 112.09 120.417 112.685 120.417 113.367C120.417 114.043 120.292 114.634 120.042 115.14C119.794 115.645 119.448 116.039 119.002 116.32C118.559 116.601 118.042 116.742 117.451 116.742ZM117.451 115.838C117.9 115.838 118.269 115.723 118.559 115.493C118.848 115.263 119.063 114.961 119.202 114.586C119.341 114.211 119.411 113.804 119.411 113.367C119.411 112.929 119.341 112.522 119.202 112.144C119.063 111.766 118.848 111.461 118.559 111.228C118.269 110.995 117.9 110.878 117.451 110.878C117.002 110.878 116.632 110.995 116.343 111.228C116.053 111.461 115.838 111.766 115.699 112.144C115.56 112.522 115.49 112.929 115.49 113.367C115.49 113.804 115.56 114.211 115.699 114.586C115.838 114.961 116.053 115.263 116.343 115.493C116.632 115.723 117.002 115.838 117.451 115.838ZM126.588 111.526L125.685 111.782C125.628 111.631 125.544 111.485 125.433 111.343C125.325 111.198 125.178 111.079 124.99 110.985C124.803 110.891 124.562 110.844 124.27 110.844C123.869 110.844 123.536 110.936 123.268 111.121C123.004 111.303 122.872 111.534 122.872 111.816C122.872 112.066 122.963 112.263 123.145 112.408C123.327 112.553 123.611 112.674 123.997 112.77L124.969 113.009C125.554 113.151 125.99 113.368 126.277 113.661C126.564 113.951 126.707 114.324 126.707 114.782C126.707 115.157 126.599 115.492 126.384 115.787C126.17 116.083 125.872 116.316 125.489 116.486C125.105 116.657 124.659 116.742 124.151 116.742C123.483 116.742 122.93 116.597 122.493 116.307C122.055 116.017 121.778 115.594 121.662 115.037L122.616 114.799C122.707 115.151 122.879 115.415 123.132 115.591C123.388 115.767 123.722 115.855 124.134 115.855C124.602 115.855 124.974 115.756 125.25 115.557C125.528 115.355 125.668 115.114 125.668 114.833C125.668 114.605 125.588 114.415 125.429 114.262C125.27 114.105 125.026 113.989 124.696 113.912L123.605 113.657C123.006 113.515 122.565 113.294 122.284 112.996C122.006 112.695 121.866 112.319 121.866 111.867C121.866 111.498 121.97 111.171 122.178 110.887C122.388 110.603 122.673 110.38 123.034 110.218C123.398 110.056 123.81 109.975 124.27 109.975C124.918 109.975 125.426 110.117 125.795 110.401C126.168 110.685 126.432 111.06 126.588 111.526ZM44.2505 134.06V125.06H45.2221V126.1H45.3414C45.4153 125.986 45.5176 125.841 45.6483 125.665C45.7818 125.486 45.9721 125.327 46.2193 125.188C46.4693 125.046 46.8074 124.975 47.2335 124.975C47.7846 124.975 48.2704 125.113 48.6909 125.388C49.1113 125.664 49.4395 126.054 49.6752 126.56C49.911 127.066 50.0289 127.662 50.0289 128.35C50.0289 129.043 49.911 129.644 49.6752 130.152C49.4395 130.658 49.1127 131.05 48.6951 131.329C48.2775 131.604 47.796 131.742 47.2505 131.742C46.8301 131.742 46.4934 131.672 46.2406 131.533C45.9877 131.391 45.7931 131.23 45.6568 131.052C45.5204 130.87 45.4153 130.719 45.3414 130.6H45.2562V134.06H44.2505ZM45.2392 128.333C45.2392 128.827 45.3116 129.263 45.4565 129.641C45.6014 130.016 45.813 130.31 46.0914 130.523C46.3699 130.733 46.7108 130.838 47.1142 130.838C47.5346 130.838 47.8855 130.728 48.1667 130.506C48.4508 130.282 48.6639 129.98 48.8059 129.603C48.9508 129.222 49.0233 128.799 49.0233 128.333C49.0233 127.873 48.9522 127.458 48.8102 127.088C48.671 126.716 48.4593 126.422 48.1752 126.206C47.894 125.988 47.5403 125.878 47.1142 125.878C46.7051 125.878 46.3613 125.982 46.0829 126.189C45.8045 126.394 45.5943 126.681 45.4522 127.05C45.3102 127.417 45.2392 127.844 45.2392 128.333ZM51.563 131.605V125.06H52.5346V126.049H52.6028C52.7221 125.725 52.938 125.462 53.2505 125.26C53.563 125.059 53.9153 124.958 54.3074 124.958C54.3812 124.958 54.4735 124.959 54.5843 124.962C54.6951 124.965 54.7789 124.969 54.8358 124.975V125.998C54.8017 125.989 54.7235 125.976 54.6014 125.959C54.4821 125.939 54.3556 125.929 54.2221 125.929C53.9039 125.929 53.6199 125.996 53.3699 126.13C53.1227 126.26 52.9267 126.442 52.7818 126.675C52.6397 126.905 52.5687 127.168 52.5687 127.463V131.605H51.563ZM58.4877 131.742C57.8968 131.742 57.3784 131.601 56.9324 131.32C56.4892 131.039 56.1426 130.645 55.8926 130.14C55.6454 129.634 55.5218 129.043 55.5218 128.367C55.5218 127.685 55.6454 127.09 55.8926 126.581C56.1426 126.073 56.4892 125.678 56.9324 125.397C57.3784 125.115 57.8968 124.975 58.4877 124.975C59.0787 124.975 59.5957 125.115 60.0389 125.397C60.4849 125.678 60.8315 126.073 61.0787 126.581C61.3287 127.09 61.4537 127.685 61.4537 128.367C61.4537 129.043 61.3287 129.634 61.0787 130.14C60.8315 130.645 60.4849 131.039 60.0389 131.32C59.5957 131.601 59.0787 131.742 58.4877 131.742ZM58.4877 130.838C58.9366 130.838 59.3059 130.723 59.5957 130.493C59.8855 130.263 60.1 129.961 60.2392 129.586C60.3784 129.211 60.448 128.804 60.448 128.367C60.448 127.929 60.3784 127.522 60.2392 127.144C60.1 126.766 59.8855 126.461 59.5957 126.228C59.3059 125.995 58.9366 125.878 58.4877 125.878C58.0389 125.878 57.6696 125.995 57.3798 126.228C57.09 126.461 56.8755 126.766 56.7363 127.144C56.5971 127.522 56.5275 127.929 56.5275 128.367C56.5275 128.804 56.5971 129.211 56.7363 129.586C56.8755 129.961 57.09 130.263 57.3798 130.493C57.6696 130.723 58.0389 130.838 58.4877 130.838ZM65.6479 131.742C65.0343 131.742 64.5059 131.597 64.0627 131.307C63.6195 131.017 63.2786 130.618 63.04 130.11C62.8013 129.601 62.682 129.02 62.682 128.367C62.682 127.702 62.8042 127.115 63.0485 126.607C63.2956 126.096 63.6394 125.696 64.0797 125.409C64.5229 125.12 65.04 124.975 65.6309 124.975C66.0911 124.975 66.5059 125.06 66.8752 125.23C67.2445 125.401 67.5471 125.64 67.7828 125.946C68.0186 126.253 68.165 126.611 68.2218 127.02H67.2161C67.1394 126.722 66.9689 126.458 66.7047 126.228C66.4434 125.995 66.0911 125.878 65.6479 125.878C65.2559 125.878 64.9121 125.98 64.6167 126.185C64.324 126.387 64.0953 126.672 63.9306 127.042C63.7686 127.408 63.6877 127.838 63.6877 128.333C63.6877 128.838 63.7672 129.279 63.9263 129.654C64.0882 130.029 64.3155 130.32 64.6081 130.527C64.9036 130.735 65.2502 130.838 65.6479 130.838C65.9093 130.838 66.1465 130.793 66.3596 130.702C66.5726 130.611 66.753 130.48 66.9007 130.31C67.0485 130.14 67.1536 129.935 67.2161 129.696H68.2218C68.165 130.083 68.0243 130.431 67.7999 130.74C67.5783 131.047 67.2843 131.292 66.9178 131.473C66.5542 131.652 66.1309 131.742 65.6479 131.742ZM72.4363 131.742C71.8056 131.742 71.2615 131.603 70.8042 131.324C70.3496 131.043 69.9988 130.651 69.7516 130.148C69.5073 129.642 69.3851 129.054 69.3851 128.384C69.3851 127.713 69.5073 127.123 69.7516 126.611C69.9988 126.097 70.3425 125.696 70.7828 125.409C71.226 125.12 71.7431 124.975 72.334 124.975C72.6749 124.975 73.0115 125.032 73.3439 125.145C73.6763 125.259 73.9789 125.444 74.2516 125.699C74.5243 125.952 74.7417 126.287 74.9036 126.705C75.0655 127.123 75.1465 127.637 75.1465 128.248V128.674H70.101V127.804H74.1238C74.1238 127.435 74.0499 127.105 73.9022 126.816C73.7573 126.526 73.5499 126.297 73.28 126.13C73.013 125.962 72.6976 125.878 72.334 125.878C71.9334 125.878 71.5868 125.978 71.2942 126.177C71.0044 126.373 70.7814 126.628 70.6252 126.944C70.4689 127.259 70.3908 127.597 70.3908 127.958V128.537C70.3908 129.032 70.476 129.451 70.6465 129.794C70.8198 130.135 71.0598 130.395 71.3667 130.574C71.6735 130.75 72.03 130.838 72.4363 130.838C72.7005 130.838 72.9391 130.802 73.1522 130.728C73.3681 130.651 73.5542 130.537 73.7104 130.387C73.8667 130.233 73.9874 130.043 74.0726 129.816L75.0442 130.088C74.9419 130.418 74.7701 130.708 74.5286 130.958C74.2871 131.205 73.9888 131.398 73.6337 131.537C73.2786 131.674 72.8794 131.742 72.4363 131.742ZM81.3127 126.526L80.4093 126.782C80.3525 126.631 80.2686 126.485 80.1578 126.343C80.0499 126.198 79.9022 126.079 79.7147 125.985C79.5272 125.891 79.2871 125.844 78.9945 125.844C78.5939 125.844 78.2601 125.936 77.9931 126.121C77.7289 126.303 77.5968 126.534 77.5968 126.816C77.5968 127.066 77.6877 127.263 77.8695 127.408C78.0513 127.553 78.3354 127.674 78.7218 127.77L79.6934 128.009C80.2786 128.151 80.7147 128.368 81.0016 128.661C81.2885 128.951 81.432 129.324 81.432 129.782C81.432 130.157 81.324 130.492 81.1081 130.787C80.8951 131.083 80.5968 131.316 80.2132 131.486C79.8297 131.657 79.3837 131.742 78.8752 131.742C78.2076 131.742 77.655 131.597 77.2175 131.307C76.78 131.017 76.503 130.594 76.3865 130.037L77.3411 129.799C77.432 130.151 77.6039 130.415 77.8567 130.591C78.1124 130.767 78.4462 130.855 78.8581 130.855C79.3269 130.855 79.699 130.756 79.9746 130.557C80.253 130.355 80.3922 130.114 80.3922 129.833C80.3922 129.605 80.3127 129.415 80.1536 129.262C79.9945 129.105 79.7502 128.989 79.4206 128.912L78.3297 128.657C77.7303 128.515 77.29 128.294 77.0087 127.996C76.7303 127.695 76.5911 127.319 76.5911 126.867C76.5911 126.498 76.6948 126.171 76.9022 125.887C77.1124 125.603 77.3979 125.38 77.7587 125.218C78.1223 125.056 78.5343 124.975 78.9945 124.975C79.6422 124.975 80.1507 125.117 80.5201 125.401C80.8922 125.685 81.1564 126.06 81.3127 126.526ZM84.872 131.759C84.4572 131.759 84.0808 131.681 83.7427 131.525C83.4047 131.365 83.1362 131.137 82.9373 130.838C82.7385 130.537 82.639 130.174 82.639 129.748C82.639 129.373 82.7129 129.069 82.8606 128.836C83.0083 128.6 83.2058 128.415 83.4529 128.282C83.7001 128.148 83.9728 128.049 84.2711 127.983C84.5723 127.915 84.8748 127.861 85.1788 127.821C85.5765 127.77 85.899 127.732 86.1461 127.706C86.3961 127.678 86.5779 127.631 86.6916 127.566C86.8081 127.5 86.8663 127.387 86.8663 127.225V127.191C86.8663 126.77 86.7512 126.444 86.5211 126.211C86.2939 125.978 85.9487 125.861 85.4856 125.861C85.0055 125.861 84.6291 125.966 84.3564 126.177C84.0836 126.387 83.8919 126.611 83.7811 126.85L82.8265 126.509C82.997 126.111 83.2243 125.802 83.5083 125.58C83.7953 125.355 84.1078 125.199 84.4458 125.111C84.7868 125.02 85.122 124.975 85.4515 124.975C85.6618 124.975 85.9032 125 86.176 125.052C86.4515 125.1 86.7172 125.201 86.9728 125.354C87.2314 125.507 87.4458 125.739 87.6163 126.049C87.7868 126.358 87.872 126.773 87.872 127.293V131.605H86.8663V130.719H86.8152C86.747 130.861 86.6333 131.013 86.4743 131.175C86.3152 131.337 86.1035 131.475 85.8393 131.588C85.5751 131.702 85.2527 131.759 84.872 131.759ZM85.0254 130.855C85.4231 130.855 85.7583 130.777 86.0311 130.621C86.3066 130.465 86.514 130.263 86.6532 130.016C86.7953 129.769 86.8663 129.509 86.8663 129.236V128.316C86.8237 128.367 86.7299 128.414 86.585 128.456C86.443 128.496 86.2782 128.532 86.0907 128.563C85.9061 128.591 85.7257 128.617 85.5495 128.64C85.3762 128.659 85.2356 128.677 85.1277 128.691C84.8663 128.725 84.622 128.78 84.3947 128.857C84.1703 128.931 83.9885 129.043 83.8493 129.194C83.7129 129.341 83.6447 129.543 83.6447 129.799C83.6447 130.148 83.774 130.412 84.0325 130.591C84.2939 130.767 84.6248 130.855 85.0254 130.855ZM92.1792 131.742C91.6337 131.742 91.1522 131.604 90.7346 131.329C90.3169 131.05 89.9902 130.658 89.7544 130.152C89.5186 129.644 89.4007 129.043 89.4007 128.35C89.4007 127.662 89.5186 127.066 89.7544 126.56C89.9902 126.054 90.3184 125.664 90.7388 125.388C91.1593 125.113 91.6451 124.975 92.1962 124.975C92.6223 124.975 92.959 125.046 93.2061 125.188C93.4561 125.327 93.6465 125.486 93.7772 125.665C93.9107 125.841 94.0144 125.986 94.0882 126.1H94.1735V122.878H95.1792V131.605H94.2076V130.6H94.0882C94.0144 130.719 93.9093 130.87 93.7729 131.052C93.6365 131.23 93.4419 131.391 93.1891 131.533C92.9363 131.672 92.5996 131.742 92.1792 131.742ZM92.3155 130.838C92.7189 130.838 93.0598 130.733 93.3382 130.523C93.6167 130.31 93.8283 130.016 93.9732 129.641C94.1181 129.263 94.1905 128.827 94.1905 128.333C94.1905 127.844 94.1195 127.417 93.9775 127.05C93.8354 126.681 93.6252 126.394 93.3468 126.189C93.0684 125.982 92.7246 125.878 92.3155 125.878C91.8894 125.878 91.5343 125.988 91.2502 126.206C90.9689 126.422 90.7573 126.716 90.6152 127.088C90.476 127.458 90.4064 127.873 90.4064 128.333C90.4064 128.799 90.4775 129.222 90.6195 129.603C90.7644 129.98 90.9775 130.282 91.2587 130.506C91.5428 130.728 91.8951 130.838 92.3155 130.838ZM99.8198 131.742C99.2289 131.742 98.7104 131.601 98.2644 131.32C97.8212 131.039 97.4746 130.645 97.2246 130.14C96.9775 129.634 96.8539 129.043 96.8539 128.367C96.8539 127.685 96.9775 127.09 97.2246 126.581C97.4746 126.073 97.8212 125.678 98.2644 125.397C98.7104 125.115 99.2289 124.975 99.8198 124.975C100.411 124.975 100.928 125.115 101.371 125.397C101.817 125.678 102.164 126.073 102.411 126.581C102.661 127.09 102.786 127.685 102.786 128.367C102.786 129.043 102.661 129.634 102.411 130.14C102.164 130.645 101.817 131.039 101.371 131.32C100.928 131.601 100.411 131.742 99.8198 131.742ZM99.8198 130.838C100.269 130.838 100.638 130.723 100.928 130.493C101.218 130.263 101.432 129.961 101.571 129.586C101.71 129.211 101.78 128.804 101.78 128.367C101.78 127.929 101.71 127.522 101.571 127.144C101.432 126.766 101.218 126.461 100.928 126.228C100.638 125.995 100.269 125.878 99.8198 125.878C99.3709 125.878 99.0016 125.995 98.7118 126.228C98.4221 126.461 98.2076 126.766 98.0684 127.144C97.9292 127.522 97.8596 127.929 97.8596 128.367C97.8596 128.804 97.9292 129.211 98.0684 129.586C98.2076 129.961 98.4221 130.263 98.7118 130.493C99.0016 130.723 99.3709 130.838 99.8198 130.838ZM108.957 126.526L108.054 126.782C107.997 126.631 107.913 126.485 107.802 126.343C107.694 126.198 107.547 126.079 107.359 125.985C107.172 125.891 106.932 125.844 106.639 125.844C106.238 125.844 105.905 125.936 105.638 126.121C105.373 126.303 105.241 126.534 105.241 126.816C105.241 127.066 105.332 127.263 105.514 127.408C105.696 127.553 105.98 127.674 106.366 127.77L107.338 128.009C107.923 128.151 108.359 128.368 108.646 128.661C108.933 128.951 109.077 129.324 109.077 129.782C109.077 130.157 108.969 130.492 108.753 130.787C108.54 131.083 108.241 131.316 107.858 131.486C107.474 131.657 107.028 131.742 106.52 131.742C105.852 131.742 105.3 131.597 104.862 131.307C104.425 131.017 104.148 130.594 104.031 130.037L104.986 129.799C105.077 130.151 105.248 130.415 105.501 130.591C105.757 130.767 106.091 130.855 106.503 130.855C106.971 130.855 107.344 130.756 107.619 130.557C107.898 130.355 108.037 130.114 108.037 129.833C108.037 129.605 107.957 129.415 107.798 129.262C107.639 129.105 107.395 128.989 107.065 128.912L105.974 128.657C105.375 128.515 104.934 128.294 104.653 127.996C104.375 127.695 104.236 127.319 104.236 126.867C104.236 126.498 104.339 126.171 104.547 125.887C104.757 125.603 105.042 125.38 105.403 125.218C105.767 125.056 106.179 124.975 106.639 124.975C107.287 124.975 107.795 125.117 108.165 125.401C108.537 125.685 108.801 126.06 108.957 126.526Z" fill="black"/>
</svg>
