<svg width="153" height="151" viewBox="0 0 153 151" fill="none" xmlns="http://www.w3.org/2000/svg">
<path d="M75.6627 83.0212C75.6627 82.6385 75.6627 82.316 75.6627 81.9935C75.6627 75.0877 75.6326 68.1819 75.6885 61.2761C75.7014 59.8872 74.8457 59.1734 73.9771 58.4252C73.818 58.2876 73.3708 58.4123 73.0827 58.5026C67.6518 60.2183 60.9137 56.258 59.9419 50.7712C59.6968 49.378 59.9333 48.9007 61.219 48.2729C63.0422 47.3871 64.9643 47.228 66.8993 47.7053C71.1477 48.7545 74.2179 51.1066 75.2757 55.5786C75.2929 55.656 75.3574 55.7291 75.409 55.7979C75.4219 55.8151 75.4606 55.8151 75.6369 55.871C75.6369 54.3101 75.6541 52.7879 75.6154 51.2657C75.6111 51.0636 75.3144 50.8486 75.1252 50.6766C71.2337 47.0689 71.1176 39.7073 74.8973 35.9792C76.6431 34.2592 77.5934 34.2635 79.3392 36.005C83.0802 39.7288 82.9813 47.0259 79.1113 50.625C78.6727 51.0335 78.4964 51.4291 78.5136 52.0139C78.548 53.2824 78.5265 54.5466 78.5265 55.8151C78.6039 55.828 78.677 55.8409 78.7544 55.8538C78.8275 55.5958 78.9092 55.3378 78.9651 55.0798C80.1433 49.7994 86.3568 46.0111 91.5598 47.4086C91.9038 47.5032 92.2435 47.6236 92.5703 47.7655C93.9205 48.3503 94.1871 48.8319 93.985 50.2724C93.4389 54.1553 89.9258 57.6469 85.6645 58.5327C84.0606 58.8681 82.4653 58.8767 80.8829 58.3779C80.6808 58.3134 80.3497 58.279 80.225 58.3951C79.3564 59.1906 78.4749 59.9087 78.4878 61.3363C78.548 68.212 78.5179 75.0877 78.5179 81.9634V83.0212H100.039V81.9892C100.039 69.3429 100.022 56.6966 100.065 44.0546C100.07 42.6614 99.188 41.9734 98.3366 41.208C98.199 41.0833 97.7819 41.1994 97.5196 41.2811C92.1145 43.0097 85.4065 39.1698 84.3358 33.7303C84.0348 32.1995 84.2842 31.6878 85.6903 31.0299C87.5264 30.1742 89.4485 30.0538 91.3792 30.5397C95.5244 31.5846 98.5129 33.9109 99.6223 38.2367C99.661 38.3915 99.7513 38.5334 100.014 38.6581C100.014 37.1359 100.031 35.6094 99.9921 34.0872C99.9878 33.8851 99.6868 33.6744 99.4976 33.4981C95.5975 29.8775 95.4728 22.5417 99.2525 18.8007C100.998 17.0721 101.953 17.0721 103.694 18.8007C107.474 22.5503 107.337 29.8603 103.454 33.5153C103.157 33.7948 102.942 34.3022 102.92 34.715C102.852 36.0179 102.895 37.3251 103.101 38.6667C103.157 38.4732 103.23 38.2797 103.273 38.0819C104.374 32.7069 110.605 28.8197 115.898 30.2C118.314 30.8321 118.8 31.6749 118.147 34.1044C116.784 39.1655 110.506 42.7001 105.44 41.2252C104.894 41.0661 104.563 41.1564 104.176 41.5219C103.32 42.3346 102.847 43.1903 102.852 44.4803C102.912 56.9761 102.886 69.4719 102.886 81.9677V83.1115C103.436 83.1115 103.909 83.1115 104.378 83.1115C108.562 83.1115 112.746 83.1115 116.93 83.1115C118.005 83.1115 118.641 83.6189 118.658 84.4875C118.676 85.3432 118.018 85.928 116.986 85.9624C116.745 85.971 116.508 85.9624 116.268 85.9624C90.115 85.9624 63.9624 85.9624 37.8098 85.9624C37.5389 85.9624 37.2723 85.9753 37.0014 85.9581C36.0468 85.8979 35.419 85.2787 35.462 84.4445C35.5007 83.6361 36.107 83.0986 37.0487 83.0986C41.4433 83.09 45.8379 83.0943 50.2282 83.0943C50.5507 83.0943 50.8732 83.0943 51.3032 83.0943C51.3032 81.2539 51.4838 79.4737 51.2215 77.758C51.0968 76.9582 50.1379 76.2659 49.5058 75.5779C49.4112 75.479 49.0113 75.6295 48.7619 75.7112C43.8771 77.2678 37.6464 74.189 35.9264 69.3429C35.7501 68.8398 35.6383 68.3066 35.5523 67.7777C35.3631 66.6339 35.6082 66.1351 36.6531 65.6019C38.9751 64.4151 41.396 64.4237 43.7868 65.2708C47.4031 66.5522 50.0304 68.8441 50.8947 72.77C50.9162 72.8689 51.0065 72.9506 51.286 73.0194C51.286 71.9444 51.2387 70.8694 51.2989 69.7987C51.3505 68.8828 51.114 68.2249 50.426 67.5326C46.8699 63.955 46.8828 56.9847 50.3701 53.3684C50.6367 53.0889 50.9291 52.8266 51.2387 52.5944C52.4642 51.657 52.9759 51.6398 54.1842 52.5729C56.4718 54.3402 57.4694 56.7912 57.6586 59.5776C57.8822 62.8929 57.0179 65.8513 54.4508 68.1518C54.3261 68.2636 54.1799 68.4399 54.1799 68.5861C54.1584 70.061 54.167 71.5359 54.167 73.0151C54.2401 73.0237 54.3132 73.0323 54.3863 73.0409C54.4551 72.8087 54.5411 72.5765 54.5927 72.34C55.715 67.0768 61.9543 63.2498 67.1616 64.6344C69.5997 65.2794 70.0813 66.1179 69.4191 68.5302C68.0087 73.6687 61.778 77.1173 56.6223 75.651C56.3041 75.5607 55.8096 75.6811 55.543 75.8918C54.5712 76.6615 53.9778 77.6032 54.1111 78.9706C54.2401 80.295 54.1412 81.6452 54.1412 83.0427H75.6627V83.0212ZM101.476 31.3266C104.606 28.5402 103.836 22.2192 101.368 20.7443C98.629 23.3544 98.6591 29.1422 101.476 31.3266ZM77.0688 48.5481C80.1175 45.9208 79.5585 39.6127 76.9914 37.9572C74.248 40.4899 74.2652 46.2648 77.0688 48.5481ZM52.6921 65.7653C55.7967 63.0262 55.0958 56.7181 52.5932 55.1787C49.8498 57.7544 49.8799 63.5422 52.6921 65.7653ZM96.6252 38.4517C96.0404 35.145 90.7041 32.0318 87.2813 33.5454C87.8145 36.9682 93.211 39.8277 96.6252 38.4517ZM72.1969 55.6732C71.9604 52.7535 66.5596 49.1329 62.8874 50.7798C63.498 54.2284 68.9375 57.0879 72.1969 55.6732ZM47.8159 72.8732C47.4375 69.7127 41.869 66.3759 38.4978 68.0185C39.1858 71.5015 44.6597 74.3524 47.8159 72.8732ZM66.6198 67.5498C62.5262 66.1609 57.5726 70.0094 57.4264 72.8345C60.7417 74.103 65.6867 71.2822 66.6198 67.5498ZM106.133 38.3614C109.418 39.746 114.681 36.7403 115.365 33.1197C112.127 31.791 107.16 34.5817 106.133 38.3614ZM81.7601 55.5743C84.8647 57.0363 90.1107 54.0779 90.9965 50.367C87.7973 49.0082 82.4438 51.9408 81.7601 55.5743Z" fill="#424242"/>
<path d="M65.5964 87.4072C66.0737 87.4072 66.5553 87.3814 67.0283 87.4115C67.8711 87.4674 68.4516 88.078 68.4387 88.8563C68.4258 89.6002 67.8754 90.2194 67.0799 90.2538C66.0651 90.2968 65.046 90.3011 64.0355 90.2538C63.2486 90.2151 62.7068 89.5658 62.7154 88.8219C62.724 88.078 63.2787 87.4846 64.0742 87.4201C64.5773 87.3814 65.089 87.4115 65.5964 87.4115V87.4072Z" fill="#424242"/>
<path d="M88.5069 90.2667C88.0296 90.2667 87.548 90.2925 87.075 90.2624C86.2322 90.2065 85.656 89.5959 85.6689 88.8176C85.6818 88.0737 86.2322 87.4588 87.0277 87.4244C88.0425 87.3814 89.0616 87.3771 90.0721 87.4244C90.8547 87.4631 91.4051 88.1167 91.3922 88.8563C91.3793 89.6002 90.8289 90.1936 90.0334 90.2581C89.5303 90.2968 89.0186 90.2667 88.5112 90.2667H88.5069Z" fill="#424242"/>
<path d="M42.5786 91.6986C42.1013 91.6986 41.6197 91.7287 41.1467 91.6943C40.3082 91.6341 39.7363 91.0063 39.7621 90.228C39.7836 89.4841 40.3426 88.8864 41.1424 88.852C42.1271 88.809 43.1161 88.809 44.0965 88.852C44.9307 88.8864 45.5069 89.54 45.4854 90.314C45.4596 91.0536 44.9006 91.6384 44.1051 91.6943C43.602 91.7287 43.0903 91.7029 42.5829 91.7029L42.5786 91.6986Z" fill="#424242"/>
<path d="M111.473 91.6986C110.966 91.6986 110.454 91.733 109.951 91.69C109.164 91.6212 108.618 91.0063 108.622 90.2624C108.626 89.5185 109.177 88.895 109.972 88.8606C110.987 88.8133 112.006 88.8133 113.017 88.8606C113.804 88.8993 114.354 89.5443 114.345 90.2839C114.337 91.0278 113.786 91.6083 112.995 91.6986C112.935 91.7072 112.875 91.7072 112.815 91.7072C112.367 91.7072 111.92 91.7072 111.469 91.7072C111.469 91.7072 111.469 91.7029 111.469 91.6986H111.473Z" fill="#424242"/>
<path d="M54.1626 93.1477C54.6098 93.1477 55.0613 93.1262 55.5042 93.1477C56.3556 93.195 56.9447 93.7755 56.9576 94.5495C56.9705 95.3278 56.3943 95.9599 55.5515 95.9943C54.5668 96.033 53.5778 96.0373 52.5974 95.9943C51.8019 95.9556 51.2472 95.345 51.2343 94.6011C51.2214 93.8228 51.7933 93.2079 52.6404 93.1563C53.1478 93.1219 53.6552 93.152 54.1626 93.1477Z" fill="#424242"/>
<path d="M77.0431 96.0029C76.5357 96.0029 76.024 96.0373 75.5209 95.9943C74.734 95.9255 74.1879 95.3106 74.1922 94.5667C74.1965 93.8228 74.7469 93.1993 75.5381 93.1606C76.5529 93.1133 77.572 93.1133 78.5825 93.1606C79.3694 93.1993 79.9198 93.84 79.9155 94.5839C79.9112 95.3278 79.3608 95.9298 78.5653 95.9943C78.0622 96.0373 77.5505 96.0029 77.0431 96.0029Z" fill="#424242"/>
<path d="M100.087 96.0029C99.5492 96.0029 99.0074 96.0373 98.4742 95.9943C97.6873 95.9298 97.1412 95.3106 97.1455 94.5667C97.1498 93.8228 97.7002 93.195 98.4914 93.1606C99.5062 93.1133 100.525 93.1133 101.536 93.1606C102.323 93.1993 102.873 93.84 102.869 94.5839C102.865 95.3278 102.314 95.9298 101.519 95.9943C101.046 96.033 100.564 96.0029 100.087 96.0029Z" fill="#424242"/>
<path d="M59.5092 110.455C59.4581 110.023 59.2507 109.688 58.8871 109.449C58.5234 109.21 58.0774 109.091 57.549 109.091C57.1626 109.091 56.8246 109.153 56.5348 109.278C56.2479 109.403 56.0234 109.575 55.8615 109.794C55.7024 110.013 55.6229 110.261 55.6229 110.54C55.6229 110.773 55.6783 110.973 55.7891 111.141C55.9027 111.305 56.0476 111.443 56.2237 111.554C56.3999 111.662 56.5845 111.751 56.7777 111.822C56.9709 111.891 57.1484 111.946 57.3104 111.989L58.1967 112.227C58.424 112.287 58.6768 112.369 58.9553 112.474C59.2365 112.58 59.505 112.723 59.7607 112.905C60.0192 113.084 60.2322 113.314 60.3999 113.595C60.5675 113.876 60.6513 114.222 60.6513 114.631C60.6513 115.102 60.5277 115.528 60.2805 115.909C60.0362 116.29 59.6783 116.592 59.2067 116.817C58.7379 117.041 58.1683 117.153 57.4979 117.153C56.8729 117.153 56.3317 117.053 55.8743 116.851C55.4197 116.649 55.0618 116.368 54.8004 116.007C54.5419 115.646 54.3956 115.227 54.3615 114.75H55.4524C55.4808 115.08 55.5916 115.352 55.7848 115.568C55.9808 115.781 56.228 115.94 56.5263 116.045C56.8274 116.148 57.1513 116.199 57.4979 116.199C57.9013 116.199 58.2635 116.134 58.5845 116.003C58.9055 115.869 59.1598 115.685 59.3473 115.449C59.5348 115.21 59.6286 114.932 59.6286 114.614C59.6286 114.324 59.5476 114.088 59.3857 113.906C59.2237 113.724 59.0107 113.577 58.7464 113.463C58.4822 113.349 58.1967 113.25 57.8899 113.165L56.8161 112.858C56.1342 112.662 55.5945 112.382 55.1967 112.018C54.799 111.655 54.6001 111.179 54.6001 110.591C54.6001 110.102 54.7322 109.676 54.9964 109.312C55.2635 108.946 55.6214 108.662 56.0703 108.46C56.522 108.256 57.0263 108.153 57.5831 108.153C58.1456 108.153 58.6456 108.254 59.0831 108.456C59.5206 108.655 59.8672 108.928 60.1229 109.274C60.3814 109.621 60.5178 110.014 60.532 110.455H59.5092ZM64.9968 117.136C64.3661 117.136 63.8221 116.997 63.3647 116.719C62.9102 116.438 62.5593 116.045 62.3121 115.543C62.0678 115.037 61.9457 114.449 61.9457 113.778C61.9457 113.108 62.0678 112.517 62.3121 112.006C62.5593 111.491 62.9031 111.091 63.3434 110.804C63.7866 110.514 64.3036 110.369 64.8945 110.369C65.2354 110.369 65.5721 110.426 65.9045 110.54C66.2369 110.653 66.5394 110.838 66.8121 111.094C67.0849 111.347 67.3022 111.682 67.4641 112.099C67.6261 112.517 67.707 113.031 67.707 113.642V114.068H62.6616V113.199H66.6843C66.6843 112.83 66.6104 112.5 66.4627 112.21C66.3178 111.92 66.1104 111.692 65.8406 111.524C65.5735 111.357 65.2582 111.273 64.8945 111.273C64.494 111.273 64.1474 111.372 63.8548 111.571C63.565 111.767 63.342 112.023 63.1857 112.338C63.0295 112.653 62.9513 112.991 62.9513 113.352V113.932C62.9513 114.426 63.0366 114.845 63.207 115.189C63.3803 115.53 63.6204 115.79 63.9272 115.969C64.234 116.145 64.5906 116.233 64.9968 116.233C65.261 116.233 65.4996 116.196 65.7127 116.122C65.9286 116.045 66.1147 115.932 66.271 115.781C66.4272 115.628 66.5479 115.437 66.6332 115.21L67.6048 115.483C67.5025 115.812 67.3306 116.102 67.0891 116.352C66.8477 116.599 66.5494 116.793 66.1942 116.932C65.8391 117.068 65.44 117.136 64.9968 117.136ZM69.2369 117V110.455H70.2085V111.477H70.2937C70.43 111.128 70.6502 110.857 70.9542 110.663C71.2582 110.467 71.6232 110.369 72.0494 110.369C72.4812 110.369 72.8406 110.467 73.1275 110.663C73.4173 110.857 73.6431 111.128 73.805 111.477H73.8732C74.0408 111.139 74.2923 110.871 74.6275 110.672C74.9627 110.47 75.3647 110.369 75.8335 110.369C76.4187 110.369 76.8974 110.553 77.2695 110.919C77.6417 111.283 77.8278 111.849 77.8278 112.619V117H76.8221V112.619C76.8221 112.136 76.69 111.791 76.4258 111.584C76.1616 111.376 75.8505 111.273 75.4925 111.273C75.0323 111.273 74.6758 111.412 74.4229 111.69C74.1701 111.966 74.0437 112.315 74.0437 112.739V117H73.021V112.517C73.021 112.145 72.9002 111.845 72.6587 111.618C72.4173 111.388 72.1062 111.273 71.7255 111.273C71.4641 111.273 71.2198 111.342 70.9925 111.482C70.7681 111.621 70.5863 111.814 70.4471 112.061C70.3107 112.305 70.2425 112.588 70.2425 112.909V117H69.2369ZM79.6665 117V110.455H80.6722V117H79.6665ZM80.1779 109.364C79.9819 109.364 79.8129 109.297 79.6708 109.163C79.5316 109.03 79.462 108.869 79.462 108.682C79.462 108.494 79.5316 108.334 79.6708 108.2C79.8129 108.067 79.9819 108 80.1779 108C80.3739 108 80.5415 108.067 80.6808 108.2C80.8228 108.334 80.8938 108.494 80.8938 108.682C80.8938 108.869 80.8228 109.03 80.6808 109.163C80.5415 109.297 80.3739 109.364 80.1779 109.364ZM83.5199 108.273V117H82.5142V108.273H83.5199ZM86.3675 108.273V117H85.3619V108.273H86.3675ZM90.1357 117.153C89.7209 117.153 89.3445 117.075 89.0064 116.919C88.6683 116.76 88.3999 116.531 88.201 116.233C88.0021 115.932 87.9027 115.568 87.9027 115.142C87.9027 114.767 87.9766 114.463 88.1243 114.23C88.272 113.994 88.4695 113.81 88.7166 113.676C88.9638 113.543 89.2365 113.443 89.5348 113.378C89.8359 113.31 90.1385 113.256 90.4425 113.216C90.8402 113.165 91.1626 113.126 91.4098 113.101C91.6598 113.072 91.8416 113.026 91.9553 112.96C92.0717 112.895 92.13 112.781 92.13 112.619V112.585C92.13 112.165 92.0149 111.838 91.7848 111.605C91.5575 111.372 91.2124 111.256 90.7493 111.256C90.2692 111.256 89.8928 111.361 89.62 111.571C89.3473 111.781 89.1555 112.006 89.0447 112.244L88.0902 111.903C88.2607 111.506 88.4879 111.196 88.772 110.974C89.0589 110.75 89.3714 110.594 89.7095 110.506C90.0504 110.415 90.3857 110.369 90.7152 110.369C90.9254 110.369 91.1669 110.395 91.4396 110.446C91.7152 110.494 91.9808 110.595 92.2365 110.749C92.495 110.902 92.7095 111.134 92.88 111.443C93.0504 111.753 93.1357 112.168 93.1357 112.688V117H92.13V116.114H92.0788C92.0107 116.256 91.897 116.408 91.7379 116.57C91.5788 116.732 91.3672 116.869 91.103 116.983C90.8388 117.097 90.5163 117.153 90.1357 117.153ZM90.2891 116.25C90.6868 116.25 91.022 116.172 91.2947 116.016C91.5703 115.859 91.7777 115.658 91.9169 115.411C92.0589 115.163 92.13 114.903 92.13 114.631V113.71C92.0874 113.761 91.9936 113.808 91.8487 113.851C91.7067 113.891 91.5419 113.926 91.3544 113.957C91.1697 113.986 90.9893 114.011 90.8132 114.034C90.6399 114.054 90.4993 114.071 90.3913 114.085C90.13 114.119 89.8857 114.175 89.6584 114.251C89.4339 114.325 89.2521 114.437 89.1129 114.588C88.9766 114.736 88.9084 114.937 88.9084 115.193C88.9084 115.543 89.0376 115.807 89.2962 115.986C89.5575 116.162 89.8885 116.25 90.2891 116.25ZM99.6076 111.92L98.7042 112.176C98.6474 112.026 98.5636 111.879 98.4528 111.737C98.3448 111.592 98.1971 111.473 98.0096 111.379C97.8221 111.286 97.582 111.239 97.2894 111.239C96.8888 111.239 96.555 111.331 96.288 111.516C96.0238 111.697 95.8917 111.929 95.8917 112.21C95.8917 112.46 95.9826 112.658 96.1644 112.803C96.3462 112.947 96.6303 113.068 97.0167 113.165L97.9883 113.403C98.5735 113.545 99.0096 113.763 99.2965 114.055C99.5835 114.345 99.7269 114.719 99.7269 115.176C99.7269 115.551 99.619 115.886 99.4031 116.182C99.19 116.477 98.8917 116.71 98.5082 116.881C98.1246 117.051 97.6786 117.136 97.1701 117.136C96.5025 117.136 95.9499 116.991 95.5124 116.702C95.0749 116.412 94.7979 115.989 94.6815 115.432L95.636 115.193C95.7269 115.545 95.8988 115.81 96.1516 115.986C96.4073 116.162 96.7411 116.25 97.1531 116.25C97.6218 116.25 97.994 116.151 98.2695 115.952C98.5479 115.75 98.6871 115.509 98.6871 115.227C98.6871 115 98.6076 114.81 98.4485 114.656C98.2894 114.5 98.0451 114.384 97.7156 114.307L96.6246 114.051C96.0252 113.909 95.5849 113.689 95.3036 113.391C95.0252 113.089 94.886 112.713 94.886 112.261C94.886 111.892 94.9897 111.565 95.1971 111.281C95.4073 110.997 95.6928 110.774 96.0536 110.612C96.4173 110.45 96.8292 110.369 97.2894 110.369C97.9371 110.369 98.4457 110.511 98.815 110.795C99.1871 111.08 99.4513 111.455 99.6076 111.92Z" fill="black"/>
</svg>
